<?xml version="1.0" encoding="utf-8"?>
<!-- Generator: Adobe Illustrator 18.1.1, SVG Export Plug-In . SVG Version: 6.00 Build 0)  -->
<svg version="1.1" id="图层_1" xmlns="http://www.w3.org/2000/svg" xmlns:xlink="http://www.w3.org/1999/xlink" x="0px" y="0px"
	 width="100" height="100" enable-background="new 0 0 100 100" xml:space="preserve">
<g>
	<path fill="#F4AB1C" d="M46.8,7.8c0.1-0.1,0.3-0.3,0.4-0.4C47.1,7.6,46.9,7.7,46.8,7.8z"/>
	<path fill="#F4AB1C" d="M50.2,6.2c0.1,0,0.1,0,0.1,0C50.3,6.2,50.2,6.2,50.2,6.2z"/>
	<path fill="#F4AB1C" d="M49.1,6.4c0.1,0,0.2-0.1,0.3-0.1C49.3,6.4,49.2,6.4,49.1,6.4z"/>
	<path fill="#F4AB1C" d="M49.5,6.3c0.1,0,0.2,0,0.3-0.1C49.7,6.3,49.6,6.3,49.5,6.3z"/>
	<path fill="#F4AB1C" d="M49.9,6.3c0.1,0,0.2,0,0.3,0C50.1,6.3,50,6.3,49.9,6.3z"/>
	<path fill="#F4AB1C" d="M47.4,7.3c0.1-0.1,0.2-0.1,0.2-0.2C47.6,7.2,47.5,7.2,47.4,7.3z"/>
	<path fill="#F4AB1C" d="M10.3,84.4h79.5L50.1,15.5L10.3,84.4z M59.4,53l-4.9,3.1l4.2,2.9c1.2,1.3,1.1,2.2-0.1,2.9l-4,3.1l3.8,2.5
		c1.9,1.1,1.4,2.4-0.1,3.7l-13.7,8.1l-3.6-6.4l5.1-3.4l-4.6-3.1c-1.3-0.9-1.2-1.8,0.2-2.8l4.1-3l-4.4-2.8c-1.1-1-1-1.9-0.2-2.9
		l14-8.7L59.4,53z"/>
	<path fill="#F4AB1C" d="M48.2,6.8c0.1-0.1,0.2-0.1,0.3-0.1C48.3,6.7,48.2,6.8,48.2,6.8z"/>
	<path fill="#F4AB1C" d="M47.8,7C47.9,7,48,6.9,48,6.9C48,6.9,47.9,7,47.8,7z"/>
	<path fill="#F4AB1C" d="M48.4,6.7c0.1,0,0.2-0.1,0.3-0.1C48.6,6.6,48.5,6.6,48.4,6.7z"/>
	<path fill="#010101" d="M98.3,88c0-0.2,0-0.4-0.1-0.6c-0.1-0.4-0.2-0.8-0.3-1.3c0-0.1-0.1-0.2-0.1-0.2c-0.1-0.2-0.1-0.3-0.2-0.4
		c0-0.1-0.1-0.2-0.1-0.2c-0.1-0.3-0.2-0.6-0.4-0.9c-0.1-0.2-0.1-0.3-0.2-0.5c-0.1-0.3-0.3-0.6-0.5-0.9c-0.1-0.2-0.2-0.3-0.2-0.5
		c-0.1-0.2-0.2-0.3-0.3-0.4c-0.3-0.4-0.5-0.9-0.8-1.3L54,8.7c-0.5-0.8-1-1.4-1.6-1.8c-0.2-0.1-0.4-0.2-0.5-0.3
		c-0.1,0-0.2-0.1-0.3-0.1c-0.1,0-0.2-0.1-0.3-0.1c-0.3-0.1-0.6-0.1-0.8-0.1c-0.1,0-0.1,0-0.1,0c-0.1,0-0.1,0-0.1,0
		c-0.1,0-0.2,0-0.3,0c-0.1,0-0.1,0-0.1,0c-0.1,0-0.2,0-0.3,0.1c-0.1,0-0.1,0-0.1,0c-0.1,0-0.2,0.1-0.3,0.1c-0.1,0-0.3,0.1-0.4,0.1
		c-0.1,0-0.2,0.1-0.3,0.1c-0.1,0-0.2,0.1-0.3,0.1c0,0-0.1,0.1-0.1,0.1C48,6.9,47.9,7,47.8,7c0,0-0.1,0.1-0.1,0.1
		c-0.1,0.1-0.2,0.1-0.2,0.2c-0.1,0.1-0.2,0.1-0.2,0.2c-0.2,0.1-0.3,0.3-0.4,0.4c-0.3,0.3-0.5,0.6-0.7,0.9L4,82.3
		c-0.2,0.3-0.3,0.6-0.5,0.9c-0.1,0.1-0.1,0.3-0.2,0.4c-0.3,0.7-0.6,1.4-0.8,2c-0.1,0.3-0.2,0.5-0.2,0.7c-0.2,0.9-0.3,1.6-0.2,2.3
		c0,0.1,0,0.2,0.1,0.3c0.1,0.4,0.2,0.7,0.4,1C3,90.7,3.8,91.2,5,91.4h89.3l0,0c1,0,1.8-0.1,2.4-0.4c0.2-0.1,0.5-0.2,0.6-0.4
		c0.2-0.2,0.3-0.3,0.5-0.5c0.1-0.1,0.1-0.2,0.2-0.3c0.1-0.1,0.1-0.2,0.1-0.3c0-0.1,0-0.1,0.1-0.2c0.1-0.2,0.1-0.4,0.1-0.7
		c0-0.1,0-0.2,0-0.4C98.3,88.2,98.3,88.1,98.3,88z M10.3,84.4L50,15.5l39.7,68.9H10.3z"/>
	<path fill="#010101" d="M41.4,57.8l4.4,2.8l-4.1,3c-1.5,0.9-1.5,1.8-0.2,2.8l4.6,3.1l-5.1,3.4l3.6,6.4l13.7-8.1
		c1.5-1.3,2-2.5,0.1-3.7L54.5,65l4-3.1c1.2-0.6,1.3-1.6,0.1-2.9l-4.2-2.9l4.9-3.1l-4.1-6.8l-14,8.7C40.4,55.9,40.3,56.8,41.4,57.8z"
		/>
</g>
</svg>
