<?xml version="1.0" encoding="utf-8"?>
<!-- Generator: Adobe Illustrator 18.1.1, SVG Export Plug-In . SVG Version: 6.00 Build 0)  -->
<svg version="1.1" id="图层_1" xmlns="http://www.w3.org/2000/svg" xmlns:xlink="http://www.w3.org/1999/xlink" x="0px" y="0px"
	 width="100" height="100" enable-background="new 0 0 100 100" xml:space="preserve">
<ellipse fill="#FFFFFF" stroke="#2A3685" stroke-width="2.8346" stroke-miterlimit="2.4142" cx="50" cy="49.5" rx="48.3" ry="47.7"/>
<ellipse fill="#2A3685" cx="50" cy="49.5" rx="44.4" ry="43.8"/>
<path fill="#FFFFFF" d="M49.2,85.5l0.1-53.3L43,37.4l0-13.8l10.4-10.1l11.4,10.1l0.1,14L58,30.8v11.5l2.7-1.4h13.4
	c2,0.6,3.4,2,4.3,4.1l0,15.1c0,2.2-1.8,3.7-4.2,5l-14.3,0v-6.8l8.8,0c1.4-0.8,2.1-1.9,2.3-3.3l0-4.5c-1-1.6-2-2.2-3.2-2.5l-5.2-0.1
	c-2.4,0.6-3.1,1.1-4.5,3.3l0,34.5H49.2L49.2,85.5z"/>
<polygon fill="#FFFFFF" points="32.4,50.3 41.7,50.3 34.2,58.1 46.9,58.2 46.9,65.2 34.9,65.3 41.1,72.6 32,72.6 21.6,61.4 "/>
</svg>
