<?xml version="1.0" encoding="utf-8"?>
<!-- Generator: Adobe Illustrator 18.1.1, SVG Export Plug-In . SVG Version: 6.00 Build 0)  -->
<svg version="1.1" id="图层_1" xmlns="http://www.w3.org/2000/svg" xmlns:xlink="http://www.w3.org/1999/xlink" x="0px" y="0px"
	width="100" height="100" enable-background="new 0 0 100 100" xml:space="preserve">
<path fill="#1296DB" d="M95.2,100.3h-90C2.3,100.3,0,98,0,95.2v-90C0,2.3,2.3,0,5.1,0h90c2.8,0,5.1,2.3,5.1,5.1v90
	C100.3,98,98,100.3,95.2,100.3z"/>
<path fill="#FFFFFF" d="M89,94.1H11.3c-2.8,0-5.1-2.3-5.1-5.1V11.3c0-2.8,2.3-5.1,5.1-5.1H89c2.8,0,5.1,2.3,5.1,5.1V89
	C94.1,91.8,91.8,94.1,89,94.1z"/>
<g>
	<path fill="#1296DB" d="M29.7,20h26.1c6.3,0,11.3,1.7,15,5.1s5.5,7.8,5.5,13.2s-1.8,9.9-5.5,13.3c-3.7,3.5-8.5,5.2-14.4,5.2H41.4
		v21.6H29.7V20z M41.4,45.2h17c1.8,0,3.4-0.7,4.7-2c1.3-1.3,2-3,2-5s-0.7-3.6-2.1-4.7c-1.4-1.2-3.4-1.8-5.9-1.8H41.4V45.2z"/>
</g>
</svg>
