<?xml version="1.0" encoding="utf-8"?>
<!-- Generator: Adobe Illustrator 18.1.1, SVG Export Plug-In . SVG Version: 6.00 Build 0)  -->
<svg version="1.1" id="图层_1" xmlns="http://www.w3.org/2000/svg" xmlns:xlink="http://www.w3.org/1999/xlink" x="0px" y="0px"
	  width="100" height="100" enable-background="new 0 0 100 100" xml:space="preserve">
<path fill="#FFFFFF" d="M94.2,99.3H5.1C2.3,99.3,0,97,0,94.2V5.1C0,2.2,2.3,0,5.1,0h89.1c2.8,0,5.1,2.3,5.1,5.1v89.1
	C99.3,97,97,99.3,94.2,99.3z"/>
<path fill="#1296DB" d="M87,39.4H62.6c-1.4,0-2.6-1.2-2.6-2.6V12.5c0-1.4,1.2-2.6,2.6-2.6H87c1.4,0,2.6,1.2,2.6,2.6v24.3
	C89.5,38.2,88.4,39.4,87,39.4z"/>
<path fill="#FFFFFF" d="M85.4,37.6H64.1c-1.3,0-2.3-1-2.3-2.3V14c0-1.3,1-2.3,2.3-2.3h21.3c1.3,0,2.3,1,2.3,2.3v21.3
	C87.7,36.5,86.7,37.6,85.4,37.6z"/>
<g>
	<path fill="#1296DB" d="M68.8,15.8h7.7c1.8,0,3.3,0.5,4.4,1.5c1.1,1,1.6,2.3,1.6,3.9c0,1.6-0.5,2.9-1.6,3.9c-1.1,1-2.5,1.5-4.2,1.5
		h-4.4v6.4h-3.4L68.8,15.8L68.8,15.8z M72.2,23.2h5c0.5,0,1-0.2,1.4-0.6c0.4-0.4,0.6-0.9,0.6-1.5c0-0.6-0.2-1-0.6-1.4
		c-0.4-0.3-1-0.5-1.7-0.5h-4.6V23.2z"/>
</g>
<path fill="#1296DB" d="M91.6,74.3c0,0,0.5-5.6-5.1-8.7c-5.6-3.1-18.3-4-18.3-4s-10.3-8.3-15.6-10.1c-5.3-1.8-12.4-1.9-12.4-1.9
	s-16.7-1.4-25.4,6.8S7,67.3,7,67.3s-4.6,6.4,1.6,7.1"/>
<circle fill="#FFFFFF" cx="21.5" cy="73.3" r="6.1"/>
<circle fill="#FFFFFF" cx="71.7" cy="72.3" r="6.1"/>
<circle fill="#1296DB" cx="21.5" cy="73.1" r="5.1"/>
<circle fill="#1296DB" cx="71.6" cy="72.3" r="5.1"/>
<circle fill="#FFFFFF" cx="71.6" cy="72.3" r="2.7"/>
<circle fill="#FFFFFF" cx="21.5" cy="73.1" r="2.7"/>
<path fill="#FFFFFF" d="M63.8,61.2c0,0-10.9-9.4-19.5-9.4s-5.5,0-5.5,0c-0.2,3.1-0.5,6.3-0.7,9.4C46.7,61.1,55.3,61.1,63.8,61.2z"/>
<path fill="#FFFFFF" d="M36.7,52.2L36,61.1H15.8c0,0,5.3-6.5,8.5-7.7c3.2-1.2,12.4-1.6,12.4-1.6V52.2z"/>
<polygon fill="#FFFFFF" points="43.5,62.5 42.9,63.4 38.8,63.4 38.8,62.5 "/>
<polygon fill="#FFFFFF" points="89.5,67.8 85,67.8 85.8,68.7 90.2,69.1 "/>
<polygon fill="#FFFFFF" points="10.5,66.3 7.2,66 6.2,67.6 10,67.2 "/>
</svg>
