<?xml version="1.0" encoding="utf-8"?>
<!-- Generator: Adobe Illustrator 18.1.1, SVG Export Plug-In . SVG Version: 6.00 Build 0)  -->
<svg version="1.1" id="图层_1" xmlns="http://www.w3.org/2000/svg" xmlns:xlink="http://www.w3.org/1999/xlink" x="0px" y="0px"
	width="100" height="100" enable-background="new 0 0 100 100" xml:space="preserve">
<path fill="#FFFFFF" d="M94.5,99.5H5.5c-2.8,0-5.1-2.3-5.1-5.1V5.5c0-2.8,2.3-5.1,5.1-5.1h88.9c2.8,0,5.1,2.3,5.1,5.1v88.9
	C99.5,97.3,97.3,99.5,94.5,99.5z"/>
<path fill="#1296DB" d="M87.2,39.8H62.9c-1.4,0-2.6-1.1-2.6-2.6V12.9c0-1.4,1.1-2.6,2.6-2.6h24.3c1.4,0,2.6,1.1,2.6,2.6v24.3
	C89.8,38.6,88.6,39.8,87.2,39.8z"/>
<path fill="#FFFFFF" d="M85.7,38H64.4c-1.2,0-2.3-1-2.3-2.3V14.4c0-1.2,1-2.3,2.3-2.3h21.2c1.2,0,2.3,1,2.3,2.3v21.2
	C87.9,36.9,86.9,38,85.7,38z"/>
<g>
	<path fill="#1296DB" d="M69.1,16.2h7.7c1.8,0,3.3,0.5,4.4,1.5c1.1,1,1.6,2.3,1.6,3.9s-0.5,2.9-1.6,3.9c-1.1,1-2.5,1.5-4.2,1.5h-4.4
		v6.3h-3.4L69.1,16.2L69.1,16.2z M72.5,23.6h5c0.5,0,1-0.2,1.4-0.6c0.4-0.4,0.6-0.9,0.6-1.5c0-0.6-0.2-1-0.6-1.4s-1-0.5-1.7-0.5
		h-4.6V23.6z"/>
</g>
<path fill="#1296DB" d="M5.9,74.7c0,0-0.5-5.6,5.1-8.7c5.6-3.1,18.3-4,18.3-4s10.3-8.3,15.6-10.1s12.4-1.9,12.4-1.9
	s16.7-1.4,25.3,6.8s7.6,10.8,7.6,10.8s4.5,6.3-1.6,7"/>
<circle fill="#FFFFFF" cx="75.8" cy="73.6" r="6.1"/>
<circle fill="#FFFFFF" cx="25.7" cy="72.6" r="6.1"/>
<circle fill="#1296DB" cx="75.8" cy="73.4" r="5.1"/>
<circle fill="#1296DB" cx="25.8" cy="72.6" r="5.1"/>
<circle fill="#FFFFFF" cx="25.8" cy="72.6" r="2.7"/>
<circle fill="#FFFFFF" cx="75.8" cy="73.4" r="2.7"/>
<path fill="#FFFFFF" d="M33.6,61.5c0,0,10.9-9.4,19.4-9.4s5.5,0,5.5,0c0.2,3.1,0.5,6.2,0.7,9.4C50.7,61.5,42.1,61.5,33.6,61.5z"/>
<path fill="#FFFFFF" d="M60.7,52.6l0.7,8.8h20.2c0,0-5.3-6.5-8.4-7.7s-12.4-1.6-12.4-1.6V52.6z"/>
<polygon fill="#FFFFFF" points="53.9,62.8 54.5,63.7 58.6,63.7 58.6,62.8 "/>
<polygon fill="#FFFFFF" points="7.9,68.1 12.5,68.1 11.7,69.1 7.3,69.4 "/>
<polygon fill="#FFFFFF" points="86.8,66.7 90.1,66.4 91.1,68 87.2,67.5 "/>
</svg>
