<?xml version="1.0" encoding="utf-8"?>
<!-- Generator: Adobe Illustrator 18.1.1, SVG Export Plug-In . SVG Version: 6.00 Build 0)  -->
<svg version="1.1" id="图层_1" xmlns="http://www.w3.org/2000/svg" xmlns:xlink="http://www.w3.org/1999/xlink" x="0px" y="0px"
	 width="100" height="100" enable-background="new 0 0 100 100" xml:space="preserve">
<ellipse fill="#FFFFFF" stroke="#2A3685" stroke-width="2.8346" stroke-miterlimit="2.4142" cx="50.1" cy="50" rx="48.2" ry="47.6"/>
<ellipse fill="#2A3685" cx="50.1" cy="50" rx="44.3" ry="43.7"/>
<polygon fill="#FFFFFF" points="44.7,85.2 44.6,31.4 51.7,39.2 51.7,25.8 40.3,14.7 29.7,24.9 29.7,38 36.1,31.4 36.1,85.3 "/>
<path fill="#FFFFFF" d="M70,53.6l-14,0c-4.5,2.2-8.2,6.1-11.6,10.8l0,15.4C49.5,65.2,58,56.5,70,53.6L70,53.6z"/>
<polygon fill="#FFFFFF" points="47,53.6 70.2,53.5 64.3,59 73.3,59.2 82.6,50.2 73.2,40.4 64.4,40.5 70.2,46.7 47,46.8 "/>
<polygon fill="#FFFFFF" points="17.5,53.6 33.8,53.5 33.8,46.7 17.6,46.8 "/>
</svg>
