<?xml version="1.0" encoding="utf-8"?>
<!-- Generator: Adobe Illustrator 18.1.1, SVG Export Plug-In . SVG Version: 6.00 Build 0)  -->
<svg version="1.1" id="图层_1" xmlns="http://www.w3.org/2000/svg" xmlns:xlink="http://www.w3.org/1999/xlink" x="0px" y="0px"
	 width="100" height="100" enable-background="new 0 0 100 100" xml:space="preserve">
<path fill="#FFFFFF" stroke="#293C93" stroke-width="2.8346" stroke-miterlimit="10" d="M50,98.1c26.8,0,48.7-21.7,48.7-48.1
	c0-26.4-21.9-48-48.7-48S1.3,23.6,1.3,49.9C1.3,76.4,23.2,98.1,50,98.1z"/>
<path fill="#293C93" d="M50,94.1c24.7,0,44.7-19.8,44.7-44.2C94.7,25.7,74.7,5.9,50,5.9S5.3,25.7,5.3,49.9
	C5.3,74.3,25.3,94.1,50,94.1z"/>
<path fill="#FFFFFF" stroke="#FFFFFF" stroke-width="0.216" stroke-miterlimit="10" d="M34,22.7l5.4-2.6l-2.2,6l0.5,1.2
	c13-5.6,23.3-3.7,32.4,6l-3.5,2.8c-7.5-8-16.8-9.5-26.9-4.6l0.6,1.5l6.5,1.4l-5.4,3.3l-12.2-3.9L34,22.7z"/>
<path fill="#FFFFFF" stroke="#FFFFFF" stroke-width="0.216" stroke-miterlimit="10" d="M34.3,78l-5-3.4l6.4-1.1l0.7-1.1
	C25.2,64,21.7,54.3,25.7,41.7l4.2,1.6c-3.3,10.5,0,19.1,9.4,25.4l0.9-1.3l-1.9-6.3l5.6,3l2.6,12.5L34.3,78z"/>
<path fill="#FFFFFF" stroke="#FFFFFF" stroke-width="0.216" stroke-miterlimit="10" d="M82.8,49.8l-0.4,6.1L78.2,51l-1.3-0.2
	c-1.6,14-8.1,21.9-21.2,25l-0.7-4.3c10.9-2.6,16.8-9.8,17.3-21l-1.6-0.1l-4.4,4.9L65.9,49l9.5-8.5L82.8,49.8z"/>
</svg>
