<?xml version="1.0" encoding="utf-8"?>
<!-- Generator: Adobe Illustrator 18.1.1, SVG Export Plug-In . SVG Version: 6.00 Build 0)  -->
<svg version="1.1" id="图层_1" xmlns="http://www.w3.org/2000/svg" xmlns:xlink="http://www.w3.org/1999/xlink" x="0px" y="0px"
	 width="100" height="100" enable-background="new 0 0 100 100" xml:space="preserve">
<path fill="#FFFFFF" stroke="#2B2A76" stroke-width="2.8346" stroke-miterlimit="10" d="M50,97.6c26.5,0,48.2-21.5,48.2-47.7
	C98.1,23.8,76.5,2.4,50,2.4S1.9,23.8,1.9,49.9C1.9,76.1,23.4,97.6,50,97.6z"/>
<path fill="#2B2A76" d="M50,93.7c24.4,0,44.3-19.7,44.3-43.7C94.2,26,74.4,6.3,50,6.3S5.7,26,5.7,49.9C5.7,74,25.5,93.7,50,93.7z"/>
<path fill="#FFFFFF" d="M39,27.2c2.5,0,4.7-2.1,4.7-4.7S41.5,18,39,18c-2.6,0-4.8,2-4.8,4.5C34.2,25.1,36.3,27.2,39,27.2z"/>
<path fill="#FFFFFF" d="M65.1,52c2.3,0,4.2-1.9,4.2-4.1c0-2.3-1.9-4.1-4.2-4.1c-2.3,0-4.1,1.8-4.1,4.1C60.9,50.1,62.7,52,65.1,52z"
	/>
<path fill="#FFFFFF" d="M36.5,28.7c1.8-0.4,3.7-0.3,6.1,0c4.5,4.9,7.4,12.5,10.5,20.6c-0.5,1.2-1.7,1.7-3.7,1.8l-5-11.1l0.1,40.8
	c-1.6,1.3-3.3,1.5-5,0.7l-0.1-29.9h-1.3l0.1,26.7c-2,2.5-3.5,2.1-4.7-0.2l-0.5-40.9l-3.3,3.4l-2.8,8.6c-1.1,1.5-2.2,1.2-3.3-1.1
	L26.1,38C29.7,32.8,33,28.8,36.5,28.7z"/>
<path fill="#FFFFFF" d="M62.7,52.9c0.9-0.3,3.3-0.3,5,0c3,3.2,6.1,5.7,8.4,9.5c-0.6,0.9-1.6,2-2.3,2.1l-5.5-5.7l0.1,22.3
	c-1.2,0.6-2.2,1.2-3.4,0.7V67h-1.4l0.1,14.7c-3.9,0-3.6-0.8-3.6-1.7l0.1-20.7l-3.6,1.1l-4.5-6c-1.5-1.3,0-3.3,1.6-3.3l4.2,4.9
	C59.6,54.1,60.5,53.9,62.7,52.9z"/>
</svg>
