<?xml version="1.0" encoding="utf-8"?>
<!-- Generator: Adobe Illustrator 18.1.1, SVG Export Plug-In . SVG Version: 6.00 Build 0)  -->
<svg version="1.1" id="图层_1" xmlns="http://www.w3.org/2000/svg" xmlns:xlink="http://www.w3.org/1999/xlink" x="0px" y="0px"
	 width="100" height="100" enable-background="new 0 0 100 100" xml:space="preserve">
<ellipse fill="#FFFFFF" stroke="#2A3685" stroke-width="2.8346" stroke-miterlimit="2.4142" cx="50" cy="50" rx="48.1" ry="47.6"/>
<ellipse fill="#2A3685" cx="50" cy="50" rx="44.2" ry="43.7"/>
<path fill="#FFFFFF" d="M80.7,56.5l-5.2-0.2c-1.4-5.7-4.2-8.8-8-10l-4.6,0l-25.5-0.2c-7.5-0.8-13.8-6.6-19.7-14.6v33.3
	c4-8.2,9.9-12.1,17.1-13l30.7,0.2c2.2,0.8,4.3,1.9,4.4,4.8l-33,0c-6.3,2.3-7,9.3-0.3,11.7h30.9c4.3-1.5,7.5-3.8,8.1-8.1l4.9,0.1
	l1.7,1.7v-6.9L80.7,56.5z M65.1,64.3h-28c-1.7-1.4-1.5-3.2,0-4.1h32.4C70.1,62.2,68.6,63.5,65.1,64.3z"/>
</svg>
