<?xml version="1.0" encoding="utf-8"?>
<!-- Generator: Adobe Illustrator 18.1.1, SVG Export Plug-In . SVG Version: 6.00 Build 0)  -->
<svg version="1.1" id="图层_1" xmlns="http://www.w3.org/2000/svg" xmlns:xlink="http://www.w3.org/1999/xlink" x="0px" y="0px"
	 width="100" height="100" enable-background="new 0 0 100 100" xml:space="preserve">
<path fill="#FFFFFF" stroke="#293C93" stroke-width="2.8346" stroke-miterlimit="10" d="M50,97.7c26.7,0,48.5-21.5,48.5-47.9
	S76.7,1.9,50,1.9S1.5,23.5,1.5,49.9S23.3,97.7,50,97.7z"/>
<path fill="#293C93" d="M49.8,5.9c24.6,0,44.6,19.8,44.6,44c0,11.4-4.5,21.8-11.7,29.7H16.9C9.7,71.8,5.2,61.4,5.2,50
	C5.2,25.7,25.2,5.9,49.8,5.9z"/>
<path fill="#FFFFFF" d="M66,68.7v-6.9c0.9,0,1.7-0.3,2.3-1.1c0.6-0.7,1.2-1.9,1.5-3.4c0.3-1.6,0.4-4,0.4-7.3c0-4.9-0.3-8.1-1.1-9.8
	s-1.8-2.5-3.2-2.6v-6.7h0.2c2.2,0,3.9,0.2,5.4,0.9c1.4,0.6,2.5,1.4,3.4,2.3c0.9,1.1,1.5,2,2,3.1c0.5,1.1,1,2.3,1.3,3.8
	c0.5,2.7,0.9,5.5,0.9,8.5c0,6.6-1,11.5-3,14.6C74.3,67.2,70.9,68.7,66,68.7z M26.3,31.5h21.4v8.2H33.2l-0.7,5.4c1-0.5,1.9-0.9,3-1.2
	c1-0.2,1.9-0.4,2.9-0.4c3.2,0,5.9,1.2,7.9,3.4c2,2.1,3,5,3,8.3c0,2.5-0.5,4.7-1.5,6.8c-1.1,2.2-2.6,3.8-4.5,5
	c-1.9,1.2-4.3,1.7-7.3,1.7c-2.1,0-3.9-0.2-5.4-0.6c-1.5-0.4-2.8-1.2-3.8-2c-1.1-1-2-1.9-2.7-3.1c-0.6-1.2-1.2-2.6-1.6-4.4l9-1.1
	c0.2,1.6,0.7,2.9,1.5,3.7c0.9,0.9,1.8,1.3,3,1.3c1.2,0,2.2-0.5,3.1-1.6c0.7-1.1,1.2-2.7,1.2-4.8c0-2.2-0.4-3.8-1.2-4.8
	c-0.9-1.1-1.9-1.5-3.3-1.5c-0.9,0-1.7,0.2-2.6,0.6c-0.5,0.4-1.3,1.1-1.9,1.9l-7.7-1.2L26.3,31.5L26.3,31.5z M66,30.9v6.7h-0.1
	c-1.5,0-2.6,0.9-3.2,2.6c-0.6,1.7-1,4.9-1,9.5c0,4.7,0.3,7.9,1.1,9.6c0.7,1.7,1.8,2.6,3.2,2.6l0,0v6.9l0,0c-2.8,0-4.9-0.4-6.6-1.4
	c-1.7-1.1-3.1-2.5-4.2-4.4c-0.7-1.4-1.4-3.2-1.8-5.5c-0.4-2.3-0.6-4.9-0.6-7.8c0-6.9,1.1-11.8,3.3-14.6C58.3,32.3,61.6,30.9,66,30.9
	z"/>
</svg>
