<?xml version="1.0" encoding="utf-8"?>
<!-- Generator: Adobe Illustrator 18.1.1, SVG Export Plug-In . SVG Version: 6.00 Build 0)  -->
<svg version="1.1" id="图层_1" xmlns="http://www.w3.org/2000/svg" xmlns:xlink="http://www.w3.org/1999/xlink" x="0px" y="0px"
	 width="100" height="100" enable-background="new 0 0 100 100" xml:space="preserve">
<g>
	<polygon fill="#F4AB1C" points="44.2,68.5 43.7,64.4 61.3,74.8 63,72.7 45.4,61.8 49,60.8 46.1,58.5 39.2,60.4 40.9,66.8 	"/>
	<path fill="#F4AB1C" d="M10,85.1h80.8L50.4,15.1L10,85.1z M12.3,83.8l20.5-35l56.2,35H12.3z"/>
	<path fill="#010101" d="M96.4,81.4l-42-73.2c-2.4-4.1-6.4-2.5-8,0L3.6,83c-0.2,0.3-0.3,0.6-0.5,0.9c-0.7,1.4-1.2,2.8-1.4,3.9
		c0,0.2-0.1,0.5-0.1,0.7C1.5,90,2,91.2,3.3,91.8c0.4,0.2,0.8,0.3,1.3,0.4h90.7C101.9,92.3,99.2,85.9,96.4,81.4z M10,85.1l40.4-70.1
		l40.4,70.1H10z"/>
	<path fill="#010101" d="M12.3,83.8H89l-56.2-35L12.3,83.8z M46.1,58.5l2.9,2.3l-3.6,1L63,72.7l-1.7,2.1L43.7,64.4l0.5,4.2l-3.3-1.7
		l-1.7-6.5L46.1,58.5z"/>
</g>
</svg>
