<?xml version="1.0" encoding="utf-8"?>
<!-- Generator: Adobe Illustrator 18.1.1, SVG Export Plug-In . SVG Version: 6.00 Build 0)  -->
<svg version="1.1" id="图层_1" xmlns="http://www.w3.org/2000/svg" xmlns:xlink="http://www.w3.org/1999/xlink" x="0px" y="0px"
	 width="100" height="100" enable-background="new 0 0 100 100" xml:space="preserve">
<rect x="1.5" y="2.6" fill="#FFFFFF" stroke="#293C93" stroke-width="2.8346" stroke-miterlimit="10" width="97" height="94.5"/>
<rect x="4.3" y="5.4" fill="#293C93" stroke="#0C72BA" stroke-width="1.1339" stroke-miterlimit="10" width="91.3" height="88.8"/>
<polygon fill="#FFFFFF" stroke="#FFFFFF" stroke-width="0.216" stroke-miterlimit="10" points="12.4,81.3 49.4,18.2 87.6,81.4 "/>
<path fill="#231F20" stroke="#231F20" stroke-width="0.216" stroke-miterlimit="10" d="M49.2,45.6c1.9,0,3.6-1.6,3.6-3.5
	c0-2-1.7-3.6-3.6-3.6c-2,0-3.6,1.6-3.6,3.6C45.6,44,47.2,45.6,49.2,45.6z"/>
<path fill="#231F20" stroke="#231F20" stroke-width="0.216" stroke-miterlimit="10" d="M38.2,56.3c3.1-1.7,5.9-4.3,7.9-7.8
	c1.6-3,4.9-2.2,7.1-0.4l4.4,6.8l0.5,4.8c-2,2.2-3.3,1.8-3.5-4.9l-2-1.7l0.3,14.2l3.4,6.4c0.9,2.2-1.9,3.8-3.8,0.6l-3.4-7.1v-4.4
	l-3.3,3.8c-1,1.3-0.9,3.1-1.3,4.6l-0.7,3.2c-5,5.1-1.9-7.4-2.1-8.2c0.4-1.9,2.9-3.8,3.8-5.1v-5.4l-1.1,0.1c-0.9,0-3.9,2.7-4.8,2.7
	c-1.2,0.1-2.7-1.3-1.7-1.9C38,56.4,38.1,56.4,38.2,56.3z"/>
<polygon fill="#231F20" stroke="#231F20" stroke-width="0.216" stroke-miterlimit="10" points="31.5,66.7 35.6,66.7 42.8,79.9 
	38.8,79.9 "/>
<polygon fill="#231F20" stroke="#231F20" stroke-width="0.216" stroke-miterlimit="10" points="54.3,66.7 58.4,66.7 65.6,79.9 
	61.5,79.9 "/>
<polygon fill="#231F20" stroke="#231F20" stroke-width="0.216" stroke-miterlimit="10" points="65.5,66.7 69.7,66.7 76.8,79.9 
	72.7,79.9 "/>
<polygon fill="#231F20" stroke="#231F20" stroke-width="0.216" stroke-miterlimit="10" points="25.5,68.7 31.8,79.9 27.7,79.9 
	23.1,71.7 "/>
<polygon fill="#231F20" stroke="#231F20" stroke-width="0.216" stroke-miterlimit="10" points="47.5,66.9 54.3,79.9 50.8,80 
	46.4,71.9 "/>
</svg>
