<?xml version="1.0" encoding="utf-8"?>
<!-- Generator: Adobe Illustrator 18.1.1, SVG Export Plug-In . SVG Version: 6.00 Build 0)  -->
<svg version="1.1" id="图层_1" xmlns="http://www.w3.org/2000/svg" xmlns:xlink="http://www.w3.org/1999/xlink" x="0px" y="0px"
	 width="100" height="100" enable-background="new 0 0 100 100" xml:space="preserve">
<polygon fill="#FFFFFF" stroke="#2A3685" stroke-width="2.8346" stroke-miterlimit="2.4142" points="1.6,2.6 98.4,2.6 98.4,96.9 
	1.6,96.9 "/>
<polygon fill="#2A3685" stroke="#1569B3" stroke-width="1.1339" stroke-miterlimit="2.4142" points="4.4,5.4 95.6,5.4 95.6,94.1 
	4.4,94.1 "/>
<rect x="7.8" y="14.1" fill="#FFFFFF" width="5.9" height="10.1"/>
<rect x="86.3" y="14.1" fill="#FFFFFF" width="5.9" height="10.1"/>
<rect x="7.8" y="34.4" fill="#FFFFFF" width="5.9" height="10.1"/>
<rect x="86.3" y="34.4" fill="#FFFFFF" width="5.9" height="10.1"/>
<rect x="7.8" y="54.4" fill="#FFFFFF" width="5.9" height="10.1"/>
<rect x="86.3" y="54.4" fill="#FFFFFF" width="5.9" height="10.1"/>
<rect x="7.8" y="75.2" fill="#FFFFFF" width="5.9" height="10.1"/>
<rect x="86.3" y="75.2" fill="#FFFFFF" width="5.9" height="10.1"/>
<path fill="#FFFFFF" d="M24,84.6h8.4l0-45.6l30.9,0l-8.5,8.2l10.1,0l12.5-11L65.4,25H55l8.2,7.2l-31.8,0c-5.2-0.3-7.4,2.3-7.3,7.2
	L24,84.6L24,84.6z"/>
</svg>
