<?xml version="1.0" encoding="utf-8"?>
<!-- Generator: Adobe Illustrator 18.1.1, SVG Export Plug-In . SVG Version: 6.00 Build 0)  -->
<svg version="1.1" id="图层_1" xmlns="http://www.w3.org/2000/svg" xmlns:xlink="http://www.w3.org/1999/xlink" x="0px" y="0px"
	 width="100" height="100" enable-background="new 0 0 100 100" xml:space="preserve">
<polygon fill="#FFFFFF" stroke="#2A3685" stroke-width="2.8346" stroke-miterlimit="2.4142" points="1.4,2.6 98.6,2.6 98.6,97.2 
	1.4,97.2 "/>
<polygon fill="#2A3685" stroke="#1569B3" stroke-width="1.1339" stroke-miterlimit="2.4142" points="4.3,5.4 95.7,5.4 95.7,94.4 
	4.3,94.4 "/>
<rect x="7.6" y="14.2" fill="#FFFFFF" width="6" height="10.2"/>
<rect x="86.4" y="14.2" fill="#FFFFFF" width="6" height="10.2"/>
<rect x="7.6" y="34.5" fill="#FFFFFF" width="6" height="10.2"/>
<rect x="86.4" y="34.5" fill="#FFFFFF" width="6" height="10.2"/>
<rect x="7.6" y="54.6" fill="#FFFFFF" width="6" height="10.2"/>
<rect x="86.4" y="54.6" fill="#FFFFFF" width="6" height="10.2"/>
<rect x="7.6" y="75.5" fill="#FFFFFF" width="6" height="10.2"/>
<rect x="86.4" y="75.5" fill="#FFFFFF" width="6" height="10.2"/>
<polygon fill="#FFFFFF" points="46.5,84.8 46.6,30.7 38.3,38.1 38.3,26.8 50.5,15 61.7,27 61.7,37.8 54.1,30.7 54.1,84.9 "/>
</svg>
