<?xml version="1.0" encoding="utf-8"?>
<!-- Generator: Adobe Illustrator 18.1.1, SVG Export Plug-In . SVG Version: 6.00 Build 0)  -->
<svg version="1.1" id="图层_1" xmlns="http://www.w3.org/2000/svg" xmlns:xlink="http://www.w3.org/1999/xlink" x="0px" y="0px"
	 width="100" height="100" enable-background="new 0 0 100 100" xml:space="preserve">
<polygon fill="#FFFFFF" stroke="#2A3685" stroke-width="2.8346" stroke-miterlimit="2.4142" points="1.2,2.4 99,2.4 99,97.7 
	1.2,97.7 "/>
<polygon fill="#2A3685" stroke="#1569B3" stroke-width="1.1339" stroke-miterlimit="2.4142" points="4.1,5.3 96.2,5.3 96.2,94.8 
	4.1,94.8 "/>
<rect x="7.4" y="14.1" fill="#FFFFFF" width="6" height="10.2"/>
<rect x="86.8" y="14.1" fill="#FFFFFF" width="6" height="10.2"/>
<rect x="7.4" y="34.5" fill="#FFFFFF" width="6" height="10.2"/>
<rect x="86.8" y="34.5" fill="#FFFFFF" width="6" height="10.2"/>
<rect x="7.4" y="54.8" fill="#FFFFFF" width="6" height="10.2"/>
<rect x="86.8" y="54.8" fill="#FFFFFF" width="6" height="10.2"/>
<rect x="7.4" y="75.8" fill="#FFFFFF" width="6" height="10.2"/>
<rect x="86.8" y="75.8" fill="#FFFFFF" width="6" height="10.2"/>
<polygon fill="#FFFFFF" points="36.9,85.2 36.8,29.8 44.5,37.3 44.7,26.8 32.5,14.9 21.4,26.3 21.4,37.1 29.3,29.9 29.3,85.1 "/>
<path fill="#FFFFFF" d="M67.1,44.7H56.9l8.2,7.8H44.4c-3.5,0.1-6.2,0.3-8,3l0.2,8.9c-0.4-2.5,2-5.2,8.2-5l20.5,0l-8,7.7h8.9L78.8,56
	L67.1,44.7L67.1,44.7z"/>
</svg>
