<?xml version="1.0" encoding="utf-8"?>
<!-- Generator: Adobe Illustrator 18.1.1, SVG Export Plug-In . SVG Version: 6.00 Build 0)  -->
<svg version="1.1" id="图层_1" xmlns="http://www.w3.org/2000/svg" xmlns:xlink="http://www.w3.org/1999/xlink" x="0px" y="0px"
	 width="138" height="100" enable-background="new 0 0 138 100" xml:space="preserve">
<rect x="1" y="1.4" fill="#FFFFFF" stroke="#2B2A76" stroke-width="2.8346" stroke-miterlimit="10" width="135.3" height="97.5"/>
<rect x="5" y="4.4" fill="#2B2A76" stroke="#0C53A0" stroke-width="1.1339" stroke-miterlimit="10" width="127.4" height="91.7"/>
<rect x="8.7" y="14.7" fill="#FFFFFF" width="5.2" height="10.4"/>
<rect x="124.6" y="14.7" fill="#FFFFFF" width="5.3" height="10.4"/>
<rect x="86.2" y="14.7" fill="#FFFFFF" width="5.2" height="10.4"/>
<rect x="47.5" y="14.7" fill="#FFFFFF" width="5.2" height="10.4"/>
<rect x="8.7" y="35.1" fill="#FFFFFF" width="5.2" height="10.4"/>
<rect x="124.6" y="35.1" fill="#FFFFFF" width="5.3" height="10.4"/>
<rect x="86.2" y="35.1" fill="#FFFFFF" width="5.2" height="10.4"/>
<rect x="47.5" y="35.1" fill="#FFFFFF" width="5.2" height="10.4"/>
<rect x="8.7" y="55.7" fill="#FFFFFF" width="5.2" height="10.4"/>
<rect x="124.6" y="55.7" fill="#FFFFFF" width="5.3" height="10.4"/>
<rect x="86.2" y="55.7" fill="#FFFFFF" width="5.2" height="10.4"/>
<rect x="47.5" y="55.7" fill="#FFFFFF" width="5.2" height="10.4"/>
<rect x="8.7" y="76.6" fill="#FFFFFF" width="5.2" height="10.4"/>
<rect x="124.6" y="76.6" fill="#FFFFFF" width="5.3" height="10.4"/>
<rect x="86.2" y="76.6" fill="#FFFFFF" width="5.2" height="10.4"/>
<rect x="47.5" y="76.6" fill="#FFFFFF" width="5.2" height="10.4"/>
<path fill="#FFFFFF" d="M97.8,79.2h5.8l-0.1-29h7.6l-4.7,5.5h6.8l7.7-7.8l-7.5-7.6h-7.3l5.2,4.6h-9c-4.1,0-5,3.6-4.5,7.4L97.8,79.2
	L97.8,79.2z"/>
<path fill="#FFFFFF" d="M41,79.2h-5.8v-29h-7.5l4.7,5.5h-6.8l-7.7-7.8l7.5-7.6h7.3l-5.3,4.6h9.1c4.1,0,5,3.6,4.5,7.4L41,79.2
	L41,79.2z"/>
<polygon fill="#FFFFFF" points="66.1,79.9 66.3,37.2 60.4,43.1 60.2,34.3 70,24.8 79.1,34.4 79.1,42.8 73.5,37.2 73.4,80 "/>
</svg>
