<?xml version="1.0" encoding="utf-8"?>
<!-- Generator: Adobe Illustrator 18.1.1, SVG Export Plug-In . SVG Version: 6.00 Build 0)  -->
<svg version="1.1" id="图层_1" xmlns="http://www.w3.org/2000/svg" xmlns:xlink="http://www.w3.org/1999/xlink" x="0px" y="0px"
	 width="138" height="100" enable-background="new 0 0 138 100" xml:space="preserve">
<polygon fill="#FFFFFF" stroke="#2A3685" stroke-width="2.8346" stroke-miterlimit="2.4142" points="1.3,1.2 136.7,1.2 136.7,98.8 
	1.3,98.8 "/>
<polygon fill="#2A3685" stroke="#1569B3" stroke-width="1.1339" stroke-miterlimit="2.4142" points="5.3,4.2 132.7,4.2 132.7,95.8 
	5.3,95.8 "/>
<rect x="8.9" y="14.5" fill="#FFFFFF" width="5.2" height="10.5"/>
<rect x="124.9" y="14.5" fill="#FFFFFF" width="5.2" height="10.5"/>
<rect x="8.9" y="34.8" fill="#FFFFFF" width="5.2" height="10.5"/>
<rect x="124.9" y="34.8" fill="#FFFFFF" width="5.2" height="10.5"/>
<rect x="8.9" y="55.5" fill="#FFFFFF" width="5.2" height="10.5"/>
<rect x="124.9" y="55.5" fill="#FFFFFF" width="5.2" height="10.5"/>
<rect x="8.9" y="76.3" fill="#FFFFFF" width="5.2" height="10.5"/>
<rect x="124.9" y="76.3" fill="#FFFFFF" width="5.2" height="10.5"/>
<polygon fill="#FFFFFF" points="66.2,62 66.3,74.7 60.7,69.4 60.7,75.3 69.1,83.8 77,75.4 77,68.7 71.6,73.8 71.6,61.9 "/>
<path fill="#FFFFFF" d="M109.5,16.2H29c-2.3,0.5-3.5,1.5-3.7,3.2v9l-1.8,1.9v10.9h13.7c2.4-8,10.9-8.8,12.5,0h34.4
	c0.6-9.2,11.4-9.4,12.7,0l17.6-3.6V20.8C113.7,18.5,112.4,16.8,109.5,16.2z M34.8,37.5c-1.1,1.8-4.5,1.6-5.3,0V21.2h5.3V37.5z
	 M53.5,26.7c0,0.4-0.4,0.8-0.8,0.8H40c-0.4,0-0.8-0.4-0.8-0.8v-4.7c0-0.4,0.4-0.8,0.8-0.8h12.7c0.4,0,0.8,0.4,0.8,0.8V26.7z
	 M72.5,26.7c0,0.4-0.4,0.8-0.9,0.8H58c-0.5,0-0.9-0.4-0.9-0.8v-4.7c0-0.4,0.4-0.8,0.9-0.8h13.7c0.5,0,0.9,0.4,0.9,0.8V26.7z
	 M90.9,26.7c0,0.4-0.4,0.8-0.9,0.8H76.3c-0.5,0-0.9-0.4-0.9-0.8v-4.7c0-0.4,0.4-0.8,0.9-0.8H90c0.5,0,0.9,0.4,0.9,0.8V26.7z
	 M109.2,26.7c0,0.4-0.4,0.8-0.9,0.8H94.7c-0.5,0-0.9-0.4-0.9-0.8v-4.7c0-0.4,0.4-0.8,0.9-0.8h13.7c0.5,0,0.9,0.4,0.9,0.8V26.7z"/>
<path fill="#FFFFFF" d="M43.7,36.6c2.5,0,4.5,2,4.5,4.5c0,2.5-2,4.5-4.5,4.5c-2.5,0-4.5-2-4.5-4.5C39.2,38.6,41.2,36.6,43.7,36.6
	L43.7,36.6z M43.7,38.6c1.4,0,2.5,1.1,2.5,2.5s-1.1,2.5-2.5,2.5c-1.4,0-2.5-1.1-2.5-2.5S42.3,38.6,43.7,38.6L43.7,38.6z"/>
<path fill="#FFFFFF" d="M90.7,36.6c2.5,0,4.5,2,4.5,4.5c0,2.5-2,4.5-4.5,4.5c-2.5,0-4.5-2-4.5-4.5C86.1,38.6,88.2,36.6,90.7,36.6
	L90.7,36.6z M90.7,38.6c1.4,0,2.5,1.1,2.5,2.5s-1.1,2.5-2.5,2.5c-1.4,0-2.5-1.1-2.5-2.5S89.3,38.6,90.7,38.6L90.7,38.6z"/>
</svg>
