<?xml version="1.0" encoding="utf-8"?>
<!-- Generator: Adobe Illustrator 18.1.1, SVG Export Plug-In . SVG Version: 6.00 Build 0)  -->
<svg version="1.1" id="图层_1" xmlns="http://www.w3.org/2000/svg" xmlns:xlink="http://www.w3.org/1999/xlink" x="0px" y="0px"
	 width="100" height="100" enable-background="new 0 0 100 100" xml:space="preserve">
<ellipse fill="#FFFFFF" stroke="#2A3685" stroke-width="2.8346" stroke-miterlimit="2.4142" cx="50" cy="50.1" rx="48.3" ry="47.7"/>
<ellipse fill="#2A3685" cx="50" cy="50.1" rx="44.3" ry="43.8"/>
<path fill="#FFFFFF" d="M69.7,44.8l-2.5-8c-0.4-1.4-0.4-1.2-1.7-1.7c-9.3-3.7-19.2-4-29.8-0.4C34,35,32.9,36,32.3,37.6
	c-0.6,4.2-1.4,7.7-3.3,9c-1,0.4-1.9,1.1-1.2,3.4l2.3,11.4l1.8,0l0,4.8c0,2.2,4,2.1,4.1,0v-5l28.8,0.1l0,4.4c0,3.1,4.7,3.1,4.7,0.1
	l0-4.5l1.8,0l1.1-11.1C72.9,47.7,72,45.9,69.7,44.8z M31.8,51.2c-1.1,0-1.9-0.9-1.9-1.9c0-1,0.9-1.9,1.9-1.9c1.1,0,1.9,0.9,1.9,1.9
	S32.9,51.2,31.8,51.2z M63.8,55.2H37.2v-2.5h26.6V55.2z M63.8,50.8H37.2c-0.4-0.7-0.8-1.4,0-2.5c8.6-1.5,17.5-1.5,26.6,0
	C64.3,49.5,64.2,50.3,63.8,50.8z M33.6,44.1l1.6-6.2c3.6-3.1,25.5-4.3,29.5,0l1.7,6.2C55.5,42.6,44.5,42.6,33.6,44.1z M68.6,50.9
	c-1.1,0-1.9-0.9-1.9-1.9c0-1,0.9-1.9,1.9-1.9c1.1,0,1.9,0.9,1.9,1.9S69.7,50.9,68.6,50.9z"/>
</svg>
