<?xml version="1.0" encoding="utf-8"?>
<!-- Generator: Adobe Illustrator 18.1.1, SVG Export Plug-In . SVG Version: 6.00 Build 0)  -->
<svg version="1.1" id="图层_1" xmlns="http://www.w3.org/2000/svg" xmlns:xlink="http://www.w3.org/1999/xlink" x="0px" y="0px"
	 width="138" height="100" enable-background="new 0 0 138 100" xml:space="preserve">
<rect x="1.6" y="1.3" fill="#FFFFFF" stroke="#2B2A76" stroke-width="2.8346" stroke-miterlimit="10" width="135.4" height="97.7"/>
<rect x="5.4" y="4.2" fill="#2B2A76" stroke="#0C53A0" stroke-width="1.1339" stroke-miterlimit="10" width="127.5" height="91.7"/>
<rect x="9.2" y="14.5" fill="#FFFFFF" width="5.3" height="10.5"/>
<rect x="125.1" y="14.5" fill="#FFFFFF" width="5.3" height="10.5"/>
<rect x="9.2" y="34.8" fill="#FFFFFF" width="5.3" height="10.5"/>
<rect x="125.1" y="34.8" fill="#FFFFFF" width="5.3" height="10.5"/>
<rect x="9.2" y="55.4" fill="#FFFFFF" width="5.3" height="10.5"/>
<rect x="125.1" y="55.4" fill="#FFFFFF" width="5.3" height="10.5"/>
<rect x="9.2" y="76.3" fill="#FFFFFF" width="5.3" height="10.5"/>
<rect x="125.1" y="76.3" fill="#FFFFFF" width="5.3" height="10.5"/>
<polygon fill="#FFFFFF" points="66.4,65.5 66.6,78.4 60.9,73 60.9,78.9 69.2,87.4 77.2,78.9 77.2,72.3 71.8,77.4 71.8,65.4 "/>
<path fill="#FFFFFF" d="M90.7,26l-2.8-8.7c-0.4-1.5-0.4-1.2-1.9-1.9c-10.1-4-20.9-4.3-32.4-0.4c-1.9,0.3-3,1.4-3.7,3
	c-0.7,4.6-1.5,8.4-3.6,9.8c-1.1,0.4-1.9,1.2-1.4,3.6l2.5,12.3h1.9v5.3c0,2.4,4.4,2.4,4.4,0v-5.4L85,43.7v4.7c0,3.5,5.1,3.3,5.1,0.1
	v-4.8H92l1.2-12C94.1,29.1,93.1,27.2,90.7,26z M49.6,32.9c-1.1,0-2.1-1-2.1-2.1c0-1.1,1-2.1,2.1-2.1c1.1,0,2.1,1,2.1,2.1
	C51.6,31.9,50.7,32.9,49.6,32.9z M84.3,37.3H55.4v-2.8h28.9V37.3z M84.3,32.5H55.4c-0.4-0.8-0.8-1.5,0-2.8c9.3-1.7,19-1.7,28.9,0
	C84.8,30.9,84.7,31.9,84.3,32.5z M51.5,25.1l1.7-6.6c3.9-3.3,27.7-4.6,32.1,0l1.8,6.6C75.3,23.5,63.4,23.5,51.5,25.1z M89.6,32.6
	c-1.1,0-2.1-1-2.1-2.1s1-2.1,2.1-2.1c1.1,0,2.1,1,2.1,2.1S90.7,32.6,89.6,32.6z"/>
</svg>
