<?xml version="1.0" encoding="utf-8"?>
<!-- Generator: Adobe Illustrator 18.1.1, SVG Export Plug-In . SVG Version: 6.00 Build 0)  -->
<svg version="1.1" id="图层_1" xmlns="http://www.w3.org/2000/svg" xmlns:xlink="http://www.w3.org/1999/xlink" x="0px" y="0px"
	 width="100" height="100" enable-background="new 0 0 100 100" xml:space="preserve">
<ellipse fill="#FFFFFF" stroke="#2A3685" stroke-width="2.8346" stroke-miterlimit="2.4142" cx="50.3" cy="50.3" rx="48" ry="47.5"/>
<ellipse fill="#2A3685" cx="50.3" cy="50.3" rx="44.1" ry="43.6"/>
<path fill="#FFFFFF" stroke="#FFFFFF" stroke-width="1.4173" stroke-miterlimit="2.4142" d="M20.2,57.4c0,3.4,1.2,6.3,3.6,8.7
	c2.4,2.4,5.3,3.6,8.7,3.6c3.4,0,6.4-1.2,8.8-3.6c2.4-2.4,3.6-5.3,3.6-8.7c0-2.4-0.7-4.7-2-6.7c-1.3-2-3.1-3.5-5.3-4.5l1-2.4l13.6,16
	l3.6-0.4c0.5,2.9,1.9,5.3,4.2,7.2c2.3,1.9,5,2.9,8,2.9c3.4,0,6.3-1.2,8.7-3.6c2.4-2.4,3.6-5.3,3.6-8.7c0-3.4-1.2-6.3-3.6-8.6
	c-2.4-2.4-5.3-3.6-8.8-3.6c-1.7,0-3.3,0.3-4.8,0.9l-3-6.5l1.1-3l-0.2-0.1l0.8-2.2c0.9,0,1.6-0.1,2.1-0.2c0.9-0.2,1.4-0.6,1.4-1.3
	c0-1.1-0.4-1.7-1.2-1.7c-0.4,0-1,0.1-1.8,0.3c-0.8,0.2-1.3,0.3-1.6,0.3c-0.4,0-0.9,0-1.5-0.1c-0.6-0.1-1-0.1-1.2-0.1
	c-0.4,0-0.7,0.3-0.7,0.9c0,0.2,0.4,0.5,1.3,1c0.9,0.5,1.6,0.8,2.2,0.9l-0.7,2L60,36.1l-0.8,2.2H40.6l1.8-5l4.6-0.2l-0.9-1.6h-4.6
	L40.9,34l-4.3,11.8c-1.3-0.4-2.6-0.6-4-0.6c-3.4,0-6.3,1.2-8.8,3.6C21.4,51.1,20.2,54,20.2,57.4L20.2,57.4z M21.6,57.4
	c0-3,1.1-5.6,3.2-7.7c2.1-2.1,4.8-3.2,7.8-3.2c1.1,0,2.3,0.2,3.5,0.6c-1.3,3.6-2.4,6.4-3.2,8.4L32,57.7c0,0.3,0.2,0.5,0.5,0.5
	c0.4,0,0.9-0.7,1.4-2.2l3.2-8.5c4.3,2,6.4,5.2,6.4,9.9c0,3-1.1,5.6-3.2,7.7c-2.2,2.1-4.8,3.2-7.8,3.2c-3,0-5.6-1.1-7.8-3.2
	C22.7,62.9,21.6,60.4,21.6,57.4L21.6,57.4z M39.1,42.4l1.1-2.9h18.5L52,57.7L39.1,42.4L39.1,42.4z M53.2,58.3l6.3-17.1l2.4,5.4
	c-4.3,2.3-6.4,5.9-6.4,10.7v0.8L53.2,58.3L53.2,58.3z M57,58v-0.6c0-4.2,1.9-7.4,5.6-9.5l4.2,9.2L57,58L57,58z M57.2,59.4l11.6-1.1
	l-5.1-11c1.4-0.6,2.8-0.9,4.2-0.9c3,0,5.6,1.1,7.8,3.2c2.1,2.1,3.2,4.7,3.2,7.7c0,3-1.1,5.6-3.2,7.7c-2.1,2.1-4.7,3.2-7.8,3.2
	c-2.7,0-5.1-0.8-7.1-2.5C58.9,64,57.7,61.9,57.2,59.4L57.2,59.4z"/>
<rect x="51.4" y="52.6" fill="#FFFFFF" stroke="#FFFFFF" stroke-width="0.216" stroke-miterlimit="2.4142" width="1" height="3.8"/>
<rect x="52" y="61.7" fill="#FFFFFF" stroke="#FFFFFF" stroke-width="0.216" stroke-miterlimit="2.4142" width="1" height="3.4"/>
<rect x="52" y="65.1" fill="#FFFFFF" stroke="#FFFFFF" stroke-width="0.216" stroke-miterlimit="2.4142" width="3" height="1.1"/>
<rect x="49.4" y="51.8" fill="#FFFFFF" stroke="#FFFFFF" stroke-width="0.216" stroke-miterlimit="2.4142" width="3" height="1.2"/>
<ellipse fill="#2A3685" stroke="#FFFFFF" stroke-width="1.7008" stroke-miterlimit="2.4142" cx="52.3" cy="58.6" rx="2.7" ry="2.7"/>
</svg>
