<?xml version="1.0" encoding="utf-8"?>
<!-- Generator: Adobe Illustrator 18.1.1, SVG Export Plug-In . SVG Version: 6.00 Build 0)  -->
<svg version="1.1" id="图层_1" xmlns="http://www.w3.org/2000/svg" xmlns:xlink="http://www.w3.org/1999/xlink" x="0px" y="0px"
	 width="138" height="100" enable-background="new 0 0 138 100" xml:space="preserve">
<rect x="1.6" y="1.6" fill="#FFFFFF" stroke="#293C93" stroke-width="2.8346" stroke-miterlimit="10" width="135.2" height="97.4"/>
<rect x="5.5" y="4.5" fill="#293C93" stroke="#0C72BA" stroke-width="1.1339" stroke-miterlimit="10" width="127.3" height="91.5"/>
<rect x="9.2" y="14.8" fill="#FFFFFF" width="5.3" height="10.5"/>
<rect x="125" y="14.8" fill="#FFFFFF" width="5.1" height="10.5"/>
<rect x="9.2" y="35.1" fill="#FFFFFF" width="5.3" height="10.5"/>
<rect x="125" y="35.1" fill="#FFFFFF" width="5.1" height="10.5"/>
<rect x="9.2" y="55.7" fill="#FFFFFF" width="5.3" height="10.5"/>
<rect x="125" y="55.7" fill="#FFFFFF" width="5.1" height="10.5"/>
<rect x="9.2" y="76.5" fill="#FFFFFF" width="5.3" height="10.5"/>
<rect x="125" y="76.5" fill="#FFFFFF" width="5.1" height="10.5"/>
<polygon fill="#FFFFFF" points="66.6,64.8 66.6,77.5 61,72.3 61,78.2 69.4,86.6 77.3,78.3 77.3,71.6 71.9,76.6 71.9,64.8 "/>
<g>
	<path fill="#FFFFFF" d="M76.8,48.6c0.7,1,1.5,2,2.5,2.8c2.4,2,5.1,3,8.3,3c3.5,0,6.6-1.2,9.1-3.7c2.5-2.5,3.7-5.5,3.7-9
		c0-3.5-1.2-6.6-3.7-9c-2.5-2.5-5.6-3.7-9.2-3.7c-1.6,0-3.4,0.3-4.9,1L79.5,23l1.1-3.1l-0.2-0.1l0.8-2.3c0.9,0,1.6,0,2.3-0.2
		c0.9-0.2,1.4-0.7,1.4-1.3c0-1.2-0.4-1.7-1.3-1.7c-0.4,0-1,0.1-1.9,0.3c-0.8,0.2-1.3,0.3-1.6,0.3c-0.4,0-0.9-0.1-1.5-0.2
		c-0.7,0-1.1-0.1-1.2-0.1c-0.2,0-0.4,0.1-0.6,0.3v0.9c0.2,0.2,0.7,0.4,1.2,0.8c0.9,0.4,1.6,0.8,2.3,1l-0.8,2.1l-0.2-0.1l-0.9,2.2
		h-1.7V23H78l-1.2,3.2v4.2l2.1-5.5l2.5,5.6c-2,1.1-3.5,2.4-4.6,4v3.3c0.9-2.5,2.5-4.5,5.1-5.9l4.4,9.5l-9.5,0.9v1.4l11.6-1
		l-5.3-11.4c1.5-0.7,3-1,4.4-1c3.2,0,5.9,1.1,8.1,3.4c2.3,2.2,3.4,4.8,3.4,8c0,3.1-1.1,5.7-3.4,8c-2.2,2.2-4.9,3.3-8,3.3
		c-2.8,0-5.3-0.9-7.3-2.6c-1.6-1.3-2.8-3-3.5-4.9L76.8,48.6L76.8,48.6z M67.7,40.1l3.5,4.1l3.7-0.3c0.3,1.7,0.9,3.3,1.9,4.7v-3.2
		c-0.2-0.6-0.3-1.1-0.4-1.6l0.4-0.1v-1.4l-0.7,0.1v-0.7c0-1.4,0.2-2.7,0.7-4v-3.3c-1.4,2-2.1,4.4-2.1,7.2v0.8l-2.5,0.2l4.6-12.3
		v-4.2L71,42l-3.3-3.8L67.7,40.1L67.7,40.1z M76.8,14.9c-0.1,0.1-0.2,0.3-0.2,0.7c0,0,0.1,0.1,0.2,0.2V14.9L76.8,14.9z M76.8,21.7
		h-9.1V23h9.1V21.7z M59.9,50.7L59.9,50.7c2.5-2.5,3.7-5.5,3.7-9c0-2.6-0.7-4.9-2.1-7c-0.6-0.8-1.1-1.4-1.6-2v1.9
		c1.5,1.9,2.3,4.3,2.3,7.1c0,2.5-0.8,4.8-2.3,6.8L59.9,50.7L59.9,50.7z M59.9,30.8v-2l7.8,9.3v2L59.9,30.8L59.9,30.8z M67.7,21.7
		h-7.8V23h7.8V21.7L67.7,21.7z M59.9,19.7l1.2-3.2l4.7-0.2l-1-1.6h-4.7l-0.2,0.9V19.7z M50.8,54.4c3.5,0,6.6-1.2,9.1-3.7v-2.2
		c-0.3,0.4-0.7,0.8-1.1,1.2c-2.2,2.2-4.9,3.3-8,3.3V54.4L50.8,54.4z M59.9,32.7c-1.1-1.1-2.4-2-3.8-2.6l1-2.5l2.8,3.3v-2l-2.4-2.7
		l1.1-3.1h1.3v-1.3h-0.8l0.8-2v-4.2l-0.6,1.7l-4.5,12.3c-1.3-0.4-2.7-0.7-4.1-0.7v1.3c1.1,0,2.3,0.2,3.6,0.7
		c-1.4,3.7-2.5,6.7-3.3,8.8l-0.3,0.9v2c0.3-0.1,0.9-0.9,1.4-2.3l3.3-8.9c1.9,0.8,3.3,1.9,4.4,3.2L59.9,32.7L59.9,32.7z M37.8,41.7
		c0,3.5,1.3,6.5,3.8,9c2.4,2.5,5.5,3.7,9,3.7h0.1v-1.4h-0.1c-3.1,0-5.8-1.1-8-3.3c-2.3-2.3-3.4-4.9-3.4-8c0-3.2,1.1-5.8,3.4-8
		c2.2-2.3,4.9-3.4,8-3.4h0.1v-1.3h-0.1c-3.5,0-6.6,1.2-9.1,3.6C39.1,35.1,37.8,38,37.8,41.7L37.8,41.7z M50.8,40.6v2
		c-0.1,0-0.1,0-0.1,0c-0.3,0-0.6-0.2-0.6-0.6L50.8,40.6z"/>
	<path fill="none" stroke="#FFFFFF" stroke-width="1.4173" stroke-miterlimit="10" d="M37.8,41.7c0,3.5,1.3,6.5,3.8,9
		c2.4,2.5,5.5,3.7,9,3.7c3.6,0,6.7-1.2,9.2-3.7s3.7-5.5,3.7-9c0-2.6-0.7-4.9-2.1-7C60.1,32.6,58.3,31,56,30l1-2.5l14.1,16.7l3.7-0.3
		c0.6,3,2,5.5,4.4,7.6c2.4,2,5.1,3,8.3,3c3.5,0,6.6-1.2,9.1-3.7c2.5-2.5,3.7-5.5,3.7-9c0-3.5-1.2-6.6-3.7-9
		c-2.5-2.5-5.6-3.7-9.2-3.7c-1.6,0-3.4,0.3-4.9,1L79.5,23l1.1-3.1l-0.2-0.1l0.8-2.3c0.9,0,1.6,0,2.3-0.2c0.9-0.2,1.4-0.7,1.4-1.3
		c0-1.2-0.4-1.7-1.3-1.7c-0.4,0-1,0.1-1.9,0.3c-0.8,0.2-1.3,0.3-1.6,0.3c-0.4,0-0.9-0.1-1.5-0.2c-0.7,0-1.1-0.1-1.2-0.1
		c-0.4,0-0.8,0.3-0.8,1c0,0.1,0.6,0.4,1.4,1c0.9,0.4,1.6,0.8,2.3,1l-0.8,2.1l-0.2-0.1l-0.9,2.2H59.1l2-5.1l4.7-0.2l-1-1.6h-4.7
		l-0.8,2.6l-4.5,12.3c-1.3-0.4-2.7-0.7-4.2-0.7c-3.5,0-6.6,1.2-9.1,3.6C39.1,35.1,37.8,38,37.8,41.7L37.8,41.7z M39.3,41.7
		c0-3.2,1.1-5.8,3.4-8c2.2-2.3,4.9-3.4,8-3.4c1.2,0,2.4,0.2,3.7,0.7c-1.4,3.7-2.5,6.7-3.3,8.8l-1,2.3c0,0.3,0.2,0.6,0.6,0.6
		c0.4,0,0.9-0.8,1.5-2.3l3.3-8.9c4.5,2.1,6.7,5.5,6.7,10.3c0,3.1-1.1,5.7-3.4,8c-2.2,2.2-4.9,3.3-8.1,3.3c-3.1,0-5.8-1.1-8-3.3
		C40.4,47.4,39.3,44.7,39.3,41.7L39.3,41.7z M57.5,26.1l1.1-3.1H78l-7,19L57.5,26.1L57.5,26.1z M72.2,42.7l6.7-17.8l2.5,5.6
		c-4.5,2.4-6.7,6.1-6.7,11.2v0.8L72.2,42.7L72.2,42.7z M76.1,42.3v-0.7c0-4.4,2-7.7,5.8-9.9l4.4,9.5L76.1,42.3L76.1,42.3z
		 M76.3,43.7l12.1-1.1l-5.3-11.4c1.5-0.7,3-1,4.4-1c3.2,0,5.9,1.1,8.1,3.4c2.3,2.2,3.4,4.8,3.4,8c0,3.1-1.1,5.7-3.4,8
		c-2.2,2.2-4.9,3.3-8,3.3c-2.8,0-5.3-0.9-7.3-2.6C78.1,48.6,76.8,46.4,76.3,43.7z"/>
</g>
<rect x="70.3" y="36.6" fill="#FFFFFF" stroke="#FFFFFF" stroke-width="0.216" stroke-miterlimit="10" width="1" height="4.1"/>
<rect x="70.9" y="46.2" fill="#FFFFFF" stroke="#FFFFFF" stroke-width="0.216" stroke-miterlimit="10" width="1.1" height="3.6"/>
<rect x="70.9" y="49.7" fill="#FFFFFF" stroke="#FFFFFF" stroke-width="0.216" stroke-miterlimit="10" width="3.2" height="1.1"/>
<rect x="68.2" y="35.9" fill="#FFFFFF" stroke="#FFFFFF" stroke-width="0.216" stroke-miterlimit="10" width="3.1" height="1.2"/>
<path fill="#293C93" stroke="#FFFFFF" stroke-width="1.7008" stroke-miterlimit="10" d="M71.3,45.7c1.5,0,2.7-1.3,2.7-2.8
	c0-1.5-1.2-2.7-2.7-2.7c-1.6,0-2.8,1.2-2.8,2.7C68.4,44.4,69.6,45.7,71.3,45.7z"/>
</svg>
