<?xml version="1.0" encoding="utf-8"?>
<!-- Generator: Adobe Illustrator 18.1.1, SVG Export Plug-In . SVG Version: 6.00 Build 0)  -->
<svg version="1.1" id="图层_1" xmlns="http://www.w3.org/2000/svg" xmlns:xlink="http://www.w3.org/1999/xlink" x="0px" y="0px"
	 width="100" height="100" enable-background="new 0 0 100 100" xml:space="preserve">
<g>
	<path fill="#F4AB1C" d="M50.2,6.7c-1.7,0-3.3,1.1-4.2,2.5L3.8,82.8L45.9,9.2C46.8,7.8,48.5,6.6,50.2,6.7z"/>
	<path fill="#F4AB1C" d="M10.1,84.9h79.5L49.9,15.9L10.1,84.9z M87.5,83.9H11.7L68,50L87.5,83.9z"/>
	<polygon fill="#F8991D" points="45.7,75.8 48.7,73.6 44.7,72.2 61.6,61.3 60.4,58.9 43.1,69.7 43.8,66.1 40.5,67.6 39.2,74.5 	"/>
	<path fill="#010101" d="M98.1,88.6c0-0.2,0-0.4,0-0.6c0-0.1,0-0.3-0.1-0.4c0-0.1,0-0.1,0-0.2c0-0.1-0.1-0.3-0.1-0.4
		c-0.5-1.9-1.6-4-2.7-5.8l-41.3-72c-0.2-0.4-0.5-0.7-0.7-1C53.1,8.1,53,8,52.9,7.9c-0.1-0.1-0.3-0.2-0.4-0.4
		c-0.1-0.1-0.2-0.1-0.3-0.2c-0.1,0-0.1-0.1-0.1-0.1c-0.6-0.4-1.3-0.6-1.9-0.6c-1.7,0-3.3,1.1-4.2,2.5L3.8,82.8
		c-2.7,4.6-2.8,8.4,1,9.1h89.3l0,0c0.7,0,1.3-0.1,1.8-0.2c0.1,0,0.1,0,0.2-0.1c0.3-0.1,0.5-0.2,0.7-0.3c0.1,0,0.1-0.1,0.2-0.1
		c0.1-0.1,0.2-0.1,0.3-0.2c0.1-0.1,0.2-0.2,0.3-0.4c0.1-0.1,0.1-0.2,0.2-0.3c0.1-0.2,0.2-0.4,0.2-0.6C98.1,89.4,98.1,89,98.1,88.6z
		 M10.1,84.9l39.8-68.9l39.8,68.9H10.1z"/>
	<path fill="#010101" d="M87.5,83.9L68,50L11.7,83.9H87.5z M43.8,66.1l-0.7,3.5l17.3-10.7l1.2,2.3l-16.9,11l4,1.3l-2.9,2.2l-6.5-1.2
		l1.3-6.9L43.8,66.1z"/>
</g>
</svg>
