<?xml version="1.0" encoding="utf-8"?>
<!-- Generator: Adobe Illustrator 18.1.1, SVG Export Plug-In . SVG Version: 6.00 Build 0)  -->
<svg version="1.1" id="图层_1" xmlns="http://www.w3.org/2000/svg" xmlns:xlink="http://www.w3.org/1999/xlink" x="0px" y="0px"
	 width="361.8" height="100" enable-background="new 0 0 361.8 100" xml:space="preserve">
<g>
	<g>
		<polygon fill="#29ABE2" points="31.6,0.7 361.8,0.7 361.8,100 31.6,100 0.7,50.3 		"/>
		<path fill="#FFFFFF" stroke="#FFFFFF" stroke-width="0.216" stroke-miterlimit="22.9256" d="M35.4,5.2h321.9v90.3H35.4L5.2,50.3
			L35.4,5.2L35.4,5.2z M33.5,2.9L3,50.3l30.6,47.4h326V2.9H33.5z"/>
		<g>
			<polygon fill="#FFFFFF" points="60.6,91 34.3,50.4 60.6,9.7 37.5,9.7 9.7,50.3 37.5,91 			"/>
			<rect x="61.7" y="9.7" fill="#FFFFFF" width="78.5" height="81.2"/>
		</g>
	</g>
	<path fill="#29ABE2" d="M95.5,17.9h9.4l0.3,4c12.5,2.4,22,13.4,22,26.6c0,10.5-6,19.6-14.8,24.1l-2.8-6.2
		c6.4-3.4,10.8-10.1,10.8-17.9c0-11.1-9.1-20.2-20.2-20.2S80,37.4,80,48.5c0,7.7,4.4,14.5,10.8,17.9L88,72.6
		C79.2,68.1,73.2,59,73.2,48.5c0-13.2,9.5-24.2,22-26.6L95.5,17.9z"/>
	<polygon fill="#29ABE2" points="80.3,77.8 96.2,74.5 96.2,57.9 90.7,53.8 90.7,44.3 109.5,44.3 109.5,53.8 104.1,57.9 104.1,74.5 
		120,77.8 120,83.2 80.3,83.2 	"/>
	<g>
		<path fill="#FFFFFF" stroke="#FFFFFF" stroke-width="0.216" stroke-miterlimit="22.9256" d="M185.3,43.9c0.6-2.2,1.2-3.7,1.7-4.5
			c-1.6-0.2-2.9-0.5-4-0.9c-0.5,2.4-1,4.7-1.7,6.7c-0.6,2-1.3,3.6-1.8,4.6c1.4,0.2,2.6,0.5,3.7,0.9C184,48.3,184.7,46.1,185.3,43.9z
			"/>
		<path fill="#FFFFFF" stroke="#FFFFFF" stroke-width="0.216" stroke-miterlimit="22.9256" d="M250.1,58.5v-6.6h6.1c2,0,4,0,6.1,0.2
			v-3.7c-2.1,0.2-4.1,0.4-6.1,0.4h-6.1c0-2.5,0-4.4,0.2-5.7h-3.8c0.1,1.7,0.2,3.7,0.2,5.7h-9.2c3.2-4.5,5.4-7.6,6.5-9.2h15.7
			c1.9,0,4,0,6.3,0.2V36c-2.3,0.2-4.4,0.3-6.3,0.3h-13.9c0.8-1.6,2-3.4,3.5-5.4c-1.5-0.5-3.1-1-4.7-1.7c-0.6,2.1-1.6,4.5-2.9,7.1
			c-5.6,0-9.6-0.1-12-0.3v3.7c2.5-0.1,6-0.2,10.3-0.2c-1.3,2.2-2.7,4.2-4.2,6.1c-1.5,1.9-2.9,2.9-4,3.3c0.5,1,0.9,2.4,1.4,4
			c1.9-0.6,3.6-0.9,5.2-1c1.6,0,4.5-0.1,8.5-0.1v6.6h-11.8c-2.1,0-4.2,0-6.3-0.2V62c2.2-0.2,4.3-0.4,6.3-0.4h11.8
			c0,3.5,0,6.2-0.2,8.2h3.8c-0.1-1.9-0.2-4.6-0.2-8.2h9.6c2,0,4.1,0.1,6.3,0.4v-3.7c-2.2,0.1-4.3,0.2-6.3,0.2L250.1,58.5L250.1,58.5
			z"/>
		<path fill="#FFFFFF" stroke="#FFFFFF" stroke-width="0.216" stroke-miterlimit="22.9256" d="M202.8,57.6c-1.6-1.9-2.9-4.2-3.8-7
			c-1-2.8-1.5-5.4-1.6-8c0-2.5,0-4.7,0-6.5c0-1.7,0.3-3.4,0.8-5c-1.5-0.1-2.9-0.3-4.2-0.5c0.1,4.5,0,8.7-0.4,12.6
			c-0.4,3.8-1.1,7.2-2.3,10.1c-1.2,2.9-3.1,5.5-5.6,7.8c-2.6,2.3-5.8,4.2-9.5,5.6c1.5,0.9,2.7,2,3.5,3.1c2.1-1.4,4-2.7,5.9-4
			c1.8-1.3,3.3-2.6,4.5-4.1c1.2-1.5,2.3-3,3.3-4.7c1-1.7,1.8-3.8,2.3-6.4c0.8,2.8,1.7,5,2.7,6.8c1,1.7,2.1,3.3,3.4,4.6
			c1.3,1.3,2.8,2.6,4.6,3.8c1.8,1.2,3.9,2.3,6.3,3.4c0.6-1.4,1.6-2.7,2.9-4c-2.9-0.7-5.4-1.7-7.5-2.9
			C206.2,61.1,204.3,59.5,202.8,57.6z"/>
		<path fill="#FFFFFF" stroke="#FFFFFF" stroke-width="0.216" stroke-miterlimit="22.9256" d="M290.1,37.1c-1-2.9-2-5.1-2.9-6.6
			c-1,0.6-2.1,1-3.1,1.4c1.2,2.3,2,4.5,2.4,6.6C287.7,38,288.9,37.6,290.1,37.1z"/>
		<path fill="#FFFFFF" stroke="#FFFFFF" stroke-width="0.216" stroke-miterlimit="22.9256" d="M208.7,44.1c0.9-2.3,1.8-4,2.7-4.9
			c-1.6-0.3-2.9-0.8-4-1.4c-0.5,1.6-1.1,3.4-1.9,5.3c-0.8,1.9-1.7,3.8-2.8,5.5c1.3,0.4,2.4,0.9,3.5,1.6
			C207,48.4,207.8,46.4,208.7,44.1z"/>
		<path fill="#FFFFFF" stroke="#FFFFFF" stroke-width="0.216" stroke-miterlimit="22.9256" d="M285.2,39.3c-1.7,0-4,0-6.8-0.2v2.9
			c2.8-0.1,5-0.2,6.8-0.2h3.1c1.6,0,4,0,7,0.2v-2.9c-3,0.1-5.3,0.2-7,0.2H285.2z"/>
		<path fill="#FFFFFF" stroke="#FFFFFF" stroke-width="0.216" stroke-miterlimit="22.9256" d="M312,41.8c1.7,0,3.7,0,5.7,0.2v-3.1
			c-2.1,0.1-4,0.2-5.7,0.2h-4.7v-4.4c0-0.7,0-2.1,0.2-4.4h-3.8c0.2,2.1,0.4,3.7,0.4,4.7v15h-6.1c0,2,0,3.7,0.2,5.2v8.8
			c-0.1,1.6-0.2,3.5-0.4,5.6h3.7v-3.8h10.8v3.5h3.5c-0.1-2.1-0.2-4.2-0.2-6.3v-8c0-1.5,0-3.1,0.2-4.9h-8.4v-8.2H312z M312.2,52.7
			v10.1h-10.8V52.7H312.2z"/>
		<path fill="#FFFFFF" stroke="#FFFFFF" stroke-width="0.216" stroke-miterlimit="22.9256" d="M290.6,59.6c0.5-2.3,1-4.7,1.6-7.1
			c0.6-2.4,1.3-4.6,2.3-6.5c-1.6-0.2-3.1-0.6-4.4-1.2c-0.5,3.6-0.8,6.1-1,7.4c-0.2,1.3-0.4,2.6-0.7,3.8c-0.3,1.2-0.7,2.6-1.1,4.1
			c-1.4,0.4-2.7,0.6-4.1,0.8c-1.3,0.2-2.8,0.4-4.4,0.6c0.7,1.5,1.2,2.9,1.4,4.4c2.2-0.9,4.4-1.7,6.5-2.3c2.1-0.6,3.8-1.1,5.1-1.5
			c1.3-0.4,2.5-0.6,3.4-0.7c-0.2-1-0.4-2-0.4-2.8C294.1,58.6,292.7,59,290.6,59.6z"/>
		<path fill="#FFFFFF" stroke="#FFFFFF" stroke-width="0.216" stroke-miterlimit="22.9256" d="M286.4,56.6c-0.5-1.7-1-3.6-1.5-5.6
			c-0.5-2-1.1-3.9-1.7-5.5c-1.2,0.1-2.3,0.4-3.3,0.7c0.7,2.4,1.3,4.6,1.7,6.3c0.4,1.8,0.9,3.4,1.2,4.8
			C284,56.9,285.1,56.7,286.4,56.6z"/>
	</g>
</g>
</svg>
