<?xml version="1.0" encoding="utf-8"?>
<!-- Generator: Adobe Illustrator 18.1.1, SVG Export Plug-In . SVG Version: 6.00 Build 0)  -->
<svg version="1.1" id="图层_1" xmlns="http://www.w3.org/2000/svg" xmlns:xlink="http://www.w3.org/1999/xlink" x="0px" y="0px"
	 width="361.8" height="100" enable-background="new 0 0 361.8 100" xml:space="preserve">
<g>
	<g>
		<polygon fill="#29ABE2" points="31,0.5 361.7,0.5 361.7,100 31,100 0,50.3 		"/>
		<path fill="#FFFFFF" stroke="#FFFFFF" stroke-width="0.216" stroke-miterlimit="22.9256" d="M34.7,5h322.4v90.4H34.7L4.5,50.3
			L34.7,5L34.7,5z M32.9,2.8L2.3,50.3l30.6,47.5h326.6v-95H32.9z"/>
		<g>
			<polygon fill="#FFFFFF" points="60,91 33.7,50.3 60,9.6 36.8,9.6 9,50.3 36.8,91 			"/>
			<rect x="61.1" y="9.6" fill="#FFFFFF" width="78.6" height="81.4"/>
		</g>
	</g>
	<path fill="#29ABE2" d="M115.3,79.6l14.2-14.2l-4.8-4.8l-6.6,0.5l-8.3-8.3l19.4-12.4c2.3-2.3,2-9-5.8-8.3l-30.4,3.9L79.1,24
		c-5.5-4.9-10.2-0.3-5.2,5.2l12.1,14L82,73.6c-0.8,7.8,5.9,8.1,8.3,5.8l12.4-19.5l8.3,8.3l-0.5,6.6L115.3,79.6z"/>
	<path fill="#FFFFFF" stroke="#FFFFFF" stroke-width="0.216" stroke-miterlimit="22.9256" d="M198.3,34.2h-18.7c-1.4,0-3.1,0-5-0.2
		v3.3c2-0.1,3.7-0.2,5.2-0.2h14.8c0,4.6,0.1,8.9,0.4,12.7c0.2,3.8,0.9,7.1,1.9,9.9c1,2.7,2.4,4.9,4.1,6.6c1.7,1.7,3.4,2.7,5.2,2.9
		c1.8,0.3,3.1-0.1,3.8-1.1c0.7-1,1.5-2.7,2.3-4.9c-1.3-0.4-2.5-1-3.7-2.1c-0.2,1.5-0.5,2.7-0.9,3.6c-0.4,0.9-1.2,1-2.5,0.4
		c-1.3-0.6-2.5-1.8-3.7-3.4c-1.1-1.6-1.9-3.4-2.4-5.4c-0.5-2-0.8-4.2-1-6.6c1.4,1,2.9,2.2,4.6,3.5c1.7,1.3,3.2,2.7,4.6,4.2
		c0.8-1.5,1.7-2.7,2.6-3.5c-1.6-1.2-3.1-2.1-4.4-2.9c-1.3-0.8-3-1.8-5-3.2c1.4-1.4,2.8-2.9,4.3-4.5c1.5-1.6,2.8-2.8,4.1-3.5
		c-1.4-1-2.7-2.1-3.8-3.1c-2.2,3.8-4.6,7-7.1,9.6c0-1.9,0-3.8,0-5.8C197.9,38.5,198,36.4,198.3,34.2L198.3,34.2z M239.9,48.4v-7
		c1.6,0,3.7,0,6.3,0.2v-3.1c-1.6,0.1-3.1,0.2-4.4,0.2h-1.9v-3.5c0-2.3,0.1-4.1,0.3-5.2h-3.8c0.1,1.6,0.2,3.4,0.2,5.2v3.5h-1.7
		c-1.5,0-3.1,0-4.7-0.2v3.3c1.6-0.2,3.3-0.4,4.9-0.4h1c-0.8,3.7-2,7.1-3.5,10.1c-1.5,3-2.7,5-3.7,6.1c0.8,0.7,1.7,1.6,2.8,2.8
		c1.3-2,2.3-3.8,2.9-5.3c0.7-1.6,1.3-3.2,1.9-5v11.2c0,2.3,0,4.9-0.2,7.8h3.7c-0.1-2.9-0.2-5.5-0.2-7.8V48.6
		c1.7,2.5,2.9,4.6,3.7,6.1c1.2-0.8,2.1-1.6,2.9-2.3c-0.9-1.4-2.3-3.4-4.2-5.9C241.4,47.2,240.5,47.9,239.9,48.4L239.9,48.4z
		 M249.5,32.2h13.6c-0.1,3.3-0.2,6.1-0.2,8.4v22.7c0,1.5,0.2,2.3,0.7,2.4c0.5,0.1,1,0.2,1.5,0.1c0.5,0,0.9-0.5,1-1.2
		c0.2-0.8,0.2-1.9,0.2-3.4c0.9,0.6,2.1,1,3.5,1.4c-0.5,2.4-1,4.1-1.6,4.9c-0.6,0.8-1.3,1.3-2.3,1.3c-0.9,0-2,0-3.1,0
		c-1.2,0-2-0.4-2.6-1c-0.6-0.6-0.8-1.9-0.7-3.9V35.2h-6.6c0,6.6-0.1,11.8-0.2,15.5c-0.2,3.7-0.7,7-1.6,9.9c-0.9,3-2.6,6-5.1,9
		c-0.6-0.7-1.6-1.6-3.1-2.8c1.6-1.3,2.9-2.8,3.9-4.7c1-1.9,1.7-3.8,2-5.8c0.4-2,0.6-4.1,0.7-6.3c0.1-2.2,0.2-5,0.2-8.4
		C249.6,38.1,249.6,35,249.5,32.2L249.5,32.2z M303.1,32.2v3.3c2.2-0.1,4.4-0.2,6.6-0.2h6.3c-1.9,2.1-4.1,4.3-6.6,6.5
		c-2.5,2.3-5,3.5-7.3,3.6c0.4,1,0.9,2.2,1.4,3.5c1-0.5,1.9-0.8,2.7-0.9c0.8-0.1,1.5-0.2,2.2-0.2c-0.1,2.1-0.9,4.4-2.4,6.8
		s-3.7,4.4-6.5,5.9c1.2,0.7,2.2,1.5,3.1,2.4c1.2-1.2,2.2-2.2,3.2-3.2c1-1,1.9-2.1,2.6-3.2c0.8-1.2,1.4-2.4,1.9-3.8
		c0.5-1.4,1-3,1.5-4.9h3.1c-0.1,1.7-0.4,3.6-0.9,5.4c-0.5,1.9-1.2,3.6-2.1,5.2c-0.9,1.6-2.2,3.1-3.8,4.4c-1.6,1.3-3.5,2.4-5.7,3.3
		c1.3,0.8,2.3,1.9,3.1,3.1c1.6-1.3,3.1-2.5,4.5-3.6c1.4-1.1,2.7-2.5,3.8-4c1.1-1.6,2-3.5,2.8-5.7c0.8-2.2,1.3-4.9,1.7-8.2h3.5
		l-0.7,14c-0.1,1.2-0.5,1.9-1.2,2.3c-0.7,0.4-2.5,0.4-5.2,0.2c0.6,1.3,1,2.7,1.4,4.4c3-0.4,5.1-0.8,6.3-1.2c1.2-0.4,1.9-2.1,2.1-4.9
		l0.7-12.2c0.1-2.7,0.3-4.5,0.5-5.4h-15.2c3.1-2.8,5.5-5,7.1-6.5c1.6-1.6,3.4-2.5,5.2-2.7v-3.3h-13.4
		C307.3,32.4,305.2,32.3,303.1,32.2L303.1,32.2z M286.9,40.9c1.6,0.1,3.4,0.2,5.4,0.2v-5c0-2.1,0-4-0.2-5.7h3.7
		c-0.1,1.6-0.2,3.6-0.2,5.7v5c1.6,0,3.4,0,5.2-0.2v3.3c-2-0.1-3.7-0.2-5.2-0.2v12c1.3-0.4,2.9-1,4.9-2.1c0,1.4,0.1,2.6,0.3,3.7
		c-1.9,0.7-4.1,1.6-6.8,2.8c-2.7,1.2-4.8,2.3-6.5,3.5c-0.6-1.5-1.3-2.9-2.1-4.2c2-0.6,4.2-1.3,6.8-2.3V44c-2.1,0-3.9,0-5.4,0.2
		L286.9,40.9L286.9,40.9z"/>
</g>
</svg>
