<?xml version="1.0" encoding="utf-8"?>
<!-- Generator: Adobe Illustrator 18.1.1, SVG Export Plug-In . SVG Version: 6.00 Build 0)  -->
<svg version="1.1" id="图层_1" xmlns="http://www.w3.org/2000/svg" xmlns:xlink="http://www.w3.org/1999/xlink" x="0px" y="0px"
	 width="361.8" height="100" enable-background="new 0 0 361.8 100" xml:space="preserve">
<g>
	<g>
		<polygon fill="#29ABE2" points="31.2,1.1 360,1.1 360,100 31.2,100 0.4,50.6 		"/>
		<path fill="#FFFFFF" stroke="#FFFFFF" stroke-width="0.216" stroke-miterlimit="22.9256" d="M35,5.6h320.5v89.9H35l-30-44.9
			L35,5.6L35,5.6z M33.1,3.4L2.7,50.6l30.4,47.2h324.7V3.4H33.1z"/>
		<g>
			<polygon fill="#FFFFFF" points="60.1,91 33.9,50.6 60.1,10.1 37.1,10.1 9.5,50.6 37.1,91 			"/>
			<rect x="61.2" y="10.1" fill="#FFFFFF" width="78.2" height="80.9"/>
		</g>
	</g>
	<path fill="#29ABE2" d="M91.8,49.5h11c3.8,0,6.4-1.2,7.8-3.6c0.8-1.3,1.1-3.1,1.1-5.5c0-2.9-0.8-4.9-2.4-6.2
		c-1.6-1.2-4.3-1.9-8-1.9h-9.5L91.8,49.5L91.8,49.5z M91.8,59.6v21H79.9V22.3H106c5.5,0,9.8,1.7,13,5s4.7,7.9,4.7,13.7
		c0,4.1-1.1,7.9-3.3,11.3c-3.2,4.9-8.1,7.3-14.9,7.3L91.8,59.6L91.8,59.6z"/>
	<g>
		<path fill="#FFFFFF" stroke="#FFFFFF" stroke-width="0.216" stroke-miterlimit="22.9256" d="M183.8,41.4c1-3.8,2-6.1,2.8-6.8
			l-4-1.2c-0.4,3-1.6,6.3-3.5,10c-1.8,3.6-3.3,6.1-4.3,7.5c0.8,0.6,1.7,1.4,2.8,2.6c1.4-2.8,2.5-4.9,3.3-6.4v18.4c0,2.5,0,5-0.2,7.3
			h3.3c-0.1-2.4-0.2-4.9-0.2-7.5V41.4z"/>
		<path fill="#FFFFFF" stroke="#FFFFFF" stroke-width="0.216" stroke-miterlimit="22.9256" d="M190.5,42.6c0.1,1.4,0.2,2.8,0.2,4.3
			c0,1.4,0,2.8-0.2,4.1h19.8c-0.1-0.9-0.2-2.2-0.2-3.8s0-3.1,0.2-4.5L190.5,42.6L190.5,42.6z M207.2,48.3h-13.5v-3.1h13.5V48.3z"/>
		<path fill="#FFFFFF" stroke="#FFFFFF" stroke-width="0.216" stroke-miterlimit="22.9256" d="M208.1,39.8c2.4,0,4.5,0,6.3,0.2v-2.9
			c-1.6,0.1-3.7,0.2-6.3,0.2h-5c-0.5-1.5-0.9-2.9-1.4-4.2c-1.2,0.4-2.3,0.8-3.5,1c0.5,0.9,0.9,2,1.2,3.1h-6.1c-2,0-3.8,0-5.4-0.2V40
			c1.7-0.1,3.5-0.2,5.4-0.2H208.1z"/>
		<path fill="#FFFFFF" stroke="#FFFFFF" stroke-width="0.216" stroke-miterlimit="22.9256" d="M186.2,53.2c0.1,0.8,0.2,1.7,0.2,2.7
			s0,2-0.2,3h3.1v-3.1H212v3.1h3c0-0.7,0-1.6-0.1-2.7c0-1.1,0-2.1,0.1-3H186.2z"/>
		<path fill="#FFFFFF" stroke="#FFFFFF" stroke-width="0.216" stroke-miterlimit="22.9256" d="M310.2,49c3.1-2.8,5.5-4.9,7.1-6.5
			c1.6-1.6,3.4-2.4,5.2-2.7v-3.3h-13.4c-2.2,0-4.3,0-6.4-0.2v3.3c2.2-0.1,4.4-0.2,6.6-0.2h6.3c-1.8,2.1-4.1,4.3-6.6,6.5
			c-2.5,2.2-5,3.4-7.3,3.6c0.4,1,0.9,2.2,1.4,3.5c1-0.5,1.9-0.8,2.7-0.9c0.8-0.1,1.5-0.2,2.2-0.2c-0.1,2.1-0.9,4.3-2.4,6.8
			c-1.5,2.4-3.6,4.4-6.4,5.9c1.2,0.7,2.2,1.5,3.1,2.4c1.2-1.2,2.2-2.2,3.2-3.2c1-1,1.8-2,2.6-3.2c0.8-1.2,1.4-2.4,1.9-3.8
			c0.5-1.4,1-3,1.5-4.9h3.1c-0.1,1.7-0.4,3.5-0.9,5.4c-0.5,1.8-1.2,3.6-2.1,5.2c-0.9,1.6-2.2,3-3.7,4.3c-1.6,1.3-3.4,2.4-5.7,3.3
			c1.3,0.8,2.3,1.8,3.1,3.1c1.6-1.3,3.1-2.4,4.5-3.6c1.4-1.1,2.6-2.4,3.7-4c1.1-1.6,2-3.4,2.8-5.7s1.3-4.9,1.6-8.1h3.4l-0.7,13.9
			c-0.1,1.2-0.5,1.9-1.2,2.2c-0.7,0.4-2.4,0.4-5.2,0.2c0.6,1.3,1,2.7,1.4,4.3c3-0.4,5.1-0.8,6.3-1.2c1.2-0.4,1.8-2.1,2.1-4.9
			l0.7-12.2c0.1-2.6,0.3-4.5,0.5-5.4L310.2,49L310.2,49z"/>
		<path fill="#FFFFFF" stroke="#FFFFFF" stroke-width="0.216" stroke-miterlimit="22.9256" d="M300.2,58c-2,1-3.6,1.7-4.9,2.1v-12
			c1.5,0,3.2,0,5.2,0.2v-3.3c-1.8,0.1-3.6,0.2-5.2,0.2v-5c0-2.2,0-4.1,0.2-5.7h-3.6c0.1,1.7,0.2,3.6,0.2,5.7v5c-2,0-3.8,0-5.4-0.2
			v3.3c1.5-0.1,3.3-0.2,5.4-0.2v13.4c-2.5,0.9-4.8,1.7-6.8,2.2c0.8,1.3,1.5,2.6,2.1,4.2c1.6-1.2,3.8-2.3,6.4-3.4
			c2.6-1.2,4.9-2.1,6.8-2.8C300.3,60.7,300.2,59.4,300.2,58z"/>
		<path fill="#FFFFFF" stroke="#FFFFFF" stroke-width="0.216" stroke-miterlimit="22.9256" d="M195.9,59.1c-1.8,0-3.6,0-5.2-0.2v2.9
			c1.6-0.1,3.3-0.2,5-0.2h4v6.6c0,0.8-0.3,1.3-1,1.4c-0.6,0.1-1.9,0.1-3.9,0c0.8,1.2,1.3,2.4,1.4,3.8c2-0.2,3.5-0.5,4.6-0.9
			c1.1-0.4,1.7-1.3,1.8-2.9v-8h3.5c1.5,0,3,0,4.7,0.2v-2.9c-1.6,0.1-3.2,0.2-4.9,0.2H195.9z"/>
		<path fill="#FFFFFF" stroke="#FFFFFF" stroke-width="0.216" stroke-miterlimit="22.9256" d="M253.7,62.2v-6.6h6.1c2,0,4,0,6.1,0.2
			v-3.6c-2.1,0.2-4.1,0.4-6.1,0.4h-6.1c0-2.4,0-4.3,0.2-5.7H250c0.1,1.7,0.2,3.6,0.2,5.7H241c3.2-4.5,5.4-7.6,6.4-9.2h15.6
			c1.8,0,3.9,0,6.3,0.2v-3.6c-2.3,0.2-4.4,0.3-6.3,0.3h-13.9c0.8-1.6,2-3.4,3.4-5.4c-1.5-0.5-3-1-4.7-1.7c-0.6,2.1-1.6,4.5-2.9,7.1
			c-5.5,0-9.5-0.1-12-0.3v3.6c2.5-0.1,6-0.2,10.2-0.2c-1.3,2.2-2.6,4.2-4.2,6.1c-1.5,1.8-2.8,2.9-4,3.3c0.5,1,0.9,2.4,1.4,4
			c1.8-0.6,3.6-0.9,5.2-1c1.6,0,4.5-0.1,8.5-0.1v6.6h-11.8c-2.1,0-4.2,0-6.3-0.2v3.6c2.2-0.2,4.3-0.4,6.3-0.4h11.8
			c0,3.5,0,6.2-0.2,8.1h3.8c-0.1-1.8-0.2-4.6-0.2-8.1h9.5c2,0,4.1,0.1,6.3,0.4V62c-2.2,0.1-4.3,0.2-6.3,0.2L253.7,62.2L253.7,62.2z"
			/>
	</g>
</g>
</svg>
