<?xml version="1.0" encoding="utf-8"?>
<!-- Generator: Adobe Illustrator 18.1.1, SVG Export Plug-In . SVG Version: 6.00 Build 0)  -->
<svg version="1.1" id="图层_1" xmlns="http://www.w3.org/2000/svg" xmlns:xlink="http://www.w3.org/1999/xlink" x="0px" y="0px"
	width="361.8" height="100" enable-background="new 0 0 361.8 100" xml:space="preserve">
<g>
	<g>
		<polygon fill="#29ABE2" points="30.8,0.8 359.3,0.8 359.3,99.6 30.8,99.6 0,50.2 		"/>
		<path fill="#FFFFFF" stroke="#FFFFFF" stroke-width="0.216" stroke-miterlimit="22.9256" d="M34.5,5.3h320.3v89.8H34.5l-30-44.9
			L34.5,5.3L34.5,5.3z M32.6,3L2.2,50.2l30.4,47.2h324.5V3H32.6z"/>
		<g>
			<polygon fill="#FFFFFF" points="59.6,90.6 33.4,50.2 59.6,9.8 36.6,9.8 9,50.2 36.6,90.6 			"/>
			<rect x="60.7" y="9.8" fill="#FFFFFF" width="78.1" height="80.9"/>
		</g>
	</g>
	<path fill="#29ABE2" d="M82.2,60c2,0,3.7,1.7,3.7,3.7c0,2-1.7,3.7-3.7,3.7c-2,0-3.7-1.7-3.7-3.7C78.5,61.7,80.1,60,82.2,60L82.2,60
		z M115.6,60c2,0,3.7,1.7,3.7,3.7c0,2-1.7,3.7-3.7,3.7c-2,0-3.7-1.7-3.7-3.7C111.9,61.7,113.6,60,115.6,60L115.6,60z M71.7,46.3h3.7
		v13.2h-3.7V46.3L71.7,46.3z M81.1,46.7h8.7v5.7h-8.7V46.7L81.1,46.7z M93.3,46.7h8.7v5.7h-8.7V46.7L93.3,46.7z M105.5,46.7h8.7v5.7
		h-8.7V46.7L105.5,46.7z M117.8,46.7h8.7v5.7h-8.7V46.7L117.8,46.7z M108.2,42.6h-3.5v-2.4h3.5V42.6L108.2,42.6z M115.5,42.6h-4.2
		v-2.4h4.2V42.6L115.5,42.6z M122.8,42.6h-4.3v-2.4h4.3V42.6L122.8,42.6z M67.1,63.3h9.8c0.2-2.7,2.5-4.9,5.3-4.9
		c2.8,0,5.1,2.1,5.3,4.9h22.8c0.2-2.7,2.5-4.9,5.3-4.9c2.8,0,5.1,2.1,5.3,4.9h0l11.4-4.9c-0.5-5.9-1.1-15.7-4.5-15.7h-3.2v-6.1h-1.8
		v1.8h-18.1v-1.8h-1.8v6.1H71.3c-2.5,0-2.8,6.8-3.3,10.2l-0.9,2.7L67.1,63.3L67.1,63.3z"/>
	<path fill="#FFFFFF" stroke="#FFFFFF" stroke-width="0.216" stroke-miterlimit="22.9256" d="M151.5,49v3c1.7-0.1,3.2-0.2,4.6-0.2
		h3.4v10.6c-0.1,1.7-0.5,2.9-1.2,3.7c0.7,1,1.4,1.9,2.1,2.8c0.9-0.8,2.2-1.9,4.1-3.3c1.8-1.4,3.5-2.6,5.1-3.6c-0.6-1-1-2.1-1.2-3.3
		c-1.1,1.1-3,2.7-5.9,4.9V51.9h5.8c0.8,2.9,1.7,5.1,2.7,6.6c1,1.5,2.4,3,4.2,4.4c1.7,1.4,4,2.7,6.7,4c0.7-1.4,1.6-2.5,2.8-3.4
		c-3.2-0.9-5.5-1.8-7.1-2.8c-1.6-1-2.9-2.2-3.9-3.6c-1-1.4-1.9-3.1-2.6-5.2h8.3c1.6,0,3.3,0,5.2,0.2v-3c-1.5,0.1-2.9,0.2-4.3,0.2
		h-17.8V38.5c0-0.6,0-1.8,0.2-3.7h-3.3c0.1,1.7,0.2,3,0.2,3.9v10.6h-3.7C154.6,49.1,153.2,49.1,151.5,49L151.5,49z M177.2,34.6
		c1,0.8,2.1,1.6,3.4,2.5c-1.4,1-3.1,2.6-5.3,4.7c-2.1,2.2-4.1,4-6,5.5c-0.9-1.1-1.7-1.9-2.4-2.4c1.8-1.2,3.6-2.7,5.5-4.5
		C174.3,38.6,175.9,36.7,177.2,34.6L177.2,34.6z M209.1,37.9c2,2.6,4.3,4.7,6.8,6.4c-2.2,0.1-4.3,0.2-6.3,0.2c-2,0-4.1,0-6.3-0.2
		C204.1,43.5,206.1,41.3,209.1,37.9L209.1,37.9z M208,34c-0.9,2.1-2.3,4.2-4.2,6.2c-1.9,2.1-4.1,3.8-6.5,5.2c1,0.5,1.9,1.2,2.7,2.1
		c1.1-0.8,2-1.6,2.8-2.5v1.9c1.7-0.1,3.7-0.2,5.9-0.2v3.7c-4.4,0-7.4,0-9.2-0.2V53c1.8-0.1,4.9-0.2,9.2-0.2v6.2
		c0,0.7-0.1,1.2-0.4,1.4c-0.2,0.2-1.3,0.3-3.2,0.2c0.6,1.2,1,2.3,1.2,3.3c1.6-0.3,2.8-0.6,3.7-1c0.8-0.4,1.3-1.2,1.4-2.4v-7.7
		c4.6,0,7.6,0,9.2,0.2v-2.7c-1.7,0.1-4.7,0.2-9.2,0.2v-3.7c1.6,0,3.3,0,5.1,0.2v-2.4c1.5,0.9,2.9,1.6,4.3,2.2c0.4-1,1-2,1.9-3
		c-2.4-0.6-4.6-1.5-6.7-2.8c-2.1-1.2-4-2.8-5.7-4.7l0.7-0.9C210,35,208.9,34.5,208,34L208,34z M202.9,54.8c0.8,0.5,1.6,1,2.5,1.3
		c-2.3,3.1-3.9,5.3-4.9,6.5c-0.8-0.6-1.6-1-2.4-1.3C199.5,60,201.1,57.9,202.9,54.8L202.9,54.8z M213.5,57c0.9-0.6,1.6-1.2,2.2-1.9
		c2.5,2.3,4.5,4.2,5.9,5.7c-0.9,0.5-1.6,1.2-2.2,2.1C218.1,61.2,216.1,59.3,213.5,57L213.5,57z M191.3,37.1c1.3,2.7,2,4.9,2.2,6.5
		c1-0.4,2-0.8,3.1-1c-0.6-1.9-1.3-4-2.2-6.4C193.4,36.5,192.3,36.8,191.3,37.1L191.3,37.1z M189.2,47.5c1.7,0.1,3.9,0.2,6.7,0.2
		c-0.1,1.9-0.2,3.6-0.2,5.2v9.2c2.6,2.2,7,3.3,13.2,3.2c6.2,0,11-0.3,14.2-0.8c-0.8,1.2-1.2,2.3-1.3,3.4c-6.1,0.1-10.4,0.1-13.2,0
		c-2.7-0.1-5.2-0.4-7.3-0.9c-2.2-0.5-3.9-1.1-5.1-1.8c-1.2-0.7-2.1-0.6-2.8,0.2s-1.3,1.8-1.9,3.1c-0.9-0.9-1.8-1.5-2.7-1.9
		c1.2-1.3,2.6-2.7,4.2-4.2V50.1c-1.3,0-2.6,0-3.9,0.2L189.2,47.5L189.2,47.5z M229.8,38.5c2.1,1.4,3.9,2.9,5.3,4.6
		c0.6-0.8,1.3-1.5,2.1-2.2c-1.8-1.8-3.6-3.3-5.5-4.5C231.1,37.2,230.5,37.9,229.8,38.5L229.8,38.5z M235.9,48.7
		c-2.1-1.3-4.2-2.4-6.4-3.4c-0.4,1-0.9,1.8-1.5,2.5c2.1,0.8,4.2,2,6.2,3.6C234.7,50.6,235.3,49.7,235.9,48.7L235.9,48.7z
		 M234.5,54.6c-0.9,2.1-2.1,4.3-3.6,6.5c-1.5,2.2-2.8,3.9-4,4.8c1.3,0.6,2.4,1.3,3.4,2.2c0.9-1.6,2.1-3.7,3.6-6.4
		c1.5-2.7,2.6-4.4,3.3-5.2C236.2,56.1,235.3,55.4,234.5,54.6L234.5,54.6z M242.9,34.6c1.1,0.4,2.3,0.8,3.6,1.2
		c-0.6,0.3-1.3,1.5-2.1,3.6h8.9c2.2,0,4.1,0,5.7-0.2v2.7c-1.6-0.1-3.5-0.2-5.8-0.2h-9.8c-0.9,1.9-2,3.9-3.3,6.1
		c-0.9-0.5-1.9-0.9-3-1.2c1.7-2.1,3-4.4,4-6.8C242.1,37.3,242.7,35.6,242.9,34.6L242.9,34.6z M252.8,45.2h-5.5c-1.4,0-2.9,0-4.5-0.2
		v2.7c1.6-0.1,3-0.2,4.5-0.2h5.3c1.9,0,3.3,0,4.3,0.2V45C256,45.1,254.6,45.2,252.8,45.2L252.8,45.2z M258.6,62.1
		c-0.7,2.9-1.4,4.1-2,3.5c-0.6-0.6-1.1-1.8-1.3-3.7c-0.2-1.9-0.4-3.7-0.3-5.3c0-1.7,0.2-3.6,0.4-5.8h-12.2c-1.4,0-2.7,0-4-0.2v2.7
		c1.3-0.1,2.6-0.2,4-0.2h9.2c-0.2,4.2-0.1,7.5,0.4,9.9c0.4,2.4,1.2,4.1,2.4,5.1c1.2,0.9,2.2,1.2,3,0.7c0.8-0.5,1.9-2.1,3.2-4.9
		C260.3,63.5,259.4,62.9,258.6,62.1L258.6,62.1z M281.8,53.5v5.7h-10.1c-1.8,0-3.6,0-5.3-0.2v3.1c1.9-0.2,3.7-0.3,5.3-0.3h10.1
		c0,3,0,5.3-0.2,7h3.3c-0.1-1.6-0.2-3.9-0.2-7h8.2c1.7,0,3.5,0.1,5.3,0.3V59c-1.9,0.1-3.7,0.2-5.3,0.2h-8.2v-5.7h5.2
		c1.7,0,3.4,0,5.2,0.2v-3.1c-1.8,0.2-3.5,0.3-5.2,0.3h-5.2c0-2.1,0-3.7,0.2-4.9h-3.3c0.1,1.5,0.2,3.1,0.2,4.9h-7.9
		c2.8-3.9,4.6-6.5,5.5-7.9h13.4c1.6,0,3.4,0,5.3,0.2v-3.1c-2,0.2-3.8,0.3-5.3,0.3h-11.9c0.7-1.4,1.7-2.9,3-4.6
		c-1.3-0.4-2.6-0.9-4-1.5c-0.5,1.8-1.3,3.8-2.5,6.1c-4.7,0-8.2-0.1-10.2-0.3v3.1c2.2-0.1,5.1-0.2,8.7-0.2c-1.1,1.9-2.3,3.6-3.6,5.2
		c-1.3,1.6-2.4,2.5-3.4,2.8c0.4,0.9,0.8,2,1.2,3.4c1.6-0.5,3-0.8,4.5-0.8C275.9,53.5,278.3,53.5,281.8,53.5L281.8,53.5z M328.1,35
		h-3.3c0.2,1.8,0.3,3.1,0.3,4v12.8h-5.2c0,1.7,0,3.2,0.2,4.5v7.4c-0.1,1.4-0.2,3-0.3,4.7h3.1v-3.3h9.2v3h3c-0.1-1.8-0.2-3.6-0.2-5.3
		V56c0-1.3,0-2.7,0.2-4.2H328v-7h4c1.5,0,3.1,0,4.9,0.2v-2.6c-1.8,0.1-3.4,0.2-4.9,0.2h-4v-3.7C328,38.1,328,36.9,328.1,35L328.1,35
		z M322.9,54.2h9.2v8.6h-9.2V54.2L322.9,54.2z M303.3,42.6v2.5c2.4-0.1,4.3-0.2,5.8-0.2h2.7c1.4,0,3.4,0,5.9,0.2v-2.5
		c-2.6,0.1-4.6,0.2-5.9,0.2h-2.7C307.6,42.7,305.7,42.7,303.3,42.6L303.3,42.6z M313.3,40.8c-0.9-2.5-1.7-4.4-2.5-5.7
		c-0.9,0.5-1.8,0.9-2.6,1.2c1,2,1.7,3.9,2.1,5.7C311.3,41.6,312.3,41.2,313.3,40.8L313.3,40.8z M304.6,48.6c0.6,2.1,1.1,3.9,1.5,5.4
		c0.4,1.5,0.7,2.9,1,4.1c0.9-0.3,1.9-0.5,3-0.6c-0.4-1.5-0.8-3.1-1.3-4.8c-0.4-1.7-0.9-3.3-1.4-4.7C306.5,48,305.6,48.2,304.6,48.6
		L304.6,48.6z M313.3,47.4c1.1,0.5,2.3,0.8,3.7,1c-0.8,1.6-1.4,3.4-1.9,5.5c-0.5,2.1-0.9,4.1-1.3,6.1c1.8-0.5,3-0.8,3.6-0.9
		c0,0.7,0.1,1.5,0.3,2.4c-0.8,0.1-1.8,0.3-2.9,0.6c-1.1,0.3-2.6,0.7-4.4,1.2c-1.8,0.6-3.6,1.2-5.5,2c-0.2-1.2-0.6-2.4-1.2-3.7
		c1.4-0.2,2.6-0.4,3.8-0.5c1.1-0.2,2.3-0.4,3.5-0.7c0.4-1.3,0.7-2.4,1-3.5c0.2-1,0.4-2.1,0.6-3.3C312.6,52.5,312.9,50.5,313.3,47.4z
		"/>
</g>
</svg>
