<?xml version="1.0" encoding="utf-8"?>
<!-- Generator: Adobe Illustrator 18.1.1, SVG Export Plug-In . SVG Version: 6.00 Build 0)  -->
<svg version="1.1" id="图层_1" xmlns="http://www.w3.org/2000/svg" xmlns:xlink="http://www.w3.org/1999/xlink" x="0px" y="0px"
	 width="361.8" height="100" enable-background="new 0 0 361.8 100" xml:space="preserve">
<g>
	<g>
		<polygon fill="#29ABE2" points="32.4,0.8 359.9,0.8 359.9,99.3 32.4,99.3 1.7,50.1 		"/>
		<path fill="#FFFFFF" stroke="#FFFFFF" stroke-width="0.216" stroke-miterlimit="22.9256" d="M32.7,5.3H352v89.6H32.7L2.8,50.1
			L32.7,5.3L32.7,5.3z M30.8,3.1l-30.3,47l30.3,47h323.4v-94H30.8z"/>
		<g>
			<polygon fill="#FFFFFF" points="57.7,90.4 31.6,50.1 57.7,9.8 34.8,9.8 7.2,50.1 34.8,90.4 			"/>
			<rect x="58.8" y="9.8" fill="#FFFFFF" width="77.9" height="80.6"/>
		</g>
	</g>
	<g>
		<polygon fill="#EB2427" points="83.4,32.9 93.2,32.9 93.2,42.3 103,42.3 103,32.9 112.8,32.9 112.8,23.4 103,23.4 103,14 93.2,14 
			93.2,23.4 83.4,23.4 		"/>
		<path fill="#2E368F" stroke="#2E368F" stroke-width="0.216" stroke-miterlimit="22.9256" d="M80.2,47.7h20.4c1.3,0,3.7,0,4.9,0.5
			c1,0.4,2.2,1.4,2.7,1.9c2.1,2.2,2.7,3,4.8,5.2l16,0v22.5l-15.4,0c-0.6,1.7-3,3.4-4.8,4.6c-2.2,1.2-4.8,2.4-7.5,2.4l-25.5,0
			c-0.6,0-1.9-0.4-2-1.6c0-1.2,1.1-1.7,1.8-1.8l9.2-0.1l0-3.3l-17,0.1c-0.8,0-2.1-0.7-2.1-2.1c0-1.4,1.2-2,2.1-2h16.9l0-3.4H65.5
			c-0.8,0-2.2-0.6-2.2-2c-0.1-1.4,1.3-2.2,2.1-2.2h19.5v-4.1l-15.4,0c-0.7,0-2.2-0.8-2.2-2.2c0-1.4,1.4-2.1,2.4-2.2h30.5
			c1,0,2.4-0.8,2.4-2.2c0-1.4-1.2-2.2-2.4-2.2H84.2c-3.1,0.5-7-1.4-6-4.6C78.4,48.1,79.1,47.7,80.2,47.7z"/>
		
			<rect x="113.8" y="55.9" fill="#FFFFFF" stroke="#2E368F" stroke-width="0.216" stroke-miterlimit="22.9256" width="8.7" height="21.6"/>
		<path fill="#FFFFFF" stroke="#2E368F" stroke-width="0.216" stroke-miterlimit="22.9256" d="M85.1,58.2l12.8-0.1L113,78.5
			c-1.2,1.3-3,2.7-4.4,3.5c-1.8,1-3.6,1.7-5.7,2.3L85.1,58.2z"/>
		<polygon fill="#FFFFFF" stroke="#2E368F" stroke-width="0.216" stroke-miterlimit="22.9256" points="85.3,58.9 93.6,71.3 
			85.3,84.3 		"/>
		<polygon fill="#FFFFFF" stroke="#2E368F" stroke-width="0.216" stroke-miterlimit="22.9256" points="93.8,71.5 102.5,84.4 
			85.5,84.5 		"/>
		<polygon fill="#FFFFFF" stroke="#2E368F" stroke-width="0.216" stroke-miterlimit="22.9256" points="107.9,50.1 113.4,56.2 
			105.9,68.6 101,61.8 		"/>
		<polygon fill="#FFFFFF" stroke="#2E368F" stroke-width="0.216" stroke-miterlimit="22.9256" points="106,68.8 113.3,56.7 
			113.2,78.4 		"/>
	</g>
	<g>
		<path fill="#FFFFFF" stroke="#FFFFFF" stroke-width="0.216" stroke-miterlimit="22.9256" d="M168,67.3c1.3,0.5,2.4,0.9,3.3,1.4
			c1.2-3.2,2.3-6.5,3.4-9.9c-1-0.2-2-0.6-2.9-1C170.4,62,169.2,65.2,168,67.3z"/>
		<path fill="#FFFFFF" stroke="#FFFFFF" stroke-width="0.216" stroke-miterlimit="22.9256" d="M194,65.4c-0.5,0.6-1.2,0.9-2,0.9
			h-8.8c-1,0-1.6-0.3-1.6-1c0-0.7-0.1-1.6-0.1-2.8c0-1.2,0-2.8,0.2-4.9h-3.4c0.1,2.4,0.1,4.4,0.1,5.9c0,1.5,0,2.8,0.4,3.8
			c0.3,1,1.4,1.6,3.2,1.7h10.7c1.6,0,2.9-0.3,3.8-0.9c0.9-0.6,1.8-2.2,2.6-4.8c-1.4-0.5-2.6-1-3.8-1.6
			C194.9,63.6,194.5,64.8,194,65.4z"/>
		<path fill="#FFFFFF" stroke="#FFFFFF" stroke-width="0.216" stroke-miterlimit="22.9256" d="M293.1,36.6c-1-2.9-2-5-2.9-6.6
			c-1,0.6-2.1,1-3.1,1.4c1.2,2.3,2,4.5,2.4,6.6C290.8,37.5,292,37,293.1,36.6z"/>
		<path fill="#FFFFFF" stroke="#FFFFFF" stroke-width="0.216" stroke-miterlimit="22.9256" d="M197,58c2.5,2.4,4.7,5.1,6.6,8
			c0.9-0.9,1.8-1.7,2.8-2.4c-2-2.2-4.3-4.7-7.1-7.6C198.5,56.7,197.8,57.4,197,58z"/>
		<path fill="#FFFFFF" stroke="#FFFFFF" stroke-width="0.216" stroke-miterlimit="22.9256" d="M244.9,35c-1.2-1.7-2-3.2-2.4-4.3
			c-1,0.5-2,1-2.9,1.6c1,1.7,1.8,3.2,2.2,4.3C242.8,36,243.9,35.5,244.9,35z"/>
		<path fill="#FFFFFF" stroke="#FFFFFF" stroke-width="0.216" stroke-miterlimit="22.9256" d="M175.1,41.2V43
			c1.8-0.1,4.2-0.2,7.1-0.2h16.1v3.6h-19c-1.6,0-3.6,0-5.9-0.2v2.9c2.3-0.1,4.3-0.2,5.9-0.2h19v3.4h-18.8c-2,0-4.2,0-6.6-0.2v3.1
			c2.4-0.2,4.6-0.4,6.6-0.4h22.3c-0.1-2.1-0.2-4.6-0.2-7.6s0-5.4,0.2-7.2h-8.5c1-1.4,2-2.6,2.8-3.8c0.9-1.2,1.6-2.1,2.3-2.8h-16.6
			c0.7-1,1.6-2,2.8-2.9c-1.5-0.4-2.9-1.1-4.2-1.9c-1.5,2.8-3.3,5.4-5.5,7.9c-2.2,2.5-4.3,4.5-6.4,5.9c0.8,0.6,1.7,1.3,2.6,2.2
			C172.3,43.8,173.6,42.6,175.1,41.2z M179.8,36.2h12.6c-0.8,1.3-1.8,2.6-3.1,4H176C177.4,39,178.6,37.6,179.8,36.2z"/>
		<path fill="#FFFFFF" stroke="#FFFFFF" stroke-width="0.216" stroke-miterlimit="22.9256" d="M188.6,62.8c1-0.8,2-1.4,2.9-1.9
			c-1.2-1.7-2.5-3.3-3.6-4.8c-0.8,0.6-1.6,1.2-2.2,1.7C186.7,59.3,187.7,61,188.6,62.8z"/>
		<path fill="#FFFFFF" stroke="#FFFFFF" stroke-width="0.216" stroke-miterlimit="22.9256" d="M228.5,43.8c-0.9,0.6-1.8,1.1-2.8,1.6
			c1.3,1.6,2.4,3.3,3.3,5c0.9-0.6,1.8-1.2,2.8-1.7C230.7,47.1,229.6,45.4,228.5,43.8z"/>
		<path fill="#FFFFFF" stroke="#FFFFFF" stroke-width="0.216" stroke-miterlimit="22.9256" d="M288.3,38.8c-1.7,0-4,0-6.7-0.2v2.9
			c2.8-0.1,5-0.2,6.7-0.2h3.1c1.6,0,3.9,0,6.9,0.2v-3c-3,0.1-5.3,0.2-6.9,0.2L288.3,38.8L288.3,38.8z"/>
		<path fill="#FFFFFF" stroke="#FFFFFF" stroke-width="0.216" stroke-miterlimit="22.9256" d="M289.5,55.9c-0.5-1.7-1-3.6-1.5-5.6
			c-0.5-2-1.1-3.8-1.6-5.4c-1.2,0.1-2.2,0.4-3.3,0.7c0.7,2.4,1.2,4.5,1.7,6.3c0.4,1.8,0.9,3.4,1.2,4.8
			C287,56.3,288.2,56.1,289.5,55.9z"/>
		<path fill="#FFFFFF" stroke="#FFFFFF" stroke-width="0.216" stroke-miterlimit="22.9256" d="M293.6,58.9c0.5-2.3,1-4.6,1.6-7.1
			c0.6-2.4,1.3-4.6,2.2-6.4c-1.6-0.2-3-0.6-4.3-1.2c-0.5,3.6-0.8,6-1,7.3c-0.2,1.3-0.4,2.6-0.7,3.8c-0.3,1.2-0.7,2.6-1.1,4
			c-1.4,0.4-2.7,0.6-4,0.8c-1.3,0.2-2.8,0.4-4.4,0.6c0.7,1.5,1.2,2.9,1.4,4.3c2.2-0.9,4.3-1.7,6.4-2.3s3.8-1.1,5.1-1.5
			s2.4-0.6,3.4-0.7c-0.2-1-0.4-2-0.4-2.8C297.1,57.9,295.7,58.3,293.6,58.9z"/>
		<path fill="#FFFFFF" stroke="#FFFFFF" stroke-width="0.216" stroke-miterlimit="22.9256" d="M314.9,41.2c1.7,0,3.6,0,5.7,0.2v-3.1
			c-2.1,0.1-4,0.2-5.7,0.2h-4.6v-4.3c0-0.7,0-2.1,0.2-4.3h-3.8c0.2,2.1,0.4,3.6,0.4,4.6v14.9h-6c0,2,0,3.7,0.2,5.2v8.7
			c-0.1,1.6-0.2,3.4-0.4,5.5h3.6v-3.8H315v3.4h3.4c-0.1-2.1-0.2-4.2-0.2-6.2v-7.9c0-1.5,0-3.1,0.2-4.8h-8.3v-8.1L314.9,41.2
			L314.9,41.2z M315,52.1v10h-10.7v-10H315z"/>
		<path fill="#FFFFFF" stroke="#FFFFFF" stroke-width="0.216" stroke-miterlimit="22.9256" d="M246.1,57.5c-1.3-1.5-3.3-3.3-6.2-5.5
			c-0.7,0.7-1.3,1.4-1.9,2.1c1.7,1.4,3.7,3.4,5.9,5.9C244.5,58.9,245.3,58.1,246.1,57.5z"/>
		<path fill="#FFFFFF" stroke="#FFFFFF" stroke-width="0.216" stroke-miterlimit="22.9256" d="M244.2,45c-1-0.5-2.1-1-3.1-1.6
			c-0.9,2.1-2,4-3.3,5.9c0.9,0.4,1.8,0.9,2.6,1.4C241.7,48.7,242.9,46.8,244.2,45z"/>
		<path fill="#FFFFFF" stroke="#FFFFFF" stroke-width="0.216" stroke-miterlimit="22.9256" d="M255.3,59.9c1.4-2.8,2.4-5.7,3-8.8
			c0.6-3.1,1.1-6.2,1.5-9.3c0.9,0,2.2,0,3.8,0.2v-3.1c-1.6,0.1-3,0.2-4.1,0.2h-7.6c0.8-2.5,1.4-4.4,1.8-5.6c0.4-1.2,0.9-2.1,1.5-2.7
			c-1.5-0.4-2.9-0.8-4.1-1.4c-0.8,4.5-1.8,8.3-2.9,11.2c-1.2,3-2.5,5.3-4,6.9c0.8,0.8,1.6,1.9,2.2,3.3c0.5-0.8,1-1.6,1.4-2.5
			c0-0.2,0-0.3-0.1-0.5l2.1-3.8c0,0,0,0.1,0,0.2c0.4-0.8,0.7-1.6,1-2.4h6c-0.4,6.4-1.6,11.6-3.3,15.4c-0.7-1.3-1.4-2.9-2-4.8
			c-0.6-1.9-1.2-4.6-1.8-8.1c-0.6,1.5-1.3,2.8-2,4.1c0.5,3.4,1.8,7.3,3.7,11.6c-2.1,2.6-5.1,4.9-9.2,6.7c1.2,0.9,2,1.8,2.6,2.6
			c3.6-2.2,6.4-4.5,8.5-6.9c1.2,1.3,2.3,2.4,3.4,3.3c1.1,0.9,2.6,2,4.6,3.3c0.4-1.2,1.3-2.2,2.6-3.3c-2.2-0.7-4-1.6-5.4-2.6
			C257.2,62,256.1,61,255.3,59.9z"/>
		<path fill="#FFFFFF" stroke="#FFFFFF" stroke-width="0.216" stroke-miterlimit="22.9256" d="M245.4,38.1c-2,0.1-4.8,0.2-8.5,0.2
			c0-4.3,0.1-7.1,0.4-8.5h-3.6c0.1,1.6,0.2,4.4,0.2,8.5c-3.2,0-5.9,0-7.9-0.2v3.1c2.1-0.1,4.7-0.2,7.9-0.2v10.4
			c-5,3.7-8.4,5.9-10,6.6c0.8,1.2,1.6,2.2,2.2,3.3c1.2-1.2,2.5-2.3,4-3.4c1.6-1.1,2.8-2,3.7-2.8v7.2c0,1.6-1.6,2.4-4.6,2.2
			c0.7,1.3,1.2,2.5,1.4,3.8c4.2-0.4,6.4-2.3,6.4-5.9V41.1c3.8,0,6.6,0,8.5,0.2L245.4,38.1L245.4,38.1z"/>
	</g>
</g>
</svg>
