<?xml version="1.0" encoding="utf-8"?>
<!-- Generator: Adobe Illustrator 18.1.1, SVG Export Plug-In . SVG Version: 6.00 Build 0)  -->
<svg version="1.1" id="图层_1" xmlns="http://www.w3.org/2000/svg" xmlns:xlink="http://www.w3.org/1999/xlink" x="0px" y="0px"
	 width="361.8" height="100" enable-background="new 0 0 361.8 100" xml:space="preserve">
<g>
	<g>
		<polygon fill="#29ABE2" points="30.9,0 360.7,0 360.7,99.2 30.9,99.2 0,49.6 		"/>
		<path fill="#FFFFFF" stroke="#FFFFFF" stroke-width="0.216" stroke-miterlimit="22.9256" d="M34.7,4.5h321.5v90.2H34.7L4.5,49.6
			L34.7,4.5L34.7,4.5z M32.8,2.3L2.3,49.6L32.8,97h325.7V2.3H32.8z"/>
		<g>
			<polygon fill="#FFFFFF" points="59.8,90.2 33.6,49.6 59.8,9.1 36.7,9.1 9,49.6 36.7,90.2 			"/>
			<rect x="60.9" y="9.1" fill="#FFFFFF" width="78.4" height="81.1"/>
		</g>
	</g>
	<polygon fill="#29ABE2" stroke="#29ABE2" stroke-width="0.216" stroke-miterlimit="22.9256" points="90,48.9 91.1,52.6 97,52.6 
		97,48.9 	"/>
	
		<rect x="99.2" y="48.9" fill="#29ABE2" stroke="#29ABE2" stroke-width="0.216" stroke-miterlimit="22.9256" width="6.9" height="3.6"/>
	<polygon fill="#29ABE2" stroke="#29ABE2" stroke-width="0.216" stroke-miterlimit="22.9256" points="108.4,48.9 108.4,52.6 
		117,52.6 115.8,48.9 	"/>
	<path fill="#29ABE2" stroke="#29ABE2" stroke-width="0.216" stroke-miterlimit="22.9256" d="M63.1,50.8l5.8,17.4h62.9l3.8-11.9
		h-5.2l-1.9-5.6h-2.8l2.3-25.2h-1.5l-2.7,25.2h-2.7l-2.1-6.5h-11.2l-1.2-8L95,34.3l-1.9,10.1h-2.5l-1.7-4.9h-3.3l1.6-19.2l-1.7-0.1
		l-1.7,19.3h-3.3l-2.8,11.4H63.1L63.1,50.8z M128.3,56.4H67l-1.4-3.7H79L82,41.4h5.7l1.5,5h28.4l2.1,6.4h7.6L128.3,56.4z"/>
	<g>
		<path fill="#FFFFFF" stroke="#FFFFFF" stroke-width="0.216" stroke-miterlimit="22.9256" d="M317.3,49.1c0.6-1,1.3-1.9,2.1-2.5
			c-1.7-1.3-4.1-2.9-7.2-4.8c-0.5,0.8-1.1,1.6-1.8,2.4C314.3,46.5,316.5,48.1,317.3,49.1z"/>
		<path fill="#FFFFFF" stroke="#FFFFFF" stroke-width="0.216" stroke-miterlimit="22.9256" d="M322.8,39.9c-2.1-1.5-4.4-3-7-4.6
			c-0.5,0.8-1.1,1.5-1.8,2.3c3,1.9,5.3,3.5,6.8,4.9C321.5,41.3,322.2,40.5,322.8,39.9z"/>
		<path fill="#FFFFFF" stroke="#FFFFFF" stroke-width="0.216" stroke-miterlimit="22.9256" d="M159.7,43.1v-4.3h24.9V43h3
			c-0.1-1.4-0.2-2.5-0.2-3.2c0-0.7,0-1.8,0.2-3.1h-13.3c-0.2-0.7-0.5-2-0.9-3.9c-1,0.2-2.1,0.4-3.1,0.6c0.2,0.9,0.5,2,0.9,3.3h-14.4
			c0.1,1.6,0.2,2.8,0.2,3.7c0,0.9,0,1.8-0.2,2.7L159.7,43.1L159.7,43.1z"/>
		<path fill="#FFFFFF" stroke="#FFFFFF" stroke-width="0.216" stroke-miterlimit="22.9256" d="M174.9,50.9c2-1.7,3.5-3.1,4.4-4.2
			c1-1.1,2-2.4,3.1-3.9h-13.7c0.8-1,1.4-1.7,1.9-2.1c-1.2-0.4-2.4-0.9-3.6-1.5c-0.7,1.7-1.8,3.3-3.3,4.9c-1.5,1.6-3.2,2.9-5.1,4
			c1,0.5,1.8,1.1,2.4,1.9c1.3-1,2.5-2,3.6-3c-0.1-0.1-0.2-0.2-0.3-0.2l1.9-1.8c0.1,0.1,0.2,0.1,0.2,0.2c0.1-0.1,0.2-0.2,0.3-0.4
			h10.4c-1.2,1.6-2.7,3.1-4.6,4.5c-1.6-0.8-3.7-2.1-6.2-4.1c-0.6,0.6-1.2,1.2-1.9,1.8c2.4,1.9,4.2,3.1,5.4,3.8
			c-1.4,0.6-3.3,1.3-5.7,2.1c-2.4,0.8-5.4,1.4-8.9,1.8c1,1.2,1.7,2.3,2.1,3.3c2.7-0.9,4.4-1.5,5.1-1.8c1.5-0.5,3-1,4.6-1.7
			c1.6-0.6,3.3-1.3,5.1-2.1c1.2,0.6,2.5,1.2,4,1.8c1.5,0.6,3.7,1.2,6.7,1.9h-20.4c0.1,1.1,0.2,1.9,0.2,2.5v3.3c0,1.4,0,3.2-0.2,5.4
			h3v-2.5h14.6V67h3c-0.1-2-0.2-3.7-0.2-5.2v-2.5c0-1.1,0-2.1,0.2-3c1.2,0.3,2.6,0.6,4.3,0.9c0.2-1.1,0.7-2.3,1.7-3.4
			c-3.7-0.2-6.6-0.6-8.9-1.1C178,52.1,176.2,51.5,174.9,50.9z M180.2,62.8h-14.6v-4.5h14.6V62.8z"/>
		<path fill="#FFFFFF" stroke="#FFFFFF" stroke-width="0.216" stroke-miterlimit="22.9256" d="M286.9,42.3c0.2-2.1,0.5-4.4,0.9-6.8
			h-9.9c-1.7,0-3.4-0.1-5.2-0.3V38c1.8-0.1,3.5-0.2,5.2-0.2h6.7c-0.4,4.1-0.8,8.2-1.2,12.4H277c0.3-1.9,0.6-3.5,0.8-5
			c0.2-1.4,0.6-2.6,1-3.3l-3.6-0.9c0,1.9-0.1,3.8-0.4,5.8c-0.2,1.9-0.5,3.9-0.8,5.9h13.1c-0.1,2.4-0.2,4.6-0.3,6.7s-0.5,3.3-1.1,3.5
			c-0.6,0.2-2.1,0.3-4.2,0.1c0.7,1.2,1.1,2.5,1.2,3.7c2.3-0.2,3.9-0.6,4.9-1.1c1-0.6,1.6-1.9,1.8-4c0.2-2.1,0.4-4.3,0.4-6.4
			c0.1-2.1,0.3-3.7,0.6-4.8h-4.3C286.4,47,286.7,44.4,286.9,42.3z"/>
		<path fill="#FFFFFF" stroke="#FFFFFF" stroke-width="0.216" stroke-miterlimit="22.9256" d="M331,56.3c-0.9,0.6-1.9,1.2-2.8,1.9
			c1.5,1,3.1,2.2,4.7,3.7c1.7,1.5,3,2.8,3.9,4c0.8-0.9,1.9-1.6,3.1-2.1c-1.4-1.3-3-2.7-4.7-4.1C333.5,58.4,332.1,57.2,331,56.3z"/>
		<path fill="#FFFFFF" stroke="#FFFFFF" stroke-width="0.216" stroke-miterlimit="22.9256" d="M334.3,50.6h-6.7
			c0.5-5.3,0.8-9.1,0.8-11.6c0-2.5,0.3-4.4,0.9-5.7c-1.4-0.2-2.7-0.4-3.9-0.6c0,5-0.1,8.8-0.2,11.4c-0.2,2.6-0.3,4.8-0.5,6.5h-11.1
			c-2,0-4,0-6-0.2v3c2-0.1,4-0.2,6-0.2h10.7c-1.3,3.4-3.6,6-6.8,7.7c-3.3,1.7-6.1,2.9-8.5,3.5c1.4,0.8,2.3,1.7,2.7,2.8
			c2.8-1.1,5-2.1,6.8-3.1c1.7-1,3.4-2.3,5.1-3.9c1.7-1.7,3-3.9,3.9-6.9h7.3c1.7,0,3.5,0,5.5,0.2v-3
			C338.2,50.6,336.2,50.6,334.3,50.6z"/>
		<path fill="#FFFFFF" stroke="#FFFFFF" stroke-width="0.216" stroke-miterlimit="22.9256" d="M284.5,56.9c-1.4,0.1-2.7,0.2-3.9,0.2
			h-4.9c-1.6,0-2.9,0-4-0.2v2.7c1.6-0.1,2.9-0.2,4-0.2h3.9c1.8,0,3.4,0,4.9,0.2V56.9z"/>
		<path fill="#FFFFFF" stroke="#FFFFFF" stroke-width="0.216" stroke-miterlimit="22.9256" d="M216.6,51.6c1.4,0,2.7,0,3.9,0.2v-2.5
			c-1.1,0.1-2.4,0.2-3.9,0.2v-1.9c0-1.2,0-2.3,0.2-3.4h-3c0,1.1,0,2.9,0.2,5.4H209c1.1-1.9,2.4-4.7,3.9-8.4h3.3c1.7,0,3.4,0,5.1,0.2
			v-2.7c-1.5,0.1-3.2,0.2-5.2,0.2h-2.5c0.6-1.8,1.2-3.3,1.8-4.5c-1.1-0.2-2.2-0.6-3.3-1c-0.3,1.6-0.7,3.4-1.2,5.5
			c-1.7,0-3.5,0-5.4-0.2v2.7c1.9-0.1,3.4-0.2,4.6-0.2c-0.9,2.4-1.7,4.2-2.4,5.4s-1.4,2.2-2.1,2.9l1.2,3.1c1.2-0.3,2.4-0.5,3.6-0.7
			c1.2-0.2,2.4-0.2,3.6-0.2v5.5c-4.4,0.4-7.2,0.6-8.7,0.7c0.2,0.8,0.5,1.8,0.9,3c1.2-0.3,3.8-0.8,7.8-1.3c0,2.3,0,4.9-0.2,7.9h3
			c-0.1-3.1-0.2-5.8-0.2-8c2.1-0.3,3.5-0.5,4.3-0.6c0-1,0.1-1.9,0.3-2.5c-1.6,0.2-3.1,0.4-4.6,0.6L216.6,51.6L216.6,51.6z"/>
		<path fill="#FFFFFF" stroke="#FFFFFF" stroke-width="0.216" stroke-miterlimit="22.9256" d="M235.5,62.5c-0.3,1-1.1,1.4-2.4,1.2
			h-4.5c-1.1,0-1.7-0.6-1.7-1.8v-5.4c2-1,3.6-2,4.8-2.9c1.2-1,2.5-1.8,3.8-2.5c-0.6-0.4-1.4-1.2-2.5-2.5c-1.7,2.1-3.7,3.8-6.1,5.2
			v-3c0-1.4,0-3,0.2-4.8h-3c0.1,1.7,0.2,3.7,0.2,6v11.2c0,1.9,1,2.8,3.1,2.8h7.2c1.2,0,2.1-0.3,2.5-0.8c0.5-0.6,1.2-1.8,2.1-3.8
			c-0.7-0.2-1.8-0.8-3.3-1.8C235.9,60.5,235.8,61.4,235.5,62.5z"/>
		<path fill="#FFFFFF" stroke="#FFFFFF" stroke-width="0.216" stroke-miterlimit="22.9256" d="M260.8,36.3c-1.3,0-2.7,0-4.3-0.2v2.7
			c1.6-0.1,3.5-0.2,5.7-0.2c-0.4,1.9-1.2,4-2.4,6.3c-1.2,2.3-2.7,4-4.5,5.2c0.8,1,1.4,2,1.9,3c1-1.1,1.9-2.1,2.5-3.1v8.5
			c0,1.4-0.1,3.1-0.3,5.1h3v-4.2h4.5v2.7h2.7c-0.1-2-0.2-3.7-0.2-5.1v-6.7c0-1.3,0-2.8,0.2-4.5h-7.2c1.2-2.3,2.1-4.7,2.5-7.2h1.7
			c1.3,0,2.8,0,4.5,0.2v-2.7c-1.6,0.1-3.1,0.2-4.5,0.2L260.8,36.3L260.8,36.3z M266.9,48.2V57h-4.5v-8.8H266.9z"/>
		<path fill="#FFFFFF" stroke="#FFFFFF" stroke-width="0.216" stroke-miterlimit="22.9256" d="M229.4,35.5l1-1.2
			c-1-0.4-2.1-1-3.4-1.7c-0.9,2.9-1.8,5.1-2.6,6.6c-0.8,1.5-1.8,2.8-2.8,3.9c-1,1.1-2.2,2.1-3.5,2.8c1.1,0.8,2.1,1.5,2.8,2.2
			c1.5-1.5,2.8-3,3.9-4.6s2.3-3.4,3.5-5.5c1,1.8,2.3,3.5,3.7,5.1c1.5,1.6,3.4,3.2,5.8,4.9c0.6-0.9,1.3-1.9,2.3-2.8
			c-1.6-0.7-3.3-1.7-5.1-3C233.3,41,231.4,38.7,229.4,35.5z"/>
	</g>
</g>
</svg>
