<?xml version="1.0" encoding="utf-8"?>
<!-- Generator: Adobe Illustrator 18.1.1, SVG Export Plug-In . SVG Version: 6.00 Build 0)  -->
<svg version="1.1" id="图层_1" xmlns="http://www.w3.org/2000/svg" xmlns:xlink="http://www.w3.org/1999/xlink" x="0px" y="0px"
	 width="361.8" height="100" enable-background="new 0 0 361.8 100" xml:space="preserve">
<g>
	<g>
		<polygon fill="#29ABE2" points="30.8,0.6 360,0.6 360,99.6 30.8,99.6 0,50.1 		"/>
		<path fill="#FFFFFF" stroke="#FFFFFF" stroke-width="0.216" stroke-miterlimit="22.9256" d="M34.5,5.1h321v90h-321l-30.1-45
			L34.5,5.1L34.5,5.1z M32.7,2.8L2.2,50.1l30.5,47.2h325.1V2.8H32.7z"/>
		<g>
			<polygon fill="#FFFFFF" points="59.7,90.6 33.5,50.1 59.7,9.6 36.6,9.6 9,50.1 36.6,90.6 			"/>
			<rect x="60.8" y="9.6" fill="#FFFFFF" width="78.3" height="81"/>
		</g>
	</g>
	<path fill="#29ABE2" d="M98.2,37h-3.8c0-2.1,0.6-4.2,3.8-4.2s3.8,2.1,3.8,4.2H98.2L98.2,37z M98.2,46.5h-6.6c0-3.1,0.8-3.3,6.6-3.3
		c5.8,0,6.6,0.2,6.6,3.3H98.2L98.2,46.5z M98.2,56.1c-2.9,0-3.1,2.9-3.1,5.4v4.5h-6.8V54.3h9.9h9.9v11.6h-6.8v-4.5
		C101.3,59,101.1,56.1,98.2,56.1L98.2,56.1z M98.2,73.2H86.8v-4h11.3h11.3v4H98.2L98.2,73.2z M79.3,76.1v8.2h18.9h18.9v-8.2
		l-3.1-2.9v-7.3h-2.7V54.3c3.6-4.3,11.1-8,12.3-12.9c-17.8,8.8-19,3.8-4.1-7.3c-18.1,5.5-14.1-1.6,0.2-9.2c-13.9,3-19.2-3.6-21.4-14
		c-2.2,10.5-7.5,17-21.4,14c14.2,7.5,18.2,14.7,0.2,9.2c14.9,11.1,13.7,16.1-4.1,7.3c1.1,4.9,8.7,8.6,12.3,12.9v11.6h-2.7v7.3
		L79.3,76.1z"/>
	<path fill="#FFFFFF" d="M184.3,34.9v3.5c1.7-0.2,3.8-0.4,6.3-0.4h4.8c-1.5,2.8-2.9,4.9-4.1,6.3c-1.2,1.5-2.4,2.5-3.6,3
		c0.6,1.3,1.1,2.6,1.6,4c1.7-0.5,4-0.7,6.6-0.7h7.1v10.9c0,1.3-0.3,2-1,2.2c-0.6,0.2-2.2,0.2-4.6,0.2c0.7,0.7,1.3,2.1,1.9,4.4
		c2.1-0.4,3.8-0.8,5.1-1.3c1.3-0.5,2-1.9,2-4.2V50.7h7.1c2.1,0,4,0,5.7,0.2v-3.1c-2.1,0.1-4,0.2-5.7,0.2h-7.1c0-2.8,0-4.8,0.2-6.1
		h-3.8c0.1,1.6,0.2,3.6,0.2,6.1h-9.7c2.7-4,4.8-7.2,6.3-9.9h15.6c2.5,0,4.8,0,6.9,0.2v-3.3c-2.2,0.2-4.5,0.4-6.9,0.4h-14.1
		c0.6-1.2,1.2-2.3,1.8-3.4c0.6-1.1,1.4-2.1,2.2-2.9l-5-1.6c-0.2,1.6-1.3,4.2-3.1,7.8h-6.4C188,35.2,186,35.1,184.3,34.9L184.3,34.9z
		 M193.7,54.3c1,0.7,2.5,1.5,4.5,2.3c-1,0.7-2.5,2.1-4.2,4.1c-1.8,2-3.5,3.8-5.1,5.3c-0.6-0.7-1.9-1.5-3.8-2.4
		C189.6,59.6,192.5,56.5,193.7,54.3L193.7,54.3z M210.2,57.1c1.5-1,2.5-1.9,3.1-2.6c1.3,0.9,2.8,2.2,4.6,3.8
		c1.8,1.6,3.3,3.1,4.4,4.4c-0.8,0.4-2.1,1.2-3.8,2.6C217.4,63.6,214.6,60.9,210.2,57.1L210.2,57.1z M268.1,30.5
		c0.1,2.1,0.2,4.5,0.2,7.1V58c0,3.7,0,6.9-0.2,9.6h3.1V33h4.5c-0.6,2-1.2,3.9-1.7,5.7c-0.6,1.9-1.2,3.6-1.7,5c1,1.2,2,2.3,2.8,3.6
		c0.8,1.2,1.3,2.4,1.5,3.6c0.2,1.2,0,2.1-0.5,2.9c-0.5,0.8-1.8,1.1-3.9,1.1c0.7,1.2,1.1,2.5,1.2,4c1.9-0.5,3.3-1.1,4.5-1.9
		c1.2-0.8,1.8-1.9,2-3.2c0.2-1.3,0-2.8-0.4-4.4s-1.7-3.7-3.8-6.3c0.7-2.2,1.5-4.7,2.3-7.5c0.9-2.8,1.5-4.4,1.8-5H268.1L268.1,30.5z
		 M293.7,27.9h-3.3c0.1,1.3,0.2,2.4,0.2,3.3v1.4h-2.1c-2.1-0.1-4-0.2-5.9-0.4v2.9c1.9-0.1,3.8-0.2,5.9-0.2h2.1v4.2h-3.8
		c-2.4-0.1-4.6-0.2-6.6-0.4v2.9c2.1-0.1,4.3-0.2,6.6-0.2h12.8c1.7,0,3.5,0,5.2,0.2v-2.9c-1.7,0.1-3.5,0.2-5.2,0.4h-6.1V35h3.1
		c2.1,0,4,0,5.7,0.2v-2.9c-1.7,0.1-3.6,0.2-5.6,0.4h-3.3V31C293.5,30,293.5,29,293.7,27.9L293.7,27.9z M285.3,42
		c-0.9,1.7-1.8,3.1-2.6,4.3c-0.8,1.1-1.7,2.2-2.6,3.2c1,0.5,2,1,2.8,1.7c1.4-1.6,2.5-3.1,3.4-4.5c0.8-1.4,1.7-2.4,2.5-2.9
		C287.5,43.1,286.4,42.6,285.3,42L285.3,42z M295.2,45.1c1,0.7,2.2,1.6,3.5,2.8c1.3,1.2,2.4,2.3,3.5,3.3c0.8-0.9,1.6-1.8,2.4-2.6
		c-1.3-1-2.5-2.1-3.8-3.2c-1.3-1.1-2.4-2-3.5-2.7C296.7,43.6,296,44.4,295.2,45.1L295.2,45.1z M289.5,45c1,0.6,2.3,1.1,3.8,1.6
		c-0.6,0.4-1,1-1.4,1.6c-0.4,0.6-0.8,1.3-1.2,2.1h9.2c-0.7,2-1.4,3.9-2.2,5.8c-0.8,1.9-1.7,3.6-2.7,5.1c1.5,0.9,3,1.6,4.5,1.9
		c1.5,0.4,3.4,0.6,5.7,0.8c-0.9,1.2-1.6,2.4-2.1,3.7c-1.7-0.5-3.6-1.1-5.5-1.8c-1.9-0.8-3.6-1.6-5-2.5c-2,1.3-3.7,2.3-5.2,2.9
		c-1.5,0.7-3.4,1.4-5.7,2.1c-0.6-1.2-1.3-2.3-2.3-3.5c2.8-0.4,5-0.8,6.6-1.4c1.6-0.6,3.1-1.4,4.5-2.4c-1-1.3-1.8-2.4-2.3-3.3
		c-0.4-0.9-0.8-1.8-1.2-2.6c-0.7,0.9-1.3,1.7-1.7,2.2c-0.5,0.5-1,1.2-1.7,2c-0.7-0.7-1.6-1.3-2.8-1.9c1.3-0.8,2.8-2.5,4.5-5
		C287.2,49.8,288.6,47.4,289.5,45L289.5,45z M289.3,52.6c0.4,1,0.8,2.1,1.2,3.2c0.5,1.1,1.2,2.2,2.3,3.4c0.8-1.3,1.5-2.4,1.9-3.4
		s0.8-2.1,1.2-3.2H289.3z"/>
</g>
</svg>
