<?xml version="1.0" encoding="utf-8"?>
<!-- Generator: Adobe Illustrator 18.1.1, SVG Export Plug-In . SVG Version: 6.00 Build 0)  -->
<svg version="1.1" id="图层_1" xmlns="http://www.w3.org/2000/svg" xmlns:xlink="http://www.w3.org/1999/xlink" x="0px" y="0px"
	 width="361.8" height="100" enable-background="new 0 0 361.8 100" xml:space="preserve">
<g>
	<g>
		<polygon fill="#29ABE2" points="31.1,0 362.3,0 362.3,99.6 31.1,99.6 0,49.8 		"/>
		<path fill="#FFFFFF" stroke="#FFFFFF" stroke-width="0.216" stroke-miterlimit="22.9256" d="M34.8,4.5h323v90.6h-323L4.5,49.8
			L34.8,4.5L34.8,4.5z M32.9,2.3L2.3,49.8l30.6,47.6H360V2.3H32.9z"/>
		<g>
			<polygon fill="#FFFFFF" points="60.1,90.6 33.7,49.8 60.1,9.1 36.9,9.1 9.1,49.8 36.9,90.6 			"/>
			<rect x="61.2" y="9.1" fill="#FFFFFF" width="78.7" height="81.5"/>
		</g>
	</g>
	<path fill="#29ABE2" stroke="#29ABE2" stroke-width="0.216" stroke-miterlimit="22.9256" d="M74.7,21.2v55.7h-3v4.7h41.1v-4.7h-3
		l0-30.4h4.2l0.1,29c0,8.5,14.6,8.4,14.6,0V51.1c0-5.7-6.8-8.3-10.8-8.3V28.1l-8.1-3.3v-3.9c0.2-1.7-2.4-3.8-4.3-3.8H78.9
		C77.3,17.1,74.8,19.1,74.7,21.2L74.7,21.2z M79.1,21.3h26.3v18.9H79.1V21.3L79.1,21.3z M109.8,28.8l4.4,1.7v12.3h-4.4V28.8
		L109.8,28.8z M117.9,46.4c3.9,0,7.2,2.6,7.2,4.8v24.2c0.1,3.9-7.2,4-7.2,0V46.4z"/>
	<g>
		<path fill="#FFFFFF" stroke="#FFFFFF" stroke-width="0.216" stroke-miterlimit="22.9256" d="M212.1,38.9H200c0.1,2,0.2,4,0.2,5.8
			v14.1c0,1.9,0,3.8-0.2,5.7h2.8v-3.9h6.4v3.3h2.8c-0.1-2.5-0.2-4.8-0.2-7V44.7C212,42.7,212,40.8,212.1,38.9z M209.3,57.9h-6.4
			V41.4h6.4V57.9z"/>
		<path fill="#FFFFFF" stroke="#FFFFFF" stroke-width="0.216" stroke-miterlimit="22.9256" d="M238.4,58.2c-1.2,2.5-2.4,4.5-3.7,6
			c1.5,0.5,2.8,1.2,4,2.1c0.5-1.5,1.3-3.7,2.6-6.6c1.2-3,2.2-5,3-6.1c-1-0.5-2.1-1.1-3.2-1.9C240.5,53.5,239.6,55.7,238.4,58.2z"/>
		<path fill="#FFFFFF" stroke="#FFFFFF" stroke-width="0.216" stroke-miterlimit="22.9256" d="M243.6,46.2c-2.7-1.3-5.1-2.5-7.3-3.6
			c-0.5,0.9-1,1.8-1.5,2.7c2.4,1,4.7,2.3,7,3.7C242.3,48.1,242.9,47.2,243.6,46.2z"/>
		<path fill="#FFFFFF" stroke="#FFFFFF" stroke-width="0.216" stroke-miterlimit="22.9256" d="M299.9,38.1c-0.9-2.5-1.7-4.4-2.6-5.7
			c-0.9,0.5-1.8,0.9-2.7,1.2c1,2,1.7,3.9,2.1,5.7C297.8,38.9,298.9,38.5,299.9,38.1z"/>
		<path fill="#FFFFFF" stroke="#FFFFFF" stroke-width="0.216" stroke-miterlimit="22.9256" d="M189.5,35.4c0.1-1,0.3-1.9,0.6-2.6
			c-1.5,0-2.7-0.1-3.6-0.3c0.1,1.9,0.2,3.1,0.2,3.5c0,0.4,0,1.7-0.2,3.8h-2.1c-1.4,0-2.6-0.1-3.8-0.3v3c1.2-0.1,2.3-0.2,3.4-0.2h2.3
			c-0.1,1.9-0.2,3.5-0.3,4.7c-0.1,1.3-0.4,2.8-0.8,4.8c-0.4,1.9-1.1,3.9-2.1,5.8c-1,1.9-2.2,3.7-3.8,5.3c1.2,0.7,2.1,1.5,2.7,2.3
			c0.8-1.2,1.5-2.4,2.3-3.5c0.7-1.1,1.4-2.5,2-4s1.2-3.5,1.7-5.9c0.5-2.4,0.9-5.6,1.2-9.5h4.9L193.1,60c-0.1,1.1-0.5,1.7-1.2,1.9
			c-0.7,0.2-1.9,0.2-3.4,0.1c0.6,1.1,1,2.2,1.2,3.4c1.1-0.2,2.3-0.5,3.7-0.9c1.4-0.4,2.1-1.5,2.3-3.3l1.1-18.3c0-1.1,0.1-2.1,0.3-3
			h-7.8C189.3,37.9,189.4,36.4,189.5,35.4z"/>
		<path fill="#FFFFFF" stroke="#FFFFFF" stroke-width="0.216" stroke-miterlimit="22.9256" d="M237.2,35.7c2.2,1.3,4.3,2.8,6.3,4.3
			c0.5-1,1.2-1.9,2.1-2.6c-2.3-1.5-4.5-2.8-6.4-4C238.6,34.2,237.9,35,237.2,35.7z"/>
		<path fill="#FFFFFF" stroke="#FFFFFF" stroke-width="0.216" stroke-miterlimit="22.9256" d="M318.8,42.1c1.5,0,3.2,0,4.9,0.2v-2.7
			c-1.8,0.1-3.4,0.2-4.9,0.2h-4v-3.7c0-0.6,0-1.9,0.2-3.8h-3.3c0.2,1.8,0.3,3.2,0.3,4v12.9h-5.2c0,1.7,0,3.2,0.2,4.5v7.5
			c-0.1,1.4-0.2,3-0.3,4.8h3.2v-3.3h9.3v3h3c-0.1-1.8-0.2-3.6-0.2-5.4v-6.9c0-1.3,0-2.7,0.2-4.2h-7.2v-7L318.8,42.1L318.8,42.1z
			 M318.9,51.6v8.7h-9.3v-8.7H318.9z"/>
		<path fill="#FFFFFF" stroke="#FFFFFF" stroke-width="0.216" stroke-miterlimit="22.9256" d="M267.6,39.9h-9.4v-3
			c0-1.3,0-2.9,0.2-4.8h-3.2c0.1,1.9,0.2,3.5,0.2,4.8v3h-9.4c0.1,2.6,0.2,4.5,0.2,5.8V60c0,1.3,0,3.2-0.2,5.8h3v-3.2h15.7v3.2h3
			c-0.1-2.7-0.2-4.6-0.2-5.7V45.6C267.5,44.3,267.5,42.4,267.6,39.9z M255.3,60.3h-6.4v-7.9h6.4V60.3z M255.3,50h-6.4v-7.7h6.4V50z
			 M264.6,60.3h-6.4v-7.9h6.4V60.3z M264.6,50h-6.4v-7.7h6.4V50z"/>
		<path fill="#FFFFFF" stroke="#FFFFFF" stroke-width="0.216" stroke-miterlimit="22.9256" d="M295.7,40c-1.5,0-3.4,0-5.8-0.2v2.6
			c2.4-0.1,4.3-0.2,5.8-0.2h2.7c1.4,0,3.4,0,6,0.2v-2.6c-2.6,0.1-4.6,0.2-6,0.2H295.7z"/>
		<path fill="#FFFFFF" stroke="#FFFFFF" stroke-width="0.216" stroke-miterlimit="22.9256" d="M296.7,54.9c-0.4-1.5-0.8-3.1-1.3-4.9
			c-0.4-1.7-0.9-3.3-1.4-4.7c-1,0.1-1.9,0.3-2.8,0.6c0.6,2.1,1.1,3.9,1.5,5.5c0.4,1.5,0.7,2.9,1.1,4.1
			C294.6,55.2,295.6,55,296.7,54.9z"/>
		<path fill="#FFFFFF" stroke="#FFFFFF" stroke-width="0.216" stroke-miterlimit="22.9256" d="M300.3,57.4c0.4-2,0.9-4,1.3-6.2
			c0.5-2.1,1.1-3.9,1.9-5.5c-1.4-0.2-2.6-0.6-3.7-1.1c-0.4,3.1-0.7,5.2-0.8,6.4c-0.2,1.1-0.4,2.2-0.6,3.3s-0.6,2.2-1,3.5
			c-1.2,0.3-2.4,0.5-3.5,0.7c-1.1,0.2-2.4,0.3-3.8,0.5c0.6,1.3,1,2.6,1.2,3.8c1.9-0.8,3.8-1.5,5.5-2c1.8-0.6,3.3-1,4.4-1.3
			c1.1-0.3,2.1-0.5,2.9-0.6c-0.2-0.9-0.3-1.7-0.3-2.4C303.3,56.6,302.1,56.9,300.3,57.4z"/>
	</g>
</g>
</svg>
