<?xml version="1.0" encoding="utf-8"?>
<!-- Generator: Adobe Illustrator 18.1.1, SVG Export Plug-In . SVG Version: 6.00 Build 0)  -->
<svg version="1.1" id="图层_1" xmlns="http://www.w3.org/2000/svg" xmlns:xlink="http://www.w3.org/1999/xlink" x="0px" y="0px"
	 width="361.8" height="100" enable-background="new 0 0 361.8 100" xml:space="preserve">
<g>
	<g>
		<polygon fill="#29ABE2" points="31,0 361.8,0 361.8,99.5 31,99.5 0,49.7 		"/>
		<path fill="#FFFFFF" stroke="#FFFFFF" stroke-width="0.216" stroke-miterlimit="22.9256" d="M34.7,4.5h322.6V95H34.7L4.5,49.7
			L34.7,4.5L34.7,4.5z M32.8,2.2L2.2,49.7l30.6,47.5h326.7v-95H32.8z"/>
		<g>
			<polygon fill="#FFFFFF" points="60,90.4 33.7,49.8 60,9 36.8,9 9,49.7 36.8,90.4 			"/>
			<rect x="61.1" y="9" fill="#FFFFFF" width="78.7" height="81.4"/>
		</g>
	</g>
	<g>
		<path fill="none" stroke="#29ABE2" stroke-width="0.216" stroke-miterlimit="22.9256" d="M105.5,39.7
			C105.5,39.7,105.5,39.7,105.5,39.7"/>
		
			<line fill="none" stroke="#29ABE2" stroke-width="0.3969" stroke-miterlimit="22.9256" stroke-dasharray="0.7937,1.9843" x1="99.5" y1="19.2" x2="111.5" y2="50"/>
		
			<line fill="none" stroke="#29ABE2" stroke-width="0.3969" stroke-miterlimit="22.9256" stroke-dasharray="0.7937,1.9843" x1="99.3" y1="19.3" x2="89" y2="47.9"/>
		
			<line fill="none" stroke="#29ABE2" stroke-width="0.3969" stroke-miterlimit="22.9256" stroke-dasharray="0.7937,1.9843" x1="100.3" y1="18.7" x2="125.9" y2="59.7"/>
		
			<line fill="none" stroke="#29ABE2" stroke-width="0.3969" stroke-miterlimit="22.9256" stroke-dasharray="0.7937,1.9843" x1="99.6" y1="17.3" x2="99.7" y2="47.8"/>
		
			<line fill="none" stroke="#29ABE2" stroke-width="0.3969" stroke-miterlimit="22.9256" stroke-dasharray="0.7937,1.9843" x1="99.1" y1="17.9" x2="75.3" y2="57.5"/>
		<path fill="#29ABE2" d="M84.7,75.3l-1.3-10c0.7-1,1.6-1.8,2.6-2.5l1.7-7.2c8.5-2.9,17-2.9,25.5,0l1.7,7.2c1,0.7,1.8,1.5,2.5,2.5
			l-1.3,10.1c-0.1,0.8-0.6,1.2-1.5,1.2l0,0v2.8c0,0.9-0.8,1.7-1.7,1.7l0,0c-0.9,0-1.7-0.8-1.7-1.7v-2.8H89.6v2.8
			c0,0.9-0.8,1.7-1.7,1.7l0,0c-0.9,0-1.7-0.8-1.7-1.7v-2.8C85.4,76.6,84.9,76.2,84.7,75.3L84.7,75.3z M86.6,65.2
			c-0.9,0-1.6,0.7-1.6,1.6c0,0.9,0.7,1.6,1.6,1.6s1.6-0.7,1.6-1.6C88.2,65.9,87.5,65.2,86.6,65.2L86.6,65.2z M114.4,65.2
			c-0.9,0-1.6,0.7-1.6,1.6c0,0.9,0.7,1.6,1.6,1.6s1.6-0.7,1.6-1.6C116,65.9,115.3,65.2,114.4,65.2L114.4,65.2z M110.1,67.8
			c0.5,0,1.5-1.5-0.5-1.8c-6.2-0.8-12.3-0.8-18.4,0c-1.8,0.2-0.9,1.8-0.5,1.8C97.2,67.9,103.7,67.9,110.1,67.8L110.1,67.8z M88.6,62
			c7.9-0.6,15.9-0.6,23.8,0l-0.4-3.3c-0.2-1.1,0-0.9-1.1-1.3c-6.8-2.3-13.7-2.3-20.5,0c-1.2,0.4-1.1,0.3-1.2,1.3L88.6,62L88.6,62z
			 M90.5,69.7c0,0.6,0.2,1.2,0.5,1.8h18.9c0.3-0.6,0.5-1.2,0.5-1.8H90.5z"/>
	</g>
	<g>
		<path fill="#FFFFFF" stroke="#FFFFFF" stroke-width="0.216" stroke-miterlimit="22.9256" d="M194.7,45.8c-2.4-1.6-4.9-3.1-7.3-4.5
			c-0.7,1.1-1.4,2-2.1,2.8c2.7,1.3,5.1,2.8,7.3,4.7C193.2,47.6,193.9,46.6,194.7,45.8z"/>
		<path fill="#FFFFFF" stroke="#FFFFFF" stroke-width="0.216" stroke-miterlimit="22.9256" d="M194.3,38.3c0.7-1.1,1.5-2,2.4-2.8
			c-2-1.7-4.3-3.6-6.8-5.4c-0.7,0.9-1.5,1.8-2.3,2.6C190.5,34.7,192.7,36.6,194.3,38.3z"/>
		<path fill="#FFFFFF" stroke="#FFFFFF" stroke-width="0.216" stroke-miterlimit="22.9256" d="M220.8,63.8c-0.3,0.7-0.8,1.1-1.5,1.1
			h-2.4c-1.2,0-1.7-0.6-1.7-1.9V49h3.3c1.7,0,3.6,0,5.6,0.2v-3c-2,0.1-3.9,0.2-5.8,0.2h-5.6v-7.7h4.2c1.7,0,3.5,0,5.2,0.2v-3
			c-1.7,0.1-3.5,0.2-5.2,0.2h-4.2v-3.5c0-1.6,0-3,0.2-4.2h-3.6c0.1,1.3,0.2,2.6,0.2,4V36h-6.1c0.6-2.2,1.2-3.8,1.7-4.7
			c-1.5-0.2-2.8-0.5-4-0.9c-0.5,4.2-1.6,8.1-3.5,11.7c1.3,0.2,2.5,0.5,3.6,0.9c0.6-1.6,1.1-3.1,1.4-4.4h6.8v7.7H202
			c-1.6,0-3.5,0-5.6-0.2v3c2.1-0.1,4.6-0.2,7.5-0.2c-0.1,3.4-0.4,6.1-1.1,8.2c-0.6,2.1-1.5,3.9-2.7,5.3c-1.2,1.5-3,2.8-5.5,3.9
			c1.6,0.6,2.7,1.4,3.3,2.4c2.3-1.4,4.2-3,5.6-5c1.4-1.9,2.3-4.1,2.8-6.5c0.4-2.4,0.8-5.2,0.9-8.4h4.7v15c0,2.3,1.2,3.5,3.6,3.5h5.1
			c1.3,0,2.1-0.4,2.6-1.2c0.4-0.8,1.1-2.3,1.7-4.5c-1.3-0.2-2.5-0.7-3.6-1.4C221.3,61.9,221.1,63.1,220.8,63.8z"/>
		<path fill="#FFFFFF" stroke="#FFFFFF" stroke-width="0.216" stroke-miterlimit="22.9256" d="M311.2,57.2h-9.6v-6.6h6.1
			c2,0,4,0,6.1,0.2V47c-2.1,0.2-4.1,0.4-6.1,0.4h-6.1c0-2.4,0-4.4,0.2-5.8h-3.9c0.1,1.7,0.2,3.6,0.2,5.8h-9.2
			c3.2-4.5,5.4-7.6,6.4-9.2h15.7c1.9,0,3.9,0,6.3,0.2v-3.6c-2.3,0.2-4.4,0.3-6.3,0.3H297c0.8-1.6,2-3.4,3.5-5.4
			c-1.5-0.5-3.1-1.1-4.7-1.7c-0.6,2.1-1.6,4.5-3,7.1c-5.6,0-9.6-0.1-12-0.3v3.6c2.6-0.1,6-0.2,10.3-0.2c-1.3,2.2-2.7,4.3-4.2,6.1
			c-1.5,1.9-2.8,3-4,3.3c0.5,1.1,0.9,2.4,1.4,4c1.9-0.6,3.6-0.9,5.2-1c1.6,0,4.5-0.1,8.6-0.1v6.6h-11.9c-2.1,0-4.2,0-6.3-0.2v3.6
			c2.2-0.2,4.3-0.4,6.3-0.4h11.9c0,3.5,0,6.2-0.2,8.2h3.9c-0.1-1.9-0.2-4.6-0.2-8.2h9.6c2,0,4.1,0.1,6.3,0.4v-3.6
			C315.2,57.1,313.2,57.2,311.2,57.2z"/>
		<path fill="#FFFFFF" stroke="#FFFFFF" stroke-width="0.216" stroke-miterlimit="22.9256" d="M192.1,52.1c-0.9,2.9-1.9,5.6-3,8.2
			c-1.1,2.6-2.2,4.5-3.2,5.9c1.6,0.7,3.1,1.5,4.5,2.3c0.4-1.7,1-4,1.9-6.8c0.9-2.8,1.9-5.3,2.8-7.5C194,53.6,193,52.9,192.1,52.1z"
			/>
	</g>
</g>
<rect x="112.5" y="14" transform="matrix(-0.8383 0.5452 -0.5452 -0.8383 228.2244 9.0009)" fill="#29ABE2" width="0.5" height="48.8"/>
<rect x="87.4" y="14.8" transform="matrix(-0.869 -0.4948 0.4948 -0.869 144.374 116.6132)" fill="#29ABE2" width="0.5" height="48.8"/>
<rect x="94.2" y="17.7" transform="matrix(0.9351 0.3544 -0.3544 0.9351 17.7968 -31.323)" fill="#29ABE2" width="0.5" height="30.5"/>
<rect x="99.4" y="19.5" fill="#29ABE2" width="0.4" height="28.3"/>
<rect x="105.3" y="17.4" transform="matrix(-0.9315 0.3637 -0.3637 -0.9315 216.2622 27.8515)" fill="#29ABE2" width="0.5" height="33.8"/>
</svg>
