<?xml version="1.0" encoding="utf-8"?>
<!-- Generator: Adobe Illustrator 18.1.1, SVG Export Plug-In . SVG Version: 6.00 Build 0)  -->
<svg version="1.1" id="图层_1" xmlns="http://www.w3.org/2000/svg" xmlns:xlink="http://www.w3.org/1999/xlink" x="0px" y="0px"
	 width="100" height="100" enable-background="new 0 0 100 100" xml:space="preserve">
<g>
	<path fill="#F4AB1C" d="M3.9,82.4L46.3,8.3c0.9-1.4,2.6-2.5,4.3-2.5c-1.7,0-3.4,1.1-4.3,2.5L3.9,82.4c-2.7,4.7-2.8,8.4,1,9.2l0,0
		C1.1,90.9,1.2,87.1,3.9,82.4z"/>
	<path fill="#F4AB1C" d="M10.3,84.5h80.1l-40-69.4L10.3,84.5z M47.3,56.8L41.9,64L42,79.7h-4.5V62.8l5.7-7.9V40.1h4L47.3,56.8
		L47.3,56.8z M53,40.1h4V55l5.7,7.9v16.8h-4.5L58.3,64L53,56.8L53,40.1L53,40.1z"/>
	<path fill="#010101" d="M95.9,80.8L54.3,8.3c-1-1.8-2.4-2.5-3.7-2.5c-1.7,0-3.4,1.1-4.3,2.5L3.9,82.4c-2.7,4.7-2.8,8.4,1,9.2h90
		l0,0C101.3,91.6,98.7,85.3,95.9,80.8z M10.3,84.5l40-69.4l40,69.4H10.3z"/>
	<polygon fill="#010101" points="43.2,55 37.5,62.8 37.5,79.7 42,79.7 41.9,64 47.3,56.8 47.3,40.1 43.2,40.1 	"/>
	<polygon fill="#010101" points="58.2,79.7 62.7,79.7 62.7,62.8 57,55 57,40.1 53,40.1 53,56.8 58.3,64 	"/>
</g>
</svg>
