<?xml version="1.0" encoding="utf-8"?>
<!-- Generator: Adobe Illustrator 18.1.1, SVG Export Plug-In . SVG Version: 6.00 Build 0)  -->
<svg version="1.1" id="图层_1" xmlns="http://www.w3.org/2000/svg" xmlns:xlink="http://www.w3.org/1999/xlink" x="0px" y="0px"
	 width="361.8" height="100" enable-background="new 0 0 361.8 100" xml:space="preserve">
<g>
	<g>
		<polygon fill="#29ABE2" points="31,0 361.8,0 361.8,99.5 31,99.5 0,49.8 		"/>
		<path fill="#FFFFFF" stroke="#FFFFFF" stroke-width="0.216" stroke-miterlimit="22.9256" d="M34.7,4.5h322.5v90.4H34.7L4.5,49.8
			L34.7,4.5L34.7,4.5z M32.8,2.3L2.3,49.8l30.6,47.5h326.6v-95H32.8z"/>
		<g>
			<polygon fill="#FFFFFF" points="60,90.4 33.7,49.8 60,9 36.8,9 9,49.8 36.8,90.4 			"/>
			<rect x="61.1" y="9" fill="#FFFFFF" width="78.6" height="81.4"/>
		</g>
	</g>
	<path fill="#29ABE2" stroke="#29ABE2" stroke-width="0.216" stroke-miterlimit="22.9256" d="M88.2,48.1c2.1,0,3.7,1.7,3.7,3.7
		c0,1.5-0.9,2.8-2.2,3.4h23.6c-1.3-0.6-2.2-1.9-2.2-3.4c0-2.1,1.7-3.7,3.7-3.7c2,0,3.7,1.7,3.7,3.7c0,1.5-0.9,2.8-2.2,3.4h16.9
		l-3.6,7.9c-1.3,2.6-7.8,2.2-11.8,1.1c-3.3-0.8-6.9-1.9-10.9,0.5c6.1-1.2,9.4,0,14.3,1c7.9,1.6,11-1.7,15.9-0.6
		c-4,0.6-7.8,3.1-11.9,3.3c-4.5,0.3-6.9-1.5-10.3-2c-3.1-0.5-6.5,0.3-9.3,0c-7-0.6-10.5-5.1-15.8-4c3.3,1,5.6,2.3,7.6,4.4
		c-8.2-4-14.6,0.5-19.5,0.4c-5.4-0.1-9.7-4.5-14.5-4.4c1.9-0.8,4.1-1.3,6.6-1.5l-2.9-8.1h10.3l1.5,2.1h7.7c-1.3-0.6-2.2-1.9-2.2-3.4
		C84.5,49.8,86.2,48.1,88.2,48.1L88.2,48.1z M104.3,70.1c4.7-0.3,8.3-1,13.1,0.9c2.7,0.8,5.6,1.5,7.6,0.2c-3.8-0.1-5.3-1-7.6-2
		C114.7,67.9,108.3,68.2,104.3,70.1L104.3,70.1z M68.7,66.1c4.8,5.9,10.6,6.1,16.8,3.6c2.5-1,5-1.8,8.2,0.9c-2.5-4.4-6.3-4-9.8-2.6
		C79.3,69.8,73.3,68.9,68.7,66.1L68.7,66.1z M77.3,44.3l1.2,7.9h5c0-0.1,0-0.2,0-0.3c0-2.6,2.1-4.8,4.8-4.8s4.8,2.1,4.8,4.8
		c0,0.1,0,0.2,0,0.3h17.1c0-0.1,0-0.2,0-0.3c0-2.6,2.1-4.8,4.8-4.8s4.8,2.1,4.8,4.8c0,0.1,0,0.2,0,0.3h6.4v-7.9h-3.3l-10.4-6.3H95
		l-7.2,6.4L77.3,44.3L77.3,44.3z M90.9,44.3l4.2-4.2h4.2v4.2H90.9L90.9,44.3z M101.5,44.3V40h6.1v4.2H101.5L101.5,44.3z M109.8,44.3
		V40h2.9l6.2,4.2H109.8L109.8,44.3z M114.9,50.7c-0.6,0-1.1,0.5-1.1,1.1c0,0.6,0.5,1.1,1.1,1.1c0.6,0,1.1-0.5,1.1-1.1
		C116,51.2,115.5,50.7,114.9,50.7L114.9,50.7z M88.2,50.7c-0.6,0-1.1,0.5-1.1,1.1c0,0.6,0.5,1.1,1.1,1.1c0.6,0,1.1-0.5,1.1-1.1
		C89.4,51.2,88.8,50.7,88.2,50.7z"/>
	<g>
		<path fill="#FFFFFF" stroke="#FFFFFF" stroke-width="0.216" stroke-miterlimit="22.9256" d="M221.1,33.6l1.2-1.4
			c-1.2-0.5-2.5-1.1-4-1.9c-1,3.4-2.1,5.9-3.1,7.7c-1,1.7-2.1,3.3-3.3,4.6c-1.2,1.3-2.6,2.4-4.1,3.2c1.3,0.9,2.4,1.8,3.3,2.6
			c1.7-1.7,3.3-3.6,4.6-5.4s2.7-4,4.1-6.5c1.2,2.1,2.6,4.1,4.4,5.9c1.7,1.9,4,3.8,6.8,5.8c0.7-1,1.6-2.1,2.6-3.3
			c-1.9-0.8-3.8-2-5.9-3.5C225.7,39.9,223.5,37.3,221.1,33.6z"/>
		<path fill="#FFFFFF" stroke="#FFFFFF" stroke-width="0.216" stroke-miterlimit="22.9256" d="M228.3,65c-0.4,1.2-1.3,1.7-2.8,1.5
			h-5.2c-1.3,0-1.9-0.7-1.9-2.1v-6.3c2.3-1.2,4.2-2.3,5.7-3.4s2.9-2.1,4.4-2.9c-0.7-0.4-1.7-1.5-3-2.9c-2,2.5-4.4,4.5-7.1,6.1v-3.5
			c0-1.6,0-3.5,0.2-5.6H215c0.1,2,0.2,4.3,0.2,7V66c0,2.2,1.2,3.3,3.7,3.3h8.4c1.4,0,2.4-0.3,3-1c0.6-0.6,1.4-2.1,2.5-4.4
			c-0.8-0.2-2.1-0.9-3.8-2.1C228.8,62.7,228.6,63.8,228.3,65z"/>
		<path fill="#FFFFFF" stroke="#FFFFFF" stroke-width="0.216" stroke-miterlimit="22.9256" d="M276.8,38.8c0.7-0.9,1.5-1.8,2.5-2.6
			c-0.9-0.7-2.1-1.5-3.4-2.5c-1.3-0.9-2.4-1.6-3.2-2.1c-0.7,0.7-1.4,1.5-2.1,2.5c1.2,0.7,2.3,1.4,3.2,2.1
			C274.8,36.9,275.8,37.8,276.8,38.8z"/>
		<path fill="#FFFFFF" stroke="#FFFFFF" stroke-width="0.216" stroke-miterlimit="22.9256" d="M206.1,52.4c1.6,0,3.1,0,4.5,0.2v-2.9
			c-1.3,0.1-2.8,0.2-4.5,0.2v-2.3c0-1.4,0-2.7,0.2-4h-3.5c0,1.3,0,3.4,0.2,6.3h-5.8c1.3-2.2,2.8-5.5,4.6-9.8h3.8c2,0,4,0,5.9,0.2
			v-3.1c-1.7,0.1-3.8,0.2-6.1,0.2h-3c0.7-2.1,1.4-3.8,2.1-5.2c-1.3-0.2-2.5-0.6-3.8-1.2c-0.4,1.9-0.8,4-1.4,6.5c-2,0-4.1,0-6.3-0.2
			v3.1c2.2-0.1,4-0.2,5.4-0.2c-1,2.8-2,4.9-2.8,6.4c-0.8,1.5-1.6,2.6-2.5,3.4l1.4,3.7c1.4-0.4,2.8-0.6,4.2-0.8s2.8-0.3,4.2-0.3v6.5
			c-5.1,0.4-8.5,0.8-10.1,0.9c0.2,0.9,0.6,2.1,1,3.5c1.4-0.4,4.4-0.9,9.1-1.6c0,2.7,0,5.8-0.2,9.2h3.5c-0.1-3.6-0.2-6.7-0.2-9.4
			c2.5-0.4,4.1-0.6,5-0.7c0-1.2,0.1-2.1,0.4-2.9c-1.9,0.2-3.7,0.4-5.4,0.7L206.1,52.4L206.1,52.4z"/>
		<path fill="#FFFFFF" stroke="#FFFFFF" stroke-width="0.216" stroke-miterlimit="22.9256" d="M284.5,44.7h5c0,2.3,0,4.4-0.2,6.1
			h12.4c-0.1-1.4-0.2-3.4-0.2-6.1c2,0,3.9,0,5.8,0.2v-3c-1.9,0.1-3.8,0.2-5.8,0.2c0-0.8,0-2,0.2-3.5h-3.5c0.1,1.5,0.2,2.7,0.2,3.5
			h-5.8c0-0.9,0-2.1,0.2-3.5h-3.5c0.1,1.4,0.2,2.5,0.2,3.5h-5v-4.9h17.1c2.1,0,4.2,0,6.3,0.2v-3c-2.1,0.1-4.2,0.2-6.3,0.2h-4.7
			c-0.4-1.3-0.8-2.7-1.2-4.4c-1.2,0.4-2.4,0.9-3.7,1.2c0.4,0.7,0.7,1.7,1,3.1h-11.7c0.1,1.9,0.2,4.5,0.2,7.8c0,3.4-0.1,6.6-0.3,9.7
			c-0.2,3.1-0.8,6-1.7,8.6c-0.9,2.7-2.2,5-3.8,6.8c1.3,0.5,2.4,1.1,3.3,1.9c1.5-2.5,2.6-4.8,3.3-6.9c0.7-2.1,1.3-4.4,1.7-6.9
			C284.3,53.2,284.5,49.5,284.5,44.7z M292.7,44.7h5.8v3.5h-5.8V44.7z"/>
		<path fill="#FFFFFF" stroke="#FFFFFF" stroke-width="0.216" stroke-miterlimit="22.9256" d="M302.7,66c-1.6-0.5-3.1-1.2-4.6-2.1
			c1-0.9,2.1-2.2,3.3-3.8c1.2-1.6,2.3-3.7,3.5-6.3h-13.1c-1.7,0-3.6,0-5.6-0.2v3c1-0.1,2-0.1,3-0.1v0h2.6c-0.8,0-1.7,0-2.6,0
			c1.3,3,2.7,5.4,4.2,7.3c-2.5,1.4-4.6,2.3-6.1,2.7c-1.5,0.4-3,0.7-4.6,1c1.3,1.2,2.1,2.2,2.5,3.1c2.2-0.7,4-1.3,5.4-1.9
			c1.4-0.6,3.1-1.5,5-2.6c1.7,1.2,3.3,2,4.7,2.6c1.4,0.6,3.3,1.2,5.6,1.9c0.4-1.3,1.3-2.5,2.5-3.7C306.2,66.8,304.3,66.5,302.7,66z
			 M292.4,56.4h7.7c-0.7,1.7-2.1,3.6-4,5.6C294.9,60.8,293.7,59,292.4,56.4z"/>
		<path fill="#FFFFFF" stroke="#FFFFFF" stroke-width="0.216" stroke-miterlimit="22.9256" d="M274.1,52.6c-0.2,1.4-0.6,2.8-1,4.2
			c-0.5,1.4-0.9,2.7-1.3,3.8c-0.4,1.1-1.4,3.2-2.9,6.4c1.3,0.4,2.5,1,3.8,1.7c0.8-2.9,1.7-5.7,2.5-8.4c0.9-2.7,1.5-4.5,2-5.6
			C276,54.1,275,53.4,274.1,52.6z"/>
		<path fill="#FFFFFF" stroke="#FFFFFF" stroke-width="0.216" stroke-miterlimit="22.9256" d="M274.6,48.7c0.7-1,1.5-1.9,2.5-2.5
			c-0.9-0.8-1.9-1.6-2.9-2.5c-1-0.8-2.1-1.6-3.3-2.5c-0.6,0.8-1.3,1.7-2.1,2.6c1.2,0.6,2.2,1.3,3.1,2.1
			C272.7,46.9,273.7,47.8,274.6,48.7z"/>
	</g>
</g>
</svg>
