<?xml version="1.0" encoding="utf-8"?>
<!-- Generator: Adobe Illustrator 18.1.1, SVG Export Plug-In . SVG Version: 6.00 Build 0)  -->
<svg version="1.1" id="图层_1" xmlns="http://www.w3.org/2000/svg" xmlns:xlink="http://www.w3.org/1999/xlink" x="0px" y="0px"
	 width="361.8" height="100" enable-background="new 0 0 361.8 100" xml:space="preserve">
<g>
	<g>
		<polygon fill="#29ABE2" points="31,0 361.8,0 361.8,99.5 31,99.5 0,49.7 		"/>
		<path fill="#FFFFFF" stroke="#FFFFFF" stroke-width="0.216" stroke-miterlimit="22.9256" d="M34.7,4.5h322.5V95H34.7L4.5,49.7
			L34.7,4.5L34.7,4.5z M32.8,2.3L2.3,49.7l30.6,47.5h326.6v-95H32.8z"/>
		<g>
			<polygon fill="#FFFFFF" points="60,90.5 33.7,49.7 60,9 36.8,9 9,49.7 36.8,90.5 			"/>
			<rect x="61.1" y="9" fill="#FFFFFF" width="78.6" height="81.4"/>
		</g>
	</g>
	<g>
		<g>
			<path fill="#29ABE2" stroke="#29ABE2" stroke-width="0.216" stroke-miterlimit="22.9256" d="M98.7,36.6c0.8,0,1.5-0.7,1.5-1.5
				c0-0.8-0.7-1.5-1.5-1.5c-0.8,0-1.5,0.7-1.5,1.5C97.2,35.9,97.9,36.6,98.7,36.6z"/>
			<path fill="#29ABE2" stroke="#29ABE2" stroke-width="0.216" stroke-miterlimit="22.9256" d="M102.6,36.6c0.8,0,1.5-0.7,1.5-1.5
				c0-0.8-0.7-1.5-1.5-1.5c-0.8,0-1.5,0.7-1.5,1.5C101.1,35.9,101.8,36.6,102.6,36.6z"/>
			<path fill="#29ABE2" stroke="#29ABE2" stroke-width="0.216" stroke-miterlimit="22.9256" d="M90.1,37.9h20.9c1.2,0,2.1,1,2.1,2.1
				v26.6c0,0.1,0,0.2,0,0.3l0,0c0,0.1,0,0.2,0,0.3v0.2l0,0c-0.1,2.2-1.4,3.9-2.8,3.9h-0.3v3.2h-0.4l7.2,10.5h-4.1l-6.4-10.5H94.5
				l-6.4,10.5H84l7.2-10.5h0v-3.2h-0.3c-1.5,0-2.7-1.7-2.8-3.9h0V40C88,38.8,88.9,37.9,90.1,37.9L90.1,37.9z M92.9,63.8
				c-1.6,0-2.9,1.3-2.9,2.9c0,1.6,1.3,2.9,2.9,2.9s2.9-1.3,2.9-2.9S94.5,63.8,92.9,63.8L92.9,63.8z M108.2,63.8
				c-1.6,0-2.9,1.3-2.9,2.9c0,1.6,1.3,2.9,2.9,2.9s2.9-1.3,2.9-2.9C111,65.1,109.8,63.8,108.2,63.8L108.2,63.8z M96.9,39.3
				c-1,0-1.7,0.8-1.7,1.7l0,0c0,1,0.8,1.7,1.7,1.7h7.3c1,0,1.7-0.8,1.7-1.7l0,0c0-1-0.8-1.7-1.7-1.7H96.9L96.9,39.3z M91.1,44.2
				v11.3H110V44.2L91.1,44.2L91.1,44.2z"/>
		</g>
		<path fill="#29ABE2" stroke="#29ABE2" stroke-width="0.216" stroke-miterlimit="22.9256" d="M68.5,85.5V39.2
			c16.8-26,48.4-24.6,64,0v46.5l-9.6-7.1V42.8c-10-18-34.8-17.1-45.1,0v35.5L68.5,85.5z"/>
	</g>
	<g>
		<path fill="#FFFFFF" stroke="#FFFFFF" stroke-width="0.216" stroke-miterlimit="22.9256" d="M238.7,43.5c1.3,0,3,0,5.1,0.2v-3.1
			c-2.1,0.1-3.8,0.2-5.1,0.2h-3.8c1.4-2.5,2.5-3.9,3.1-4.5c-1.3-0.5-2.6-1-3.9-1.8c-0.5,1.8-1.4,4-2.9,6.7c-1.4,2.7-2.9,4.8-4.3,6.2
			c0.9,0.7,1.7,1.6,2.3,2.6c0.4-0.7,0.9-1.3,1.4-1.9c1-1.6,2-3.1,2.8-4.5L238.7,43.5L238.7,43.5z"/>
		<path fill="#FFFFFF" stroke="#FFFFFF" stroke-width="0.216" stroke-miterlimit="22.9256" d="M204.5,68.6c-0.2,0.7-1,1-2.3,1h-9.4
			c-2.2,0-3.3-1.2-3.3-3.5V52c1.6-0.6,3.4-1.2,5.4-1.7v10.3c0,1.3,0,3-0.2,5.1h3.3c-0.1-1.4-0.2-3.1-0.2-5.1V49.2
			c1.6-0.6,3.3-1.2,5.1-1.7v7.3c0,1.3-0.2,2.1-0.7,2.4c-0.5,0.3-1.6,0.6-3.5,0.8c0.7,1.3,1.2,2.5,1.6,3.7c1.7-0.6,3.2-1.2,4.4-1.7
			c1.2-0.6,1.7-2.1,1.7-4.4V49c0-2.6,0-4.7,0.2-6.3c-4.2,1.6-7.1,2.7-8.7,3.3v-5.7c0-2.6,0-4.5,0.2-5.9h-3.3c0.1,2,0.2,3.9,0.2,5.7
			v7.2c-2.6,0.8-4.4,1.4-5.4,1.7v-3.3c0-2.1,0-3.8,0.2-5.1h-3.3c0.1,1.5,0.2,3.3,0.2,5.2V50c-1.7,0.4-3.3,0.9-4.7,1.2
			c0.4,0.7,0.8,1.7,1.2,3.1c1-0.4,2.2-0.9,3.5-1.4v15.5c0,2.6,1.6,3.9,4.7,3.9h12.7c1.4,0,2.4-0.5,3.1-1.4s1.3-2.5,2-4.7
			c-1.3-0.1-2.6-0.7-3.9-1.7C204.9,66.5,204.7,67.9,204.5,68.6z"/>
		<path fill="#FFFFFF" stroke="#FFFFFF" stroke-width="0.216" stroke-miterlimit="22.9256" d="M177.6,49.6c2.6,0,4.5,0,5.7,0.2v-3.1
			c-1.3,0.1-3.2,0.2-5.7,0.2v-5.6c0-2.3,0-4.3,0.2-5.7h-3.3c0.1,2,0.2,3.9,0.2,5.7v5.6c-2.3,0-4.2,0-5.6-0.2v3.1
			c1.4-0.1,3.3-0.2,5.6-0.2v14.8c-2.1,0.6-4.1,1-6.1,1.4c0.7,1.4,1.3,2.8,1.8,4.2c1.6-0.9,3.7-1.8,6.2-2.7c2.5-0.9,4.9-1.6,7.1-2.2
			c0-1.2,0-2.3,0.2-3.5c-2.3,0.8-4.4,1.4-6.1,1.9L177.6,49.6L177.6,49.6z"/>
		<path fill="#FFFFFF" stroke="#FFFFFF" stroke-width="0.216" stroke-miterlimit="22.9256" d="M298.7,41.2c-1-2.9-2.1-5.1-3-6.6
			c-1,0.6-2.1,1-3.1,1.4c1.2,2.3,2,4.5,2.5,6.6C296.4,42.1,297.6,41.6,298.7,41.2z"/>
		<path fill="#FFFFFF" stroke="#FFFFFF" stroke-width="0.216" stroke-miterlimit="22.9256" d="M242,62.5c-1.6,1.6-3.4,3.2-5.4,4.7
			v-8.4c1.7,0,3.7,0,5.7,0.2v-3.1c-2.1,0.1-4,0.2-5.7,0.2v-5.2c1.7,0,3.5,0,5.2,0.2v-3c-1.7,0.1-3.6,0.2-5.6,0.2s-3.8,0-5.6-0.2v3
			c1.2-0.1,2.1-0.2,2.8-0.2V56c-1.4,0-3,0-4.7-0.2V59c1.8-0.1,3.3-0.2,4.7-0.2v8.6c-0.1,1-0.5,2-1.2,2.8c0.8,0.7,1.6,1.7,2.5,3
			c1.3-1.4,2.8-2.8,4.5-4.2c1.7-1.4,3.3-2.5,4.5-3.1C243.1,64.7,242.5,63.6,242,62.5z"/>
		<path fill="#FFFFFF" stroke="#FFFFFF" stroke-width="0.216" stroke-miterlimit="22.9256" d="M293.9,43.5c-1.8,0-4,0-6.8-0.2v3
			c2.8-0.1,5.1-0.2,6.8-0.2h3.1c1.6,0,3.9,0,7,0.2v-3c-3,0.1-5.3,0.2-7,0.2H293.9z"/>
		<path fill="#FFFFFF" stroke="#FFFFFF" stroke-width="0.216" stroke-miterlimit="22.9256" d="M257.5,56.6h4.2c1.8,0,3.6,0,5.2,0.2
			v-3.1c-1.6,0.1-3.4,0.2-5.2,0.2h-4.9v-8.6c3.9,0,6.8,0,8.4,0.2v-3.1c-1.6,0.1-4.4,0.2-8.4,0.2c0-1.7,0-3.3,0.1-4.7
			c0-1.4,0.3-2.6,0.6-3.7c-1.5-0.1-2.9-0.2-4-0.4c0.1,1.6,0.2,4.5,0.2,8.7H250c0.6-2,1.2-3.4,1.7-4.2c-1.3-0.4-2.5-0.8-3.7-1.2
			c-0.1,1.7-0.5,3.8-1.2,6.1c-0.7,2.3-1.6,4.6-2.8,6.8c1.2,0.2,2.2,0.6,3,1.2c0.8-2,1.6-3.9,2.3-5.9h4.4v8.6c-4.4,0-7.4,0-9.1-0.2
			v3.1c1.8-0.1,4.7-0.2,8.7-0.2c-1.2,3.8-2.7,6.9-4.7,9.1s-4.5,4.1-7.7,5.7c1.3,0.8,2.2,1.7,2.8,2.8c3.1-2,5.6-4.1,7.5-6.2
			c1.8-2.2,3.4-4.9,4.5-8.1c0.7,2.5,1.8,4.7,3.2,6.9c1.4,2.2,3.7,4.1,6.7,6c0.4-1,1.2-2.2,2.6-3.3c-2.3-0.8-4.4-2.1-6.2-3.9
			C260.3,63.7,258.8,60.7,257.5,56.6z"/>
		<path fill="#FFFFFF" stroke="#FFFFFF" stroke-width="0.216" stroke-miterlimit="22.9256" d="M295.1,60.7c-0.5-1.7-1-3.6-1.5-5.7
			c-0.5-2.1-1.1-3.9-1.6-5.5c-1.2,0.1-2.3,0.4-3.3,0.7c0.7,2.5,1.3,4.6,1.7,6.4c0.4,1.8,0.9,3.4,1.2,4.8
			C292.6,61.1,293.8,60.9,295.1,60.7z"/>
		<path fill="#FFFFFF" stroke="#FFFFFF" stroke-width="0.216" stroke-miterlimit="22.9256" d="M320.7,45.9c1.7,0,3.7,0,5.7,0.2v-3.1
			c-2.1,0.1-4,0.2-5.7,0.2H316v-4.4c0-0.7,0-2.2,0.2-4.4h-3.9c0.2,2.1,0.4,3.7,0.4,4.7v15h-6.1c0,2,0,3.7,0.2,5.2V68
			c-0.1,1.6-0.2,3.5-0.4,5.6h3.7v-3.9h10.8v3.5h3.5c-0.1-2.1-0.2-4.2-0.2-6.3v-8c0-1.5,0-3.1,0.2-4.9H316v-8.1H320.7z M320.9,56.9
			V67h-10.8V56.9H320.9z"/>
		<path fill="#FFFFFF" stroke="#FFFFFF" stroke-width="0.216" stroke-miterlimit="22.9256" d="M299.3,63.7c0.5-2.3,1-4.7,1.6-7.2
			s1.3-4.6,2.3-6.5c-1.6-0.2-3.1-0.6-4.4-1.2c-0.5,3.6-0.8,6.1-1,7.4c-0.2,1.3-0.4,2.6-0.7,3.8s-0.7,2.6-1.1,4.1
			c-1.4,0.4-2.8,0.6-4.1,0.8c-1.3,0.2-2.8,0.4-4.5,0.6c0.7,1.5,1.2,3,1.4,4.4c2.2-0.9,4.4-1.7,6.5-2.4c2.1-0.6,3.8-1.1,5.1-1.5
			c1.3-0.4,2.5-0.6,3.4-0.7c-0.2-1-0.4-2-0.4-2.8C302.8,62.8,301.4,63.1,299.3,63.7z"/>
	</g>
</g>
</svg>
