<?xml version="1.0" encoding="utf-8"?>
<!-- Generator: Adobe Illustrator 18.1.1, SVG Export Plug-In . SVG Version: 6.00 Build 0)  -->
<svg version="1.1" id="图层_1" xmlns="http://www.w3.org/2000/svg" xmlns:xlink="http://www.w3.org/1999/xlink" x="0px" y="0px"
	 width="361.8" height="100" enable-background="new 0 0 361.8 100" xml:space="preserve">
<g>
	<polygon fill="#29ABE2" points="31,0 362.3,0 362.3,99.6 31,99.6 0,49.8 	"/>
	<path fill="#FFFFFF" stroke="#FFFFFF" stroke-width="0.216" stroke-miterlimit="22.9256" d="M34.8,4.5h323v90.6h-323L4.5,49.8
		L34.8,4.5L34.8,4.5z M32.9,2.3L2.3,49.8l30.6,47.5H360V2.3H32.9z"/>
	<g>
		<polygon fill="#FFFFFF" points="60.1,90.5 33.7,49.8 60.1,9 36.9,9 9.1,49.8 36.9,90.5 		"/>
		<rect x="61.2" y="9" fill="#FFFFFF" width="78.7" height="81.5"/>
	</g>
	<path fill="#29ABE2" d="M80.9,75.6l15.3-26.1l-2.7-3.9c-0.7-1.1-3.9-1-5.8-2.4c-4.1-3-6.2-6.4-7.3-11.8c-0.7-3.4-1.7-8.6,1.6-10.8
		c5.8-3.9,12.4,5.4,14.6,10.8c1,2.4,1.3,4.5,1.4,7c0,1.3-0.8,3.9-0.4,4.5l1.4,2.1l1.8-2.8c0.3-0.5-3.3-4.4-0.3-8.2l10.3-13.3
		c0.3-0.3,1.9-0.3,1.7-0.1l-6.4,11.2c-0.1,0.2,0,0.7,0.2,0.9c0.2,0.1,0.6,0.1,0.8-0.1l7.2-10c0.2-0.2,0.5-0.2,0.7-0.1
		c0.1,0.1,0.2,0.5,0.1,0.7l-5.6,10.4c-0.2,0.4,0,0.9,0.2,1.1c0.4,0.2,0.9,0,1.1-0.4c2-3.3,4.5-6.7,6.6-10c0.1-0.2,0.4-0.5,0.6-0.4
		c0.2,0.2,0.3,0.9,0.1,1.2l-6.9,15.1c-2.4,5.3-6.1,3.2-6.7,4.3l-2.9,5L117,75.5c2.1,3.6-2.6,5.7-4.3,2.8L98.9,54.1L85.7,78.4
		C83.9,81.6,78.9,78.9,80.9,75.6z"/>
	<g>
		<path fill="#FFFFFF" stroke="#FFFFFF" stroke-width="0.216" stroke-miterlimit="22.9256" d="M292.3,50c1.1-2.2,1.8-4.1,2.3-5.5
			c0.4-1.5,0.9-2.6,1.4-3.6h10.8c-0.2,0.8-0.4,1.6-0.7,2.4c-0.2,0.8-0.5,1.8-0.9,3c1.3,0.2,2.6,0.4,3.9,0.5c0.4-2,0.8-3.7,1.2-5.3
			c0.5-1.5,0.9-2.8,1.2-3.6h-14.8c0.4-1.5,0.9-2.8,1.1-3.8c0.3-1,0.8-2,1.5-3c-1.6-0.2-3.2-0.6-4.5-1.1c-0.2,1.4-0.5,2.8-0.8,4.3
			c-0.3,1.5-0.6,2.9-1.1,4.4c-0.4,1.5-1,3-1.7,4.6c-0.7,1.6-1.5,3.4-2.4,5.2C290,49,291.2,49.4,292.3,50z"/>
		<path fill="#FFFFFF" stroke="#FFFFFF" stroke-width="0.216" stroke-miterlimit="22.9256" d="M190,43.4c1.6-1.6,3-3.2,4.2-4.5h8.8
			c-1.1,1.2-2.1,2.1-3.2,3c-1.4-0.7-2.6-1.3-3.6-1.9c-0.7,0.7-1.3,1.3-1.7,1.9c0.9,0.6,1.8,1.2,2.6,1.7c-1.2,0.6-2.3,1.1-3.5,1.5
			c-1.2,0.4-2.4,0.7-3.9,1c0.8,0.8,1.6,1.7,2.4,2.8c2.4-1.1,4.4-2,6.1-3c1.7-0.9,3.4-2.1,5-3.5c1.6-1.4,3.1-3.2,4.6-5.6h-7.3V34h3
			c1.3,0,2.8,0,4.5,0.2v-2.6c-1.9,0.1-3.4,0.2-4.5,0.2h-3c0-0.8,0-1.6,0.2-2.5h-3.3c0.1,1.4,0.2,2.6,0.2,3.7v3.9h-2.1
			c-0.9-0.7-1.7-1.3-2.3-1.9c-0.6,1.2-1.3,2.4-2.3,3.6s-1.9,2.2-3,2.9C188.5,41.7,189.2,42.4,190,43.4z"/>
		<path fill="#FFFFFF" stroke="#FFFFFF" stroke-width="0.216" stroke-miterlimit="22.9256" d="M221.8,33.9c-0.7,1.6-1.7,3.3-3.2,4.9
			c-1.9-1.1-3.6-2-5.1-2.8c-0.6,0.8-1.2,1.5-1.7,2.1c2.1,0.9,3.7,1.8,4.9,2.6c-1.4,1.2-3.1,2.1-5.1,2.8c1.1,0.7,1.9,1.5,2.4,2.4
			c1.7-1.1,3.4-2.2,4.9-3.5c1.9,1.2,3.6,2.6,5.4,4.2c0.8-1.1,1.6-1.9,2.3-2.6c-1.9-1.3-3.8-2.5-5.8-3.7c1.2-1.5,2.1-3,2.9-4.4
			c0.8-1.4,1.4-2.8,2-4.4h-10.7c-1.4,0-2.9,0-4.5-0.2v2.6c1.6-0.1,3.1-0.2,4.5-0.2L221.8,33.9L221.8,33.9z"/>
		<path fill="#FFFFFF" stroke="#FFFFFF" stroke-width="0.216" stroke-miterlimit="22.9256" d="M309.1,63.9c-1.4-0.9-2.6-1.9-3.8-3.2
			c-1.1-1.2-2.1-2.8-3-4.7c-0.9-1.9-1.3-3.4-1.4-4.5c0-1.1,0-2.1,0-3c0-1,0.2-1.9,0.6-2.7c-1.6-0.1-3.2-0.3-4.5-0.5
			c0.1,2.7,0,5-0.4,7c-0.4,2-0.9,3.9-1.7,5.6c-0.8,1.7-2,3.4-3.5,5.1c-1.5,1.6-3.6,3-6.1,4.2c1.3,0.9,2.4,1.9,3.3,3
			c1.5-1.3,2.8-2.5,4-3.6s2.1-2.2,2.9-3.3c0.8-1.1,1.4-2.3,2-3.5s1.2-2.6,1.7-4.1c0.4,1.7,1.4,3.9,2.9,6.3c1.5,2.4,3.9,4.9,7.4,7.3
			c0.4-0.7,0.8-1.3,1.3-1.8c0.5-0.5,1.1-1.1,1.8-1.7C311.7,65.4,310.5,64.8,309.1,63.9z"/>
		<path fill="#FFFFFF" stroke="#FFFFFF" stroke-width="0.216" stroke-miterlimit="22.9256" d="M287.1,57.1c-0.9,0.9-1.9,1.8-3,2.7
			c-1.1,0.9-2,1.7-3,2.6V51.6c0-2.3,0.1-4.2,0.4-5.6h-4c0.1,1.5,0.2,3.3,0.2,5.4v10.3c0,1.5-0.4,2.8-1.1,4c0.8,0.8,1.6,1.8,2.4,3
			c1.4-1.6,3-3.2,4.9-4.7c1.9-1.5,3.3-2.7,4.4-3.5C287.8,59.2,287.3,58.1,287.1,57.1z"/>
		<path fill="#FFFFFF" stroke="#FFFFFF" stroke-width="0.216" stroke-miterlimit="22.9256" d="M285.5,40.9c-0.2,0.6-0.5,1.3-0.9,2.2
			c-0.4,0.9-0.7,1.7-1.1,2.6c0.9,0.2,2,0.6,3.2,1.1c0.6-1.9,1.1-3.4,1.7-4.7c0.5-1.3,1.1-2.6,1.7-4h-11.3c0.7-1.7,1.2-3.1,1.6-4.1
			c0.4-1,0.9-2,1.6-3.1c-1.7-0.4-3.2-0.9-4.2-1.2c-0.4,1.4-0.7,2.8-1.1,4.1c-0.4,1.3-0.9,2.6-1.3,3.9c-0.4,1.2-1,2.4-1.5,3.6
			c-0.5,1.2-1.1,2.4-1.8,3.6c0.8,0.7,1.6,1.5,2.4,2.4c0.8-1.4,1.5-2.6,1.9-3.6c0.4-1,0.9-1.9,1.4-2.7L285.5,40.9L285.5,40.9z"/>
		<path fill="#FFFFFF" stroke="#FFFFFF" stroke-width="0.216" stroke-miterlimit="22.9256" d="M221.4,49.7c-2.1-0.5-4.3-1.4-6.6-2.6
			s-4-2.4-5.4-3.9l0.7-0.9c-1.3-0.4-2.4-0.8-3.5-1.4c-1.1,1.5-2.2,2.8-3.5,3.9c-1.3,1.1-2.8,2.1-4.4,3c-1.6,1-3.3,1.9-5.1,2.6
			c-1.7,0.8-3.4,1.3-5.1,1.7c1.1,0.9,1.9,1.9,2.5,3c2-0.8,4.1-1.9,6.4-3.2v11.6c-0.1,1.7-0.8,3-1.9,3.6c0.8,0.9,1.5,1.9,2.1,2.8
			c0.9-0.7,2-1.3,3.2-1.9s2.6-1.1,4.1-1.4c-0.1-0.9-0.1-1.9,0-2.8c-1.7,0.5-3.3,0.9-4.5,1.2V62h17.3c-1.1,0.9-2.1,1.7-3.2,2.4
			c-1.1-0.4-3-1-5.8-1.9c-0.6,0.7-1.2,1.5-1.9,2.3c3,1.1,5.6,1.9,7.7,2.7s4.3,1.7,6.4,2.7c0.8-1.2,1.6-2.1,2.4-2.8
			c-1.4-0.6-3.3-1.3-5.6-2.1c1.4-0.9,2.6-1.6,3.6-1.9c-1.1-0.7-1.9-1.4-2.4-2.1c-0.1-1.6-0.2-3.2-0.2-4.7c0-1.5,0-3,0-4.4
			c0.9,0.4,2,0.7,3.2,1.1c1.2,0.4,2.4,0.6,3.6,0.9c0.4-1.5,1.1-2.8,1.9-3.9C225.6,50.5,223.5,50.3,221.4,49.7z M216,59.9h-15.6v-2.3
			H216V59.9z M216,55.6h-15.6v-2.3H216V55.6z M209.9,51.2c-0.2-0.8-0.6-1.9-1.1-3.3c-0.9,0.4-1.9,0.6-3,0.9c0.4,0.7,0.7,1.5,1.1,2.5
			h-8.2c3.5-2.1,6.4-4.3,8.8-6.5c1.1,1.2,2.4,2.4,4.2,3.6c1.7,1.2,3.4,2.2,5.1,2.9L209.9,51.2L209.9,51.2z"/>
	</g>
</g>
</svg>
