<?xml version="1.0" encoding="utf-8"?>
<!-- Generator: Adobe Illustrator 18.1.1, SVG Export Plug-In . SVG Version: 6.00 Build 0)  -->
<svg version="1.1" id="图层_1" xmlns="http://www.w3.org/2000/svg" xmlns:xlink="http://www.w3.org/1999/xlink" x="0px" y="0px"
	 width="361.8" height="100" enable-background="new 0 0 361.8 100" xml:space="preserve">
<g>
	<polygon fill="#29ABE2" points="30.9,0 360.5,0 360.5,99.2 30.9,99.2 0,49.6 	"/>
	<path fill="#FFFFFF" stroke="#FFFFFF" stroke-width="0.216" stroke-miterlimit="22.9256" d="M34.6,4.5H356v90.1H34.6L4.5,49.6
		L34.6,4.5L34.6,4.5z M32.7,2.3L2.3,49.6l30.5,47.3h325.5V2.3H32.7z"/>
	<g>
		<polygon fill="#FFFFFF" points="59.8,90.1 33.5,49.6 59.8,9 36.7,9 9,49.6 36.7,90.1 		"/>
		<rect x="60.9" y="9" fill="#FFFFFF" width="78.4" height="81.1"/>
	</g>
	<path fill="#29ABE2" d="M95,78l0.4-32.4c0-0.5,0.1-1-0.1-1.8c-0.2-0.7-0.9-1.2-1.3-1.8c-1.3-1.8-2.4-3.7-3.6-5.6
		c-0.6,0,0.1-0.1-0.5-0.1c-0.2-0.1-0.4,0-0.5-0.4c0-0.2-0.1-0.4,0-0.6c0.2-0.2,0-0.3,0.2-0.5L89.3,34l1.6-0.9c0-0.4-0.2-0.8-0.2-1.2
		c0-0.2,0-0.6,0-0.9c0-0.4,0-1.4,0.1-1.7c0.1-0.6,0.2-1.2,0.4-1.8c0-0.2,0.8-1.7,1-2c0.3-0.5,0.4-0.8,0.9-1.2l0.8-0.6l1.6,5.8
		l1.9,1.4l2.3-0.7l1.2-2.1l-1.8-5.5c1.2,0.2,1.1,0.2,1.9,0.6c0.9,0.4,1.4,0.7,2,1.2c0.4,0.4,1.2,1,1.7,1.4c2.1,1.9,3.9,3.7,2.8,6.9
		c-0.5,1-0.1,2-2.9,5.2c-1.5,1.8-1.6,1.4-2.7,3c-0.1,0.2-0.4,1.2-0.4,1.5l1.2,36.1c0,0.4-0.3,0.9-0.4,1.3c-0.1,0.4-0.2,0.8-0.4,1.1
		c-0.2,0.4-0.6,0.7-0.8,1c-0.2,0.2-0.5,0.5-0.8,0.6c-0.4,0.2-0.9,0.4-1.3,0.4c-0.5,0-1-0.2-1.4-0.4c-0.4-0.2-0.9-0.5-1.2-0.8
		c-0.3-0.3-0.6-0.8-0.7-1.2c-0.2-0.4-0.2-0.9-0.3-1.3C95.3,78.8,95,78.3,95,78z"/>
	<g>
		<path fill="#FFFFFF" stroke="#FFFFFF" stroke-width="0.216" stroke-miterlimit="22.9256" d="M162.4,60.1c-1.5,2.3-2.8,3.9-4,4.8
			c1.3,0.6,2.5,1.3,3.4,2.3c0.9-1.6,2.1-3.7,3.6-6.4c1.5-2.7,2.6-4.4,3.3-5.2c-1-0.5-1.9-1.1-2.7-1.9
			C165,55.7,163.8,57.9,162.4,60.1z"/>
		<path fill="#FFFFFF" stroke="#FFFFFF" stroke-width="0.216" stroke-miterlimit="22.9256" d="M188,64.5c-0.6-0.6-1.1-1.8-1.3-3.7
			c-0.2-1.9-0.4-3.7-0.3-5.4c0-1.7,0.2-3.6,0.4-5.8h-12.2c-1.4,0-2.7,0-4-0.2v2.7c1.3-0.1,2.6-0.2,4-0.2h9.3
			c-0.2,4.2-0.1,7.5,0.4,9.9c0.4,2.4,1.2,4.1,2.5,5.1s2.2,1.2,3.1,0.7c0.8-0.5,1.9-2.1,3.2-4.9c-1.1-0.4-2.1-1-2.8-1.8
			C189.4,63.9,188.7,65.1,188,64.5z"/>
		<path fill="#FFFFFF" stroke="#FFFFFF" stroke-width="0.216" stroke-miterlimit="22.9256" d="M167.3,47.6c-2.1-1.3-4.2-2.4-6.4-3.4
			c-0.4,1-0.9,1.9-1.5,2.5c2.1,0.8,4.2,2,6.2,3.6C166.1,49.5,166.7,48.6,167.3,47.6z"/>
		<path fill="#FFFFFF" stroke="#FFFFFF" stroke-width="0.216" stroke-miterlimit="22.9256" d="M226.9,58.1v-5.7h5.2
			c1.7,0,3.4,0,5.2,0.2v-3.1c-1.8,0.2-3.5,0.3-5.2,0.3h-5.2c0-2.1,0-3.7,0.2-4.9h-3.3c0.1,1.5,0.2,3.1,0.2,4.9h-7.9
			c2.8-3.9,4.6-6.5,5.5-7.9H235c1.6,0,3.4,0,5.4,0.2v-3.1c-2,0.2-3.8,0.3-5.4,0.3h-11.9c0.7-1.4,1.7-2.9,3-4.6
			c-1.3-0.4-2.6-0.9-4-1.5c-0.5,1.8-1.3,3.8-2.5,6.1c-4.8,0-8.2-0.1-10.3-0.3v3.1c2.2-0.1,5.1-0.2,8.8-0.2c-1.1,1.9-2.3,3.6-3.6,5.2
			c-1.3,1.6-2.4,2.5-3.4,2.8c0.4,0.9,0.8,2.1,1.2,3.4c1.6-0.5,3.1-0.8,4.5-0.8c1.4,0,3.8-0.1,7.3-0.1v5.7h-10.1
			c-1.8,0-3.6,0-5.4-0.2V61c1.9-0.2,3.7-0.3,5.4-0.3H224c0,3,0,5.3-0.2,7h3.3c-0.1-1.6-0.2-3.9-0.2-7h8.2c1.7,0,3.5,0.1,5.4,0.3
			v-3.1c-1.9,0.1-3.7,0.2-5.4,0.2L226.9,58.1L226.9,58.1z"/>
		<path fill="#FFFFFF" stroke="#FFFFFF" stroke-width="0.216" stroke-miterlimit="22.9256" d="M166.5,41.9c0.6-0.8,1.3-1.5,2.1-2.3
			c-1.8-1.8-3.6-3.3-5.5-4.5c-0.6,0.8-1.2,1.5-1.9,2.1C163.2,38.7,165,40.3,166.5,41.9z"/>
		<path fill="#FFFFFF" stroke="#FFFFFF" stroke-width="0.216" stroke-miterlimit="22.9256" d="M171.5,46.7c1.3-2.2,2.4-4.2,3.3-6.1
			h9.8c2.3,0,4.2,0,5.8,0.2v-2.7c-1.6,0.1-3.5,0.2-5.7,0.2h-8.9c0.8-2.1,1.5-3.3,2.1-3.6c-1.3-0.4-2.5-0.8-3.6-1.2
			c-0.2,1-0.8,2.7-1.8,5.2c-1,2.5-2.3,4.8-4,6.8C169.6,45.8,170.6,46.2,171.5,46.7z"/>
		<path fill="#FFFFFF" stroke="#FFFFFF" stroke-width="0.216" stroke-miterlimit="22.9256" d="M178.7,44c-1.4,0-2.9,0-4.5-0.2v2.7
			c1.6-0.1,3.1-0.2,4.5-0.2h5.4c1.9,0,3.3,0,4.3,0.2v-2.7c-1,0.1-2.4,0.2-4.2,0.2L178.7,44L178.7,44z"/>
		<path fill="#FFFFFF" stroke="#FFFFFF" stroke-width="0.216" stroke-miterlimit="22.9256" d="M287.4,57.4c-1.7,1.5-4.2,2.9-7.4,4.3
			c-3.3,1.4-7.2,2.6-11.6,3.6c1.1,0.8,1.8,1.7,2.1,2.7c5.2-1.4,9.4-2.9,12.7-4.7c3.3-1.7,5.6-2.9,6.8-3.3
			C289.3,59.5,288.4,58.7,287.4,57.4z"/>
		<path fill="#FFFFFF" stroke="#FFFFFF" stroke-width="0.216" stroke-miterlimit="22.9256" d="M316.6,57.6c-1.2,0.6-2.7,1.2-4.5,1.8
			v-8.9c1.3,0,2.6,0,3.9,0.2v-2.7c-1.3,0.1-2.6,0.2-3.9,0.2v-7.6h1.2c1,0,2.1,0,3.4,0.2v-2.7c-1.2,0.1-2.3,0.2-3.4,0.2h-5.5
			c-0.9,0-2,0-3.3-0.2v2.7c1.3-0.1,2.4-0.2,3.3-0.2h1.7v7.6c-1.6,0-3.1,0-4.5-0.2v2.7c1.3-0.1,2.8-0.2,4.5-0.2v9.7
			c-2,0.8-3.6,1.3-4.9,1.5c0.5,1.1,0.9,2.1,1.3,3c1.3-0.7,3.1-1.5,5.3-2.4c2.2-0.9,4.3-1.7,6-2.2C317,59.3,316.8,58.5,316.6,57.6z"
			/>
		<path fill="#FFFFFF" stroke="#FFFFFF" stroke-width="0.216" stroke-miterlimit="22.9256" d="M284.9,41.3c0.8-1.3,1.5-2.7,2.3-4.1
			h-10.4c0.4-1,1-1.9,1.8-2.8c-1.3-0.4-2.4-0.8-3.4-1.3c-0.2,1.3-0.9,3.1-2.1,5.4c-1.2,2.3-2.5,4.3-4,5.9c0.9,0.4,1.7,0.9,2.4,1.5
			c1.2-1.6,2.3-3.1,3.1-4.6c1.1,1.6,2.3,2.9,3.4,3.9c-3.5,2-6.7,3.2-9.7,3.7c1,0.9,1.7,1.8,2.1,2.7c2.8-0.8,6-2.4,9.7-4.8
			c2.6,2,5.6,3.3,8.9,3.9c0.3-1.3,0.8-2.3,1.7-3c-2.8,0.1-5.7-0.7-8.7-2.5C283.1,43.9,284.1,42.6,284.9,41.3z M276.1,39.4h6.8
			c-0.9,1.5-1.9,2.9-3,4.2C278.7,42.8,277.5,41.4,276.1,39.4z"/>
		<path fill="#FFFFFF" stroke="#FFFFFF" stroke-width="0.216" stroke-miterlimit="22.9256" d="M334.1,64.3h-5.2v-4.9h4.3
			c1.6,0,2.9,0,4,0.2v-2.4c-1,0.1-2.3,0.2-4,0.2h-4.3v-4.5h7.9c-0.1-1.7-0.2-4.6-0.2-8.7c0-4.1,0-6.7,0.2-7.9h-18.3
			c0.1,1.1,0.2,3.8,0.2,8.1c0,4.3,0,7.1-0.2,8.4h7.8v4.5h-4.8c-1.2,0-2.3,0-3.3-0.2v2.4c1-0.1,2.1-0.2,3.3-0.2h4.8v4.9h-6
			c-1.4,0-2.7,0-4-0.2v2.4c1.2-0.1,2.5-0.2,4-0.2h14c1.7,0,3.2,0,4.5,0.2v-2.4C337.4,64.3,335.8,64.3,334.1,64.3z M328.8,38.4h5.1
			v5.2h-5.1V38.4z M328.8,45.5h5.1v5.2h-5.1V45.5z M326.2,50.8h-4.9v-5.2h4.9V50.8z M326.2,43.6h-4.9v-5.2h4.9V43.6z"/>
		<path fill="#FFFFFF" stroke="#FFFFFF" stroke-width="0.216" stroke-miterlimit="22.9256" d="M282.5,51.2c-0.7-0.5-1.5-1.2-2.4-2.3
			c-1.3,1.6-4.3,3.3-8.9,5.1c0.9,0.8,1.6,1.5,2.1,2.3C277.7,53.8,280.8,52.1,282.5,51.2z"/>
		<path fill="#FFFFFF" stroke="#FFFFFF" stroke-width="0.216" stroke-miterlimit="22.9256" d="M262.8,41.7c1.4-4.1,2.5-6.4,3.1-6.8
			c-1.6-0.5-2.7-1-3.4-1.3c-0.6,2.7-1.7,5.6-3.3,8.9c-1.6,3.2-2.8,5.3-3.7,6.2c1.1,0.9,1.9,1.6,2.2,2.1c1.2-2,2.1-3.6,2.5-4.8V61
			c0,2.3,0,4.4-0.2,6.2h2.8c-0.1-1.4-0.2-3.6-0.2-6.7L262.8,41.7L262.8,41.7z"/>
		<path fill="#FFFFFF" stroke="#FFFFFF" stroke-width="0.216" stroke-miterlimit="22.9256" d="M267.9,40.9h-2.8
			c0.1,1.2,0.2,2.5,0.2,3.7V57c0,1.2,0,2.3-0.2,3.4h2.7c-0.1-1-0.2-2.1-0.2-3.4V44.6C267.6,43.2,267.7,42,267.9,40.9z"/>
		<path fill="#FFFFFF" stroke="#FFFFFF" stroke-width="0.216" stroke-miterlimit="22.9256" d="M273.2,62.5c1.3-0.7,3.1-1.7,5.4-3
			s4.8-2.7,7.4-4.3c-0.6-0.4-1.5-1.1-2.7-2.3c-1.9,1.8-4.1,3.3-6.5,4.5s-4.5,2.1-6.2,2.5C271.4,60.4,272.3,61.2,273.2,62.5z"/>
	</g>
</g>
</svg>
