<?xml version="1.0" encoding="utf-8"?>
<!-- Generator: Adobe Illustrator 18.1.1, SVG Export Plug-In . SVG Version: 6.00 Build 0)  -->
<svg version="1.1" id="图层_1" xmlns="http://www.w3.org/2000/svg" xmlns:xlink="http://www.w3.org/1999/xlink" x="0px" y="0px"
	 width="299.7" height="100" enable-background="new 0 0 299.7 100" xml:space="preserve">
<g>
	<rect y="0.1" fill="#29ABE2" width="299.7" height="99.9"/>
	<rect x="24" y="15.1" fill="#FFFFFF" width="69.9" height="69.9"/>
	<path fill="#FFFFFF" d="M16,4.1h267.7c6.6,0,12,5.4,12,12V84c0,6.6-5.4,12-12,12H16C9.4,96,4,90.6,4,84l0,0V16.1
		C4,9.5,9.4,4.1,16,4.1L16,4.1z M16,8.1c-3.8,0-8,4.1-8,8V84l0,0c0,3.9,3.7,7.8,8,8h267.7c4.1,0,7.9-3.8,8-8V16.1c0-4.2-3.8-7.9-8-8
		L16,8.1L16,8.1z"/>
	<path fill="#29ABE2" stroke="#29ABE2" stroke-width="0.216" stroke-miterlimit="22.9256" d="M53.4,45.2l6.5,5.7
		c1.8,2.3,0.3,3.8-2.2,4.6l-14.8,4.7c-2.4,0.6-2.7,1.6-0.6,3.1L58.5,78H46.2L34.5,63.6c-2.5-2.7-1.2-4.9,2-5.9l18.7-5.2
		c0.9-0.2,1-0.8,0.5-1.4l-6.9-7.3L53.4,45.2L53.4,45.2z M70,50.7l1.3-3.9l1.7,0.6l0.4-1.1L46.3,36.2l-0.4,1.4l1.7,0.6l-1.5,4
		l3.9,1.2l1.5-3.9l16,6.2l-1.4,3.8L70,50.7L70,50.7z M66.6,50.7l4.2,4.7c2,2.1-0.2,2.2-1.2,2.4l-6.7,1.1c-2.9,0.5-3.5,2-1.8,4.2
		l11.6,15.1h12.9L68.1,63.5c-1.5-1.1-1.4-1.8,0.7-2.1l4.2-1.3c2.7-0.6,4.2-2.3,2.5-3.7l-3.5-3.3L66.6,50.7L66.6,50.7z M46.7,35.5
		l26.9,10.1l4.4-5.1l-1.8-3.1l0.4-5c0.1-1.4-0.9-3.3-3.1-4.1L58,22.7c-1.7-0.4-4,0-5.2,1.4l-3,4.1l-2.9,1.2L46.7,35.5L46.7,35.5z
		 M56.7,26.1l15.7,5.9L72.3,36l-18.1-6.7L56.7,26.1z"/>
	<g>
		<path fill="#FFFFFF" stroke="#FFFFFF" stroke-width="0.216" stroke-miterlimit="22.9256" d="M208.6,45c0.1,1.3,0.2,2.6,0.2,3.9
			c0,1.2-0.1,2.6-0.2,3.9h24.4c-0.1-1.2-0.2-2.5-0.2-3.8c0-1.3,0.1-2.7,0.2-4L208.6,45L208.6,45z M216.2,50.8h-4.6V47h4.6V50.8z
			 M222.7,50.8h-4V47h4V50.8z M230.1,50.8h-4.9V47h4.9V50.8z"/>
		<path fill="#FFFFFF" stroke="#FFFFFF" stroke-width="0.216" stroke-miterlimit="22.9256" d="M207.1,37.1c-0.8,0.4-1.5,0.9-2.3,1.3
			c1.1,2.5,1.8,4.4,2.2,5.6c0.9-0.5,1.8-0.9,2.7-1.1C209.1,41.8,208.2,39.8,207.1,37.1z"/>
		<path fill="#FFFFFF" stroke="#FFFFFF" stroke-width="0.216" stroke-miterlimit="22.9256" d="M230.1,42.7c-0.1-1.9-0.2-3.5-0.2-4.8
			c0-1.3,0.1-3.2,0.2-5.8h-18.4c0.1,1.9,0.2,3.6,0.2,5.2c0,1.6,0,3.4-0.2,5.4L230.1,42.7L230.1,42.7z M214.7,34.1h12.4v2.5h-12.4
			V34.1z M214.7,38.6h12.4v2.2h-12.4V38.6z"/>
		<path fill="#FFFFFF" stroke="#FFFFFF" stroke-width="0.216" stroke-miterlimit="22.9256" d="M229.9,55.4h-13.4
			c-1.9,0-3.8,0-5.8-0.2v2.3c1-0.1,2-0.1,3-0.1c0,0,0,0,0,0h2.6l0,0c0.1,0,0.2,0,0.3,0h8.9c-1.6,2-3.3,3.5-4.9,4.4
			c-1.1-0.6-2.5-2.2-4.3-4.4c-0.9,0-1.8,0-2.6,0c1,2,2.5,3.8,4.4,5.6c-4.6,1.6-8.2,2.4-10.7,2.3c1.1,1,1.9,1.9,2.3,2.8
			c2.7-0.5,6.2-1.7,10.7-3.5c3,1.4,6.6,2.6,10.9,3.5c0.3-1,0.9-1.9,1.8-2.8c-4.5-0.4-7.9-1.1-10.2-2.2
			C225.4,61.5,227.7,58.9,229.9,55.4z"/>
		<path fill="#FFFFFF" stroke="#FFFFFF" stroke-width="0.216" stroke-miterlimit="22.9256" d="M246.4,35.8c1.4-2.2,2.5-3.4,3.4-3.5
			c-1.4-0.9-2.6-1.6-3.6-2.3c-0.7,1.4-1.7,3.2-3.1,5.2c-1.4,2-2.9,3.9-4.7,5.5c0.8,0.8,1.5,1.6,2.3,2.5
			C243.1,40.4,245,37.9,246.4,35.8z"/>
		<path fill="#FFFFFF" stroke="#FFFFFF" stroke-width="0.216" stroke-miterlimit="22.9256" d="M243.5,46.3c-1.4,2.2-3.3,4.4-5.7,6.7
			c0.7,0.8,1.4,1.7,2.2,2.8c1.5-1.6,2.8-3.2,3.6-4.8v10.2c0,1.6,0,4.1-0.2,7.3h3.5c-0.1-2.9-0.2-5-0.2-6.4V47.5
			c0.9-1.2,1.5-2.3,2.1-3.1c0.5-0.9,1.2-1.6,2.1-2.2c-1.4-0.8-2.7-1.5-3.8-2.2C246.1,42,244.9,44.1,243.5,46.3z"/>
		<path fill="#FFFFFF" stroke="#FFFFFF" stroke-width="0.216" stroke-miterlimit="22.9256" d="M267.1,36.1c2,0,3.9,0.1,5.8,0.2V33
			c-1.9,0.1-3.7,0.2-5.6,0.2h-6.1c-2.3,0-4.3-0.1-6.1-0.2v3.3c1.8-0.1,3.8-0.2,6.1-0.2H267.1z"/>
		<path fill="#FFFFFF" stroke="#FFFFFF" stroke-width="0.216" stroke-miterlimit="22.9256" d="M270.1,44.2h-11.6
			c-2,0-3.9-0.1-5.8-0.2v3.3c1.8-0.1,3.7-0.2,5.8-0.2h6.3v16c-0.1,1.1-0.5,1.7-1.2,1.7c-0.7,0.1-2,0-3.9-0.2c1,1.3,1.6,2.6,1.8,3.8
			c2.7-0.3,4.4-0.7,5.3-1.1c0.9-0.4,1.3-1.3,1.3-2.7V47.1h2.2c1.9,0,3.7,0.1,5.5,0.2V44C273.9,44.1,272.1,44.2,270.1,44.2z"/>
		<path fill="#FFFFFF" stroke="#FFFFFF" stroke-width="0.216" stroke-miterlimit="22.9256" d="M168,52.9v9.7c0,1.5-0.1,3.4-0.2,5.5
			h2.8v-6.8h11.9v2.3c0,1.4-1.3,1.9-3.8,1.5c0.5,1.1,0.9,2.1,1,3c1.9-0.2,3.3-0.5,4.2-0.8c0.9-0.3,1.4-1.2,1.4-2.7V53.1
			c0-1.9,0.1-3.5,0.2-4.9h-17.7C167.9,49.7,168,51.3,168,52.9z M170.6,50.4h12.1v3.3h-12.1V50.4z M170.6,56.1h12.1v3h-12.1V56.1z"/>
		<path fill="#FFFFFF" stroke="#FFFFFF" stroke-width="0.216" stroke-miterlimit="22.9256" d="M160.2,32.4c-1.1-0.8-2-1.4-2.7-1.9
			c-0.6,0.8-1.2,1.5-1.8,2.3c1,0.7,2,1.4,3,2.2c1,0.8,1.9,1.6,2.8,2.5c0.5-1,1.1-1.9,1.8-2.6C162.4,34,161.3,33.2,160.2,32.4z"/>
		<path fill="#FFFFFF" stroke="#FFFFFF" stroke-width="0.216" stroke-miterlimit="22.9256" d="M156.9,56.7c-0.5,2.1-1,3.7-1.5,4.9
			c-0.4,1.2-1,2.4-1.6,3.6c1.2,0.3,2.4,0.8,3.6,1.5c0.3-1.4,0.7-3.1,1.1-4.9c0.4-1.8,0.9-3.7,1.3-5.5c0.4-1.9,0.9-3.3,1.3-4.3
			c-1.2-0.3-2.2-0.7-3-1.1C157.9,52.7,157.4,54.6,156.9,56.7z"/>
		<path fill="#FFFFFF" stroke="#FFFFFF" stroke-width="0.216" stroke-miterlimit="22.9256" d="M185.8,42.9v-6.9
			c0-1.4,0.1-2.9,0.2-4.5h-18.7c0.1,1.8,0.2,3.3,0.2,4.6v6.8h-5.1c0.1,1,0.2,2.1,0.2,3.2c0,1.1-0.1,2.3-0.2,3.5h2.8v-4.5h22.9v4.6
			h2.8c-0.1-1.1-0.2-2.3-0.2-3.5c0-1.2,0.1-2.4,0.2-3.5L185.8,42.9L185.8,42.9z M176.6,42.9h-6.4v-3.3h6.4V42.9z M183.2,42.9h-4
			v-5.6h-9.1v-3.5h13L183.2,42.9L183.2,42.9z"/>
		<path fill="#FFFFFF" stroke="#FFFFFF" stroke-width="0.216" stroke-miterlimit="22.9256" d="M159.4,46.5c0.4-1.2,0.9-2.2,1.3-2.8
			c-1.2-0.5-2.3-1.1-3.4-1.5c-1-0.5-2.1-1-3.1-1.6c-0.4,0.9-0.9,1.8-1.5,2.6c1.3,0.5,2.5,1.1,3.5,1.6
			C157.2,45.3,158.3,45.8,159.4,46.5z"/>
		<path fill="#FFFFFF" stroke="#FFFFFF" stroke-width="0.216" stroke-miterlimit="22.9256" d="M121.1,53.9c1.3,0,2.7,0.1,4.1,0.2
			v-2.5c-1.4,0.1-2.8,0.2-4.1,0.2v-7.1h4.5c-0.1-1-0.2-2.8-0.2-5.5c0-2.7,0.1-4.4,0.2-5.5H113c0.1,0.9,0.2,2.7,0.2,5.5
			c0,2.8-0.1,4.6-0.2,5.5h5.3v16.5c-1,0.3-1.9,0.6-2.7,0.8v-8.8c0-1.8,0.1-3.1,0.2-4.1h-3.1c0.1,1.4,0.2,2.6,0.2,3.5v10.2
			c-0.7,0.2-1.4,0.4-2.3,0.5c0.4,1.2,0.8,2.4,1,3.5c1.1-0.6,2.3-1,3.5-1.5c1.2-0.4,4.8-1.7,10.9-3.8c0-0.9,0-1.8,0.2-2.7
			c-2.1,0.6-3.7,1.2-4.9,1.6V53.9z M115.9,42.5v-6.6h6.6v6.6H115.9z"/>
		<path fill="#FFFFFF" stroke="#FFFFFF" stroke-width="0.216" stroke-miterlimit="22.9256" d="M204.5,30.8h-3.1
			c0.1,1.8,0.2,3.7,0.2,6v24.4c0,2.3-0.1,4.6-0.2,6.8h3.1c-0.1-2.2-0.2-4.5-0.2-6.8V36.3C204.3,34.5,204.4,32.7,204.5,30.8z"/>
		<path fill="#FFFFFF" stroke="#FFFFFF" stroke-width="0.216" stroke-miterlimit="22.9256" d="M129.8,52.6c0.1,1.4,0.2,3.9,0.2,7.3
			c0,3.4,0,6.1-0.2,7.9h3v-3.5h9.1v3.3h3c-0.1-1.6-0.2-4.2-0.2-7.8s0.1-6,0.2-7.3L129.8,52.6L129.8,52.6z M141.9,62h-9.1v-7.1h9.1
			V62z"/>
		<path fill="#FFFFFF" stroke="#FFFFFF" stroke-width="0.216" stroke-miterlimit="22.9256" d="M138.8,45.5c1.6-1.6,3.1-3.4,4.2-5.4
			c1.1-1.9,2.1-3.8,2.9-5.7h-11.7c0.6-1.2,1.2-2.3,2-3.1c-1.2-0.2-2.5-0.6-3.8-1.3c-0.7,2.4-1.5,4.7-2.6,6.8c-1.1,2.1-2.4,4-3.8,5.6
			c1.1,0.4,2.1,1,3,1.6c0.8-1.3,1.7-2.9,2.8-4.8c0.4,1.1,0.9,2.2,1.5,3.2c0.5,1,1.1,2,1.8,2.9c-1.5,1.2-3,2.1-4.5,2.7
			c-1.4,0.6-3.1,1.2-5.1,1.7c1,0.9,1.8,1.9,2.5,3.1c2.3-1.3,4.1-2.4,5.3-3.1c1.2-0.8,2.5-1.6,3.8-2.5c1.9,1.5,3.7,2.7,5.6,3.3
			c1.9,0.6,3.6,1.1,5.3,1.5c0.2-1.1,0.7-2.3,1.5-3.5c-2.2,0-4.1-0.2-5.7-0.6C142,47.5,140.4,46.7,138.8,45.5z M136.7,43.7
			c-0.5-1-1.2-2-1.9-3.1c-0.7-1-1.3-2.4-1.9-4h8.2c-0.7,1.6-1.3,3-2.1,4C138.5,41.7,137.6,42.7,136.7,43.7z"/>
		<path fill="#FFFFFF" stroke="#FFFFFF" stroke-width="0.216" stroke-miterlimit="22.9256" d="M195.6,48.8c0.9,0,1.9,0,3,0
			c0-3.1,0.2-6.1,0.5-9.1c-1,0-1.9,0-2.8,0C196.1,43,195.9,46.1,195.6,48.8z"/>
	</g>
</g>
</svg>
