<?xml version="1.0" encoding="utf-8"?>
<!-- Generator: Adobe Illustrator 18.1.1, SVG Export Plug-In . SVG Version: 6.00 Build 0)  -->
<svg version="1.1" id="图层_1" xmlns="http://www.w3.org/2000/svg" xmlns:xlink="http://www.w3.org/1999/xlink" x="0px" y="0px"
	 width="299.7" height="100" enable-background="new 0 0 299.7 100" xml:space="preserve">
<g>
	<rect y="0.6" fill="#29ABE2" width="299.7" height="99.9"/>
	<path fill="#FFFFFF" d="M16,4.6h267.7c6.6,0,12,5.4,12,12v67.9c0,6.7-5.4,12-12,12H16c-6.6,0-12-5.4-12-12l0,0V16.6
		C4,10,9.4,4.6,16,4.6L16,4.6z M16,8.6c-3.8,0-8,4.1-8,8v67.9l0,0c0,3.9,3.7,7.8,8,8h267.7c4.1,0,7.9-3.8,8-8V16.6
		c0-4.2-3.8-7.9-8-8H16z"/>
	<g>
		<path fill="#FFFFFF" stroke="#FFFFFF" stroke-width="0.216" stroke-miterlimit="22.9256" d="M266.4,36.7c2,0,3.9,0.1,5.8,0.2v-3.3
			c-1.9,0.1-3.7,0.2-5.6,0.2h-6.1c-2.3,0-4.3-0.1-6.1-0.2v3.3c1.8-0.1,3.8-0.2,6.1-0.2H266.4z"/>
		<path fill="#FFFFFF" stroke="#FFFFFF" stroke-width="0.216" stroke-miterlimit="22.9256" d="M245.6,36.4c1.4-2.2,2.5-3.3,3.4-3.5
			c-1.4-0.9-2.6-1.6-3.6-2.3c-0.7,1.4-1.7,3.2-3,5.2c-1.4,2-2.9,3.9-4.7,5.5c0.8,0.8,1.5,1.6,2.3,2.5
			C242.3,41.1,244.2,38.6,245.6,36.4z"/>
		<path fill="#FFFFFF" stroke="#FFFFFF" stroke-width="0.216" stroke-miterlimit="22.9256" d="M207.9,45.6c0.1,1.3,0.2,2.6,0.2,3.9
			c0,1.3-0.1,2.5-0.2,3.9h24.5c-0.1-1.2-0.2-2.5-0.2-3.8c0-1.3,0.1-2.6,0.2-3.9L207.9,45.6L207.9,45.6z M215.5,51.4h-4.6v-3.8h4.6
			V51.4z M221.9,51.4H218v-3.8h4L221.9,51.4L221.9,51.4z M229.4,51.4h-5v-3.8h5V51.4z"/>
		<path fill="#FFFFFF" stroke="#FFFFFF" stroke-width="0.216" stroke-miterlimit="22.9256" d="M229.4,43.3c-0.1-1.9-0.2-3.5-0.2-4.8
			c0-1.3,0.1-3.2,0.2-5.8H211c0.1,1.9,0.2,3.6,0.2,5.2s0,3.4-0.2,5.4L229.4,43.3L229.4,43.3z M214,34.7h12.4v2.5H214V34.7z
			 M214,39.2h12.4v2.1H214V39.2z"/>
		<path fill="#FFFFFF" stroke="#FFFFFF" stroke-width="0.216" stroke-miterlimit="22.9256" d="M242.8,46.9c-1.4,2.1-3.3,4.4-5.7,6.7
			c0.7,0.8,1.4,1.7,2.1,2.8c1.5-1.6,2.7-3.2,3.6-4.8v10.2c0,1.6,0,4.1-0.2,7.3h3.5c-0.1-2.9-0.2-5-0.2-6.5V48.1
			c0.9-1.2,1.6-2.2,2.1-3.1c0.5-0.9,1.2-1.6,2.1-2.1c-1.4-0.8-2.7-1.5-3.8-2.1C245.4,42.7,244.2,44.7,242.8,46.9z"/>
		<path fill="#FFFFFF" stroke="#FFFFFF" stroke-width="0.216" stroke-miterlimit="22.9256" d="M206.4,37.7c-0.8,0.4-1.5,0.9-2.3,1.3
			c1.1,2.5,1.8,4.4,2.1,5.6c0.9-0.5,1.8-0.9,2.6-1.2C208.3,42.4,207.5,40.5,206.4,37.7z"/>
		<path fill="#FFFFFF" stroke="#FFFFFF" stroke-width="0.216" stroke-miterlimit="22.9256" d="M203.7,31.4h-3.1
			c0.1,1.8,0.2,3.7,0.2,6v24.5c0,2.3-0.1,4.6-0.2,6.8h3.1c-0.1-2.2-0.2-4.4-0.2-6.8v-25C203.6,35.1,203.6,33.3,203.7,31.4z"/>
		<path fill="#FFFFFF" stroke="#FFFFFF" stroke-width="0.216" stroke-miterlimit="22.9256" d="M229.2,56h-13.4c-1.9,0-3.8,0-5.8-0.2
			v2.3c1-0.1,2-0.1,3-0.1c0,0,0,0,0,0h2.6l0,0c0.1,0,0.2,0,0.3,0h8.9c-1.7,2-3.3,3.5-5,4.4c-1.1-0.7-2.5-2.1-4.3-4.4
			c-0.9,0-1.7,0-2.6,0c1,2,2.5,3.8,4.4,5.6c-4.6,1.7-8.2,2.4-10.7,2.3c1.1,1,1.9,1.9,2.3,2.8c2.6-0.5,6.2-1.7,10.7-3.5
			c3,1.4,6.6,2.6,10.9,3.5c0.3-1,0.9-1.9,1.8-2.8c-4.5-0.4-7.9-1.2-10.2-2.1C224.7,62.2,227,59.6,229.2,56z"/>
		<path fill="#FFFFFF" stroke="#FFFFFF" stroke-width="0.216" stroke-miterlimit="22.9256" d="M269.3,44.8h-11.6
			c-2,0-3.9-0.1-5.8-0.2v3.3c1.8-0.1,3.7-0.2,5.8-0.2h6.3v16c-0.1,1.1-0.5,1.7-1.2,1.7s-2,0-3.9-0.2c1,1.3,1.6,2.6,1.8,3.8
			c2.6-0.3,4.4-0.7,5.3-1.2c0.9-0.4,1.3-1.3,1.3-2.6V47.8h2.1c1.9,0,3.7,0.1,5.5,0.2v-3.3C273.2,44.8,271.3,44.8,269.3,44.8z"/>
		<path fill="#FFFFFF" stroke="#FFFFFF" stroke-width="0.216" stroke-miterlimit="22.9256" d="M194.8,49.5c0.9,0,1.9,0,3,0
			c0-3.1,0.2-6.1,0.5-9.1c-1,0-1.9,0-2.8,0C195.4,43.7,195.1,46.7,194.8,49.5z"/>
		<path fill="#FFFFFF" stroke="#FFFFFF" stroke-width="0.216" stroke-miterlimit="22.9256" d="M124.5,55.4c0.2-1.2,0.1-2.6-0.5-4.1
			c-0.5-1.5-1.8-3.4-3.6-5.6c1.4-4.4,2.7-8.4,3.9-11.9h-12.1c0.1,1.9,0.2,4.1,0.2,6.8v18.7c0,3.2-0.1,6-0.2,8.3h3.3V36.3h4.8
			c-0.8,3.2-1.9,6.5-3.3,9.7c2.3,2.3,3.7,4.3,4.2,6c0.5,1.7,0.4,2.8-0.4,3.4c-0.8,0.5-2,0.8-3.8,0.8c0.5,1.2,0.9,2.4,1.2,3.6
			c1.8-0.4,3.2-1,4.3-1.7C123.6,57.5,124.2,56.6,124.5,55.4z"/>
		<path fill="#FFFFFF" stroke="#FFFFFF" stroke-width="0.216" stroke-miterlimit="22.9256" d="M138.2,63.8v-8.3h2.5
			c2,0,3.9,0.1,5.8,0.2v-3c-1.9,0.1-3.8,0.2-5.8,0.2h-2.5v-5.3h4.6c1.5,0,3.1,0.1,4.8,0.2v-3c-1.6,0.1-3.2,0.2-4.8,0.2h-5.6v-5.3
			h3.8c1.9,0,3.6,0.1,5.3,0.2v-3c-1.7,0.1-3.5,0.2-5.5,0.2h-3.6c0-1.1,0-2,0-2.8c0-0.8,0.1-1.8,0.3-3.1h-3.6
			c0.1,1.3,0.2,2.4,0.2,3.4c0,0.9,0,1.8,0,2.5h-3.1c-2,0-3.7-0.1-5.1-0.2v3c1.5-0.1,3.2-0.2,5.1-0.2h3.1v5.3h-3.9
			c-2.3,0-4.2-0.1-5.8-0.2v3c1.7-0.1,3.6-0.2,5.8-0.2h5v15c-2.4-1.2-4.1-2.9-5-5.1c0.1-1.3,0.3-2.4,0.5-3.3c0.2-0.9,0.5-1.8,1-2.6
			c-1.2-0.2-2.4-0.5-3.6-0.8c-0.1,1.8-0.3,3.4-0.6,5c-0.3,1.5-0.7,2.9-1.2,4.1c-0.5,1.2-1.2,2.3-2,3.3c-0.8,1-1.8,2-3,3
			c1.2,0.5,2.2,1.2,3,2c2.4-2.7,4-5.3,4.8-7.6c1.5,2.2,3,3.7,4.3,4.4c1.3,0.8,3,1.4,5.2,2c2.1,0.5,5.1,0.9,8.7,1
			c0.2-1.3,0.6-2.5,1.2-3.6c-1.7,0.1-3.2,0.2-4.8,0.2C141.9,64.5,140.1,64.2,138.2,63.8z"/>
		<path fill="#FFFFFF" stroke="#FFFFFF" stroke-width="0.216" stroke-miterlimit="22.9256" d="M165.4,55.4c-1.8,0.7-3.4,1.2-5,1.6
			V44.9c1.4,0,3,0.1,4.8,0.2v-3c-1.8,0.1-3.4,0.2-4.8,0.2V37c0-1.3,0.1-3.2,0.2-5.6h-3.3c0.1,2.5,0.2,4.4,0.2,5.8v5.1
			c-1.8,0-3.3-0.1-4.6-0.2v3c1.4-0.1,3-0.2,4.8-0.2v12.9c-2.1,0.7-3.8,1.2-5.3,1.5c0.7,1,1.2,2,1.6,3.1c2-1,3.8-1.8,5.6-2.5
			c1.8-0.7,3.7-1.3,5.8-1.8C165.4,57.1,165.4,56.1,165.4,55.4z"/>
		<path fill="#FFFFFF" stroke="#FFFFFF" stroke-width="0.216" stroke-miterlimit="22.9256" d="M181,61.5c1.4-2,2.5-4.1,3.3-6.4
			c0.8-2.2,1.4-5,2-8.3h-6.9v-7.3h5.8c-0.3,1.3-0.7,2.6-1.2,3.9c1.1,0.1,2.2,0.3,3.3,0.5c0.3-1.6,0.9-4,1.6-7.1h-9.6
			c0-2.9,0.1-5,0.2-6.3h-3.3c0.1,1.3,0.2,3.4,0.2,6.3h-8.6c0.1,2,0.2,5,0.2,8.9c0,4-0.2,7.1-0.7,9.4c-0.5,2.3-1.2,4.4-2.1,6.2
			s-2.2,3.5-3.7,5.1c1.2,0.3,2.2,1,3,2.1c1.5-2,3-4.4,4.3-7.4c1.3-2.9,2.1-6.9,2.3-11.8h1.5c0.5,5.1,2.1,9.1,4.6,12.1
			c-0.9,0.8-2.1,1.6-3.6,2.5c-1.5,0.9-3.4,1.7-5.6,2.4c1,0.8,1.8,1.6,2.5,2.6c2.2-1.1,4-2.1,5.5-3c1.4-0.9,2.5-1.7,3.3-2.4
			c1.8,1.7,3.3,2.8,4.6,3.5c1.3,0.7,2.6,1.3,4,1.9c0.7-1.1,1.5-2.1,2.6-3.1c-1.9-0.3-3.5-0.8-5.1-1.5
			C183.7,63.8,182.3,62.8,181,61.5z M171,46.8v-7.3h5.3v7.3H171z M175.5,49.5h6.9c-0.2,2.1-0.6,3.9-1.2,5.5c-0.5,1.6-1.3,3-2.1,4.4
			C177.1,56.9,175.9,53.6,175.5,49.5z"/>
	</g>
	<g>
		<rect x="24" y="15.6" fill="#FFFFFF" width="69.9" height="69.9"/>
		<g>
			<polygon fill="#29ABE2" stroke="#29ABE2" stroke-width="0.216" stroke-miterlimit="22.9256" points="28.9,76.5 88.2,76.5 
				88.1,46.2 			"/>
			<polygon fill="#29ABE2" stroke="#29ABE2" stroke-width="0.216" stroke-miterlimit="22.9256" points="40.6,63.3 48.3,65.5 
				52.7,63.2 47.6,61.8 68.7,50.9 67.1,47.7 45.9,58.5 47.8,53.5 43.3,55.8 			"/>
		</g>
		<g>
			<path fill="#29ABE2" stroke="#29ABE2" stroke-width="0.216" stroke-miterlimit="22.9256" d="M43.3,43.9c-0.8-0.3-1.6-0.3-2.5,0
				c0.4-0.6,0.7-1.3,0.7-2c0-0.7-0.1-1.3-0.5-1.9c-0.4-0.6-0.9-1.1-1.5-1.4c-0.7-0.3-1.4-0.5-2.2-0.4c-0.8,0.1-1.6,0.3-2.3,0.8
				c-1.1,0.6-1.7,1.5-2.1,2.5c-0.3,1-0.3,2.2,0.2,3.4l1.8-0.7c-0.4-0.9-0.5-1.6-0.3-2.3c0.2-0.7,0.6-1.2,1.2-1.6
				c0.6-0.4,1.3-0.5,1.9-0.4c0.6,0.1,1.2,0.5,1.5,1.1c0.5,0.8,0.5,1.5,0.2,2.2c-0.3,0.7-0.9,1.3-1.5,1.7c-0.1,0-0.2,0.1-0.3,0.1
				l0.7,1.5c0.4-0.4,0.7-0.7,1-0.9c0.8-0.5,1.5-0.6,2.3-0.4c0.8,0.2,1.4,0.7,1.9,1.4c0.5,0.8,0.6,1.6,0.4,2.5s-0.7,1.5-1.5,2
				c-0.6,0.4-1.3,0.5-2,0.4c-0.7-0.1-1.4-0.6-2.2-1.4l-1.5,1.2c0.8,1,1.8,1.7,3,1.9c1.2,0.2,2.4,0,3.6-0.7c1.3-0.8,2.1-1.9,2.5-3.2
				c0.4-1.3,0.2-2.6-0.5-3.7C44.8,44.8,44.2,44.3,43.3,43.9z"/>
			<path fill="#29ABE2" stroke="#29ABE2" stroke-width="0.216" stroke-miterlimit="22.9256" d="M80,25.7c-0.7-1.2-1.5-1.9-2.4-2.1
				c-0.9-0.3-1.8-0.1-2.6,0.4c-0.9,0.6-1.4,1.3-1.5,2.3c-0.1,1,0.2,1.9,0.8,2.9c0.7,1.2,1.6,1.9,2.5,2.2c0.9,0.3,1.8,0.2,2.6-0.3
				c0.8-0.5,1.3-1.2,1.5-2.2C81,27.8,80.7,26.8,80,25.7z M79.3,28.7c-0.1,0.5-0.3,0.9-0.7,1.2c-0.4,0.2-0.8,0.3-1.3,0.1
				c-0.5-0.2-1-0.7-1.5-1.5c-0.6-0.9-0.8-1.7-0.8-2.2s0.3-0.9,0.7-1.2c0.4-0.2,0.9-0.3,1.3-0.1c0.5,0.2,1,0.7,1.5,1.6
				C79.1,27.4,79.4,28.2,79.3,28.7z"/>
			<polygon fill="#29ABE2" stroke="#29ABE2" stroke-width="0.216" stroke-miterlimit="22.9256" points="69.4,17.7 70.7,36.3 
				72,35.4 70.7,16.9 			"/>
			<path fill="#29ABE2" stroke="#29ABE2" stroke-width="0.216" stroke-miterlimit="22.9256" d="M64.7,21.8c-0.9-0.3-1.8-0.1-2.6,0.4
				c-0.9,0.6-1.4,1.3-1.5,2.3c-0.1,1,0.2,1.9,0.8,2.9c0.7,1.2,1.6,2,2.5,2.2c0.9,0.3,1.8,0.2,2.6-0.3c0.8-0.5,1.3-1.2,1.5-2.2
				c0.2-0.9-0.1-2-0.8-3.1C66.4,22.8,65.6,22.1,64.7,21.8z M66.4,27c-0.1,0.5-0.3,0.9-0.7,1.2c-0.4,0.2-0.8,0.3-1.3,0.1
				c-0.5-0.2-1-0.7-1.5-1.6c-0.6-0.9-0.8-1.7-0.8-2.2c0.1-0.5,0.3-0.9,0.7-1.1c0.4-0.2,0.9-0.3,1.3-0.1c0.5,0.2,1,0.7,1.5,1.6
				S66.5,26.4,66.4,27z"/>
			<path fill="#29ABE2" stroke="#29ABE2" stroke-width="0.216" stroke-miterlimit="22.9256" d="M60.6,33.6c-0.8-0.3-1.7-0.4-2.7-0.1
				c0.5-0.7,0.8-1.3,0.8-2c0-0.7-0.1-1.3-0.5-1.9c-0.6-1-1.5-1.6-2.6-1.8c-1.1-0.2-2.3,0-3.4,0.7c-1.2,0.7-1.9,1.6-2.2,2.7
				c-0.3,1.1-0.1,2.1,0.5,3.1c0.4,0.6,0.9,1.1,1.5,1.4c0.6,0.3,1.3,0.3,2.2,0.1c-0.7,0.7-1.1,1.5-1.1,2.3c-0.1,0.9,0.1,1.7,0.7,2.6
				c0.7,1.2,1.7,1.9,3,2.2c1.3,0.3,2.6,0,3.9-0.8c1.3-0.8,2.1-1.8,2.5-3.1c0.3-1.3,0.1-2.5-0.6-3.6C62,34.5,61.4,33.9,60.6,33.6z
				 M53.7,34.3c-0.6-0.2-1.2-0.5-1.6-1.2c-0.3-0.6-0.4-1.2-0.3-1.8s0.6-1.2,1.2-1.5c0.6-0.4,1.3-0.5,1.9-0.3
				c0.7,0.2,1.2,0.5,1.5,1.1c0.4,0.6,0.5,1.2,0.3,1.8c-0.2,0.6-0.6,1.2-1.2,1.5S54.4,34.5,53.7,34.3z M61.3,38.8
				c-0.2,0.8-0.7,1.5-1.5,1.9c-0.5,0.3-1,0.5-1.6,0.5c-0.6,0-1.1-0.1-1.6-0.4c-0.5-0.3-0.9-0.7-1.2-1.1c-0.5-0.8-0.6-1.6-0.4-2.4
				c0.2-0.8,0.7-1.5,1.4-1.9c0.8-0.5,1.6-0.6,2.4-0.4s1.5,0.7,2,1.5C61.3,37.2,61.5,37.9,61.3,38.8z"/>
		</g>
		<path fill="#29ABE2" stroke="#29ABE2" stroke-width="0.216" stroke-miterlimit="22.9256" d="M50.1,47.9c0.7,0,1.3-0.6,1.3-1.3
			s-0.6-1.3-1.3-1.3s-1.3,0.6-1.3,1.3S49.4,47.9,50.1,47.9z"/>
	</g>
</g>
</svg>
