<?xml version="1.0" encoding="utf-8"?>
<!-- Generator: Adobe Illustrator 18.1.1, SVG Export Plug-In . SVG Version: 6.00 Build 0)  -->
<svg version="1.1" id="图层_1" xmlns="http://www.w3.org/2000/svg" xmlns:xlink="http://www.w3.org/1999/xlink" x="0px" y="0px"
	 width="299.7" height="100" enable-background="new 0 0 299.7 100" xml:space="preserve">
<g>
	<rect y="-0.3" fill="#29ABE2" width="299.7" height="99.9"/>
	<rect x="24" y="14.7" fill="#FFFFFF" width="69.9" height="69.9"/>
	<path fill="#FFFFFF" d="M16,3.7h267.7c6.6,0,12,5.4,12,12v67.9c0,6.7-5.4,12-12,12H16c-6.6,0-12-5.4-12-12l0,0V15.7
		C4,9.1,9.4,3.7,16,3.7L16,3.7z M16,7.7c-3.8,0-8,4.1-8,8v67.9l0,0c0,3.9,3.7,7.8,8,8h267.7c4.1,0,7.9-3.8,8-8V15.7
		c0-4.2-3.8-7.9-8-8H16z"/>
	<path fill="#29ABE2" stroke="#29ABE2" stroke-width="0.216" stroke-miterlimit="22.9256" d="M47.8,38c1.1,2.5,1.8,4.4,2.1,5.6
		c0.9-0.5,1.8-0.9,2.6-1.2c-0.5-1.1-1.4-3-2.5-5.8C49.3,37.1,48.5,37.5,47.8,38L47.8,38z M44.3,30.4c0.1,1.8,0.2,3.7,0.2,6v24.5
		c0,2.3-0.1,4.6-0.2,6.8h3.1c-0.1-2.2-0.2-4.4-0.2-6.8v-25c0-1.8,0.1-3.6,0.2-5.5H44.3L44.3,30.4z M57.7,33.7H70v2.5H57.7L57.7,33.7
		L57.7,33.7z M57.7,38.1H70v2.1H57.7L57.7,38.1L57.7,38.1z M51.5,52.3H76c-0.1-1.2-0.2-2.5-0.2-3.8c0-1.3,0.1-2.6,0.2-3.9H51.5
		c0.1,1.3,0.2,2.6,0.2,3.9C51.7,49.7,51.7,51,51.5,52.3L51.5,52.3z M54.5,46.6h4.6v3.8h-4.6V46.6L54.5,46.6z M61.6,46.6h4v3.8h-4
		V46.6L61.6,46.6z M68.1,46.6h5v3.8h-5V46.6L68.1,46.6z M56.7,57c1,2,2.5,3.8,4.4,5.6c-4.6,1.7-8.2,2.4-10.7,2.3
		c1.1,1,1.9,1.9,2.3,2.8c2.6-0.5,6.2-1.7,10.7-3.5c3,1.4,6.6,2.6,10.9,3.5c0.3-1,0.9-1.9,1.8-2.8c-4.5-0.4-7.9-1.2-10.2-2.1
		c2.4-1.6,4.7-4.2,6.9-7.8H59.4c-1.9,0-3.8,0-5.8-0.2v2.3c2-0.1,4-0.2,6-0.2h8.9c-1.7,2-3.3,3.5-5,4.4c-1.1-0.7-2.5-2.1-4.3-4.4
		H56.7L56.7,57z M54.7,31.7c0.1,1.9,0.2,3.6,0.2,5.2c0,1.6,0,3.4-0.2,5.4H73c-0.1-1.9-0.2-3.5-0.2-4.8c0-1.3,0.1-3.2,0.2-5.8
		L54.7,31.7L54.7,31.7z M41.5,48.4c0-3.1,0.2-6.1,0.5-9.1c-1,0-1.9,0-2.8,0c-0.1,3.3-0.3,6.3-0.7,9.1C39.4,48.4,40.4,48.4,41.5,48.4
		z"/>
	<g>
		<path fill="#FFFFFF" stroke="#FFFFFF" stroke-width="0.216" stroke-miterlimit="22.9256" d="M260.1,41.8c0.5-1.8,0.7-4,0.7-6.7
			h4.6v7.6c0,1.9,1.3,2.8,3.8,2.8h4.1c0.1-1.2,0.4-2.3,0.8-3.3c-2.5,0.1-4.1,0.1-4.7,0.1c-0.6-0.1-0.9-0.7-0.9-1.9v-3.5
			c0-1.3,0-2.8,0.2-4.4h-11.1c0.1,1.9,0,4.1-0.3,6.6c-0.3,2.5-1.4,4.5-3.4,6c1.1,0.4,2.1,1.1,3.1,2
			C258.6,45.4,259.6,43.6,260.1,41.8z"/>
		<path fill="#FFFFFF" stroke="#FFFFFF" stroke-width="0.216" stroke-miterlimit="22.9256" d="M132.3,49.2c-1.4-0.4-2.6-0.9-3.5-1.3
			c3.4-1.9,6.2-3.7,8.2-5.6c2-1.9,4.1-4.2,6.4-7.1h-18.7c0.8-1.1,1.7-2.1,2.8-3.1c-1.4-0.5-2.7-1.2-3.8-1.8c-1,2.1-2.3,4.1-4,6.1
			c-1.7,2-3.9,3.8-6.7,5.6c1.1,0.5,2.1,1.3,3,2.1c2.6-2.2,4.9-4.3,6.8-6.5h14.7c-1.3,1.3-2.6,2.6-3.9,3.7c-1.3,1.2-2.8,2.2-4.4,3.2
			c-1.3-1.5-2.6-3.1-4-4.6c-0.8,0.8-1.6,1.5-2.6,2.3c1.2,1,2.4,2.3,3.5,3.8c-1.8,0.8-3.7,1.4-5.9,2c-2.1,0.5-4.5,1-7,1.3
			c0.9,1.2,1.6,2.4,2.1,3.5c1.9-0.5,4-1.2,6.3-1.9c2.3-0.7,4.6-1.7,6.9-2.9c-1.5,2.2-3.4,4.1-5.5,5.9c-2.1,1.7-4.7,3.2-7.7,4.5
			c1.1,0.7,2,1.5,2.8,2.6c2.5-1.6,4.4-3,5.7-3.9c1.3-1,2.6-2.2,4-3.6h12.7c-0.7,1.7-1.5,3.1-2.6,4.4c-1.1,1.3-2.4,2.4-3.9,3.4
			c-1.7-2-3.2-3.7-4.6-5.3c-0.8,0.8-1.6,1.5-2.5,2.3c1.4,1.2,2.9,2.7,4.3,4.6c-2.4,1-4.9,1.7-7.3,2c-2.4,0.3-4.5,0.5-6.2,0.6
			c-1.7,0.1-3.4,0-5.2-0.1c0.5,1.1,1,2.3,1.5,3.6c4.1-0.2,7.8-0.6,11.1-1.2s6.3-1.5,8.8-2.8c2.6-1.3,4.8-3.1,6.7-5.5
			c1.9-2.4,3.4-5.2,4.4-8.5h-14.7C130.9,50.2,131.7,49.6,132.3,49.2z"/>
		
			<rect x="159.9" y="39.7" fill="#FFFFFF" stroke="#FFFFFF" stroke-width="0.216" stroke-miterlimit="22.9256" width="7.9" height="2"/>
		
			<rect x="175.9" y="43.4" fill="#FFFFFF" stroke="#FFFFFF" stroke-width="0.216" stroke-miterlimit="22.9256" width="9.7" height="2"/>
		<path fill="#FFFFFF" stroke="#FFFFFF" stroke-width="0.216" stroke-miterlimit="22.9256" d="M173.1,57.7c-1.3-0.1-2.5-0.2-3.6-0.3
			c0,0.8-0.1,1.6-0.3,2.5h-6c-2.1,0-3.7-0.1-5-0.2v2.5c1.3-0.1,2.9-0.2,4.8-0.2h5.5c-1.5,1.6-3.5,2.7-5.8,3.3
			c-2.3,0.5-4.9,0.8-7.6,0.8c0.9,1,1.5,2,2,3c2-0.2,3.7-0.5,5.2-0.8c1.5-0.3,2.8-0.8,3.9-1.3c1.1-0.5,2.1-1.2,3-1.9
			c0.9-0.7,1.8-1.7,2.5-3h9.9c0,1.6-0.3,2.6-0.8,3c-0.5,0.3-2.4,0.5-5.5,0.5c0.8,1,1.2,2.1,1.3,3.3c1.7-0.2,3.3-0.5,5-1
			c1.7-0.4,2.6-1.3,2.7-2.5c0.2-1.2,0.4-3,0.7-5.5h-12.9C172.4,59.3,172.7,58.6,173.1,57.7z"/>
		<path fill="#FFFFFF" stroke="#FFFFFF" stroke-width="0.216" stroke-miterlimit="22.9256" d="M157.2,42.2v-4.3H171v8.6h2.8v-8.6
			h13.5v4.6h3c-0.1-1.2-0.2-2.4-0.2-3.5s0.1-2.1,0.2-3.1h-16.5v-2.6h8.4c1.6,0,3.5,0.1,5.5,0.2V31c-1.8,0.1-3.6,0.2-5.5,0.2h-19.7
			c-1.7,0-3.4-0.1-5.3-0.2v2.5c2-0.1,3.7-0.2,5.3-0.2h8.4v2.6h-16.9c0.1,1.2,0.2,2.2,0.2,3c0,0.8-0.1,1.9-0.2,3.2L157.2,42.2
			L157.2,42.2z"/>
		
			<rect x="175.9" y="39.7" fill="#FFFFFF" stroke="#FFFFFF" stroke-width="0.216" stroke-miterlimit="22.9256" width="8.3" height="2"/>
		<path fill="#FFFFFF" stroke="#FFFFFF" stroke-width="0.216" stroke-miterlimit="22.9256" d="M223.3,45.9c1.6-1.6,3-3.4,4.2-5.4
			c1.2-1.9,2.1-3.8,2.9-5.7h-11.7c0.6-1.2,1.2-2.3,2-3.1c-1.2-0.2-2.5-0.7-3.8-1.3c-0.7,2.4-1.5,4.7-2.6,6.8
			c-1.1,2.1-2.4,3.9-3.8,5.6c1.1,0.4,2.1,1,3,1.6c0.8-1.3,1.7-2.9,2.8-4.8c0.4,1.1,0.9,2.2,1.5,3.2c0.5,1,1.2,2,1.8,2.9
			c-1.5,1.2-3,2.1-4.4,2.7c-1.4,0.6-3.1,1.2-5.1,1.7c1,0.9,1.8,1.9,2.5,3.1c2.3-1.3,4.1-2.4,5.3-3.1c1.2-0.8,2.5-1.6,3.8-2.5
			c1.9,1.5,3.7,2.6,5.6,3.3c1.9,0.7,3.6,1.2,5.3,1.5c0.2-1.1,0.7-2.3,1.5-3.5c-2.2,0-4.1-0.2-5.7-0.7
			C226.6,47.9,225,47.1,223.3,45.9z M221.3,44c-0.5-1-1.2-2-1.9-3c-0.7-1-1.3-2.4-1.9-4h8.3c-0.7,1.7-1.3,3-2.1,4
			C223,42,222.2,43,221.3,44z"/>
		<path fill="#FFFFFF" stroke="#FFFFFF" stroke-width="0.216" stroke-miterlimit="22.9256" d="M205.6,54.3c1.3,0,2.7,0.1,4.1,0.2V52
			c-1.4,0.1-2.8,0.2-4.1,0.2v-7.1h4.4c-0.1-1-0.2-2.8-0.2-5.5s0.1-4.4,0.2-5.5h-12.5c0.1,0.9,0.2,2.7,0.2,5.5c0,2.7-0.1,4.6-0.2,5.5
			h5.3v16.5c-1,0.3-1.9,0.6-2.6,0.8v-8.8c0-1.8,0.1-3.1,0.2-4.1h-3.1c0.1,1.4,0.2,2.6,0.2,3.5v10.2c-0.7,0.2-1.4,0.4-2.3,0.5
			c0.4,1.2,0.8,2.4,1,3.5c1.1-0.6,2.3-1,3.5-1.5c1.2-0.4,4.9-1.7,10.9-3.8c0-0.9,0-1.8,0.2-2.6c-2.1,0.7-3.7,1.2-5,1.6V54.3z
			 M200.5,42.9v-6.6h6.6v6.6L200.5,42.9L200.5,42.9z"/>
		<path fill="#FFFFFF" stroke="#FFFFFF" stroke-width="0.216" stroke-miterlimit="22.9256" d="M214.4,52.9c0.1,1.4,0.2,3.8,0.2,7.3
			c0,3.4,0,6.1-0.2,7.9h3v-3.4h9.1V68h3c-0.1-1.7-0.2-4.2-0.2-7.8c0-3.5,0.1-6,0.2-7.3L214.4,52.9L214.4,52.9z M226.4,62.4h-9.1
			v-7.1h9.1V62.4z"/>
		<polygon fill="#FFFFFF" stroke="#FFFFFF" stroke-width="0.216" stroke-miterlimit="22.9256" points="168.5,43.5 159,43.5 
			159,45.5 165.2,45.5 168.5,45.5 		"/>
		<path fill="#FFFFFF" stroke="#FFFFFF" stroke-width="0.216" stroke-miterlimit="22.9256" d="M244.6,61.7c2.5-0.7,5.3-1.2,8.3-1.6
			c0-1,0.1-2,0.2-3c-2.9,0.7-5.7,1.2-8.4,1.6v-6.3c3.2,0,5.8,0,7.8,0.2v-3c-2,0.1-4.6,0.2-7.8,0.2v-5.3c3.2,0,5.8,0,7.8,0.2v-3
			c-2,0.1-4.6,0.2-7.8,0.2v-5.5c1-0.2,2.2-0.4,3.8-0.6c1.5-0.2,3.2-0.3,5-0.4c-1-1.2-1.9-2.4-2.8-3.6c-1.4,0.7-3,1.2-4.6,1.6
			c-1.7,0.4-3.2,0.7-4.6,0.9c0.1,2,0.2,3.9,0.2,5.8v19.2c-1.3,0.2-2.5,0.3-3.6,0.3c0.2,0.9,0.4,2.1,0.7,3.6c1-0.3,2-0.6,3-0.8V64
			c0,1.3-0.1,2.9-0.2,4.6h3.5c-0.1-1.8-0.2-3.3-0.2-4.6L244.6,61.7L244.6,61.7z"/>
		<path fill="#FFFFFF" stroke="#FFFFFF" stroke-width="0.216" stroke-miterlimit="22.9256" d="M269.7,63.6c-1.6-0.5-3-1.1-4.2-1.9
			c1.1-1.4,2.1-3.2,3.1-5.4c1-2.1,1.8-4.6,2.5-7.5h-10.7c-1.8,0-3.6-0.1-5.6-0.2v2.6c0.6,0,1.2-0.1,1.8-0.1c0,0,0-0.1,0-0.1h3l0,0
			c0.3,0,0.6,0,0.8,0h6.9c-0.4,1.9-1,3.5-1.7,5c-0.7,1.4-1.5,2.6-2.4,3.6c-0.5-0.5-1.2-1.6-1.9-3c-0.7-1.5-1.3-3.3-1.7-5.5
			c-0.9,0-1.9,0-2.9,0.1c0.5,2.6,1.2,4.8,2,6.5c0.8,1.8,1.5,3.1,2.3,3.9c-1.9,1.1-3.7,1.9-5.5,2.5c-1.8,0.5-3.2,1-4.4,1.3
			c1,1.2,1.8,2.3,2.5,3.3c1.8-0.8,3.4-1.5,5-2.2c1.5-0.7,3.1-1.6,4.8-2.6c1.4,0.9,2.7,1.6,3.9,2.1c1.2,0.5,3.2,1.3,6.2,2.3
			c0.7-1.6,1.4-2.9,2.1-3.6C273.1,64.5,271.2,64.1,269.7,63.6z"/>
		<path fill="#FFFFFF" stroke="#FFFFFF" stroke-width="0.216" stroke-miterlimit="22.9256" d="M182.9,55.9c-2.4-0.2-4.8-0.6-7.4-1.2
			c2.1-1,3.8-2,5.1-3c1.3-1,2.6-2.1,3.8-3.2h-18.3c0.8-0.5,1.5-1,2.3-1.3c-1.3-0.4-2.4-1-3.3-1.7c-1.3,1.5-2.8,2.8-4.4,3.8
			c-1.6,1-3.3,1.9-5.1,2.6c0.9,0.7,1.6,1.4,2.1,2.1c1-0.5,2-1.1,3-1.7c1-0.6,1.9-1.2,2.9-1.8c0,0,0,0-0.1-0.1h0.2c0,0-0.1,0-0.1,0.1
			c1.6,1.4,2.7,2.3,3.4,2.7c0.7,0.4,1.5,0.9,2.5,1.3c-1.9,0.4-3.6,0.8-5.1,1c-1.5,0.2-2.9,0.4-4.2,0.5s-2.5,0.1-3.7,0.1
			c-1.2,0-2.4-0.1-3.5-0.1c0.9,1.1,1.4,2.1,1.6,3c1.9-0.2,3.5-0.4,5.1-0.5c1.5-0.1,2.9-0.3,4.3-0.5s2.7-0.5,4.1-0.8
			c1.4-0.3,2.9-0.7,4.5-1.2c2.7,1.1,5.3,1.8,7.5,2.1c2.2,0.3,5.4,0.6,9.3,0.8c0.1-1.2,0.6-2.2,1.3-3.1
			C188,56.2,185.3,56.2,182.9,55.9z M172.5,53.6c-1.5-0.7-3.3-1.7-5.3-3.1h10.9C176.5,51.7,174.6,52.7,172.5,53.6z"/>
	</g>
</g>
</svg>
