<?xml version="1.0" encoding="utf-8"?>
<!-- Generator: Adobe Illustrator 18.1.1, SVG Export Plug-In . SVG Version: 6.00 Build 0)  -->
<svg version="1.1" id="图层_1" xmlns="http://www.w3.org/2000/svg" xmlns:xlink="http://www.w3.org/1999/xlink" x="0px" y="0px"
	 width="299.7" height="100" enable-background="new 0 0 299.7 100" xml:space="preserve">
<g>
	<rect y="0.1" fill="#29ABE2" width="299.7" height="99.9"/>
	<rect x="24" y="15.1" fill="#FFFFFF" width="69.9" height="70"/>
	<path fill="#FFFFFF" d="M16,4.1h267.7c6.6,0,12,5.4,12,12v67.9c0,6.6-5.4,12-12,12H16c-6.6,0-12-5.4-12-12l0,0V16
		C4,9.4,9.4,4.1,16,4.1L16,4.1z M16,8.1c-3.8,0-8,4.1-8,8v67.9l0,0c0,4,3.7,7.8,8,8h267.7c4.2,0,7.9-3.8,8-8V16c0-4.2-3.8-7.9-8-8
		H16z"/>
	<g>
		<path fill="#29ABE2" stroke="#29ABE2" stroke-width="0.216" stroke-miterlimit="22.9256" d="M27.3,59.3V42.9
			c3.8-3.5,8.9-4.6,12.7-0.3c3.8,4,9,3.1,12.6-0.4c3.6-3.3,8.6-4.4,12.5,0c3.9,4.4,9,3.5,12.6,0c3.7-3.3,8.6-4.4,12.7,0v15.7
			c-3.9-4-8.6-2.9-12.3,0.5c-3.5,3.5-8.7,4.3-12.6,0c-3.9-4.5-8.9-3.3-12.5,0c-3.6,3.5-8.7,4.3-12.6,0.3
			C36.7,54.5,31.3,56,27.3,59.3z"/>
		<path fill="#29ABE2" stroke="#29ABE2" stroke-width="0.216" stroke-miterlimit="22.9256" d="M90.3,65.8c-3.4-4.4-9.2-3.4-12.8-0.1
			c-3.5,3.5-8.7,4.3-12.6,0c-3.9-4.5-8.9-3.3-12.5,0c-3.6,3.5-8.7,4.3-12.6,0.3c-3.8-4.2-9.1-3.1-12.8,0.4V74
			c3.4-3.1,8.5-4.3,12.3,0c3.8,4,8.9,3.1,12.6-0.3c3.6-3.3,8.6-4.5,12.5,0c3.8,4.3,9,3.5,12.6,0c2.1-1.9,13.3-5,13.3-0.3L90.3,65.8z
			"/>
	</g>
	<g>
		<path fill="#FFFFFF" stroke="#FFFFFF" stroke-width="0.216" stroke-miterlimit="22.9256" d="M143,62.7c-1.4-1.5-2.5-3.2-3.2-5
			c-0.7-1.8-1.1-3.5-1.2-5.2c-0.1-1.6-0.1-3.7,0.2-6.1c-1.4,0-2.6-0.1-3.6-0.3c0.2,2.8,0,5.7-0.6,8.6c-0.6,2.9-1.8,5.5-3.5,7.8
			c-1.7,2.4-3.6,4.2-5.9,5.4c1.3,0.7,2.3,1.5,3,2.6c2.4-2.1,4.3-4.1,5.6-6.1c1.3-2,2.4-4.5,3.3-7.4c0.4,2,1.3,4.1,2.5,6.2
			c1.3,2.1,3.4,4.4,6.5,6.7c0.5-1.1,1.5-2.1,2.8-3C146.4,65.6,144.4,64.2,143,62.7z"/>
		<path fill="#FFFFFF" stroke="#FFFFFF" stroke-width="0.216" stroke-miterlimit="22.9256" d="M173.2,66v-3.8h3
			c1.6,0,3.1,0.1,4.5,0.2v-2.8c-1.3,0.1-2.7,0.2-4.3,0.2h-3.1c0-1.8,0.1-3.2,0.2-4.5h-3.5c0.1,1.5,0.2,3,0.2,4.5h-3
			c-1.6,0-3.2-0.1-4.6-0.2v2.8c1.4-0.1,3.1-0.2,5-0.2h2.6V66h-7.4c-2.3,0-4.4-0.1-6.1-0.2v2.8c1.9-0.1,3.9-0.2,6.1-0.2h17.5
			c2.5,0,4.8,0.1,6.8,0.2v-2.8c-2,0.1-4.2,0.2-6.8,0.2H173.2z"/>
		<path fill="#FFFFFF" stroke="#FFFFFF" stroke-width="0.216" stroke-miterlimit="22.9256" d="M128.8,60.2c0-1,0.1-1.9,0.2-2.8
			c-1.6,0.3-3.8,0.7-6.4,1v-5.3h6.4v-2.5h-6.4c0-2.7,0.1-4.8,0.3-6.1h-3.5c0.1,1.5,0.2,3.6,0.2,6.1h-4.6c0.7-1.4,1.9-4.7,3.6-9.7
			h3.3c2.1,0,4.1,0.1,6.1,0.3v-3c-2,0.1-4.1,0.2-6.3,0.2h-2.3c0.8-2.8,1.5-4.6,2.1-5.1c-1.2-0.2-2.5-0.6-3.8-1.2
			c-0.2,2.1-0.7,4.2-1.3,6.3c-1.8,0-3.6,0-5.5-0.2V41c1.8-0.1,3.3-0.2,4.8-0.2c-0.5,2-1.2,4-2.1,6s-1.7,3.3-2.7,3.9l1.3,3
			c1.6-0.3,4.1-0.5,7.3-0.7v5.8c-4.3,0.5-7.3,0.9-8.9,1c0.5,0.8,1,1.8,1.3,3.1c1.5-0.4,4.1-1,7.6-1.6c0,3.5-0.1,6.6-0.2,9.2h3.3
			c-0.1-2-0.2-5.2-0.2-9.6C125.5,60.5,127.6,60.2,128.8,60.2z"/>
		<path fill="#FFFFFF" stroke="#FFFFFF" stroke-width="0.216" stroke-miterlimit="22.9256" d="M259.7,43.3c0.5-1.8,0.7-4.1,0.7-6.7
			h4.7v7.6c0,1.9,1.3,2.8,3.8,2.8h4.1c0.1-1.2,0.4-2.3,0.8-3.3c-2.5,0.1-4.1,0.1-4.7,0.1c-0.6-0.1-0.9-0.7-0.9-1.9v-3.5
			c0-1.3,0-2.8,0.2-4.5h-11.1c0.1,1.9,0,4.1-0.3,6.6c-0.3,2.5-1.4,4.5-3.4,6c1.1,0.4,2.1,1.1,3.1,2
			C258.2,46.8,259.2,45.1,259.7,43.3z"/>
		<path fill="#FFFFFF" stroke="#FFFFFF" stroke-width="0.216" stroke-miterlimit="22.9256" d="M130.3,48.1c0.9-1.5,1.9-3.4,3-5.6
			h10.2c-0.5,1.9-1.1,3.6-1.6,5.1c1,0.1,2.1,0.3,3.3,0.7c0.9-3.4,1.7-6.2,2.5-8.3h-13.6c1.2-3.4,2.3-5.5,3.1-6.3
			c-1.3-0.2-2.6-0.6-4-1.2c-0.4,2.2-1.2,4.6-2.2,7.1c-1,2.5-2.3,4.9-3.9,6.9C128.4,46.9,129.4,47.4,130.3,48.1z"/>
		<path fill="#FFFFFF" stroke="#FFFFFF" stroke-width="0.216" stroke-miterlimit="22.9256" d="M269.3,65.1c-1.6-0.5-3-1.1-4.2-1.9
			c1.1-1.4,2.1-3.2,3.1-5.4c1-2.1,1.8-4.7,2.5-7.5H260c-1.8,0-3.6-0.1-5.6-0.2v2.6c0.6,0,1.2-0.1,1.8-0.1c0,0,0-0.1,0-0.1h3l0,0
			c0.3,0,0.6,0,0.8,0h6.9c-0.4,1.9-1,3.5-1.7,5c-0.7,1.4-1.5,2.6-2.4,3.6c-0.5-0.5-1.2-1.6-1.9-3c-0.7-1.5-1.3-3.3-1.7-5.5
			c-0.9,0-1.9,0-2.9,0.1c0.5,2.6,1.2,4.8,2,6.5c0.8,1.8,1.5,3.1,2.3,4c-1.9,1.1-3.7,1.9-5.5,2.5c-1.8,0.5-3.2,1-4.5,1.3
			c1,1.2,1.8,2.3,2.5,3.3c1.8-0.8,3.4-1.5,5-2.2c1.5-0.7,3.1-1.6,4.8-2.6c1.4,0.9,2.7,1.6,3.9,2.1c1.2,0.5,3.2,1.3,6.2,2.3
			c0.7-1.6,1.4-2.8,2.1-3.6C272.8,66,270.9,65.6,269.3,65.1z"/>
		<path fill="#FFFFFF" stroke="#FFFFFF" stroke-width="0.216" stroke-miterlimit="22.9256" d="M244.2,63.2c2.5-0.7,5.3-1.2,8.3-1.6
			c0-1,0.1-2,0.2-3c-2.8,0.7-5.7,1.2-8.4,1.6v-6.3c3.2,0,5.8,0,7.8,0.2v-3c-2,0.1-4.6,0.2-7.8,0.2V46c3.2,0,5.8,0,7.8,0.2v-3
			c-2,0.1-4.6,0.2-7.8,0.2v-5.5c1-0.2,2.2-0.4,3.8-0.6c1.5-0.2,3.2-0.3,5-0.4c-1-1.2-1.9-2.4-2.8-3.6c-1.4,0.7-3,1.2-4.6,1.6
			c-1.6,0.4-3.2,0.7-4.6,0.9c0.1,2,0.2,3.9,0.2,5.8v19.2c-1.3,0.2-2.5,0.3-3.6,0.3c0.2,0.9,0.4,2.1,0.7,3.6c1-0.3,2-0.6,3-0.8v1.6
			c0,1.3-0.1,2.8-0.2,4.6h3.5c-0.1-1.8-0.2-3.3-0.2-4.6V63.2z"/>
		<path fill="#FFFFFF" stroke="#FFFFFF" stroke-width="0.216" stroke-miterlimit="22.9256" d="M214,54.4c0.1,1.4,0.2,3.9,0.2,7.3
			s0,6.1-0.2,7.9h3v-3.5h9.1v3.3h3c-0.1-1.6-0.2-4.3-0.2-7.8s0.1-6,0.2-7.3H214z M226.1,63.8H217v-7.1h9.1V63.8z"/>
		<path fill="#FFFFFF" stroke="#FFFFFF" stroke-width="0.216" stroke-miterlimit="22.9256" d="M223,47.3c1.6-1.6,3-3.4,4.2-5.4
			s2.1-3.8,2.9-5.7h-11.7c0.6-1.2,1.2-2.3,2-3.1c-1.2-0.2-2.5-0.7-3.8-1.3c-0.7,2.4-1.5,4.7-2.6,6.8c-1.1,2.1-2.4,4-3.8,5.6
			c1.1,0.4,2.1,1,3,1.6c0.8-1.3,1.7-2.9,2.8-4.8c0.4,1.1,0.9,2.2,1.5,3.2c0.5,1,1.2,2,1.8,2.9c-1.5,1.2-3,2.1-4.5,2.7
			c-1.4,0.6-3.1,1.2-5.1,1.7c1,0.9,1.8,1.9,2.5,3.1c2.3-1.3,4.1-2.4,5.3-3.1c1.2-0.8,2.5-1.6,3.8-2.5c1.9,1.5,3.8,2.6,5.6,3.3
			c1.9,0.7,3.6,1.2,5.3,1.5c0.2-1.1,0.7-2.3,1.5-3.5c-2.2,0-4.1-0.2-5.7-0.7C226.2,49.4,224.6,48.5,223,47.3z M221,45.5
			c-0.5-1-1.2-2-1.9-3c-0.7-1-1.3-2.4-1.9-4.1h8.3c-0.7,1.6-1.3,3-2.1,4.1C222.6,43.5,221.8,44.5,221,45.5z"/>
		<path fill="#FFFFFF" stroke="#FFFFFF" stroke-width="0.216" stroke-miterlimit="22.9256" d="M205.3,55.7c1.3,0,2.7,0.1,4.1,0.2
			v-2.5c-1.4,0.1-2.8,0.2-4.1,0.2v-7.1h4.5c-0.1-1-0.2-2.8-0.2-5.5c0-2.6,0.1-4.5,0.2-5.5h-12.6c0.1,0.9,0.2,2.7,0.2,5.5
			c0,2.7-0.1,4.6-0.2,5.5h5.3V63c-1,0.3-1.9,0.6-2.6,0.8v-8.7c0-1.8,0.1-3.1,0.2-4.1h-3.1c0.1,1.4,0.2,2.6,0.2,3.5v10.2
			c-0.7,0.2-1.4,0.4-2.3,0.5c0.4,1.2,0.8,2.4,1,3.5c1.1-0.6,2.3-1,3.5-1.5c1.2-0.4,4.9-1.7,10.9-3.8c0-0.9,0-1.8,0.2-2.6
			c-2.1,0.7-3.8,1.2-5,1.6L205.3,55.7L205.3,55.7z M200.1,44.4v-6.6h6.6v6.6H200.1z"/>
		<path fill="#FFFFFF" stroke="#FFFFFF" stroke-width="0.216" stroke-miterlimit="22.9256" d="M180.2,53.4h4.1c2.2,0,4.2,0.1,6,0.2
			v-2.8c-1.9,0.1-3.9,0.2-6.1,0.2h-3.5V38.2h2.5c1.2,0,2.7,0.1,4.6,0.2v-2.6c-1.9,0.1-3.4,0.2-4.6,0.2h-2.5c0-1.4,0-2.8,0.2-4.1
			h-3.5c0.1,1.2,0.2,2.6,0.2,4.1h-11.9c0-1.4,0.1-2.8,0.2-4.1h-3.5c0.1,1.2,0.2,2.6,0.2,4.1h-1.2c-1.9,0-3.6-0.1-5.3-0.2v2.6
			c1.6-0.1,3.8-0.2,6.5-0.2V51h-3.1c-1.9,0-3.9-0.1-6-0.2v2.8c2.1-0.1,4.1-0.2,6-0.2h4.3c-1,1.5-2.6,2.9-4.9,4.2
			c-2.2,1.3-4.3,2.1-6.2,2.5c0.9,0.9,1.6,1.8,2.1,2.8c2.8-1.2,5.4-2.6,7.4-4.1c2.1-1.5,3.8-3.3,5.1-5.5h9.4c1.3,1.9,3,3.6,5,5.3
			c2,1.6,4.3,3,6.9,4c0.5-0.9,1.4-1.9,2.6-3c-2.5-0.8-4.6-1.6-6.3-2.4C183.3,56.5,181.7,55.2,180.2,53.4z M177.5,51h-11.9v-2.8h11.9
			V51z M177.5,45.8h-11.9v-2.5h11.9V45.8z M177.5,40.9h-11.9v-2.6h11.9V40.9z"/>
	</g>
</g>
</svg>
