<?xml version="1.0" encoding="utf-8"?>
<!-- Generator: Adobe Illustrator 18.1.1, SVG Export Plug-In . SVG Version: 6.00 Build 0)  -->
<svg version="1.1" id="图层_1" xmlns="http://www.w3.org/2000/svg" xmlns:xlink="http://www.w3.org/1999/xlink" x="0px" y="0px"
	 width="299" height="150" enable-background="new 0 0 299 150" xml:space="preserve">
<g>
	<rect y="0.5" fill="#29ABE2" width="299" height="149.5"/>
	<path fill="#FFFFFF" d="M16,4.4H283c6.6,0,12,5.4,12,12V134c0,6.6-5.3,12-12,12H16c-6.6,0-12-5.3-12-12v0V16.4
		C4,9.8,9.4,4.4,16,4.4L16,4.4z M16,8.5c-4.4,0-8,3.6-8,8V134c0,0,0,0,0,0c0,4.4,3.6,8,8,8h267.1c4.4,0,7.9-3.6,7.9-8V16.4
		c0-4.4-3.6-8-8-8L16,8.5L16,8.5z"/>
	<g>
		<rect x="23.9" y="24.9" fill="#FFFFFF" width="69.8" height="49.8"/>
		<rect x="23.9" y="77.3" fill="#FFFFFF" width="69.8" height="47.6"/>
		<g>
			<path fill="#29ABE2" stroke="#29ABE2" stroke-width="0.216" stroke-miterlimit="22.9256" d="M77.6,54.8c0-1.9-1.4-3.5-3.1-3.5
				c-1.7,0-3.1,1.6-3.1,3.5c0,1.9,1.4,3.5,3.1,3.5C76.2,58.3,77.6,56.8,77.6,54.8L77.6,54.8z M76.3,54.8c0,1.1-0.8,2.1-1.8,2.1
				c-1,0-1.8-0.9-1.8-2.1c0-1.1,0.8-2.1,1.8-2.1C75.5,52.7,76.3,53.6,76.3,54.8z"/>
			<path fill="#29ABE2" stroke="#29ABE2" stroke-width="0.216" stroke-miterlimit="22.9256" d="M44.5,54.8c0-1.9-1.4-3.5-3.1-3.5
				c-1.7,0-3.1,1.6-3.1,3.5c0,1.9,1.4,3.5,3.1,3.5C43.1,58.3,44.5,56.8,44.5,54.8L44.5,54.8z M43.3,54.8c0,1.1-0.8,2.1-1.8,2.1
				s-1.8-0.9-1.8-2.1c0-1.1,0.8-2.1,1.8-2.1S43.3,53.6,43.3,54.8z"/>
			<path fill="#29ABE2" stroke="#29ABE2" stroke-width="0.216" stroke-miterlimit="22.9256" d="M37.2,54.8c0-2.7,1.9-5,4.3-5
				c2.4,0,4.3,2.2,4.3,4.9c0,0.1,0,0.2,0,0.3H70c-0.4-3,1.7-5.6,4.3-5.6c2.4,0,4.3,2.2,4.3,4.9c0,0.3,0,0.6-0.1,0.9l12.1-2.9
				l0.7-0.8V38.2c-0.5-2.1-2-3.6-3.8-3.9H31.8c-1.4,0-2.9,0.2-3.1,1.7l-0.4,3.3V44l-1.1,2.3l0.2,7.7c0.4,0.8,0.5,1,1.3,1.4
				L37.2,54.8L37.2,54.8z M77,39.4c0-0.7,0.5-1.2,1.1-1.2l0,0h8.5c0.6,0,1.1,0.5,1.1,1.2v3.2c0,0.7-0.5,1.2-1.1,1.2h-8.5l0,0
				c-0.6,0-1.1-0.5-1.1-1.2l0,0V39.4L77,39.4z M64.1,39.4L64.1,39.4c0-0.7,0.5-1.2,1.1-1.2l0,0h8.5c0.6,0,1.1,0.5,1.1,1.2v3.2
				c0,0.7-0.5,1.2-1.1,1.2h-8.5c-0.6,0-1.1-0.5-1.1-1.2l0,0L64.1,39.4L64.1,39.4z M51,39.4c0-0.7,0.5-1.2,1.1-1.2l0,0h8.5
				c0.6,0,1.1,0.5,1.1,1.2v3.2c0,0.7-0.5,1.2-1.1,1.2H52l0,0c-0.6,0-1.1-0.5-1.1-1.2l0,0V39.4L51,39.4z M38.1,39.4
				c0-0.7,0.5-1.2,1.1-1.2l0,0h8.5c0.6,0,1.1,0.5,1.1,1.2v3.2c0,0.7-0.5,1.2-1.1,1.2h-8.5l0,0c-0.6,0-1.1-0.5-1.1-1.2l0,0V39.4
				L38.1,39.4z M31.2,38.2h3.6l0.4,0.2v0.2v12.5c-0.1,2-4,2-4-0.1V38.2z"/>
		</g>
		<g>
			<g>
				
					<rect x="62.4" y="90.3" fill="#29ABE2" stroke="#29ABE2" stroke-width="0.216" stroke-miterlimit="22.9256" width="13.2" height="10.4"/>
				
					<rect x="76.8" y="90.3" fill="#29ABE2" stroke="#29ABE2" stroke-width="0.216" stroke-miterlimit="22.9256" width="13" height="10.5"/>
				
					<rect x="48.8" y="90.3" fill="#29ABE2" stroke="#29ABE2" stroke-width="0.216" stroke-miterlimit="22.9256" width="12.9" height="10.5"/>
			</g>
			<path fill="#29ABE2" stroke="#29ABE2" stroke-width="0.216" stroke-miterlimit="22.9256" d="M38.8,111.1c3.5,0,6.3,2.8,6.3,6.3
				c0,3.4-2.8,6.3-6.3,6.3s-6.3-2.8-6.3-6.3S35.3,111.1,38.8,111.1L38.8,111.1z M38.8,113.7c-2,0-3.6,1.6-3.6,3.6s1.6,3.6,3.6,3.6
				c2,0,3.6-1.6,3.6-3.6C42.4,115.4,40.8,113.7,38.8,113.7z"/>
			<path fill="#29ABE2" stroke="#29ABE2" stroke-width="0.216" stroke-miterlimit="22.9256" d="M72.5,110.9c3.4,0,6.3,2.8,6.3,6.3
				c0,3.4-2.8,6.3-6.3,6.3c-3.5,0-6.3-2.8-6.3-6.3S69.1,110.9,72.5,110.9L72.5,110.9z M72.5,113.6c-2,0-3.6,1.6-3.6,3.6
				c0,2,1.6,3.6,3.6,3.6c2,0,3.6-1.6,3.6-3.6C76.2,115.2,74.5,113.6,72.5,113.6z"/>
			<path fill="#29ABE2" stroke="#29ABE2" stroke-width="0.216" stroke-miterlimit="22.9256" d="M79.8,114.3l11.3,0v-12.6H48
				c0-4.9,0.1-10,0-14.9c0-0.4-0.4-1-0.9-1c-3-0.1-6-0.1-9,0c-0.3,0-0.6,0.1-0.7,0.4c-1.5,3.4-3,6.9-4.5,10.3
				c-0.1,0.3-0.4,0.6-0.6,0.9c-0.1,0.2-0.3,0.3-0.5,0.5c-1,0.9-2.1,1.7-3.1,2.6c-0.2,0.2-0.4,0.5-0.5,0.7c-0.2,0.3-0.3,0.6-0.4,1
				c0,0.2,0.1,0.5,0.1,0.7l2.5,9.6h-2.8v2l4,0.1c1.1-2.8,4.1-4.7,7.2-4.7c3.1,0,6,1.8,7.2,4.5l19.5,0c1.2-2.6,4.1-4.6,7.3-4.6
				C75.8,109.7,78.7,111.6,79.8,114.3L79.8,114.3z M35.2,97.7l3.8-9.2h6.6v9.2H35.2z"/>
		</g>
	</g>
	<g>
		<path fill="#FFFFFF" stroke="#FFFFFF" stroke-width="0.216" stroke-miterlimit="22.9256" d="M142.8,51.7c-1.3-1.4-2.3-2.8-2.9-4.4
			c-0.7-1.5-1.1-3.4-1.3-5.5h7.9c1.7,0,3.6,0,5.6,0.1v-3c-2,0.1-3.9,0.2-5.6,0.3h-8.1c0-1.6,0-3.3,0.1-5.1c0.1-1.8,0.3-3.1,0.6-4.1
			c-1.3-0.1-2.6-0.2-3.7-0.4c0.1,1.1,0.2,2.2,0.2,3.3c0,1.1,0.1,3.3,0.1,6.3H128c-2.1-0.1-3.9-0.2-5.3-0.3v3
			c1.4-0.1,3.2-0.1,5.3-0.1h7.5c-0.1,1.8-0.5,3.6-1.2,5.4c-0.7,1.8-1.7,3.4-3,5c-1.2,1.5-2.7,2.9-4.5,4c-1.7,1.1-3.7,2.1-5.9,2.9
			c1,1,1.8,2,2.4,3c2-1.2,3.7-2.3,5.1-3.3c1.4-1.1,2.6-2.1,3.7-3.2c1.1-1.1,2-2.3,2.7-3.6s1.5-2.9,2.3-4.7c0.7,1.6,1.5,3.2,2.4,4.6
			c0.9,1.4,1.9,2.7,2.9,3.9c1.1,1.2,2.2,2.2,3.5,3.2s2.7,1.9,4.1,2.8c0.7-1.3,1.5-2.4,2.6-3.3c-2-0.8-3.9-1.7-5.5-3
			C145.6,54.4,144.1,53.1,142.8,51.7z"/>
		<path fill="#FFFFFF" stroke="#FFFFFF" stroke-width="0.216" stroke-miterlimit="22.9256" d="M198.8,45.2h2.7
			c-0.1-1.4-0.1-2.8-0.1-4.2v-4.3c0-1.7,0-3.2,0.1-4.3h-2.7c0.1,1.2,0.1,2.6,0.1,4.3V41C198.9,42.3,198.9,43.7,198.8,45.2z"/>
		<path fill="#FFFFFF" stroke="#FFFFFF" stroke-width="0.216" stroke-miterlimit="22.9256" d="M207.2,48.8c0.6-0.7,0.9-1.8,0.8-3.5
			V34.8c0-1.7,0-3.4,0.1-4.9h-2.7c0.1,1.5,0.1,3.2,0.1,4.9v9.8c0,1.2-0.1,1.9-0.4,2.3c-0.2,0.4-1.3,0.5-3.2,0.4
			c0.5,1,0.9,1.9,1.3,2.9C205.2,49.9,206.6,49.4,207.2,48.8z"/>
		<path fill="#FFFFFF" stroke="#FFFFFF" stroke-width="0.216" stroke-miterlimit="22.9256" d="M261.5,53.1h-7.9v-5.5h5
			c1.6,0,3.3,0,5,0.1v-3c-1.7,0.2-3.4,0.3-5,0.3h-5c0-2,0-3.6,0.1-4.8h-3.2c0.1,1.4,0.1,3,0.1,4.8h-7.6c2.7-3.7,4.5-6.3,5.3-7.6h13
			c1.5,0,3.3,0,5.2,0.1v-3c-1.9,0.2-3.6,0.3-5.2,0.3h-11.5c0.7-1.3,1.6-2.8,2.9-4.5c-1.2-0.4-2.5-0.9-3.9-1.4
			c-0.5,1.7-1.3,3.7-2.4,5.9c-4.6,0-7.9-0.1-10-0.3v3c2.1-0.1,4.9-0.1,8.5-0.1c-1.1,1.8-2.2,3.5-3.5,5c-1.2,1.5-2.4,2.4-3.3,2.7
			c0.4,0.9,0.8,2,1.2,3.3c1.5-0.5,3-0.7,4.3-0.8c1.3,0,3.7-0.1,7-0.1V53h-9.8c-1.7,0-3.5,0-5.2-0.1v3c1.8-0.2,3.5-0.3,5.2-0.3h9.8
			c0,2.9,0,5.1-0.1,6.8h3.2c-0.1-1.5-0.1-3.8-0.1-6.8h7.9c1.6,0,3.4,0.1,5.2,0.3v-3C264.9,53,263.2,53.1,261.5,53.1z"/>
		<path fill="#FFFFFF" stroke="#FFFFFF" stroke-width="0.216" stroke-miterlimit="22.9256" d="M177.4,48.8c1,0.6,1.8,1.2,2.4,2
			c1.3-1,2.6-2.1,3.7-3.4c1.1-1.3,1.8-3.1,2.2-5.4h4.7v1.7c0,1.3,0,2.8-0.1,4.5h2.7c-0.1-1.2-0.1-2.7-0.1-4.3V42c1.3,0,2.7,0,4,0.1
			v-2.5c-1.3,0.1-2.7,0.1-4,0.1v-5.8c0.9,0,1.9,0,3.2,0.1v-2.4c-1.4,0.1-2.7,0.1-3.7,0.1H184c-1.7,0-3.3,0-4.7-0.1V34
			c1.4-0.1,2.8-0.1,4.2-0.1c0,1.9,0,3.9-0.1,5.9c-1.9,0-3.7,0-5.5-0.1v2.5c1.6-0.1,3.4-0.1,5.2-0.1c-0.3,1.5-0.8,2.8-1.7,3.7
			C180.6,46.7,179.2,47.7,177.4,48.8z M186.1,33.9h4.5v5.9h-4.6C185.9,38.6,186,36.6,186.1,33.9z"/>
		<path fill="#FFFFFF" stroke="#FFFFFF" stroke-width="0.216" stroke-miterlimit="22.9256" d="M195.7,59v-4.6h6.2
			c1.6,0,3.2,0,4.6,0.1v-2.4c-1.4,0.1-3,0.1-4.6,0.1h-6.2c0-0.9,0-1.9,0.1-3.2H193c0.1,1.2,0.1,2.3,0.1,3.2h-5.6
			c-1.9,0-3.7,0-5.3-0.1v2.4c1.6-0.1,3.4-0.1,5.3-0.1h5.6V59h-10c-1.8,0-3.5,0-4.9-0.1v2.4c1.4-0.1,3.1-0.1,4.9-0.1h22.9
			c1.7,0,3.3,0,4.6,0.1v-2.4c-1.4,0.1-3,0.1-4.7,0.1H195.7z"/>
	</g>
	<g>
		<path fill="#FFFFFF" stroke="#FFFFFF" stroke-width="0.216" stroke-miterlimit="22.9256" d="M164.3,111.4V109h5.8
			c1.1,0,2.3,0,3.6,0.1v-2.3c-1.2,0.1-2.4,0.1-3.6,0.1h-5.8v-2.4h6.3c1.3,0,2.7,0,4.2,0.1v-2.3c-1.6,0.1-3,0.1-4.2,0.1h-6.3v-1.7
			h6.6c-0.1-0.8-0.1-1.8-0.1-3.2c0-1.4,0-2.4,0.1-3.1h-22.2c0.1,0.7,0.1,1.7,0.1,3.1c0,1.4,0,2.5-0.1,3.2h6.6v1.7h-5.9
			c-1.7,0-3.3,0-4.6-0.1v2.3c1.4-0.1,2.9-0.1,4.3-0.1h6.2v2.4h-5.2c-1.5,0-3,0-4.3-0.1v2.3c1.4-0.1,2.9-0.1,4.3-0.1h5.2v2.4h-7.2
			c-1.5,0-2.9,0-4.2-0.1v2.3c1.2-0.1,2.6-0.1,4.2-0.1h7.2c0,0.8,0,1.7-0.1,2.9h2.6v-15.6h4v15.7h2.6c-0.1-1-0.1-2-0.1-3h8.1
			c0.9,0,1.9,0,3.2,0.1v-2.3c-1.1,0.1-2.2,0.1-3.2,0.1L164.3,111.4L164.3,111.4z M151.3,98.7v-2.3h17v2.3H151.3z"/>
		<path fill="#FFFFFF" stroke="#FFFFFF" stroke-width="0.216" stroke-miterlimit="22.9256" d="M161.4,90.3v-2.6h6.9
			c1.2,0,2.4,0,3.7,0.1v-2.3c-1.3,0.1-2.6,0.1-3.7,0.1h-6.9c0-0.9,0-1.8,0.1-2.9h-2.7c0.1,1.1,0.1,2,0.1,2.9h-7.1
			c0.4-0.7,1-1.2,1.7-1.7c-1.1-0.5-2-1-2.9-1.4c-0.4,0.9-0.9,1.8-1.5,2.7c-0.6,0.9-1.4,1.8-2.2,2.7c0.7,0.5,1.3,1,2,1.6
			c0.7-0.7,1.2-1.3,1.6-1.7h8.4v2.6h-9.7c-2,0-3.9,0-5.6-0.1v2.3c1.7-0.1,3.6-0.1,5.6-0.1h20.9c2,0,3.8,0,5.5,0.1v-2.3
			c-1.6,0.1-3.5,0.1-5.5,0.1H161.4z"/>
		<path fill="#FFFFFF" stroke="#FFFFFF" stroke-width="0.216" stroke-miterlimit="22.9256" d="M239.8,92.6c2.2,0,4.1,0,5.8,0.1V90
			c-2.2,0.1-4.2,0.1-5.9,0.1h-10.4c0.3-1,0.6-1.9,0.8-3c0.2-1,0.7-2.1,1.4-3.2c-1.3-0.2-2.7-0.5-4-0.9c-0.2,1.6-0.4,2.9-0.6,3.9
			c-0.2,1-0.4,2-0.7,3.2h-5.8c-2.3,0-4.4,0-6.2-0.1v2.7c1.8-0.1,3.8-0.1,6-0.1h5.2c-0.7,1.7-1.5,3.4-2.4,5c-0.9,1.6-2,3-3.2,4.4
			c-1.2,1.3-2.4,2.5-3.5,3.5c-1.2,1-2.3,1.8-3.3,2.4c0.9,0.5,1.8,1.2,2.7,2.3c1.2-1,2.2-1.9,3.1-2.7c0.9-0.9,1.8-1.9,2.7-3v6.8
			c0,1.4,0,3-0.1,4.7h3v-2.6h13.8v2.6h3c-0.1-1.9-0.1-3.6-0.1-5.2v-6.5c0-1.7,0-3.4,0.1-4.9h-16c1.4-2.3,2.5-4.6,3.2-6.8L239.8,92.6
			L239.8,92.6z M238.2,101.9v9.1h-13.8v-9.1H238.2z"/>
	</g>
</g>
</svg>
