<?xml version="1.0" encoding="utf-8"?>
<!-- Generator: Adobe Illustrator 18.1.1, SVG Export Plug-In . SVG Version: 6.00 Build 0)  -->
<svg version="1.1" id="图层_1" xmlns="http://www.w3.org/2000/svg" xmlns:xlink="http://www.w3.org/1999/xlink" x="0px" y="0px"
	 width="299.7" height="100" enable-background="new 0 0 299.7 100" xml:space="preserve">
<g>
	<rect x="2" y="0.6" fill="#29ABE2" width="296.7" height="98.9"/>
	<rect x="25.7" y="15.4" fill="#FFFFFF" width="69.2" height="69.2"/>
	<path fill="#FFFFFF" d="M17.8,4.5h265c6.5,0,11.9,5.3,11.9,11.9v67.2c0,6.6-5.3,11.9-11.9,11.9h-265C11.3,95.5,6,90.2,6,83.6l0,0
		V16.3C6,9.8,11.3,4.5,17.8,4.5L17.8,4.5z M17.8,8.5c-3.7,0-7.9,4.1-7.9,7.9v67.2l0,0c0,3.9,3.6,7.7,7.9,7.9h265
		c4.1,0,7.8-3.7,7.9-7.9V16.3c0-4.2-3.8-7.8-7.9-7.9L17.8,8.5L17.8,8.5z"/>
	<path fill="#29ABE2" stroke="#29ABE2" stroke-width="0.216" stroke-miterlimit="22.9256" d="M35.3,31.8v39.9h3.6V35l6.9,7.7
		l28.7,10c0.5,0.1,0.9,0.2,1.4,0.2c2.4,0,4.3-2,4.3-4.3c0-1.6-0.9-3.1-2.4-3.9L51.5,27.5L35.3,31.8L35.3,31.8z M44.8,31.6
		c-1,1.4-1.5,3.1-1.6,4.8L40.1,33L44.8,31.6L44.8,31.6z M77.1,48c0,1.2-1,2.2-2.1,2.2c-1.2,0-2.1-1-2.1-2.2c0-1.2,1-2.2,2.1-2.2
		C76.1,45.8,77.1,46.8,77.1,48L77.1,48z M69.2,41.9c-1.9,1.3-2.9,3.6-2.5,5.9L61.9,46c0-0.3-0.1-0.6-0.1-1c0-2.4,1-4.6,2.8-6.1
		L69.2,41.9L69.2,41.9z M59.9,35.9c-3.1,1.3-4.7,4.8-3.4,8l-7.1-2.3c0-0.3,0-0.6,0-0.9c0-3.5,1.7-6.8,4.6-8.7L59.9,35.9z"/>
	<g>
		<path fill="#FFFFFF" stroke="#FFFFFF" stroke-width="0.216" stroke-miterlimit="22.9256" d="M133.4,64.6V53.1h2.9
			c2,0,4.1,0.1,6.4,0.2v-2.9c-2.4,0.1-4.5,0.2-6.4,0.2h-2.9v-8.7h3.1c2,0,4.4,0.1,7.2,0.2V39c-2.6,0.1-5,0.2-7,0.2h-9.3
			c-2.2,0-4.4-0.1-6.5-0.2V42c2.2-0.1,4.3-0.2,6.4-0.2h2.9v8.7h-2.3c-2.1,0-4,0-5.9-0.2v2.9c1.9-0.1,3.8-0.2,5.7-0.2h2.5v11.5h-4.1
			c-3,0-5.4-0.1-7-0.2v2.9c1.8-0.1,4-0.2,6.9-0.2h11.6c2.4,0,5,0.1,7.8,0.2v-2.9c-2.8,0.1-5.5,0.2-8,0.2H133.4z"/>
		<path fill="#FFFFFF" stroke="#FFFFFF" stroke-width="0.216" stroke-miterlimit="22.9256" d="M182.9,44c2.3,0,4.4,0.1,6.4,0.2v-2.6
			c-2,0.1-4.1,0.2-6.4,0.2h-4.7c0.4-1,1-2,1.8-2.9c-1.1-0.3-2.3-0.7-3.6-1c-0.5,2-1,3.3-1.3,3.9h-10c0.8-0.4,1.6-0.8,2.5-1.2
			c-0.8-1-1.3-1.9-1.7-2.8c-1.1,0.4-2,0.9-2.8,1.5c0.4,0.8,0.9,1.6,1.5,2.5h-5c-2.2,0-4.2-0.1-6.2-0.2v2.6c1.9-0.1,3.9-0.2,6.2-0.2
			L182.9,44L182.9,44z"/>
		<path fill="#FFFFFF" stroke="#FFFFFF" stroke-width="0.216" stroke-miterlimit="22.9256" d="M276.8,59.5c-0.3,2.4-0.7,3.7-1.2,3.9
			c-0.4,0.2-1-1-1.6-3.5c-0.6-2.5-0.9-4.9-1-7s-0.1-4.8-0.2-8.2s0-7.2,0.2-11.3h-26.9c0.1,1.6,0.2,4.3,0.2,7.9c0,3.6-0.1,7-0.3,10.1
			c-0.2,3-0.7,5.8-1.6,8.2c-0.8,2.5-1.9,4.5-3.3,6.1c0.9,0.8,1.8,1.7,2.8,2.8c1.7-2.3,2.9-4.8,3.7-7.5c0.8-2.7,1.4-5.5,1.6-8.2
			c0.3-2.7,0.4-8.3,0.4-16.7h20.1c0,8.1,0,13.5,0.2,16.4c0.1,2.9,0.4,5.6,1,8.1c0.5,2.5,1.4,4.4,2.5,5.7c1.1,1.3,2.2,1.8,3.3,1.4
			c1.2-0.4,2.3-2.5,3.3-6.3C278.9,61.2,277.8,60.4,276.8,59.5z"/>
		<path fill="#FFFFFF" stroke="#FFFFFF" stroke-width="0.216" stroke-miterlimit="22.9256" d="M109.3,45.9c2.3,1.3,4.4,2.8,6.4,4.6
			c0.7-1.2,1.4-2.1,2.1-2.8c-2-1.3-4.1-2.7-6.6-4.2C110.6,44.4,110,45.2,109.3,45.9z"/>
		<path fill="#FFFFFF" stroke="#FFFFFF" stroke-width="0.216" stroke-miterlimit="22.9256" d="M116.7,40.3c0.7-0.9,1.5-1.7,2.5-2.5
			c-1.5-1.4-3.5-3-5.9-4.9c-0.8,0.9-1.5,1.6-2.3,2.3C113,36.6,114.9,38.3,116.7,40.3z"/>
		<path fill="#FFFFFF" stroke="#FFFFFF" stroke-width="0.216" stroke-miterlimit="22.9256" d="M134.3,36.7c-0.9-2.1-1.7-3.9-2.5-5.4
			c-1.1,0.4-2.2,0.8-3.3,1c0.9,1.6,1.6,3.5,2.3,5.6C132,37.2,133.1,36.8,134.3,36.7z"/>
		<path fill="#FFFFFF" stroke="#FFFFFF" stroke-width="0.216" stroke-miterlimit="22.9256" d="M181.1,37.4c1.9,0,3.7,0.1,5.6,0.2V35
			c-1.7,0.1-3.5,0.2-5.6,0.2h-7.2c-0.2-0.9-0.6-2.2-1-4.1c-1.2,0.2-2.4,0.4-3.4,0.7c0.3,1.3,0.7,2.5,1,3.4h-9.3
			c-1.8,0-3.8,0-6.1-0.2v2.6c2.2-0.1,4.2-0.2,6.1-0.2L181.1,37.4L181.1,37.4z"/>
		<path fill="#FFFFFF" stroke="#FFFFFF" stroke-width="0.216" stroke-miterlimit="22.9256" d="M262.8,51.3c0.9-1.7,1.8-3.4,2.6-5.4
			c0.9-2,1.6-3.4,2.3-4.2c-1.3-0.5-2.5-1.2-3.6-1.8c-1.1,3.8-2.2,6.8-3.4,9c-2.2-2.8-4.4-5.5-6.5-7.8c-0.8,0.8-1.7,1.5-2.6,2.1
			c2.6,2.6,5,5.5,7.2,8.5c-1.1,1.8-2.5,3.3-4.1,4.8c-1.7,1.5-3.3,2.7-4.9,3.7c1,0.7,1.9,1.5,2.8,2.6c1.8-1.4,3.3-2.8,4.6-4.2
			c1.3-1.4,2.6-2.8,3.8-4.3c0.7,1,1.4,2.2,2.2,3.8c0.8,1.5,1.6,3.1,2.2,4.7c1.1-0.7,2.2-1.3,3.3-1.8c-1.4-2.6-2.6-4.7-3.6-6.2
			C263.9,53.2,263.2,52.1,262.8,51.3z"/>
		<path fill="#FFFFFF" stroke="#FFFFFF" stroke-width="0.216" stroke-miterlimit="22.9256" d="M112.5,60.4c-1.2,2.7-2.4,4.7-3.4,5.9
			c1.4,0.7,2.7,1.4,3.9,2.3c0.3-1.2,1-3.3,2.1-6.4s1.9-5.1,2.5-6.1c-1-0.5-1.9-1.2-2.8-2C114.4,55.7,113.6,57.7,112.5,60.4z"/>
		<path fill="#FFFFFF" stroke="#FFFFFF" stroke-width="0.216" stroke-miterlimit="22.9256" d="M226.4,42.6v-4.6
			c2.7,0,4.8,0.1,6.2,0.2v-2.5c-1.3,0.1-3.4,0.2-6.2,0.2c0-2.1,0-3.6,0.2-4.6h-2.9c0.1,1.1,0.2,2.6,0.2,4.6h-5.1
			c0-1.9,0.1-3.3,0.2-4.3h-2.9c0.1,1.1,0.2,2.5,0.2,4.3c-1.8,0-3.4-0.1-5.1-0.2v2.5c1.5-0.1,3.2-0.2,5.1-0.2v4.6h-2.3
			c-1.4,0-2.9,0-4.6-0.2v2.5c1.5-0.1,3-0.2,4.6-0.2h6.1v3.1h-8.3c0.1,1.4,0.2,3.6,0.2,6.7c0,3-0.1,5.1-0.2,6.2h19.8
			c-0.1-1.4-0.2-3.6-0.2-6.5s0.1-5,0.2-6.5h-8.9v-3.1h7.5c1.7,0,3.2,0.1,4.7,0.2v-2.5c-1.4,0.1-3,0.2-4.7,0.2L226.4,42.6L226.4,42.6
			z M219.8,58.7h-5.6v-3.3h5.6V58.7z M219.8,53.3h-5.6V50h5.6V53.3z M228.5,58.7h-6.1v-3.3h6.1V58.7z M228.5,50v3.3h-6.1V50
			L228.5,50L228.5,50z M223.7,42.6h-5.1v-4.6h5.1V42.6z"/>
		<path fill="#FFFFFF" stroke="#FFFFFF" stroke-width="0.216" stroke-miterlimit="22.9256" d="M158.8,46.9c0.1,2,0.2,3.9,0.2,5.9
			c0,2-0.1,4-0.2,6.1h24.7c-0.1-2.1-0.2-4.1-0.2-6c0-1.9,0.1-3.9,0.2-6L158.8,46.9L158.8,46.9z M180.4,56.5h-18.3v-2.5h18.3V56.5z
			 M180.4,51.8h-18.3v-2.6h18.3V51.8z"/>
		<path fill="#FFFFFF" stroke="#FFFFFF" stroke-width="0.216" stroke-miterlimit="22.9256" d="M216.7,61.4c-1.7,1.4-3,2.5-4.1,3.1
			c-1.1,0.7-2.4,1.3-3.9,2c0.7,0.8,1.2,1.6,1.7,2.5c1.5-0.8,3-1.6,4.6-2.6c1.5-1,2.9-1.8,4.2-2.5C218.3,63.1,217.4,62.3,216.7,61.4z
			"/>
		<path fill="#FFFFFF" stroke="#FFFFFF" stroke-width="0.216" stroke-miterlimit="22.9256" d="M210.5,52.6c-1.2-1.6-2.4-3.1-3.4-4.6
			c-0.7,0.7-1.4,1.3-2.1,1.8c1.1,1.3,2.2,2.8,3.3,4.6C208.8,53.8,209.6,53.2,210.5,52.6z"/>
		<path fill="#FFFFFF" stroke="#FFFFFF" stroke-width="0.216" stroke-miterlimit="22.9256" d="M225.4,61.6c-0.4,0.9-1,1.7-1.6,2.5
			c1.5,0.8,2.6,1.3,3.2,1.6s2.2,1.4,4.8,3.3c0.4-0.8,1.1-1.6,2-2.5c-1.6-1.1-3.1-2-4.5-2.8C227.8,63,226.6,62.3,225.4,61.6z"/>
		<path fill="#FFFFFF" stroke="#FFFFFF" stroke-width="0.216" stroke-miterlimit="22.9256" d="M204.9,42.6c1.2,0,2.5,0.1,3.9,0.2
			v-2.6c-1.4,0.1-2.7,0.2-3.9,0.2v-4.2c0-1.5,0.1-3,0.2-4.4h-2.9c0.1,1.8,0.2,3.2,0.2,4.4v4.2c-2,0-3.5,0-4.7-0.2v2.6
			c1.2-0.1,2.6-0.2,4.4-0.2c-0.4,2.6-1.1,5.1-2.1,7.4c-0.9,2.3-2.1,4.4-3.5,6.4c0.8,0.8,1.4,1.7,2,2.6c0.9-1.5,1.6-3,2.3-4.3
			s1.2-2.8,1.6-4.5v13.4c0,2.2-0.1,4-0.2,5.6h2.9c-0.1-1.6-0.2-3.5-0.2-5.6V49.8L204.9,42.6L204.9,42.6z"/>
		<path fill="#FFFFFF" stroke="#FFFFFF" stroke-width="0.216" stroke-miterlimit="22.9256" d="M153.4,67.8c0.7,0.2,1.6,0.5,2.8,1
			c1.1-2.5,2.1-4.7,3.1-6.5c-1.1-0.3-2.1-0.7-3.1-1C155.3,64,154.4,66.2,153.4,67.8z"/>
		<path fill="#FFFFFF" stroke="#FFFFFF" stroke-width="0.216" stroke-miterlimit="22.9256" d="M171.6,64.7c0.8-0.3,1.7-0.7,2.8-1
			c-0.5-0.8-1.2-2.1-1.8-3.9c-1.2,0.3-2.1,0.7-2.8,1.2C170.7,62.8,171.3,64.1,171.6,64.7z"/>
		<path fill="#FFFFFF" stroke="#FFFFFF" stroke-width="0.216" stroke-miterlimit="22.9256" d="M176.3,66.3h-9
			c-1.1,0-1.7-0.2-1.7-0.7s-0.1-1-0.1-1.6c0-0.6,0.1-1.5,0.2-2.7h-3.4c0.1,1.4,0.2,2.6,0.2,3.5c0,0.9,0.1,1.8,0.2,2.5
			c0.1,0.8,1,1.2,2.8,1.3H177c1.3,0.1,2.2-0.1,2.7-0.6c0.5-0.5,1.1-1.7,1.7-3.5c-1.4-0.4-2.5-0.9-3.3-1.5
			C177.7,65,177.1,66.1,176.3,66.3z"/>
		<path fill="#FFFFFF" stroke="#FFFFFF" stroke-width="0.216" stroke-miterlimit="22.9256" d="M182.5,62.3c2.2,2.6,3.7,4.5,4.6,5.6
			c0.8-0.5,1.6-1.2,2.5-1.8c-1-1.2-2.5-3-4.6-5.6C183.9,61.1,183.1,61.7,182.5,62.3z"/>
	</g>
</g>
</svg>
