<?xml version="1.0" encoding="utf-8"?>
<!-- Generator: Adobe Illustrator 18.1.1, SVG Export Plug-In . SVG Version: 6.00 Build 0)  -->
<svg version="1.1" id="图层_1" xmlns="http://www.w3.org/2000/svg" xmlns:xlink="http://www.w3.org/1999/xlink" x="0px" y="0px"
	width="100" height="100" enable-background="new 0 0 100 100" xml:space="preserve">
<g>
	<path fill="#F4AB1C" d="M2.9,83.3l43-75.1c0.9-1.4,2.6-2.5,4.3-2.5c-1.7,0-3.4,1.1-4.3,2.5L2.9,83.3c-2.7,4.7-2.9,8.5,1,9.3l0,0
		C0,91.8,0.2,88,2.9,83.3z"/>
	<path fill="#F4AB1C" d="M9.3,85.4h81.1L49.9,15.1L9.3,85.4z M47.5,81.2h-5.1V41h5.1V81.2z M52.2,40.5h4.1v15l5.8,8v17h-4.6
		l0.1-15.8l-5.4-7.3L52.2,40.5L52.2,40.5z"/>
	<path fill="#010101" d="M96,81.7L53.9,8.2c-1-1.8-2.4-2.5-3.7-2.5c-1.7,0-3.4,1.1-4.3,2.5l-43,75.1c-2.7,4.7-2.9,8.5,1,9.3H95l0,0
		C101.5,92.6,98.9,86.2,96,81.7z M9.3,85.4l40.5-70.3l40.5,70.3H9.3z"/>
	<polygon fill="#010101" points="57.5,80.5 62.1,80.5 62.1,63.5 56.3,55.5 56.3,40.5 52.2,40.5 52.2,57.4 57.7,64.7 	"/>
	<rect x="42.5" y="41" fill="#010101" width="5.1" height="40.2"/>
</g>
</svg>
