<?xml version="1.0" encoding="utf-8"?>
<!-- Generator: Adobe Illustrator 18.1.1, SVG Export Plug-In . SVG Version: 6.00 Build 0)  -->
<svg version="1.1" id="图层_1" xmlns="http://www.w3.org/2000/svg" xmlns:xlink="http://www.w3.org/1999/xlink" x="0px" y="0px"
	 width="348" height="100" enable-background="new 0 0 348 100" xml:space="preserve">
<g>
	<rect x="0.4" y="0.6" fill="#29ABE2" width="347.6" height="99.3"/>
	<path fill="#FFFFFF" d="M16.3,4.6h315.9c6.6,0,11.9,5.4,11.9,11.9v67.6c0,6.6-5.3,11.9-11.9,11.9H16.3C9.7,96,4.4,90.6,4.4,84.1v0
		V16.5C4.4,9.9,9.7,4.6,16.3,4.6L16.3,4.6z M16.3,8.5c-4.3,0-7.9,3.5-7.9,7.9V84v0c0,4.4,3.6,7.9,7.9,7.9h315.9
		c4.4,0,7.9-3.6,7.9-7.9V16.5c0-4.3-3.5-7.9-7.9-7.9H16.3z"/>
	<g>
		<rect x="24.2" y="15.5" fill="#FFFFFF" width="69.5" height="69.6"/>
		<path fill="#29ABE2" stroke="#29ABE2" stroke-width="0.216" stroke-miterlimit="22.9256" d="M46,71.8c0-4.1-3.3-7.4-7.4-7.4
			s-7.4,3.3-7.4,7.4s3.3,7.4,7.4,7.4C42.7,79.1,46,75.8,46,71.8z"/>
		<path fill="#29ABE2" stroke="#29ABE2" stroke-width="0.216" stroke-miterlimit="22.9256" d="M41.4,71.8c0-1.6-1.3-2.8-2.8-2.8
			s-2.8,1.3-2.8,2.8c0,1.6,1.3,2.8,2.8,2.8C40.2,74.6,41.4,73.3,41.4,71.8z"/>
		<path fill="#29ABE2" stroke="#29ABE2" stroke-width="0.216" stroke-miterlimit="22.9256" d="M64.6,76.6c0-1.7-1.4-3-3-3
			s-3,1.4-3,3c0,1.7,1.4,3,3,3C63.3,79.6,64.6,78.2,64.6,76.6z"/>
		<path fill="#29ABE2" stroke="#29ABE2" stroke-width="0.216" stroke-miterlimit="22.9256" d="M62.8,76.6c0-0.7-0.5-1.2-1.2-1.2
			c-0.6,0-1.2,0.5-1.2,1.2c0,0.7,0.5,1.2,1.2,1.2C62.3,77.8,62.8,77.2,62.8,76.6z"/>
		<path fill="#29ABE2" stroke="#29ABE2" stroke-width="0.216" stroke-miterlimit="22.9256" d="M85.7,72.7c0-1.6-1.4-3-3-3
			c-1.7,0-3,1.4-3,3c0,1.6,1.4,3,3,3C84.4,75.7,85.7,74.4,85.7,72.7z"/>
		<g>
			
				<rect x="28.3" y="47" fill="#29ABE2" stroke="#29ABE2" stroke-width="0.216" stroke-miterlimit="22.9256" width="13" height="8.5"/>
			
				<rect x="24.5" y="47" fill="#29ABE2" stroke="#29ABE2" stroke-width="0.216" stroke-miterlimit="22.9256" width="2.1" height="8.5"/>
			
				<rect x="43" y="47" fill="#29ABE2" stroke="#29ABE2" stroke-width="0.216" stroke-miterlimit="22.9256" width="13" height="8.5"/>
		</g>
		<path fill="#29ABE2" stroke="#29ABE2" stroke-width="0.216" stroke-miterlimit="22.9256" d="M24.4,68.7l0-11.5H56v11.5h-9.2
			c-1.3-3.5-4.5-5.7-8.2-5.7s-7,2.3-8.2,5.7H24.4z"/>
		<path fill="#29ABE2" stroke="#29ABE2" stroke-width="0.216" stroke-miterlimit="22.9256" d="M52.7,77l-0.4-0.5l0.5-0.5l0.5-2.9
			l9.6-3l3.9-5.3l12.9-2.4l4.1,3.9l6.8-0.5l2.5,3l-4.7,1.8L85.9,71c-0.6-1.1-1.8-1.8-3-1.8c-1.7,0-3.2,1.2-3.5,3l-14.6,2.7
			c-0.6-1.1-1.8-1.8-3-1.8c-1.7,0-3.2,1.3-3.5,3L52.7,77z"/>
		<polygon fill="#FFFFFF" points="63.8,69.8 66.9,65.5 79.5,63.1 82.8,66.3 		"/>
		<path fill="#FFFFFF" stroke="#FFFFFF" stroke-width="0.216" stroke-miterlimit="22.9256" d="M57.4,71.6c-1.6,0.6-3.3-0.6-3.3-2.3
			c0-0.7,0.3-1.3,0.7-1.7c-1.2-1.7,0-4,2.1-4c0.1,0,0.2,0,0.3,0c-1-1.8,0.3-4.1,2.4-4.1c0.9,0,1.8,0.5,2.3,1.3
			c1.9-0.3,3.7,1.2,3.7,3.1c0,1-0.5,1.9-1.2,2.5c0.9,0.5,1.3,1.5,1.3,2.4c0,1.6-1.3,3-3,3c-0.5,0-1-0.2-1.5-0.4
			C60.9,73.3,58.1,73.5,57.4,71.6L57.4,71.6z"/>
		<line fill="none" stroke="#29ABE2" stroke-width="0.432" stroke-miterlimit="22.9256" x1="70.6" y1="68.5" x2="70" y2="64.9"/>
		<line fill="none" stroke="#29ABE2" stroke-width="0.432" stroke-miterlimit="22.9256" x1="76.7" y1="67.4" x2="76" y2="63.8"/>
		<path fill="#29ABE2" stroke="#29ABE2" stroke-width="0.216" stroke-miterlimit="22.9256" d="M83.9,72.7c0-0.6-0.5-1.2-1.2-1.2
			c-0.7,0-1.2,0.5-1.2,1.2c0,0.6,0.5,1.2,1.2,1.2C83.4,73.9,83.9,73.3,83.9,72.7z"/>
		<polygon fill="#29ABE2" stroke="#29ABE2" stroke-width="0.216" stroke-miterlimit="22.9256" points="58.3,60.7 60.4,52.8 
			59.2,61.9 		"/>
		<polygon fill="#29ABE2" stroke="#29ABE2" stroke-width="0.216" stroke-miterlimit="22.9256" points="55.1,69.2 48.2,72.7 
			55.1,70.3 		"/>
		<polygon fill="#29ABE2" stroke="#29ABE2" stroke-width="0.216" stroke-miterlimit="22.9256" points="63.1,62.6 68.9,56.8 
			63.1,64.1 		"/>
		<g>
			<path fill="#29ABE2" stroke="#29ABE2" stroke-width="0.216" stroke-miterlimit="5" d="M61.1,42c-0.4,0-0.7,0-1-0.1
				s-0.4-0.1-0.4-0.2s0.1-0.2,0.4-0.2s0.6-0.1,1-0.1c0.4,0,0.7,0,1,0.1s0.4,0.1,0.4,0.2s-0.1,0.2-0.4,0.2C61.8,42,61.5,42,61.1,42z
				 M61.5,40.7v0.2h-0.8v-0.2c0-0.4-0.1-0.7-0.3-1.1c-0.3-0.4-0.4-0.7-0.4-0.8c0-0.1,0.1-0.2,0.2-0.3c0.2-0.1,0.4-0.1,0.8-0.1
				c0.5,0,0.7,0,0.9,0.1c0.1,0.1,0.2,0.2,0.2,0.2c0,0.2-0.1,0.5-0.3,0.8C61.6,40,61.5,40.3,61.5,40.7z"/>
		</g>
	</g>
	<g>
		<path fill="#FFFFFF" stroke="#FFFFFF" stroke-width="0.216" stroke-miterlimit="22.9256" d="M276.2,38.8c-1.4-1.6-2.9-3.2-4.4-4.9
			c-0.8,0.7-1.7,1.4-3,2.1c1.6,1.5,3,3.2,4.4,5.1C274.1,40.2,275.1,39.5,276.2,38.8z"/>
		<path fill="#FFFFFF" stroke="#FFFFFF" stroke-width="0.216" stroke-miterlimit="22.9256" d="M215.5,48h15.3
			c-0.1-2.2-0.2-3.9-0.2-5.1v-4c0-1.5,0-3.3,0.2-5.2h-24.2c0.1,2.1,0.2,3.8,0.2,5.2v3.6c0,1.6,0,3.5-0.2,5.4h5.1
			c-1.3,1.9-3,3.5-5.1,4.8c-2.1,1.3-4,2.3-5.7,2.8c0.9,1,1.7,1.9,2.5,2.8c1.6-0.9,3-1.6,4-2.3c1-0.7,2-1.3,2.9-2h5.1
			c-2.1,2.3-4.2,4.1-6.4,5.3c-2.2,1.2-4.2,2.1-6.1,2.4c0.8,0.5,1.6,1.5,2.6,2.8c2-1,3.5-1.8,4.7-2.6c1.2-0.7,2.4-1.6,3.8-2.6
			s3-2.8,4.9-5.3h4c-1.1,2-2.3,3.7-3.5,5.1c-1.2,1.4-2.7,2.6-4.3,3.7s-3.4,2-5.4,2.9c-2,0.9-4.2,1.6-6.5,2c1.1,0.9,1.9,1.9,2.3,3
			c3.3-1.1,6-2.2,8.2-3.4c2.2-1.2,4-2.4,5.6-3.8c1.6-1.4,2.9-2.9,4-4.5c1.2-1.6,2.2-3.2,3.2-4.9h3.8l-1.3,9.5
			c-0.3,1.3-1.2,2.1-2.5,2.2c-1.3,0.2-3,0.2-5.1,0.1c0.7,0.8,1.2,2,1.6,3.8c2.4-0.1,4.4-0.4,6-1c1.6-0.5,2.6-1.6,2.9-3.3l1.2-8.7
			c0.3-2.3,0.6-4,0.8-5.2h-21.2C213.8,50.2,214.8,49,215.5,48z M209.8,36.3h17.9v3.1h-17.9V36.3z M209.8,45.4v-3.3h17.9v3.3H209.8z"
			/>
		<path fill="#FFFFFF" stroke="#FFFFFF" stroke-width="0.216" stroke-miterlimit="22.9256" d="M322.4,60.8c-1.1,0.5-2.1,1-3,1.5
			c1.6,3.3,2.6,6,3.3,8.2c1.6-0.8,2.7-1.2,3.5-1.5C325,66.7,323.7,64,322.4,60.8z"/>
		<path fill="#FFFFFF" stroke="#FFFFFF" stroke-width="0.216" stroke-miterlimit="22.9256" d="M182.1,61.7c1.6-2.8,2.6-6,3.3-9.4
			c0.7-3.5,1.1-6.4,1.3-8.9c1.6,0,3,0,4.4,0.2v-2.8c-1.6,0.1-3.6,0.2-5.7,0.2h-7.6c0.5-1.4,1.1-2.8,1.6-4.2c0.5-1.4,1-2.3,1.4-2.9
			c-1.3-0.4-2.6-0.9-3.8-1.5c-0.8,3.7-1.9,7.3-3.3,10.8c-1.4,3.5-2.7,5.8-3.8,7c0.8,0.8,1.5,1.7,2.1,3c0.7-1.2,1.3-2.5,2-3.8
			c0.3,1.9,0.8,3.8,1.3,5.8s1.4,4.2,2.6,6.5c-1.4,1.6-3.2,2.8-5.2,3.8c-2.1,1-4,1.6-5.9,2c1.1,1.1,1.9,2.2,2.5,3.3
			c1.9-0.8,3.8-1.7,5.7-2.8c1.9-1.1,3.7-2.3,5.2-3.6c1.3,1.2,2.7,2.3,4.1,3.2c1.4,0.9,3.1,1.8,4.9,2.7c0.5-1.4,1.3-2.6,2.3-3.6
			c-1.4-0.2-3-0.7-4.6-1.4C185.2,64.3,183.7,63.2,182.1,61.7z M178.1,53.8c-0.6-2.1-1.1-4.4-1.6-7.1l-1.2,0.3c0.4-1,0.9-2.2,1.5-3.6
			h6.8c-0.1,2.8-0.5,5.7-1.1,8.6c-0.6,2.9-1.4,5.2-2.4,7C179.4,57.6,178.7,55.8,178.1,53.8z"/>
		<path fill="#FFFFFF" stroke="#FFFFFF" stroke-width="0.216" stroke-miterlimit="22.9256" d="M321.1,58.9c-0.1-2-0.2-4.1-0.2-6.4
			c0-2.3,0-4.4,0.2-6.3h-12.8V41H319c1.7,0,3.5,0,5.2,0.2V38c-1.9,0.1-3.6,0.2-5.2,0.2h-10.7c0-2.3,0-4,0.2-5.2h-3.6
			c0.1,1.3,0.2,2.8,0.2,4.4v8.9h-9.7c0.1,1.7,0.2,3.8,0.2,6.2c0,2.4,0,4.5-0.2,6.5H321.1z M298.8,49h18.9v7.1h-18.9V49z"/>
		<path fill="#FFFFFF" stroke="#FFFFFF" stroke-width="0.216" stroke-miterlimit="22.9256" d="M309.9,62.3c1.1,3.1,2,5.7,2.6,7.9
			c1-0.4,2.1-0.9,3.3-1.3c-0.4-1.1-1.5-3.7-3.1-7.9C311.5,61.5,310.6,62,309.9,62.3z"/>
		<path fill="#FFFFFF" stroke="#FFFFFF" stroke-width="0.216" stroke-miterlimit="22.9256" d="M268.6,62.8c1.4-1.6,2.7-3.4,3.8-5.5
			c1.2-2.1,2.1-4.5,2.9-7.1h-15.6c0.8-1.6,1.4-3.3,2-4.9h13c1.4,0,3.2,0,5.2,0.2v-2.8c-2.1,0.1-3.8,0.2-5.2,0.2h-12.3
			c0.5-2.3,0.9-4,1.2-5.2c0.2-1.2,0.7-2.3,1.3-3.5c-1.4-0.1-2.8-0.4-4.1-1c-0.3,3.2-0.9,6.4-1.6,9.7h-8c0.7-1.4,1.2-2.6,1.8-3.7
			c0.5-1,1.2-1.9,1.8-2.5c-1.7-0.5-3.1-1.2-4.1-1.8c-0.4,2.2-1,4-1.6,5.3c-0.6,1.4-1.4,2.4-2.6,3.2c0.7,1,1.2,2.1,1.8,3.3
			c1-0.5,2.2-0.9,3.7-1.1c1.5-0.2,3.6-0.2,6.3-0.2c-1.1,3.3-2.5,6.1-4.2,8.3c-1.7,2.3-3.3,4-4.9,5.3c-1.6,1.3-3.1,2.5-4.8,3.5
			c1.3,0.9,2.4,1.7,3.1,2.6c1.7-1.4,3.6-3.1,5.4-5.1c1.9-2,3.7-4.4,5.4-7.2h0.3c1.3,4.5,2.9,7.8,4.8,10c-1.7,1-3.8,1.8-6.1,2.6
			c-2.3,0.7-4.9,1.3-7.9,1.7c1.1,1.2,1.9,2.4,2.3,3.6c2.6-0.8,5.1-1.6,7.5-2.4c2.4-0.9,4.6-1.9,6.6-3.1c1.7,1.1,3.7,2,5.7,2.7
			c2.1,0.7,4.7,1.4,7.9,2.1c0.4-1.4,1.1-2.7,2-3.8c-2.1-0.1-4.3-0.4-6.6-0.8C272.6,64.6,270.5,63.9,268.6,62.8z M263.9,57.6
			c-0.7-1.2-1.3-2.9-2-5h9.4c-1.2,3.3-2.9,6-5.1,8.2C265.3,60,264.5,58.9,263.9,57.6z"/>
		<path fill="#FFFFFF" stroke="#FFFFFF" stroke-width="0.216" stroke-miterlimit="22.9256" d="M301,62.8c0.7,3.8,1,6.3,1,7.2
			c1.1-0.3,2.3-0.6,3.6-0.8c-0.3-1.3-0.8-3.7-1.3-7.2C303.1,62.2,302.1,62.5,301,62.8z"/>
		<path fill="#FFFFFF" stroke="#FFFFFF" stroke-width="0.216" stroke-miterlimit="22.9256" d="M169.3,64.9c-0.1-2-0.2-4.4-0.2-7.4
			s0-5.4,0.2-7.2h-5.1v-6.9c3.3,0,5.7,0,7.4,0.2v-3c-1.6,0.1-4.1,0.2-7.4,0.2v-3.6c0-1.6,0.1-3,0.3-4.4h-3.5
			c0.1,1.4,0.2,2.8,0.2,4.3v3.8c-3.3,0-5.7,0-7.2-0.2v3c1.6-0.1,4-0.2,7.2-0.2v6.9H156c0.1,2,0.2,4.6,0.2,8s0,6.1-0.2,8.1h3.1v-3.5
			h7.1v2L169.3,64.9L169.3,64.9z M159.1,60.3V53h7.1v7.4H159.1z"/>
		<path fill="#FFFFFF" stroke="#FFFFFF" stroke-width="0.216" stroke-miterlimit="22.9256" d="M142.3,51.3h-13.5v-2.1h11.8
			c-0.1-1.3-0.2-2.7-0.2-4.1c0-1.4,0-2.7,0.2-3.8h-11.8v-2.6h11.3c1.7,0,3.6,0,5.6,0.2v-2.6c-2,0.1-3.8,0.2-5.6,0.2h-11.3
			c0-1.5,0.1-2.7,0.3-3.6h-3.6c0.1,1.2,0.2,2.4,0.2,3.6h-11.8c-1.6,0-3.3,0-4.9-0.2v2.6c1.6-0.1,3.3-0.2,5.1-0.2h11.7v2.6h-12
			c0.1,1.1,0.2,2.3,0.2,3.7c0,1.4,0,2.8-0.2,4.2h12v2.1h-9.4c-1.2,0-2.5,0-3.9-0.2v2.6c1.4-0.1,2.7-0.2,3.9-0.2h9.4v2.5h-12.2
			c-1.4,0-2.8,0-4.3-0.2v2.6c1.4-0.1,2.8-0.2,4.3-0.2h12.2v2.6h-9c-1.2,0-2.6,0-4.3-0.2v2.6c1.6-0.1,3.1-0.2,4.3-0.2h9v2.8
			c0,0.7-0.3,1-0.9,1c-0.6,0-1.9,0-3.8-0.2c0.8,1.3,1.2,2.6,1.5,3.9c2.3-0.3,4-0.7,4.9-1c1-0.4,1.5-1.3,1.5-2.7v-3.8h10.2v2h3.3
			c-0.1-1.6-0.2-4-0.2-7.1c1.6,0,3,0,4.1,0.2V56c-1.1,0.1-2.5,0.2-4.1,0.2C142.2,54,142.2,52.4,142.3,51.3z M128.9,43.6h8.5v3.3
			h-8.5V43.6z M125.7,46.9h-8.9v-3.3h8.9V46.9z M139.1,61h-10.2v-2.6H139L139.1,61L139.1,61z M139.1,56.1h-10.2v-2.5H139L139.1,56.1
			L139.1,56.1z"/>
		<path fill="#FFFFFF" stroke="#FFFFFF" stroke-width="0.216" stroke-miterlimit="22.9256" d="M289.7,68.9c1.3,0.4,2.5,1,3.6,1.6
			c0.7-1.6,2-4.6,4.1-8.9c-1.4-0.2-2.7-0.5-3.8-1C292.3,64.5,291,67.2,289.7,68.9z"/>
	</g>
</g>
</svg>
