<?xml version="1.0" encoding="utf-8"?>
<!-- Generator: Adobe Illustrator 18.1.1, SVG Export Plug-In . SVG Version: 6.00 Build 0)  -->
<svg version="1.1" id="图层_1" xmlns="http://www.w3.org/2000/svg" xmlns:xlink="http://www.w3.org/1999/xlink" x="0px" y="0px"
	 width="299.7" height="100" enable-background="new 0 0 299.7 100" xml:space="preserve">
<g>
	<rect x="0.6" y="0.5" fill="#29ABE2" width="298.4" height="99.5"/>
	<path fill="#FFFFFF" d="M16.5,4.5h266.6c6.6,0,11.9,5.3,11.9,11.9v67.7c0,6.6-5.3,12-11.9,12H16.5c-6.6,0-11.9-5.3-11.9-12l0,0
		V16.4C4.6,9.8,10,4.5,16.5,4.5L16.5,4.5z M16.5,8.5c-3.7,0-7.9,4.1-7.9,7.9v67.7l0,0c0,3.9,3.7,7.8,7.9,8h266.6
		c4.1,0,7.8-3.8,7.9-8V16.4c0-4.2-3.8-7.8-7.9-7.9L16.5,8.5L16.5,8.5z"/>
	<g>
		<rect x="24.2" y="15.5" fill="#FFFFFF" width="69.4" height="69.4"/>
		<polygon fill="#29ABE2" stroke="#29ABE2" stroke-width="0.216" stroke-miterlimit="22.9256" points="24.1,77.4 50.8,56.4 
			77.2,56.4 92.7,29.4 92.7,77.4 		"/>
		<polygon fill="#29ABE2" stroke="#29ABE2" stroke-width="0.216" stroke-miterlimit="22.9256" points="87.3,25.9 86.1,24.2 
			77.7,36.9 77.9,31.8 76,34.7 75.8,41.4 80.4,41.2 82.2,38.5 78.9,38.7 		"/>
		<polygon fill="#29ABE2" stroke="#29ABE2" stroke-width="0.216" stroke-miterlimit="22.9256" points="44,53.1 43.3,50.9 32.5,58.4 
			33.9,53.8 31.5,55.5 29.8,61.5 34.1,63.6 36.4,62.1 33.2,60.6 		"/>
	</g>
	<g>
		<path fill="#FFFFFF" stroke="#FFFFFF" stroke-width="0.216" stroke-miterlimit="22.9256" d="M113.5,41c-0.8-1.6-1.8-4.1-3-7.4
			c-0.9,0.2-1.9,0.5-3,1c1.5,3.9,2.4,6.4,2.6,7.4C111.4,41.6,112.5,41.2,113.5,41z"/>
		<path fill="#FFFFFF" stroke="#FFFFFF" stroke-width="0.216" stroke-miterlimit="22.9256" d="M112.8,62.2v-10
			c0-1.4,0.1-3.2,0.2-5.3h-3.1c-1.3,0-2.9,0-4.6-0.2v3.1c1.6-0.2,3.1-0.3,4.4-0.3v13.3c-1,0.8-2.7,2.2-5.3,4.4
			c1.1,0.7,2.2,1.4,3.3,2.3c1-1.4,1.9-2.7,2.7-3.7c0.8-1,2-1,3.5,0c1.5,1,3.6,1.8,6.2,2.3c2.6,0.5,5.6,0.8,9,0.8
			c3.3,0.1,7.2,0.1,11.4,0.1c0.2-1.3,0.7-2.6,1.5-3.8c-3.6,0.3-8.7,0.6-15.1,0.7C120.5,66.1,115.8,64.9,112.8,62.2z"/>
		<path fill="#FFFFFF" stroke="#FFFFFF" stroke-width="0.216" stroke-miterlimit="22.9256" d="M157,46.9c-0.9,1.8-1.8,3.4-2.9,4.9
			c-1,1.5-2.1,2.4-3.2,2.7c0.3,0.9,0.8,2,1.3,3.5c1.9-0.5,3.7-0.9,5.3-1.2c1.7-0.2,3.2-0.4,4.5-0.5c0-0.8,0.2-1.7,0.5-2.8
			c-3.6,0.4-5.9,0.7-6.7,0.8c2.7-4.8,4.7-8.3,5.8-10.4c1.2-2.1,1.9-3.4,2.4-3.7c-1.4-0.4-2.7-0.9-3.8-1.3c-0.3,1.5-1,3.5-2,5.8h-4.4
			c1.2-2.4,2.3-4.7,3.3-6.9c1-2.2,2-3.8,3-4.8c-1.5-0.2-2.9-0.6-4.1-1.2c-0.9,2.8-1.9,5.5-3.1,8.1c-1.2,2.5-2.3,4.2-3.3,4.9
			c0.4,1.1,0.9,2.1,1.3,3.1C152.3,47.4,154.4,47,157,46.9z"/>
		<path fill="#FFFFFF" stroke="#FFFFFF" stroke-width="0.216" stroke-miterlimit="22.9256" d="M183,43.8c-0.3,0.7-0.8,2-1.5,4
			c0.9,0.1,1.9,0.4,3,0.8c0.3-1.3,1-3.7,2.1-7.2h-9.4v-3.5h4.6c1.8,0,3.5,0.1,5.1,0.2v-2.8c-1.6,0.1-3.4,0.2-5.3,0.2h-4.4
			c0-1.5,0.1-2.9,0.2-4.1h-3.3c0.1,1.4,0.2,2.8,0.2,4.1h-3.5c-2,0-3.7-0.1-5.3-0.2v2.8c1.6-0.1,3.4-0.2,5.3-0.2h3.5v3.5h-3.1
			c-2,0-3.9-0.1-5.8-0.2V44c1.9-0.1,3.8-0.2,5.8-0.2L183,43.8L183,43.8z"/>
		<path fill="#FFFFFF" stroke="#FFFFFF" stroke-width="0.216" stroke-miterlimit="22.9256" d="M167.2,47.1c1.3,0.9,2.9,2.2,4.8,3.9
			c0.8-0.9,1.5-1.6,2.3-2.3c-3-2.2-4.7-3.5-5.1-3.8C168.6,45.6,168,46.3,167.2,47.1z"/>
		<path fill="#FFFFFF" stroke="#FFFFFF" stroke-width="0.216" stroke-miterlimit="22.9256" d="M169.5,56.2c0.8-0.9,1.5-1.6,2.3-2.3
			c-1.2-1-2.9-2.4-5.1-4.3c-0.5,0.9-1.2,1.6-2,2.3C165.8,52.5,167.4,54,169.5,56.2z"/>
		<path fill="#FFFFFF" stroke="#FFFFFF" stroke-width="0.216" stroke-miterlimit="22.9256" d="M127.2,64.7h3.3
			c-0.1-2.3-0.2-4.9-0.2-7.7c6.6,0,10.4,0.1,11.4,0.2V54c-1.5,0.2-5.3,0.3-11.4,0.3v-5.3c4.9,0,7.9,0.1,8.9,0.3v-3.1
			c-0.8,0.1-3.7,0.2-8.9,0.2c0-2.2,0.1-3.6,0.3-4.3H127c0.1,1,0.2,2.4,0.3,4.3h-6.3c1.9-3.3,3.2-5.4,4-6.4h11.4
			c1.8,0,3.1,0.1,4.1,0.2v-3.1c-1.4,0.1-2.7,0.2-4,0.3h-10.2c1.1-2.2,2-3.5,2.6-3.9c-1.1-0.3-2.4-0.8-3.9-1.5
			c-0.4,1.3-1.2,3.1-2.1,5.4c-3.7-0.1-6-0.2-6.9-0.3v3.1c1-0.1,2.8-0.2,5.6-0.2c-0.8,1.2-1.5,2.4-2.3,3.5c-0.8,1.2-1.6,2.1-2.6,2.7
			l1.2,3.3c0.7-0.2,2.1-0.4,4.4-0.5h5v5.3c-5.2,0-9.4-0.1-12.7-0.2v3c1.2-0.1,5.4-0.2,12.7-0.2C127.3,59.9,127.3,62.5,127.2,64.7z"
			/>
		<path fill="#FFFFFF" stroke="#FFFFFF" stroke-width="0.216" stroke-miterlimit="22.9256" d="M254.7,55.7c-1.8,0.7-3.4,1.2-4.9,1.6
			v-12c1.4,0,3,0.1,4.8,0.2v-3c-1.8,0.1-3.3,0.2-4.8,0.2v-5.3c0-1.3,0.1-3.2,0.2-5.6h-3.3c0.1,2.5,0.2,4.4,0.2,5.8v5.1
			c-1.8,0-3.3-0.1-4.6-0.2v3c1.4-0.1,3-0.2,4.8-0.2v12.8c-2.1,0.7-3.8,1.2-5.3,1.5c0.7,1,1.2,2,1.6,3.1c2-1,3.8-1.8,5.6-2.5
			c1.8-0.7,3.7-1.3,5.8-1.8C254.7,57.4,254.7,56.4,254.7,55.7z"/>
		<path fill="#FFFFFF" stroke="#FFFFFF" stroke-width="0.216" stroke-miterlimit="22.9256" d="M202.8,33.9c-2.2,0-4.3-0.1-6.4-0.2
			v3.5c2.1-0.1,4.2-0.2,6.4-0.2h8.9v25.5c0,1.8-0.1,3.6-0.2,5.6h3.8c-0.1-2.2-0.2-4.1-0.2-5.6V37.1h11.4c1.8,0,3.8,0.1,6.1,0.2v-3.5
			c-2.2,0.1-4.3,0.2-6.2,0.2L202.8,33.9L202.8,33.9z"/>
		<path fill="#FFFFFF" stroke="#FFFFFF" stroke-width="0.216" stroke-miterlimit="22.9256" d="M274.4,64.7c-1.5-0.7-2.9-1.6-4.2-3
			c1.4-2,2.5-4.1,3.3-6.3c0.8-2.2,1.4-5,2-8.3h-6.9v-7.2h5.7c-0.3,1.3-0.7,2.6-1.2,3.9c1.1,0.1,2.2,0.3,3.3,0.5
			c0.3-1.6,0.9-4,1.6-7.1h-9.5c0-2.9,0.1-4.9,0.2-6.3h-3.3c0.1,1.3,0.2,3.4,0.2,6.3H257c0.1,2,0.2,4.9,0.2,8.9c0,4-0.2,7.1-0.7,9.4
			c-0.5,2.3-1.2,4.4-2.1,6.2c-0.9,1.8-2.2,3.5-3.7,5c1.2,0.3,2.2,1,3,2.1c1.5-2,3-4.4,4.3-7.3c1.3-2.9,2.1-6.8,2.3-11.8h1.5
			c0.5,5,2.1,9,4.6,12c-0.9,0.8-2.1,1.6-3.6,2.5c-1.5,0.9-3.4,1.7-5.6,2.4c1,0.8,1.8,1.6,2.5,2.6c2.2-1.1,4-2.1,5.4-3
			c1.4-0.9,2.5-1.7,3.3-2.4c1.8,1.6,3.3,2.8,4.6,3.5c1.3,0.7,2.6,1.3,4,1.9c0.7-1.1,1.5-2.1,2.6-3.1
			C277.5,65.9,275.8,65.4,274.4,64.7z M260.3,47.1v-7.2h5.3v7.2H260.3z M264.8,49.7h6.9c-0.2,2.1-0.6,3.9-1.2,5.5
			c-0.5,1.6-1.3,3-2.1,4.4C266.4,57.2,265.2,53.9,264.8,49.7z"/>
		<path fill="#FFFFFF" stroke="#FFFFFF" stroke-width="0.216" stroke-miterlimit="22.9256" d="M162.9,60.9c-2.2,0.3-4.2,0.6-6.1,0.9
			s-4.1,0.5-6.6,0.7c0.5,1.1,1,2.3,1.3,3.6c1.8-0.6,3.8-1.1,6.1-1.6c2.3-0.5,4-0.7,5.1-0.7C162.8,63,162.8,62,162.9,60.9z"/>
		<path fill="#FFFFFF" stroke="#FFFFFF" stroke-width="0.216" stroke-miterlimit="22.9256" d="M220.1,43.5c-1,1-1.9,1.9-2.8,2.6
			c4.9,4.7,8.3,8.2,10.2,10.5c0.8-1,1.8-1.9,3.1-2.8C226.9,49.6,223.4,46.1,220.1,43.5z"/>
		<path fill="#FFFFFF" stroke="#FFFFFF" stroke-width="0.216" stroke-miterlimit="22.9256" d="M181.2,59.4c2.4,0,4.4,0,6.1,0.2v-2.8
			c-1.8,0.1-3.8,0.2-6.1,0.2h-3.3c0.2-2.3,0.3-4.2,0.3-5.6c0-1.4,0.2-3.2,0.7-5.4c-1.4,0-2.6-0.2-3.6-0.5c0,2.1,0,4,0,5.8
			c0,1.8-0.1,3.7-0.3,5.7h-3.8c-2.2,0-4.3-0.1-6.3-0.2v2.8c2-0.1,4.1-0.2,6.3-0.2h3.1c-0.7,1.3-1.7,2.6-3.2,3.8
			c-1.5,1.2-4.4,2.1-8.8,2.6c1.2,1.1,2.1,2.2,2.6,3.5c4.2-1.6,7-3,8.5-4c1.5-1,2.9-3,4.2-5.8L181.2,59.4L181.2,59.4z"/>
		<path fill="#FFFFFF" stroke="#FFFFFF" stroke-width="0.216" stroke-miterlimit="22.9256" d="M177.6,64.1c1.5,0.7,4.3,2.3,8.2,4.9
			c0.5-0.9,1.3-1.8,2.1-2.8c-1.5-0.9-4.4-2.5-8.7-4.8C178.9,62.1,178.3,63,177.6,64.1z"/>
	</g>
</g>
</svg>
