<?xml version="1.0" encoding="utf-8"?>
<!-- Generator: Adobe Illustrator 18.1.1, SVG Export Plug-In . SVG Version: 6.00 Build 0)  -->
<svg version="1.1" id="图层_1" xmlns="http://www.w3.org/2000/svg" xmlns:xlink="http://www.w3.org/1999/xlink" x="0px" y="0px"
	 width="348" height="100" enable-background="new 0 0 348 100" xml:space="preserve">
<g>
	<rect x="0" y="0.7" fill="#29ABE2" width="348" height="99.4"/>
	<path fill="#FFFFFF" d="M15.9,4.7h316.2c6.6,0,11.9,5.4,11.9,11.9v67.7c0,6.6-5.3,11.9-11.9,11.9H15.9C9.4,96.2,4,90.9,4,84.3v-0.1
		V16.6C4,10,9.4,4.7,15.9,4.7L15.9,4.7z M15.9,8.7c-4.3,0-8,3.5-8,8v67.6v0c0,4.4,3.6,8,8,8h316.2c4.4,0,8-3.6,8-8V16.6
		c0-4.4-3.5-8-8-8L15.9,8.7L15.9,8.7z"/>
	<rect x="23.9" y="15.6" fill="#FFFFFF" width="69.6" height="69.6"/>
	<g>
		<path fill="#29ABE2" stroke="#29ABE2" stroke-width="0.216" stroke-miterlimit="22.9256" d="M34.3,80.1v-35
			c0-32.5,48.6-32.4,48.6,0v35h-5.1V44.8c0-10.6-8.6-19.2-19.2-19.2c-10.6,0-19.2,8.6-19.2,19.2V80L34.3,80.1L34.3,80.1z"/>
		<path fill="#29ABE2" stroke="#29ABE2" stroke-width="0.216" stroke-miterlimit="22.9256" d="M40.8,80.1V45.4c0-24,36-24,36,0v34.6
			L65.5,61V45.4c0-3.7-3-6.7-6.7-6.7s-6.7,3-6.7,6.7V61L40.8,80.1z"/>
		<polygon fill="#29ABE2" stroke="#29ABE2" stroke-width="0.216" stroke-miterlimit="22.9256" points="75.7,80.1 41.9,80.1 53.1,61 
			64.4,61 		"/>
	</g>
	<g>
		<path fill="#FFFFFF" stroke="#FFFFFF" stroke-width="0.216" stroke-miterlimit="22.9256" d="M212.7,26.1c-1.2-1.9-2.3-3.7-3.5-5.3
			c-0.9,0.6-1.8,1.2-2.7,1.7c1.2,1.4,2.3,3.2,3.3,5.2C210.6,27.1,211.6,26.6,212.7,26.1z"/>
		<path fill="#FFFFFF" stroke="#FFFFFF" stroke-width="0.216" stroke-miterlimit="22.9256" d="M133.7,47.8c-0.6-1-1.4-2.6-2.3-4.6
			c-1,0.5-1.9,0.9-2.7,1.3c1.2,2.2,2,3.7,2.3,4.6C132,48.6,132.9,48.2,133.7,47.8z"/>
		<path fill="#FFFFFF" stroke="#FFFFFF" stroke-width="0.216" stroke-miterlimit="22.9256" d="M143.3,26.5c-1.6-1.3-3-2.7-4.2-4.2
			l0.6-0.7c-1.6-0.7-2.7-1.2-3.3-1.4c-2,3.5-3.8,5.9-5.4,7.5c-1.6,1.6-3.1,2.8-4.6,3.8c-1.5,1-2.8,1.8-4.1,2.4
			c0.9,0.8,1.6,1.6,2.3,2.4c1.4-1,3.1-2.2,4.9-3.5v2.6c1.8-0.2,4.3-0.3,7.3-0.3v4.7h-4.9c-1.2,0-2.8,0-4.7-0.2v2.6
			c1.9-0.1,3.5-0.2,4.9-0.2h4.7V50H130c-1.8-0.1-3.7-0.2-5.5-0.2v2.6c1.7-0.1,3.5-0.2,5.5-0.2h16.8c1.6,0,3.5,0,5.5,0.2v-2.6
			c-2,0-4.5,0-7.3,0.2c1.4-2.8,2.5-4.7,3.1-5.6c-1.8-0.7-3-1.2-3.5-1.4c-0.4,1.4-1.2,3.8-2.3,7.1h-2.9v-7.9h4.9c1.7,0,3.5,0,5.3,0.2
			v-2.6c-1.9,0-3.7,0-5.3,0.2h-4.9v-4.7h3.3c1.2,0,2.7,0.1,4.6,0.3v-2.6c1.8,1,3.8,1.8,6.1,2.4c0.3-1,0.9-2.1,1.7-3.2
			c-1.8-0.4-3.8-1.1-6.1-2.1C146.8,28.9,144.9,27.8,143.3,26.5z M142.2,32.7h-8.4c-1.2,0-2.7,0-4.3-0.2c1.7-1.4,3.2-2.8,4.4-4
			c1.2-1.2,2.4-2.8,3.7-4.7c1,1.4,2.3,2.8,3.7,4.2c1.4,1.4,3.3,2.8,5.8,4.4C145.3,32.6,143.7,32.6,142.2,32.7z"/>
		<path fill="#FFFFFF" stroke="#FFFFFF" stroke-width="0.216" stroke-miterlimit="22.9256" d="M251.4,29.3c-0.5-2.4-0.9-4.3-1.2-5.7
			c-0.8,0.2-1.6,0.3-2.4,0.4c0.6,2.3,1,4.2,1.2,5.7C249.7,29.5,250.5,29.4,251.4,29.3z"/>
		<path fill="#FFFFFF" stroke="#FFFFFF" stroke-width="0.216" stroke-miterlimit="22.9256" d="M294.5,23.9c-0.8-1-1.6-2.2-2.6-3.5
			c-0.8,0.6-1.5,1.1-2.1,1.6c1,1.2,1.8,2.3,2.4,3.5C293,25,293.7,24.5,294.5,23.9z"/>
		<path fill="#FFFFFF" stroke="#FFFFFF" stroke-width="0.216" stroke-miterlimit="22.9256" d="M251.5,32.5c0.9,0.6,1.5,1.2,1.9,2
			c1.4-0.7,2.7-1.4,4.2-2.3c0.2,0.3,0.4,0.7,0.6,1.2c-0.9,1-1.8,1.8-2.7,2.6c-1,0.8-2,1.4-3,2c0.9,0.5,1.5,1,1.9,1.6
			c1.7-1.2,3.4-2.8,5-4.7c0.2,0.6,0.5,1.3,0.9,2.2c-1.4,1.8-2.6,3.3-3.9,4.3c-1.2,1-2.6,2-4,2.7c1,0.4,1.7,1,2.2,1.9
			c1.3-1,2.5-1.9,3.5-3c1-1,1.9-2.1,2.8-3.4c0.1,2.7,0.1,4.4,0.1,5c0,0.6-0.3,1-0.9,1.2c-0.5,0.2-1.6,0.2-3.2,0.2
			c0.6,1.2,0.9,2.2,1,3.2c1.7-0.3,3-0.7,4-1.2c0.9-0.5,1.4-1.6,1.4-3c0-1.5,0-3.4-0.2-5.7c1.6,1.6,3,3.5,4,5.6
			c0.7-0.8,1.4-1.4,2.3-1.9c-1-1.2-2.1-2.4-3-3.3c-1-1-2-1.9-3.1-2.7c1-0.9,2-1.6,2.9-2.3c0.9-0.7,1.7-1.2,2.4-1.4
			c-0.9-0.5-1.8-1.1-2.7-1.9c-0.4,0.9-1.6,2.3-3.6,4.3c-0.7-1.6-1.6-3-2.9-4.5c0.9-0.6,1.8-1.5,2.9-2.7h3c1.4,0,2.6,0,3.6,0.2v-2.3
			c-1.4,0.1-3.1,0.2-4.9,0.2c0.7-2.2,1.4-3.7,2-4.5c-1-0.3-2.1-0.6-3-1c0,1.2-0.4,3-1.3,5.5h-4.3c-1.6,0-3,0-4.3-0.2v2.3
			c1.6-0.1,3.7-0.2,6.3-0.2c-0.9,0.9-1.9,1.6-3,2.3C255,31.2,253.4,31.9,251.5,32.5z"/>
		<path fill="#FFFFFF" stroke="#FFFFFF" stroke-width="0.216" stroke-miterlimit="22.9256" d="M282.3,29.3c-0.6-2.3-1.2-4.4-1.9-6.3
			c-0.9,0.4-1.9,0.7-3,0.9c0.9,2.6,1.5,4.7,1.9,6.5C280.3,29.8,281.3,29.5,282.3,29.3z"/>
		<path fill="#FFFFFF" stroke="#FFFFFF" stroke-width="0.216" stroke-miterlimit="22.9256" d="M259.1,24.5c-0.6-1-1.2-2.1-2-3.3
			c-0.8,0.4-1.5,0.7-2.2,1c1,1.4,1.6,2.4,2,3.3C257.5,25.1,258.2,24.8,259.1,24.5z"/>
		<path fill="#FFFFFF" stroke="#FFFFFF" stroke-width="0.216" stroke-miterlimit="22.9256" d="M177.9,27.4h9.6l-0.2,5.5
			c0,1-0.2,1.7-0.6,1.9c-0.4,0.2-1.6,0.3-3.6,0.2c0.5,1,0.8,2,1,3c2-0.2,3.5-0.5,4.3-0.9c0.9-0.4,1.4-1.3,1.4-2.5l0.4-9.5h-8.9
			c0.2-1.4,0.6-2.5,1.3-3.5c-1.2-0.3-2.4-0.6-3.5-0.9c-0.2,1.8-0.4,3.3-0.7,4.3h-3.6c0.2,1.4,0.3,2.9,0.3,4.5V37
			c0,0.9-0.1,2.5-0.3,4.9h14.4l-0.4,6.9c-0.1,1.4-0.4,2.3-1,2.5c-0.6,0.2-2.1,0.3-4.5,0.1c0.5,1,0.9,2.1,1.2,3.3
			c2.4-0.2,4.1-0.5,5.2-0.8c1-0.3,1.7-1.9,2-4.5l0.7-9.8h-14.7V27.4H177.9z"/>
		<path fill="#FFFFFF" stroke="#FFFFFF" stroke-width="0.216" stroke-miterlimit="22.9256" d="M282,47.4v-8.2c0-1.7,0-3.3,0.2-4.9
			h-3c-1.2,0-2.4,0-3.9-0.2v2.6c1.2-0.1,2.6-0.2,4-0.2v10.8c-1.7,1.7-3.3,3.1-4.6,4c0.9,0.6,1.7,1.3,2.4,2.2c1-1.4,2-2.5,2.7-3.3
			c0.8-0.8,1.7-0.7,2.9,0.1c1.2,0.8,2.3,1.4,3.5,1.9c1.2,0.4,2.6,0.7,4.4,0.9c1.8,0.2,4,0.3,6.6,0.3c2.6,0,5.8,0,9.6-0.1
			c0.2-1.2,0.5-2.3,1-3.5c-3.1,0.5-7.5,0.7-13.4,0.7C288.4,50.7,284.3,49.6,282,47.4z"/>
		<path fill="#FFFFFF" stroke="#FFFFFF" stroke-width="0.216" stroke-miterlimit="22.9256" d="M260.4,50.3c-1.4,0-3.1-0.2-5.2-0.6
			c-2.1-0.4-3.5-1-4-2v-8.6c0-2,0-3.5,0.2-4.6h-4.6v2h2.2v11.4c-1.6,0.7-3.1,1.6-4.6,2.9c0.9,0.6,1.6,1.3,2,2.1
			c0.7-0.9,1.5-1.7,2.4-2.4c0.9-0.7,1.7-0.8,2.4-0.3c0.7,0.5,1.4,1,2.2,1.4s2.7,0.7,5.7,0.9c3,0.2,6.3,0.2,9.9,0.2
			c0.1-1.2,0.4-2.2,0.9-3c-1.9,0.4-3.6,0.6-5,0.7C263.2,50.2,261.8,50.3,260.4,50.3z"/>
		<path fill="#FFFFFF" stroke="#FFFFFF" stroke-width="0.216" stroke-miterlimit="22.9256" d="M300.1,25.7c0.8-2,1.5-3.3,2.2-4
			c-0.9-0.3-1.9-0.7-3-1.2c-0.5,1.6-1.1,3.3-1.9,5.2c-7.1,0-11.4,0-12.8-0.2v2.6c1.4-0.1,4.7-0.2,9.8-0.2l-0.7,2.9h-6.3
			c0.1,2.7,0.2,5.7,0.2,9c0,3.3-0.1,6.1-0.3,8.2h17.6c-0.1-1.8-0.2-4.6-0.2-8.3c0-3.7,0-6.7,0.2-9h-8.2l0.7-2.9
			c5.6,0,9.1,0,10.6,0.2v-2.6C306.4,25.6,303.8,25.7,300.1,25.7z M301.9,45.8h-11.7v-2.9h11.7V45.8z M301.9,40.8h-11.7v-2.7h11.7
			V40.8z M301.9,33.2v2.7h-11.7v-2.7H301.9z"/>
		<path fill="#FFFFFF" stroke="#FFFFFF" stroke-width="0.216" stroke-miterlimit="22.9256" d="M246.1,44.5c0.9-1,1.2-2.6,0.8-4.7
			c-0.4-2.1-1.4-4.1-3.2-6.1c0.7-2,1.3-4.2,1.9-6.4c0.6-2.3,1.1-3.8,1.4-4.5h-9.2c0.1,1.7,0.2,3.9,0.2,6.5V46c0,3,0,5.4-0.2,7.2h2.6
			V24.8h3.6c-0.5,2.4-1.4,5.5-2.7,9.4c1.2,1.6,2.1,3,2.7,4.5c0.6,1.4,0.7,2.7,0.2,3.7c-0.4,1-1.5,1.6-3.1,1.4c0.7,1,1.1,1.9,1.3,2.9
			C244,46.3,245.2,45.6,246.1,44.5z"/>
		<path fill="#FFFFFF" stroke="#FFFFFF" stroke-width="0.216" stroke-miterlimit="22.9256" d="M186.7,45.4c-1.4,0.2-2.8,0.3-4,0.3
			H178c-1.9,0-3.7-0.1-5.2-0.3v2.7c1.4-0.1,3.2-0.2,5.2-0.2h4.6c1.2,0,2.6,0,4,0.2V45.4z"/>
		<path fill="#FFFFFF" stroke="#FFFFFF" stroke-width="0.216" stroke-miterlimit="22.9256" d="M171.6,41c-0.7-1-1.2-1.7-1.4-2.1
			c0.2-0.8,0.4-1.6,0.7-2.5c0.2-0.9,0.5-1.9,0.7-3c0.2-1.1,0.4-2.4,0.7-3.8c0.2-1.4,0.5-2.9,0.7-4.5h-7.5c-1.4,0-2.7-0.1-4-0.3v2.7
			c1.4-0.1,2.8-0.2,4.2-0.2h4.3c-0.2,2-0.4,3.7-0.7,5.1c-0.3,1.4-0.6,2.7-1,4c-0.8-1-1.5-1.9-2.2-2.7c-0.7-0.9-1.4-1.6-1.9-2.3
			c-0.8,0.9-1.4,1.6-2,2c1,1,1.8,1.9,2.5,2.7c0.7,0.9,1.6,1.9,2.5,3c-0.9,1.6-1.8,3.1-2.9,4.5c-1,1.4-2.5,2.8-4.5,4.3
			c1,0.7,1.8,1.4,2.4,2.1c1.4-1.6,2.6-2.9,3.6-4.2c1-1.2,2-2.7,3-4.5c0.5,0.6,0.9,1.2,1.2,1.9c0.3,0.7,0.7,1.5,1.1,2.4
			c0.9-0.7,1.7-1.2,2.6-1.7C172.8,43.1,172.2,42,171.6,41z"/>
		<path fill="#FFFFFF" stroke="#FFFFFF" stroke-width="0.216" stroke-miterlimit="22.9256" d="M216.9,40.2h8.8c1.8,0,3.5,0,4.9,0.2
			v-2.6c-1.4,0.1-3.1,0.2-5.2,0.2h-9v-7.5h7.6c2,0,3.7,0,4.9,0.2V28c-1.6,0.1-3.4,0.2-5.3,0.2h-3.5c0.5-1,1-2,1.7-3
			c0.6-1,1.2-1.8,1.7-2.3c-1.2-0.5-2.4-1-3.6-1.7c-0.3,1.6-1.1,4-2.4,7h-10.5c-1.9,0-3.6,0-5-0.2v2.6c1.4-0.1,3.1-0.2,4.9-0.2h6.9
			v7.5h-8.5c-2.3,0-4,0-5-0.2v2.6c1.4-0.1,3.3-0.2,5.6-0.2h7.5c-1.3,5.3-6.1,9-14.1,11.1c1.2,1,2.1,2,2.6,3
			c7.7-3.5,12.2-7.3,13.7-11.7c3.3,5.3,8,8.9,14.3,10.8c0.6-1.4,1.4-2.5,2.3-3.5C224.8,48.8,219.8,45.6,216.9,40.2z"/>
		<path fill="#FFFFFF" stroke="#FFFFFF" stroke-width="0.216" stroke-miterlimit="22.9256" d="M179.9,30c1,1.6,1.6,3,2,4.2
			c0.7-0.4,1.6-0.8,2.6-1.2c-1-1.8-1.7-3.3-2.2-4.3C181.5,29.2,180.7,29.6,179.9,30z"/>
	</g>
	<g>
		<path fill="#FFFFFF" stroke="#FFFFFF" stroke-width="0.216" stroke-miterlimit="22.9256" d="M174.5,69.1c1.2-1,2.6-2.2,4-3.7
			c1.4-1.4,2.6-2.5,3.5-3.1c-0.9-0.6-1.6-1.2-2.3-1.7c-0.9,1.4-1.9,2.7-3.1,3.9c-1.2,1.2-2.4,2.2-3.7,3
			C173.4,67.8,173.9,68.4,174.5,69.1z"/>
		<path fill="#FFFFFF" stroke="#FFFFFF" stroke-width="0.216" stroke-miterlimit="22.9256" d="M180,77.9c-1-0.7-1.9-1.4-2.6-2.4
			c-0.7-0.9-1.3-2.1-1.7-3.5h5.5c1,0,2.2,0,3.5,0.1v-2c-1,0.1-1.9,0.1-2.9,0.1H170v-7.1c0-0.4,0-1.2,0.1-2.4h-2.2
			c0.1,1.1,0.1,2,0.1,2.6v7h-2.4c-0.8,0-1.7,0-2.9-0.1v2c1.1-0.1,2.1-0.1,3.1-0.1h2.3v7c-0.1,1.1-0.3,1.9-0.8,2.4
			c0.5,0.7,0.9,1.3,1.4,1.9c0.6-0.5,1.5-1.2,2.7-2.2c1.2-0.9,2.4-1.7,3.4-2.4c-0.4-0.7-0.7-1.4-0.8-2.2c-0.7,0.7-2,1.8-4,3.3V72h3.8
			c0.5,1.9,1.1,3.4,1.8,4.4c0.7,1,1.6,2,2.8,2.9c1.2,0.9,2.6,1.8,4.5,2.7c0.5-0.9,1.1-1.7,1.9-2.3C182.7,79.1,181.1,78.5,180,77.9z"
			/>
	</g>
	<g>
		<path fill="#FFFFFF" stroke="#FFFFFF" stroke-width="0.216" stroke-miterlimit="22.9256" d="M211.4,70.6c-0.9,0-1.6,0.1-2.2,0.3
			c-0.5,0.2-1,0.6-1.5,1l0.5-5.3h7.7v-2.2H206l-0.7,10.1h2.3c0.5-0.8,0.9-1.3,1.4-1.6c0.5-0.3,1.1-0.5,1.8-0.5c0.9,0,1.5,0.3,2,1.1
			c0.5,0.7,0.7,1.9,0.7,3.4c0,1.7-0.3,3.1-0.9,3.9c-0.6,0.9-1.4,1.3-2.4,1.3c-1,0-1.8-0.3-2.3-1c-0.5-0.7-0.8-1.6-0.8-2.8h-2.6
			c0.1,1.8,0.6,3.3,1.7,4.4c1,1.1,2.4,1.6,4,1.6c1.8,0,3.3-0.7,4.4-1.9c1.1-1.3,1.7-3.1,1.7-5.4c0-2.1-0.5-3.7-1.4-4.8
			C214.1,71.1,212.9,70.6,211.4,70.6z"/>
		<path fill="#FFFFFF" stroke="#FFFFFF" stroke-width="0.216" stroke-miterlimit="22.9256" d="M261,71.8c-0.5-0.5-1.2-0.7-2.1-0.7
			c-0.6,0-1.2,0.2-1.7,0.5c-0.5,0.3-0.9,0.8-1.3,1.4c-0.2-0.6-0.4-1.1-0.9-1.4c-0.4-0.3-0.9-0.5-1.6-0.5s-1.2,0.2-1.7,0.5
			c-0.5,0.3-1,0.8-1.4,1.4v-1.7h-2.3v12.9h2.3v-7.8c0-0.9,0.2-1.7,0.7-2.3c0.5-0.6,1-0.9,1.5-0.9c0.5,0,0.8,0.2,0.9,0.5
			s0.2,0.7,0.2,1.2v9.3h2.3v-7.8c0-0.9,0.2-1.7,0.7-2.3c0.5-0.6,1-0.9,1.5-0.9c0.5,0,0.8,0.2,0.9,0.5s0.2,0.7,0.2,1.2v9.3h2.3V73.9
			C261.7,73,261.5,72.3,261,71.8z"/>
		<path fill="#FFFFFF" stroke="#FFFFFF" stroke-width="0.216" stroke-miterlimit="22.9256" d="M225.5,64.3c-2.2,0-3.8,1-4.9,3
			c-1,1.9-1.6,4.3-1.6,7.1c0,2.8,0.5,5.1,1.6,7.1c1,2,2.7,3,4.9,3c2.2,0,3.8-1,4.8-3c1-2,1.5-4.4,1.5-7.1c0-2.8-0.5-5.1-1.5-7.1
			C229.3,65.2,227.7,64.3,225.5,64.3z M228.2,80.1c-0.6,1.4-1.5,2.1-2.7,2.1c-1.2,0-2.1-0.7-2.8-2.1c-0.6-1.4-0.9-3.3-0.9-5.8
			c0-2.4,0.3-4.4,0.9-5.7c0.6-1.4,1.6-2.1,2.8-2.1c1.2,0,2.1,0.7,2.7,2.1c0.6,1.4,0.9,3.3,0.9,5.7C229,76.7,228.8,78.7,228.2,80.1z"
			/>
		<path fill="#FFFFFF" stroke="#FFFFFF" stroke-width="0.216" stroke-miterlimit="22.9256" d="M240.2,64.3c-2.2,0-3.8,1-4.9,3
			c-1,1.9-1.6,4.3-1.6,7.1c0,2.8,0.5,5.1,1.6,7.1c1,2,2.7,3,4.9,3c2.2,0,3.8-1,4.8-3c1-2,1.5-4.4,1.5-7.1c0-2.8-0.5-5.1-1.5-7.1
			C244.1,65.2,242.4,64.3,240.2,64.3z M242.9,80.1c-0.6,1.4-1.5,2.1-2.7,2.1s-2.1-0.7-2.8-2.1c-0.6-1.4-0.9-3.3-0.9-5.8
			c0-2.4,0.3-4.4,0.9-5.7c0.6-1.4,1.6-2.1,2.8-2.1c1.2,0,2.1,0.7,2.7,2.1c0.6,1.4,0.9,3.3,0.9,5.7C243.8,76.7,243.5,78.7,242.9,80.1
			z"/>
	</g>
</g>
</svg>
