<?xml version="1.0" encoding="utf-8"?>
<!-- Generator: Adobe Illustrator 18.1.1, SVG Export Plug-In . SVG Version: 6.00 Build 0)  -->
<svg version="1.1" id="图层_1" xmlns="http://www.w3.org/2000/svg" xmlns:xlink="http://www.w3.org/1999/xlink" x="0px" y="0px"
	 width="299.7" height="100" enable-background="new 0 0 299.7 100" xml:space="preserve">
<g>
	<rect y="0.1" fill="#29ABE2" width="299.7" height="99.9"/>
	<rect x="24" y="15" fill="#FFFFFF" width="69.9" height="69.9"/>
	<path fill="#FFFFFF" d="M16,4h267.7c6.6,0,12,5.4,12,12v67.9c0,6.7-5.4,12-12,12H16c-6.6,0-12-5.4-12-12l0,0V16C4,9.4,9.4,4,16,4
		L16,4z M16,8.1c-3.8,0-8,4.1-8,8v67.9l0,0c0,3.9,3.7,7.8,8,8h267.7c4.1,0,7.9-3.8,8-8V16c0-4.2-3.8-7.9-8-8L16,8.1L16,8.1z"/>
	<path fill="#29ABE2" stroke="#29ABE2" stroke-width="0.216" stroke-miterlimit="22.9256" d="M50,18.4c-0.1,0.3-0.1,0.6-0.1,0.9
		c0,1.6,1.1,3.1,2.6,3.5c1.5,0.5,2.8,1.5,3.5,3c0.2,0.4,0.3,0.8,0.3,1.3c0,1.2-0.7,2.2-1.8,2.6h-2.8c-0.1-0.2-0.3-0.3-0.6-0.3
		c-0.3,0-0.6,0.2-0.7,0.5c0,0.1-0.1,0.2-0.2,0.3l-3.5,0.5l-0.7-0.2l-0.5,0.2l0.8,2.5l0.8,0.5l2.5,0.8c0.5,0.1,0.8,0.6,0.8,1.1
		c0,0.1,0,0.3-0.1,0.4c-0.2,0.6-0.3,1.3-0.3,2s0.1,1.3,0.3,2c0.1,0.2,0.1,0.5,0.1,0.7c0,0.2,0,0.5-0.1,0.7c-0.1,0.3-0.1,0.5-0.2,0.7
		c-1.3,2.2-2,4.6-2.3,7.2c0,0.4-0.5,0.5-0.7,0.3c-2.2-1-4.6-1.6-7.1-1.7c0,0,0,0-0.1,0c-0.3,0-0.5,0.1-0.7,0.2l-0.3,0.7
		c-0.1,0.2-0.1,0.3-0.1,0.5c0,0.4,0.1,0.7,0.4,1c0.9,1.1,1.5,2.6,1.5,4c0,0.5-0.1,1.1-0.2,1.6c0,0.1,0,0.3,0,0.4
		c0,0.3,0.1,0.6,0.3,0.9c0.8,1,1.6,2,2.5,3c0.1,0.1,0.2,0.2,0.2,0.2l0.5-1.5c0,0,0-0.1,0-0.1c0-0.2-0.1-0.3-0.3-0.4l-0.8-0.7
		c-0.5-0.5-0.8-1.2-0.7-2c0-0.4,0-0.7,0-1c0-0.9-0.1-1.8-0.3-2.7c-0.1-0.4,0.2-0.8,0.6-0.8c0.1,0,0.1,0,0.2,0
		c1.3,0.5,2.5,1.2,3.5,2.2c0.6,0.6,1.3,1,2,1.2c1.6,0.5,3.2,1.3,4.5,2.2c1.3,0.3,2.6,0.7,3.9,1c3.4,1,6.6,2,9.7,3
		c0.7,0.2,1.4,1,1.6,1.9c0.3,1.5,1.2,2.8,2.5,3.7c1.8,1.2,3.4,2.4,5.1,3.7c1.6,1.4,2.7,3.3,3,5.4l0.2,3.2c0.1,1,0.5,1.8,1.2,2.4
		c0.7,0.6,1.3,1.2,1.8,2c0.2,0.3,0.5,0.5,0.8,0.7c0,0,0.1,0,0.1,0c0.1,0,0.2-0.1,0.2-0.2c0,0,0-0.1,0-0.1v-1.7l-0.2-0.2l-0.8-0.7
		c-0.4-0.3-0.6-0.8-0.8-1.2c-0.6-1.8-0.8-3.7-0.5-5.7c0.1-0.2,0.1-0.5,0.1-0.7c0-0.7-0.3-1.3-0.9-1.7l-2.5-3.2
		c-1.8-2.4-1.9-5.7-0.2-8.1c0-0.2,0-0.5,0-0.7c0-0.8-0.2-1.7-0.5-2.4c-0.2-0.3,0.1-0.7,0.5-0.7c0,0,0,0,0,0c0.1,0,0.2,0,0.2,0
		c0.5,0,0.9-0.1,1.3-0.4c0,0,0,0,0.1,0c1.6,0,2.8-1.3,2.8-2.8c0-0.5-0.1-1-0.4-1.4c-0.2-0.3-0.3-0.5-0.5-0.7
		c-0.1-0.1-0.2-0.1-0.3-0.1c-0.1,0-0.2,0-0.3,0.1c0,0.2,0,0.3,0,0.5c0,1.2-0.6,2.4-1.5,3.2c-0.8,0.6-1.8,1.1-2.8,1.2
		c-0.1,0-0.3-0.1-0.3-0.2l0,0c-1.1-1.7-3.1-2.7-5.1-2.7c-0.1,0-0.3,0-0.4,0c-1.5-0.1-2.9-0.6-4-1.5c-1.5-1.1-3.1-2.2-4.8-3.2
		c-0.7-0.4-1.3-0.9-1.8-1.5c-1.4-1.5-2.3-3.4-2.5-5.4c-0.3-3.2-0.4-6.6-0.2-10c0-0.4,0.6-0.7,1-0.4l1.5-2l-1.3,0.2
		c-0.3,0.1-0.6-0.2-0.6-0.5c0-0.1,0-0.2,0.1-0.3l1.8-4.9c0.2-0.5,0.3-1.1,0.3-1.6c0-0.2,0-0.4,0-0.6c0-0.1-0.1-0.2-0.3-0.2
		c-0.1,0-0.2,0.1-0.2,0.2c0,1-0.3,2-0.8,2.9c-0.2,0.3-0.5,0.4-0.8,0.2l-1-1.5c-0.9-1.2-0.9-2.8-0.2-4.2c0,0,0-0.1,0-0.1
		c0-0.2-0.1-0.3-0.3-0.3c-0.1,0-0.2,0.1-0.3,0.2c-0.4,0.8-0.6,1.6-0.7,2.4c-0.1,0.4-0.5,0.5-0.8,0.3c-0.6-1-1-2.2-1-3.4
		c0-0.3,0.1-0.5,0.2-0.8c0,0,0-0.1,0-0.1c0-0.1-0.1-0.2-0.2-0.2c0,0-0.1,0-0.1,0c-0.2,0.1-0.3,0.3-0.4,0.5l-0.1,3.2
		c-0.1,0.2-0.2,0.4-0.4,0.5c-1.1-0.5-1.7-1.5-1.6-2.7l0,0c0-0.1-0.1-0.2-0.3-0.2C50.1,18.1,50,18.2,50,18.4L50,18.4z"/>
	<g>
		<path fill="#FFFFFF" stroke="#FFFFFF" stroke-width="0.216" stroke-miterlimit="22.9256" d="M131.6,53.7h2.8
			c2.5,0,4.7,0.1,6.6,0.2v-3.1c-1.8,0.1-4.1,0.2-6.9,0.2h-4.8v-4.9h7.8c-0.1-1.4-0.2-3.4-0.2-5.9c0-2.5,0-4.6,0.2-6.4h-18.7
			c0.1,1.4,0.2,3.4,0.2,6s-0.1,4.6-0.2,6.2h7.8v4.9h-6.3c-2.1,0-3.9-0.1-5.6-0.2v3.1c1.6-0.1,3.6-0.2,6-0.2h2.6
			c-2.6,5.1-6,8.7-10.1,10.9c1.4,0.7,2.5,1.5,3.3,2.5c4.2-3.5,7.6-8,10.1-13.4v10.1c0,2.1-0.1,3.8-0.2,5.3h3.5
			c-0.1-1.3-0.2-3.2-0.2-5.6v-8.9c0.9,2.3,2.1,4.4,3.5,6.4c1.5,1.9,3.8,3.7,6.9,5.4c0.7-1.3,1.4-2.5,2.3-3.5
			c-2.3-0.5-4.4-1.6-6.2-3.2C134,57.9,132.6,56,131.6,53.7z M121.8,43.1v-6.6h11.9v6.6H121.8z"/>
		<path fill="#FFFFFF" stroke="#FFFFFF" stroke-width="0.216" stroke-miterlimit="22.9256" d="M111.8,41.3c0.7-1.4,1.3-2.8,1.8-4.1
			c0.5-1.3,1.2-2.4,2-3.3c-1.5-0.4-3-1-4.3-1.8c-0.8,3.1-1.8,6.2-3.2,9.2c-1.4,3-3.2,5.9-5.5,8.5c0.8,0.9,1.5,1.9,2.1,3
			c1.3-1.8,2.6-3.8,4-6.1v14.9c0,3.4-0.1,6-0.2,7.6h3.4c-0.1-1.8-0.2-4.3-0.2-7.8V41.3z"/>
		<path fill="#FFFFFF" stroke="#FFFFFF" stroke-width="0.216" stroke-miterlimit="22.9256" d="M207.2,39.6c1.8,0,3.4,0.1,4.9,0.2
			v-3.1c-1.5,0.1-3.2,0.2-4.9,0.2h-3.8c-1.5,0-3,0-4.4-0.2v3.1c1.5-0.1,3.1-0.2,4.6-0.2H207.2z"/>
		<path fill="#FFFFFF" stroke="#FFFFFF" stroke-width="0.216" stroke-miterlimit="22.9256" d="M178.8,36.8c-0.7-1-1.5-2.8-2.6-5.5
			c-1,0.4-2,0.9-3,1.5c1.2,2.6,2.1,4.4,2.6,5.3C176.8,37.6,177.8,37.1,178.8,36.8z"/>
		<path fill="#FFFFFF" stroke="#FFFFFF" stroke-width="0.216" stroke-miterlimit="22.9256" d="M164.6,49.2c-3.1,0.8-4.9,1.2-5.5,1.3
			v-6.5c1.4,0,3.3,0,5.6,0.2v-3.1c-2.3,0.1-4.2,0.2-5.6,0.3c0-3.7,0.1-6.8,0.3-9.1H156c0.1,2.5,0.2,5.6,0.2,9.1
			c-2.3,0-4.2-0.1-5.8-0.3v3.1c1.7-0.1,3.6-0.2,5.8-0.2v7.1c-2.9,0.6-5.1,1-6.6,1.3c0.3,1.2,0.7,2.4,1.2,3.5c1-0.7,2.8-1.3,5.5-2
			v10.2c-0.4,1.4-1.8,1.9-4,1.5c0.3,1.1,0.6,2.3,0.8,3.6c2.9-0.1,4.6-0.6,5.2-1.3c0.6-0.8,0.9-1.9,0.9-3.5V53.3c3-1,4.9-1.5,5.8-1.6
			C164.7,50.4,164.6,49.5,164.6,49.2z"/>
		<path fill="#FFFFFF" stroke="#FFFFFF" stroke-width="0.216" stroke-miterlimit="22.9256" d="M252.9,54.8c1.8-0.5,3.3-1,4.8-1.5
			c-0.1-1-0.2-2-0.2-3c-1.2,0.5-2.7,1-4.6,1.5v-7.9c1,0,2.2,0.1,3.8,0.2v-3c-1.4,0.1-2.7,0.2-3.8,0.2v-4.6c0-1.6,0.1-3.1,0.3-4.4
			h-3.5c0.1,1.3,0.2,2.8,0.2,4.4v4.6h-3.5c0.3-1.8,0.8-3.1,1.3-3.9c-1.3-0.1-2.6-0.3-3.8-0.7c-0.1,1.9-0.4,3.8-0.7,5.9
			c-0.4,2-1,4.1-1.9,6.4c1,0,2,0.3,3.1,0.8c0.5-1.9,1-3.8,1.5-5.8h3.9v8.9c-3.7,1-6.6,1.6-8.4,1.8c0.7,1.4,1.2,2.6,1.5,3.6
			c1.3-0.7,2.5-1.2,3.6-1.6c1.1-0.4,2.2-0.7,3.3-1.1v7.8c0,2.1-0.1,4.2-0.2,6.3h3.3c-0.1-2.3-0.2-4.4-0.2-6.3L252.9,54.8L252.9,54.8
			z"/>
		<path fill="#FFFFFF" stroke="#FFFFFF" stroke-width="0.216" stroke-miterlimit="22.9256" d="M263.5,38.8c0.5-1.3,1.1-2.5,1.6-3.5
			c0.5-1,1-1.7,1.6-2.1c-1.2-0.3-2.5-0.8-3.9-1.5c-0.2,1.2-0.9,3.2-2,5.9c-1.1,2.7-2.7,5.5-4.9,8.5c1.1,0.3,2,0.9,2.8,1.6
			c1-1.4,2.2-3.5,3.6-6.3h2.3c-0.6,3.4-1.4,6.4-2.6,8.8c-1.2,2.5-3,4.7-5.5,6.9c1.3,0.4,2.3,1.2,3,2.1c2.2-2.2,4-4.9,5.5-8.2
			c1.4-3.2,2.3-6.5,2.6-9.7h2.6c-0.2,2.7-0.5,5.4-1,7.9c-0.4,2.5-1.1,4.9-2.1,7c-0.9,2.1-2.2,4.1-3.9,5.8c-1.6,1.7-3.8,3.1-6.5,4.2
			c1.2,0.8,2.1,1.6,2.8,2.6c2.6-1.8,4.7-3.5,6.4-5.3c1.6-1.8,2.9-3.7,3.9-5.8c1-2.1,1.7-4.4,2.2-7.1c0.5-2.6,0.8-5.8,1.1-9.4h2
			l-1.2,21c-0.1,1.5-0.5,2.5-1.2,2.8c-0.7,0.3-2.5,0.4-5.5,0.2c0.9,1.3,1.4,2.6,1.5,3.8c2.6-0.3,4.6-0.8,6-1.4
			c1.4-0.6,2.1-1.7,2.3-3.3c0.2-1.6,0.3-5.1,0.5-10.6c0.2-5.5,0.5-10.5,0.9-15.1L263.5,38.8L263.5,38.8z"/>
		<path fill="#FFFFFF" stroke="#FFFFFF" stroke-width="0.216" stroke-miterlimit="22.9256" d="M223.4,36.5c0.1-1.3,0.3-2.6,0.7-3.8
			c-1.3-0.1-2.7-0.3-4.1-0.7c0.1,1.5,0.2,3,0.2,4.5c0,1.5,0,3,0,4.5H218c-1.3,0-2.7-0.1-4.3-0.2v3.1c1.5-0.1,2.9-0.2,3.9-0.2h2.5
			c-0.1,2.9-0.3,5.4-0.7,7.7c-0.3,2.2-0.9,4.3-1.6,6.1c-0.8,1.8-1.9,3.5-3.4,5.1c-1.5,1.6-3.4,2.9-5.7,4c1.5,0.9,2.6,1.8,3.3,2.6
			c1.3-1,2.6-2.1,3.8-3.3c1.2-1.2,2.4-2.7,3.6-4.6c1.2-1.9,2.1-4.1,2.6-6.8c0.5-2.6,0.9-6.3,1.2-10.9h5.6l-1.2,18.7
			c0,1.2-0.4,1.9-1.2,2.1c-0.8,0.2-2.2,0.2-4.4,0.2c1,1.3,1.7,2.6,2,3.9c1.5-0.3,3-0.7,4.4-1.1c1.4-0.4,2.2-1.6,2.3-3.7l1-17.5
			c0.1-2,0.3-3.8,0.5-5.5h-9.1C223.2,39.4,223.3,37.8,223.4,36.5z"/>
		<path fill="#FFFFFF" stroke="#FFFFFF" stroke-width="0.216" stroke-miterlimit="22.9256" d="M211.6,62.4c1.2-0.7,2.2-1.2,3.1-1.5
			c-0.7-1.5-1.3-3-1.9-4.3c-0.6-1.3-1.2-2.7-1.9-4.1c-1,0.5-2,1-3,1.5c0.9,1.5,1.5,2.8,2,3.8c-1.4,0.3-2.8,0.7-4,1
			c-1.3,0.3-2.5,0.7-3.9,1c1-1.9,1.9-3.8,2.6-5.8c0.8-2,1.4-3.7,1.8-5.3h1.6c1.7,0,3.3,0.1,4.9,0.3v-3.3c-1.7,0.1-3.4,0.2-5.1,0.2
			h-5.7c-2.1,0-3.9-0.1-5.5-0.3v3.4c1.5-0.2,3.4-0.3,5.5-0.3h1c-0.5,2.1-1.4,4.4-2.5,6.9c-1.1,2.5-2.4,4.2-3.8,5.1
			c0.9,1.3,1.5,2.5,2,3.6c1.1-0.7,2.5-1.3,4.4-2c1.8-0.7,4.4-1.3,7.7-2C211.2,61.1,211.4,61.8,211.6,62.4z"/>
		<path fill="#FFFFFF" stroke="#FFFFFF" stroke-width="0.216" stroke-miterlimit="22.9256" d="M167.7,39.1c0.2,5.8,0.2,10.3,0,13.4
			c-0.2,3.1-0.5,5.5-1,7.1c-0.4,1.6-1,3.2-1.8,4.7c-0.8,1.5-1.8,2.8-3,4c0.9,0.4,2,1,3.3,1.8c0.7-1.1,1.3-2.2,2-3.3
			c0.7-1.1,1.4-2.8,2.1-5.1c0.8-2.3,1.3-5.4,1.5-9.2h11.2v3.3h3.3c-0.1-2-0.2-4.4-0.2-7.3c0-2.9,0-6,0.2-9.4L167.7,39.1L167.7,39.1z
			 M182.1,49.9H171v-8.1h11.1V49.9z"/>
	</g>
</g>
</svg>
