<?xml version="1.0" encoding="utf-8"?>
<!-- Generator: Adobe Illustrator 18.1.1, SVG Export Plug-In . SVG Version: 6.00 Build 0)  -->
<svg version="1.1" id="图层_1" xmlns="http://www.w3.org/2000/svg" xmlns:xlink="http://www.w3.org/1999/xlink" x="0px" y="0px"
	 width="100" height="100" enable-background="new 0 0 100 100" xml:space="preserve">
<g>
	<rect fill="#29ABE2" width="100" height="100"/>
	<path fill="#FFFFFF" d="M19.5,4.5h60c8.3,0,15,6.7,15,15v60c0,8.3-6.7,15-15,15h-60c-8.3,0-15-6.7-15-15v0v-60
		C4.5,11.2,11.2,4.5,19.5,4.5L19.5,4.5z M19.5,9.5c-5.5,0-10,4.5-10,10v60c0,0,0,0,0,0c0,5.5,4.5,10,10,10h60c5.5,0,10-4.5,10-10
		v-60c0-5.5-4.5-10-10-10H19.5z"/>
	<path fill="#FFFFFF" d="M39.9,47.4h16.7l0,0c4.3,0,7.8-3.5,7.8-7.9s-3.5-7.9-7.8-7.9l0,0H39.9V47.4L39.9,47.4z M39.9,81.2H28.8
		V20.4h27.8l0,0c10.4,0,18.9,8.6,18.9,19.2c0,10.6-8.5,19.2-18.9,19.1l0,0H39.9V81.2z"/>
</g>
</svg>
