<?xml version="1.0" encoding="utf-8"?>
<!-- Generator: Adobe Illustrator 18.1.1, SVG Export Plug-In . SVG Version: 6.00 Build 0)  -->
<svg version="1.1" id="图层_1" xmlns="http://www.w3.org/2000/svg" xmlns:xlink="http://www.w3.org/1999/xlink" x="0px" y="0px"
	 width="100" height="100" enable-background="new 0 0 100 100" xml:space="preserve">
<g>
	<rect fill="#29ABE2" width="100" height="100"/>
	
		<rect x="35.8" y="19.7" fill="#FFFFFF" stroke="#FFFFFF" stroke-width="0.216" stroke-miterlimit="22.9256" width="3.1" height="60"/>
	<polygon fill="#FFFFFF" stroke="#FFFFFF" stroke-width="0.216" stroke-miterlimit="22.9256" points="52.2,19.8 55.3,19.8 
		55.3,27.6 67.3,41.2 67.3,58 55.3,72.2 55.3,79.6 52.2,79.6 52.2,70.6 64.2,57.2 64.2,42.6 52.2,28.7 	"/>
	<path fill="#FFFFFF" d="M20,5h60c8.3,0,15,6.7,15,15v60c0,8.3-6.7,15-15,15H20c-8.3,0-15-6.7-15-15v0V20C5,11.7,11.7,5,20,5L20,5z
		 M20,10c-5.5,0-10,4.5-10,10v60c0,0,0,0,0,0c0,5.5,4.5,10,10,10h60c5.5,0,10-4.5,10-10V20c0-5.5-4.5-10-10-10L20,10L20,10z"/>
</g>
</svg>
