<?xml version="1.0" encoding="utf-8"?>
<!-- Generator: Adobe Illustrator 18.1.1, SVG Export Plug-In . SVG Version: 6.00 Build 0)  -->
<svg version="1.1" id="图层_1" xmlns="http://www.w3.org/2000/svg" xmlns:xlink="http://www.w3.org/1999/xlink" x="0px" y="0px"
	 width="100" height="111.1" enable-background="new 0 0 100 111.1" xml:space="preserve">
<rect x="2.4" fill="#FFFFFF" width="95.6" height="108.7"/>
<g>
	<path fill="#29ABE2" d="M0,111.1V0h100v111.1L0,111.1L0,111.1z M59.9,41.3h33.8H59.9L59.9,41.3z M3.1,101.6L3.1,101.6
		C3.1,101.6,3.1,101.6,3.1,101.6c0,3.5,2.8,6.3,6.2,6.3h81.2c3.4,0,6.2-2.8,6.2-6.3V9.5c0-3.5-2.8-6.3-6.2-6.3H9.4l0,0
		C5.9,3.2,3.1,6,3.1,9.5V101.6L3.1,101.6z M88.9,41.3V16.4h-4.6v24.9L88.9,41.3L88.9,41.3z M65.1,56.2h28.6V54H64.5L6.9,103.5
		c-0.4-0.5-0.6-1.2-0.6-1.8c0.1,1.6,1.3,2.9,2.9,3L65.1,56.2L65.1,56.2z M93.7,56.8H65.3l-55.3,48h80.6c1.7,0,3.1-1.4,3.1-3.2
		L93.7,56.8L93.7,56.8z M89.4,16.4v24.9h4.3V16.4H89.4L89.4,16.4z M6.2,101.7L6.2,101.7L6.2,101.7L6.2,101.7z M6.2,87.9h13V76.3
		h13.5V64.6h13.6V53h13.5V41.4h3.9V14.6c-0.2-0.2-0.3-0.5-0.3-0.8c0-0.6,0.5-1.1,1.1-1.1s1.1,0.5,1.1,1.1c0,0.3-0.1,0.6-0.3,0.8v1.3
		h28.4V9.5c0-1.8-1.4-3.2-3.1-3.2H9.4l0,0c-1.7,0-3.1,1.4-3.1,3.2V87.9L6.2,87.9z M65.3,41.3h4.2V16.4h-4.2V41.3L65.3,41.3z
		 M70.1,16.4v24.9h4.1V16.4H70.1L70.1,16.4z M74.7,16.4v24.9H79V16.4H74.7L74.7,16.4z M79.6,16.4v24.9h4.2V16.4H79.6z"/>
	<path fill="none" stroke="#FFFFFF" stroke-width="0.216" stroke-miterlimit="22.9256" d="M0,111.1V0h100v111.1L0,111.1L0,111.1z
		 M59.9,41.3h33.8 M3.1,101.6V9.5c0-3.5,2.8-6.3,6.2-6.3l0,0h81.2c3.4,0,6.2,2.8,6.2,6.3v92.1c0,3.5-2.8,6.3-6.2,6.3H9.4
		C5.9,107.9,3.1,105.1,3.1,101.6C3.1,101.6,3.1,101.6,3.1,101.6L3.1,101.6L3.1,101.6z M88.9,41.3V16.4h-4.6v24.9L88.9,41.3
		L88.9,41.3z M65.1,56.2h28.6V54H64.5L6.9,103.5c-0.4-0.5-0.6-1.2-0.6-1.8c0.1,1.6,1.3,2.9,2.9,3L65.1,56.2L65.1,56.2z M93.7,56.8
		H65.3l-55.3,48h80.6c1.7,0,3.1-1.4,3.1-3.2L93.7,56.8L93.7,56.8z M89.4,16.4v24.9h4.3V16.4H89.4L89.4,16.4z M6.2,101.7L6.2,101.7
		L6.2,101.7L6.2,101.7z M6.2,87.9h13V76.3h13.5V64.6h13.6V53h13.5V41.4h3.9V14.6c-0.2-0.2-0.3-0.5-0.3-0.8c0-0.6,0.5-1.1,1.1-1.1
		s1.1,0.5,1.1,1.1c0,0.3-0.1,0.6-0.3,0.8v1.3h28.4V9.5c0-1.8-1.4-3.2-3.1-3.2H9.4l0,0c-1.7,0-3.1,1.4-3.1,3.2V87.9L6.2,87.9z
		 M65.3,41.3h4.2V16.4h-4.2V41.3L65.3,41.3z M70.1,16.4v24.9h4.1V16.4H70.1L70.1,16.4z M74.7,16.4v24.9H79V16.4H74.7L74.7,16.4z
		 M79.6,16.4v24.9h4.2V16.4H79.6z"/>
</g>
<path fill="#FFFFFF" d="M32.5,24.3c0-2-1.6-3.6-3.6-3.6s-3.6,1.6-3.6,3.6s1.6,3.6,3.6,3.6C30.9,27.9,32.5,26.3,32.5,24.3L32.5,24.3z
	"/>
<path fill="#FFFFFF" d="M24.8,34.7l0,13.2c0.2,1.3,0.7,1.8,1.5,2.6l0,19.7c0,2.4,3.6,2.5,3.6,0.1c0-6,0-12.7,0-18.7l7,5.5l0,4.3
	c0,2.2,3,2.3,3,0.1v-6.2l-6.7-5.2v-7.6l4.2,2.2c0.5,0.1,1.1,0.2,1.5-0.4c0.4-0.5,0.2-1.3-0.6-1.9l-5.1-3.1l-0.1-4.8
	C33.1,29.8,24.8,29.5,24.8,34.7L24.8,34.7z"/>
<path fill="#FFFFFF" stroke="#FFFFFF" stroke-width="0.216" stroke-miterlimit="22.9256" d="M32.5,24.3c0-2-1.6-3.6-3.6-3.6
	s-3.6,1.6-3.6,3.6s1.6,3.6,3.6,3.6C30.9,27.9,32.5,26.3,32.5,24.3L32.5,24.3z"/>
<path fill="#FFFFFF" stroke="#FFFFFF" stroke-width="0.216" stroke-miterlimit="22.9256" d="M24.8,34.7l0,13.2
	c0.2,1.3,0.7,1.8,1.5,2.6l0,19.7c0,2.4,3.6,2.5,3.6,0.1c0-6,0-12.7,0-18.7l7,5.5l0,4.3c0,2.2,3,2.3,3,0.1v-6.2l-6.7-5.2v-7.6
	l4.2,2.2c0.5,0.1,1.1,0.2,1.5-0.4c0.4-0.5,0.2-1.3-0.6-1.9l-5.1-3.1l-0.1-4.8C33.1,29.8,24.8,29.5,24.8,34.7L24.8,34.7z"/>
</svg>
