<?xml version="1.0" encoding="utf-8"?>
<!-- Generator: Adobe Illustrator 18.1.1, SVG Export Plug-In . SVG Version: 6.00 Build 0)  -->
<svg version="1.1" id="图层_1" xmlns="http://www.w3.org/2000/svg" xmlns:xlink="http://www.w3.org/1999/xlink" x="0px" y="0px"
	 width="100" height="111.1" enable-background="new 0 0 100 111.1" xml:space="preserve">
<g>
	<rect fill="#29ABE2" width="100" height="111.1"/>
	<path fill="#FFFFFF" stroke="#29ABE2" stroke-width="0.216" stroke-miterlimit="22.9256" d="M6.3,41.7v55.9h13.3V85.9h13V74.3h13.5
		V62.6h13.6V51h13.5V39.4h13.6V27.7h7V9.5c0-1.7-1.4-3.2-3.1-3.2H47.4L6.3,41.7z"/>
	<polygon fill="#FFFFFF" points="17.8,106.6 94.2,40.1 94.4,43.5 23.2,105.7 	"/>
	<path fill="#29ABE2" d="M38.9,20.7c0-2.4,1.9-4.3,4.2-4.3s4.2,1.9,4.2,4.3s-1.9,4.3-4.2,4.3C40.8,24.9,38.9,23,38.9,20.7z"/>
	<path fill="#29ABE2" d="M48.3,31.4l0,12.2c0,0.7-0.2,1.1-0.6,1.6c-0.4,0.4-3.9,4.4-4.2,4.7c-0.2,0.3-0.2,0.9,0,1.1l8.3,6.6
		c2.3,1.8,0.3,5.2-2.3,3.5l-6.6-4.5l0,14c0,2.9-4.4,3.1-4.4-0.1l0-29.9l-4,5.7c-1.3,2-4.3,0.3-2.8-1.9l7.1-11l0-2.7
		C38.9,25.1,48.1,25,48.3,31.4z"/>
	<path fill="#FFFFFF" d="M3.1,101.6V9.5c0-3.5,2.8-6.3,6.2-6.3l0,0h81.3c3.4,0,6.2,2.9,6.2,6.3v92.1c0,3.5-2.8,6.3-6.2,6.3H9.4
		C5.9,108,3.1,105.1,3.1,101.6L3.1,101.6L3.1,101.6z M6.3,101.6L6.3,101.6c0,1.8,1.4,3.2,3.1,3.2h81.3c1.7,0,3.1-1.4,3.1-3.2V9.5
		c0-1.7-1.4-3.2-3.1-3.2H9.4l0,0c-1.7,0-3.1,1.4-3.1,3.2L6.3,101.6L6.3,101.6z"/>
</g>
</svg>
