<?xml version="1.0" encoding="utf-8"?>
<!-- Generator: Adobe Illustrator 18.1.1, SVG Export Plug-In . SVG Version: 6.00 Build 0)  -->
<svg version="1.1" id="图层_1" xmlns="http://www.w3.org/2000/svg" xmlns:xlink="http://www.w3.org/1999/xlink" x="0px" y="0px"
	 width="244" height="150" enable-background="new 0 0 244 150" xml:space="preserve">
<rect x="1.1" fill="#FFFFFF" width="242.9" height="149.9"/>
<g>
	<g>
		<rect y="1.2" fill="#29ABE2" stroke="#29ABE2" stroke-width="0.216" stroke-miterlimit="22.9256" width="50" height="14.7"/>
		<rect y="134.9" fill="#29ABE2" stroke="#29ABE2" stroke-width="0.216" stroke-miterlimit="22.9256" width="50" height="14.7"/>
		
			<rect x="75.8" y="1.2" fill="#29ABE2" stroke="#29ABE2" stroke-width="0.216" stroke-miterlimit="22.9256" width="167.5" height="14.7"/>
		
			<rect x="75.8" y="134.9" fill="#29ABE2" stroke="#29ABE2" stroke-width="0.216" stroke-miterlimit="22.9256" width="167.5" height="14.7"/>
		
			<rect x="75.8" y="42.6" fill="#29ABE2" stroke="#29ABE2" stroke-width="0.216" stroke-miterlimit="22.9256" width="83.9" height="65"/>
		
			<rect x="0.8" y="42.6" fill="#29ABE2" stroke="#29ABE2" stroke-width="0.216" stroke-miterlimit="22.9256" width="49.4" height="65"/>
		
			<rect x="185.3" y="42.6" fill="#29ABE2" stroke="#29ABE2" stroke-width="0.216" stroke-miterlimit="22.9256" width="58" height="65"/>
	</g>
	<path fill="#231F20" stroke="#231F20" stroke-width="0.216" stroke-miterlimit="22.9256" d="M21.5,29.7l9.1-2.8l9.1-2.8V25h137.7
		v8.8h-0.1c0,30.9,0.1,61.9,0.1,92.6h-0.1v0.1h-8.8v-0.1H67.8v9.7h-9v-18.7c36.4,0,73.2,0.1,109.9,0.1V33.8H39.8v1.5l-9.1-2.8
		L21.5,29.7z"/>
	<g>
		<path fill="#FFFFFF" stroke="#EB2227" stroke-width="0.216" stroke-miterlimit="22.9256" d="M80.5,69.8c0-9.5-7.8-17.3-17.3-17.3
			c-9.5,0-17.3,7.8-17.3,17.3s7.8,17.3,17.3,17.3S80.5,79.4,80.5,69.8z"/>
		<path fill="#EB2227" stroke="#EB2227" stroke-width="0.216" stroke-miterlimit="22.9256" d="M63.3,52.8c9.4,0,17,7.6,17,17
			s-7.6,17-17,17c-9.4,0-17-7.6-17-17S53.9,52.8,63.3,52.8L63.3,52.8z M54.5,59.4l19.1,19.1c2-2.4,3.2-5.4,3.2-8.7
			c0-7.5-6.1-13.6-13.6-13.6C59.9,56.2,56.9,57.4,54.5,59.4L54.5,59.4z M72,80.3L52.9,61.1c-2,2.4-3.2,5.4-3.2,8.7
			c0,7.5,6.1,13.6,13.6,13.6C66.6,83.4,69.6,82.2,72,80.3z"/>
		<path fill="#231F20" stroke="#231F20" stroke-width="0.216" stroke-miterlimit="22.9256" d="M60.1,62.7L64,59h-5.2l-6.2,5.6
			l6.2,5.8H64l-3.9-3.7h5.1c1.1,0,2,0.9,2,2v10.1h4.2V66.7c0-2.2-1.8-4-4.1-4L60.1,62.7L60.1,62.7z"/>
	</g>
</g>
</svg>
