<?xml version="1.0" encoding="utf-8"?>
<!-- Generator: Adobe Illustrator 18.1.1, SVG Export Plug-In . SVG Version: 6.00 Build 0)  -->
<svg version="1.1" id="图层_1" xmlns="http://www.w3.org/2000/svg" xmlns:xlink="http://www.w3.org/1999/xlink" x="0px" y="0px"
	 width="225.3" height="150" enable-background="new 0 0 225.3 150" xml:space="preserve">
<rect y="0" fill="#FFFFFF" width="225.3" height="150"/>
<g>
	<rect x="1" y="0" fill="#29ABE2" stroke="#29ABE2" stroke-width="0.216" stroke-miterlimit="22.9256" width="46.1" height="13.5"/>
	
		<rect x="1" y="123.2" fill="#29ABE2" stroke="#29ABE2" stroke-width="0.216" stroke-miterlimit="22.9256" width="46.1" height="13.5"/>
	
		<rect x="70.9" y="0" fill="#29ABE2" stroke="#29ABE2" stroke-width="0.216" stroke-miterlimit="22.9256" width="154.4" height="13.5"/>
	
		<rect x="70.9" y="123.2" fill="#29ABE2" stroke="#29ABE2" stroke-width="0.216" stroke-miterlimit="22.9256" width="154.4" height="13.5"/>
	
		<rect x="70.9" y="38.2" fill="#29ABE2" stroke="#29ABE2" stroke-width="0.216" stroke-miterlimit="22.9256" width="77.3" height="59.9"/>
	
		<rect x="1.8" y="38.2" fill="#29ABE2" stroke="#29ABE2" stroke-width="0.216" stroke-miterlimit="22.9256" width="45.5" height="59.9"/>
	
		<rect x="171.9" y="38.2" fill="#29ABE2" stroke="#29ABE2" stroke-width="0.216" stroke-miterlimit="22.9256" width="53.5" height="59.9"/>
</g>
<g>
	<rect x="1" y="0" fill="#29ABE2" stroke="#29ABE2" stroke-width="0.216" stroke-miterlimit="22.9256" width="46.1" height="13.5"/>
	
		<rect x="1" y="123.2" fill="#29ABE2" stroke="#29ABE2" stroke-width="0.216" stroke-miterlimit="22.9256" width="46.1" height="13.5"/>
	
		<rect x="70.9" y="0" fill="#29ABE2" stroke="#29ABE2" stroke-width="0.216" stroke-miterlimit="22.9256" width="154.4" height="13.5"/>
	
		<rect x="70.9" y="123.2" fill="#29ABE2" stroke="#29ABE2" stroke-width="0.216" stroke-miterlimit="22.9256" width="154.4" height="13.5"/>
	
		<rect x="70.9" y="38.2" fill="#29ABE2" stroke="#29ABE2" stroke-width="0.216" stroke-miterlimit="22.9256" width="77.3" height="59.9"/>
	
		<rect x="1.8" y="38.2" fill="#29ABE2" stroke="#29ABE2" stroke-width="0.216" stroke-miterlimit="22.9256" width="45.5" height="59.9"/>
	
		<rect x="171.9" y="38.2" fill="#29ABE2" stroke="#29ABE2" stroke-width="0.216" stroke-miterlimit="22.9256" width="53.5" height="59.9"/>
</g>
<path fill="#231F20" stroke="#231F20" stroke-width="0.216" stroke-miterlimit="22.9256" d="M20,111.2l8.4-2.6l8.4-2.6v5.1v5.1
	l-8.4-2.6L20,111.2L20,111.2z M63,114.6v12.5h-8.1v-12.5h-18v-8.1h18c0-28.1,0-56.3,0-84.2h108.9v0.2h0.1v92.2
	C130.3,114.6,96.6,114.6,63,114.6L63,114.6z M63,106.4h92.7V30.4H63V106.4z"/>
<path fill="#FFFFFF" stroke="#EB2227" stroke-width="0.216" stroke-miterlimit="22.9256" d="M39.1,148.9c8.8,0,15.9-7.1,15.9-15.9
	S47.8,117,39.1,117s-15.9,7.1-15.9,15.9S30.3,148.9,39.1,148.9"/>
<path fill="#EB2227" stroke="#EB2227" stroke-width="0.216" stroke-miterlimit="22.9256" d="M39.1,148.6c-8.6,0-15.7-7.1-15.7-15.7
	s7.1-15.7,15.7-15.7l0,0c8.6,0,15.7,7.1,15.7,15.7C54.7,141.6,47.7,148.6,39.1,148.6"/>
<path fill="#FFFFFF" stroke="#EB2227" stroke-width="0.216" stroke-miterlimit="22.9256" d="M31,123.3L48.7,141
	c1.8-2.2,2.9-5,2.9-8.1c0-6.9-5.6-12.5-12.5-12.5C36,120.4,33.2,121.5,31,123.3L31,123.3z"/>
<path fill="#FFFFFF" stroke="#EB2227" stroke-width="0.216" stroke-miterlimit="22.9256" d="M39.1,145.5c3.1,0,5.8-1.1,8-2.9
	l-17.7-17.7c-1.8,2.2-2.9,5-2.9,8C26.5,139.9,32.2,145.5,39.1,145.5"/>
<path fill="#231F20" stroke="#231F20" stroke-width="0.216" stroke-miterlimit="22.9256" d="M36.1,126.4l3.6-3.4h-4.8l-5.8,5.2
	l5.8,5.4h4.8l-3.6-3.4h4.7c1,0,1.9,0.8,1.9,1.8v9.4h3.9V130c0-2-1.7-3.7-3.7-3.7H36.1z"/>
</svg>
