<?xml version="1.0" encoding="utf-8"?>
<!-- Generator: Adobe Illustrator 18.1.1, SVG Export Plug-In . SVG Version: 6.00 Build 0)  -->
<svg version="1.1" id="图层_1" xmlns="http://www.w3.org/2000/svg" xmlns:xlink="http://www.w3.org/1999/xlink" x="0px" y="0px"
	 width="100" height="100" enable-background="new 0 0 100 100" xml:space="preserve">
<g>
	<path fill="#F4AB1C" d="M2.5,82.7L46,6.8c0.9-1.4,2.6-2.6,4.4-2.6c-1.7,0-3.4,1.1-4.4,2.6L2.5,82.7c-2.7,4.8-2.9,8.7,1,9.4l0,0
		C-0.4,91.4-0.2,87.5,2.5,82.7z"/>
	<path fill="#F4AB1C" d="M9,84.9h82.1l-41-71.2L9,84.9z M47.4,56.5l-5.5,7.4l0.1,16h-4.6V62.7l5.9-8.1V39.4h4.1L47.4,56.5L47.4,56.5
		z M52.2,40h5.1v40.7h-5.1V40z"/>
	<path fill="#010101" d="M96.8,81.1L54.2,6.7c-1.1-1.8-2.4-2.6-3.8-2.6c-1.7,0-3.4,1.1-4.4,2.6l-43.5,76c-2.7,4.8-2.9,8.7,1,9.4
		h92.2l0,0C102.4,92.2,99.7,85.7,96.8,81.1z M9,84.9l41-71.2l41,71.2L9,84.9L9,84.9z"/>
	<polygon fill="#010101" points="43.3,54.6 37.4,62.7 37.4,79.9 42,79.9 41.9,63.9 47.4,56.5 47.4,39.4 43.3,39.4 	"/>
	<rect x="52.2" y="40" fill="#010101" width="5.1" height="40.7"/>
</g>
</svg>
