<?xml version="1.0" encoding="utf-8"?>
<!-- Generator: Adobe Illustrator 18.1.1, SVG Export Plug-In . SVG Version: 6.00 Build 0)  -->
<svg version="1.1" id="图层_1" xmlns="http://www.w3.org/2000/svg" xmlns:xlink="http://www.w3.org/1999/xlink" x="0px" y="0px"
	 width="100" height="142" enable-background="new 0 0 100 142" xml:space="preserve">
<g>
	<rect fill="#29ABE2" stroke="#FFFFFF" stroke-width="0.216" stroke-miterlimit="22.9256" width="100.4" height="142"/>
	<path fill="#FFFFFF" stroke="#FFFFFF" stroke-width="0.216" stroke-miterlimit="22.9256" d="M3.1,129.8V12.2c0-4.5,2.8-8.1,6.3-8.1
		l0,0H91c3.5,0,6.3,3.6,6.3,8.1v117.7c0,4.5-1.2,8.1-6.3,8.1H9.4C6,138,3.1,134.3,3.1,129.8C3.1,129.8,3.1,129.8,3.1,129.8
		L3.1,129.8L3.1,129.8z M6.3,129.8L6.3,129.8L6.3,129.8c0,2.2,1.4,4.8,3.1,4.8H91c1.7,0,3.1-2.5,3.1-4.8l0-117.7
		c0-2.3-1.4-4.6-3.1-4.6H9.4l0,0c-1.7,0-3.1,2.3-3.1,4.6V129.8z"/>
	
		<rect x="15.1" y="22.6" fill="#EB2227" stroke="#EB2227" stroke-width="0.216" stroke-miterlimit="22.9256" width="71.8" height="20.5"/>
	
		<rect x="40.7" y="43" fill="#FFFFFF" stroke="#FFFFFF" stroke-width="0.216" stroke-miterlimit="22.9256" width="20.5" height="85.7"/>
</g>
</svg>
