<?xml version="1.0" encoding="utf-8"?>
<!-- Generator: Adobe Illustrator 18.1.1, SVG Export Plug-In . SVG Version: 6.00 Build 0)  -->
<svg version="1.1" id="图层_1" xmlns="http://www.w3.org/2000/svg" xmlns:xlink="http://www.w3.org/1999/xlink" x="0px" y="0px"
	 width="100" height="110.9" enable-background="new 0 0 100 110.9" xml:space="preserve">
<g>
	
		<rect x="0" y="-0.1" fill="#29ABE2" stroke="#FFFFFF" stroke-width="0.216" stroke-miterlimit="22.9256" width="99.9" height="111"/>
	<g>
		<path fill="#FFFFFF" stroke="#FFFFFF" stroke-width="0.216" stroke-miterlimit="22.9256" d="M40,27.4c3.3,0,6-2.7,6-6s-2.7-6-6-6
			c-3.3,0-6,2.7-6,6S36.7,27.4,40,27.4z"/>
		<path fill="#FFFFFF" stroke="#FFFFFF" stroke-width="0.216" stroke-miterlimit="22.9256" d="M31.8,36.3l4.4,24
			c0.4,2.5,2.4,3.2,4.2,3.3h22c1.5,0,2,0.5,2.4,1.7l6.4,18.3c2,5.2,9.3,2.3,7.8-2.5l-8.5-23.5c-0.8-2-2.3-2.8-4.5-2.8H47.7l-1-7.6
			H58c3.6,0,3.7-5.1,0.1-5.2H45.4l-1.6-8.8C41.3,26.1,30.3,28.2,31.8,36.3z"/>
		<path fill="#FFFFFF" stroke="#FFFFFF" stroke-width="0.216" stroke-miterlimit="22.9256" d="M31.2,43l0.8,4.6
			c-6.2,2.4-12.2,9.8-11.3,19.3c0.9,9.4,9.9,17.2,20.3,16.3c8.7-0.7,16.6-8.4,16.8-17.8h4.6C62,76.6,53.9,86.6,41.1,87.8
			c-12.9,1.2-23.8-9-24.8-20.7C15.2,55.3,22.4,46.1,31.2,43z"/>
	</g>
	<path fill="#FFFFFF" stroke="#FFFFFF" stroke-width="0.216" stroke-miterlimit="22.9256" d="M3.1,101.4v-92C3.1,5.9,5.9,3,9.4,3
		l0,0h81.2c3.4,0,6.2,2.8,6.2,6.3v92c0,3.5-2.8,6.3-6.2,6.3H9.4C5.9,107.7,3.1,104.9,3.1,101.4C3.1,101.4,3.1,101.4,3.1,101.4
		L3.1,101.4L3.1,101.4z M6.2,101.4L6.2,101.4L6.2,101.4c0,1.7,1.4,3.2,3.1,3.2h81.2c1.7,0,3.1-1.4,3.1-3.2v-92
		c0-1.8-1.4-3.2-3.1-3.2H9.4l0,0c-1.7,0-3.1,1.4-3.1,3.2L6.2,101.4L6.2,101.4z"/>
</g>
</svg>
