<?xml version="1.0" encoding="utf-8"?>
<!-- Generator: Adobe Illustrator 18.1.1, SVG Export Plug-In . SVG Version: 6.00 Build 0)  -->
<svg version="1.1" id="图层_1" xmlns="http://www.w3.org/2000/svg" xmlns:xlink="http://www.w3.org/1999/xlink" x="0px" y="0px"
	 width="100" height="136.4" enable-background="new 0 0 100 136.4" xml:space="preserve">
<g>
	<rect fill="#03A550" width="100" height="136.4"/>
	
		<rect x="10.1" y="28.3" fill="#FFFFFF" stroke="#FFFFFF" stroke-width="2.0001" stroke-miterlimit="22.9256" width="79.8" height="79.8"/>
	<path fill="#231F20" stroke="#231F20" stroke-width="0.216" stroke-miterlimit="22.9256" d="M39.6,38.5l3.6,18.4
		C42,57,40.7,57,39.6,56.5c-0.7-0.2-2.2,0.2-1.4,1.9l12.1,25.7c0.8,1.9,3.2,2.1,3.4,1c0.2-1.1,0.7-2.2,1.6-3.3l12.9,14.8
		c-2.9,2.1-5.5,3.6-9.2,4.3c-16.8-7.7-34-33.8-28.4-58.5C32.2,41,35.3,39.3,39.6,38.5z"/>
	<path fill="#231F20" stroke="#FFFFFF" stroke-width="0.216" stroke-miterlimit="22.9256" d="M45.8,39.3c-1.1-1.4-2.6-1.3-4.2-1.2
		l3.3,18.6c1.4-0.2,3-0.5,3.6-2.1L45.8,39.3z"/>
	<path fill="#231F20" stroke="#FFFFFF" stroke-width="0.216" stroke-miterlimit="22.9256" d="M56.9,80.9c1.1-0.9,2.3-1.6,3.8-1
		l9.3,10.9c0.3,1.7-0.2,3.2-1.2,4.1L56.9,80.9z"/>
	<path fill="#FFFFFF" d="M19.6,2.5h60.9c9.8,0,17.7,7.6,17.7,17.1v97c0,9.5-7.9,17.1-17.7,17.1H19.6c-9.8,0-17.7-7.5-17.7-16.9v-0.3
		V19.6C1.9,10.1,9.8,2.5,19.6,2.5L19.6,2.5z M19.7,4.6C12,4.6,4.4,11.7,4.4,19.3l0,97.8c0.2,4.3,5,13.5,14.5,13.8h62.5
		c6.2,0,13.8-6.7,14.2-14.1l0-97.3c-0.2-7.8-7.5-14.8-15.5-14.8L19.7,4.6z"/>
</g>
</svg>
