<?xml version="1.0" encoding="utf-8"?>
<!-- Generator: Adobe Illustrator 18.1.1, SVG Export Plug-In . SVG Version: 6.00 Build 0)  -->
<svg version="1.1" id="图层_1" xmlns="http://www.w3.org/2000/svg" xmlns:xlink="http://www.w3.org/1999/xlink" x="0px" y="0px"
	 width="100" height="136.4" enable-background="new 0 0 100 136.4" xml:space="preserve">
<g>
	<rect fill="#03A550" width="100" height="136.4"/>
	<path fill="#FFFFFF" d="M19.5,2.6h60.9c9.8,0,17.7,7.6,17.7,17.1v97c0,9.5-7.9,17.1-17.7,17.1H19.5c-9.8,0-17.7-7.5-17.7-16.9v-0.3
		V19.7C1.9,10.2,9.8,2.6,19.5,2.6L19.5,2.6z M19.7,4.7c-7.8,0-15.3,7.2-15.3,14.8l0,97.8c0.2,4.3,5,13.5,14.5,13.8h62.5
		c6.2,0,13.8-6.6,14.2-14.1l0-97.3C95.3,11.7,88.1,4.8,80,4.8L19.7,4.7z"/>
	
		<rect x="9.3" y="27.5" fill="#FFFFFF" stroke="#FFFFFF" stroke-width="2.0001" stroke-miterlimit="22.9256" width="81.3" height="81.3"/>
	<path fill="#231F20" stroke="#231F20" stroke-width="0.216" stroke-miterlimit="22.9256" d="M65.6,62.3V48.7l-7.5-3v-3.7
		c0.2-1.5-2.2-3.5-4-3.6H29.6c-1.6,0-4,1.9-4,3.8v51.6h-2.8v4.4h38.1v-4.4h-2.8l0-28.2H62l0.1,26.9c0,7.9,13.5,7.8,13.5,0V70
		C75.7,64.7,69.4,62.3,65.6,62.3z M54.1,60H29.7V42.5h24.4V60z M62.2,62.3h-4V49.4l4.1,1.6L62.2,62.3z M72.3,92.5
		c0.1,3.6-6.7,3.7-6.7,0V65.6c3.6,0,6.7,2.4,6.7,4.5V92.5z"/>
</g>
</svg>
