<?xml version="1.0" encoding="utf-8"?>
<!-- Generator: Adobe Illustrator 18.1.1, SVG Export Plug-In . SVG Version: 6.00 Build 0)  -->
<svg version="1.1" id="图层_1" xmlns="http://www.w3.org/2000/svg" xmlns:xlink="http://www.w3.org/1999/xlink" x="0px" y="0px"
	 width="100" height="136.4" enable-background="new 0 0 100 136.4" xml:space="preserve">
<g>
	<rect fill="#03A550" width="100" height="136.4"/>
	
		<rect x="10.1" y="28.3" fill="#FFFFFF" stroke="#FFFFFF" stroke-width="2.0001" stroke-miterlimit="22.9256" width="79.8" height="79.8"/>
	<path fill="#FFFFFF" d="M19.6,2.5h60.9c9.8,0,17.7,7.7,17.7,17.1v97c0,9.5-7.9,17.1-17.7,17.1H19.6c-9.8,0-17.7-7.5-17.7-16.9v-0.2
		v-97C1.9,10.1,9.8,2.5,19.6,2.5L19.6,2.5z M19.7,4.6c-7.8,0-15.3,7.2-15.3,14.8l0,97.8c0.2,4.3,5,13.5,14.5,13.8h62.5
		c6.2,0,13.8-6.6,14.1-14.1l0-97.3c-0.2-7.8-7.5-14.8-15.5-14.8L19.7,4.6z"/>
	<path fill="#231F20" d="M37,40.2h16.8v3.6c0,3.9,1.8,7.7,5.1,10.7l4.1,3.8v19.8l-5.4,5c-2.2,2.1-3.8,5.1-3.8,8.4v4.6H37V40.2
		L37,40.2z M44,44.5v3.9h0.9v-3.9H44L44,44.5z M44,53.2v3.9h0.9v-3.9H44L44,53.2z M44,61.9v3.9h0.9v-3.9H44L44,61.9z M44,70.6v3.9
		h0.9v-3.9L44,70.6L44,70.6z M44,79.3v3.9h0.9v-3.9H44L44,79.3z M44,87.9v3.9h0.9v-3.9H44z"/>
</g>
</svg>
