<?xml version="1.0" encoding="utf-8"?>
<!-- Generator: Adobe Illustrator 18.1.1, SVG Export Plug-In . SVG Version: 6.00 Build 0)  -->
<svg version="1.1" id="图层_1" xmlns="http://www.w3.org/2000/svg" xmlns:xlink="http://www.w3.org/1999/xlink" x="0px" y="0px"
	 width="100" height="100" enable-background="new 0 0 100 100" xml:space="preserve">
<polyline fill="#03A550" points="100.1,50.1 50.1,0 0,50.1 50.1,100.1 100.1,50.1 "/>
<path fill="#FFFFFF" d="M51,54.2v-30l-4.4,4.8v-6.1l6.6-7.2l6.6,7.2v6.1l-4.4-4.8v54.1H51V67.7c0-4.7-1.9-9.2-5.2-12.5L32.6,41.9
	l0.2,6.5l-4.3-4.3l-0.4-9.8l9.8,0.4l4.3,4.3l-6.5-0.2L51,54.2z"/>
<path fill="#FFFFFF" d="M46.3,6.3l-40,40c-1,1-1.6,2.4-1.6,3.8c0,1.4,0.6,2.8,1.6,3.8l40,40c2.1,2.1,5.4,2.1,7.5,0l40.1-40
	c2.1-2.1,2.1-5.4,0-7.5l-40-40C51.7,4.2,48.4,4.2,46.3,6.3L46.3,6.3z M47.6,7.5c1.4-1.4,3.6-1.4,5,0l40,40c1.4,1.4,1.4,3.6,0,5
	l-40.1,40c-1.4,1.4-3.6,1.4-5,0l-40.1-40c-0.7-0.7-1-1.6-1-2.5c0-0.9,0.4-1.8,1-2.5L47.6,7.5z"/>
</svg>
