<?xml version="1.0" encoding="utf-8"?>
<!-- Generator: Adobe Illustrator 18.1.1, SVG Export Plug-In . SVG Version: 6.00 Build 0)  -->
<svg version="1.1" id="图层_1" xmlns="http://www.w3.org/2000/svg" xmlns:xlink="http://www.w3.org/1999/xlink" x="0px" y="0px"
	 width="100" height="100" enable-background="new 0 0 100 100" xml:space="preserve">
<g>
	
		<rect x="14.5" y="14.5" transform="matrix(0.7071 0.7071 -0.7071 0.7071 49.5678 -20.5317)" fill="#03A550" width="70.1" height="70.1"/>
	<path fill="#FFFFFF" d="M48.6,53.6V23.9l4.4,4.8v-6l-6.6-7.1l-6.6,7.1v6l4.4-4.8v53.6h4.3V67c0-4.7,1.9-9.1,5.1-12.4l13.1-13.1
		L66.6,48l4.3-4.3l0.4-9.7l-9.7,0.4l-4.3,4.3l6.5-0.2L48.6,53.6z"/>
	<path fill="#FFFFFF" d="M53.3,6.2l39.7,39.7c1,1,1.5,2.3,1.5,3.7c0,1.4-0.6,2.7-1.5,3.7L53.3,92.9c-2.1,2.1-5.4,2.1-7.4,0L6.2,53.3
		c-2.1-2.1-2.1-5.4,0-7.4L45.9,6.2C47.9,4.1,51.2,4.1,53.3,6.2L53.3,6.2z M52.1,7.4c-1.4-1.4-3.6-1.4-5,0L7.4,47.1
		c-1.4,1.4-1.4,3.6,0,5l39.7,39.7c1.4,1.4,3.6,1.4,5,0L91.7,52c0.7-0.7,1-1.5,1-2.5c0-0.9-0.4-1.8-1-2.5L52.1,7.4z"/>
</g>
</svg>
