<?xml version="1.0" encoding="utf-8"?>
<!-- Generator: Adobe Illustrator 18.1.1, SVG Export Plug-In . SVG Version: 6.00 Build 0)  -->
<svg version="1.1" id="图层_1" xmlns="http://www.w3.org/2000/svg" xmlns:xlink="http://www.w3.org/1999/xlink" x="0px" y="0px"
	 width="100" height="100" enable-background="new 0 0 100 100" xml:space="preserve">
<g>
	
		<rect x="14.9" y="14.6" transform="matrix(0.7071 0.7071 -0.7071 0.7071 49.7713 -20.7957)" fill="#03A550" width="70.3" height="70.3"/>
	<path fill="#FFFFFF" d="M49.1,46.1l0,31.5h-4.3V23.9l-4.4,4.8v-6.1l6.6-7.1l6.6,7.1v6.1l-4.4-4.8v4c0,9.4,3.7,18.3,10.3,24.8
		l9.3,9.3l-3.1,3.1l-9.4-9.4C53,52.9,51.1,49.9,49.1,46.1L49.1,46.1z"/>
	<path fill="#FFFFFF" d="M53.7,6.2l39.7,39.7c1,1,1.5,2.3,1.5,3.7c0,1.4-0.6,2.7-1.5,3.7L53.7,93.2c-2.1,2.1-5.4,2.1-7.4,0L6.5,53.4
		c-2.1-2.1-2.1-5.4,0-7.5L46.3,6.2C48.3,4.2,51.7,4.2,53.7,6.2L53.7,6.2z M52.5,7.5c-1.4-1.4-3.6-1.4-5,0L7.8,47.2
		c-1.4,1.4-1.4,3.6,0,5l39.8,39.7c1.4,1.4,3.6,1.4,5,0l39.8-39.7c0.7-0.7,1-1.6,1-2.5c0-0.9-0.4-1.8-1-2.5L52.5,7.5z"/>
</g>
</svg>
