<?xml version="1.0" encoding="utf-8"?>
<!-- Generator: Adobe Illustrator 18.1.1, SVG Export Plug-In . SVG Version: 6.00 Build 0)  -->
<svg version="1.1" id="图层_1" xmlns="http://www.w3.org/2000/svg" xmlns:xlink="http://www.w3.org/1999/xlink" x="0px" y="0px"
	 width="100" height="100" enable-background="new 0 0 100 100" xml:space="preserve">
<g>
	
		<rect x="15" y="14.5" transform="matrix(-0.7071 0.7071 -0.7071 -0.7071 120.5993 49.3219)" fill="#03A550" width="70.2" height="70.2"/>
	<path fill="#FFFFFF" d="M51,46.1l0,31.5h4.3V23.9l4.4,4.8v-6.1l-6.6-7.1l-6.6,7.1v6.1l4.4-4.8v4c0,9.3-3.7,18.3-10.3,24.8L31.5,62
		l3.1,3.1l9.4-9.4C47.1,52.8,49,49.9,51,46.1L51,46.1z"/>
	<path fill="#FFFFFF" d="M46.4,6.2c2.1-2.1,5.4-2.1,7.4,0l39.7,39.7c2.1,2.1,2.1,5.4,0,7.4L53.8,93.1c-2.1,2.1-5.4,2.1-7.4,0
		L6.7,53.4c-1-1-1.5-2.3-1.5-3.7s0.6-2.7,1.5-3.7L46.4,6.2L46.4,6.2z M7.9,47.2c-0.7,0.7-1,1.5-1,2.5c0,0.9,0.4,1.8,1,2.5l39.7,39.7
		c1.4,1.4,3.6,1.4,5,0l39.7-39.7c1.4-1.4,1.4-3.6,0-5L52.6,7.5c-1.4-1.4-3.6-1.4-5,0L7.9,47.2z"/>
</g>
</svg>
