<?xml version="1.0" encoding="utf-8"?>
<!-- Generator: Adobe Illustrator 18.1.1, SVG Export Plug-In . SVG Version: 6.00 Build 0)  -->
<svg version="1.1" id="图层_1" xmlns="http://www.w3.org/2000/svg" xmlns:xlink="http://www.w3.org/1999/xlink" x="0px" y="0px"
	 width="100" height="100" enable-background="new 0 0 100 100" xml:space="preserve">
<g>
	<path fill="#F4AB1C" d="M9.5,86.1h80.6L49.8,16.2L9.5,86.1z M46.7,69.3l-3.4,5.8l0.3,7.1h-4.4v-8.5l3-4.4l-0.1-11.9l-2.9-5.5V45
		h4.4l0.2,6.1l2.9,4.8V69.3z M53.2,55.9l2.9-4.8l0.2-6.1h4.4v6.9l-2.9,5.5l-0.1,11.9l3,4.4v8.5h-4.4l0.3-7.1l-3.4-5.8V55.9z"/>
	<path fill="#010101" d="M98.5,88.6c0-0.1-0.1-0.3-0.1-0.4c0-0.1,0-0.1-0.1-0.2c0-0.2-0.1-0.3-0.1-0.4c0-0.1-0.1-0.2-0.1-0.2
		C98.1,87.2,98,87,98,86.9c-0.1-0.2-0.1-0.3-0.2-0.5c-0.2-0.4-0.3-0.8-0.5-1.2c0-0.1-0.1-0.2-0.1-0.2c-0.5-0.9-1-1.8-1.5-2.7
		l-41.9-73c-2.4-4.1-6.4-2.5-8,0L3.1,84c-2.7,4.7-2.9,8.5,1,9.2h90.5c2.3,0,3.5-0.8,3.9-2c0-0.1,0.1-0.2,0.1-0.3
		C98.7,90.2,98.7,89.4,98.5,88.6z M9.5,86.1l40.3-69.9L90,86.1H9.5z"/>
	<polygon fill="#010101" points="43.6,45 39.2,45 39.2,51.9 42.1,57.4 42.2,69.3 39.2,73.6 39.2,82.1 43.6,82.1 43.2,75.1 
		46.7,69.3 46.7,55.9 43.7,51.1 	"/>
	<polygon fill="#010101" points="56.3,82.1 60.6,82.1 60.6,73.6 57.7,69.3 57.7,57.4 60.6,51.9 60.6,45 56.3,45 56.1,51.1 
		53.2,55.9 53.2,69.3 56.6,75.1 	"/>
</g>
</svg>
