<?xml version="1.0" encoding="utf-8"?>
<!-- Generator: Adobe Illustrator 18.1.1, SVG Export Plug-In . SVG Version: 6.00 Build 0)  -->
<svg version="1.1" id="图层_1" xmlns="http://www.w3.org/2000/svg" xmlns:xlink="http://www.w3.org/1999/xlink" x="0px" y="0px"
	 width="100" height="199.5" enable-background="new 0 0 100 199.5" xml:space="preserve">
<g>
	<g>
		<path fill="#231F20" d="M74.7,90.6c0,0.3,0.1,0.5,0.2,0.7c0.1,0.1,0.3,0.2,0.5,0.2h0.4v0.4h-3v-0.4h0.5c0.2,0,0.4-0.1,0.5-0.2
			c0.1-0.1,0.2-0.4,0.2-0.7v-2.2h-3.1v-0.3l3.4-7.6h0.5v7.6H76v0.4h-1.2L74.7,90.6L74.7,90.6z M73.9,82l-2.6,6h2.7L73.9,82L73.9,82z
			"/>
		<path fill="#231F20" d="M79.5,84.6c0.6,0,1.1,0.3,1.4,1c0.4,0.6,0.6,1.5,0.6,2.5c0,1.2-0.2,2.1-0.6,2.8c-0.4,0.7-1,1-1.8,1
			c-0.6,0-1-0.2-1.5-0.7c-0.4-0.5-0.6-1-0.6-1.7c0-0.3,0-0.5,0.2-0.7c0.1-0.2,0.2-0.3,0.4-0.3c0.2,0,0.3,0.1,0.4,0.3
			c0.1,0.2,0.1,0.3,0.1,0.5c0,0.3,0,0.5-0.1,0.6c-0.1,0.2-0.1,0.4-0.1,0.5c0,0.4,0.2,0.6,0.4,0.8c0.3,0.2,0.6,0.3,0.9,0.3
			c0.5,0,0.9-0.3,1.1-0.8c0.3-0.6,0.4-1.4,0.4-2.5c0-0.9-0.1-1.6-0.3-2.1c-0.2-0.6-0.6-0.8-1-0.8c-0.3,0-0.6,0.1-0.9,0.3
			c-0.2,0.2-0.5,0.6-0.7,1.1l-0.4-0.1l0.2-6h3.8l-0.1,1h-3.3l-0.2,4.3c0.3-0.6,0.6-1,0.9-1.1C78.9,84.7,79.2,84.6,79.5,84.6z"/>
		<path fill="#231F20" d="M86,83.2c-0.3,0.3-0.6,0.4-1,0.4c-0.4,0-0.7-0.2-0.9-0.6s-0.3-0.8-0.3-1.3c0-0.5,0.1-0.9,0.3-1.2
			c0.2-0.3,0.4-0.5,0.7-0.6c0.3-0.1,0.5-0.1,0.8,0c0.3,0.1,0.5,0.3,0.7,0.7c0.2,0.4,0.2,0.8,0.2,1.4C86.4,82.5,86.2,83,86,83.2z
			 M84.4,80.7c-0.2,0.2-0.3,0.5-0.3,0.8s0,0.6,0.1,1c0.1,0.3,0.3,0.5,0.7,0.6c0.3,0.1,0.6,0,0.8-0.3c0.2-0.3,0.3-0.6,0.3-1.1
			c0-0.5-0.1-0.8-0.3-1c-0.2-0.2-0.4-0.3-0.7-0.3C84.8,80.4,84.6,80.5,84.4,80.7z"/>
	</g>
	<polyline fill="none" stroke="#231F20" stroke-width="7.100000e-003" stroke-miterlimit="22.9256" points="78.9,66.8 80.6,69.1 
		82.3,70.5 85.2,71.9 88.7,71.9 92.5,70 	"/>
	<rect x="0.2" fill="#FFFFFF" stroke="#EB2227" stroke-width="0.216" stroke-miterlimit="22.9256" width="99.8" height="199.5"/>
	
		<rect x="6.9" y="6.7" fill="#EB2427" stroke="#EB2427" stroke-width="0.216" stroke-miterlimit="22.9256" width="86.5" height="186.2"/>
	
		<rect x="3.6" y="3.3" fill="#EB2227" stroke="#EB2427" stroke-width="0.216" stroke-miterlimit="22.9256" width="93.1" height="192.9"/>
	<polygon fill="#FFFFFF" stroke="#FFFFFF" stroke-width="0.216" stroke-miterlimit="22.9256" points="6.9,192.9 6.9,149.6 
		50.1,99.8 93.4,149.6 93.4,192.9 50.1,149.6 	"/>
	<polygon fill="#FFFFFF" stroke="#FFFFFF" stroke-width="0.216" stroke-miterlimit="22.9256" points="6.9,99.8 6.9,49.9 50.1,6.7 
		93.4,49.9 93.4,99.8 50.1,49.9 	"/>
</g>
</svg>
