<?xml version="1.0" encoding="utf-8"?>
<!-- Generator: Adobe Illustrator 18.1.1, SVG Export Plug-In . SVG Version: 6.00 Build 0)  -->
<svg version="1.1" id="图层_1" xmlns="http://www.w3.org/2000/svg" xmlns:xlink="http://www.w3.org/1999/xlink" x="0px" y="0px"
	 width="246.6" height="150" enable-background="new 0 0 246.6 150" xml:space="preserve">
<path fill="#903935" stroke="#903835" stroke-width="0.216" stroke-miterlimit="2.4142" d="M231.1,149.8H15.5
	c-8.6,0-15.5-6.9-15.5-15.5V15.5C0,6.9,6.9,0,15.5,0h215.6c8.6,0,15.5,6.9,15.5,15.5v118.8C246.6,142.9,239.7,149.8,231.1,149.8z"/>
<path fill="#FFFFFF" stroke="#FFFFFF" stroke-width="1.052" stroke-miterlimit="2.4142" d="M240.5,14.5v120.7c0,5.2-4.4,9.5-9.8,9.5
	h-215c-5.4,0-9.8-4.3-9.8-9.5V14.5C6,9.3,10.4,5,15.8,5h215C236.1,5,240.5,9.3,240.5,14.5z"/>
<path fill="#903935" stroke="#903835" stroke-width="0.216" stroke-miterlimit="2.4142" d="M238.1,15.7v118.1c0,5.1-4.3,9.3-9.6,9.3
	H18.3c-5.3,0-9.6-4.2-9.6-9.3V15.7c0-5.1,4.3-9.3,9.6-9.3h210.3C233.8,6.4,238.1,10.5,238.1,15.7z"/>
<polygon fill-rule="evenodd" clip-rule="evenodd" fill="#FFFFFF" points="167.2,136.4 195.7,107.7 197,125.4 208.8,113.3 
	208.4,85.2 180.2,86.1 168.2,98 186.3,98.5 157.9,127.2 167.2,136.4 "/>
<path fill-rule="evenodd" clip-rule="evenodd" fill="#FFFFFF" d="M86.8,132c-4.4-0.3-8.1-1.6-11.5-2.5c0-0.6,0.1-1.2,0.2-1.7
	c0.2-0.1,0.5-0.2,0.8-0.2c0-0.3,0-0.5,0-0.7c9.5-4.7,14.9-8.8,26.4-7.3c2.4-0.6,7.3-1.7,9.9,0.7c0.4,1,0.8,1.9,1.3,3
	c-7.1,0.8-16.8-0.8-21.6,2.5c0.2,0.6,0.5,1.2,0.8,1.7c7.3,1,16,1.6,24.1,1.9c-0.2,0.5-0.4,1.1-0.6,1.6
	C106.7,131.4,96.8,131.7,86.8,132L86.8,132z M31.2,130.5c1.7-5.4,6.8-6.4,11.8-8.8c5.2-3.9,9.5-6.9,14.9-10.2c1.4-0.3,1.4-0.3,4.3-2
	c-4.8-5.8-10-4.2-15.8-3.2c0-3.3-3.9-3.4-5.4-3.8c-1.2,0.4-0.2,1-1.5,1.4c0,0.3,0.1,0.7,0.2,1.1c-0.6,0-1.2,0-1.7,0
	c0-2.6-3.5-4.3-4.7-4.7C23,105.4,23,105.4,22,105.6c0-3.4,17.1-9.1,19.9-10.6c8-0.3,14-0.6,22.1-3.9c8.5,0.3,7.5-0.1,14.1,6.6
	c0,1.7-1.1,3.3-0.8,4.7c4.2-0.2,9.2-1.6,14.2-1.4c-0.2,1-0.2,1-0.9,2c-8.4,2.1-16.9,4.3-25.2,6.5c-2.6,1.5-4.4,1.5-5.6,3.8
	c0.3,0.6,0.7,1.2,1.1,1.7c4.2,0,7.8-2.9,11.9-4.6c4.9-0.6,9.8-1.2,14.6-1.7c0,0.3,0,0.6,0,1c-8.1,1.2-8.1,1.2-10.2,1.7
	c0,0.3,0,0.6,0,0.9c-2,0.3-2,0.4-1.7,2.6c3.1,0,6.3-2.1,10.5-2.1c0.1,0.3,1.4,2,1.1,3.5c-5.3,1.5-22.1,6.2-24.1,9.1
	c-2,0.4-2,0.4-2.5,0.2c0-0.3,0-0.6,0-0.9c4.6-2.6,4.6-2.6,5.7-3.6c-0.2-0.4-0.4-0.7-0.6-1c-5.1-0.5-5.8-1.1-8.3-3.8
	c-7.7,0-17.8,9.7-24.7,13.9C32.1,130.3,31.6,130.4,31.2,130.5L31.2,130.5z M121.4,120.1c-2.6-2.5-2-2.8-5.3-2.1
	c-0.6-0.8-1.2-1.6-1.8-2.2c-2.8,0-3.3-1-4.2-2.3c-0.4-0.1-0.8-0.1-1.2-0.1c0-1,0-1.9,0-2.9c0.9-0.3,0.9-0.3-4-0.2
	c-0.1-0.9-0.2-1.7-0.3-2.5c2-0.6,5.9-2.4,8.7-1.9c0,0.7,0,1.4,0,2.1c-0.3,0.1-0.5,0.2-0.7,0.3c-0.1,0.3-0.2,0.7-0.3,1.1
	c-0.5,0.1-0.9,0.2-1.3,0.4c0.9,0.4,5.5-0.4,7.4-0.7c0.4,0.6,0.8,1.3,1.2,1.9c0.9,0.1,1.8,0.2,2.8,0.3c0.1,0.4,0.2,0.9,0.3,1.4
	c1.1-0.2,2.2-0.3,3.5-0.4c0.1,0.5,0.3,1,0.5,1.6c1.1,0,2.3,0,3.6,0.1c0.3,0.7,0.3,0.7,0,2.2C127.3,117.4,124.3,118.7,121.4,120.1
	L121.4,120.1z M141,109.1c-3.6-0.1-16.9,0.1-20.6-1.6c0-0.3,0-0.5,0-0.7c-5-3.9-5-3.9-7.1-5.1c0-0.3,0-0.5,0-0.7c-0.3,0-0.5,0-0.7,0
	c0-0.2,0-0.4,0-0.6c-8.1-5.7-8.1-5.7-8.7-5.8c0-0.3,0-0.5,0-0.7c-6.1-2.5-19-12.4-24.1-11.4c0,0.5,0,1,0,1.5
	c-4.1,0.4-5.4,0.8-10.2,1c0-0.9,0.1-1.6,0.2-2.4c1.7-0.6,3.6-1.1,5.4-1.6c-1.7-1.6-4.3-1.7-5.7-2.1c-0.1,0.2-0.2,0.4-0.2,0.6
	c-0.9,0.2-1.8,0.4-2.6,0.6c-1.2,3.6-13.5,2.8-16.4,2.1c-8.4-0.3-8.4-0.3-13.2-0.1c0,0.3,0,0.3,0.7,0.3c0,1.3,1.8,2.5,3.1,4.8
	c-0.4,0-0.7,0-1,0c0,0.2,0,0.4,0,0.7c-4.1,1.1-12.2,4.3-16.7,5.4c0-4.6-3.2-4.6-6.2-6.4c0-0.3,0-0.6,0.1-0.9
	c0.4-0.2,0.9-0.4,1.4-0.5c0-0.2,0-0.4,0-0.6c3.1-1.7,6.1-3.5,9.2-5.2c0-0.2,0-0.4,0-0.6c2-1.3,2.3-1.9,4.2-3
	c3.6-0.8,3.6-0.8,9.2-1.3c-0.3-0.1-0.6-0.2-0.8-0.3c0-0.3,0-0.5,0-0.7c-0.3-0.1-0.6-0.2-0.8-0.3c0-1.5,0-2.8,0.1-4.2
	c0.4-0.1,0.9-0.2,1.4-0.3c0.1-4.7-0.5-9.1-0.7-12.7c0.2,0,0.4,0,0.7,0c0-2.3,0-5-0.6-6.4c1.2-2.4-0.1-5,0.1-6.6
	c0.5-0.1,1-0.2,1.5-0.2c0-2.6-0.2-4.7-0.7-6.2c0.3,0,0.6,0,1,0c0-3.2-1-4.8-1.3-6.4c0.4-0.1,0.8-0.2,1.3-0.3c0-2.7-0.1-4.7-0.7-6.2
	c0.5-0.1,1.1-0.2,1.7-0.3c-0.2-1.6-0.3-3.1-0.4-4.6c1.8-0.2,2.5-1.3,3.5-2.6c1.2,0.4,1.3,1.8,3.1,2.3c0,1.6,0,3.4,0,5.1
	c0.4,0,0.8,0,1.3,0c-0.1,2-0.5,3.8,0,6.5c0.2,0,0.4,0,0.7,0c-0.9,2.7,0,8.5,0.3,12.6c0.2,0,0.4,0,0.7,0c-0.9,2.4,0,8.1-0.3,11.6
	c0.2,0,0.4,0,0.6,0c-0.1,2.6-0.6,4.9,0,8.3c-0.2,0-0.4,0-0.6,0c0,1.7-0.2,3.5,0.3,6.2c0.5,0,1.1,0.1,1.7,0.2c0.3,0.7,0.6,1.4,1,2
	c5.4,0,8.5,4.7,15.3,5.3c2.6-1.9,6-8.6,7.5-11.1c1-4.6,1.9-9.4,3.7-13.3c0.2,0,0.4,0,0.6,0c0.6-1.5,0.6-1.5,1.9-3
	c2.7,0,5.6-0.5,8.9,0.4c13,27.8,13,27.8,14.8,30.9c1.7,0.8,2.7,3.4,5.5,4.7c0,0.2,0,0.4,0,0.7c2.7,1.6,4.4,4.5,7.8,6.5
	c0.1,0.6,1.5,2.6,3.4,3.2c0,0.2,0,0.4,0,0.7c0.2,0,0.4,0,0.7,0c0,0.2,0,0.4,0,0.6c0.2,0,0.4,0,0.6,0c0,0.2,0,0.4,0,0.7
	c1.8,1.1,5.9,4.3,7.8,7.1c0.2,0,0.4,0,0.7,0c0,0.2,0,0.4,0,0.7c1.3,0.5,9.2,1.7,11.8,2.6c0,0.2,0,0.4,0,0.6
	C144.4,108.8,142.6,108.9,141,109.1L141,109.1z M99.7,107.5c-0.1-1-0.2-1.8-0.2-2.7c8.8-2.6,8.8-2.6,9.8-2.6
	c0.8,1.5,0.8,1.5,1.2,3.4C105,106.6,103.4,106.6,99.7,107.5L99.7,107.5z M96.3,102.6c-0.1-1-0.1-1.8-0.1-2.7
	c1.9-0.7,1.9-0.7,11.4-2.3c-0.1,0.8-0.2,1.6-0.2,2.5C103.6,100.9,99.9,101.8,96.3,102.6L96.3,102.6z M89.5,98.1c0-0.8,0-1.6,0-2.2
	c3.7-0.9,7.4-1.7,11.2-2.6c0.2,0.8,0.4,1.6,0.6,2.3C97.4,96.3,93.4,97.2,89.5,98.1L89.5,98.1z M83,93.9c-0.2-0.8-0.3-1.6-0.4-2.2
	c3.1-0.7,6.2-1.3,9.4-1.8c0.4,0.8,0.4,0.8,0.3,1.9C85.1,93.7,85.1,93.7,83,93.9L83,93.9z M76.6,89.4c-0.1-0.7-0.2-1.4-0.2-2
	c2.4-0.7,2.4-0.7,10.4-1.8c0.1,1,0.2,1.9,0.3,2.9C81.6,89.2,81.6,89.2,76.6,89.4L76.6,89.4z M44.8,69.4c-0.6-1.8-0.6-1.8-0.7-4.3
	c1.9-0.5,1.9-0.5,3.3-0.5c1,1.4,1,2.1,1.2,4.5C47.2,69.2,46,69.3,44.8,69.4L44.8,69.4z"/>
<path fill-rule="evenodd" clip-rule="evenodd" fill="#FFFFFF" d="M122.5,31.7l4-0.1h7.7c-0.2,0.6-0.7,1.4-1.3,2.4
	c-1.5,2.4-3.1,4.3-4.7,5.7c-1,0.9-2.1,1.6-3.3,2.2c0.4,0.6,0.7,1.1,1,1.6c0.3,0.7,0.8,1.6,1.4,3l5.1-0.6l15.3-1.1
	c0.5,0.8,1.1,1.6,1.6,2.6c0.4-0.4,0.8-0.7,1.1-0.9c0.4-0.3,1.1-0.7,1.9-1.4c0.3-0.2,0.6-0.5,0.9-0.7l-3-4l-5.6-6.9
	c-1.1,0.9-2.3,1.7-3.8,2.4c1,1,1.8,2,2.5,2.7c0.6,0.8,1.3,1.6,2,2.6l-13.7,0.6c0.8-0.8,1.7-1.7,2.6-2.6l4.2-5.1
	c0.5-0.6,0.9-1,1.1-1.2c-1.1-0.4-2-0.9-2.8-1.3H150l4.2,0.1v-4.2l-4.2,0.1h-23.5l-4-0.1V31.7L122.5,31.7z M126.9,17.3v4.4l3.8-0.1
	h15.2l3.9,0.1v-4.4l-3.9,0.1h-15.2L126.9,17.3L126.9,17.3z M166,29.9v3.9c1.9-0.1,5-0.1,9.5-0.1c-0.1,0.7-0.1,1.5-0.1,2.3l-7.6-0.1
	c0.1,3.6,0.1,7.4,0,11.7h4.3V47h11.7v0.6h4.1c-0.1-3.9-0.1-7.8,0-11.7l-8.3,0.1c0-0.8,0.1-1.5,0.1-2.3c5.1,0,8.6,0,10.4,0.1v-3.9
	l-10.3,0.1l0.3-2.8c-1.4-0.1-2.9-0.3-4.4-0.5c0,1.1,0,2.2,0,3.3L166,29.9L166,29.9z M183.8,43.4h-11.7v-3.8h11.7V43.4L183.8,43.4z
	 M183.9,26.6l4.2,0.1c-0.1-4-0.1-7.3,0-10.2l-4.2,0.2h-18.5l-4.3-0.2c0.2,9.6,0.2,15.7,0.1,18.2c-0.3,3.5-1.1,6.1-2.4,7.8
	c-0.4,0.4-0.8,0.8-1.3,1.3c1,0.9,2.1,2,3.2,3.4c2-2.4,3.4-4.7,4-7.1c0.5-2.5,0.7-7,0.7-13.6H183.9L183.9,26.6z M165.5,23v-2.8H184
	V23H165.5L165.5,23z M194.1,26.1v4.2l29-0.1c0.9,0,1.9,0,2.9,0.1v-4.2l-13.9,0.1V23l11.6,0.1V19l-11.6,0.1c0-0.7,0-2,0.1-3.8h-4.7
	l0.1,3.8L196.4,19v4.1l11.2-0.1v3.3L194.1,26.1L194.1,26.1z M195.8,33.3v4c2-0.1,8.6-0.1,19.9-0.1v5.7c0,0.7-0.6,1-1.8,1
	c-0.6,0-1.3,0-2.2-0.1c0.6,1.4,1.1,2.9,1.3,4.5c2.2-0.1,4-0.5,5.5-1c1.1-0.4,1.6-1.1,1.6-1.9v-8.1c1.8,0,3.4,0,4.9,0.1v-4l-4.9,0.1
	c0-0.9,0-1.7,0.1-2.6h-4.5l0.1,2.6L195.8,33.3L195.8,33.3z M207.5,43.4c0.2-0.2,0.4-0.3,0.7-0.5c-0.3-0.3-0.6-0.7-0.8-1
	c-1.2-1.4-2.4-3-3.7-4.6c-0.7,0.7-1.8,1.4-3.4,2.1c1.5,1.7,3,3.8,4.4,6.3C205.9,44.5,206.8,43.7,207.5,43.4L207.5,43.4z"/>
<path fill-rule="evenodd" clip-rule="evenodd" fill="#FFFFFF" d="M130.3,58.9h4.4l2.6,5.2l2.6-5.2h4.4l-5,8.9v6.4h-4v-6.4
	L130.3,58.9L130.3,58.9z M153.8,58.9h3.9V68c0,0.9-0.1,1.8-0.4,2.6c-0.2,0.8-0.6,1.5-1.1,2.1c-0.5,0.6-1,1-1.6,1.3
	c-0.8,0.3-1.7,0.5-2.8,0.5c-0.6,0-1.3,0-2-0.2c-0.7-0.1-1.3-0.3-1.8-0.6c-0.5-0.3-0.9-0.8-1.4-1.3c-0.4-0.6-0.7-1.2-0.8-1.8
	c-0.2-1-0.4-1.8-0.4-2.6v-9.2h3.9v9.4c0,0.8,0.2,1.5,0.6,2c0.4,0.5,0.9,0.7,1.6,0.7c0.7,0,1.2-0.2,1.6-0.7c0.4-0.5,0.6-1.1,0.6-2
	V58.9L153.8,58.9z M160.4,58.9h3.7l4.8,8.5v-8.5h3.7v15.4h-3.7l-4.8-8.4v8.4h-3.7V58.9L160.4,58.9z M180.6,58.9h4v8.4
	c0,1.8-0.1,3.1-0.4,4c-0.3,0.9-0.8,1.7-1.6,2.3c-0.8,0.6-1.8,1-3,1c-1.3,0-2.3-0.2-3-0.6c-0.7-0.4-1.3-1-1.6-1.8
	c-0.4-0.8-0.6-1.8-0.7-3l3.8-0.6c0,0.7,0.1,1.2,0.1,1.5c0.1,0.3,0.3,0.6,0.5,0.8c0.2,0.1,0.4,0.2,0.6,0.2c0.4,0,0.8-0.2,1-0.6
	c0.2-0.4,0.3-1.1,0.3-2V58.9L180.6,58.9z M195.5,58.9h3.9V68c0,0.9-0.1,1.8-0.4,2.6c-0.2,0.8-0.6,1.5-1.1,2.1c-0.5,0.6-1,1-1.6,1.3
	c-0.8,0.3-1.7,0.5-2.8,0.5c-0.6,0-1.3,0-2-0.2c-0.7-0.1-1.3-0.3-1.8-0.6c-0.5-0.3-0.9-0.8-1.4-1.3c-0.4-0.6-0.7-1.2-0.8-1.8
	c-0.2-1-0.4-1.8-0.4-2.6v-9.2h3.9v9.4c0,0.8,0.2,1.5,0.6,2c0.4,0.5,0.9,0.7,1.6,0.7c0.7,0,1.2-0.2,1.6-0.7c0.4-0.5,0.6-1.1,0.6-2
	V58.9L195.5,58.9z M201.4,69.2l3.8-0.3c0.1,0.7,0.2,1.3,0.5,1.7c0.4,0.6,1,0.9,1.7,0.9c0.6,0,1-0.2,1.3-0.5c0.3-0.3,0.5-0.7,0.5-1.1
	c0-0.4-0.1-0.8-0.4-1.1c-0.3-0.3-1-0.6-2-0.9c-1.7-0.5-3-1.1-3.7-1.9c-0.7-0.8-1.1-1.8-1.1-3c0-0.8,0.2-1.5,0.6-2.2s1-1.3,1.7-1.7
	c0.8-0.4,1.8-0.6,3.1-0.6c1.6,0,2.9,0.4,3.7,1.1c0.9,0.7,1.4,1.9,1.5,3.5l-3.7,0.3c-0.1-0.7-0.3-1.2-0.6-1.5
	c-0.3-0.3-0.8-0.5-1.3-0.5c-0.5,0-0.8,0.1-1,0.4c-0.2,0.2-0.3,0.5-0.3,0.9c0,0.2,0.1,0.5,0.3,0.7c0.2,0.2,0.6,0.4,1.3,0.6
	c1.7,0.4,3,0.9,3.7,1.4c0.7,0.5,1.3,1,1.6,1.7c0.3,0.7,0.5,1.4,0.5,2.3c0,1-0.2,1.9-0.7,2.7c-0.5,0.8-1.1,1.5-1.9,1.9
	c-0.8,0.4-1.8,0.6-3.1,0.6c-2.2,0-3.7-0.5-4.5-1.5C202,72,201.5,70.7,201.4,69.2L201.4,69.2z M215.2,58.9h4v15.4h-4V58.9L215.2,58.9
	z"/>
</svg>
