<?xml version="1.0" encoding="utf-8"?>
<!-- Generator: Adobe Illustrator 18.1.1, SVG Export Plug-In . SVG Version: 6.00 Build 0)  -->
<svg version="1.1" id="图层_1" xmlns="http://www.w3.org/2000/svg" xmlns:xlink="http://www.w3.org/1999/xlink" x="0px" y="0px"
	 width="246.6" height="150" enable-background="new 0 0 246.6 150" xml:space="preserve">
<path fill="#903935" stroke="#903835" stroke-width="0.216" stroke-miterlimit="2.4142" d="M233.1,150H13.8C6.2,150,0,143.8,0,136.2
	V13.8C0,6.2,6.2,0,13.8,0h219.3c7.6,0,13.8,6.2,13.8,13.8v122.4C246.9,143.8,240.7,150,233.1,150z"/>
<path fill="#FFFFFF" stroke="#FFFFFF" stroke-width="1.052" stroke-miterlimit="2.4142" d="M240.8,14.6v120.9c0,5.2-4.4,9.5-9.8,9.5
	H15.8c-5.4,0-9.8-4.3-9.8-9.5V14.6C6,9.3,10.4,5,15.8,5H231C236.4,5,240.8,9.3,240.8,14.6z"/>
<path fill="#903935" stroke="#903835" stroke-width="0.216" stroke-miterlimit="2.4142" d="M238.4,15.7v118.2c0,5.1-4.3,9.3-9.6,9.3
	H18.3c-5.3,0-9.6-4.2-9.6-9.3V15.7c0-5.1,4.3-9.3,9.6-9.3h210.5C234.1,6.4,238.4,10.6,238.4,15.7z"/>
<path fill="none" stroke="#FFFFFF" stroke-width="1.052" stroke-miterlimit="2.4142" d="M240.8,14.6v120.9c0,5.2-4.4,9.5-9.8,9.5
	H15.8c-5.4,0-9.8-4.3-9.8-9.5V14.6C6,9.3,10.4,5,15.8,5H231C236.4,5,240.8,9.3,240.8,14.6z"/>
<path fill-rule="evenodd" clip-rule="evenodd" fill="#FFFFFF" d="M23.9,132.3c0-1.1,0.1-2.2,0.2-3.2c1.5-0.1,2.9-0.2,4.4-0.2
	c0.4-3.2,0.4-3.2,0.4-13.2c-2.9-2.8-7.5-3.3-9.1-5.3c-0.5,0-1.3-0.7-2.6-1.1c0-1.1,0-2.2,0-3.2c1.2-0.3,1.2-0.3,9.4-0.3
	c12.8-6.5-5.7-23.2-9.1-27.4c0-0.3,0-0.6,0-0.8c2.5-2.4,5.1,0.3,8.5,1.9c12.4,1.4,23.6,5,35.7-1.8c1.7-2.2,4.6-4.6,5.7-6.4
	c1.9,0.4,4.5,4.6,6.2,7.2c13.7,3.3,13.7,3.3,13.9,3.6c6.9,0,19.9-1.9,26.6-5.3c0.4-0.1,0.9-0.2,1.5-0.2c0.6,0.8,1.5,1,1.5,2.6
	c-0.4,0.1-0.7,0.2-1,0.4c0,0.2,0.1,0.5,0.2,0.8c-2.3,1.1-6.2,4.1-6.9,6.4c-0.5,0.1-1,0.3-1.6,0.5c-0.1,0.4-0.1,0.8-0.1,1.3
	c-2.6,0-3.6,3.7-4.4,5.8c0,11.7,0.6,11.1,14.1,11.8c1.1,5.7-8.2,5.3-12,8.5c-0.5,4.1-0.7,9.2,0,14c1.6,0.1,3.1,0.2,4.7,0.3
	c0,1.2,0,2.4,0,3.6L23.9,132.3L23.9,132.3z M33,129.6c-0.2-1-0.4-2-0.5-2.9c22.6-0.2,45.3-0.3,68-0.4c0.3,0.2,0.6,0.5,1,0.8
	c0,0.7,0,1.5,0,2.3C78.6,129.4,55.8,129.5,33,129.6L33,129.6z M57.1,124l-23.6-0.5c-0.2-1.9-0.7-10.1-1.2-10.8
	c-1.2-0.6-2.5-1.2-3.6-1.7c-0.1-0.5-0.2-1-0.2-1.4l74.5-0.2c0.6,0.3,2.1,0.3,3.4,1.1c-0.4,0.5-0.4,0.5-4.4,2.2
	c-0.1,3.6-0.2,7.3-0.3,11h-27c-0.2-4.1-0.3-8.3-0.4-12.4c-4.7,0.1-9.3,0.2-14,0.3c-0.3,1.5-0.3,1.5-0.7,11.9
	C58.8,123.6,57.9,123.8,57.1,124L57.1,124z M41.9,119.7c-0.4-0.1-0.7-0.2-1-0.3c0-2.7,0-5.3,0-7.9c3.2-0.1,6.5-0.1,9.8-0.1
	c0.3,1.7,0,3.3,0.4,6c-0.2,0.1-0.4,0.2-0.5,0.3c0,0.5,0,1.1,0,1.7C47.7,119.6,44.8,119.7,41.9,119.7L41.9,119.7z M86.9,119.7
	c-1-0.1-2.1-0.2-3.1-0.3c0-2.8,0-5.5,0-8.3c3.3,0,6.6,0,10,0c0.1,2.8,0.2,5.5,0.4,8.3C91.6,119.6,89.2,119.7,86.9,119.7L86.9,119.7z
	 M33.3,106.7c-0.4-0.9,0.8-4.2,0.9-4.8l65.5,0.4c0.5,1.5,1,3,1.7,4.4C78.7,106.7,56,106.7,33.3,106.7L33.3,106.7z M34.9,98.5
	c-0.1-2.2-2.2-6.2-1-6.9H100c0.3,0.6,0.3,0.6,0.9,0.6c-0.6,1.2-1.8,5.7-2.4,6.3H34.9L34.9,98.5z M31.5,88.9
	c-1.9-2.2-4.7-4.7-4.7-6.4c5.7,0,13,1.6,19.6,2.6c6.9-1.6,6.9-1.6,20.3-5.6c7,1.9,14.1,3.7,21.3,5.6c5.8-1.2,13.5-3.2,20.2-2.1
	c-3.2,5.1-5.9,5.3-10.9,5.8L31.5,88.9L31.5,88.9z"/>
<path fill-rule="evenodd" clip-rule="evenodd" fill="#FFFFFF" d="M132.4,30.1l6.1-0.1v2.7l-10.2-0.1v3.9l10.2-0.1v6.7h-3.9l2-1.2
	c-0.7-1.2-1.7-2.9-3.1-5.1c-1.3,0.8-2.5,1.4-3.5,1.8c1,1.6,1.8,3.1,2.5,4.5l-7.6-0.1V47l29.5-0.1c0.6,0,1.1,0,1.7,0.1v-3.9l-7.8,0.1
	c0.6-0.9,1.6-2.5,2.8-4.8c-1.6-0.6-2.9-1.2-3.9-1.8c-0.7,1.8-1.7,3.5-2.8,5c0.7,0.4,1.4,0.9,2.1,1.5h-4.1v-6.7c4.8,0,8.1,0,10,0.1
	v-3.9l-10,0.1V30c2.8,0,4.8,0,5.8,0.1v-2.2c2.5,1.6,4.8,2.7,6.9,3.5c0.5-1.5,1.2-2.9,1.9-4.3c-2.6-0.4-5.5-1.7-8.6-3.9
	c-2.5-1.8-4.4-3.7-5.7-5.7c0.2-0.4,0.4-0.7,0.6-1.1c-1.7-0.4-3.2-0.8-4.6-1.4c-1.8,4.2-6,8.1-12.7,11.6c-0.1,0-0.1,0-0.1,0.1
	c-0.6,0.2-1.4,0.5-2.3,0.7c1.1,1.3,1.9,2.5,2.7,3.9c2-1,4-2.2,6.1-3.7V30.1L132.4,30.1z M134,26.4c2.2-1.7,4.3-3.6,6.2-5.7
	c1.6,1.9,3.5,3.9,5.7,5.7H134L134,26.4z M178.1,16.1h-4.7l0.1,25.5h-7.4c0-11.9,0-18.8,0.1-20.8h-4.7c0.2,8.6,0.2,16.9,0,24.9
	c2-0.1,10.1-0.1,24.3-0.1v1.7h4.4c-0.2-8.8-0.2-17.6,0-26.4h-4.5l0.1,20.8H178L178.1,16.1L178.1,16.1z M195.9,26.2v4.2l29.1-0.1
	c0.9,0,1.9,0,2.9,0.1v-4.2l-14,0.1V23l11.6,0.1v-4.1l-11.6,0.1c0-0.7,0-2,0.1-3.9h-4.7l0.1,3.9L198.2,19v4.1l11.2-0.1v3.3
	L195.9,26.2L195.9,26.2z M197.6,33.3v4c2-0.1,8.6-0.1,20-0.1v5.7c0,0.7-0.6,1-1.8,1c-0.6,0-1.3,0-2.2-0.1c0.6,1.4,1.1,2.9,1.3,4.5
	c2.2-0.1,4-0.5,5.5-1c1.1-0.4,1.6-1.1,1.6-1.9v-8.1c1.8,0,3.4,0,4.9,0.1v-4l-4.9,0.1c0-0.9,0-1.7,0.1-2.6h-4.5l0.1,2.6L197.6,33.3
	L197.6,33.3z M209.3,43.4c0.2-0.2,0.4-0.3,0.7-0.5c-0.3-0.3-0.6-0.7-0.8-1c-1.2-1.4-2.4-3-3.7-4.7c-0.7,0.7-1.8,1.4-3.4,2.2
	c1.5,1.7,3,3.8,4.4,6.3C207.7,44.5,208.6,43.8,209.3,43.4L209.3,43.4z"/>
<path fill-rule="evenodd" clip-rule="evenodd" fill="#FFFFFF" d="M128.5,59.7h4v8.4c0,1.8-0.1,3.1-0.4,4c-0.3,0.9-0.8,1.7-1.6,2.3
	c-0.8,0.6-1.8,1-3,1c-1.3,0-2.3-0.2-3-0.6c-0.7-0.4-1.3-1-1.6-1.8c-0.4-0.8-0.6-1.8-0.7-3l3.8-0.6c0,0.7,0.1,1.2,0.1,1.5
	c0.1,0.3,0.3,0.6,0.5,0.8c0.2,0.1,0.4,0.2,0.6,0.2c0.4,0,0.8-0.2,1-0.6c0.2-0.4,0.3-1.1,0.3-2V59.7L128.5,59.7z M135.3,59.7h4v15.4
	h-4V59.7L135.3,59.7z M142.1,59.7h3.7l4.8,8.5v-8.5h3.7v15.4h-3.7l-4.8-8.4v8.4h-3.7V59.7L142.1,59.7z M156.3,70l3.8-0.3
	c0.1,0.7,0.2,1.3,0.5,1.7c0.4,0.6,1,0.9,1.7,0.9c0.6,0,1-0.2,1.3-0.5c0.3-0.3,0.5-0.7,0.5-1.1c0-0.4-0.1-0.8-0.4-1.1
	c-0.3-0.3-1-0.6-2-0.9c-1.7-0.5-3-1.1-3.7-1.9c-0.7-0.8-1.1-1.8-1.1-3c0-0.8,0.2-1.5,0.6-2.2c0.4-0.7,1-1.3,1.7-1.7
	c0.8-0.4,1.8-0.6,3.1-0.6c1.6,0,2.9,0.4,3.7,1.1c0.9,0.7,1.4,1.9,1.5,3.5l-3.7,0.3c-0.1-0.7-0.3-1.2-0.6-1.5
	c-0.3-0.3-0.8-0.5-1.3-0.5c-0.5,0-0.8,0.1-1,0.4c-0.2,0.2-0.3,0.5-0.3,0.9c0,0.2,0.1,0.5,0.3,0.7c0.2,0.2,0.6,0.4,1.3,0.6
	c1.7,0.4,3,0.9,3.7,1.4c0.7,0.5,1.3,1,1.6,1.7c0.3,0.7,0.5,1.4,0.5,2.3c0,1-0.2,1.9-0.7,2.7c-0.5,0.8-1.1,1.5-1.9,1.9
	c-0.8,0.4-1.8,0.6-3.1,0.6c-2.2,0-3.7-0.5-4.5-1.5C156.9,72.9,156.4,71.6,156.3,70L156.3,70z M169.9,59.7h4v5.4h4.3v-5.4h4v15.4h-4
	v-6.2h-4.3v6.2h-4V59.7L169.9,59.7z M192.7,72.6h-4.5l-0.6,2.5h-4l4.8-15.4h4.3l4.8,15.4h-4.1L192.7,72.6L192.7,72.6z M191.9,69.2
	l-1.4-5.5l-1.4,5.5H191.9L191.9,69.2z M198.7,59.7h3.7l4.8,8.5v-8.5h3.7v15.4h-3.7l-4.8-8.4v8.4h-3.7V59.7L198.7,59.7z M212.9,70
	l3.8-0.3c0.1,0.7,0.2,1.3,0.5,1.7c0.4,0.6,1,0.9,1.7,0.9c0.6,0,1-0.2,1.3-0.5c0.3-0.3,0.5-0.7,0.5-1.1c0-0.4-0.1-0.8-0.4-1.1
	c-0.3-0.3-1-0.6-2-0.9c-1.7-0.5-3-1.1-3.7-1.9c-0.7-0.8-1.1-1.8-1.1-3c0-0.8,0.2-1.5,0.6-2.2c0.4-0.7,1-1.3,1.7-1.7
	c0.8-0.4,1.8-0.6,3.1-0.6c1.6,0,2.9,0.4,3.7,1.1c0.9,0.7,1.4,1.9,1.5,3.5l-3.7,0.3c-0.1-0.7-0.3-1.2-0.6-1.5
	c-0.3-0.3-0.8-0.5-1.3-0.5c-0.5,0-0.8,0.1-1,0.4c-0.2,0.2-0.3,0.5-0.3,0.9c0,0.2,0.1,0.5,0.3,0.7c0.2,0.2,0.6,0.4,1.3,0.6
	c1.7,0.4,3,0.9,3.7,1.4c0.7,0.5,1.3,1,1.6,1.7c0.3,0.7,0.5,1.4,0.5,2.3c0,1-0.2,1.9-0.7,2.7c-0.5,0.8-1.1,1.5-1.9,1.9
	c-0.8,0.4-1.8,0.6-3.1,0.6c-2.2,0-3.7-0.5-4.5-1.5C213.5,72.9,213,71.6,212.9,70L212.9,70z M226.7,59.7h4v15.4h-4V59.7L226.7,59.7z"
	/>
<path fill-rule="evenodd" clip-rule="evenodd" fill="#FFFFFF" d="M159.3,122.9h-22.9c0.3-2.7,1.1-5.3,2.4-7.7
	c1.3-2.4,3.8-5.2,7.5-8.5c2.2-2,3.7-3.5,4.3-4.5c0.6-1,0.9-2,0.9-3c0-1-0.3-1.9-0.9-2.6c-0.6-0.7-1.4-1.1-2.3-1.1
	c-1,0-1.8,0.4-2.4,1.1c-0.6,0.7-1,2-1.2,3.9l-7.7-0.7c0.3-2.6,0.9-4.6,1.7-6.1c0.8-1.4,1.9-2.6,3.4-3.3c1.5-0.8,3.5-1.2,6.1-1.2
	c2.7,0,4.8,0.4,6.3,1.1c1.5,0.7,2.7,1.9,3.5,3.4c0.9,1.5,1.3,3.2,1.3,5.1c0,2-0.5,3.9-1.5,5.8c-1,1.8-2.8,3.8-5.4,6
	c-1.5,1.3-2.6,2.2-3.1,2.7c-0.5,0.5-1.1,1.2-1.8,2h11.9V122.9L159.3,122.9z M163.3,89.8h7.8v17l5.7-7.9h9.4l-7.2,8.4l7.6,15.6H178
	l-4-9.6l-2.9,3.4v6.2h-7.8V89.8L163.3,89.8z M189,98.9h7.1v3.5c1-1.5,2.1-2.5,3.1-3.1c1-0.6,2.3-0.9,3.8-0.9c1.6,0,2.8,0.3,3.8,1
	c0.9,0.7,1.7,1.7,2.3,3c1.2-1.6,2.3-2.6,3.3-3.2c1-0.6,2.2-0.8,3.7-0.8c2.1,0,3.8,0.8,5,2.3c1.2,1.5,1.8,3.9,1.8,7.2v15h-7.7v-13.6
	c0-1.1-0.2-1.9-0.5-2.4c-0.5-0.8-1.2-1.2-1.9-1.2c-0.9,0-1.6,0.4-2.2,1.2c-0.6,0.8-0.8,2-0.8,3.8v12.4h-7.7v-13.2
	c0-1.1-0.1-1.8-0.1-2.1c-0.2-0.6-0.4-1.1-0.8-1.5c-0.4-0.4-0.9-0.6-1.4-0.6c-0.9,0-1.6,0.4-2.2,1.2c-0.6,0.8-0.8,2.1-0.8,3.9v12.2
	H189V98.9L189,98.9z"/>
</svg>
