<?xml version="1.0" encoding="utf-8"?>
<!-- Generator: Adobe Illustrator 18.1.1, SVG Export Plug-In . SVG Version: 6.00 Build 0)  -->
<svg version="1.1" id="图层_1" xmlns="http://www.w3.org/2000/svg" xmlns:xlink="http://www.w3.org/1999/xlink" x="0px" y="0px"
	 width="100" height="91.2" enable-background="new 0 0 100 92.1" xml:space="preserve">
<path fill="#913A36" d="M99.9,7.3v77.5c0,4-3.3,7.3-7.4,7.3H7.6c-4.1,0-7.4-3.3-7.4-7.3V7.3c0-4,3.3-7.3,7.4-7.3h84.9
	C96.6,0,99.9,3.3,99.9,7.3z"/>
<path fill="#FFFFFF" d="M96.9,9.4v73.3c0,3.8-3.1,6.9-7,6.9H9.7c-3.8,0-7-3.1-7-6.9V9.4c0-3.8,3.1-6.9,7-6.9h80.3
	C93.8,2.5,96.9,5.6,96.9,9.4z"/>
<path fill="#913A36" d="M94.6,10.9v70c0,3.6-3,6.6-6.7,6.6H11.2c-3.7,0-6.7-3-6.7-6.6v-70c0-3.6,3-6.6,6.7-6.6H88
	C91.6,4.3,94.6,7.3,94.6,10.9z"/>
<rect x="44.2" y="64" fill="#FFFFFF" stroke="#FFFFFF" stroke-width="0.216" stroke-miterlimit="2.4142" width="8" height="9.6"/>
<path fill="#FFFFFF" stroke="#FFFFFF" stroke-width="0.216" stroke-miterlimit="2.4142" d="M48.8,17.5c10.8,1.4,16.9,6.7,17,16.5
	c-0.1,4.9-2.6,7.5-5.4,9.7c-6.8,4.7-9.7,9.8-8.5,15.4h-7.7l-0.2-5c0.6-4.4,3.5-8.6,9.3-12.3c8-8.2,4-16.5-3.9-17
	c-7.2-0.7-10.4,3.6-10.9,11.3l-7.6,0.1C31.2,26.4,34.5,18.5,48.8,17.5L48.8,17.5z"/>
</svg>
