<?xml version="1.0" encoding="utf-8"?>
<!-- Generator: Adobe Illustrator 18.1.1, SVG Export Plug-In . SVG Version: 6.00 Build 0)  -->
<svg version="1.1" id="图层_1" xmlns="http://www.w3.org/2000/svg" xmlns:xlink="http://www.w3.org/1999/xlink" x="0px" y="0px"
	 width="100" height="91.2" enable-background="new 0 0 100 92.1" xml:space="preserve">
<path fill="#913A36" d="M99.8,7v77.5c0,4-3.3,7.3-7.4,7.3H7.6c-4.1,0-7.4-3.3-7.4-7.3V7c0-4,3.3-7.3,7.4-7.3h84.9
	C96.5-0.3,99.8,3,99.8,7z"/>
<path fill="#FFFFFF" d="M96.9,9.1v73.3c0,3.8-3.1,6.9-7,6.9H9.6c-3.8,0-7-3.1-7-6.9V9.1c0-3.8,3.1-6.9,7-6.9h80.3
	C93.7,2.2,96.9,5.3,96.9,9.1z"/>
<path fill="#913A36" d="M94.6,10.6v70c0,3.6-3,6.6-6.7,6.6H11.2c-3.7,0-6.7-3-6.7-6.6v-70C4.5,7,7.5,4,11.2,4h76.7
	C91.6,4,94.6,7,94.6,10.6z"/>
<path fill="#FFFFFF" d="M63.2,39.7l-1.8,4l-6.9,3.9l6.9,12.3l1.2-4.4l4-7.7L63.2,39.7L63.2,39.7z M50.5,49.7l-1.2-1.9l10.3-8
	l0.8-4.9c0.1-1,0.8-2.2,2.1-3.3c1.4-1.2,2.7-1.8,4.1-1.8c1.3,0,2.3,0.7,3,2l5.6,10.6c0.7,1.3,1,2.6,1,3.9c0,1.5-0.6,3-1.8,4.3
	l7.5,22.8l-2.9,2.4l-9.4-18.9l-3,3.4l-1.6,5.7l5.4,9.4h-2.8l-3.4-5.8l-1.7,6.2L58,74.1l2.7-10.7l-8.5-14.7L50.5,49.7L50.5,49.7z
	 M57,25.2c0-1.3,0.5-2.3,1.4-3.1c0.9-0.8,2-1.2,3.2-1.2c1.2,0.1,2.2,0.5,3.1,1.3c0.8,0.7,1.3,1.8,1.3,3.1c0,1.5-0.5,2.6-1.4,3.4
	c-0.9,0.8-1.9,1.2-3,1.2c-1.2,0-2.2-0.4-3.1-1.2C57.6,27.8,57.1,26.7,57,25.2L57,25.2z M25.8,20.5c0-1.4,0.5-2.6,1.5-3.4
	c1-0.9,2.2-1.3,3.5-1.3c1.3,0,2.4,0.5,3.4,1.5c1,1,1.4,2.2,1.4,3.7c-0.1,1.1-0.6,2.1-1.5,3c-0.9,0.9-1.9,1.4-3.1,1.4
	c-1.4,0-2.6-0.4-3.5-1.2C26.4,23.3,25.9,22.1,25.8,20.5L25.8,20.5z M32.6,39.2l-1.2,3.6l-9.2,3.3l8.6,13.1c0.5-2.9,1.2-5.5,2-8.1
	c0.9-2.6,1.9-4.4,2.9-5.4L32.6,39.2L32.6,39.2z M29.9,62.8l-9.9-15.9l-1.8,0.6l-0.6-2.2l10.8-6.9l0.8-6.4c0.2-2.2,1-3.8,2.2-5
	c1.2-1.2,2.6-1.7,4.1-1.7c1.5,0,2.6,0.6,3.3,1.7l6.8,12.7c0.6,1,0.9,2.3,0.9,3.8c0,2.1-0.7,3.8-2,5.2l9.2,25l-3.3,2.4L39.5,54.4
	l-3.9,6.5l-1,4.6l6,9.8h-2.7l-3.9-6.4l-1.5,7.4l-5-1.8L29.9,62.8L29.9,62.8z M43.7,23.2l5.8,11c0.3,0.7,0.5,1.2,0.5,1.4
	c0,0.5-0.5,1-1.5,1.5c-0.7,0.4-1.3,0.6-1.7,0.6c-0.6,0-1.2-0.6-1.8-1.6l-5-9.7c-0.6-1.1-0.9-1.9-0.9-2.3c0-0.5,0.4-1,1.3-1.3
	c0.9-0.4,1.6-0.6,2-0.6C42.8,22.2,43.3,22.5,43.7,23.2L43.7,23.2z M74.1,28.6l4.2,8.1c0.6,1,0.9,1.7,0.9,2c0,0.3-0.5,0.7-1.5,1.3
	c-0.7,0.4-1.2,0.6-1.4,0.6c-0.4,0-0.8-0.4-1.1-1.2l-4.8-9.1c-0.4-0.7-0.5-1.1-0.5-1.3c0-0.4,0.4-0.8,1.3-1.3
	c0.7-0.4,1.2-0.6,1.5-0.6C73,27.2,73.5,27.7,74.1,28.6L74.1,28.6z"/>
</svg>
