<?xml version="1.0" encoding="utf-8"?>
<!-- Generator: Adobe Illustrator 18.1.1, SVG Export Plug-In . SVG Version: 6.00 Build 0)  -->
<svg version="1.1" id="图层_1" xmlns="http://www.w3.org/2000/svg" xmlns:xlink="http://www.w3.org/1999/xlink" x="0px" y="0px"
	 width="100" height="91.2" enable-background="new 0 0 100 92.1" xml:space="preserve">
<path fill="#913A36" d="M99.7,7.4v77.3c0,4-3.3,7.3-7.4,7.3H7.7c-4.1,0-7.4-3.3-7.4-7.3V7.4c0-4,3.3-7.3,7.4-7.3h84.6
	C96.4,0.1,99.7,3.4,99.7,7.4z"/>
<path fill="#FFFFFF" d="M96.8,9.5v73.1c0,3.8-3.1,6.9-7,6.9H9.7c-3.8,0-7-3.1-7-6.9V9.5c0-3.8,3.1-6.9,7-6.9h80.1
	C93.6,2.6,96.8,5.7,96.8,9.5z"/>
<path fill="#913A36" d="M94.5,11v69.8c0,3.6-3,6.6-6.7,6.6H11.3c-3.7,0-6.7-3-6.7-6.6V11c0-3.6,3-6.6,6.7-6.6h76.5
	C91.5,4.4,94.5,7.4,94.5,11z"/>
<path fill="#FFFFFF" stroke="#FFFFFF" stroke-width="0.216" stroke-miterlimit="2.4142" d="M29.9,52.4H47V45h1.9v7.3h17.1v21.7h-36
	V52.4L29.9,52.4z M32.9,55.9H63v7H32.9V55.9L32.9,55.9z"/>
<path fill="#FFFFFF" stroke="#FFFFFF" stroke-width="0.216" stroke-miterlimit="2.4142" d="M11.7,49.2c31.7-0.7,55.2-14,69.7-41.2
	h-2.1C65.5,31.5,44.2,45.9,11.7,47V49.2L11.7,49.2z"/>
<path fill="none" stroke="#FFFFFF" stroke-width="1.0418" stroke-miterlimit="2.4142" d="M50.9,36.9c-0.7-2.5-1.9-3.7-3.9-3
	c-2.5,1.7-2.3,3.5,0.6,5.4c3,1.1,3.8,2.7,2.9,4.7c-2.7,1.9-4.6,1.1-5.3-1.5"/>
</svg>
