<?xml version="1.0" encoding="utf-8"?>
<!-- Generator: Adobe Illustrator 18.1.1, SVG Export Plug-In . SVG Version: 6.00 Build 0)  -->
<svg version="1.1" id="图层_1" xmlns="http://www.w3.org/2000/svg" xmlns:xlink="http://www.w3.org/1999/xlink" x="0px" y="0px"
	 width="100" height="100" enable-background="new 0 0 100 100" xml:space="preserve">
<g>
	<path fill="#F4AB1C" d="M11.7,84.6h77.3L50.4,17.6L11.7,84.6z M50.2,72.5l-6.9,7.8l-7.6-7.8v-7l4.7,4.4l0.1-24.4h5v24.1l4.6-4
		L50.2,72.5L50.2,72.5z M64.7,53.3v6.8l-4.6-4v24.1h-5.2V55.9l-4.7,4.4v-7l7.6-7.8L64.7,53.3z"/>
	<path fill="#010101" d="M94.4,81.1L54.2,11C52,7,48.1,8.6,46.5,11l-41,71.6c-0.5,0.8-0.9,1.7-1.2,2.4c-0.1,0.3-0.2,0.5-0.3,0.8
		c-0.2,0.5-0.3,1-0.3,1.4c-0.4,2.2,0.5,3.8,2.8,4.3l0,0h86.9C99.7,91.5,97.2,85.4,94.4,81.1z M11.7,84.6l38.7-67.1l38.7,67.1H11.7z"
		/>
	<polygon fill="#010101" points="45.6,45.5 40.6,45.5 40.4,70 35.7,65.6 35.7,72.5 43.3,80.3 50.2,72.5 50.2,65.7 45.6,69.7 	"/>
	<polygon fill="#010101" points="50.2,60.3 54.9,55.9 54.9,80.3 60.1,80.3 60.1,56.2 64.7,60.2 64.7,53.3 57.8,45.5 50.2,53.3 	"/>
</g>
</svg>
