<?xml version="1.0" encoding="utf-8"?>
<!-- Generator: Adobe Illustrator 18.1.1, SVG Export Plug-In . SVG Version: 6.00 Build 0)  -->
<svg version="1.1" id="图层_1" xmlns="http://www.w3.org/2000/svg" xmlns:xlink="http://www.w3.org/1999/xlink" x="0px" y="0px"
	 width="100" height="91.2" enable-background="new 0 0 100 92.1" xml:space="preserve">
<path fill="#913A36" d="M99.7,7.3v77.3c0,4-3.3,7.3-7.4,7.3H7.6c-4.1,0-7.4-3.3-7.4-7.3V7.3c0-4,3.3-7.3,7.4-7.3h84.7
	C96.4,0,99.7,3.3,99.7,7.3z"/>
<path fill="#FFFFFF" d="M96.8,9.3v73.1c0,3.8-3.1,6.9-7,6.9H9.7c-3.8,0-7-3.1-7-6.9V9.3c0-3.8,3.1-6.9,7-6.9h80.1
	C93.6,2.5,96.8,5.6,96.8,9.3z"/>
<path fill="#913A36" d="M94.5,10.9v69.9c0,3.6-3,6.6-6.7,6.6H11.3c-3.7,0-6.7-3-6.7-6.6V10.9c0-3.6,3-6.6,6.7-6.6h76.6
	C91.5,4.3,94.5,7.2,94.5,10.9z"/>
<path fill="#FFFFFF" d="M20.6,74.7h7.2L51.4,21l27.6,53.6l3.9,0.1v2.3H20.6V74.7L20.6,74.7z M61.7,73.3h-21l10.4-24.4L61.7,73.3
	L61.7,73.3z"/>
</svg>
