<?xml version="1.0" encoding="utf-8"?>
<!-- Generator: Adobe Illustrator 18.1.1, SVG Export Plug-In . SVG Version: 6.00 Build 0)  -->
<svg version="1.1" id="图层_1" xmlns="http://www.w3.org/2000/svg" xmlns:xlink="http://www.w3.org/1999/xlink" x="0px" y="0px"
	 width="100" height="91.2" enable-background="new 0 0 100 92.1" xml:space="preserve">
<path fill="#913A36" d="M99.9,7.3V85c0,4-3.3,7.3-7.4,7.3H7.4C3.3,92.3,0,89,0,85V7.3C0,3.3,3.3,0,7.4,0h85.1
	C96.6,0,99.9,3.3,99.9,7.3z"/>
<path fill="#FFFFFF" d="M96.9,9.4v73.5c0,3.8-3.2,6.9-7,6.9H9.4c-3.9,0-7-3.1-7-6.9V9.4c0-3.8,3.2-6.9,7-6.9h80.5
	C93.8,2.5,96.9,5.6,96.9,9.4z"/>
<path fill="#913A36" d="M94.6,10.9v70.2c0,3.6-3,6.6-6.7,6.6H11c-3.7,0-6.7-3-6.7-6.6V10.9c0-3.6,3-6.6,6.7-6.6h76.9
	C91.6,4.3,94.6,7.3,94.6,10.9z"/>
<path fill="#FFFFFF" d="M22.9,79.3c-1.8-2.1-2.2-4.3-1-6.1c0.5,0,1.1,0,1.7,0c1.6,2.1,0.4,3,0.4,6C23.6,79.2,23.2,79.2,22.9,79.3
	L22.9,79.3z M27.2,78.3c-0.8-3.9-0.8-3.9-0.7-5c3.9-1.1,6.9-1.8,11.4-1.8c2.9,1,5.9,1.9,8.8,3c0,0.1,0,0.3,0,0.4
	C39.9,75.2,33.3,77.8,27.2,78.3L27.2,78.3z M75.6,76.7c0-0.8,0-1.5,0-2.3c-0.2-0.1-0.4-0.1-0.5-0.2c0-2.8,0.3-3.5,3.1-3.3
	c0.1,1.2,0.1,2.3,0.2,3.5c-0.2,0-0.3,0-0.5,0c-0.3,0.5-0.5,1.1-0.6,1.7c-0.3,0-0.5,0-0.6,0c0,0.1,0,0.3,0,0.4
	C76.2,76.6,75.9,76.7,75.6,76.7L75.6,76.7z M69.9,75.7c-0.6-0.4-1.8-0.6-1.9-0.8c-6.2-1.1-12.5-1.8-18.3-3.5
	c-1.3-0.1-2.6-0.1-3.8-0.1c-5.5-1.3-10.1-2.6-14.9-2.8c-1.3-0.5-2.5-1-3.8-1.5c-0.6-8.4,2.4-5.8,8.5-3.7c3.2-0.2,6.2,1.1,9.7,2.3
	c14,1.7,14,1.7,17.6,2.4c3.1,0.8,6.9,1.9,10.7,2.5c-0.6,1.8-1.4,2.4-1.1,4.5c-0.2,0-0.4,0-0.6,0c-0.1,0.2-0.1,0.4-0.1,0.6
	C70.4,75.5,70.4,75.5,69.9,75.7L69.9,75.7z M67.1,68.2c-4.1-1.7-8.4-2.1-12.3-3c0-0.1,0-0.3,0-0.4c14.4-3.7,14.4-3.7,15.5-3.7
	c0.1,1,0.5,2.5,0.7,5.8C68.1,67.9,67.5,67.9,67.1,68.2L67.1,68.2z M48.9,62.2c-6.4-8.9-7.6-16.3-6.9-26.8c1-5.4,3.6-9.2,7-13.1
	c0.6-4.3-0.1-6.9-1.6-10.2c9.8,1.8,10.9,9.4,10.5,18.6c-0.3,1.1-0.5,1.7-0.3,3.2c-0.2,0-0.4,0-0.6,0c-0.4,1.7-0.4,1.7-0.3,2.6
	c-0.3,0-0.5,0.1-0.6,0.1c0,1-2.3,4.4-2.9,5.5c-1,2.4-1.9,4.9-2.9,7.3c-0.3,2-0.5,4-0.6,6.1c-0.2,0.1-0.2,0.1-0.3,6.6
	C49.2,62.2,49,62.2,48.9,62.2L48.9,62.2z M41.8,61.8C33.2,59.5,29,53.6,29,45.6c1.8-5.5,1.8-8.9,1-14.3c1.4,0,3.4,4.2,4.2,5.7
	c1.2,8.1,1,17,8,23.9c0,0.2,0,0.4,0,0.6C42,61.6,41.9,61.7,41.8,61.8L41.8,61.8z M55.1,60.5c-0.3-0.1-0.5-0.1-0.6-0.2
	c2.1-4,2.1-4,8.1-14.2c2-5.4,3.6-10.3,4.2-15.7c-0.4-1.9-0.8-3.8-1.1-5.7c1.8,0,4.7,2.1,5.9,4.3c1.1,4.6,0.6,9.5,0.6,14.6
	c-0.6,1.5-2.5,4.3-2.1,6c-0.2-0.1-0.4-0.1-0.5-0.1c-0.5,0.8-0.5,0.8-0.5,1.9c-0.2-0.1-0.4-0.1-0.6-0.1
	C65.7,56.2,60.5,59.4,55.1,60.5L55.1,60.5z"/>
</svg>
