<?xml version="1.0" encoding="utf-8"?>
<!-- Generator: Adobe Illustrator 18.1.1, SVG Export Plug-In . SVG Version: 6.00 Build 0)  -->
<svg version="1.1" id="图层_1" xmlns="http://www.w3.org/2000/svg" xmlns:xlink="http://www.w3.org/1999/xlink" x="0px" y="0px"
	 width="100" height="91.2" enable-background="new 0 0 100 92.1" xml:space="preserve">
<path fill="#913A36" d="M100,7.3v77.5c0,4-3.3,7.3-7.4,7.3H7.7c-4.1,0-7.4-3.3-7.4-7.3V7.3c0-4,3.3-7.3,7.4-7.3h84.9
	C96.6,0,100,3.3,100,7.3z"/>
<path fill="#FFFFFF" d="M97,9.4v73.3c0,3.8-3.1,6.9-7,6.9H9.7c-3.8,0-7-3.1-7-6.9V9.4c0-3.8,3.1-6.9,7-6.9H90
	C93.9,2.5,97,5.6,97,9.4z"/>
<path fill="#913A36" d="M94.7,10.9v70c0,3.6-3,6.6-6.7,6.6H11.3c-3.7,0-6.7-3-6.7-6.6v-70c0-3.6,3-6.6,6.7-6.6h76.7
	C91.7,4.3,94.7,7.3,94.7,10.9z"/>
<path fill="#FFFFFF" d="M28,66.7c-2.2-1.9-3.3-5.2-5-6.5c-2.3-0.2-4.7-0.3-6.9-0.4c-2.8-3.2-3.7-5.1-3.3-8.9
	c2.5-4.4,6.6-1.3,10.6,0.5c0,0.4,0,0.9,0,1.4c-1.7,0-3.3,0-4.9,0.1c0,1-0.1,2,0.5,3.6c3,1,5.2,1.1,7.4,3.6c0.1-0.2,0.1-0.4,0.2-0.5
	c15.9-2.4,31.9-5.4,48.3-7.2c-0.1,0.3-0.1,0.7-0.2,1.1c-3.7,0.6-9.4,0.7-12.4,1.9C57,55.8,51.9,57.1,47,57.5c-5,1.3-9.9,1-14.7,2.5
	c-2.2,0-3.5,0.4-5.5,0.9C27.7,62.2,31.3,65.7,28,66.7L28,66.7z M48.9,65.8c-0.8-0.1-1.5-0.2-2.2-0.2c0-1.7,3.1-5.8,4-7.3
	c0.2-0.1,0.4-0.1,0.6-0.1c0.3,0.5,4.1,6.4,3.9,7.3C54.1,65.7,54.1,65.7,48.9,65.8L48.9,65.8z M15.5,62.3c-0.1-0.8-0.1-0.8,0.1-1.3
	c1.9-0.4,4.8-0.2,7.3-0.2c0,0.1,0.1,0.3,0.1,0.4C20.5,61.7,17.8,62,15.5,62.3L15.5,62.3z M74.6,60.1c-0.7-3.1,0.9-5.7,1.7-8.4
	c1.7-1.5,3.5-3,5.3-4.4c-0.2-1.1-0.3-2.1-0.4-3.2c-1.3-0.4-4.1,0.7-5,0.9c-0.2-0.3-0.3-0.5-0.4-0.7c1.2-1.9,3.8-3.5,5.5-4.9
	c2.9-0.9,3.9-0.4,5.1,2.4c0.2,3.2,0.2,3.2,0,3.3c0,1.4-0.7,3.1-1.5,4.7c-2.2,0.7-4.3,1.4-6.4,2.1c-0.9,1.9-1.7,5.3-1.9,8
	C75.8,60,75.2,60.1,74.6,60.1L74.6,60.1z M79.4,52.5c0-0.2,0.1-0.3,0.1-0.4c2.3-0.9,4.3-1.4,7.1-1.4c-0.1,0.2-0.1,0.4-0.1,0.7
	C84.1,52.4,81.4,52.3,79.4,52.5L79.4,52.5z M15.5,47.8c-4.7-2.6,0.3-7.7,3-4.1c0.1,0.7,0.2,1.3,0.4,2c-0.2,0.1-0.3,0.1-0.4,0.2
	c-0.1,0.2-0.1,0.4-0.1,0.7C17.7,46.5,16.6,47.6,15.5,47.8L15.5,47.8z M80.5,37.9c-5.6-1.6-0.3-8.1,2.7-3.7
	C83.2,36.1,82.6,37.4,80.5,37.9L80.5,37.9z"/>
</svg>
