<?xml version="1.0" encoding="utf-8"?>
<!-- Generator: Adobe Illustrator 18.1.1, SVG Export Plug-In . SVG Version: 6.00 Build 0)  -->
<svg version="1.1" id="图层_1" xmlns="http://www.w3.org/2000/svg" xmlns:xlink="http://www.w3.org/1999/xlink" x="0px" y="0px"
	 width="100" height="91.2" enable-background="new 0 0 100 92.1" xml:space="preserve">
<path fill="#913A36" d="M99.8,7.3v77.5c0,4-3.3,7.3-7.4,7.3H7.5c-4.1,0-7.4-3.3-7.4-7.3V7.3c0-4,3.3-7.3,7.4-7.3h84.9
	C96.5,0,99.8,3.3,99.8,7.3z"/>
<path fill="#FFFFFF" d="M96.9,9.4v73.3c0,3.8-3.1,6.9-7,6.9H9.6c-3.8,0-7-3.1-7-6.9V9.4c0-3.8,3.1-6.9,7-6.9h80.3
	C93.7,2.5,96.9,5.6,96.9,9.4z"/>
<path fill="#913A36" d="M94.6,10.9V81c0,3.6-3,6.6-6.7,6.6H11.2c-3.7,0-6.7-3-6.7-6.6V10.9c0-3.6,3-6.6,6.7-6.6h76.8
	C91.6,4.3,94.6,7.3,94.6,10.9z"/>
<path fill="#FFFFFF" d="M55.7,74.2c-1.8-0.9-0.9-2.1-0.5-3.1c0.7-1.4,5.6-9.3,5.1-10.6c-1.6-1.9-3.1-3.8-4.1-5.3
	c-1-2.3-1-2.3-1.3-2.6c-4.2,0.2-5,0.4-7.5,0.4c-4.3-0.4-4.4-0.6-7.7-0.7c-0.8,2.2-0.8,2.2-1,3.3c1.1,5.2,2.9,10.9,3.3,16.8
	c-0.3,0.4-0.6,0.8-0.8,1.2c-0.7,0.1-1.3,0.1-1.9,0.2c-0.2-0.2-0.4-0.4-0.6-0.6c-1.7-6.7-3.3-13.4-5-20c-1.6,0-1.5,0.2-2.6,0.8
	c-0.1,0.2-0.1,0.4-0.1,0.6c-2.3,0.3-4,1.9-5.9,3c0,6.5,0,6.5-0.2,9.7C24.4,69,24,69,22.4,69c-1.1-1.1-0.8-11.8-0.8-14.1
	c8.7-5,8.7-5,9.6-5.7c-1.1-3.7-1-6-1-9.3c-2.5-4.3-2.9-4.6-3.7-5.8c-1.1,0-3.3,1.2-4.1,1.7c-0.1,0.2-0.1,0.4-0.1,0.5
	c-1.5,0.2-1.6,0.4-2.3,1.1c-0.4-0.1-0.8-0.1-1.1-0.2c-1.7-2.5-0.5-2.7,1.2-4.9c0.4-3.8,0.5-3.5,2.8-6.1c0-1.2,0-1.2,0.3-2.8
	c0.2,0,0.4,0,0.6,0c0.4,0.4,0.8,0.8,1.2,1.3c7,1.1,9.9,2.3,13.8,9.1c1.1-0.6,5-2.2,5.6-3.3C42,29,43.8,26.8,44,25.1
	c-0.1-0.2-1.7-1-2.8-1.8c-0.2-0.8-0.4-1.7-0.5-2.4c-0.2-0.1-0.4-0.1-0.5-0.1c0.1-0.3,0.1-0.6,0.2-0.9c0.5-0.2,0.8-0.8,1-1.2
	c4.4-3.1,8-0.6,5,4.6c0.3,1.2,0.7,1.5,2.5,1.9c1.4,3.1,6,6.7,7.1,10.3c0,1.1,0,2.3,0,3.4c4.3-1.4,9-2.1,12.5,2.3
	c5.3-0.9,7.2-2.5,11.5,2.1c0.8,1.7,3,10.7,0.8,12.2c0,0.1,0.1,0.3,0.1,0.5c-1.7,0.4-2.8,0.2-3.7-0.7c-0.4-3.3-0.8-6.6-1.3-9.8
	c-2-2-3.7-2.5-6-1.8c0.1,2.1-0.1,4,0.4,6.3c4.5,8.2,4.5,8.2,5.3,9.2c0.1,3.9,0.8,9.8,0.1,14.2c-1.2,0.2-1.2,0.2-2.3,0.1
	C71,71,74.5,62.2,71.1,58.9c-3.6-1.1-5.7-3.3-8.1-4.5c0,2.4,1.6,4.6,1.6,7.4c-1.3,3.4-4.5,7-5.8,10.8C57.9,73.7,56.9,74,55.7,74.2
	L55.7,74.2z M42.6,38.4c-0.7-0.8-1.3-1.5-2-2.2c0.2-1,2.9-2.3,4.1-2.6c0-0.2,0-0.4,0.1-0.5c0.2-0.1,0.5-0.1,0.8-0.2
	c1.6,1.7,1.6,1.7,1.9,2.5C44.8,37.3,44.8,37.3,42.6,38.4L42.6,38.4z"/>
</svg>
