<?xml version="1.0" encoding="utf-8"?>
<!-- Generator: Adobe Illustrator 18.1.1, SVG Export Plug-In . SVG Version: 6.00 Build 0)  -->
<svg version="1.1" id="图层_1" xmlns="http://www.w3.org/2000/svg" xmlns:xlink="http://www.w3.org/1999/xlink" x="0px" y="0px"
	 width="100" height="91.2" enable-background="new 0 0 100 92.1" xml:space="preserve">
<path fill="#913A36" d="M99.6,7.5v77.1c0,4-3.3,7.3-7.3,7.3H7.8c-4,0-7.3-3.3-7.3-7.3V7.5c0-4,3.3-7.3,7.3-7.3h84.4
	C96.3,0.3,99.6,3.5,99.6,7.5z"/>
<path fill="#FFFFFF" d="M96.6,9.6v72.9c0,3.8-3.1,6.9-7,6.9H9.8c-3.8,0-7-3.1-7-6.9V9.6c0-3.8,3.1-6.9,7-6.9h79.9
	C93.5,2.7,96.6,5.8,96.6,9.6z"/>
<path fill="#913A36" d="M94.4,11.2v69.7c0,3.6-3,6.6-6.6,6.6H11.5c-3.7,0-6.6-3-6.6-6.6V11.2c0-3.6,3-6.6,6.6-6.6h76.3
	C91.4,4.6,94.4,7.6,94.4,11.2z"/>
<path fill="#FFFFFF" d="M46.9,72.9c-1.1-0.7-1.8-0.4-2.6-0.4c-5.5-1.1-22.4-6-23.2-10.1C32.5,52.3,51.5,49.9,66,54.2
	c-0.3,2.2-0.5,2.3-1.4,7.1c0.5,2.8,1,4.6,3.2,7.7c0,0.3,0,0.5,0.1,0.9C60.7,71.5,53.9,72.5,46.9,72.9L46.9,72.9z M69.3,69.3
	c-4.2-3.4-4.4-10.1-2.1-13.9c2.8,0,7.9,3,11,4.5c-0.7,0.7-2.9,1.9-2.9,2.9c0.9,0.6,1.9,1.2,2.9,1.8c-0.7,1.3-1.7,1.4-2.9,1.8
	c-0.1,0.2-0.1,0.4-0.1,0.7C72.7,67.5,71.2,68.3,69.3,69.3L69.3,69.3z M14,67.3c0.1-1.7,0.3-3.3,0.5-4.9c-0.7-4.2-0.7-4.2-0.6-5.1
	c0.8,0.7,5.3,4,5.7,5.8c-0.3,0-0.6,0-0.9,0.1c-0.1,0.3-0.2,0.7-0.3,1.1c-1.5,0-2.9,1.9-3.1,3.1C14.9,67.3,14.4,67.3,14,67.3L14,67.3
	z M69.6,60.8c-2.5-1.4-1.6-4,1.4-2.8c0.3,0.7,0.3,0.7,0.3,1.8C70.7,60.3,70,60.8,69.6,60.8L69.6,60.8z M50.6,32.1
	c-0.9-0.3-1.9-0.5-2.8-0.7c-0.3-3.2-0.3-6,2.8-7.2c0.1,0.2,0.2,0.5,0.3,0.7c0.1,0,0.3,0,0.5,0c0,0.1,0,0.3,0,0.5c0.1,0,0.3,0,0.5,0
	c0.1,0.5,1.8,2.3,2.2,3.1c0.1,0,0.3,0,0.5,0c0.1,0.3,0.1,0.6,0.2,0.9c-1.4,0.1-1.4,0.1-2.2,0.4c0.3,0.5,0.6,1.1,0.9,1.6
	c-0.5,0-0.9,0-1.3,0c0,0.1,0,0.3,0,0.4C51.7,31.9,51.1,31.9,50.6,32.1L50.6,32.1z M45.2,31.6c-0.5-0.3-0.5-0.3-8.1-2.7
	c-4.5-2.8-10.6-7.4-12.2-12c3.3-0.6,3.3-0.6,3.7-0.9c7.7,0,14.8,1.5,21.2,7.2c0,0.2,0,0.4,0,0.6c-0.8,0.5-0.5,0.1-0.7,1.1
	c-0.2-0.1-0.4-0.1-0.5-0.1c0,0.5-1,2-1.6,3.6c0.3,2.3,0.3,2.3,0.1,3.1C46.3,31.4,45.7,31.5,45.2,31.6L45.2,31.6z M50.1,27.6
	c-0.4-1.3-0.4-1.3-0.2-1.7c0.5,0.1,0.9,0.1,1.4,0.2c0,0.3,0,0.7,0,1.1C50.9,27.3,50.5,27.4,50.1,27.6L50.1,27.6z M20.5,17.3
	c1-2.3,1-2.3,1.6-4.3c0.2,0,0.5,0.1,0.7,0.1c0.2,0.6,1.2,1.9,0.9,3.3C22.7,16.7,21.6,17,20.5,17.3L20.5,17.3z"/>
<path fill="none" stroke="#FFFFFF" stroke-width="1.0418" stroke-miterlimit="2.4142" d="M83.8,13.9L84,27.2
	c-0.3,7.3,1.2,20.2-8.6,18.9c-6.2-1-6.3-4.2-3.6-8.2l0.1,3.4"/>
<ellipse fill="#913A36" stroke="#FFFFFF" stroke-width="0.8566" stroke-miterlimit="2.4142" cx="83.9" cy="28.9" rx="2.1" ry="2.1"/>
<circle fill="#913A36" cx="70" cy="59.4" r="1.4"/>
<circle fill="#913A36" cx="50.6" cy="26.6" r="0.7"/>
</svg>
