<?xml version="1.0" encoding="utf-8"?>
<!-- Generator: Adobe Illustrator 18.1.1, SVG Export Plug-In . SVG Version: 6.00 Build 0)  -->
<svg version="1.1" id="图层_1" xmlns="http://www.w3.org/2000/svg" xmlns:xlink="http://www.w3.org/1999/xlink" x="0px" y="0px"
	 width="100" height="91.2" enable-background="new 0 0 100 92.1" xml:space="preserve">
<path fill="#913A36" d="M99.4,7.6v76.8c0,4-3.3,7.2-7.3,7.2H7.9c-4,0-7.3-3.3-7.3-7.2V7.6c0-4,3.3-7.2,7.3-7.2h84.2
	C96.1,0.4,99.4,3.7,99.4,7.6z"/>
<path fill="#FFFFFF" d="M96.5,9.7v72.7c0,3.8-3.1,6.8-6.9,6.8H9.9c-3.8,0-6.9-3.1-6.9-6.8V9.7c0-3.8,3.1-6.8,6.9-6.8h79.6
	C93.4,2.8,96.5,5.9,96.5,9.7z"/>
<path fill="#913A36" d="M94.2,11.2v69.4c0,3.6-3,6.5-6.6,6.5H11.5c-3.6,0-6.6-2.9-6.6-6.5V11.2c0-3.6,3-6.5,6.6-6.5h76.1
	C91.2,4.7,94.2,7.6,94.2,11.2z"/>
<path fill="#FFFFFF" d="M42.6,80.1c-2.7-1.6-1.8-2.1-1.5-4.6c0.2-0.1,0.3-0.1,0.5-0.2c2-2.1,4.5-4,10.1-9.3c1.6-0.8,1.2-2.8,1.3-4
	c-0.2-3.2-0.3-6.4-0.4-9.6c-2.2-5.3-4.4-10.6-6.6-15.8c0-3,0.2-5.1,3.5-5.7c3.8-4.8,7.7-9.7,11.5-14.4c0.8-0.3,2-2.3,2.3-3
	C57,13,50.9,13.2,45.1,13.2c-2.8,0.5-7.8,0.1-10.2-0.1c-2.2,0.7-7.3-1.1-8,1.6c-1.4,0.2-1.6,1.4-3.1,1.6c-1.6-2.4,3-3.8,4.6-3.9
	c12.1-0.1,24.2-0.2,36.4-0.3c2.5-2.6,5.2-3.1,4.1,1.6c-3.4,1.4-2.8,13.5-3,16.6c-0.5,0.6-1,1.3-1.5,2c-0.2-0.1-0.3-0.1-0.5-0.1
	c-0.9,1.4-1.4,1.7-1.9,2.7c-0.2-0.1-0.4-0.1-0.6-0.1c-0.7,1.2-2.3,2.4-2.8,3.6c15.7,31.8,15.7,31.8,18,36.1
	c-0.1,2.5-0.9,5.2-4.1,3.6C67.4,68.3,67,67.2,59,51.9c-0.1,0.1-0.2,0.1-0.2,0.2c-0.6,16.1-0.6,16.1-0.8,16.7c-2.7,2.3-3,2.8-3.4,2.8
	c-0.9,1-2.4,1.8-2.7,2.8c-0.7,0-1.6,1-2.2,1.4c0,0.5-1.7,1.6-2.1,1.9c0,0.1,0,0.2,0,0.3c-0.9,0.6-2.9,2.4-3.7,1.9
	C43.5,79.9,43,80,42.6,80.1L42.6,80.1z M56.1,34.3c-0.5-0.8-0.8-1.5-1.2-2.3c0-1.6,1.6-2.3,1.6-3.1c0.7,0.1,4.9-6.4,5.9-6.9
	c0.2-0.5,0.2-0.5,0.7-0.8c-0.1,3.5-0.1,3.5-0.5,6.9C60.9,29.9,58.2,33.2,56.1,34.3L56.1,34.3z M42.8,29.8c-7.6-3.7,1-13.7,5.2-5.3
	c0,1-0.3,2.5-0.7,3.8c-0.2,0-0.4,0.1-0.6,0.1C45.9,29.6,44,29.7,42.8,29.8L42.8,29.8z"/>
</svg>
