<?xml version="1.0" encoding="utf-8"?>
<!-- Generator: Adobe Illustrator 18.1.1, SVG Export Plug-In . SVG Version: 6.00 Build 0)  -->
<svg version="1.1" id="图层_1" xmlns="http://www.w3.org/2000/svg" xmlns:xlink="http://www.w3.org/1999/xlink" x="0px" y="0px"
	 width="100" height="91.2" enable-background="new 0 0 100 92.1" xml:space="preserve">
<path fill="#913A36" d="M99.9,7.3V85c0,4-3.3,7.3-7.4,7.3H7.4C3.3,92.3,0,89,0,85V7.3C0,3.3,3.3,0,7.4,0h85.1
	C96.5,0,99.9,3.3,99.9,7.3z"/>
<path fill="#FFFFFF" d="M96.9,9.4v73.5c0,3.8-3.2,6.9-7,6.9H9.4c-3.9,0-7-3.1-7-6.9V9.4c0-3.8,3.2-6.9,7-6.9h80.5
	C93.8,2.5,96.9,5.6,96.9,9.4z"/>
<path fill="#913A36" d="M94.6,10.9v70.2c0,3.6-3,6.6-6.7,6.6H11c-3.7,0-6.7-3-6.7-6.6V10.9c0-3.6,3-6.6,6.7-6.6h76.9
	C91.6,4.3,94.6,7.3,94.6,10.9z"/>
<path fill="#FFFFFF" d="M90.1,59.8c-4.2-3-9.4-7-13.4-9.2c-0.8,0.1-4.2-0.4-8.5-0.6c-3.5-0.3-7-0.7-10.4-1c-2.1-1.4-0.8-3.1-0.1-4.2
	c5.8-0.8,12.2-0.9,18.6-1.1c3.2,3.3,6.4,6.6,9.6,9.9C86.7,55.5,90.5,56.5,90.1,59.8"/>
<path fill="#FFFFFF" d="M37.3,57.5c-5.1-2.6-10.1-5.2-15.1-7.8c0-1.2,0.3-1.4,0.9-2.3c4.9,0.5,9.8,3.4,15.4,3.9
	c2.4-1.1,12.9-8,15.5-5.5c-0.1,5-0.2,3.7-4.1,6.3c-2,0.4-2,0.4-3.3,1c-0.1,0.2-0.1,0.4-0.1,0.7C43,54.5,40.2,56.2,37.3,57.5
	L37.3,57.5z"/>
<path fill="#FFFFFF" d="M18.3,48.5c-3-1.5-6-2.9-8.9-4.3c0-0.3,0.1-0.5,0.1-0.7c6.8-2.2,4.1-1.9,10.3,2.8c0,0.5,0.1,1,0.1,1.5
	C19.4,48,18.8,48.2,18.3,48.5L18.3,48.5z"/>
<path fill="#FFFFFF" d="M83.1,46.4c-3.5-0.9-2.7-1.5-3-4.2c1.1-2.6,2.1-2.6,5.1-2.1c0,0.1,0,0.3,0,0.5c0.1,0,0.3,0,0.5,0
	c0.6,2.2,1.8,3.3-1.1,5.5C84.1,46.2,83.6,46.3,83.1,46.4L83.1,46.4z"/>
<path fill="#FFFFFF" d="M58,42.7c-0.5-0.4-1-0.8-1.5-1.1c0-2.6-0.2-2.8,1.9-3.7c2.5,0,14.6-1.5,16.8,0.2c0.1,0.3,0.1,0.7,0.3,1.1
	c-1,0.8-0.8,1.1-1.1,2.3c-5.7,0-11.1,0.3-16.1,0.8C58.2,42.4,58,42.6,58,42.7L58,42.7z"/>
</svg>
