<?xml version="1.0" encoding="utf-8"?>
<!-- Generator: Adobe Illustrator 18.1.1, SVG Export Plug-In . SVG Version: 6.00 Build 0)  -->
<svg version="1.1" id="图层_1" xmlns="http://www.w3.org/2000/svg" xmlns:xlink="http://www.w3.org/1999/xlink" x="0px" y="0px"
	 width="100" height="91.2" enable-background="new 0 0 100 92.1" xml:space="preserve">
<path fill="#913A36" d="M99.7,7.3v77.5c0,4-3.3,7.3-7.4,7.3H7.4c-4.1,0-7.4-3.3-7.4-7.3V7.3C0,3.3,3.3,0,7.4,0h84.9
	C96.4,0,99.7,3.3,99.7,7.3z"/>
<path fill="#FFFFFF" d="M96.8,9.4v73.3c0,3.8-3.1,6.9-7,6.9H9.4c-3.8,0-7-3.1-7-6.9V9.4c0-3.8,3.1-6.9,7-6.9h80.4
	C93.6,2.5,96.8,5.6,96.8,9.4z"/>
<path fill="#913A36" d="M94.5,10.9V81c0,3.6-3,6.6-6.7,6.6H11c-3.7,0-6.7-3-6.7-6.6V10.9c0-3.6,3-6.6,6.7-6.6h76.8
	C91.5,4.3,94.5,7.3,94.5,10.9z"/>
<path fill="#FFFFFF" d="M47.8,69.9c-1.5-0.3-3-0.6-4.5-0.8c0-0.1,0-0.2,0-0.4c-3.9-1.2-6.5-1.8-10-2.1c0,0.1,0,0.2,0,0.4
	c-5.9,1.3-5.9,1.3-8,1.9c-3.1,0-6.1-0.2-8.8-0.7c0-0.2,0-0.3,0-0.4c-1.8-0.3-1.8-0.3-6.1-1.6c0-0.7,0-1.4,0-2.1
	c3.6,0.2,6.6,1.7,10.5,2.7c5.9,0,12.3-2.4,18.7-1.6c3.2,0.8,6.6,1.9,10.3,2.4c2.1-0.4,7.7-2,11.6-2.8c6,0.2,11.6,2.5,17.8,1.6
	c2.9-1,5.3-1.9,8.8-2.3c0,0.5,0,1.1,0,1.6c-4.6,1.2-5.1,1.5-5.7,1.6c0,0.2,0,0.4,0,0.6c-2.9,0.4-5,0.8-7.6,0.8
	c-4.8-0.5-9.3-2.9-13.5-1.9c0-0.2,0-0.3,0-0.4c-2.6,0.6-4.4,0.7-6.5,2.1c0,0.1,0,0.2,0,0.4C52.3,69.4,49.8,69.9,47.8,69.9L47.8,69.9
	z M48.8,63.3c-4.5-0.8-8.6-2.3-12.3-3.1c-5.1,0-8.6,1.1-13.1,2.2c-4.7,0-9.3-1.4-13.1-2.9c-0.1-0.5-0.1-1.1-0.1-1.6
	c2.3-1.2,8.5,1.8,11.7,2.5c5.6-0.3,11.2-2.5,17.4-1.8c3.1,0.8,7.2,2.4,11.2,2.4c3.8-1.1,7.9-2.1,11.7-2.8c4.7,0.7,9.9,2.1,15.3,2.1
	c3.6-1,6.7-2.2,10.6-2.7c0,0.4,0,0.9,0,1.4c-1.3,0.3-2.6,0.7-3.9,1c0,0.1,0,0.2,0,0.4c-0.2,0-0.4,0-0.6,0c0,0.1,0,0.2,0,0.4
	c-2,0.5-4,1-5.9,1.5c-7.5,0-13.5-3-20.4-1.5c0,0.1,0,0.2,0,0.4c-0.2,0-0.4,0-0.6,0c0,0.1,0,0.2,0,0.4c-0.5-0.1-0.5-0.1-2,0.2
	c0,0.1,0,0.2,0,0.4C50.6,62.9,50.2,63.1,48.8,63.3L48.8,63.3z M48.4,57c-0.9-0.8-5.1-0.6-5.7-1.5c-4.4-1.3-6.6-1.8-10.6-1.6
	c-6.1,1.6-6.1,1.6-9.7,2.2c-4.2-0.5-8.3-1.9-11.7-2.8c-0.6-0.9-0.4-1.5-0.3-2.1c3,0,5.8,1.4,9.3,2.5c6.1,0.7,12.1-1.6,18.5-1.6
	c3.2,0.8,6.4,1.6,9.6,2.4c5.6,0,10.5-2.6,16.4-2.6c5.2,0.8,9.3,2.3,15.1,1.6c2.6-0.9,5.6-2.4,8.9-2.4c0,0.7,0,0.7-0.4,1.6
	c-3.5,0.9-6.9,2.6-10.3,3.3c-5.5,0-10.7-1.7-15.4-2.2C57.3,54.4,52.8,56.2,48.4,57L48.4,57z M46.8,50.9c-2.7-0.6-11-3.3-14.1-2.4
	c0-0.1,0-0.2,0-0.4c-2.8,0.4-7.1,2.1-9.3,1.8c-0.3-1.6-0.2-1.8,0.7-3c7.5-0.3,15.1-0.5,22.7-0.8l14.1-15.8c0.8-1.2,3.8-1.8,5.5,0
	c4,2.3,8.2,6.9,12.1,8.4c1.5,4.9-2.5,3.2-2.5,2.9l-12.1-7.8c-0.9,0.8-4.2,5.5-4.2,6.2c-0.4,0-0.4,0-0.4,0.2c0.1,0,0.2,0,0.4,0
	c0,0.8,8.7,6.9,10.6,8.2c0,0.2,0,0.4,0,0.6c-3.2-0.5-7.2-1.3-10-1.5c-2.9,0.8-5.8,1.7-8.6,2.5c0,0.1,0,0.2,0,0.4
	C50,50.7,48.4,50.8,46.8,50.9L46.8,50.9z"/>
<ellipse fill="#FFFFFF" stroke="#FFFFFF" stroke-width="0.216" stroke-miterlimit="2.4142" cx="43.4" cy="35.9" rx="4.8" ry="4.7"/>
</svg>
