<?xml version="1.0" encoding="utf-8"?>
<!-- Generator: Adobe Illustrator 18.1.1, SVG Export Plug-In . SVG Version: 6.00 Build 0)  -->
<svg version="1.1" id="图层_1" xmlns="http://www.w3.org/2000/svg" xmlns:xlink="http://www.w3.org/1999/xlink" x="0px" y="0px"
	 width="100" height="91.2" enable-background="new 0 0 100 92.1" xml:space="preserve">
<path fill="#913A36" d="M99.5,7.2v77.6c0,4-3.3,7.3-7.4,7.3h-85c-4.1,0-7.4-3.3-7.4-7.3V7.2c0-4,3.3-7.3,7.4-7.3h85
	C96.2-0.1,99.5,3.2,99.5,7.2z"/>
<path fill="#FFFFFF" d="M96.6,9.3v73.4c0,3.8-3.2,6.9-7,6.9H9.1c-3.8,0-7-3.1-7-6.9V9.3c0-3.8,3.2-6.9,7-6.9h80.4
	C93.4,2.3,96.6,5.5,96.6,9.3z"/>
<path fill="#913A36" d="M94.3,10.8v70.1c0,3.6-3,6.6-6.7,6.6H10.7c-3.7,0-6.7-3-6.7-6.6V10.8c0-3.6,3-6.6,6.7-6.6h76.9
	C91.3,4.2,94.3,7.1,94.3,10.8z"/>
<path fill="#FFFFFF" d="M34.8,67c-0.3-0.1-0.5-0.1-0.7-0.2c0-0.2,0-0.3,0-0.5c1.1-0.6,1.1-0.6,2-1.5c-2.3-0.8-3.8-3-4.7-3.3
	c-4.4,3.6-8.8,3.8-12.2,0c-0.2,0-0.4,0-0.6,0c0,0.2,0,0.4,0,0.6C18.2,62,18,62,17.7,62c0,1.1-1.1,1.5-2.2,1.7c-4,0.4-5.2,0.4-8-1.2
	c0-0.3,0-0.6,0-0.8c-1.4-0.7-1.3-1.3-0.3-1.6c0,0.2,0,0.4,0,0.6c4.7,2.8,7.4,3.5,11.7-0.8c0.6,0.3,1.7,1.6,3.6,2.8
	c4.1,0.7,5.9,0.1,9.1-2.7c0.1,0,0.3,0,0.5,0c0.6,1.3,3.2,3.1,5.3,3.8c1.8-1.3,5.3-3.4,6.7-5.5c-0.3-0.3-0.5-0.7-0.7-1
	c-0.4,0.2-0.8,0.4-1.2,0.6c-0.1,0.2-0.1,0.4-0.1,0.7c-1,0-0.9,0.4-1.2,0.8c-4.4,1.3-6.2,1.8-9-1.6c-0.5-0.1-1-0.2-1.4-0.3
	c-0.6,1.2-1.3,0.9-1.8,2.2c-1.5,0.3-3,0.7-4.5,1c-5.5-2.7-9.3-6.9-13.4-10.1c0-0.1,0-0.3,0-0.4c15.1-0.1,30.3-0.2,45.4-0.3
	c2.1-1.6,4.2-3.2,6.3-4.8c-4-1.4-7.6-2.2-11.1-2.7c-1.3,0.8-2.8,3.6-3,5c-2,0-9.4-0.3-10.1,0.3c-0.2-0.1-0.4-0.3-0.6-0.3
	c3-3.6,5.5-6.9,8.8-10.4c1.3,0,2.5,0,3.9,0c2.4,0.8,14.2,6.2,14.9,8.4c-1.5,0.8-2.9,1.5-4.3,2.3c0,0.2,0,0.4,0,0.6
	c-0.6,0.1-1.1,0.3-1.6,0.5c0,0.3,0,0.7,0,1c7.4-0.1,14.9-0.1,22.4-0.1c0.1,0.1,0.3,0.2,0.6,0.3c-0.3,0.1-0.6,0.3-0.8,0.5
	c0.3,0.3,0.3,0.3,0.4,2.1c-0.2,0-0.4,0-0.6,0.1c-1.5,5.5-3.5,9.2-10,8c-2.1-1-2.6-2.4-3.6-3.7c-1.1,0.3-1.8,1.4-2,2.4
	c-1.1,0-2.3,1-3,1.3c-3.6,0-5.3-1.3-6.7-3.7c-0.3,0-0.6,0.1-0.8,0.1c-2.1,4.7-6.9,2.9-10.5,2.9c-0.1,0.1-0.1,0.3-0.1,0.5
	c1.8,2.4,5.5,3.3,8.9,1.8c1.3-1.3,2.1-2.5,2.6-2.8c0.3,0.1,0.8,1.1,1.8,2.4c4.2,2.6,6.9,1.8,9.6-2.4c0.1,0,0.3,0,0.4,0
	c1.9,3.8,6.2,5.1,10.5,2.7c0.8-0.9,1.6-1.8,2.4-2.7c0.1,0,0.3,0,0.5,0c2.5,4.1,4.9,5.2,9.6,2.7c0.9-1.4,0.9-2,2.3-2.4
	c-3,5.9-8.2,5.9-12,1.6c-0.2,0-0.4,0-0.6,0c-4.3,4.3-9.3,3.8-12.7-0.3c-0.2-0.1-0.4-0.1-0.6-0.1c-3.1,5.5-8.4,3.3-11.4,0
	c-3.7,2.9-6.2,4.5-10.2,1.8c-0.4-0.5-0.8-0.9-1.1-1.3c-1.8,0-1.5,0.4-2.7,0.8c-0.1,0.2-0.1,0.4-0.1,0.7c-1.3,0.3-2.5,0.6-3.8,1
	C37.6,65.5,35.6,66.9,34.8,67L34.8,67z M53.6,36c-0.6-0.6-1.3-1.2-1.9-1.7c-1.2-3.6,0-5.9,4-5.5c2.5,1.4,2.5,2.4,1.8,5.9
	C56.2,35.6,54.6,35.7,53.6,36L53.6,36z"/>
</svg>
