<?xml version="1.0" encoding="utf-8"?>
<!-- Generator: Adobe Illustrator 18.1.1, SVG Export Plug-In . SVG Version: 6.00 Build 0)  -->
<svg version="1.1" id="图层_1" xmlns="http://www.w3.org/2000/svg" xmlns:xlink="http://www.w3.org/1999/xlink" x="0px" y="0px"
	 width="100" height="91.2" enable-background="new 0 0 100 92.1" xml:space="preserve">
<path fill="#913A36" d="M99.8,7.6v77.3c0,4-3.3,7.3-7.4,7.3H7.7c-4.1,0-7.4-3.3-7.4-7.3V7.6c0-4,3.3-7.3,7.4-7.3h84.7
	C96.5,0.3,99.8,3.6,99.8,7.6z"/>
<path fill="#FFFFFF" d="M96.8,9.7v73.1c0,3.8-3.1,6.9-7,6.9H9.8c-3.8,0-7-3.1-7-6.9V9.7c0-3.8,3.1-6.9,7-6.9h80.1
	C93.7,2.8,96.8,5.9,96.8,9.7z"/>
<path fill="#913A36" d="M94.6,11.2v69.9c0,3.6-3,6.6-6.7,6.6H11.3c-3.7,0-6.7-3-6.7-6.6V11.2c0-3.6,3-6.6,6.7-6.6h76.6
	C91.6,4.6,94.6,7.6,94.6,11.2z"/>
<path fill="#FFFFFF" d="M30.9,79.8C28.2,73,28.2,73,28,71.6c0.5-0.8,1-1.6,1.5-2.4c1.3,0.7,2.7,1.4,4,2.1c1.3-0.9,1.4-3,2.6-3.5
	c0-0.4,0-0.7,0-1.1c-3.2-1.8-3.9-1.9-4.6-5.1c3.1-0.4,3.2-0.4,6.4,1.6c0.9-0.9,1.5-1.8,2.2-3.1c-0.9-1.4-1.7-1.3-2.5-1.8
	c0-1.3,0.6-1.7,0.8-2.4c2.8,0,2.1,3.3,4.4-0.5c0.1-0.4,0.2-0.8,0.3-1.2c-4.2-0.6-4.2-0.6-5.3-0.6c0-1.4,1.1-3.8,2.2-4.1
	c-0.1,1.6-0.1,1.6,0.1,2.8c1,0.3,2.1,0.5,3.2,0.8c1.1-0.7,5.6-5.4,4.9-5.9c-4.5,0.7-7.9,0.8-11.7,0.8c0,0.2,0,2.7-0.2,3.2
	c-0.8,0.1-1.7,0.3-2.4,0.4c-0.1-2.1-0.1-2.1-0.4-3.3c-1.3,0-2.5,0-3.7,0c0,0.7-0.6,3.6-0.3,4.7c-0.2,0-0.4,0-0.6,0.1
	c-0.1,0.3-0.1,0.5-0.1,0.8c-0.5,0.1-1,0.3-1.5,0.4c-2.2-2.7-1.7-3.4-1.8-6.1c-1.9-0.1-3.7-0.1-5.6-0.1c0.2,0.9,0.1,2.8,0.3,4.3
	c-0.3,0.3-0.3,0.3-2.9,0.4c-8.9-8.1-5.3-6.7-0.4-13.2c0.9-0.1,2-0.1,3-0.2c0,1.6-0.1,2.8,0.4,4.8c1.7,0,3.3,0.1,5,0.1
	c0.3-3.2,0.1-4.1,1.7-6.4c0.3-0.1,0.6-0.1,0.9-0.1c1.7,2.3,1.2,3.3,1.9,6.3c0.7,0.2,0.7,0.2,3.6-0.2c0-1.1,0.1-2.2,0.1-3.3
	c0.8,0,1.6,0.1,2.4,0.1c0.1,1,0.3,2.1,0.4,3.1c1.1,0,2.2,0.1,3.3,0.1c0.1-0.1,0.2-0.3,0.3-0.3c-1.5-3-1.5-3-2.2-5.2
	c1.6-0.1,3.2-0.1,4.8-0.1c-0.6-4.8-3-1.9-4.9-1.9c-0.4-0.8-0.4-0.8-0.6-1.8c0.8-0.6,1.5-1.1,2.3-1.6c0-1.6-1.4-3-2-3.3
	c-2.3,0.9-3.6,2.2-6.2,1.4c-0.3-3.1,1.7-3.8,3.9-4.8c1.3-1.7-1.8-4.8-2.6-5.2c-0.3,0.2-0.3,0.2-0.4,0.8c-1.6,0.3-1.6,0.3-2.7,0.9
	c-0.1,0.2-0.1,0.4-0.1,0.6c-4.1-1.3,0.3-8.6,0.9-10.7c5.3,0.8,5.5,1,8.9,1.6c0.3,0.7,0.7,1.4,1.1,2.2c-0.3,0.7-3.1,1.9-3.6,2.1
	c0,1.4,1.4,3.4,2.3,5.1c0.8,0,2.5-1.3,3.4-1.9c1.8,0,1.8,0,3.3,0.3c-0.8,2.3-0.8,2.3-0.8,3.1c-1.4,0-3.1,1.6-3.7,2.2
	c0.6,1.1,1.3,2.1,1.9,3.3c1,0.2,2-1.6,3.6-1.2c0.4,1.1,0.4,1.1,0.4,1.9c-0.4,0.2-0.4,0.1-0.3,0.7c-1.1,0-1.1,0.1-2,0.6
	c0,0.9,0.8,2.2,1.6,3.4c0.2,0,0.4,0.1,0.6,0.1c0.9-1.5,2-3,3-4.4c0.1-0.1,0.3-0.1,0.4-0.1c0.8,1.5,1.7,3,2.6,4.5c0.3,0,0.5,0,0.8,0
	c0.6-1.2,1.4-2.6,1.7-3.6c-0.8-0.4-1.7-0.9-2.4-1.3c0-1.1,0.4-1.6,0.7-2.2c0.8,0.1,1.8,0.6,3,1.3c0.8-1.3,1.6-2.4,1.7-3.6
	c-2.3-1.3-4.1-2-4.1-4.7c2.9-1.6,4.3,0.9,6.8,1.2c0.8-1.4,1.6-2.8,2.4-4.1c-0.4-1.4-3.4-2.4-3.9-2.4c0.3-0.8,0.6-1.6,0.9-2.4
	c3-1.2,5.9-1.3,9.3-1.9c0.8,2.3,2.2,5.3,2.5,8.3c-0.4,0.7-0.9,1.4-1.3,2.1c-1.5-0.6-1.5-0.6-4.3-2.2c-0.4,1.4-3.1,2.9-2,5
	c2.7,1.4,2.9,1.4,4.4,4.8c-0.9,0.2-1.9,0.4-2.8,0.7c-1.8-0.9-3.4-2.3-4.8-1.6c0,0.2,0.1,0.4,0.1,0.6c-0.3,0-0.4,0.1-0.6,0.1
	c-0.6,1.8-1.1,2.7,1.8,3.6c0,0.4,0.1,0.7,0.1,1.1c-0.7,0.2-0.6,0.9-1.6,1.1c-1.6-1-1.6-1-2.5-1.3c-0.7,0.6-1.4,1.3-1.1,2.4
	c-0.2,0-0.4,0-0.5,0.1c0.5,1.6,3.2,0.7,5.5,1.5c0,0.2,0,0.4,0,0.6c-0.2,0.1-0.3,0.2-0.4,0.3c0,0.3-1.1,2.4-1.8,2.6
	c-0.1-0.8-0.1-1.6-0.1-2.4c-3.4-0.9-3.4-0.9-3.6-0.7c0,0.1,0.1,0.3,0.1,0.4c-0.2-0.1-0.4-0.1-0.6-0.1c-0.7,0.9-0.7,0.9-1.3,1.3
	c0,0.3,0,0.5,0,0.7c-1.1,0-2.7,2.3-2.9,3.3c2.5,0,5.6-0.7,8.6-1.2c0,0.2,0,0.4,0,0.6c1.2-0.1,2.5-0.2,3.7-0.3c0-1.1,0.1-2.3,0.1-3.4
	c0.7-0.1,1.5-0.1,2.2-0.1c0,1-0.3,1.9,0.5,3.3c1.2,0,2.4,0,3.7,0c0.7-2.6-0.6-5.3,2.5-6.1c0.6,0.7,1.1,1.4,1.7,2.1
	c0,1.3-0.3,2.9,0.4,4.4c1.6,0,3.2,0,4.8,0c0.3-1.3,0.3-1.3,0.4-4.9c0.9,0,1.9,0,2.9,0c0.7,0.7,5.7,5.1,5.4,7.2
	c-0.2,0.1-0.4,0.1-0.6,0.2c0,0.7-0.8,0.6-1.1,1.9c-0.2,0-0.4,0-0.6,0.1c0,0.2,0.1,0.4,0.1,0.6c-1.1,0-1.5,0.7-1.7,1.9
	c-0.3,0.1-0.5,0.1-0.8,0.2c-0.8,1.6-2.3,1.3-3.6,1.3c-0.1-1.6-0.3-3.1-0.4-4.6c-1.7-0.1-3.4-0.1-5-0.1c0,0-1,4.7-0.8,5.3
	c-1,0-0.9,0.4-1.2,0.9c-2.7,0-2.4-5-2.5-6.1c-1.3-0.1-2.5-0.1-3.7-0.2c-0.2,0.4-0.2,2.9-0.5,3.7c-0.7-0.1-1.4-0.1-2.1-0.2
	c-0.1-1.1-0.2-2.3-0.3-3.3c-1.5,0-2.7-0.4-3.7,0.1c0.4,1.1,2.2,3.6,1.8,5.3c-2.7,0.1-2.7,0.1-4.3,0.4c0-0.3,0-0.5,0.1-0.7
	c0.8-0.4,1.6-0.7,2.4-1c-0.3-1.2-0.6-2.4-0.9-3.6c-1.6-0.4-6.3-1.6-7-1.3c0.4,0.7,0.4,0.7,4.1,5c0,0.9,1.5,3.3,2.1,4.4
	c1.1-0.2,2.1-0.7,3.2-1.4c0.2,0.4,1,1.3,0.8,2.5c-0.5,0.3-0.9,0.2-2.3,1c0,0.7,1.1,2.2,1.7,3.4c2.4,0,3.2-2.6,6.8-1
	c-0.6,0.6-1,1.4-0.8,2.6c-0.2,0-0.4,0.1-0.6,0.1c0,0.1,0,0.1,0.1,0.3c-1.5,0.7-2.2,0.5-2.5,1.9C65.3,66.1,65.2,66,65,66
	c-0.1,0.1-0.2,0.3-0.3,0.4c0.4,0.9,1.3,3.4,2.7,4.4c1.4-0.8,2.3-1.1,3.9-2.1c2.9,3.3-0.7,4.4-0.1,7.7c-0.2,0-0.4,0-0.5,0.1
	c0,0.8-0.4,1.8-0.8,3.1c-3.2-0.6-5.6-1.2-8-1.3c-3.7-4.5-1.1-2.4,1.7-5.2c0-1.5-1.5-3.4-2-4.3c-2.4,0-3,1.1-4.6,1.7
	c-0.5-0.3-0.5-0.3-2.5-0.3c0.4-3.5,1.5-3.5,4.3-5.3c0-3.1-3.2-4.3-4.8-1.9c-1-0.9-1.1-1.6-1.1-2.2c0.8-0.6,1.7-1.1,2.5-1.6
	c-0.7-1.4-1.5-2.9-2.1-3.4c-0.3,0.4-1.3,2.1-1.8,2.3c-0.1,0.3-0.1,0.5-0.1,0.8c-0.2,0-0.4,0.1-0.6,0.1c0.1,0.2,0.1,0.4,0.2,0.7
	c-0.8,0.3-0.8,0.3-1.4,0.1c-0.7-1.3-1.4-2.4-2.1-3.6c-0.3-0.1-0.6-0.1-0.9-0.2c-1.2,2.8-3.4,2.4,0.9,4.8c-0.3,0.7-0.5,1.4-0.7,2.2
	c-1.6,0-2.5-0.9-3.6-0.9c-0.4,0.7-0.9,1.6-1.3,2.4c0.8,0.9,4.9,3.7,4.2,5.8c-3.8,0.2-4.1,0-6.8-1.4c-0.6,0.4-2.7,3.6-1.9,4.8
	c1,0.6,2,1.1,3,1.8c0,1.1-0.7,1.4-0.7,2.6C36.9,78.7,33.3,79.5,30.9,79.8L30.9,79.8z M36.6,69.9c-0.5-3.8,5.1-8.7,5.9-12.5
	c0.6-0.2,1.1-1.6,1.2-1.8c0.1-0.1,0.3-0.1,0.4-0.1c-0.1-0.3-0.1-0.5-0.1-0.7c0.4,0,0.8-1.4,0.8-1.7c0.2-0.1,0.4-0.3,0.7-0.4
	c0-1.1,0.6-1.5,0.7-2.3c0.8,0.1,0.8,0.1,1.4,0.6c0,0.4,0,0.7,0,1.1c-3.5,5.8-7,11.6-10.4,17.4C37,69.7,36.8,69.8,36.6,69.9
	L36.6,69.9z M63.9,69.8c-0.6-0.6-2.3-3.9-4.4-6.8c-2.1-3.6-6-8.8-7-12.4c0.8,0,0.6-0.5,2,0.6c1.8,3.6,2.8,5.1,10,18
	C64.2,69.3,64,69.5,63.9,69.8L63.9,69.8z M50.1,57.8c0-0.2,0-0.3,0-0.4c-0.8-0.5-1.5-1-2.2-1.4c-0.2-1.7,0.6-4.6,1.5-5.5
	c0-0.8,0.2-2.7,1.3-2.4c0.7,2.1,1.4,4.2,2.1,6.3C52.7,55.5,51.3,57.6,50.1,57.8L50.1,57.8z M33,47c-2.4-1.2-7.6-0.4-10-0.4
	c-0.1-0.3-0.1-0.6-0.1-0.9c6.2,0,12.1-0.4,18.4-0.2c0.4-0.4,2.3-0.1,3.5,0c0,0.4,0,0.9,0.1,1.4C40.9,46.9,36.9,46.9,33,47L33,47z
	 M55.8,47c-0.1-0.6-0.1-1.1-0.2-1.7c5.3,0.1,6.5,0.3,20.7,0.3c0.4,0.1,0.9,0.1,1.3,0.3c0.1,0.2,0.1,0.4,0.2,0.7
	C68.5,46.9,68.5,46.9,55.8,47L55.8,47z M46.9,45.1c-2-0.5-3.9-1-5.8-1.4c-0.5-0.9-1.1-3.3-1.4-3.6c0.4-0.3,0.4-0.3,1.5-0.4
	c0-0.1,0.1-0.3,0.1-0.4c0.5,0.1,0.9-0.2,1.8-0.3c0.4,0.8,0.9,1.6,1.5,2.5c0.1,0,0.3,0,0.4,0c0.3,0.6,0.7,1.1,1.1,1.7
	c0.1,0,0.3,0,0.4,0c0.1,0.3,0.1,0.5,0.3,0.8c0.1,0,0.3,0.1,0.4,0.1c0.1,0.3,0.3,0.6,0.4,0.9C47.3,45.1,47.1,45.1,46.9,45.1
	L46.9,45.1z M49.9,44.9c-0.9-2.6-1.8-5.1-2.7-7.6c0.3-0.7,1.7-2.2,2.4-2.7c1.6,0.9,1.6,0.9,3.1,2.1C52.4,38.7,51.2,42.6,49.9,44.9
	L49.9,44.9z M46.5,42.2c-0.3-0.4-9.5-17.6-10.2-18c-0.1-0.5-0.1-1-0.2-1.5c3,2.2,8.5,12.9,11.5,18.2c0,0.3,0,0.5,0.1,0.8
	C47.2,41.8,46.9,42,46.5,42.2L46.5,42.2z M53.4,41.7c-0.3-0.1-0.6-0.1-0.8-0.2c0-1.3-0.4-2.1,0.8-2.5c0.2-0.5,0.4-1,0.6-1.5
	c0.1-0.1,0.3-0.1,0.5-0.2c-0.1-0.3-0.1-0.5-0.1-0.7c0.2-0.1,0.4-0.1,0.7-0.1C55.1,36.2,55,36,55,35.7c0.2,0,0.4,0,0.6,0
	c0-0.3,0-0.6,0-0.9c0.2,0,0.4,0,0.6,0C56.1,34.5,56,34.3,56,34c0.2,0,0.4,0,0.6,0c0.2-0.9,0.5-1.2,0.4-1.7c0.2,0,0.4,0,0.6,0
	c-0.1-0.3-0.1-0.5-0.2-0.7c0.3-0.2,0.5-0.4,0.8-0.5c-0.1-0.3-0.1-0.5-0.1-0.7c0.1,0,0.3,0,0.4,0c0.1-0.3,0.1-0.5,0.2-0.7
	c0.1-0.1,0.3-0.1,0.4-0.1c-0.1-0.3-0.1-0.5-0.1-0.7c0.2-0.1,0.4-0.1,0.7-0.1c-0.1-0.3-0.1-0.6-0.2-0.9c0.2,0,0.4,0,0.6,0
	c0-0.3,0-0.6,0-0.8c0.2,0,0.4,0,0.6,0c-0.1-0.3-0.1-0.6-0.2-0.8c0.2,0,0.4,0,0.6,0c0-0.3,0-0.6,0-0.9c0.1,0,0.3,0,0.4,0
	c-0.1-0.3-0.1-0.5-0.2-0.7c0.4-0.3,0.4-0.3,0.6-0.9c0.2,0,0.4,0,0.6,0c0-0.3,0.1-0.6,0.1-0.9c0.5-0.3,0.5-0.3,0.9-0.2
	c0,1.7-2.2,3.4-2.3,5.5c-0.2,0-0.3,0-0.4,0c-2.3,4.4-4.7,8.9-7,13.3C53.8,41.6,53.6,41.7,53.4,41.7L53.4,41.7z"/>
</svg>
