<?xml version="1.0" encoding="utf-8"?>
<!-- Generator: Adobe Illustrator 18.1.1, SVG Export Plug-In . SVG Version: 6.00 Build 0)  -->
<svg version="1.1" id="图层_1" xmlns="http://www.w3.org/2000/svg" xmlns:xlink="http://www.w3.org/1999/xlink" x="0px" y="0px"
	 width="100" height="100" enable-background="new 0 0 100 100" xml:space="preserve">
<g>
	<path fill="#F4AB1C" d="M9.7,84.7h80.1L49.8,15.2L9.7,84.7z M27.2,83.2l-5.7-9.9l2.6-3.4l7.6,13.3H27.2z M38.7,83.2l-7.9-15.4h4.5
		l7.9,15.4H38.7z M50.9,83.2l-5-9.7l1.6-5.6l7.9,15.4L50.9,83.2L50.9,83.2z M62.3,83.2l-7.9-15.4h4.5l7.9,15.4H62.3z M70.8,67.8
		l7.9,15.4h-4.5l-7.9-15.4H70.8z M59,56.1l0,4.8c-2.1,2.9-3.7,2.7-4.1-4.3l-1.3-1.3l0.4,14l3.7,6.9c0.3,3.5-2.6,4.2-4.5,0.7
		l-3.7-7.3l-0.1-4.2l-3,3.2c-1.1,1.3-0.9,3.3-1.4,4.9l-1.1,2.9c-5.8,6.7-2.7-8.2-2.1-8.8c0.4-2.1,2.7-2.9,3.7-4.4l0-5.7l-1.2,0.1
		c-0.9,0-3.7,2.3-4.5,2.4c-1.3,0.1-2.9-1.4-1.8-2.1c0.1-0.1,0.2-0.1,0.3-0.2c3.4-1.8,6.3-4.6,8.5-8.3c1.6-3.2,5.2-2.5,7.6-0.5
		L59,56.1z M53.8,42.2c0,2.1-1.7,3.8-3.9,3.8c-2.1,0-3.9-1.7-3.9-3.8s1.7-3.8,3.9-3.8C52.1,38.4,53.8,40.1,53.8,42.2z"/>
	<path fill="#010101" d="M98.4,88.5c0-0.1,0-0.3,0-0.4c0-0.1,0-0.3-0.1-0.4c0-0.1-0.1-0.3-0.1-0.4s-0.1-0.3-0.1-0.4
		c-0.1-0.5-0.3-1-0.5-1.6c0-0.1-0.1-0.2-0.1-0.2c-0.1-0.2-0.1-0.3-0.2-0.5c-0.1-0.3-0.3-0.6-0.4-0.9c-0.5-0.9-1-1.8-1.5-2.6
		L53.8,8.4c-2.4-4.1-6.4-2.5-8,0L3.4,82.6c-1.8,3.1-2.4,5.7-1.6,7.4c0.4,0.9,1.3,1.5,2.6,1.7l0,0h90C97.4,91.8,98.4,90.4,98.4,88.5z
		 M9.7,84.7l40.1-69.5l40.1,69.5H9.7z"/>
	<ellipse fill="#010101" cx="50" cy="42.2" rx="3.9" ry="3.8"/>
	<path fill="#010101" d="M46.7,49.3c-2.2,3.7-5.1,6.4-8.5,8.3c-0.1,0.1-0.2,0.1-0.3,0.2c-1.1,0.7,0.6,2.2,1.8,2.1
		c0.9,0,3.7-2.3,4.5-2.4l1.2-0.1l0,5.7c-1,1.5-3.3,2.3-3.7,4.4c-0.6,0.6-3.7,15.6,2.1,8.8l1.1-2.9c0.5-1.6,0.3-3.6,1.4-4.9l3-3.2
		l0.1,4.2l3.7,7.3c2,3.5,4.9,2.8,4.5-0.7L54,69.3l-0.4-14l1.3,1.3c0.4,6.9,2,7.1,4.1,4.3l0-4.8l-4.7-7.3
		C51.9,46.8,48.4,46,46.7,49.3z"/>
	<polygon fill="#010101" points="78.8,83.2 70.8,67.8 66.3,67.8 74.3,83.2 	"/>
	<polygon fill="#010101" points="54.4,67.8 62.3,83.2 66.8,83.2 58.9,67.8 	"/>
	<polygon fill="#010101" points="30.7,67.8 38.7,83.2 43.2,83.2 35.2,67.8 	"/>
	<polygon fill="#010101" points="21.5,73.2 27.2,83.2 31.7,83.2 24.1,69.8 	"/>
	<polygon fill="#010101" points="45.9,73.4 50.9,83.2 55.4,83.2 47.5,67.8 	"/>
</g>
</svg>
