<?xml version="1.0" encoding="utf-8"?>
<!-- Generator: Adobe Illustrator 18.1.1, SVG Export Plug-In . SVG Version: 6.00 Build 0)  -->
<svg version="1.1" id="图层_1" xmlns="http://www.w3.org/2000/svg" xmlns:xlink="http://www.w3.org/1999/xlink" x="0px" y="0px"
	 width="100" height="91.2" enable-background="new 0 0 100 92.1" xml:space="preserve">
<path fill-rule="evenodd" clip-rule="evenodd" fill="#903935" d="M99.8,7.3v77.5c0,4-3.3,7.3-7.4,7.3H7.6c-4.1,0-7.4-3.3-7.4-7.3
	V7.3c0-4,3.3-7.3,7.4-7.3h84.9C96.5,0,99.8,3.3,99.8,7.3z"/>
<path fill="#FFFFFF" d="M96.9,9.4v73.3c0,3.8-3.1,6.9-7,6.9H9.6c-3.8,0-7-3.1-7-6.9V9.4c0-3.8,3.1-6.9,7-6.9h80.3
	C93.7,2.5,96.9,5.6,96.9,9.4z"/>
<path fill="#903935" d="M94.6,10.9V81c0,3.6-3,6.6-6.7,6.6H11.2c-3.7,0-6.7-3-6.7-6.6V10.9c0-3.6,3-6.6,6.7-6.6h76.8
	C91.6,4.3,94.6,7.3,94.6,10.9z"/>
<path fill-rule="evenodd" clip-rule="evenodd" fill="#FFFFFF" d="M13.8,78.4c-1.4-0.4-1.4-0.4-3.6-0.5c-0.1-0.4-0.1-0.7-0.1-1
	c10.1-0.1,20.4-0.2,30.6-0.3c1.3-3.5,2-4.7,6-5.9l12.8-9.5c-2.7-0.8-20-7.1-20-9.1c-17,2.7-17,2.7-20,3.5c0,0.3,0,0.5,0,0.9
	c-0.3,0-0.4,0-0.6,0c0-0.4,0-0.9,0-1.2c-0.3,0-0.4,0-0.6,0c0-0.2,0-0.4,0-0.5c0.2,0,0.4,0,0.6,0c0-0.4,0-0.9,0-1.2
	c0.2,0,0.4,0,0.6,0c0,0.3,0,0.5,0,0.9c6.4-1.2,12.7-2.3,19.1-3.5c3-16.2,6-18.1,21.3-24.2c2.7-0.5,2.7-0.5,5.9-0.5
	c1.8,0.5,3.4,1.6,4.5,2c3.1,2,6.5,8.8,2.7,13.6c0.1,0.4,0.2,1,0.4,1.5c1.3,0.1,6.3-0.2,7.4-0.9c0.6,0.8,0,1.9,0,3.2
	c-3.9,0.4-7.8,1-11.7,1.5c0-0.3,0-0.4,0-0.6c-4.7,0.8-9.3,1.6-14,2.5c-0.2,0.4-0.3,0.7-0.4,1.1l10.5,8.3c0.9,0.2,3.9,2.4,2.3,3.2
	c-0.9,3.7-15.3,10.6-17.7,11.3c-0.1,0.2-0.2,0.4-0.3,0.6c-0.2,0-0.4,0-0.5,0C49,73.6,49,73.8,48.9,74c1,0.3,2,0.5,3,0.8
	c0,0.4,0,1,0,1.5c11.2,0.2,22.4,0.4,33.7,0.7c1.3-0.3,2.8-0.5,4.2-0.7c0,0.3,0,0.5,0,0.9c-0.4,0-0.6,0-0.9,0
	c-0.1,0.3-0.2,0.5-0.3,0.9C63.7,78.2,38.7,78.3,13.8,78.4L13.8,78.4z M55.4,47.7c0.4-1.4,7.4-6.3,9-6.7c0.9,0,1.8,0,2.8,0
	c0.6,1.1,1.3,2,0.9,4.5C59.5,46.9,58.2,47.4,55.4,47.7L55.4,47.7z"/>
<ellipse fill-rule="evenodd" clip-rule="evenodd" fill="#FFFFFF" stroke="#FFFFFF" stroke-width="0.216" stroke-miterlimit="2.4142" cx="81.2" cy="25.3" rx="6.1" ry="6"/>
</svg>
