<?xml version="1.0" encoding="utf-8"?>
<!-- Generator: Adobe Illustrator 18.1.1, SVG Export Plug-In . SVG Version: 6.00 Build 0)  -->
<svg version="1.1" id="图层_1" xmlns="http://www.w3.org/2000/svg" xmlns:xlink="http://www.w3.org/1999/xlink" x="0px" y="0px"
	 width="100" height="91.2" enable-background="new 0 0 100 92.1" xml:space="preserve">
<path fill="#913A36" d="M99.8,7.4v77.4c0,4-3.3,7.3-7.4,7.3H7.6c-4.1,0-7.4-3.3-7.4-7.3V7.4c0-4,3.3-7.3,7.4-7.3h84.8
	C96.5,0.1,99.8,3.4,99.8,7.4z"/>
<path fill="#FFFFFF" d="M96.8,9.5v73.2c0,3.8-3.1,6.9-7,6.9H9.6c-3.8,0-7-3.1-7-6.9V9.5c0-3.8,3.1-6.9,7-6.9h80.2
	C93.7,2.6,96.8,5.7,96.8,9.5z"/>
<path fill="#913A36" d="M94.5,11v70c0,3.6-3,6.6-6.7,6.6H11.2c-3.7,0-6.7-3-6.7-6.6V11c0-3.6,3-6.6,6.7-6.6h76.7
	C91.5,4.4,94.5,7.4,94.5,11z"/>
<path fill="#FFFFFF" stroke="#FFFFFF" stroke-width="0.216" stroke-miterlimit="2.4142" d="M49,80.3c0.1-0.3,0.1-0.7,0.2-0.9
	c2.4,0,3.2,0.1,3.9-2.6c-1.2-1.2-1.5-2.7-0.7-3.5c2.9,0.1,3.6,0.2,6.7,1.9c0.9,0.1,1.9,0.2,2.9,0.3c-0.5,1.1-0.9,1.4-2.2,2
	c0.1,0.5,0.3,1.1,0.4,1.7c1.7,0.1,3.4,0.1,5.1,0.2c0,0.2,0,0.4,0,0.6C59.9,80.1,54.5,80.2,49,80.3L49,80.3z M53.9,79.4
	c-0.1-0.7-0.1-1.3-0.1-1.9c1.7-0.4,3.4-0.3,5.6-0.3c0,0.7,0,1.4,0,2.2C57.5,79.4,55.7,79.4,53.9,79.4L53.9,79.4z M19.8,75.7
	c-0.1-0.4-0.3-0.8-0.4-1.1c-0.5-5.3-1.1-10.5-1.6-15.8c0.2,0.1,0.5,0.3,0.7,0.4c0.3,2.2-0.1,3.2,2.9,3.5c0.9-1.6,1.2-1.2,3.4-1.1
	c0.5,1.5,0.7,5.4-1,6.8c0,1.2,0.1,2.4,0.1,3.6c-1.5,0-1.7-1.1-2-1.6c-0.7,0-1.5,0.1-2.1,0.1c0,1.4,0.5,3,0.3,5.3
	C20.1,75.7,19.9,75.7,19.8,75.7L19.8,75.7z M53.2,71.7c0-5.4,2.5-9.9,2.5-14.4c-0.7-1.4-5-11-6-11.5c-0.3,0.1-0.5,0.3-0.7,0.4
	c0,0.8-1.5,0.8-1,2.3c-0.3,0-0.5,0.1-0.7,0.1c-0.7,1.8-1,2-1,2.6c-0.5,0-4,5.9-4.9,6.8c-5,1.8-10,3.7-14.9,5.5
	c-0.1-2.5,0.7-1.6,1.6-2.8c3.7-2.1,8.4-4.9,11.4-7.9c1.5-5.7,3.2-11.6,4.9-16.9c1.9-1.2,4.7-5,6.5-5.6c2.9-2.8,3.6-3.2,4.8-4.5
	c-1.5-2.2-6.2-3.2-8.2-2.6c-0.3,0.7-6,3.2-6.8,3.5c-1.3,0.9-2.9,1.8-4.2,1.8c0-4.2,3.5-3.4,6-5.9c3.2-1.8,4.9-3.7,8.4-3.9
	c1.2,0.7,7.5,2.6,13.5,4.9c1.2,1.5,2.4,3.1,3.6,4.7c0.7,4.2,2.3,8.3,3.7,13.1c7,3.8,7,3.8,9.5,4.9c0.5,1.4,0.5,1.4,0.5,2.2
	c-4.1,0-8.8-2.8-12.3-3.9c-2.3-2.2-3.4-9.5-5.4-9.5c-0.3,0.5-0.3,0.5-1.6,1.2c-0.1,0.2-0.1,0.5-0.1,0.7c-1.9,0.3-1.7,1.1-3.1,1.6
	c-0.1,0.3-0.1,0.5-0.1,0.8c-1.4,0.2-2.6,1.8-3.7,2.8c0.9,3.8,4.1,8.7,6.2,13.2c-0.3,2.2-2.9,7.3-2.3,9.4c-0.2,0.1-0.4,0.1-0.6,0.2
	c-0.3,1.2-0.7,2.6-0.9,3.9c-1.7,0-0.1,1.7-1.1,2.8C55.5,71.6,54.3,71.7,53.2,71.7L53.2,71.7z M19.8,69.3c-0.3-2-0.9-4.1-0.3-5.5
	c0.6-0.1,1.2-0.1,1.9-0.2c0.5,4.4,0.5,4.4,0.5,5.7C21.1,69.3,20.5,69.3,19.8,69.3L19.8,69.3z M70.9,24.5c-1-0.4-2-0.8-2.9-1.1
	c0-0.2,0-0.3,0-0.5c-0.1,0-0.3,0-0.4,0c0-0.1,0-0.3,0-0.4c-0.2,0-0.3,0-0.5,0c-1.6-4.3-1.5-4.7,0.5-8.3c0.2,0,0.4,0,0.7,0
	c0-0.2,0-0.3,0-0.5c1.9-0.7,2.8-0.7,5-0.9c0,0.1,0,0.3,0,0.5c0.3,0,0.6,0,0.9,0c0,0.1,0,0.3,0,0.4c3.1,1.1,3.8,8.1,0.2,9.6
	c0,0.1,0,0.3,0,0.5c-0.2-0.1-0.4-0.1-0.5-0.2c-0.1,0.1-0.1,0.3-0.1,0.4C72.8,24.2,71.9,24.3,70.9,24.5L70.9,24.5z"/>
</svg>
