<?xml version="1.0" encoding="utf-8"?>
<!-- Generator: Adobe Illustrator 18.1.1, SVG Export Plug-In . SVG Version: 6.00 Build 0)  -->
<svg version="1.1" id="图层_1" xmlns="http://www.w3.org/2000/svg" xmlns:xlink="http://www.w3.org/1999/xlink" x="0px" y="0px"
	 width="181.6" height="92.1" enable-background="new 0 0 181.6 92.1" xml:space="preserve">
<path fill="none" stroke="#FFFFFF" stroke-width="1.085" stroke-miterlimit="2.4142" d="M177.3,13.3v65.4c0,4.3-2.3,7.9-5.2,7.9H9.5
	c-2.9,0-5.2-3.5-5.2-7.9V13.3c0-4.3,2.3-7.9,5.2-7.9h162.6C174.9,5.4,177.3,9,177.3,13.3z"/>
<rect x="0" y="0.3" fill="#FFFFFF" width="181.6" height="91.6"/>
<path fill="#010101" d="M174.4,89H7.1c-2.4,0-4.3-1.9-4.3-4.3v-78c0-2.4,1.9-4.3,4.3-4.3h167.3c2.4,0,4.3,1.9,4.3,4.3v78
	C178.7,87,176.8,89,174.4,89z"/>
<path fill="#FFFFFF" stroke="#231815" stroke-width="0.216" stroke-miterlimit="2.4142" d="M172.4,86.4H8.9c-2.1,0-3.7-1.7-3.7-3.7
	V8.4c0-2.1,1.7-3.7,3.7-3.7h163.5c2.1,0,3.7,1.7,3.7,3.7v74.3C176.2,84.7,174.5,86.4,172.4,86.4z"/>
<path fill="#231815" stroke="#231815" stroke-width="0.216" stroke-miterlimit="2.4142" d="M131.1,35.4l-5-16
	c-0.9-2.7-0.7-2.4-3.5-3.5C104,8.7,84.2,8,63,15.3c-3.5,0.4-5.6,2.5-6.9,5.7c-1.2,8.4-2.9,15.5-6.6,18.1c-2.1,0.9-3.7,2.2-2.5,6.7
	l4.6,22.8l3.5,0l0,9.7c-0.1,4.4,8.1,4.2,8.2,0v-10l57.8,0.2l0,8.8c0,6.3,9.4,6.1,9.4,0.2l0-9l3.6,0l2.2-22.3
	C137.4,41.2,135.7,37.6,131.1,35.4z M55.2,48.2c-2.1,0-3.9-1.7-3.9-3.8c0-2.1,1.7-3.8,3.9-3.8c2.1,0,3.9,1.7,3.9,3.8
	C59,46.5,57.3,48.2,55.2,48.2z M119.3,56.3H65.9v-5h53.3V56.3z M119.3,47.4H65.9c-0.8-1.4-1.7-2.9,0-5c17.2-3,35-3,53.3,0
	C120.3,44.7,120.1,46.4,119.3,47.4z M58.8,34L62,21.6c7.2-6.2,51-8.5,59.2,0l3.3,12.4C102.6,30.9,80.7,30.9,58.8,34z M129,47.6
	c-2.1,0-3.9-1.7-3.9-3.8s1.7-3.8,3.9-3.8c2.1,0,3.9,1.7,3.9,3.8C132.9,45.9,131.1,47.6,129,47.6z"/>
</svg>
