<?xml version="1.0" encoding="utf-8"?>
<!-- Generator: Adobe Illustrator 18.1.1, SVG Export Plug-In . SVG Version: 6.00 Build 0)  -->
<svg version="1.1" id="图层_1" xmlns="http://www.w3.org/2000/svg" xmlns:xlink="http://www.w3.org/1999/xlink" x="0px" y="0px"
	 width="181.6" height="92.1" enable-background="new 0 0 181.6 92.1" xml:space="preserve">
<path fill="none" stroke="#FFFFFF" stroke-width="1.085" stroke-miterlimit="2.4142" d="M177.2,13.6V79c0,4.3-2.3,7.9-5.2,7.9H9.4
	c-2.9,0-5.2-3.5-5.2-7.9V13.6c0-4.3,2.3-7.9,5.2-7.9H172C174.8,5.7,177.2,9.3,177.2,13.6z"/>
<rect x="-0.1" y="0.5" fill="#FFFFFF" width="181.6" height="91.6"/>
<path fill="#010101" d="M174.3,89.2H7c-2.4,0-4.3-1.9-4.3-4.3V7c0-2.4,1.9-4.3,4.3-4.3h167.2c2.4,0,4.3,1.9,4.3,4.3v77.9
	C178.6,87.3,176.7,89.2,174.3,89.2z"/>
<path fill="#FFFFFF" stroke="#231815" stroke-width="0.216" stroke-miterlimit="2.4142" d="M172.3,86.6H8.8c-2.1,0-3.7-1.7-3.7-3.7
	V8.6c0-2.1,1.7-3.7,3.7-3.7h163.5c2.1,0,3.7,1.7,3.7,3.7v74.3C176,85,174.4,86.6,172.3,86.6z"/>
<g>
	<rect x="72" y="19.3" fill="#231815" width="23.2" height="18.9"/>
	<rect x="123.9" y="19.3" fill="#231815" width="23.2" height="18.9"/>
	<rect x="97.7" y="19.3" fill="#231815" width="23.2" height="18.9"/>
	<path fill="#231815" d="M53.9,60.4c-5.7,0-10.3,4.6-10.3,10.1c0,5.6,4.6,10.1,10.3,10.1s10.3-4.6,10.3-10.1
		C64.2,65,59.6,60.4,53.9,60.4z M53.9,76.6c-3.4,0-6.1-2.7-6.1-6c0-3.3,2.7-6,6.1-6c3.4,0,6.1,2.7,6.1,6
		C60,73.9,57.3,76.6,53.9,76.6z"/>
	<path fill="#231815" d="M116.6,60.4c-5.7,0-10.3,4.6-10.3,10.1c0,5.6,4.6,10.1,10.3,10.1c5.7,0,10.3-4.6,10.3-10.1
		C126.9,65,122.3,60.4,116.6,60.4z M116.6,77.5c-3.9,0-7-3.1-7-7c0-3.8,3.2-7,7-7c3.9,0,7,3.1,7,7C123.7,74.4,120.5,77.5,116.6,77.5
		z"/>
	<path fill="#231815" d="M70.3,40.8l0.2-28.2l-19.7,0l-9.8,22l-8,6.9l5.7,18.8l-5.7,0v3.4h6.7c11.3-11.4,20.1-8.9,27.8,0h35.1
		c5-9.5,20.2-11.8,27.4,0h19.4V40.8L70.3,40.8z M66,33H46.9l5.7-15.9H66L66,33L66,33z"/>
</g>
</svg>
