<?xml version="1.0" encoding="utf-8"?>
<!-- Generator: Adobe Illustrator 18.1.1, SVG Export Plug-In . SVG Version: 6.00 Build 0)  -->
<svg version="1.1" id="图层_1" xmlns="http://www.w3.org/2000/svg" xmlns:xlink="http://www.w3.org/1999/xlink" x="0px" y="0px"
	 width="331" height="100" enable-background="new 0 0 331 100" xml:space="preserve">
<path fill="none" stroke="#FFFFFF" stroke-width="1.085" stroke-miterlimit="2.4142" d="M323.1,14.1v71.6c0,4.7-4.3,8.6-9.5,8.6
	H17.3c-5.2,0-9.5-3.9-9.5-8.6V14.1c0-4.7,4.3-8.6,9.5-8.6h296.4C318.9,5.5,323.1,9.4,323.1,14.1z"/>
<rect y="-0.2" fill="#2D3081" stroke="#231815" stroke-width="0.216" stroke-miterlimit="2.4142" width="331" height="100.2"/>
<path fill="#FFFFFF" d="M315.3,93H15.7c-4.3,0-7.9-3.5-7.9-7.9V14.8c0-4.3,3.5-7.9,7.9-7.9h299.6c4.3,0,7.9,3.5,7.9,7.9v70.4
	C323.1,89.5,319.6,93,315.3,93z"/>
<path fill="#2D3081" stroke="#231815" stroke-width="0.216" stroke-miterlimit="2.4142" d="M314,90.4H17.4c-3.7,0-6.8-3-6.8-6.8V16
	c0-3.7,3-6.8,6.8-6.8H314c3.7,0,6.8,3,6.8,6.8v67.6C320.8,87.4,317.8,90.4,314,90.4z"/>
<polygon fill="#F4AB1C" points="64.1,10.8 103.7,49.9 64.1,89.1 24.6,49.9 "/>
<path fill="#FFFFFF" d="M123.3,23.5l-4.8-0.2v5.4c10.5-0.3,24.3-0.3,41.4,0v-5.4l-7.4,0.2h-4.9c1-1.7,2-3.4,2.9-5.3
	c-1.7-0.6-3.3-1.4-4.9-2.4c-0.8,1.9-2,4-3.6,6.4l2.4,1.3h-10.9c0.8-0.6,1.8-1.3,2.9-2c-1.7-2.6-3-4.6-3.9-5.8
	c-1.3,0.9-2.9,1.7-4.6,2.4c0.8,1.2,1.9,3,3.1,5.3L123.3,23.5L123.3,23.5z M121.8,30.5l0,28.4h5.6c-0.1-2.1-0.1-5.3-0.2-9.7h8.8
	c0,2.6-0.1,4-0.2,4.2c-0.4,0.3-1.7,0.4-3.9,0.2c0.6,2,1,4,1.3,5.9c3.1-0.3,5.3-0.7,6.6-1.2c0.8-0.4,1.3-0.9,1.4-1.7
	c0.1-0.4,0.1-7.6,0.2-21.7l0.1-4.3L121.8,30.5L121.8,30.5z M127.2,38v-2.7h8.8V38H127.2L127.2,38z M127.2,44.9v-2.7h8.8v2.7
	L127.2,44.9L127.2,44.9z M149.2,50.9c-0.1-6.5-0.1-12.5,0-18h-5.5c0.1,6.2,0.1,12.2,0,18H149.2L149.2,50.9z M151.9,30.7
	c0.2,14.2,0.1,21.6-0.1,22.1c-0.1,0.1-0.2,0.3-0.3,0.4c-0.4,0.4-2,0.5-4.9,0.3c0.8,2,1.4,4,1.7,6c2.9-0.3,5.2-0.7,7-1.4
	c0.9-0.3,1.4-0.9,1.7-1.7c0.1-0.5,0.2-6.7,0.2-18.5l0.2-7.2L151.9,30.7L151.9,30.7z M196.1,38.8l-0.1,6.5c-0.2,3.7-0.7,5.9-1.5,6.5
	c-1.1,0.8-3.7,1.2-7.6,1.2c1,1.7,1.8,3.8,2.2,6.2c2.3-0.1,4.6-0.5,6.9-1.2c3.1-1.1,5-3.2,5.5-6.4c0.2-2.6,0.4-7,0.5-13.1l0.2-4.8
	l-16,0.1l0.3-5.3c11.3,0,18.2,0.1,20.8,0.2V23l-18.1,0.1c0.6-0.4,1.1-0.8,1.8-1.2c-1.3-2.4-2.8-4.6-4.5-6.6
	c-1.6,1.2-3.2,2.1-4.9,2.9c1.6,1.5,2.8,3.2,3.6,4.9l-19-0.1v5.7c2.2-0.1,7-0.1,14.3-0.2c-0.1,4-0.3,7.2-0.7,9.6
	c-1,5.5-3.7,9.8-8.3,12.6c-1.7,1.1-3.7,2-6,2.7c1.4,1.4,2.7,3.2,4,5.4c7.8-4,12.7-8.9,14.7-14.9c0.4-1.4,0.8-3.1,1.2-5.1L196.1,38.8
	L196.1,38.8z M224.3,37.6c0,8.7-0.2,13.6-0.7,14.8c-0.3,0.7-1.2,1.1-2.7,1.1c-0.4,0-0.8,0-1.2,0c0.6,1.5,1.2,3.4,1.6,5.5
	c3.5-0.3,5.7-1.3,6.6-3.1c0.7-1.9,1.1-7.4,1.1-16.5l1,3.7l1.8-0.7c0,8.6,0,13.1,0.1,13.4c0.3,0.9,1,1.6,2,2c3.3,1.1,8.6,1.5,16,1.1
	l0.9-0.1c1.4-0.4,2.6-1.9,3.7-4.5c0.2-0.7,0.5-1.7,0.9-3c-1-0.2-2.2-0.6-3.7-1.3c-0.4-0.2-0.9-0.4-1.5-0.7c-0.4,2.1-1,3.4-1.8,4.1
	c-0.8,0.4-3.7,0.5-8.9,0.2c-1.6-0.1-2.4-0.4-2.7-1c0-0.3-0.1-4.2-0.1-11.7c0.7-0.3,1.5-0.5,2.3-0.7l-0.1,10.7h5.5l-0.1-6.1
	c0.7,1.4,1.4,2.9,2,4.6c2.2-0.4,3.7-1.1,4.6-2c1.3-1.4,2-6,2-13.8l-1.9-1.8l-6.6,1.9c0-1.4,0-3.2,0.1-5.3H239l0.2,6.9
	c-0.8,0.2-1.5,0.5-2.3,0.8l0.1-4.3h-3.9c1.2-1.5,2.3-3,3.3-4.5l18.1,0.1v-5.1l-15.7,0.1l2.4-4.7c-1.6-0.4-3.5-1-5.6-1.8
	c-1.1,4.3-3,8.3-5.8,11.7c-0.1-0.1-0.1-0.2-0.2-0.2v-4.6l-7.4,0.1c0.7-0.3,1.4-0.6,2.2-0.9c-0.9-2.3-1.9-4.4-2.9-6.1
	c-2,0.9-3.7,1.5-5.1,1.8c0.9,1.3,1.8,3,2.7,5.2l-7-0.2v5.1l4.5-0.1c0,10.9-0.5,18-1.4,21.4c-0.7,2.4-2,4.2-3.9,5.7
	c1.6,1.6,2.9,3,3.9,4.3c3.1-3.6,5-7.5,5.6-11.6l0.9-9.8L224.3,37.6L224.3,37.6z M221.7,32.9l0.1-5.3l7.9,0.1c-1,1.1-1.9,1.9-2.7,2.3
	c1.7,1.1,3.2,2.3,4.5,3.5c0.1-0.1,0.2-0.2,0.4-0.3v4.2c-0.9,0.2-1.8,0.5-2.7,0.8l0.1-5.4C227,32.9,224.5,32.9,221.7,32.9L221.7,32.9
	z M247.6,37.6c0,3-0.3,4.9-0.7,5.7c-0.4,0.5-1.3,0.9-2.6,1.1v-5.7C245.4,38.3,246.5,38,247.6,37.6L247.6,37.6z M262.8,26.1
	c1.9-0.1,6.9-0.1,15.1-0.2v24.1l-18.1-0.2v5.7l36.2-0.2c1.7,0,3.4,0.1,5.2,0.2v-5.7l-17.7,0.2V25.9c7.8,0,12.8,0.1,14.8,0.2v-5.7
	c-11.8,0.3-23.7,0.3-35.5,0V26.1L262.8,26.1z"/>
<path fill="#FFFFFF" d="M185.7,63.4V84H181V70.5c-0.8,0.7-1.5,1.3-2.2,1.7c-0.7,0.4-1.6,0.9-2.7,1.3v-4.6c1.6-0.6,2.8-1.4,3.7-2.2
	c0.9-0.9,1.6-1.9,2-3.2H185.7L185.7,63.4z M191.2,63.7h4.7v10.5l3.5-4.9h5.7l-4.4,5.2l4.6,9.6h-5.3l-2.4-5.9l-1.7,2.1v3.8h-4.7
	L191.2,63.7L191.2,63.7z M206.8,69.3h4.3v2.2c0.6-0.9,1.3-1.5,1.9-1.9c0.6-0.4,1.4-0.6,2.3-0.6c1,0,1.7,0.2,2.3,0.6
	c0.6,0.4,1,1,1.4,1.9c0.7-1,1.4-1.6,2-2c0.6-0.3,1.3-0.5,2.2-0.5c1.3,0,2.3,0.5,3,1.4c0.7,0.9,1.1,2.4,1.1,4.4v9.2h-4.7v-8.4
	c0-0.7-0.1-1.1-0.3-1.5c-0.3-0.5-0.7-0.8-1.1-0.8c-0.6,0-1,0.3-1.3,0.7c-0.3,0.5-0.5,1.3-0.5,2.3v7.6h-4.7v-8.1c0-0.6,0-1.1-0.1-1.3
	c-0.1-0.4-0.3-0.7-0.5-0.9c-0.3-0.2-0.5-0.3-0.9-0.3c-0.5,0-1,0.3-1.3,0.7s-0.5,1.3-0.5,2.4v7.5h-4.7L206.8,69.3L206.8,69.3z"/>
<g>
	<path fill="#070404" d="M63.4,31.3c1.7-0.2,2.8-0.4,3.3-2.3c-0.2-2.8-2-3.2-4.2-2.4C60.8,28.2,61,30.2,63.4,31.3z"/>
	<path fill="#070404" d="M77.8,35.5c-1.7,1.5-1.9,1.6-2.2,3.9c-3.7,1.1-4,1.8-2.9,5.2c-1.9-1-1.8,0.2-3,0.2c-1-0.6-2.1-1.1-3.1-1.6
		c0-0.6,0-1.3,0-1.9c-1.1-1.1-1.7-2.2-2-3.3c-0.6-2.6-1.1-4.9-3-6.5c-3-1.1-5.6,0.3-8.2,1.4c-2.4,2-1,3.2,0.9,5.4
		c-0.9,1.4-1.7,2.8-2.5,4.2c-2,4.1-2.7,7.6-3.3,12.2c-3.5,0.1-7,0.1-10.5,0.2c-0.6,1.1-1.1,2.2-1.6,3.3c18.4,0,36.7-0.1,55.1-0.1
		C86.9,50.6,82.3,43.1,77.8,35.5z M57,34.7c-0.3,0.4-0.6,0.8-0.9,1.1c-0.2-0.4-0.4-0.8-0.5-1.2C56.1,34.6,56.6,34.7,57,34.7z
		 M51.3,54.8c0.9-3,1.9-5.7,3.3-8.4c1.6-2.3,1.6-2.3,1.8-2.4c0.7,0.7,1.4,1.4,2.1,2.1c0,2.9,0.1,5.7,0.1,8.7
		C56.2,54.8,53.8,54.8,51.3,54.8z M61.9,38.6c0.3,1,0.7,1.9,1,2.9c-0.1,0-0.1,0-0.2,0c-0.7-0.4-1.4-0.7-2-1.1
		C61.7,38.7,61.7,38.7,61.9,38.6z M72.3,49.4c-2.4,0-5.2-0.6-6.3,1.7c0,0.4,0.1,0.9,0.1,1.4c-1.4,0.6-1.8,0.6-2.2,2.2
		c-0.5,0-0.9,0-1.3,0c0-3.3-0.1-6.6-0.1-9.9c-0.5-0.8-1-1.6-1.6-2.4c2.7,1.3,5.6,2.6,8.3,3.8c0.3,1.6,1.3,1.7,3,2.6
		C72.3,49,72.3,49.2,72.3,49.4z"/>
</g>
</svg>
