<?xml version="1.0" encoding="utf-8"?>
<!-- Generator: Adobe Illustrator 18.1.1, SVG Export Plug-In . SVG Version: 6.00 Build 0)  -->
<svg version="1.1" id="图层_1" xmlns="http://www.w3.org/2000/svg" xmlns:xlink="http://www.w3.org/1999/xlink" x="0px" y="0px"
	 width="331" height="100" enable-background="new 0 0 331 100" xml:space="preserve">
<path fill="none" stroke="#FFFFFF" stroke-width="1.085" stroke-miterlimit="2.4142" d="M323.1,14.3v71.6c0,4.7-4.3,8.6-9.5,8.6
	H17.3c-5.2,0-9.5-3.9-9.5-8.6V14.3c0-4.7,4.3-8.6,9.5-8.6h296.4C318.9,5.7,323.1,9.6,323.1,14.3z"/>
<rect fill="#2D3081" stroke="#231815" stroke-width="0.216" stroke-miterlimit="2.4142" width="331" height="100.2"/>
<path fill="#FFFFFF" d="M315.3,93.2H15.7c-4.3,0-7.9-3.5-7.9-7.9V15c0-4.3,3.5-7.9,7.9-7.9h299.6c4.3,0,7.9,3.5,7.9,7.9v70.4
	C323.1,89.7,319.6,93.2,315.3,93.2z"/>
<path fill="#2D3081" stroke="#231815" stroke-width="0.216" stroke-miterlimit="2.4142" d="M314,90.6H17.4c-3.7,0-6.8-3-6.8-6.8
	V16.1c0-3.7,3-6.8,6.8-6.8H314c3.7,0,6.8,3,6.8,6.8v67.6C320.8,87.5,317.8,90.6,314,90.6z"/>
<polygon fill="#F4AB1C" points="64.1,11 103.7,50.1 64.1,89.3 24.6,50.1 "/>
<path fill="#FFFFFF" d="M123.3,23.7l-4.8-0.2v5.4c10.5-0.3,24.3-0.3,41.4,0v-5.4l-7.4,0.2h-4.9c1-1.7,2-3.4,2.9-5.3
	c-1.7-0.6-3.3-1.4-4.9-2.4c-0.8,1.9-2,4-3.6,6.4l2.4,1.3h-10.9c0.8-0.6,1.8-1.3,2.9-2c-1.7-2.6-3-4.6-3.9-5.8
	c-1.3,0.9-2.9,1.7-4.6,2.4c0.8,1.2,1.9,3,3.1,5.3L123.3,23.7L123.3,23.7z M121.8,30.7l0,28.4h5.6c-0.1-2.1-0.1-5.3-0.2-9.7h8.8
	c0,2.6-0.1,4-0.2,4.2c-0.4,0.3-1.7,0.4-3.9,0.2c0.6,2,1,4,1.3,5.9c3.1-0.3,5.3-0.7,6.6-1.2c0.8-0.4,1.3-0.9,1.4-1.7
	c0.1-0.4,0.1-7.6,0.2-21.7l0.1-4.3L121.8,30.7L121.8,30.7z M127.2,38.1v-2.7h8.8v2.7H127.2L127.2,38.1z M127.2,45.1v-2.7h8.8V45
	L127.2,45.1L127.2,45.1z M149.2,51c-0.1-6.5-0.1-12.5,0-18h-5.5c0.1,6.2,0.1,12.2,0,18H149.2L149.2,51z M151.9,30.9
	c0.2,14.2,0.1,21.6-0.1,22.1c-0.1,0.1-0.2,0.3-0.3,0.4c-0.4,0.4-2,0.5-4.9,0.3c0.8,2,1.4,4,1.7,6c2.9-0.3,5.2-0.7,7-1.4
	c0.9-0.3,1.4-0.9,1.7-1.7c0.1-0.5,0.2-6.7,0.2-18.5l0.2-7.2L151.9,30.9L151.9,30.9z M196.1,39l-0.1,6.5c-0.2,3.7-0.7,5.9-1.5,6.5
	c-1.1,0.8-3.7,1.2-7.6,1.2c1,1.7,1.8,3.8,2.2,6.2c2.3-0.1,4.6-0.5,6.9-1.2c3.1-1.1,5-3.2,5.5-6.4c0.2-2.6,0.4-7,0.5-13.1l0.2-4.8
	l-16,0.1l0.3-5.3c11.3,0,18.2,0.1,20.8,0.2v-5.7l-18.1,0.1c0.6-0.4,1.1-0.8,1.8-1.2c-1.3-2.4-2.8-4.6-4.5-6.6
	c-1.6,1.2-3.2,2.1-4.9,2.9c1.6,1.5,2.8,3.2,3.6,4.9l-19-0.1v5.7c2.2-0.1,7-0.1,14.3-0.2c-0.1,4-0.3,7.2-0.7,9.6
	c-1,5.5-3.7,9.8-8.3,12.6c-1.7,1.1-3.7,2-6,2.7c1.4,1.4,2.7,3.2,4,5.4c7.8-4,12.7-8.9,14.7-14.9c0.4-1.4,0.8-3.1,1.2-5.1L196.1,39
	L196.1,39z M224.3,37.8c0,8.7-0.2,13.6-0.7,14.8c-0.3,0.7-1.2,1.1-2.7,1.1c-0.4,0-0.8,0-1.2,0c0.6,1.5,1.2,3.4,1.6,5.5
	c3.5-0.3,5.7-1.3,6.6-3.1c0.7-1.9,1.1-7.4,1.1-16.5l1,3.7l1.8-0.7c0,8.6,0,13.1,0.1,13.4c0.3,0.9,1,1.6,2,2c3.3,1.1,8.6,1.5,16,1.1
	l0.9-0.1c1.4-0.4,2.6-1.9,3.7-4.5c0.2-0.7,0.5-1.7,0.9-3c-1-0.2-2.2-0.6-3.7-1.3c-0.4-0.2-0.9-0.4-1.5-0.7c-0.4,2.1-1,3.4-1.8,4.1
	c-0.8,0.4-3.7,0.5-8.9,0.2c-1.6-0.1-2.4-0.4-2.7-1c0-0.3-0.1-4.2-0.1-11.7c0.7-0.3,1.5-0.5,2.3-0.7L238.9,51h5.5l-0.1-6.1
	c0.7,1.4,1.4,2.9,2,4.6c2.2-0.4,3.7-1.1,4.6-2c1.3-1.4,2-6,2-13.8l-1.9-1.8l-6.6,1.9c0-1.4,0-3.2,0.1-5.3H239l0.2,6.9
	c-0.8,0.2-1.5,0.5-2.3,0.8l0.1-4.3h-3.9c1.2-1.5,2.3-3,3.3-4.5l18.1,0.1v-5.1l-15.7,0.1l2.4-4.7c-1.6-0.4-3.5-1-5.6-1.8
	c-1.1,4.3-3,8.3-5.8,11.7c-0.1-0.1-0.1-0.2-0.2-0.2v-4.6l-7.4,0.1c0.7-0.3,1.4-0.6,2.2-0.9c-0.9-2.3-1.9-4.4-2.9-6.1
	c-2,0.9-3.7,1.5-5.1,1.8c0.9,1.3,1.8,3,2.7,5.2l-7-0.2v5.1l4.5-0.1c0,10.9-0.5,18-1.4,21.4c-0.7,2.4-2,4.2-3.9,5.7
	c1.6,1.6,2.9,3,3.9,4.3c3.1-3.6,5-7.5,5.6-11.6l0.9-9.8L224.3,37.8L224.3,37.8z M221.7,33.1l0.1-5.3l7.9,0.1c-1,1.1-1.9,1.9-2.7,2.3
	c1.7,1.1,3.2,2.3,4.5,3.5c0.1-0.1,0.2-0.2,0.4-0.3v4.2c-0.9,0.2-1.8,0.5-2.7,0.8l0.1-5.4C227,33.1,224.5,33.1,221.7,33.1L221.7,33.1
	z M247.6,37.8c0,3-0.3,4.9-0.7,5.7c-0.4,0.5-1.3,0.9-2.6,1.1v-5.7C245.4,38.5,246.5,38.1,247.6,37.8L247.6,37.8z M262.8,26.3
	c1.9-0.1,6.9-0.1,15.1-0.2v24.1l-18.1-0.2v5.7l36.2-0.2c1.7,0,3.4,0.1,5.2,0.2v-5.7l-17.7,0.2V26.1c7.8,0,12.8,0.1,14.8,0.2v-5.7
	c-11.8,0.3-23.7,0.3-35.5,0V26.3L262.8,26.3z"/>
<g>
	<path fill="#070404" d="M63.4,31.5c1.7-0.2,2.8-0.4,3.3-2.3c-0.2-2.8-2-3.2-4.2-2.4C60.8,28.4,61,30.4,63.4,31.5z"/>
	<path fill="#070404" d="M77.8,35.7c-1.7,1.5-1.9,1.6-2.2,3.9c-3.7,1.1-4,1.8-2.9,5.2c-1.9-1-1.8,0.2-3,0.2c-1-0.6-2.1-1.1-3.1-1.6
		c0-0.6,0-1.3,0-1.9c-1.1-1.1-1.7-2.2-2-3.3c-0.6-2.6-1.1-4.9-3-6.5c-3-1.1-5.6,0.3-8.2,1.4c-2.4,2-1,3.2,0.9,5.4
		c-0.9,1.4-1.7,2.8-2.5,4.2c-2,4.1-2.7,7.6-3.3,12.2c-3.5,0.1-7,0.1-10.5,0.2c-0.6,1.1-1.1,2.2-1.6,3.3c18.4,0,36.7-0.1,55.1-0.1
		C86.9,50.8,82.3,43.3,77.8,35.7z M57,34.9c-0.3,0.4-0.6,0.8-0.9,1.1c-0.2-0.4-0.4-0.8-0.5-1.2C56.1,34.8,56.6,34.9,57,34.9z
		 M51.3,55c0.9-3,1.9-5.7,3.3-8.4c1.6-2.3,1.6-2.3,1.8-2.4c0.7,0.7,1.4,1.4,2.1,2.1c0,2.9,0.1,5.7,0.1,8.7C56.2,55,53.8,55,51.3,55z
		 M61.9,38.8c0.3,1,0.7,1.9,1,2.9c-0.1,0-0.1,0-0.2,0c-0.7-0.4-1.4-0.7-2-1.1C61.7,38.8,61.7,38.8,61.9,38.8z M72.3,49.6
		c-2.4,0-5.2-0.6-6.3,1.7c0,0.4,0.1,0.9,0.1,1.4c-1.4,0.6-1.8,0.6-2.2,2.2c-0.5,0-0.9,0-1.3,0c0-3.3-0.1-6.6-0.1-9.9
		c-0.5-0.8-1-1.6-1.6-2.4c2.7,1.3,5.6,2.6,8.3,3.8c0.3,1.6,1.3,1.7,3,2.6C72.3,49.2,72.3,49.4,72.3,49.6z"/>
</g>
<g>
	<path fill="#FFFFFF" d="M179.4,75.2c0.7,0.6,1.3,1.2,1.6,1.9c0.4,0.7,0.6,1.5,0.6,2.5c0,1.4-0.6,2.6-1.8,3.6
		c-1.2,1-2.7,1.5-4.7,1.5c-1.5,0-2.9-0.3-4.3-1c-1.4-0.7-2.4-1.6-3.3-2.8l2.8-2c0.4,0.6,1,1.1,1.9,1.6c0.9,0.5,2,0.7,3.1,0.7
		c1.1,0,1.9-0.2,2.3-0.7c0.4-0.4,0.6-0.9,0.6-1.3c0-0.6-0.3-1.1-0.9-1.6s-1.3-0.7-2.2-0.7c-0.2,0-0.3,0-0.5,0v-3.4h1.4
		c0.3,0,0.6-0.1,0.9-0.4c0.3-0.3,0.4-0.7,0.4-1.1s-0.3-0.8-0.8-1.1c-0.5-0.3-1.2-0.4-2-0.4c-1.6,0-2.8,0.5-3.7,1.4l-2.5-2.2
		c0.8-0.9,1.8-1.5,2.9-2c1.1-0.4,2.2-0.7,3.4-0.7c1.7,0,3.2,0.5,4.4,1.4c1.1,0.9,1.7,2.1,1.7,3.5C180.7,73.3,180.3,74.4,179.4,75.2z
		"/>
	<path fill="#FFFFFF" d="M192.4,66.9c2.1,0,3.8,0.8,5.2,2.4c1.4,1.6,2.1,3.8,2.1,6.5c0,2.7-0.7,4.9-2,6.5s-3.1,2.4-5.3,2.4
		c-2.3,0-4-0.8-5.4-2.4c-1.3-1.6-2-3.7-2-6.5c0-2.7,0.7-4.9,2-6.5C188.4,67.7,190.1,66.9,192.4,66.9z M192.6,81.3
		c1.1,0,2-0.5,2.6-1.6c0.7-1,1-2.4,1-4.2s-0.3-3-0.9-3.9c-0.6-0.9-1.6-1.3-2.9-1.3c-2.6,0-3.9,1.9-3.9,5.5c0,1.7,0.4,3.1,1.1,4
		C190.3,80.8,191.3,81.3,192.6,81.3z"/>
	<path fill="#FFFFFF" d="M210.6,66.9c2.1,0,3.8,0.8,5.2,2.4c1.4,1.6,2.1,3.8,2.1,6.5c0,2.7-0.7,4.9-2,6.5s-3.1,2.4-5.3,2.4
		c-2.3,0-4-0.8-5.4-2.4c-1.3-1.6-2-3.7-2-6.5c0-2.7,0.7-4.9,2-6.5C206.5,67.7,208.3,66.9,210.6,66.9z M210.8,81.3
		c1.1,0,2-0.5,2.6-1.6c0.7-1,1-2.4,1-4.2s-0.3-3-0.9-3.9c-0.6-0.9-1.6-1.3-2.9-1.3c-2.6,0-3.9,1.9-3.9,5.5c0,1.7,0.4,3.1,1.1,4
		C208.4,80.8,209.4,81.3,210.8,81.3z"/>
	<path fill="#FFFFFF" d="M242.3,84.5h-3.4v-7.9c0-0.6-0.2-1-0.7-1.4c-0.4-0.4-1-0.6-1.6-0.6s-1.1,0.2-1.6,0.6
		c-0.4,0.4-0.6,0.9-0.6,1.4v7.9h-3.4v-7.9c0-0.5-0.2-1-0.6-1.4c-0.4-0.4-0.9-0.6-1.6-0.6s-1.2,0.2-1.7,0.6c-0.4,0.4-0.7,0.9-0.7,1.4
		v7.9h-3.5V71.5h3.5v0.8c1-0.7,2.1-1,3.3-1c1.4,0,2.6,0.5,3.4,1.5c1.2-1,2.5-1.5,3.9-1.5s2.6,0.4,3.6,1.3c1,0.9,1.5,1.9,1.5,3
		L242.3,84.5L242.3,84.5z"/>
</g>
</svg>
