<?xml version="1.0" encoding="utf-8"?>
<!-- Generator: Adobe Illustrator 18.1.1, SVG Export Plug-In . SVG Version: 6.00 Build 0)  -->
<svg version="1.1" id="图层_1" xmlns="http://www.w3.org/2000/svg" xmlns:xlink="http://www.w3.org/1999/xlink" x="0px" y="0px"
	 width="331" height="100" enable-background="new 0 0 331 100" xml:space="preserve">
<path fill="none" stroke="#FFFFFF" stroke-width="1.085" stroke-miterlimit="2.4142" d="M322.6,14.5v71.4c0,4.7-4.3,8.6-9.5,8.6
	H17.8c-5.2,0-9.5-3.9-9.5-8.6V14.5c0-4.7,4.3-8.6,9.5-8.6h295.4C318.4,5.9,322.6,9.8,322.6,14.5z"/>
<rect x="0.6" y="0.2" fill="#2D3081" stroke="#231815" stroke-width="0.216" stroke-miterlimit="2.4142" width="329.9" height="99.9"/>
<path fill="#FFFFFF" d="M314.8,93.1H16.2c-4.3,0-7.8-3.5-7.8-7.8V15.2c0-4.3,3.5-7.8,7.8-7.8h298.6c4.3,0,7.8,3.5,7.8,7.8v70.1
	C322.6,89.6,319.1,93.1,314.8,93.1z"/>
<path fill="#2D3081" stroke="#231815" stroke-width="0.216" stroke-miterlimit="2.4142" d="M313.5,90.5H17.9c-3.7,0-6.8-3-6.8-6.8
	V16.3c0-3.7,3-6.8,6.8-6.8h295.6c3.7,0,6.8,3,6.8,6.8v67.4C320.3,87.5,317.2,90.5,313.5,90.5z"/>
<polygon fill="#F4AB1C" points="64.4,11.2 103.9,50.2 64.4,89.2 25,50.2 "/>
<g>
	<path fill="#070404" d="M63.7,31.6c1.7-0.2,2.8-0.4,3.3-2.3c-0.2-2.8-2-3.2-4.2-2.4C61.2,28.5,61.3,30.5,63.7,31.6z"/>
	<path fill="#070404" d="M78,35.8c-1.7,1.5-1.9,1.6-2.2,3.8c-3.7,1.1-4,1.8-2.9,5.2c-1.8-1-1.8,0.2-3,0.2c-1-0.6-2.1-1.1-3.1-1.6
		c0-0.6,0-1.3,0-1.9c-1.1-1.1-1.7-2.1-2-3.3c-0.6-2.6-1.1-4.9-3-6.4c-3-1.1-5.5,0.3-8.2,1.4c-2.4,2-1,3.2,0.9,5.4
		c-0.9,1.4-1.7,2.8-2.5,4.2c-2,4.1-2.7,7.6-3.3,12.2c-3.5,0.1-7,0.1-10.5,0.2c-0.6,1.1-1.1,2.2-1.6,3.3c18.3,0,36.6-0.1,54.9-0.1
		C87.1,50.9,82.6,43.3,78,35.8z M57.4,35c-0.3,0.4-0.6,0.8-0.9,1.1c-0.2-0.4-0.4-0.8-0.5-1.2C56.5,34.9,56.9,35,57.4,35z M51.7,55
		c0.9-3,1.9-5.7,3.3-8.4c1.6-2.3,1.6-2.3,1.8-2.4c0.7,0.7,1.4,1.4,2.1,2.1c0,2.9,0.1,5.7,0.1,8.7C56.6,55,54.1,55,51.7,55z
		 M62.2,38.9c0.3,1,0.7,1.9,1,2.9c-0.1,0-0.1,0-0.2,0c-0.7-0.4-1.4-0.7-2-1.1C62,38.9,62,38.9,62.2,38.9z M72.6,49.7
		c-2.4,0-5.2-0.6-6.3,1.7c0,0.4,0.1,0.9,0.1,1.4c-1.4,0.6-1.8,0.6-2.2,2.1c-0.5,0-0.9,0-1.3,0c0-3.3-0.1-6.6-0.1-9.9
		c-0.5-0.8-1-1.6-1.6-2.4c2.7,1.3,5.5,2.6,8.3,3.8c0.3,1.6,1.3,1.7,3,2.6C72.6,49.2,72.6,49.5,72.6,49.7z"/>
</g>
<g>
	<path fill="#FFFFFF" d="M159.9,52.8c-0.9,1.8-1.5,3.9-1.9,6.1c-4.1,0.1-7.7,0.1-10.8,0.1c-8.7,0-14.4-0.3-17.1-0.9
		c-2.7-0.6-4.5-1.4-5.5-2.4c-0.5-0.5-0.9-0.8-1.1-0.8c-0.3,0-0.5,0.1-0.8,0.3c-0.3,0.2-0.9,0.8-1.8,1.8c-1,1-1.7,1.9-2.3,2.7
		c-1.8-1.9-3.5-3.7-4.8-5.4c3.1-2.1,5-3.4,5.5-3.7c0.6-0.3,0.9-1.2,0.9-2.7V35.6h-5.6v-5.5h11.5v16.5c0,1.9,0.4,3.3,1.4,4.3
		c0.9,1,2.5,1.7,4.7,2s6.3,0.5,12.2,0.5C150.4,53.5,155.6,53.2,159.9,52.8z M127.3,26.5l-6.1,2.1c-0.7-2.8-2.1-6-4.1-9.7l5.9-2.5
		C124.7,19.4,126.1,22.8,127.3,26.5z M143.1,22c0.7-1.5,1.6-3.8,2.6-6.9c3.5,1.1,5.5,1.7,5.8,1.9c0.3,0.1,0.5,0.4,0.5,0.7
		c0,0.3-0.2,0.6-0.6,0.9c-0.6,0.4-1.5,1.6-2.6,3.5h8.8v4.7h-12.8c-0.1,0.9-0.3,1.6-0.4,2.3h9.6v23.9H148v-2.3h-11.6v1.9h-5.7V28.9
		h7.6c0.1-0.8,0.3-1.6,0.4-2.3h-10.9V22h7.7c-1-1.3-2-2.6-3.1-3.8l5.2-2.7c1.3,1.6,2.6,3.4,3.7,5.3L138,22L143.1,22L143.1,22z
		 M136.3,35H148v-1.9h-11.6V35z M136.3,40.5H148v-1.9h-11.6V40.5z M147.9,44.3h-11.6v2.3h11.6V44.3z"/>
	<path fill="#FFFFFF" d="M180.7,29.5c2.6-2.7,4.6-7.5,6.1-14.4c1.1,0.1,2.4,0.3,3.8,0.5c1.4,0.2,2.3,0.4,2.7,0.4
		c0.3,0.1,0.4,0.2,0.4,0.5s-0.1,0.6-0.4,0.9c-0.3,0.4-0.7,1.2-1.3,2.5H204c-1.4,5.7-3.5,10.1-6.4,13.3c2.8,1.7,6.2,2.9,10.4,3.8
		c-1.5,2-2.7,3.9-3.7,5.8c-0.8-0.3-1.3-0.5-1.7-0.7v18h-6v-2.9h-7.3v2.9h-5.8V42.6l-1.1,0.5c-0.5-0.9-1-1.7-1.4-2.3v3.7h-4.8v4.8
		c2-0.6,3.8-1.2,5.6-1.8c-0.1,0.6-0.1,1.3-0.1,2.2s0.1,2,0.4,3.1c-6.5,1.9-12.7,4.1-18.6,6.6l-2.2-6.5c0.7-0.1,1.6-0.3,2.6-0.5V36.9
		h4.2c0.9,0,1.3,0.2,1.3,0.6c0,0.1-0.1,0.4-0.2,0.7c-0.3,0.6-0.4,2.1-0.4,4.5v8.5l2.1-0.4V34.3h-6V17.9h15.9v11.6H180.7z
		 M175.4,29.3V23h-5.2v6.2H175.4z M186.8,30.1c-0.8,1.2-1.5,2.3-2.3,3.2c-1.7-1.3-2.9-2.1-3.8-2.5v3.5h-4.7v5h3.6
		c-0.3-0.3-0.6-0.7-1.1-1.1c4.5-1.3,8.1-2.8,10.6-4.5C188.2,32.6,187.4,31.4,186.8,30.1z M193.2,37.4c-2,1.4-4.3,2.7-6.9,4h14.1
		C197.6,40.1,195.2,38.7,193.2,37.4z M196.6,52.8v-6.5h-7.3v6.5H196.6z M193.3,29.9c1.1-1.4,2.1-3.1,3-5.1H190
		C190.8,26.6,191.8,28.4,193.3,29.9z"/>
	<path fill="#FFFFFF" d="M238.2,20.9h15.9v5.3h-18.3c-1,2-2.2,3.9-3.6,5.6h3.9c0.7,0,1,0.2,1,0.5c0,0.4-0.1,0.8-0.3,1.2
		c-0.2,0.5-0.3,1.3-0.2,2.3l2.3-0.8v-7.5h4.7c0.7,0,1,0.2,1,0.7c0,0.2-0.1,0.5-0.2,0.9c-0.3,1-0.5,2.3-0.4,4l8.4-3.1l-0.3,13.6
		c0,1.3-0.2,2.4-0.5,3.1c-0.3,0.7-1,1.3-1.9,1.7c-1,0.4-2.4,0.9-4.4,1.2c-0.3-2.1-0.7-3.7-1.3-4.8V51h-5.1V40.2l-2.3,0.9v11.5
		c0,0.6,0.1,0.9,0.3,1.1c0.2,0.2,0.4,0.3,0.9,0.3h10c0.5,0,0.9-0.1,1.1-0.3c0.2-0.2,0.4-0.6,0.5-1.2c0.1-0.6,0.2-1.8,0.4-3.5
		c1.6,1,3.5,1.7,5.7,2.1c-0.4,2.4-0.8,4.1-1.2,5.2c-0.5,1.1-1.1,1.8-2,2.2c-0.9,0.4-2.2,0.6-4,0.6h-11.3c-2,0-3.4-0.3-4.2-0.9
		c-0.8-0.6-1.2-1.8-1.2-3.7V43.2l-2.1,0.9l-1.1-3l-0.3,11.6c0,1.5-0.2,2.6-0.6,3.4c-0.4,0.8-1.1,1.4-2.2,1.9
		c-1.1,0.5-2.8,0.9-5.2,1.3c-0.1-2.3-0.7-4.2-1.7-5.9c1.3,0.1,2.2,0.1,2.8,0.1c0.6,0,1-0.1,1.2-0.3c0.2-0.2,0.3-0.5,0.3-1l0.5-14.4
		h-2.8c-0.2,5-0.8,9.1-1.7,12.5c-0.9,3.4-2.3,6.8-4.3,10.2c-1.2-0.9-2.9-1.9-5.1-3c2.3-3.2,3.8-7,4.7-11.2s1.3-10.4,1.2-18.3h-4.8
		v-5h8.7c-0.4-1.6-1.1-3.6-2.3-6.1l6.1-1.8c0.8,2,1.5,4.1,2.1,6.4l-5.1,1.5h10v3c1.7-2.8,3-6.4,3.8-10.6l5.5,1.3
		c0.9,0.2,1.3,0.4,1.3,0.8c0,0.3-0.2,0.7-0.7,1.3C239.1,19.3,238.7,20,238.2,20.9z M231.3,32.9c-0.3,0.3-0.6,0.6-0.9,1
		c-1.3-1-2.9-1.9-4.8-2.6c1-1.1,1.9-2.2,2.7-3.3h-8.1v5.1h8l-0.1,5.9l3.2-1.1L231.3,32.9L231.3,32.9z M244,44.3c0.6,0,1,0,1.5,0
		c0.4,0,0.8-0.1,1-0.2c0.3-0.1,0.4-0.4,0.4-0.9l0.2-6.2l-3,1.2V44.3z"/>
	<path fill="#FFFFFF" d="M277.2,26.1h-14.9v-5.9h37v5.9H284v23.7h18.2v5.9h-43.1v-5.9h18.1V26.1z"/>
</g>
</svg>
