<?xml version="1.0" encoding="utf-8"?>
<!-- Generator: Adobe Illustrator 18.1.1, SVG Export Plug-In . SVG Version: 6.00 Build 0)  -->
<svg version="1.1" id="图层_1" xmlns="http://www.w3.org/2000/svg" xmlns:xlink="http://www.w3.org/1999/xlink" x="0px" y="0px"
	 width="330" height="100" enable-background="new 0 0 330 100" xml:space="preserve">
<path fill="none" stroke="#FFFFFF" stroke-width="1.085" stroke-miterlimit="2.4142" d="M322.4,14.3v71.4c0,4.7-4.3,8.6-9.5,8.6
	H17.3c-5.2,0-9.5-3.9-9.5-8.6V14.3c0-4.7,4.3-8.6,9.5-8.6H313C318.1,5.7,322.4,9.5,322.4,14.3z"/>
<rect fill="#2D3081" stroke="#231815" stroke-width="0.216" stroke-miterlimit="2.4142" width="330.2" height="100"/>
<path fill="#FFFFFF" d="M314.6,93H15.7c-4.3,0-7.8-3.5-7.8-7.8V15c0-4.3,3.5-7.8,7.8-7.8h298.9c4.3,0,7.8,3.5,7.8,7.8v70.2
	C322.4,89.5,318.9,93,314.6,93z"/>
<path fill="#2D3081" stroke="#231815" stroke-width="0.216" stroke-miterlimit="2.4142" d="M313.3,90.4H17.4c-3.7,0-6.8-3-6.8-6.8
	V16.1c0-3.7,3-6.8,6.8-6.8h295.9c3.7,0,6.8,3,6.8,6.8v67.5C320.1,87.3,317,90.4,313.3,90.4z"/>
<polygon fill="#F4AB1C" points="64.7,11.4 104.2,50.5 64.7,89.6 25.2,50.5 "/>
<path fill="#FFFFFF" d="M118.7,37.6c2.1-0.1,3.9-0.1,5.4-0.1v13c-1.6,0.7-3.3,1.4-5.2,2.1l1.7,6.5c2.5-2.9,4.6-4.4,6.4-4.7h0.1
	c0.3,0,1.3,0.9,3.2,2.7c1.8,1.6,5.4,2.3,11,2.3c7.7,0.1,13.9,0.1,18.7,0c0.2-2,0.7-3.8,1.4-5.6c-15.9,0.9-25.2,0.7-27.8-0.7
	c-1-0.5-2.4-1.6-4.3-3.4l0.1-17.5h-10.7L118.7,37.6L118.7,37.6z M126.4,28.2c0.7-0.7,1.4-1.4,2.1-2.1c0.2-0.3,0.5-0.6,0.8-0.8
	c0.1-0.1,0.3-0.2,0.4-0.4l-5.7-7.1c-2,1.6-3.6,2.8-4.7,3.5c1.7,2,3.8,4.6,6.1,7.7C125.8,28.7,126.1,28.4,126.4,28.2L126.4,28.2z
	 M130.1,22.6v5.1l12-0.1c-0.1,0.7-0.3,1.3-0.4,2l-8.9-0.2l0.1,22.9c9.3-0.3,17.6-0.3,24.9,0c-0.3-8.1-0.3-15.8-0.1-22.9
	c-2.5,0.1-6,0.1-10.6,0.1l0.6-2c6.6,0,10.9,0,13,0.1v-5.1l-8.5,0.1c0.7-0.9,1.6-2.1,2.5-3.6c-1-0.4-2.7-1.2-4.9-2.4
	c-1.1,2-2.2,3.7-3.3,5.1l1.7,0.9h-7.7c0.6-0.4,1.2-0.9,1.9-1.2c-0.7-0.9-2.1-2.5-4-4.7c-1.1,0.7-2.6,1.5-4.5,2.4l3.2,3.6L130.1,22.6
	L130.1,22.6z M152.4,45.7v2h-14v-2H152.4L152.4,45.7z M138.4,41.9v-2h14v2H138.4L138.4,41.9z M138.4,36c0-0.7,0-1.3,0-2h14.1v2
	H138.4L138.4,36z M166.5,53.4c-0.4,0-0.9,0.1-1.3,0.2c1.2,2.3,2.1,4.2,2.6,5.5c2.7-1.3,7.9-3,15.4-5.2c0.1-1.6,0.3-3.4,0.8-5.5
	c-2.1,0.8-4.3,1.5-6.3,2.1v-6.3c2,0,3.7,0,5,0.1v-4.1c0.6,0.8,1.2,1.6,1.7,2.5c0.4-0.3,0.7-0.5,1.1-0.8l-0.1,16.8h5.3V58h9.3v0.7
	h5.4c-0.3-7-0.4-12.8-0.1-17.4c0.6,0.2,1.3,0.4,2,0.7l2.2-5.4c-4.3-0.9-8.1-2.4-11.3-4.6c3-3.7,5.3-6.8,6.7-9.6l-1.9-2.8h-9.3
	c0.4-0.7,0.7-1.4,1.1-2.2c-2-0.4-3.5-0.7-4.4-1c-0.5-0.1-1-0.2-1.4-0.4c-0.9,4.1-3.1,7.7-6.4,10.5c0-3.3,0-6,0.1-8.1h-15.8
	c0.2,5.1,0.2,10.4,0,15.7l5.8,0v17.8c-0.4,0.2-0.9,0.3-1.5,0.4c0-8.1,0.1-13.2,0.2-15.2h-5.1L166.5,53.4L166.5,53.4z M177.6,29.5
	H172v-6.4h5.6V29.5L177.6,29.5z M182.1,39.5l-4.4,0.1v-5.5l5,0.1c-0.1-2.1-0.1-4.1-0.1-6c0.7,0.9,1.5,2.1,2.3,3.7
	c0.3-0.4,0.7-0.9,1.4-1.5c0.6-0.6,1-1.2,1.4-1.6c0.1-0.2,0.3-0.4,0.6-0.7c0.7,1.4,1.6,2.8,2.8,4.3c-3.3,2.7-6.7,4.7-10.1,6
	L182.1,39.5L182.1,39.5z M189.1,39.9c1.9-1.3,3.7-2.6,5.4-4.1c2.4,1.6,4.7,3,6.9,4.1H189.1L189.1,39.9z M190.7,53.3v-8.5h9.3v8.5
	H190.7L190.7,53.3z M197.7,24.4c-1,1.7-2.1,3.2-3.1,4.4c-1.3-1.5-2.4-3-3.2-4.4H197.7L197.7,24.4z M221.4,52.6
	c-4.4,0.4-7.4,0.6-8.9,0.6c1,2.2,1.6,4.1,2.1,5.9c3-0.6,9.5-1.8,19.5-3.4c0.1-1.6,0.3-2.8,0.5-3.7c0,0,0-0.1,0.1-0.4
	c0-0.1,0.1-0.3,0.1-0.6c0-0.1,0-0.2,0.1-0.4c-1.9,0.4-4,0.8-6.1,1.1c-0.7,0.1-1.5,0.2-2.3,0.4V48c2.5,0,4.9,0,7.4,0.1V43l-7.4,0.1
	c0-0.8,0-2.3,0.1-4.5h-5.4l0.1,4.5l-7.5-0.1v5.1c2.5-0.1,5-0.1,7.5-0.1L221.4,52.6L221.4,52.6z M213.7,27.8c2.4-0.1,4.9-0.1,7.7-0.1
	v5.1l-8.7-0.1v5.1c8-0.3,15.4-0.3,22,0v-5.1l-8.1,0.1v-5.1c2.8,0,5.2,0,7.4,0.1v-4.9l-7.4,0.1c0-1.6,0-3.6,0.1-5.7h-5.4l0.1,5.7
	l-7.7-0.1L213.7,27.8L213.7,27.8z M235,33.1l10.1-0.1l0,20.3c-0.2,0.4-1,0.6-2.4,0.6c-0.6,0-1.4-0.1-2.4-0.2
	c0.9,1.8,1.4,3.7,1.7,5.7c1.9,0,3.9-0.3,6-0.7c1.3-0.3,2.1-0.9,2.5-1.7l0.1-23.9l4.8,0.1v-5l-4.8,0.1l0.1-11.1H245l0.1,11.1
	L235,28.1L235,33.1L235,33.1z M235,38.5c1.4,2.9,2.6,6,3.4,9.1l3.9-2c0,0,0.4-0.1,1.3-0.5l-3.8-8.4c-1.2,0.6-2.4,1-3.7,1.4
	C235.5,38.2,235.2,38.3,235,38.5L235,38.5z M262,25.7c0.3,11,0.3,22,0,33h5.6l-0.2-28.2c0-1.6,0.1-3.2,0.2-4.8H262L262,25.7z
	 M269.1,16.8c-1.3,1-2.8,2-4.4,3.1c2.2,2.4,4,4.7,5.4,6.7c1.3-1.2,2.7-2.3,4.3-3.4C273.2,21.8,271.5,19.6,269.1,16.8L269.1,16.8z
	 M280.6,50.5c0,0.6-0.1,0.9-0.4,1c-0.9,0.2-2.2,0.2-3.8,0.1c0.9,2.3,1.4,4.2,1.6,5.6c3.1,0,5.4-0.4,6.9-1.3c0.8-0.5,1.2-1.2,1.2-2.1
	V35.7l7,0.1v-5l-7,0.1l0.1-5.2h-5.6l0.1,5.2l-11.9-0.1v5l9.4-0.1c-2.7,5-6.2,8.7-10.5,11.2c1.6,1.9,2.7,3.4,3.4,4.7
	c3.3-2.5,6.5-5.7,9.6-9.8L280.6,50.5L280.6,50.5z M275.5,18.9v5.2c1.7-0.1,7.8-0.1,18.4-0.2v28.5c0,0.4-0.1,0.6-0.2,0.8
	c-0.3,0.4-1.7,0.4-4.3,0.2c0.6,1.7,1.1,3.7,1.6,5.8c3.5-0.1,5.9-0.6,7.3-1.4c0.8-0.4,1.1-1.2,1.2-2.3l0.1-36.5L275.5,18.9
	L275.5,18.9z"/>
<path fill="#231815" stroke="#231815" stroke-width="0.216" stroke-miterlimit="2.4142" d="M42.2,38.7h45.9v23.5h-1.7v-3.6H44.2v3.6
	h-1.9L42.2,38.7L42.2,38.7z M86.5,47.7h-3l3-2.4V47.7L86.5,47.7z M74.2,48H78l7.5-7.5h-3.8L74.2,48L74.2,48z M64.8,48h3.8l7.5-7.5
	h-3.8L64.8,48L64.8,48z M54.8,48h3.8l7.5-7.5h-3.8L54.8,48L54.8,48z M45,48h3.8l7.5-7.5h-3.8L45,48L45,48z M44.2,40.2h3l-3,2.4V40.2
	L44.2,40.2z M44.2,53.9h3l-3,2.4V53.9L44.2,53.9z M49.6,56.8h3.8l3-3.1h-3.8L49.6,56.8L49.6,56.8z M59.5,56.8h3.8l3-3.1h-3.8
	L59.5,56.8L59.5,56.8z M69.2,56.8h3.8l3-3.1h-3.8L69.2,56.8L69.2,56.8z M78.9,56.8h3.8l3-3.1H82L78.9,56.8L78.9,56.8z M44.2,49.3
	h42.3v2.8H44.2V49.3L44.2,49.3z"/>
<g>
	<path fill="#FFFFFF" d="M179.1,75.5c0.7,0.6,1.3,1.2,1.6,1.9c0.4,0.7,0.6,1.5,0.6,2.5c0,1.4-0.6,2.6-1.8,3.6
		c-1.2,1-2.7,1.5-4.7,1.5c-1.5,0-2.9-0.3-4.3-1c-1.4-0.7-2.4-1.6-3.3-2.8l2.8-2c0.4,0.6,1,1.1,1.9,1.6c0.9,0.5,2,0.7,3.1,0.7
		c1.1,0,1.9-0.2,2.3-0.7c0.4-0.4,0.6-0.9,0.6-1.3c0-0.6-0.3-1.1-0.9-1.6c-0.6-0.5-1.3-0.7-2.1-0.7c-0.2,0-0.3,0-0.5,0v-3.5h1.4
		c0.3,0,0.6-0.1,0.9-0.4c0.3-0.3,0.4-0.7,0.4-1.1c0-0.4-0.3-0.8-0.8-1.1c-0.5-0.3-1.2-0.4-2-0.4c-1.6,0-2.8,0.5-3.7,1.4l-2.5-2.2
		c0.8-0.9,1.8-1.5,2.9-2c1.1-0.4,2.2-0.7,3.4-0.7c1.7,0,3.2,0.5,4.4,1.4s1.7,2.1,1.7,3.5C180.4,73.5,180,74.6,179.1,75.5z"/>
	<path fill="#FFFFFF" d="M192.1,67.2c2.1,0,3.8,0.8,5.2,2.4c1.4,1.6,2.1,3.8,2.1,6.5c0,2.7-0.7,4.9-2,6.5c-1.3,1.6-3.1,2.4-5.3,2.4
		c-2.3,0-4-0.8-5.4-2.4c-1.3-1.6-2-3.7-2-6.5c0-2.7,0.7-4.9,2-6.5C188,68,189.8,67.2,192.1,67.2z M192.3,81.5c1.1,0,2-0.5,2.6-1.6
		c0.7-1,1-2.4,1-4.1s-0.3-3-0.9-3.9c-0.6-0.9-1.6-1.3-2.9-1.3c-2.6,0-3.9,1.9-3.9,5.5c0,1.7,0.4,3.1,1.1,4
		C189.9,81.1,191,81.5,192.3,81.5z"/>
	<path fill="#FFFFFF" d="M210.3,67.2c2.1,0,3.8,0.8,5.2,2.4c1.4,1.6,2.1,3.8,2.1,6.5c0,2.7-0.7,4.9-2,6.5c-1.3,1.6-3.1,2.4-5.3,2.4
		c-2.3,0-4-0.8-5.4-2.4c-1.3-1.6-2-3.7-2-6.5c0-2.7,0.7-4.9,2-6.5C206.1,68,208,67.2,210.3,67.2z M210.4,81.5c1.1,0,2-0.5,2.6-1.6
		c0.7-1,1-2.4,1-4.1s-0.3-3-0.9-3.9c-0.6-0.9-1.6-1.3-2.9-1.3c-2.6,0-3.9,1.9-3.9,5.5c0,1.7,0.4,3.1,1.1,4
		C208.1,81.1,209.1,81.5,210.4,81.5z"/>
	<path fill="#FFFFFF" d="M241.9,84.8h-3.4v-7.8c0-0.6-0.2-1-0.7-1.4c-0.4-0.4-1-0.6-1.6-0.6c-0.6,0-1.1,0.2-1.6,0.6
		c-0.4,0.4-0.6,0.9-0.6,1.4v7.8h-3.4v-7.9c0-0.5-0.2-1-0.6-1.4c-0.4-0.4-0.9-0.6-1.6-0.6c-0.7,0-1.2,0.2-1.7,0.6
		c-0.4,0.4-0.7,0.9-0.7,1.4v7.9h-3.4V71.8h3.5v0.8c1-0.7,2.1-1,3.3-1c1.4,0,2.6,0.5,3.4,1.5c1.2-1,2.5-1.5,3.9-1.5
		c1.4,0,2.6,0.4,3.6,1.3c1,0.9,1.5,1.9,1.5,3C241.9,75.9,241.9,84.8,241.9,84.8z"/>
</g>
</svg>
