<?xml version="1.0" encoding="utf-8"?>
<!-- Generator: Adobe Illustrator 18.1.1, SVG Export Plug-In . SVG Version: 6.00 Build 0)  -->
<svg version="1.1" id="图层_1" xmlns="http://www.w3.org/2000/svg" xmlns:xlink="http://www.w3.org/1999/xlink" x="0px" y="0px"
	 width="331" height="100" enable-background="new 0 0 331 100" xml:space="preserve">
<path fill="none" stroke="#FFFFFF" stroke-width="1.085" stroke-miterlimit="2.4142" d="M323.1,14.3v71.6c0,4.7-4.3,8.6-9.5,8.6
	H17.3c-5.2,0-9.5-3.9-9.5-8.6V14.3c0-4.7,4.3-8.6,9.5-8.6h296.4C318.9,5.7,323.1,9.6,323.1,14.3z"/>
<rect fill="#2D3081" stroke="#231815" stroke-width="0.216" stroke-miterlimit="2.4142" width="331" height="100.2"/>
<path fill="#FFFFFF" d="M315.3,93.2H15.7c-4.3,0-7.9-3.5-7.9-7.9V15c0-4.3,3.5-7.9,7.9-7.9h299.6c4.3,0,7.9,3.5,7.9,7.9v70.4
	C323.1,89.7,319.6,93.2,315.3,93.2z"/>
<path fill="#2D3081" stroke="#231815" stroke-width="0.216" stroke-miterlimit="2.4142" d="M314,90.6H17.4c-3.7,0-6.8-3-6.8-6.8
	V16.1c0-3.7,3-6.8,6.8-6.8H314c3.7,0,6.8,3,6.8,6.8v67.6C320.8,87.5,317.8,90.6,314,90.6z"/>
<polygon fill="#F4AB1C" points="64.8,11.5 104.5,50.6 64.8,89.8 25.2,50.6 "/>
<path fill="#FFFFFF" d="M119,37.7c2.1-0.1,3.9-0.1,5.4-0.1v13c-1.6,0.7-3.3,1.4-5.2,2.1l1.7,6.5c2.5-2.9,4.6-4.5,6.4-4.7h0.1
	c0.3,0,1.3,0.9,3.2,2.7c1.8,1.6,5.5,2.3,11.1,2.3c7.7,0.1,13.9,0.1,18.7,0c0.2-2,0.7-3.9,1.4-5.6c-15.9,0.9-25.2,0.7-27.9-0.7
	c-1-0.5-2.4-1.6-4.3-3.4l0.1-17.5H119L119,37.7L119,37.7z M126.7,28.2c0.7-0.7,1.4-1.4,2.2-2.1c0.2-0.3,0.5-0.6,0.8-0.8
	c0.1-0.1,0.3-0.2,0.4-0.4l-5.7-7.1c-2,1.6-3.6,2.8-4.7,3.5c1.7,2,3.8,4.6,6.2,7.7C126.1,28.7,126.4,28.5,126.7,28.2L126.7,28.2z
	 M130.4,22.7v5.2l12-0.1c-0.1,0.7-0.3,1.3-0.4,2l-8.9-0.2l0.1,23c9.3-0.3,17.7-0.3,24.9,0c-0.3-8.2-0.3-15.8-0.1-22.9
	c-2.5,0.1-6,0.1-10.6,0.1l0.6-2c6.6,0,10.9,0,13,0.1v-5.2l-8.5,0.1c0.7-0.9,1.6-2.1,2.5-3.6c-1-0.4-2.7-1.2-4.9-2.4
	c-1.1,2-2.2,3.7-3.3,5.1l1.7,0.9h-7.7c0.6-0.4,1.2-0.9,1.9-1.2c-0.7-0.9-2.1-2.5-4-4.7c-1.1,0.7-2.6,1.5-4.5,2.4l3.2,3.6L130.4,22.7
	L130.4,22.7z M152.7,45.8v2h-14.1v-2H152.7L152.7,45.8z M138.7,42v-2h14.1v2H138.7L138.7,42z M138.7,36.1c0-0.7,0-1.3,0-2h14.1v2
	H138.7L138.7,36.1z M166.9,53.5c-0.4,0-0.9,0.1-1.3,0.2c1.2,2.3,2.1,4.2,2.6,5.5c2.7-1.3,7.9-3,15.5-5.2c0.1-1.6,0.3-3.4,0.8-5.5
	c-2.2,0.8-4.3,1.5-6.3,2.1v-6.3c2,0,3.7,0,5,0.1v-4.1c0.6,0.8,1.2,1.6,1.7,2.5c0.4-0.3,0.7-0.5,1.1-0.8l-0.1,16.8h5.3v-0.7h9.3v0.7
	h5.4c-0.3-7-0.4-12.8-0.1-17.4c0.6,0.2,1.3,0.4,2,0.7l2.2-5.5c-4.3-0.9-8.1-2.4-11.4-4.6c3-3.7,5.3-6.9,6.8-9.6l-1.9-2.8h-9.3
	c0.4-0.7,0.7-1.4,1.1-2.2c-2-0.4-3.5-0.7-4.4-1c-0.5-0.1-1-0.2-1.4-0.4c-0.9,4.2-3.1,7.7-6.4,10.6c0-3.3,0-6,0.1-8.1h-15.8
	c0.2,5.2,0.2,10.4,0,15.7l5.9,0V52c-0.4,0.2-0.9,0.3-1.5,0.4c0-8.2,0.1-13.2,0.2-15.3h-5.2L166.9,53.5L166.9,53.5z M178,29.6h-5.6
	v-6.4h5.6V29.6L178,29.6z M182.5,39.6l-4.5,0.1v-5.5l5,0.1c-0.1-2.1-0.1-4.1-0.1-6c0.7,0.9,1.5,2.2,2.3,3.7c0.3-0.4,0.7-0.9,1.4-1.5
	c0.6-0.6,1-1.2,1.4-1.6c0.1-0.2,0.3-0.4,0.6-0.7c0.7,1.4,1.6,2.9,2.8,4.3c-3.3,2.7-6.7,4.7-10.1,6L182.5,39.6L182.5,39.6z M189.6,40
	c1.9-1.3,3.7-2.6,5.4-4.1c2.4,1.6,4.7,3,6.9,4.1H189.6L189.6,40z M191.2,53.4v-8.5h9.3v8.5H191.2L191.2,53.4z M198.1,24.4
	c-1,1.7-2.1,3.2-3.1,4.5c-1.3-1.5-2.4-3-3.2-4.5H198.1L198.1,24.4z M221.9,52.7c-4.5,0.4-7.4,0.6-8.9,0.6c1,2.2,1.6,4.2,2.1,5.9
	c3-0.6,9.6-1.8,19.6-3.4c0.1-1.6,0.3-2.9,0.5-3.7c0,0,0-0.1,0.1-0.4c0-0.1,0.1-0.3,0.1-0.6c0-0.1,0-0.2,0.1-0.4
	c-1.9,0.4-4,0.8-6.1,1.1c-0.7,0.1-1.5,0.2-2.3,0.4v-4.1c2.5,0,4.9,0,7.4,0.1v-5.2l-7.4,0.1c0-0.8,0-2.3,0.1-4.5h-5.4l0.1,4.5
	l-7.6-0.1v5.2c2.5-0.1,5-0.1,7.6-0.1L221.9,52.7L221.9,52.7z M214.2,27.9c2.4-0.1,4.9-0.1,7.7-0.1v5.1l-8.8-0.1v5.1
	c8-0.3,15.4-0.3,22.1,0v-5.1l-8.1,0.1v-5.1c2.8,0,5.2,0,7.4,0.1V23l-7.4,0.1c0-1.6,0-3.6,0.1-5.7h-5.4l0.1,5.7l-7.7-0.1L214.2,27.9
	L214.2,27.9z M235.6,33.2l10.2-0.1l0,20.4c-0.2,0.4-1,0.6-2.4,0.6c-0.6,0-1.4-0.1-2.4-0.2c0.9,1.8,1.4,3.7,1.7,5.7
	c1.9,0,3.9-0.3,6-0.7c1.3-0.3,2.1-0.9,2.5-1.7l0.1-24l4.8,0.1v-5l-4.8,0.1l0.1-11.2h-5.6l0.1,11.2l-10.2-0.1L235.6,33.2L235.6,33.2z
	 M235.5,38.5c1.4,2.9,2.6,6,3.4,9.2l3.9-2c0,0,0.4-0.1,1.3-0.5l-3.9-8.4c-1.2,0.6-2.4,1-3.7,1.4C236,38.3,235.7,38.4,235.5,38.5
	L235.5,38.5z M262.6,25.7c0.3,11,0.3,22,0,33.1h5.6L268,30.6c0-1.6,0.1-3.2,0.2-4.8H262.6L262.6,25.7z M269.7,16.8
	c-1.3,1-2.8,2-4.5,3.1c2.2,2.4,4,4.7,5.4,6.8c1.3-1.2,2.7-2.3,4.3-3.4C273.8,21.8,272.1,19.7,269.7,16.8L269.7,16.8z M281.2,50.6
	c0,0.6-0.1,0.9-0.4,1c-0.9,0.2-2.2,0.2-3.8,0.1c0.9,2.3,1.4,4.2,1.6,5.6c3.1,0,5.4-0.4,6.9-1.3c0.8-0.5,1.2-1.2,1.2-2.1V35.8l7,0.1
	v-5l-7,0.1l0.1-5.2h-5.6l0.1,5.2l-11.9-0.1v5l9.5-0.1c-2.7,5-6.2,8.8-10.6,11.2c1.6,1.9,2.7,3.4,3.4,4.7c3.3-2.5,6.5-5.7,9.6-9.8
	L281.2,50.6L281.2,50.6z M276.2,19v5.2c1.7-0.1,7.8-0.1,18.5-0.2v28.6c0,0.4-0.1,0.6-0.2,0.8c-0.3,0.4-1.7,0.4-4.3,0.2
	c0.6,1.7,1.1,3.7,1.6,5.8c3.5-0.1,5.9-0.6,7.3-1.4c0.8-0.4,1.1-1.2,1.2-2.3l0.1-36.6L276.2,19L276.2,19z"/>
<path fill="#231815" stroke="#231815" stroke-width="0.216" stroke-miterlimit="2.4142" d="M42.3,38.8h46v23.5h-1.7v-3.6H44.3v3.6
	h-1.9L42.3,38.8L42.3,38.8z M86.7,47.8h-3l3-2.4V47.8L86.7,47.8z M74.4,48.1h3.8l7.5-7.6h-3.8L74.4,48.1L74.4,48.1z M65,48.1h3.8
	l7.5-7.6h-3.8L65,48.1L65,48.1z M54.9,48.1h3.8l7.5-7.6h-3.8L54.9,48.1L54.9,48.1z M45.1,48.1h3.8l7.5-7.6h-3.8L45.1,48.1L45.1,48.1
	z M44.3,40.3h3l-3,2.4V40.3L44.3,40.3z M44.3,54h3l-3,2.4V54L44.3,54z M49.7,56.9h3.8l3-3.1h-3.8L49.7,56.9L49.7,56.9z M59.6,56.9
	h3.8l3-3.1h-3.8L59.6,56.9L59.6,56.9z M69.3,56.9h3.8l3-3.1h-3.8L69.3,56.9L69.3,56.9z M79.1,56.9h3.8l3-3.1h-3.8L79.1,56.9
	L79.1,56.9z M44.3,49.4h42.4v2.8H44.3V49.4L44.3,49.4z"/>
</svg>
