<?xml version="1.0" encoding="utf-8"?>
<!-- Generator: Adobe Illustrator 18.1.1, SVG Export Plug-In . SVG Version: 6.00 Build 0)  -->
<svg version="1.1" id="图层_1" xmlns="http://www.w3.org/2000/svg" xmlns:xlink="http://www.w3.org/1999/xlink" x="0px" y="0px"
	 width="100" height="100" enable-background="new 0 0 100 100" xml:space="preserve">
<g>
	<path fill="#F4AB1C" d="M4.2,82.4L46,9.4c0.9-1.4,2.5-2.5,4.2-2.5c-1.7,0-3.3,1.1-4.2,2.5L4.2,82.4c-2.6,4.6-2.8,8.3,1,9l0,0
		C1.4,90.7,1.6,87,4.2,82.4z"/>
	<path fill="#F4AB1C" d="M44.6,63.8v4.8C46,64.8,46,63.1,44.6,63.8z"/>
	<path fill="#F4AB1C" d="M10.5,84.4h78.8L49.9,16.1L10.5,84.4z M42.5,51c1.7,0,3.1,1.4,3.1,3.2s-1.4,3.2-3.1,3.2
		c-1.7,0-3.1-1.4-3.1-3.2S40.8,51,42.5,51z M49.1,74.2L47,73.5c-3.7-1.7-2.3,0.4,1.3,4.3c1.1,2.3-0.5,3.5-1.7,2.9
		c-1.9-1.7-3.8-3-5.1-4.6c-1.1-1.3-1.8-2.8-2.1-4.9C37,71.8,35.9,74,36,77.6c-1.1,2.5-2.8,2.5-3.9,0.8c-0.2-3.6,0.2-6.1,1.8-7.3
		c2.3-1.6,3.1-4.3,3.2-6.8L33.3,67c-2.3,0.3-2.8-0.4-2.1-2.2l8.2-5.5c3.6-1.4,6.7-1.2,8.5,2.9c1.5,1.8,0.9,4.4-0.3,7.3l1.7,0.3
		L49.1,74.2z M56.6,48.7c1.7,0,3.1,1.4,3.1,3.2s-1.4,3.2-3.1,3.2s-3.1-1.4-3.1-3.2S54.9,48.7,56.6,48.7z M51.8,57.8
		c2.5-2.2,5.3-2.3,8.4-0.8c1.2,1.3,2.4,1.8,4.4,1.7l2.3,0.7c1.1,0.9-0.7,5.2-2.8,5.3c-3.9-2.2-4.9-1.9-3,0.9
		c0.3,0.6-0.2,1.3-1.5,2.1l2.1,0.9c3.1,1.6,4,3,2.4,4.2l-5.5-1.7c-1.4-0.3-2.3-1.1-2.6-2.6c-0.8-0.4-1.7-0.5-1.6,1.7l-0.1,3.7
		c-0.1,1.9-1.9,2.1-2.9,0.9l-0.8-4.4c-0.6-1.5-0.2-2.3,1-2.2c-0.2-0.8-2.2-0.9-0.5-2.3c-0.2-1.8,1.4-3-0.7-5.3
		C48.3,57.7,48.8,56.7,51.8,57.8z"/>
	<path fill="#010101" d="M94.8,80.8l-41-71.4c-1-1.8-2.3-2.4-3.6-2.5c-1.7,0-3.3,1.1-4.2,2.5l-41.7,73c-2.6,4.6-2.8,8.3,1,9h88.5
		l0,0C100.1,91.5,97.5,85.2,94.8,80.8z M10.5,84.4l39.4-68.3l39.4,68.3H10.5z"/>
	<ellipse fill="#010101" cx="42.5" cy="54.2" rx="3.1" ry="3.2"/>
	<ellipse fill="#010101" cx="56.6" cy="51.9" rx="3.1" ry="3.2"/>
	<path fill="#010101" d="M47.9,62.2c-1.8-4.1-4.9-4.3-8.5-2.9l-8.2,5.5c-0.7,1.9-0.2,2.5,2.1,2.2l3.9-2.7c-0.1,2.5-0.9,5.2-3.2,6.8
		c-1.6,1.2-2,3.6-1.8,7.3c1,1.7,2.8,1.7,3.9-0.8c-0.1-3.6,1-5.8,3.3-6.5c0.2,2.1,1,3.6,2.1,4.9c1.4,1.6,3.2,2.9,5.1,4.6
		c1.2,0.6,2.8-0.5,1.7-2.9c-3.6-3.8-5-5.9-1.3-4.3l2.1,0.7l0.1-4.4l-1.7-0.3C48.8,66.6,49.4,64,47.9,62.2z M44.6,68.7v-4.8
		C46,63.1,46,64.8,44.6,68.7z"/>
	<path fill="#010101" d="M50.4,60.9c2.1,2.3,0.5,3.5,0.7,5.3c-1.7,1.4,0.3,1.5,0.5,2.3c-1.2,0-1.5,0.7-1,2.2l0.8,4.4
		c1,1.2,2.8,1,2.9-0.9l0.1-3.7c-0.1-2.2,0.8-2.1,1.6-1.7c0.4,1.5,1.3,2.3,2.6,2.6l5.5,1.7c1.5-1.2,0.7-2.6-2.4-4.2l-2.1-0.9
		c1.3-0.8,1.8-1.5,1.5-2.1c-1.9-2.8-0.9-3.1,3-0.9c2.1,0,3.9-4.4,2.8-5.3l-2.3-0.7c-2,0-3.2-0.4-4.4-1.7c-3.1-1.4-5.9-1.4-8.4,0.8
		C48.8,56.7,48.3,57.7,50.4,60.9z"/>
</g>
</svg>
