<?xml version="1.0" encoding="utf-8"?>
<!-- Generator: Adobe Illustrator 18.1.1, SVG Export Plug-In . SVG Version: 6.00 Build 0)  -->
<svg version="1.1" id="图层_1" xmlns="http://www.w3.org/2000/svg" xmlns:xlink="http://www.w3.org/1999/xlink" x="0px" y="0px"
	 width="331" height="100" enable-background="new 0 0 331 100" xml:space="preserve">
<path fill="none" stroke="#FFFFFF" stroke-width="1.085" stroke-miterlimit="2.4142" d="M323.1,14.3v71.6c0,4.7-4.3,8.6-9.5,8.6
	H17.3c-5.2,0-9.5-3.9-9.5-8.6V14.3c0-4.7,4.3-8.6,9.5-8.6h296.4C318.9,5.7,323.1,9.6,323.1,14.3z"/>
<rect fill="#2D3081" stroke="#231815" stroke-width="0.216" stroke-miterlimit="2.4142" width="331" height="100.2"/>
<path fill="#FFFFFF" d="M315.3,93.2H15.7c-4.3,0-7.9-3.5-7.9-7.9V15c0-4.3,3.5-7.9,7.9-7.9h299.6c4.3,0,7.9,3.5,7.9,7.9v70.4
	C323.1,89.7,319.6,93.2,315.3,93.2z"/>
<path fill="#2D3081" stroke="#231815" stroke-width="0.216" stroke-miterlimit="2.4142" d="M314,90.6H17.4c-3.7,0-6.8-3-6.8-6.8
	V16.1c0-3.7,3-6.8,6.8-6.8H314c3.7,0,6.8,3,6.8,6.8v67.6C320.8,87.5,317.8,90.6,314,90.6z"/>
<polygon fill="#F4AB1C" points="64.2,11 103.8,50.1 64.2,89.3 24.6,50.1 "/>
<path fill="#FFFFFF" d="M129,53.6l-0.1,5.3h5.8v-1.1h16.5v1.1h5.8l-0.2-5.3V41.7l0.2-4.8l-5.3,0.2h-16.7c0.6-1.3,1.2-2.6,1.7-3.9
	c0.4-1.3,0.9-2.8,1.4-4.5h15.4l6.5,0.1v-5.7l-6.5,0.2h-14.4c0.3-1.9,0.6-4.2,0.8-6.8l-2.1,0c-1.1,0-2.5-0.1-4-0.2l-0.2,3.9l-0.4,3.1
	H124l-5.2-0.2v5.7l5.2-0.2h8.2c-0.7,2.8-1.6,5.3-2.9,7.3c-1,1.7-2.6,3.5-4.5,5.4c-1.9,1.7-3.7,3-5.4,3.9c-0.4,0.2-1.1,0.5-2.1,0.9
	c1.3,1.6,2.4,3.3,3.3,5.1c1.5-0.9,2.9-1.8,4.2-2.7c1.3-0.9,2.6-2,4.1-3.3L129,53.6L129,53.6z M134.6,52.7V42.3h16.5v10.5H134.6
	L134.6,52.7z M165.2,37.2c2.1-0.1,3.9-0.1,5.4-0.1V50c-1.6,0.7-3.3,1.4-5.2,2.1l1.7,6.5c2.5-2.9,4.6-4.5,6.4-4.7h0.1
	c0.3,0,1.3,0.9,3.2,2.7c1.8,1.5,5.5,2.3,11.1,2.3c7.7,0.1,13.9,0.1,18.7,0c0.2-2,0.7-3.9,1.4-5.6c-15.9,0.9-25.2,0.7-27.9-0.7
	c-1-0.5-2.4-1.6-4.3-3.4l0.1-17.5h-10.7L165.2,37.2L165.2,37.2z M172.9,27.7c0.7-0.7,1.4-1.4,2.2-2.1c0.2-0.3,0.5-0.6,0.8-0.8
	c0.1-0.1,0.3-0.2,0.4-0.4l-5.7-7.1c-2,1.6-3.6,2.8-4.7,3.5c1.7,2,3.8,4.6,6.2,7.7C172.3,28.3,172.6,28,172.9,27.7L172.9,27.7z
	 M176.6,22.2v5.2l12-0.1c-0.1,0.7-0.3,1.3-0.4,2l-8.9-0.2l0.1,23c9.3-0.3,17.7-0.3,24.9,0c-0.3-8.2-0.3-15.8-0.1-22.9
	c-2.5,0.1-6,0.1-10.6,0.1l0.6-2c6.6,0,10.9,0,13,0.1v-5.2l-8.5,0.1c0.7-0.9,1.6-2.1,2.5-3.6c-1-0.4-2.7-1.2-4.9-2.4
	c-1.1,2-2.2,3.7-3.3,5.1l1.7,0.9H187c0.6-0.4,1.2-0.9,1.9-1.2c-0.7-0.9-2.1-2.5-4-4.7c-1.1,0.7-2.6,1.5-4.5,2.4l3.2,3.6L176.6,22.2
	L176.6,22.2z M198.9,45.3v2h-14v-2H198.9L198.9,45.3z M184.9,41.5v-2h14v2H184.9L184.9,41.5z M184.9,35.6c0-0.7,0-1.3,0-2h14.1v2
	H184.9L184.9,35.6z M221,52.3c-4.4,0.4-7.4,0.6-8.9,0.6c1,2.2,1.6,4.2,2,5.9c3-0.6,9.6-1.8,19.6-3.4c0.1-1.6,0.3-2.9,0.5-3.7
	c0,0,0-0.1,0.1-0.4c0-0.1,0.1-0.3,0.1-0.6c0-0.1,0-0.2,0.1-0.4c-1.9,0.4-4,0.8-6.1,1.1c-0.7,0.1-1.5,0.2-2.3,0.4v-4.2
	c2.5,0,4.9,0,7.4,0.1v-5.2l-7.4,0.1c0-0.8,0-2.3,0.1-4.5h-5.4l0.1,4.5l-7.6-0.1v5.2c2.5-0.1,5-0.1,7.6-0.1L221,52.3L221,52.3z
	 M213.4,27.4c2.4-0.1,4.9-0.1,7.6-0.1v5.1l-8.8-0.1v5.1c8-0.3,15.4-0.3,22.1,0v-5.1l-8.1,0.1v-5.1c2.8,0,5.2,0,7.4,0.1v-4.9
	l-7.4,0.1c0-1.6,0-3.6,0.1-5.7h-5.4l0.1,5.7l-7.6-0.1L213.4,27.4L213.4,27.4z M234.7,32.7l10.1-0.1l0,20.3c-0.2,0.4-1,0.6-2.4,0.6
	c-0.6,0-1.4-0.1-2.4-0.2c0.9,1.8,1.4,3.7,1.7,5.7c1.9,0,3.9-0.3,6-0.7c1.3-0.3,2.1-0.9,2.5-1.7l0.1-24l4.7,0.1v-5l-4.7,0.1l0.1-11.2
	h-5.6l0.1,11.2l-10.1-0.1L234.7,32.7L234.7,32.7z M234.6,38.1c1.4,2.9,2.6,5.9,3.4,9.2l3.9-2c0,0,0.4-0.1,1.3-0.5l-3.9-8.4
	c-1.2,0.6-2.4,1-3.7,1.4C235.1,37.8,234.8,37.9,234.6,38.1L234.6,38.1z M261.7,25.3c0.3,11,0.3,22,0,33.1h5.6l-0.2-28.3
	c0-1.6,0.1-3.2,0.2-4.8L261.7,25.3L261.7,25.3z M268.8,16.4c-1.3,1-2.8,2-4.5,3.1c2.2,2.4,4,4.7,5.4,6.8c1.3-1.2,2.7-2.3,4.3-3.4
	C272.9,21.4,271.2,19.2,268.8,16.4L268.8,16.4z M280.3,50.1c0,0.6-0.1,0.9-0.4,1c-0.9,0.2-2.2,0.2-3.8,0.1c0.9,2.3,1.4,4.2,1.6,5.6
	c3.1,0,5.4-0.4,6.9-1.3c0.8-0.5,1.2-1.2,1.2-2.1V35.3l7,0.1v-5l-7,0.1l0.1-5.2h-5.6l0.1,5.2l-11.9-0.1v5l9.5-0.1
	c-2.7,5-6.2,8.8-10.5,11.2c1.6,1.9,2.7,3.4,3.4,4.7c3.3-2.5,6.5-5.7,9.6-9.8L280.3,50.1L280.3,50.1z M275.2,18.5v5.2
	c1.7-0.1,7.8-0.1,18.4-0.2V52c0,0.4-0.1,0.6-0.2,0.8c-0.3,0.4-1.7,0.4-4.3,0.2c0.6,1.7,1.1,3.7,1.6,5.8c3.5-0.1,5.9-0.6,7.3-1.4
	c0.8-0.4,1.1-1.2,1.2-2.3l0.1-36.6L275.2,18.5L275.2,18.5z"/>
<path fill="#070404" d="M63.8,71.7c-0.1-2.3-0.1-4.6-0.1-6.9c-2.4-2.9-4.8-5.9-7.2-8.8c-0.1-4-0.1-8-0.2-12.1
	c-2.1,1.5-4.2,3-6.2,4.5c0-3.2,0-6.4,0-9.6c3.1-3.5,6.3-7,9.4-10.4c0.1,0,0.3-0.1,0.4-0.1c3.2,3.6,6.5,7.1,9.7,10.7
	c0,3.1,0,6.3,0,9.5c-2.4-1.6-4.7-3.1-7.1-4.6c0,3.3,0,6.5,0,9.8c2.7,2.8,5.4,5.5,8.1,8.3c2.6,0,5.3,0.1,7.9,0.1c0,3.2,0,6.3,0,9.5
	C73.5,71.7,68.6,71.7,63.8,71.7L63.8,71.7z"/>
<path fill="#070404" d="M71.2,59.8c0-3.6,0-7.3,0-11c2.4,0,4.8,0,7.2,0c0,3.6,0,7.3,0,11C76,59.8,73.6,59.8,71.2,59.8L71.2,59.8z"/>
<path fill="#070404" d="M71.2,46c0-3.6,0-7.3,0-11c2.4,0,4.8,0,7.2,0c0,3.6,0,7.3,0,11C76,46,73.6,46,71.2,46L71.2,46z"/>
</svg>
