<?xml version="1.0" encoding="utf-8"?>
<!-- Generator: Adobe Illustrator 18.1.1, SVG Export Plug-In . SVG Version: 6.00 Build 0)  -->
<svg version="1.1" id="图层_1" xmlns="http://www.w3.org/2000/svg" xmlns:xlink="http://www.w3.org/1999/xlink" x="0px" y="0px"
	 width="331" height="100" enable-background="new 0 0 331 100" xml:space="preserve">
<path fill="none" stroke="#FFFFFF" stroke-width="1.085" stroke-miterlimit="2.4142" d="M324,14.4v71.8c0,4.8-4.3,8.7-9.5,8.7H17.4
	c-5.2,0-9.5-3.9-9.5-8.7V14.4c0-4.8,4.3-8.7,9.5-8.7h297.1C319.7,5.7,324,9.6,324,14.4z"/>
<rect fill="#2D3081" stroke="#231815" stroke-width="0.216" stroke-miterlimit="2.4142" width="331.9" height="100.5"/>
<path fill="#FFFFFF" d="M316.2,93.4H15.7c-4.4,0-7.9-3.5-7.9-7.9V15c0-4.4,3.5-7.9,7.9-7.9h300.4c4.4,0,7.9,3.5,7.9,7.9v70.6
	C324,89.9,320.5,93.4,316.2,93.4z"/>
<path fill="#2D3081" stroke="#231815" stroke-width="0.216" stroke-miterlimit="2.4142" d="M314.8,90.8H17.4c-3.8,0-6.8-3-6.8-6.8
	V16.2c0-3.8,3-6.8,6.8-6.8h297.4c3.8,0,6.8,3,6.8,6.8V84C321.7,87.8,318.6,90.8,314.8,90.8z"/>
<polygon fill="#F4AB1C" points="64.3,10.5 104.2,50 64.3,89.3 24.4,50 "/>
<path fill="#FFFFFF" d="M136.7,40.2l6.5-0.1v11.7l-13.5-0.1v5.4l5.9-0.1h20.2l6.1,0.1v-5.4l-13.2,0.1V40.2h5.4l4.7,0.1V35l-12.2,0.1
	l-9.3-0.1c0.4-1.3,0.7-2.4,0.9-3.3c0.2-0.9,0.4-2.1,0.6-3.5h14.9l7.3,0.1v-5.5l-7.2,0.1h-14.1c0-0.7,0.1-1.5,0.2-2.3
	c0.3-1.8,0.4-3.1,0.4-3.9c-2.3-0.3-4.4-0.6-6.1-0.9l-0.2,7.1H125l-4.7-0.1v5.5l4.6-0.1h8c-0.5,4.1-1.7,8.1-3.5,12.2
	c-1.3,2.8-2.9,5.3-4.9,7.5c-1.9,1.8-3.8,3.2-5.7,4.2c1.6,1.3,3,2.8,4.4,4.6c2.2-1.8,4.4-4,6.5-6.6c2.9-3.7,5.2-8,6.9-13.1
	L136.7,40.2L136.7,40.2z M166.1,36.9c2.1-0.1,3.9-0.1,5.5-0.1v13.1c-1.6,0.7-3.3,1.5-5.2,2.2l1.7,6.6c2.5-2.9,4.6-4.5,6.5-4.7h0.1
	c0.3,0,1.3,0.9,3.2,2.8c1.8,1.6,5.5,2.3,11.1,2.3c7.8,0.1,14,0.1,18.8,0c0.2-2,0.7-3.9,1.4-5.7c-16,0.9-25.4,0.7-28.1-0.7
	c-1-0.5-2.4-1.6-4.4-3.4l0.1-17.6h-10.8L166.1,36.9L166.1,36.9z M173.9,27.4c0.7-0.7,1.4-1.5,2.2-2.1c0.2-0.3,0.5-0.6,0.8-0.8
	c0.1-0.1,0.3-0.2,0.5-0.4l-5.7-7.2c-2.1,1.6-3.6,2.8-4.8,3.6c1.7,2,3.8,4.6,6.2,7.8C173.3,27.9,173.6,27.6,173.9,27.4L173.9,27.4z
	 M177.6,21.8V27l12.1-0.1c-0.1,0.7-0.3,1.3-0.4,2l-9-0.2l0.1,23.1c9.4-0.3,17.8-0.3,25.1,0c-0.3-8.2-0.3-15.9-0.1-23.1
	c-2.5,0.1-6.1,0.1-10.7,0.1l0.6-2c6.7,0,11,0,13.1,0.1v-5.2l-8.6,0.1c0.7-0.9,1.6-2.1,2.5-3.6c-1-0.4-2.7-1.2-4.9-2.4
	c-1.2,2-2.2,3.7-3.3,5.2l1.7,0.9h-7.8c0.6-0.4,1.2-0.9,1.9-1.2c-0.7-0.9-2.1-2.5-4.1-4.8c-1.2,0.7-2.7,1.5-4.6,2.4l3.2,3.6
	L177.6,21.8L177.6,21.8z M200.1,45.1v2H186v-2H200.1L200.1,45.1z M186,41.2v-2h14.1v2H186L186,41.2z M186,35.3c0-0.7,0-1.3,0-2h14.2
	v2H186L186,35.3z M222.4,52.1c-4.5,0.4-7.4,0.6-9,0.6c1,2.2,1.6,4.2,2.1,5.9c3-0.6,9.6-1.8,19.8-3.5c0.1-1.6,0.3-2.9,0.5-3.8
	c0,0,0-0.1,0.1-0.4c0-0.1,0.1-0.3,0.1-0.6c0-0.1,0-0.2,0.1-0.4c-1.9,0.4-4,0.8-6.1,1.2c-0.8,0.1-1.5,0.2-2.3,0.4v-4.2
	c2.5,0,5,0,7.5,0.1v-5.2l-7.5,0.1c0-0.8,0-2.3,0.1-4.5h-5.5l0.1,4.5l-7.6-0.1v5.2c2.5-0.1,5-0.1,7.6-0.1L222.4,52.1L222.4,52.1z
	 M214.7,27c2.4-0.1,5-0.1,7.7-0.1V32l-8.8-0.1V37c8.1-0.3,15.5-0.3,22.2,0v-5.1l-8.2,0.1v-5.2c2.8,0,5.3,0,7.4,0.1v-4.9l-7.4,0.1
	c0-1.6,0-3.6,0.1-5.8h-5.5l0.1,5.8l-7.7-0.1V27L214.7,27z M236.1,32.4l10.2-0.1l0,20.5c-0.2,0.4-1,0.6-2.5,0.6
	c-0.6,0-1.4-0.1-2.5-0.2c0.9,1.8,1.4,3.7,1.7,5.7c1.9,0,3.9-0.3,6.1-0.7c1.3-0.3,2.1-0.9,2.5-1.7l0.1-24.2l4.8,0.1v-5.1l-4.8,0.1
	l0.1-11.2h-5.7l0.1,11.2l-10.2-0.1L236.1,32.4L236.1,32.4z M236.1,37.8c1.5,2.9,2.6,6,3.5,9.2l3.9-2c0,0,0.5-0.1,1.3-0.5l-3.9-8.5
	c-1.2,0.6-2.5,1-3.8,1.4C236.6,37.6,236.3,37.7,236.1,37.8L236.1,37.8z M263.4,24.9c0.3,11.1,0.3,22.2,0,33.4h5.7l-0.2-28.5
	c0-1.6,0.1-3.3,0.2-4.8L263.4,24.9L263.4,24.9z M270.5,15.9c-1.3,1-2.8,2-4.5,3.1c2.2,2.5,4,4.7,5.5,6.8c1.3-1.2,2.8-2.3,4.4-3.4
	C274.7,20.9,272.9,18.8,270.5,15.9L270.5,15.9z M282.2,50c0,0.6-0.1,0.9-0.5,1c-0.9,0.2-2.2,0.2-3.8,0.1c0.9,2.4,1.4,4.2,1.6,5.6
	c3.1,0,5.5-0.4,6.9-1.3c0.8-0.5,1.3-1.2,1.3-2.2V35l7.1,0.1V30l-7.1,0.1l0.1-5.2H282l0.1,5.2l-12-0.1v5l9.5-0.1
	c-2.7,5.1-6.2,8.8-10.6,11.3c1.6,1.9,2.7,3.5,3.4,4.7c3.3-2.5,6.5-5.8,9.7-9.9V50L282.2,50z M277.1,18.1v5.2
	c1.7-0.1,7.8-0.1,18.6-0.2v28.8c0,0.4-0.1,0.6-0.2,0.8c-0.3,0.4-1.8,0.4-4.4,0.2c0.6,1.7,1.2,3.7,1.6,5.8c3.5-0.1,6-0.6,7.4-1.5
	c0.8-0.4,1.2-1.2,1.2-2.3l0.1-36.9L277.1,18.1L277.1,18.1z"/>
<path fill="#FFFFFF" d="M186.8,63.5v20.8h-4.8V70.7c-0.8,0.7-1.5,1.3-2.2,1.7c-0.7,0.4-1.6,0.9-2.7,1.3V69c1.6-0.6,2.8-1.4,3.7-2.2
	c0.9-0.9,1.6-2,2.1-3.2H186.8L186.8,63.5z M192.4,63.8h4.8v10.6l3.5-4.9h5.8l-4.4,5.2l4.6,9.6h-5.3l-2.5-6l-1.7,2.1v3.9h-4.8V63.8
	L192.4,63.8z M208.2,69.5h4.4v2.2c0.6-0.9,1.3-1.6,1.9-1.9c0.6-0.4,1.4-0.6,2.3-0.6c1,0,1.7,0.2,2.3,0.6c0.6,0.4,1,1,1.4,1.9
	c0.7-1,1.4-1.6,2-2c0.6-0.3,1.3-0.5,2.2-0.5c1.3,0,2.3,0.5,3.1,1.4c0.7,0.9,1.1,2.4,1.1,4.4v9.3h-4.7v-8.4c0-0.7-0.1-1.2-0.3-1.5
	c-0.3-0.5-0.7-0.8-1.2-0.8c-0.6,0-1,0.3-1.3,0.7c-0.3,0.5-0.5,1.3-0.5,2.3v7.7h-4.7v-8.2c0-0.7,0-1.1-0.1-1.3
	c-0.1-0.4-0.3-0.7-0.5-0.9c-0.3-0.2-0.5-0.3-0.9-0.3c-0.6,0-1,0.3-1.3,0.7c-0.3,0.5-0.5,1.3-0.5,2.4v7.6h-4.7L208.2,69.5L208.2,69.5
	z"/>
<path fill="#070404" d="M64.7,71.7c0.1-2.3,0.1-4.6,0.1-6.9c2.5-2.9,4.9-5.9,7.3-8.8c0.1-4.1,0.2-8.1,0.2-12.2
	c2.1,1.5,4.2,3,6.3,4.6c0-3.2,0-6.4,0-9.7c-3.2-3.5-6.3-7-9.5-10.5c-0.1,0-0.3-0.1-0.4-0.1c-3.3,3.6-6.5,7.2-9.8,10.8
	c0,3.2,0,6.3,0,9.5c2.4-1.6,4.8-3.1,7.1-4.7c0,3.3,0,6.6,0,9.9c-2.7,2.8-5.4,5.6-8.1,8.4c-2.6,0-5.3,0.1-8,0.1c0,3.2,0,6.4,0,9.6
	C54.9,71.7,59.8,71.7,64.7,71.7L64.7,71.7z"/>
<path fill="#070404" d="M57.2,59.7c0-3.7,0-7.4,0-11.1c-2.4,0-4.8,0-7.3,0c0,3.7,0,7.4,0,11.1C52.4,59.7,54.8,59.7,57.2,59.7
	L57.2,59.7z"/>
<path fill="#070404" d="M57.2,45.7c0-3.7,0-7.4,0-11.1c-2.4,0-4.8,0-7.3,0c0,3.7,0,7.4,0,11.1C52.4,45.7,54.8,45.7,57.2,45.7
	L57.2,45.7z"/>
</svg>
