<?xml version="1.0" encoding="utf-8"?>
<!-- Generator: Adobe Illustrator 18.1.1, SVG Export Plug-In . SVG Version: 6.00 Build 0)  -->
<svg version="1.1" id="图层_1" xmlns="http://www.w3.org/2000/svg" xmlns:xlink="http://www.w3.org/1999/xlink" x="0px" y="0px"
	 width="331" height="100" enable-background="new 0 0 331 100" xml:space="preserve">
<path fill="none" stroke="#FFFFFF" stroke-width="1.085" stroke-miterlimit="2.4142" d="M324.5,13.7v71.9c0,4.8-4.3,8.7-9.5,8.7
	H17.4c-5.3,0-9.5-3.9-9.5-8.7V13.7c0-4.8,4.3-8.7,9.5-8.7H315C320.2,5.1,324.5,9,324.5,13.7z"/>
<rect y="-0.6" fill="#2D3081" stroke="#231815" stroke-width="0.216" stroke-miterlimit="2.4142" width="332.3" height="100.6"/>
<path fill="#FFFFFF" d="M316.6,92.9H15.8c-4.4,0-7.9-3.5-7.9-7.9V14.4c0-4.4,3.5-7.9,7.9-7.9h300.8c4.4,0,7.9,3.5,7.9,7.9v70.7
	C324.5,89.4,321,92.9,316.6,92.9z"/>
<path fill="#2D3081" stroke="#231815" stroke-width="0.216" stroke-miterlimit="2.4142" d="M315.3,90.3H17.5c-3.8,0-6.8-3.1-6.8-6.8
	V15.6c0-3.8,3.1-6.8,6.8-6.8h297.8c3.8,0,6.8,3.1,6.8,6.8v67.9C322.1,87.3,319.1,90.3,315.3,90.3z"/>
<polygon fill="#F4AB1C" points="64.4,9.9 104.3,49.4 64.4,88.8 24.4,49.4 "/>
<path fill="#FFFFFF" d="M136.9,39.7l6.5-0.1v11.7l-13.5-0.1v5.4l5.9-0.1H156l6.1,0.1v-5.4l-13.2,0.1V39.6h5.4l4.7,0.1v-5.3
	l-12.2,0.1l-9.3-0.1c0.4-1.3,0.7-2.4,0.9-3.3c0.2-0.9,0.4-2.1,0.6-3.5h14.9l7.3,0.1v-5.5l-7.2,0.1h-14.2c0-0.7,0.1-1.5,0.2-2.3
	c0.3-1.8,0.4-3.1,0.4-3.9c-2.3-0.3-4.4-0.6-6.1-0.9l-0.2,7.1h-8.8l-4.7-0.1v5.5l4.6-0.1h8c-0.5,4.1-1.7,8.1-3.5,12.2
	c-1.3,2.8-2.9,5.3-4.9,7.5c-1.9,1.8-3.8,3.2-5.7,4.2c1.6,1.3,3,2.8,4.4,4.6c2.2-1.8,4.4-4,6.6-6.6c2.9-3.7,5.2-8,6.9-13.1
	L136.9,39.7L136.9,39.7z M166.4,36.3c2.1-0.1,3.9-0.1,5.5-0.1v13.1c-1.6,0.7-3.3,1.5-5.2,2.2l1.8,6.6c2.5-2.9,4.7-4.5,6.5-4.7h0.1
	c0.3,0,1.3,0.9,3.2,2.8c1.8,1.6,5.5,2.3,11.1,2.3c7.8,0.1,14,0.1,18.8,0c0.2-2,0.7-3.9,1.4-5.7c-16.1,0.9-25.4,0.7-28.1-0.7
	c-1-0.5-2.4-1.6-4.4-3.4l0.1-17.7h-10.8L166.4,36.3L166.4,36.3z M174.2,26.8c0.7-0.7,1.4-1.5,2.2-2.1c0.2-0.3,0.5-0.6,0.8-0.8
	c0.1-0.1,0.3-0.2,0.5-0.4l-5.7-7.2c-2.1,1.6-3.7,2.8-4.8,3.6c1.8,2,3.8,4.6,6.2,7.8C173.6,27.3,173.8,27,174.2,26.8L174.2,26.8z
	 M177.9,21.2v5.2l12.1-0.1c-0.1,0.7-0.3,1.3-0.4,2l-9-0.2l0.1,23.2c9.4-0.3,17.8-0.3,25.1,0c-0.3-8.2-0.3-15.9-0.1-23.1
	c-2.5,0.1-6.1,0.1-10.7,0.1l0.6-2c6.7,0,11,0,13.1,0.1v-5.2l-8.6,0.1c0.7-0.9,1.6-2.1,2.5-3.6c-1-0.4-2.7-1.2-5-2.4
	c-1.2,2-2.2,3.7-3.4,5.2l1.7,0.9h-7.8c0.6-0.4,1.2-0.9,1.9-1.2c-0.7-0.9-2.1-2.5-4.1-4.8c-1.2,0.7-2.7,1.5-4.6,2.4l3.2,3.6
	L177.9,21.2L177.9,21.2z M200.4,44.5v2h-14.2v-2H200.4L200.4,44.5z M186.2,40.7v-2h14.2v2H186.2L186.2,40.7z M186.2,34.7
	c0-0.7,0-1.3,0-2h14.2v2H186.2L186.2,34.7z M222.7,51.5c-4.5,0.4-7.4,0.6-9,0.6c1,2.2,1.6,4.2,2.1,5.9c3.1-0.6,9.6-1.8,19.8-3.5
	c0.1-1.6,0.3-2.9,0.5-3.8c0,0,0-0.1,0.1-0.4c0-0.1,0.1-0.3,0.1-0.6c0-0.1,0-0.2,0.1-0.4c-1.9,0.4-4,0.8-6.1,1.2
	c-0.8,0.1-1.5,0.2-2.3,0.4v-4.2c2.5,0,5,0,7.5,0.1v-5.2l-7.5,0.1c0-0.8,0-2.3,0.1-4.5h-5.5l0.1,4.5l-7.6-0.1v5.2
	c2.5-0.1,5-0.1,7.6-0.1L222.7,51.5L222.7,51.5z M215,26.4c2.4-0.1,5-0.1,7.7-0.1v5.2l-8.8-0.1v5.1c8.1-0.3,15.5-0.3,22.3,0v-5.1
	l-8.2,0.1v-5.2c2.8,0,5.3,0,7.4,0.1v-5l-7.4,0.1c0-1.6,0-3.6,0.1-5.8h-5.5l0.1,5.8l-7.7-0.1V26.4L215,26.4z M236.5,31.8l10.2-0.1
	l0,20.5c-0.2,0.4-1,0.6-2.5,0.6c-0.6,0-1.4-0.1-2.5-0.2c0.9,1.8,1.4,3.7,1.7,5.7c1.9,0,3.9-0.3,6.1-0.7c1.3-0.3,2.1-0.9,2.5-1.8
	l0.1-24.2l4.8,0.1v-5.1l-4.8,0.1l0.1-11.2h-5.7l0.1,11.2l-10.2-0.1L236.5,31.8L236.5,31.8z M236.4,37.2c1.5,2.9,2.6,6,3.5,9.2l3.9-2
	c0,0,0.5-0.1,1.3-0.5l-3.9-8.5c-1.2,0.6-2.5,1-3.8,1.4C237,37,236.6,37.1,236.4,37.2L236.4,37.2z M263.8,24.3
	c0.3,11.1,0.3,22.2,0,33.4h5.7l-0.2-28.5c0-1.6,0.1-3.3,0.2-4.8L263.8,24.3L263.8,24.3z M270.9,15.3c-1.3,1-2.8,2-4.5,3.1
	c2.2,2.5,4,4.7,5.5,6.8c1.3-1.2,2.8-2.3,4.4-3.4C275.1,20.3,273.3,18.2,270.9,15.3L270.9,15.3z M282.5,49.4c0,0.6-0.1,0.9-0.5,1
	c-0.9,0.2-2.2,0.2-3.8,0.1c0.9,2.4,1.4,4.2,1.6,5.6c3.1,0,5.5-0.4,6.9-1.3c0.8-0.5,1.3-1.2,1.3-2.2V34.4l7.1,0.1v-5.1l-7.1,0.1
	l0.1-5.3h-5.7l0.1,5.3l-12-0.1v5l9.5-0.1c-2.7,5.1-6.3,8.8-10.7,11.3c1.6,1.9,2.7,3.5,3.4,4.7c3.3-2.5,6.6-5.8,9.7-9.9V49.4
	L282.5,49.4z M277.4,17.5v5.2c1.7-0.1,7.9-0.1,18.6-0.2v28.8c0,0.4-0.1,0.6-0.2,0.8c-0.3,0.4-1.8,0.4-4.4,0.2
	c0.6,1.8,1.2,3.7,1.6,5.8c3.5-0.1,6-0.6,7.4-1.5c0.8-0.4,1.2-1.2,1.2-2.3l0.1-36.9L277.4,17.5L277.4,17.5z"/>
<path fill="#070404" d="M64.8,71.2c0.1-2.3,0.1-4.7,0.1-6.9c2.5-2.9,4.9-5.9,7.3-8.8c0.1-4.1,0.2-8.2,0.2-12.2
	c2.1,1.5,4.2,3.1,6.3,4.6c0-3.2,0-6.4,0-9.7c-3.2-3.5-6.3-7-9.5-10.5c-0.1,0-0.3-0.1-0.4-0.1c-3.3,3.6-6.5,7.2-9.8,10.8
	c0,3.2,0,6.3,0,9.5c2.4-1.6,4.8-3.1,7.2-4.7c0,3.3,0,6.6,0,9.9c-2.7,2.8-5.4,5.6-8.2,8.4c-2.6,0-5.3,0.1-8,0.1c0,3.2,0,6.4,0,9.6
	C55,71.2,59.9,71.2,64.8,71.2L64.8,71.2z"/>
<path fill="#070404" d="M57.3,59.1c0-3.7,0-7.4,0-11.1c-2.4,0-4.8,0-7.3,0c0,3.7,0,7.4,0,11.1C52.4,59.1,54.9,59.1,57.3,59.1
	L57.3,59.1z"/>
<path fill="#070404" d="M57.3,45.2c0-3.7,0-7.4,0-11.1c-2.4,0-4.8,0-7.3,0c0,3.7,0,7.4,0,11.1C52.4,45.2,54.9,45.2,57.3,45.2
	L57.3,45.2z"/>
<g>
	<path fill="#FFFFFF" d="M180,75.6c0.7,0.6,1.3,1.2,1.6,1.9c0.4,0.7,0.6,1.5,0.6,2.5c0,1.4-0.6,2.6-1.8,3.6c-1.2,1-2.8,1.5-4.7,1.5
		c-1.5,0-2.9-0.3-4.3-1c-1.4-0.7-2.5-1.6-3.3-2.8l2.8-2c0.4,0.6,1,1.2,1.9,1.6c0.9,0.5,2,0.7,3.1,0.7c1.2,0,1.9-0.2,2.3-0.7
		c0.4-0.4,0.6-0.9,0.6-1.3c0-0.6-0.3-1.1-0.9-1.6c-0.6-0.5-1.3-0.7-2.2-0.7c-0.2,0-0.3,0-0.5,0v-3.5h1.4c0.3,0,0.6-0.1,0.9-0.4
		s0.4-0.7,0.4-1.1s-0.3-0.8-0.8-1.1c-0.5-0.3-1.2-0.4-2-0.4c-1.6,0-2.8,0.5-3.8,1.5L169,70c0.8-0.9,1.8-1.5,2.9-2
		c1.1-0.4,2.2-0.7,3.4-0.7c1.8,0,3.2,0.5,4.4,1.4c1.2,0.9,1.8,2.1,1.8,3.5C181.4,73.7,180.9,74.8,180,75.6z"/>
	<path fill="#FFFFFF" d="M193.2,67.3c2.1,0,3.8,0.8,5.2,2.4c1.4,1.6,2.1,3.8,2.1,6.5c0,2.7-0.7,4.9-2,6.5c-1.3,1.6-3.1,2.4-5.4,2.4
		c-2.3,0-4.1-0.8-5.4-2.4c-1.3-1.6-2-3.8-2-6.5s0.7-5,2-6.6C189.1,68.1,190.9,67.3,193.2,67.3z M193.3,81.7c1.1,0,2-0.5,2.6-1.6
		c0.7-1,1-2.4,1-4.2s-0.3-3.1-0.9-3.9c-0.6-0.9-1.6-1.3-2.9-1.3c-2.6,0-3.9,1.9-3.9,5.5c0,1.8,0.4,3.1,1.1,4
		C191,81.3,192,81.7,193.3,81.7z"/>
	<path fill="#FFFFFF" d="M211.4,67.3c2.1,0,3.8,0.8,5.2,2.4c1.4,1.6,2.1,3.8,2.1,6.5c0,2.7-0.7,4.9-2,6.5c-1.3,1.6-3.1,2.4-5.4,2.4
		c-2.3,0-4.1-0.8-5.4-2.4c-1.3-1.6-2-3.8-2-6.5s0.7-5,2-6.6C207.3,68.1,209.1,67.3,211.4,67.3z M211.6,81.7c1.1,0,2-0.5,2.6-1.6
		c0.7-1,1-2.4,1-4.2s-0.3-3.1-0.9-3.9c-0.6-0.9-1.6-1.3-2.9-1.3c-2.6,0-3.9,1.9-3.9,5.5c0,1.8,0.4,3.1,1.1,4
		C209.2,81.3,210.3,81.7,211.6,81.7z"/>
	<path fill="#FFFFFF" d="M243.3,85h-3.5v-7.9c0-0.6-0.2-1-0.7-1.5c-0.4-0.4-1-0.6-1.6-0.6s-1.1,0.2-1.6,0.6
		c-0.4,0.4-0.6,0.9-0.6,1.5V85H232v-7.9c0-0.5-0.2-1-0.6-1.4c-0.4-0.4-0.9-0.6-1.6-0.6s-1.2,0.2-1.7,0.6c-0.4,0.4-0.7,0.9-0.7,1.4
		V85H224V71.9h3.5v0.8c1-0.7,2.1-1,3.3-1c1.5,0,2.6,0.5,3.5,1.5c1.2-1,2.5-1.5,3.9-1.5s2.6,0.4,3.6,1.3c1,0.9,1.5,1.9,1.5,3.1
		L243.3,85L243.3,85z"/>
</g>
</svg>
