<?xml version="1.0" encoding="utf-8"?>
<!-- Generator: Adobe Illustrator 18.1.1, SVG Export Plug-In . SVG Version: 6.00 Build 0)  -->
<svg version="1.1" id="图层_1" xmlns="http://www.w3.org/2000/svg" xmlns:xlink="http://www.w3.org/1999/xlink" x="0px" y="0px"
	 width="331" height="100" enable-background="new 0 0 331 100" xml:space="preserve">
<path fill="none" stroke="#FFFFFF" stroke-width="1.085" stroke-miterlimit="2.4142" d="M322.3,14.2v71.2c0,4.7-4.2,8.6-9.4,8.6
	H18.1c-5.2,0-9.4-3.9-9.4-8.6V14.2c0-4.7,4.2-8.6,9.4-8.6h294.9C318.1,5.6,322.3,9.5,322.3,14.2z"/>
<rect x="0.8" fill="#2D3081" stroke="#231815" stroke-width="0.216" stroke-miterlimit="2.4142" width="329.3" height="99.7"/>
<path fill="#FFFFFF" d="M314.6,92.7H16.4c-4.3,0-7.8-3.5-7.8-7.8v-70c0-4.3,3.5-7.8,7.8-7.8h298.1c4.3,0,7.8,3.5,7.8,7.8v70
	C322.3,89.2,318.9,92.7,314.6,92.7z"/>
<path fill="#2D3081" stroke="#231815" stroke-width="0.216" stroke-miterlimit="2.4142" d="M313.3,90.1H18.1c-3.7,0-6.8-3-6.8-6.8
	V16.1c0-3.7,3-6.8,6.8-6.8h295.1c3.7,0,6.8,3,6.8,6.8v67.3C320,87.1,317,90.1,313.3,90.1z"/>
<polygon fill="#F4AB1C" points="64.6,10.4 104.2,49.6 64.6,88.7 25,49.6 "/>
<path fill="#FFFFFF" d="M136.5,39.9l6.5-0.1v11.6l-13.4-0.1v5.4l5.8-0.1h20l6,0.1v-5.3l-13.1,0.1V39.9h5.3l4.7,0.1v-5.3l-12.1,0.1
	l-9.2-0.1c0.4-1.3,0.7-2.4,0.9-3.3c0.2-0.9,0.4-2.1,0.6-3.4h14.8l7.2,0.1v-5.4l-7.2,0.1h-14c0-0.7,0.1-1.5,0.2-2.3
	c0.3-1.8,0.4-3.1,0.4-3.9c-2.3-0.3-4.4-0.6-6.1-0.8l-0.2,7h-8.7l-4.7-0.1v5.4l4.5-0.1h8c-0.5,4-1.7,8-3.5,12.1
	c-1.3,2.8-2.9,5.3-4.9,7.4c-1.8,1.8-3.7,3.2-5.7,4.2c1.6,1.3,3,2.8,4.3,4.5c2.2-1.8,4.4-4,6.5-6.5c2.9-3.7,5.2-8,6.9-13L136.5,39.9
	L136.5,39.9z M165.7,36.6c2.1-0.1,3.9-0.1,5.4-0.1v13c-1.6,0.7-3.3,1.4-5.2,2.1l1.7,6.5c2.5-2.9,4.6-4.5,6.4-4.7h0.1
	c0.3,0,1.3,0.9,3.2,2.7c1.8,1.6,5.5,2.3,11,2.3c7.7,0.1,13.9,0.1,18.7,0c0.2-2,0.7-3.9,1.4-5.6c-15.9,0.9-25.2,0.7-27.9-0.7
	c-1-0.5-2.4-1.6-4.3-3.4l0.1-17.5h-10.7L165.7,36.6L165.7,36.6z M173.4,27.2c0.7-0.7,1.4-1.4,2.1-2.1c0.2-0.3,0.5-0.6,0.8-0.8
	c0.1-0.1,0.3-0.2,0.5-0.4l-5.7-7.1c-2.1,1.6-3.6,2.8-4.7,3.5c1.7,2,3.8,4.6,6.2,7.7C172.8,27.7,173.1,27.4,173.4,27.2L173.4,27.2z
	 M177.1,21.6v5.2l12-0.1c-0.1,0.7-0.3,1.3-0.4,2l-8.9-0.2l0.1,23c9.3-0.3,17.6-0.3,24.9,0c-0.3-8.2-0.3-15.8-0.1-22.9
	c-2.5,0.1-6,0.1-10.6,0.1l0.6-2c6.6,0,10.9,0,13,0.1v-5.2l-8.5,0.1c0.7-0.9,1.6-2.1,2.5-3.6c-1-0.4-2.7-1.2-4.9-2.4
	c-1.1,2-2.2,3.7-3.3,5.1l1.7,0.8h-7.7c0.6-0.4,1.2-0.8,1.9-1.2c-0.7-0.9-2.1-2.5-4-4.8c-1.1,0.7-2.7,1.5-4.5,2.4l3.2,3.6L177.1,21.6
	L177.1,21.6z M199.4,44.7v2h-14v-2H199.4L199.4,44.7z M185.4,40.9v-2h14v2H185.4L185.4,40.9z M185.4,35c0-0.7,0-1.3,0-2h14.1v2
	H185.4L185.4,35z M221.5,51.7c-4.4,0.4-7.4,0.6-8.9,0.6c1,2.2,1.6,4.1,2.1,5.9c3-0.6,9.6-1.8,19.6-3.4c0.1-1.6,0.3-2.9,0.5-3.7
	c0,0,0-0.1,0.1-0.4c0-0.1,0.1-0.3,0.1-0.6c0-0.1,0-0.2,0.1-0.4c-1.9,0.4-3.9,0.8-6.1,1.1c-0.8,0.1-1.5,0.2-2.3,0.4v-4.1
	c2.5,0,4.9,0,7.4,0.1v-5.2l-7.4,0.1c0-0.8,0-2.3,0.1-4.5h-5.4l0.1,4.5l-7.6-0.1v5.2c2.5-0.1,5-0.1,7.6-0.1L221.5,51.7L221.5,51.7z
	 M213.9,26.8c2.4-0.1,4.9-0.1,7.6-0.1v5.1l-8.7-0.1v5.1c8-0.3,15.4-0.3,22.1,0v-5.1l-8.1,0.1v-5.1c2.8,0,5.2,0,7.4,0.1v-4.9
	l-7.4,0.1c0-1.6,0-3.5,0.1-5.8h-5.4l0.1,5.8l-7.6-0.1V26.8L213.9,26.8z M235.2,32.1l10.1-0.1l0,20.3c-0.2,0.4-1,0.6-2.4,0.6
	c-0.6,0-1.4-0.1-2.4-0.2c0.8,1.8,1.4,3.7,1.7,5.7c1.9,0,3.9-0.3,6-0.7c1.3-0.3,2.1-0.9,2.5-1.7l0.1-24l4.8,0.1v-5l-4.8,0.1l0.1-11.1
	h-5.6l0.1,11.1l-10.1-0.1L235.2,32.1L235.2,32.1z M235.1,37.5c1.5,2.9,2.6,5.9,3.4,9.2l3.9-2c0,0,0.5-0.1,1.3-0.5l-3.8-8.5
	c-1.2,0.6-2.4,1-3.8,1.4C235.6,37.3,235.3,37.4,235.1,37.5L235.1,37.5z M262.2,24.7c0.3,11,0.3,22,0,33.1h5.6l-0.2-28.3
	c0-1.6,0.1-3.2,0.2-4.8L262.2,24.7L262.2,24.7z M269.3,15.8c-1.3,1-2.8,2-4.4,3.1c2.2,2.4,4,4.7,5.4,6.8c1.3-1.2,2.7-2.3,4.3-3.4
	C273.4,20.8,271.7,18.6,269.3,15.8L269.3,15.8z M280.8,49.6c0,0.6-0.1,0.9-0.5,1c-0.9,0.2-2.2,0.2-3.8,0.1c0.8,2.4,1.4,4.2,1.6,5.6
	c3.1,0,5.4-0.4,6.9-1.3c0.8-0.5,1.3-1.2,1.3-2.1V34.7l7,0.1v-5l-7,0.1l0.1-5.2h-5.6l0.1,5.2l-11.9-0.1v5l9.4-0.1
	c-2.7,5-6.2,8.7-10.6,11.2c1.6,1.9,2.7,3.5,3.4,4.7c3.3-2.5,6.5-5.8,9.6-9.8V49.6L280.8,49.6z M275.8,18v5.2
	c1.7-0.1,7.8-0.1,18.5-0.2v28.6c0,0.4-0.1,0.6-0.2,0.8c-0.3,0.4-1.8,0.4-4.4,0.2c0.6,1.7,1.1,3.7,1.6,5.8c3.5-0.1,5.9-0.6,7.3-1.4
	c0.8-0.4,1.2-1.2,1.2-2.3l0.1-36.6L275.8,18L275.8,18z"/>
<path fill="#070404" d="M65.1,71.2c0.1-2.3,0.1-4.6,0.1-6.9c2.4-2.9,4.8-5.9,7.2-8.7c0.1-4.1,0.2-8.1,0.2-12.1
	c2.1,1.5,4.2,3,6.2,4.5c0-3.2,0-6.4,0-9.6c-3.1-3.5-6.3-7-9.4-10.4c-0.1,0-0.3-0.1-0.4-0.1c-3.2,3.5-6.5,7.1-9.7,10.7
	c0,3.1,0,6.3,0,9.4c2.4-1.6,4.7-3.1,7.1-4.7c0,3.2,0,6.5,0,9.8c-2.7,2.8-5.4,5.5-8.1,8.3c-2.6,0-5.3,0.1-7.9,0.1c0,3.2,0,6.3,0,9.6
	C55.3,71.2,60.2,71.2,65.1,71.2L65.1,71.2z"/>
<path fill="#070404" d="M57.6,59.2c0-3.7,0-7.3,0-11c-2.4,0-4.8,0-7.2,0c0,3.7,0,7.3,0,11C52.8,59.2,55.2,59.2,57.6,59.2L57.6,59.2z
	"/>
<path fill="#070404" d="M57.6,45.4c0-3.7,0-7.3,0-11c-2.4,0-4.8,0-7.2,0c0,3.7,0,7.3,0,11C52.8,45.4,55.2,45.4,57.6,45.4L57.6,45.4z
	"/>
</svg>
