<?xml version="1.0" encoding="utf-8"?>
<!-- Generator: Adobe Illustrator 18.1.1, SVG Export Plug-In . SVG Version: 6.00 Build 0)  -->
<svg version="1.1" id="图层_1" xmlns="http://www.w3.org/2000/svg" xmlns:xlink="http://www.w3.org/1999/xlink" x="0px" y="0px"
	 width="331" height="100" enable-background="new 0 0 331 100" xml:space="preserve">
<path fill="none" stroke="#FFFFFF" stroke-width="1.085" stroke-miterlimit="2.4142" d="M322.3,14.6v71.2c0,4.7-4.2,8.6-9.4,8.6
	H18.1c-5.2,0-9.4-3.9-9.4-8.6V14.6c0-4.7,4.2-8.6,9.4-8.6h294.7C318,6,322.3,9.8,322.3,14.6z"/>
<rect x="0.9" y="0.3" fill="#2D3081" stroke="#231815" stroke-width="0.216" stroke-miterlimit="2.4142" width="329.2" height="99.7"/>
<path fill="#FFFFFF" d="M314.5,93h-298c-4.3,0-7.8-3.5-7.8-7.8V15.2c0-4.3,3.5-7.8,7.8-7.8h297.9c4.3,0,7.8,3.5,7.8,7.8v70
	C322.3,89.5,318.8,93,314.5,93z"/>
<path fill="#2D3081" stroke="#231815" stroke-width="0.216" stroke-miterlimit="2.4142" d="M313.2,90.4h-295c-3.7,0-6.8-3-6.8-6.8
	V16.4c0-3.7,3-6.8,6.8-6.8h295c3.7,0,6.8,3,6.8,6.8v67.3C319.9,87.4,316.9,90.4,313.2,90.4z"/>
<polygon fill="#F4AB1C" points="64.9,11.4 104.4,50.3 64.9,89.4 25.4,50.3 "/>
<path fill="#FFFFFF" d="M120.9,45.2h6.1c0-0.2-0.1-0.4-0.1-0.7h10v9.2l-0.2,5.3h6.6l-0.2-5.3v-9.2h10.2c0,0.2,0,0.4,0,0.7h6.2
	l-0.1-5.5V29.8l0.1-4.6l-4.8,0.2h-11.5c0-3.1,0.1-5.9,0.2-8.4h-6.5l0.2,8.4h-11.3l-4.8-0.2l0.1,4.6v10.1L120.9,45.2L120.9,45.2z
	 M126.9,38.9v-8.1h10v8.1H126.9L126.9,38.9z M153.3,38.9h-10.2v-8.1h10.2V38.9L153.3,38.9z M173.6,26.4h-5.8
	c0.3,11.5,0.3,22.1,0,31.9h5.8c-0.1-2.3-0.1-11.3-0.2-27.2C173.4,29.5,173.4,28,173.6,26.4L173.6,26.4z M174.9,17.3
	c-0.2-0.1-0.4-0.3-0.7-0.6c-0.4,0.4-1.5,1.4-3.2,3c-0.2,0.2-0.5,0.4-0.8,0.6c1.7,1.2,3.8,3.2,6.1,6c0,0,0.1,0.1,0.2,0.2
	c1.1-1.5,2.3-2.9,3.7-4C179.4,21.6,177.6,19.9,174.9,17.3L174.9,17.3z M196.8,28.4h-19.4v22.7c6-0.2,12.4-0.2,19.4,0
	C196.6,42.6,196.6,35,196.8,28.4L196.8,28.4z M182.7,46.4v-4.2h8.7v4.2H182.7L182.7,46.4z M182.7,37.6V33h8.7v4.6H182.7L182.7,37.6z
	 M206.7,19H182v4.8l19.3-0.1l0,28.8c0,0.4-0.2,0.6-0.4,0.8c-0.4,0.1-1.8,0.1-4.1,0.2c0.7,2.3,1.2,4.1,1.4,5.6c2.7,0,4.9-0.4,6.7-1.2
	c0.8-0.4,1.3-0.9,1.5-1.5c0.1-0.4,0.2-11.1,0.2-32L206.7,19L206.7,19z M221.4,52.5c-4.4,0.4-7.4,0.6-8.9,0.6c1,2.2,1.6,4.1,2.1,5.9
	c3-0.6,9.5-1.8,19.5-3.4c0.1-1.6,0.3-2.9,0.5-3.7c0,0,0-0.1,0.1-0.4c0-0.1,0.1-0.3,0.1-0.6c0-0.1,0-0.2,0.1-0.4
	c-1.9,0.4-3.9,0.8-6.1,1.1c-0.8,0.1-1.5,0.2-2.3,0.4v-4.1c2.5,0,4.9,0,7.4,0.1v-5.2l-7.4,0.1c0-0.8,0-2.3,0.1-4.5h-5.4l0.1,4.5
	l-7.5-0.1V48c2.5-0.1,5-0.1,7.5-0.1L221.4,52.5L221.4,52.5z M213.7,27.7c2.4-0.1,4.9-0.1,7.6-0.1v5.1l-8.7-0.1v5.1
	c8-0.3,15.3-0.3,22,0v-5.1l-8.1,0.1v-5.1c2.8,0,5.2,0,7.4,0.1v-4.9l-7.4,0.1c0-1.6,0-3.5,0.1-5.8h-5.4l0.1,5.8l-7.6-0.1V27.7
	L213.7,27.7z M235,33l10.1-0.1l0,20.3c-0.2,0.4-1,0.6-2.4,0.6c-0.6,0-1.4-0.1-2.4-0.2c0.8,1.8,1.4,3.7,1.7,5.6c1.9,0,3.9-0.3,6-0.7
	c1.3-0.3,2.1-0.9,2.5-1.7l0.1-23.9l4.8,0.1v-5l-4.8,0.1l0.1-11.1H245l0.1,11.1L235,28L235,33L235,33z M234.9,38.4
	c1.5,2.9,2.6,5.9,3.4,9.1l3.9-2c0,0,0.4-0.1,1.3-0.5l-3.8-8.4c-1.2,0.6-2.4,1-3.8,1.4C235.5,38.1,235.1,38.2,234.9,38.4L234.9,38.4z
	 M261.9,25.6c0.3,11,0.3,22,0,33h5.6l-0.2-28.2c0-1.6,0.1-3.2,0.2-4.8H261.9L261.9,25.6z M269,16.7c-1.3,1-2.8,2-4.4,3.1
	c2.2,2.4,4,4.7,5.4,6.8c1.3-1.2,2.7-2.3,4.3-3.4C273.1,21.7,271.4,19.5,269,16.7L269,16.7z M280.5,50.3c0,0.6-0.1,0.9-0.4,1
	c-0.9,0.2-2.2,0.2-3.8,0.1c0.8,2.4,1.4,4.2,1.5,5.6c3.1,0,5.4-0.4,6.9-1.3c0.8-0.5,1.2-1.2,1.2-2.1V35.5l7,0.1v-5l-7,0.1l0.1-5.2
	h-5.6l0.1,5.2l-11.8-0.1v5l9.4-0.1c-2.7,5-6.2,8.7-10.5,11.2c1.5,1.9,2.7,3.4,3.4,4.6c3.3-2.5,6.5-5.8,9.6-9.8L280.5,50.3
	L280.5,50.3z M275.5,18.9V24c1.7-0.1,7.8-0.1,18.4-0.2v28.5c0,0.4-0.1,0.6-0.2,0.8c-0.3,0.4-1.7,0.4-4.4,0.2
	c0.6,1.7,1.1,3.7,1.5,5.8c3.5-0.1,5.9-0.6,7.3-1.4c0.8-0.4,1.2-1.2,1.2-2.3l0.1-36.5L275.5,18.9L275.5,18.9z"/>
<path fill="#FFFFFF" d="M186.2,63.8v20.6h-4.7V70.9c-0.8,0.7-1.5,1.3-2.2,1.7c-0.7,0.4-1.6,0.8-2.7,1.3v-4.6
	c1.6-0.6,2.8-1.4,3.7-2.2c0.9-0.9,1.5-2,2.1-3.2H186.2L186.2,63.8z M191.7,64.1h4.8v10.4l3.5-4.9h5.7l-4.4,5.1l4.6,9.6h-5.2
	l-2.5-5.9l-1.7,2.1v3.8h-4.8V64.1L191.7,64.1z M207.3,69.7h4.4v2.1c0.6-0.9,1.3-1.5,1.9-1.9c0.6-0.4,1.4-0.6,2.3-0.6
	c1,0,1.7,0.2,2.3,0.6c0.6,0.4,1,1,1.4,1.8c0.7-1,1.4-1.6,2-2c0.6-0.3,1.3-0.5,2.2-0.5c1.3,0,2.3,0.5,3.1,1.4
	c0.7,0.9,1.1,2.4,1.1,4.4v9.2h-4.6V76c0-0.7-0.1-1.1-0.3-1.5c-0.3-0.5-0.7-0.8-1.2-0.8c-0.6,0-1,0.3-1.3,0.7
	c-0.3,0.5-0.5,1.3-0.5,2.3v7.6h-4.6v-8.1c0-0.7,0-1.1-0.1-1.3c-0.1-0.4-0.3-0.7-0.5-0.9c-0.3-0.2-0.5-0.3-0.8-0.3
	c-0.5,0-1,0.3-1.3,0.7c-0.3,0.5-0.5,1.3-0.5,2.4v7.5h-4.6V69.7L207.3,69.7z"/>
<path fill="#070404" d="M55,69.8c-0.1-2.1-0.1-4.1-0.1-6.2c-2.2-2.6-4.3-5.2-6.5-7.9c-0.1-3.6-0.1-7.2-0.2-10.8
	c-1.9,1.4-3.7,2.7-5.6,4.1c0-2.9,0-5.7,0-8.6c2.8-3.1,5.6-6.3,8.4-9.4c0.1,0,0.2-0.1,0.4-0.1c2.9,3.2,5.8,6.4,8.7,9.6
	c0,2.8,0,5.6,0,8.5c-2.1-1.4-4.2-2.8-6.3-4.2c0,2.9,0,5.8,0,8.8c2.4,2.5,4.8,4.9,7.3,7.5c2.4,0,4.7,0.1,7.1,0.1c0,2.8,0,5.7,0,8.6
	C63.7,69.8,59.3,69.8,55,69.8L55,69.8z"/>
<path fill="#070404" d="M74.9,69.8c0.1-2.1,0.1-4.1,0.1-6.2c2.2-2.6,4.3-5.2,6.5-7.9c0.1-3.6,0.1-7.2,0.2-10.8
	c1.9,1.4,3.7,2.7,5.6,4.1c0-2.9,0-5.7,0-8.6c-2.8-3.1-5.6-6.3-8.4-9.4c-0.1,0-0.2-0.1-0.4-0.1c-2.9,3.2-5.8,6.4-8.7,9.6
	c0,2.8,0,5.6,0,8.5c2.1-1.4,4.2-2.8,6.3-4.2c0,2.9,0,5.8,0,8.8c-2.4,2.5-4.8,4.9-7.3,7.5c-2.4,0-4.7,0.1-7.1,0.1c0,2.8,0,5.7,0,8.6
	C66.1,69.8,70.5,69.8,74.9,69.8L74.9,69.8z"/>
<path fill="#070404" d="M61.6,59.1c0-3.3,0-6.6,0-9.8c2.1,0,4.3,0,6.5,0c0,3.3,0,6.6,0,9.8C66,59.1,63.8,59.1,61.6,59.1L61.6,59.1z"
	/>
<path fill="#070404" d="M61.6,46.7c0-3.3,0-6.6,0-9.8c2.1,0,4.3,0,6.5,0c0,3.3,0,6.6,0,9.8C66,46.7,63.8,46.7,61.6,46.7L61.6,46.7z"
	/>
</svg>
