<?xml version="1.0" encoding="utf-8"?>
<!-- Generator: Adobe Illustrator 18.1.1, SVG Export Plug-In . SVG Version: 6.00 Build 0)  -->
<svg version="1.1" id="图层_1" xmlns="http://www.w3.org/2000/svg" xmlns:xlink="http://www.w3.org/1999/xlink" x="0px" y="0px"
	 width="331" height="100" enable-background="new 0 0 331 100" xml:space="preserve">
<path fill="none" stroke="#FFFFFF" stroke-width="1.085" stroke-miterlimit="2.4142" d="M323.1,14.3v71.6c0,4.7-4.3,8.6-9.5,8.6
	H17.3c-5.2,0-9.5-3.9-9.5-8.6V14.3c0-4.7,4.3-8.6,9.5-8.6h296.4C318.9,5.7,323.1,9.6,323.1,14.3z"/>
<rect fill="#2D3081" stroke="#231815" stroke-width="0.216" stroke-miterlimit="2.4142" width="331" height="100.2"/>
<path fill="#FFFFFF" d="M315.3,93.2H15.7c-4.3,0-7.9-3.5-7.9-7.9V15c0-4.3,3.5-7.9,7.9-7.9h299.6c4.3,0,7.9,3.5,7.9,7.9v70.4
	C323.1,89.7,319.6,93.2,315.3,93.2z"/>
<path fill="#2D3081" stroke="#231815" stroke-width="0.216" stroke-miterlimit="2.4142" d="M314,90.6H17.4c-3.7,0-6.8-3-6.8-6.8
	V16.1c0-3.7,3-6.8,6.8-6.8H314c3.7,0,6.8,3,6.8,6.8v67.6C320.8,87.5,317.8,90.6,314,90.6z"/>
<polygon fill="#F4AB1C" points="64.4,11.1 104.1,50.3 64.4,89.5 24.7,50.3 "/>
<path fill="#FFFFFF" d="M120.6,45.1h6.2c0-0.2-0.1-0.4-0.1-0.7h10v9.2l-0.2,5.3h6.6l-0.2-5.3v-9.2h10.3c0,0.2,0,0.4,0,0.7h6.3
	l-0.1-5.5V29.6l0.1-4.6l-4.9,0.2H143c0-3.1,0.1-5.9,0.2-8.4h-6.6l0.2,8.4h-11.3l-4.8-0.2l0.1,4.6v10.1L120.6,45.1L120.6,45.1z
	 M126.7,38.8v-8.1h10v8.1H126.7L126.7,38.8z M153.2,38.8h-10.3v-8.1h10.3V38.8L153.2,38.8z M173.6,26.3h-5.8
	c0.3,11.5,0.3,22.2,0,32.1h5.8c-0.1-2.3-0.1-11.4-0.2-27.3C173.4,29.4,173.5,27.8,173.6,26.3L173.6,26.3z M174.9,17.1
	c-0.2-0.1-0.4-0.3-0.7-0.6c-0.4,0.4-1.5,1.4-3.2,3c-0.2,0.2-0.5,0.4-0.8,0.6c1.7,1.2,3.8,3.2,6.1,6.1c0,0,0.1,0.1,0.2,0.2
	c1.1-1.6,2.3-2.9,3.7-4C179.4,21.4,177.6,19.7,174.9,17.1L174.9,17.1z M197,28.2h-19.5v22.9c6-0.2,12.5-0.2,19.5,0
	C196.8,42.5,196.8,34.9,197,28.2L197,28.2z M182.8,46.3v-4.3h8.8v4.3H182.8L182.8,46.3z M182.8,37.5v-4.6h8.8v4.6H182.8L182.8,37.5z
	 M206.9,18.7h-24.8v4.8l19.4-0.1l0,29c0,0.4-0.2,0.6-0.4,0.8c-0.4,0.1-1.8,0.1-4.1,0.2c0.7,2.3,1.2,4.1,1.4,5.6
	c2.7,0,4.9-0.4,6.7-1.2c0.8-0.4,1.3-0.9,1.5-1.6c0.1-0.4,0.2-11.2,0.2-32.2L206.9,18.7L206.9,18.7z M221.7,52.5
	c-4.5,0.4-7.4,0.6-8.9,0.6c1,2.2,1.6,4.2,2.1,5.9c3-0.6,9.6-1.8,19.6-3.4c0.1-1.6,0.3-2.9,0.5-3.7c0,0,0-0.1,0.1-0.4
	c0-0.1,0.1-0.3,0.1-0.6c0-0.1,0-0.2,0.1-0.4c-1.9,0.4-4,0.8-6.1,1.1c-0.8,0.1-1.5,0.2-2.3,0.4v-4.1c2.5,0,5,0,7.5,0.1v-5.2l-7.5,0.1
	c0-0.8,0-2.3,0.1-4.5h-5.4l0.1,4.5l-7.6-0.1v5.2c2.5-0.1,5-0.1,7.6-0.1L221.7,52.5L221.7,52.5z M214,27.5c2.4-0.1,5-0.1,7.7-0.1v5.1
	l-8.8-0.1v5.1c8-0.3,15.4-0.3,22.1,0v-5.1l-8.1,0.1v-5.1c2.8,0,5.3,0,7.4,0.1v-4.9l-7.4,0.1c0-1.6,0-3.6,0.1-5.8h-5.4l0.1,5.8
	l-7.7-0.1V27.5L214,27.5z M235.4,32.9l10.2-0.1l0,20.4c-0.2,0.4-1,0.6-2.4,0.6c-0.6,0-1.4-0.1-2.4-0.2c0.9,1.8,1.4,3.7,1.7,5.7
	c1.9,0,3.9-0.3,6-0.7c1.3-0.3,2.1-0.9,2.5-1.7l0.1-24l4.8,0.1v-5l-4.8,0.1l0.1-11.2h-5.6l0.1,11.2l-10.2-0.1L235.4,32.9L235.4,32.9z
	 M235.3,38.2c1.5,2.9,2.6,6,3.4,9.2l3.9-2c0,0,0.4-0.1,1.3-0.5l-3.9-8.5c-1.2,0.6-2.4,1-3.8,1.4C235.9,38,235.5,38.1,235.3,38.2
	L235.3,38.2z M262.5,25.4c0.3,11,0.3,22.1,0,33.2h5.6l-0.2-28.4c0-1.6,0.1-3.2,0.2-4.8H262.5L262.5,25.4z M269.6,16.5
	c-1.3,1-2.8,2-4.5,3.1c2.2,2.4,4,4.7,5.4,6.8c1.3-1.2,2.7-2.3,4.3-3.4C273.7,21.5,272,19.3,269.6,16.5L269.6,16.5z M281.1,50.3
	c0,0.6-0.1,0.9-0.4,1c-0.9,0.2-2.2,0.2-3.8,0.1c0.9,2.4,1.4,4.2,1.6,5.6c3.1,0,5.4-0.4,6.9-1.3c0.8-0.5,1.2-1.2,1.2-2.2V35.4l7,0.1
	v-5l-7,0.1l0.1-5.2h-5.6l0.1,5.2l-11.9-0.1v5l9.5-0.1c-2.7,5-6.2,8.8-10.6,11.2c1.6,1.9,2.7,3.4,3.4,4.7c3.3-2.5,6.5-5.8,9.6-9.9
	L281.1,50.3L281.1,50.3z M276.1,18.7v5.2c1.7-0.1,7.8-0.1,18.5-0.2v28.6c0,0.4-0.1,0.6-0.2,0.8c-0.3,0.4-1.7,0.4-4.4,0.2
	c0.6,1.7,1.1,3.7,1.6,5.8c3.5-0.1,5.9-0.6,7.3-1.4c0.8-0.4,1.2-1.2,1.2-2.3l0.1-36.7L276.1,18.7L276.1,18.7z"/>
<path fill="#070404" d="M54.3,69.8c-0.1-2.1-0.1-4.2-0.1-6.2c-2.2-2.6-4.3-5.3-6.5-7.9c-0.1-3.6-0.1-7.3-0.2-10.9
	c-1.9,1.4-3.7,2.7-5.6,4.1c0-2.9,0-5.7,0-8.6c2.8-3.2,5.6-6.3,8.5-9.4c0.1,0,0.2-0.1,0.4-0.1c2.9,3.2,5.8,6.4,8.8,9.6
	c0,2.8,0,5.7,0,8.5c-2.1-1.4-4.3-2.8-6.4-4.2c0,2.9,0,5.9,0,8.8c2.4,2.5,4.9,5,7.3,7.5c2.4,0,4.7,0.1,7.2,0.1c0,2.9,0,5.7,0,8.6
	C63.1,69.8,58.7,69.8,54.3,69.8L54.3,69.8z"/>
<path fill="#070404" d="M74.4,69.8c0.1-2.1,0.1-4.2,0.1-6.2c2.2-2.6,4.3-5.3,6.5-7.9c0.1-3.6,0.1-7.3,0.2-10.9
	c1.9,1.4,3.7,2.7,5.6,4.1c0-2.9,0-5.7,0-8.6c-2.8-3.2-5.6-6.3-8.5-9.4c-0.1,0-0.2-0.1-0.4-0.1c-2.9,3.2-5.8,6.4-8.8,9.6
	c0,2.8,0,5.7,0,8.5c2.1-1.4,4.3-2.8,6.4-4.2c0,2.9,0,5.9,0,8.8c-2.4,2.5-4.9,5-7.3,7.5c-2.4,0-4.7,0.1-7.2,0.1c0,2.9,0,5.7,0,8.6
	C65.6,69.8,70,69.8,74.4,69.8L74.4,69.8z"/>
<path fill="#070404" d="M61.1,59.1c0-3.3,0-6.6,0-9.9c2.2,0,4.3,0,6.5,0c0,3.3,0,6.6,0,9.9C65.4,59.1,63.2,59.1,61.1,59.1L61.1,59.1
	z"/>
<path fill="#070404" d="M61.1,46.6c0-3.3,0-6.6,0-9.9c2.2,0,4.3,0,6.5,0c0,3.3,0,6.6,0,9.9C65.4,46.6,63.2,46.6,61.1,46.6L61.1,46.6
	z"/>
<g>
	<path fill="#FFFFFF" d="M179.7,75.9c0.7,0.6,1.3,1.2,1.6,1.9c0.4,0.7,0.6,1.5,0.6,2.5c0,1.4-0.6,2.6-1.8,3.6
		c-1.2,1-2.7,1.5-4.7,1.5c-1.5,0-2.9-0.3-4.3-1c-1.4-0.7-2.4-1.6-3.3-2.8l2.8-2c0.4,0.6,1,1.1,1.9,1.6c0.9,0.5,2,0.7,3.1,0.7
		c1.1,0,1.9-0.2,2.3-0.7s0.6-0.9,0.6-1.3c0-0.6-0.3-1.1-0.9-1.6s-1.3-0.7-2.2-0.7c-0.2,0-0.3,0-0.5,0v-3.4h1.4
		c0.3,0,0.6-0.1,0.9-0.4c0.3-0.3,0.4-0.7,0.4-1.1s-0.3-0.8-0.8-1.1c-0.5-0.3-1.2-0.4-2-0.4c-1.6,0-2.8,0.5-3.7,1.4l-2.5-2.2
		c0.8-0.9,1.8-1.5,2.9-2c1.1-0.4,2.2-0.7,3.4-0.7c1.7,0,3.2,0.5,4.4,1.4c1.1,0.9,1.7,2.1,1.7,3.5C181.1,74,180.7,75.1,179.7,75.9z"
		/>
	<path fill="#FFFFFF" d="M192.8,67.6c2.1,0,3.8,0.8,5.2,2.4c1.4,1.6,2.1,3.8,2.1,6.5s-0.7,4.9-2,6.5c-1.3,1.6-3.1,2.4-5.3,2.4
		c-2.3,0-4-0.8-5.4-2.4c-1.3-1.6-2-3.7-2-6.5s0.7-4.9,2-6.5C188.7,68.4,190.5,67.6,192.8,67.6z M193,82c1.1,0,2-0.5,2.6-1.6
		s1-2.4,1-4.2s-0.3-3-0.9-3.9c-0.6-0.9-1.6-1.3-2.9-1.3c-2.6,0-3.9,1.9-3.9,5.5c0,1.7,0.4,3.1,1.1,4C190.6,81.5,191.7,82,193,82z"/>
	<path fill="#FFFFFF" d="M211,67.6c2.1,0,3.8,0.8,5.2,2.4c1.4,1.6,2.1,3.8,2.1,6.5s-0.7,4.9-2,6.5c-1.3,1.6-3.1,2.4-5.3,2.4
		c-2.3,0-4-0.8-5.4-2.4c-1.3-1.6-2-3.7-2-6.5s0.7-4.9,2-6.5C206.9,68.4,208.7,67.6,211,67.6z M211.1,82c1.1,0,2-0.5,2.6-1.6
		c0.7-1,1-2.4,1-4.2s-0.3-3-0.9-3.9c-0.6-0.9-1.6-1.3-2.9-1.3c-2.6,0-3.9,1.9-3.9,5.5c0,1.7,0.4,3.1,1.1,4
		C208.8,81.5,209.8,82,211.1,82z"/>
	<path fill="#FFFFFF" d="M242.7,85.3h-3.4v-7.9c0-0.6-0.2-1-0.7-1.4c-0.4-0.4-1-0.6-1.6-0.6c-0.6,0-1.1,0.2-1.6,0.6
		c-0.4,0.4-0.6,0.9-0.6,1.4v7.9h-3.4v-7.9c0-0.5-0.2-1-0.6-1.4c-0.4-0.4-0.9-0.6-1.6-0.6s-1.2,0.2-1.7,0.6c-0.4,0.4-0.7,0.9-0.7,1.4
		v7.9h-3.5V72.2h3.5V73c1-0.7,2.1-1,3.3-1c1.4,0,2.6,0.5,3.4,1.5c1.2-1,2.5-1.5,3.9-1.5c1.4,0,2.6,0.4,3.6,1.3c1,0.9,1.5,1.9,1.5,3
		L242.7,85.3L242.7,85.3z"/>
</g>
</svg>
