<?xml version="1.0" encoding="utf-8"?>
<!-- Generator: Adobe Illustrator 18.1.1, SVG Export Plug-In . SVG Version: 6.00 Build 0)  -->
<svg version="1.1" id="图层_1" xmlns="http://www.w3.org/2000/svg" xmlns:xlink="http://www.w3.org/1999/xlink" x="0px" y="0px"
	 width="331" height="100" enable-background="new 0 0 331 100" xml:space="preserve">
<path fill="none" stroke="#FFFFFF" stroke-width="1.085" stroke-miterlimit="2.4142" d="M323.1,14v71.6c0,4.7-4.3,8.6-9.5,8.6H17.3
	c-5.2,0-9.5-3.9-9.5-8.6V14c0-4.7,4.3-8.6,9.5-8.6h296.4C318.9,5.4,323.1,9.3,323.1,14z"/>
<rect y="-0.3" fill="#2D3081" stroke="#231815" stroke-width="0.216" stroke-miterlimit="2.4142" width="331" height="100.2"/>
<path fill="#FFFFFF" d="M315.3,92.9H15.7c-4.3,0-7.9-3.5-7.9-7.9V14.7c0-4.3,3.5-7.9,7.9-7.9h299.6c4.3,0,7.9,3.5,7.9,7.9v70.4
	C323.1,89.4,319.6,92.9,315.3,92.9z"/>
<path fill="#2D3081" stroke="#231815" stroke-width="0.216" stroke-miterlimit="2.4142" d="M314,90.3H17.4c-3.7,0-6.8-3-6.8-6.8
	V15.9c0-3.7,3-6.8,6.8-6.8H314c3.7,0,6.8,3,6.8,6.8v67.6C320.8,87.3,317.8,90.3,314,90.3z"/>
<polygon fill="#F4AB1C" points="64.4,10.8 104.1,50 64.4,89.3 24.7,50 "/>
<path fill="#FFFFFF" d="M120.6,44.9h6.2c0-0.2-0.1-0.4-0.1-0.7h10v9.2l-0.2,5.3h6.6l-0.2-5.3v-9.2h10.3c0,0.2,0,0.4,0,0.7h6.3
	l-0.1-5.5V29.3l0.1-4.6l-4.9,0.2H143c0-3.1,0.1-5.9,0.2-8.4h-6.6l0.2,8.4h-11.3l-4.8-0.2l0.1,4.6v10.1L120.6,44.9L120.6,44.9z
	 M126.7,38.5v-8.1h10v8.1H126.7L126.7,38.5z M153.2,38.5h-10.3v-8.1h10.3V38.5L153.2,38.5z M173.6,26h-5.8c0.3,11.5,0.3,22.2,0,32.1
	h5.8c-0.1-2.3-0.1-11.4-0.2-27.3C173.4,29.1,173.5,27.5,173.6,26L173.6,26z M174.9,16.8c-0.2-0.1-0.4-0.3-0.7-0.6
	c-0.4,0.4-1.5,1.4-3.2,3c-0.2,0.2-0.5,0.4-0.8,0.6c1.7,1.2,3.8,3.2,6.1,6.1c0,0,0.1,0.1,0.2,0.2c1.1-1.6,2.3-2.9,3.7-4
	C179.4,21.1,177.6,19.4,174.9,16.8L174.9,16.8z M197,28h-19.5v22.9c6-0.2,12.5-0.2,19.5,0C196.8,42.2,196.8,34.6,197,28L197,28z
	 M182.8,46.1v-4.3h8.8v4.3H182.8L182.8,46.1z M182.8,37.2v-4.6h8.8v4.6H182.8L182.8,37.2z M206.9,18.5h-24.8v4.8l19.4-0.1l0,29
	c0,0.4-0.2,0.6-0.4,0.8c-0.4,0.1-1.8,0.1-4.1,0.2c0.7,2.3,1.2,4.1,1.4,5.6c2.7,0,4.9-0.4,6.7-1.2c0.8-0.4,1.3-0.9,1.5-1.6
	c0.1-0.4,0.2-11.2,0.2-32.2L206.9,18.5L206.9,18.5z M221.7,52.2c-4.5,0.4-7.4,0.6-8.9,0.6c1,2.2,1.6,4.2,2.1,5.9
	c3-0.6,9.6-1.8,19.6-3.4c0.1-1.6,0.3-2.9,0.5-3.7c0,0,0-0.1,0.1-0.4c0-0.1,0.1-0.3,0.1-0.6c0-0.1,0-0.2,0.1-0.4
	c-1.9,0.4-4,0.8-6.1,1.1c-0.8,0.1-1.5,0.2-2.3,0.4v-4.1c2.5,0,5,0,7.5,0.1v-5.2l-7.5,0.1c0-0.8,0-2.3,0.1-4.5h-5.4l0.1,4.5l-7.6-0.1
	v5.2c2.5-0.1,5-0.1,7.6-0.1L221.7,52.2L221.7,52.2z M214,27.2c2.4-0.1,5-0.1,7.7-0.1v5.1l-8.8-0.1v5.1c8-0.3,15.4-0.3,22.1,0v-5.1
	l-8.1,0.1v-5.1c2.8,0,5.3,0,7.4,0.1v-4.9l-7.4,0.1c0-1.6,0-3.6,0.1-5.8h-5.4l0.1,5.8l-7.7-0.1V27.2L214,27.2z M235.4,32.6l10.2-0.1
	l0,20.4c-0.2,0.4-1,0.6-2.4,0.6c-0.6,0-1.4-0.1-2.4-0.2c0.9,1.8,1.4,3.7,1.7,5.7c1.9,0,3.9-0.3,6-0.7c1.3-0.3,2.1-0.9,2.5-1.7
	l0.1-24l4.8,0.1v-5l-4.8,0.1l0.1-11.2h-5.6l0.1,11.2l-10.2-0.1L235.4,32.6L235.4,32.6z M235.3,38c1.5,2.9,2.6,6,3.4,9.2l3.9-2
	c0,0,0.4-0.1,1.3-0.5l-3.9-8.5c-1.2,0.6-2.4,1-3.8,1.4C235.9,37.7,235.5,37.8,235.3,38L235.3,38z M262.5,25.1
	c0.3,11,0.3,22.1,0,33.2h5.6L267.9,30c0-1.6,0.1-3.2,0.2-4.8H262.5L262.5,25.1z M269.6,16.2c-1.3,1-2.8,2-4.5,3.1
	c2.2,2.4,4,4.7,5.4,6.8c1.3-1.2,2.7-2.3,4.3-3.4C273.7,21.2,272,19,269.6,16.2L269.6,16.2z M281.1,50c0,0.6-0.1,0.9-0.4,1
	c-0.9,0.2-2.2,0.2-3.8,0.1c0.9,2.4,1.4,4.2,1.6,5.6c3.1,0,5.4-0.4,6.9-1.3c0.8-0.5,1.2-1.2,1.2-2.2V35.1l7,0.1v-5l-7,0.1l0.1-5.2
	h-5.6l0.1,5.2l-11.9-0.1v5l9.5-0.1c-2.7,5-6.2,8.8-10.6,11.2c1.6,1.9,2.7,3.4,3.4,4.7c3.3-2.5,6.5-5.8,9.6-9.9L281.1,50L281.1,50z
	 M276.1,18.4v5.2c1.7-0.1,7.8-0.1,18.5-0.2V52c0,0.4-0.1,0.6-0.2,0.8c-0.3,0.4-1.7,0.4-4.4,0.2c0.6,1.7,1.1,3.7,1.6,5.8
	c3.5-0.1,5.9-0.6,7.3-1.4c0.8-0.4,1.2-1.2,1.2-2.3l0.1-36.7L276.1,18.4L276.1,18.4z"/>
<path fill="#070404" d="M54.3,69.5c-0.1-2.1-0.1-4.2-0.1-6.2c-2.2-2.6-4.3-5.3-6.5-7.9c-0.1-3.6-0.1-7.3-0.2-10.9
	c-1.9,1.4-3.7,2.7-5.6,4.1c0-2.9,0-5.7,0-8.6c2.8-3.2,5.6-6.3,8.5-9.4c0.1,0,0.2-0.1,0.4-0.1c2.9,3.2,5.8,6.4,8.8,9.6
	c0,2.8,0,5.7,0,8.5c-2.1-1.4-4.3-2.8-6.4-4.2c0,2.9,0,5.9,0,8.8c2.4,2.5,4.9,5,7.3,7.5c2.4,0,4.7,0.1,7.2,0.1c0,2.9,0,5.7,0,8.6
	C63.1,69.5,58.7,69.5,54.3,69.5L54.3,69.5z"/>
<path fill="#070404" d="M74.4,69.5c0.1-2.1,0.1-4.2,0.1-6.2c2.2-2.6,4.3-5.3,6.5-7.9c0.1-3.6,0.1-7.3,0.2-10.9
	c1.9,1.4,3.7,2.7,5.6,4.1c0-2.9,0-5.7,0-8.6c-2.8-3.2-5.6-6.3-8.5-9.4c-0.1,0-0.2-0.1-0.4-0.1c-2.9,3.2-5.8,6.4-8.8,9.6
	c0,2.8,0,5.7,0,8.5c2.1-1.4,4.3-2.8,6.4-4.2c0,2.9,0,5.9,0,8.8c-2.4,2.5-4.9,5-7.3,7.5c-2.4,0-4.7,0.1-7.2,0.1c0,2.9,0,5.7,0,8.6
	C65.6,69.5,70,69.5,74.4,69.5L74.4,69.5z"/>
<path fill="#070404" d="M61.1,58.8c0-3.3,0-6.6,0-9.9c2.2,0,4.3,0,6.5,0c0,3.3,0,6.6,0,9.9C65.4,58.8,63.2,58.8,61.1,58.8L61.1,58.8
	z"/>
<path fill="#070404" d="M61.1,46.3c0-3.3,0-6.6,0-9.9c2.2,0,4.3,0,6.5,0c0,3.3,0,6.6,0,9.9C65.4,46.3,63.2,46.3,61.1,46.3L61.1,46.3
	z"/>
</svg>
