<?xml version="1.0" encoding="utf-8"?>
<!-- Generator: Adobe Illustrator 18.1.1, SVG Export Plug-In . SVG Version: 6.00 Build 0)  -->
<svg version="1.1" id="图层_1" xmlns="http://www.w3.org/2000/svg" xmlns:xlink="http://www.w3.org/1999/xlink" x="0px" y="0px"
	 width="331" height="100" enable-background="new 0 0 331 100" xml:space="preserve">
<path fill="none" stroke="#FFFFFF" stroke-width="1.085" stroke-miterlimit="2.4142" d="M322.4,14.3v71.4c0,4.7-4.3,8.6-9.5,8.6
	H17.3c-5.2,0-9.5-3.9-9.5-8.6V14.3c0-4.7,4.3-8.6,9.5-8.6H313C318.1,5.7,322.4,9.5,322.4,14.3z"/>
<rect fill="#2D3081" stroke="#231815" stroke-width="0.216" stroke-miterlimit="2.4142" width="330.2" height="100"/>
<path fill="#FFFFFF" d="M314.6,93H15.7c-4.3,0-7.8-3.5-7.8-7.8V15c0-4.3,3.5-7.8,7.8-7.8h298.9c4.3,0,7.8,3.5,7.8,7.8v70.2
	C322.4,89.5,318.9,93,314.6,93z"/>
<path fill="#2D3081" stroke="#231815" stroke-width="0.216" stroke-miterlimit="2.4142" d="M313.3,90.4H17.4c-3.7,0-6.8-3-6.8-6.8
	V16.1c0-3.7,3-6.8,6.8-6.8h295.9c3.7,0,6.8,3,6.8,6.8v67.5C320.1,87.3,317,90.4,313.3,90.4z"/>
<polygon fill="#F4AB1C" points="63.6,10.5 103.1,49.5 63.6,88.5 24.1,49.5 "/>
<path fill="#FFFFFF" d="M117.7,57.6v5.7l19-0.1c0,2.3,0,4.8-0.1,7.3h6c-0.1-1.6-0.1-4-0.2-7.3l17.7,0.1v-5.7l-17.7,0.2v-5.9
	l13.7,0.1v-5.4l-13.7,0.2c0-2.5,0.1-4.6,0.2-6.3h-6c0.1,2.5,0.1,4.6,0.1,6.3h-5.7l5.4-7.8l22.4,0.1v-5.4l-19.8,0.2l2.2-4.6
	c-2.1-0.4-4.1-1-6-1.7c-0.6,2.1-1.5,4.2-2.6,6.3L119,33.7v5.4l11-0.1c-2.5,4.4-5.3,7.4-8.5,9c0.3,1,0.6,2.3,1,3.9h14.3v6L117.7,57.6
	L117.7,57.6z M164.5,52h7.3v5.9c-3.3,1-5.9,1.7-7.7,2c0.7,2.3,1.3,4,1.6,5.3c0.9-0.4,1.7-0.7,2.5-1c1-0.3,2.2-0.7,3.7-1.3l-0.2,7.7
	h5.3l-0.1-9.4c1.3-0.4,2.4-0.8,3.3-1c0-0.9,0.1-2.6,0.3-5.2c-1.1,0.4-2.3,0.8-3.5,1.2v-4.4c1.1,0,2.2,0,3.3,0.1v-4.8
	c-1.1,0-2.3,0-3.3,0c0-1.6,0-3.7,0.1-6.1h-5c0.3-0.9,0.6-1.8,1-2.6c3.9,0,6.4,0,7.5,0.1v-3.3h7.3V40c-2.4,0-4.7,0-6.8-0.1
	c0.3,10.2,0.3,20.5,0,30.7h5.2c-0.1-1.9-0.1-5.9-0.2-12.1c0.8,1.4,1.4,2.4,1.6,3.1c1.3-2.5,2.3-4.8,2.9-6.8c0.4,1.1,0.9,2.3,1.2,3.6
	c0.5-0.4,1.1-1,1.9-1.5c-0.6,1.6-1.1,2.9-1.7,3.9c1,0.9,2.1,2.2,3.4,3.7c1.2-2.9,2.1-5.5,2.7-7.8c0.6,1.3,1.1,2.8,1.6,4.5
	c0.7-0.7,1.4-1.3,2.1-1.8v5.3c0,0.7-0.6,1-1.8,1c-0.7,0-1.5,0-2.6-0.2c1,3.1,1.4,5,1.5,5.6c2.4-0.2,4.3-0.6,5.6-1
	c0.9-0.3,1.5-0.7,1.8-1.1c0.3-0.4,0.4-1.3,0.4-2.4c0-16,0.1-24.9,0.2-26.7c-2.1,0.1-4.4,0.1-7,0.1c0.1-1.6,0.1-3.2,0.1-4.7
	c3.1,0,5.6,0.1,7.4,0.2v-5.1c-10.1,0.2-19.1,0.2-26.9,0v3.3h-5.7l1.4-4.3c-2.3-0.6-4.1-1.1-5.4-1.6l-1.3,5.9l-5.1-0.1v4.9
	c1.1,0,2.3-0.1,3.6-0.1c-1.3,3.7-2.6,6.5-3.8,8.3L164.5,52L164.5,52z M169.3,47.3l2.4-5.9v5.9H169.3L169.3,47.3z M185.8,44.7h1.6
	c0,3.3-0.5,6.6-1.6,9.8V44.7L185.8,44.7z M191.5,49.7c0.2-1.6,0.3-3.3,0.4-5.1h3c-0.2,3.7-0.5,6.7-0.9,8.7c-0.5-1.2-1.1-2.6-1.9-4.1
	C191.9,49.4,191.7,49.6,191.5,49.7L191.5,49.7z M192.1,40.1v-4.7h3.1c0,1.7,0,3.3-0.1,4.7H192.1L192.1,40.1z M199.3,44.7h2.1l0,10.1
	c-0.6-1.3-1.1-2.7-1.8-4.1c-0.3,0.2-0.6,0.4-0.9,0.6L199.3,44.7L199.3,44.7z M216.5,36.2c-1.9,0.1-3.5,0-5-0.2
	c0,7.1-0.2,11.6-0.7,13.6c1.3-0.1,3-0.1,5.1-0.1c0.3-3.1,0.4-6.9,0.4-11.1C216.4,37.6,216.4,36.9,216.5,36.2L216.5,36.2z
	 M217.2,27.9l0,41.8c0,0.3,0,0.6,0,0.9h5.4l-0.1-31.4c0.8,1.4,1.5,3,2.3,4.9c0.8-0.6,1.9-1.4,3.3-2.2c0,0.2,0,0.4,0,0.7l21.5-0.1
	c0.6,0,1.2,0,1.9,0.1c-0.2-5.4-0.2-10.2,0-14.2h-23.6c0.1,3.4,0.2,7.4,0.2,12.1c-0.6-1.7-1.4-3.4-2.6-5.1c-1.1,0.7-2.1,1.3-3,1.6
	l0.1-9L217.2,27.9L217.2,27.9z M233.1,38.9v-1.3h13.2v1.3H233.1L233.1,38.9z M233.1,34c0-0.6,0-1,0-1.5h13.2c0,0.5,0,1,0,1.5H233.1
	L233.1,34z M224.2,66.2c1,1.7,1.8,3.4,2.3,5.2c1.4-0.3,3-0.6,4.9-1c1.4-0.1,4.1-1,8.3-2.7c4.3,1.9,8.5,3,12.7,3.5
	c0.1-0.9,0.7-2.7,1.8-5.3c-4-0.2-7-0.7-9.1-1.4c2.8-2,5.1-4.2,7.1-6.7l-1.5-2.4l-23.9-0.2v4.5c1.6-0.1,3.5-0.1,5.8-0.2
	c-0.4,0.4-1,0.7-1.6,1c0.9,1.1,2.1,2.4,3.6,3.8C231.4,65.6,227.9,66.2,224.2,66.2L224.2,66.2z M243.7,59.7c-1.3,1.1-2.6,2-3.7,2.6
	c-1.3-0.9-2.4-1.7-3.3-2.6H243.7L243.7,59.7z M226,54.1c2-0.1,10.1-0.1,24.4-0.2c1,0,2.1,0.1,3.3,0.2c-0.2-3.8-0.2-7.3,0-10.3
	C243,44,233.8,44,226,43.8C226.2,46.8,226.2,50.2,226,54.1L226,54.1z M231,50.1v-2.3h2.8v2.3H231L231,50.1z M241.5,50.1h-2.9v-2.3
	h2.9V50.1L241.5,50.1z M246,50.1v-2.3h2.7v2.3H246L246,50.1z M264.9,67.2l-0.2,3.9h5.5l-0.1-3.8V47.9l5.7-6.9
	c-0.9-0.4-1.6-0.9-2-1.3c-0.7-0.6-1.7-1.3-2.9-2.3c-1.3,2.7-3.2,5.4-5.7,8.2c-2.7,2.7-5.1,4.7-7.2,5.9c0.6,1.1,1.1,2.1,1.6,2.9
	c0.3,0.6,0.6,1.5,1,2.7l4.5-4V67.2L264.9,67.2z M270.5,27.9c-1.5,1.7-3.4,3.4-5.7,5.1c-2.2,1.5-4.3,2.6-6.2,3.4
	c0.6,0.8,1.1,1.5,1.5,2.2l1.7,2.7c1.7-1,3.4-2.1,5.3-3.5l3.3-2.4l4.3-3.4c-0.8-0.7-1.6-1.3-2.3-2C271.9,29.6,271.3,28.9,270.5,27.9
	L270.5,27.9z M275.4,42.6v5.3l4.2-0.1h8v16c0,0.7-0.2,1.3-0.6,1.6c-0.4,0.1-0.8,0.2-1.2,0.2c-0.6,0-1.4-0.1-2.6-0.3
	c0.8,2.2,1.3,4.1,1.4,5.8c1.3,0,2.2,0,2.8-0.1c1.8-0.2,3.3-0.5,4.4-1c0.7-0.4,1-1,1-2V47.8l8,0.1v-5.3c-1.3,0-2.6,0.1-3.9,0.2h-17.7
	L275.4,42.6L275.4,42.6z M277.4,35.5c1.2-0.1,2.4-0.1,3.6-0.2h14l3.9,0.2v-5.3c-1.3,0-2.6,0.1-3.8,0.2h-14c-1.2-0.1-2.4-0.1-3.7-0.2
	L277.4,35.5L277.4,35.5z"/>
<path fill="#231815" d="M49.6,37.7c-1.6,0.1-3.1,0-4.3-0.2c0,6.2-0.2,10.1-0.6,11.8c1.1-0.1,2.6-0.1,4.5-0.1c0.2-2.8,0.4-6,0.4-9.7
	C49.5,38.9,49.6,38.3,49.6,37.7L49.6,37.7z M50.2,30.5l0,36.6c0,0.2,0,0.5,0,0.8H55l-0.1-27.5c0.7,1.2,1.3,2.6,2,4.3
	c0.7-0.6,1.6-1.2,2.9-1.9c0,0.2,0,0.4,0,0.6l18.8-0.1c0.5,0,1,0,1.6,0.1c-0.1-4.8-0.1-8.9,0-12.4H59.5c0.1,3,0.2,6.5,0.2,10.5
	c-0.5-1.4-1.2-3-2.2-4.5c-1,0.6-1.9,1.1-2.6,1.4l0.1-7.8L50.2,30.5L50.2,30.5z M64.1,40.1V39h11.5v1.1H64.1L64.1,40.1z M64.1,35.8
	c0-0.5,0-0.9,0-1.3h11.5c0,0.4,0,0.9,0,1.3H64.1L64.1,35.8z M56.4,64c0.9,1.4,1.6,3,2,4.6c1.2-0.3,2.7-0.6,4.3-0.9
	c1.2-0.1,3.6-0.9,7.3-2.3c3.8,1.6,7.4,2.6,11.1,3.1c0.1-0.8,0.6-2.4,1.6-4.6c-3.5-0.1-6.1-0.6-7.9-1.2c2.4-1.7,4.5-3.7,6.3-5.8
	l-1.3-2.1l-20.9-0.1v4c1.4-0.1,3-0.1,5.1-0.1c-0.4,0.3-0.9,0.6-1.4,0.8c0.8,1,1.9,2.1,3.1,3.4C62.6,63.4,59.6,63.9,56.4,64L56.4,64z
	 M73.3,58.3c-1.1,1-2.2,1.7-3.2,2.3c-1.1-0.7-2.1-1.5-2.9-2.3H73.3L73.3,58.3z M57.9,53.4c1.8-0.1,8.9-0.1,21.3-0.1
	c0.9,0,1.9,0,2.9,0.1c-0.1-3.3-0.1-6.3,0-9c-9.4,0.2-17.4,0.2-24.2,0C58.1,47,58.1,50,57.9,53.4L57.9,53.4z M62.3,49.9v-2h2.5v2
	H62.3L62.3,49.9z M71.4,49.9h-2.6v-2h2.6V49.9L71.4,49.9z M75.4,49.9v-2h2.3v2H75.4L75.4,49.9z"/>
</svg>
