<?xml version="1.0" encoding="utf-8"?>
<!-- Generator: Adobe Illustrator 18.1.1, SVG Export Plug-In . SVG Version: 6.00 Build 0)  -->
<svg version="1.1" id="图层_1" xmlns="http://www.w3.org/2000/svg" xmlns:xlink="http://www.w3.org/1999/xlink" x="0px" y="0px"
	 width="100" height="100" enable-background="new 0 0 100 100" xml:space="preserve">
<g>
	<path fill="#F4AB1C" d="M10.3,84.4H90L50.1,15.3L10.3,84.4z M66.3,55.8v7.4H51.5v14.2h-8.2V41.5h8.2v14.2H66.3z"/>
	<path fill="#010101" d="M98.3,86.9c0-0.1-0.1-0.3-0.1-0.4c-0.1-0.5-0.3-1-0.5-1.6c0-0.1-0.1-0.1-0.1-0.2c-0.3-0.7-0.6-1.4-1-2.1
		c-0.4-0.7-0.7-1.3-1.2-2L54.1,8.5c-2.3-4.1-6.3-2.5-7.9,0L4,82.3c-0.4,0.7-0.8,1.4-1.1,2.1c-0.1,0.1-0.1,0.3-0.2,0.4
		c-0.4,1.1-0.7,2-0.7,2.9c0,0.2,0,0.4,0,0.6c0,0.6,0.2,1.1,0.5,1.6C2.6,90,2.6,90,2.7,90.1c0.1,0.1,0.2,0.3,0.4,0.4
		c0.3,0.2,0.6,0.4,1,0.6c0.2,0.1,0.4,0.1,0.6,0.2c0.1,0,0.2,0.1,0.3,0.1h89.5c2.1,0,3.3-0.6,3.7-1.7c0-0.1,0.1-0.2,0.1-0.3
		c0-0.1,0-0.1,0.1-0.2C98.6,88.5,98.5,87.8,98.3,86.9z M10.3,84.4l39.8-69.1L90,84.4H10.3z"/>
	<polygon fill="#010101" points="43.3,41.5 43.3,77.4 51.5,77.4 51.5,63.2 66.3,63.2 66.3,55.8 51.5,55.8 51.5,41.5 	"/>
</g>
</svg>
