<?xml version="1.0" encoding="utf-8"?>
<!-- Generator: Adobe Illustrator 18.1.1, SVG Export Plug-In . SVG Version: 6.00 Build 0)  -->
<svg version="1.1" id="图层_1" xmlns="http://www.w3.org/2000/svg" xmlns:xlink="http://www.w3.org/1999/xlink" x="0px" y="0px"
	 width="100" height="100" enable-background="new 0 0 100 100" xml:space="preserve">
<g>
	<path fill="#F4AB1C" d="M4,82.6L46.4,8.5C47.3,7.1,49,6,50.7,6c-1.7,0-3.4,1.1-4.3,2.5L4,82.6c-2.7,4.7-2.8,8.4,1,9.2l0,0
		C1.2,91,1.3,87.2,4,82.6z"/>
	<path fill="#F4AB1C" d="M45.5,78.3l1.5-1.9l-0.5-2.3C45.7,75.3,45.3,76.7,45.5,78.3z"/>
	<path fill="#F4AB1C" d="M10.4,84.7h80l-40-69.4L10.4,84.7z M59.1,55.1c3.8-0.6,7.6-0.5,11.5-0.1c2.2,1.7,3.4,4.9,2.5,11.6
		c1.7,1.6,1.9,3.5,0.6,5.7c-0.5-0.9-1.2,0.7-1.6-2.7l-0.8-3.9l-0.8,2.4l1.3,1.6l0.1,5.2l0.2,2.2l-1.8,3.3l-3-0.2
		c1.4-3.2,1.8-5.9,0.3-7.5l-1.7,4.4l-0.5,2.2L62,79.4c1.5-2.2,2.5-4.3,2-6.5c-1.8,0.8-3.7,0.2-5.5-2.5c-2.5,0.5-4.6,0.5-6.4,0
		c-3.1-0.5-2.1,1.7-3.1,2.6l0.2,4.7c-0.1,2.1-1.4,2.8-3.9,2.2l-4.2,0.2c-0.6-0.3-0.3-0.8,0.3-1.4c1.9-0.6,1.6-4.3,1.8-7.4
		c-2.4-0.4-3.2-1.4-2.2-3.1l-5.6-6.7l-5.6-0.4c-3-1.6-2.9-3,0.4-4.3l2.5-2.9l-3-1.3c4.9-1.2,8.5-1.2,9.1,1.9l8.5,0.8
		C51.8,56.4,55.6,56.1,59.1,55.1z"/>
	<path fill="#010101" d="M95.9,81L54.4,8.5C53.3,6.7,52,6,50.7,6c-1.7,0-3.4,1.1-4.3,2.5L4,82.6c-2.7,4.7-2.8,8.4,1,9.2h89.9l0,0
		C101.4,91.8,98.8,85.4,95.9,81z M10.4,84.7l40-69.4l40,69.4H10.4z"/>
	<path fill="#010101" d="M38.8,54.6c-0.6-3-4.2-3.1-9.1-1.9l3,1.4l-2.5,2.9c-3.3,1.3-3.4,2.7-0.4,4.3l5.6,0.4l5.6,6.7
		c-0.9,1.7-0.2,2.7,2.2,3.1c-0.2,3.1,0.1,6.8-1.8,7.4c-0.6,0.6-0.9,1.1-0.3,1.4l4.2-0.2c2.5,0.6,3.8-0.2,3.9-2.2l-0.2-4.7
		c1-0.9-0.1-3.1,3.1-2.6c1.8,0.5,3.9,0.5,6.4,0c1.8,2.8,3.7,3.4,5.5,2.5c0.5,2.2-0.5,4.3-2,6.5l3.4-0.1l0.5-2.2l1.7-4.4
		c1.6,1.6,1.2,4.3-0.3,7.5l3,0.2l1.8-3.3L71.9,75l-0.1-5.2l-1.3-1.6l0.8-2.4l0.8,3.9c0.4,3.4,1.1,1.8,1.6,2.7
		c1.3-2.2,1.1-4.1-0.6-5.7c0.8-6.6-0.4-9.9-2.5-11.6c-3.8-0.4-7.6-0.5-11.5,0.1c-3.5,0.9-7.3,1.3-11.8,0.2L38.8,54.6z M45.5,78.3
		c-0.1-1.5,0.2-2.9,1-4.2l0.5,2.3L45.5,78.3z"/>
</g>
</svg>
