<?xml version="1.0" encoding="utf-8"?>
<!-- Generator: Adobe Illustrator 18.1.1, SVG Export Plug-In . SVG Version: 6.00 Build 0)  -->
<svg version="1.1" id="图层_1" xmlns="http://www.w3.org/2000/svg" xmlns:xlink="http://www.w3.org/1999/xlink" x="0px" y="0px"
	 width="331" height="100" enable-background="new 0 0 331 100" xml:space="preserve">
<path fill="none" stroke="#FFFFFF" stroke-width="1.085" stroke-miterlimit="2.4142" d="M323.1,14.2v71.6c0,4.7-4.3,8.6-9.5,8.6
	H17.3c-5.2,0-9.5-3.9-9.5-8.6V14.2c0-4.7,4.3-8.6,9.5-8.6h296.4C318.9,5.5,323.1,9.4,323.1,14.2z"/>
<rect y="-0.1" fill="#2D3081" stroke="#231815" stroke-width="0.216" stroke-miterlimit="2.4142" width="331" height="100.2"/>
<path fill="#FFFFFF" d="M315.3,93.1H15.7c-4.3,0-7.9-3.5-7.9-7.9V14.9c0-4.3,3.5-7.9,7.9-7.9h299.6c4.3,0,7.9,3.5,7.9,7.9v70.4
	C323.1,89.5,319.6,93.1,315.3,93.1z"/>
<path fill="#2D3081" stroke="#231815" stroke-width="0.216" stroke-miterlimit="2.4142" d="M314,90.5H17.4c-3.7,0-6.8-3-6.8-6.8V16
	c0-3.7,3-6.8,6.8-6.8H314c3.7,0,6.8,3,6.8,6.8v67.6C320.8,87.4,317.8,90.5,314,90.5z"/>
<polygon fill="#F4AB1C" points="64.1,11.7 103.7,50.8 64.1,89.9 24.6,50.8 "/>
<path fill="#FFFFFF" d="M125.3,35.1l-4.8-0.2l0.2,4.7l0,25.2l-0.2,6.5h6.1l-0.2-6.5V40.1h26.4v23.6c0,0.4,0,1-0.1,1.5
	c0,0.5-0.2,0.8-0.6,0.9c-0.5,0.1-1,0.1-1.5,0.1c-1,0-2.3-0.1-3.9-0.2c0.7,2.2,1.3,4.2,1.6,6c1.7-0.1,3.2-0.2,4.6-0.4
	c2.9-0.4,4.6-1.1,5.2-2.4c0.2-0.4,0.3-1.2,0.3-2.4V39.6l0.2-4.7l-5.4,0.2h-13.3c0.4-1.4,0.9-2.8,1.3-4.3c-1.8-0.1-3.9-0.5-6.2-1.1
	c-0.1,0.9-0.2,1.7-0.4,2.3c-0.1,0.8-0.4,1.8-0.7,3L125.3,35.1L125.3,35.1z M130.4,62l4.6-0.2h9l4.6,0.2l-0.2-4.4v-8.6l0.2-4.1
	l-9.2,0.1l-9.1-0.1l0.1,4.1v8.6L130.4,62L130.4,62z M135.7,57v-7.3h7.6V57H135.7L135.7,57z M182.9,53.8l6.5-0.1v11.6L176,65.2v5.3
	l5.8-0.1h20l6,0.1v-5.3l-13.1,0.1V53.7h5.3l4.6,0.1v-5.3l-12.1,0.1l-9.2-0.1c0.4-1.3,0.7-2.4,0.9-3.3c0.2-0.9,0.4-2,0.6-3.4h14.8
	l7.2,0.1v-5.5l-7.2,0.1h-14c0-0.7,0.1-1.5,0.2-2.3c0.3-1.8,0.4-3.1,0.4-3.9c-2.3-0.3-4.4-0.6-6.1-0.9l-0.2,7h-8.7l-4.6-0.1v5.5
	l4.5-0.1h8c-0.5,4-1.7,8-3.5,12.1c-1.3,2.8-2.9,5.3-4.9,7.4c-1.8,1.8-3.7,3.2-5.7,4.2c1.6,1.3,3,2.8,4.3,4.5c2.2-1.8,4.4-4,6.5-6.5
	c2.9-3.7,5.2-8,6.9-12.9L182.9,53.8L182.9,53.8z M217.1,43.1c-1.3,0-2.6,0-3.9-0.1c0,12.1,0,18.2-0.1,18.5c-0.1,0.1-0.4,0.3-0.8,0.6
	l2.1,5.9c5.7-2.7,11.4-5.3,16.9-7.6l0.2-3.2l0.3-2.6c-5,2.3-9.3,4-13.1,5.3V48h11.9c-0.7,0.7-1.5,1.4-2.3,2c2.1,1.8,3.6,3.2,4.3,4.2
	c0.4-0.4,0.9-1,1.2-1.5c1,3.7,2.3,6.9,3.9,9.6c-3,3-7.5,4.5-13.2,4.5c1.2,1.9,2,3.8,2.5,5.7c5.6-1.1,10.5-3.2,14.7-6.2
	c3.7,3,7,5.1,10,6.3c1.1-2.3,2.2-4,3.1-5.2c-3.4-1.2-6.6-2.9-9.5-5c2.6-5.5,4.1-11.6,4.5-18.6c2,0,3.7,0,5,0.1v-5.2l-14,0.1
	c0.7-2.3,1.5-4.9,2.3-7.9c-1.8-0.2-3.8-0.7-6.2-1.6c-0.4,6.6-2.4,12.6-5.8,18.1l0.1-15.1h-18.8v5l13.3-0.1V43L217.1,43.1L217.1,43.1
	z M244.3,43.7c-0.3,3.3-0.6,6-1,8.3c-0.4,2-1,3.9-1.9,5.8c-1.6-2.9-2.6-6.5-3.1-10.9c-0.3,0-0.6,0.1-1,0.2c0.3-0.6,0.6-1.1,0.9-1.8
	c0.1-0.4,0.4-1,0.7-1.7L244.3,43.7L244.3,43.7z M259.1,50.5c2.1-0.1,3.9-0.1,5.4-0.1v12.9c-1.6,0.7-3.3,1.4-5.2,2.1l1.7,6.5
	c2.5-2.9,4.6-4.5,6.4-4.7h0.1c0.3,0,1.3,0.9,3.2,2.7c1.8,1.5,5.5,2.3,11.1,2.3c7.7,0.1,13.9,0.1,18.7,0c0.2-2,0.7-3.9,1.4-5.6
	c-15.9,0.9-25.2,0.7-27.9-0.7c-1-0.5-2.4-1.6-4.3-3.4l0.1-17.5h-10.7L259.1,50.5L259.1,50.5z M266.8,41c0.7-0.7,1.4-1.4,2.2-2.1
	c0.2-0.3,0.5-0.6,0.8-0.8c0.1-0.1,0.3-0.2,0.4-0.4l-5.7-7.1c-2,1.6-3.6,2.8-4.7,3.5c1.7,2,3.8,4.6,6.2,7.7
	C266.2,41.6,266.5,41.3,266.8,41L266.8,41z M270.5,35.5v5.2l12-0.1c-0.1,0.7-0.3,1.3-0.4,2l-8.9-0.2l0.1,23c9.3-0.3,17.7-0.3,24.9,0
	c-0.3-8.2-0.3-15.8-0.1-22.9c-2.5,0.1-6,0.1-10.6,0.1l0.6-2c6.6,0,10.9,0,13,0.1v-5.2l-8.5,0.1c0.7-0.9,1.6-2.1,2.5-3.6
	c-1-0.4-2.7-1.2-4.9-2.4c-1.1,2-2.2,3.7-3.3,5.1l1.7,0.9h-7.7c0.6-0.4,1.2-0.9,1.9-1.2c-0.7-0.9-2.1-2.5-4-4.7
	c-1.1,0.7-2.6,1.5-4.5,2.4l3.2,3.6L270.5,35.5L270.5,35.5z M292.8,58.6v2h-14v-2H292.8L292.8,58.6z M278.7,54.8v-2h14v2H278.7
	L278.7,54.8z M278.7,48.9c0-0.7,0-1.3,0-2h14.1v2H278.7L278.7,48.9z"/>
<rect x="71.8" y="32.3" fill="#231815" stroke="#231815" stroke-width="0.216" stroke-miterlimit="2.4142" width="7.1" height="8.3"/>
<rect x="71.8" y="43.9" fill="#231815" stroke="#231815" stroke-width="0.216" stroke-miterlimit="2.4142" width="7.1" height="8.3"/>
<path fill="#231815" stroke="#231815" stroke-width="0.216" stroke-miterlimit="2.4142" d="M48.8,61h7.1l-4.6-6l14.5,0.1
	c3.2,0.2,5.5,2,6.5,6.2l0.1,7.9l6,0.1c0.9-10.2-1.4-18.1-12.7-19.5L51,49.7l5.3-5.1h-7.9l-9.6,7.6L48.8,61L48.8,61z"/>
</svg>
