<?xml version="1.0" encoding="utf-8"?>
<!-- Generator: Adobe Illustrator 18.1.1, SVG Export Plug-In . SVG Version: 6.00 Build 0)  -->
<svg version="1.1" id="图层_1" xmlns="http://www.w3.org/2000/svg" xmlns:xlink="http://www.w3.org/1999/xlink" x="0px" y="0px"
	 width="331" height="100" enable-background="new 0 0 331 100" xml:space="preserve">
<path fill="none" stroke="#FFFFFF" stroke-width="1.085" stroke-miterlimit="2.4142" d="M323.1,14.3v71.6c0,4.7-4.3,8.6-9.5,8.6
	H17.3c-5.2,0-9.5-3.9-9.5-8.6V14.3c0-4.7,4.3-8.6,9.5-8.6h296.4C318.9,5.7,323.1,9.6,323.1,14.3z"/>
<rect fill="#2D3081" stroke="#231815" stroke-width="0.216" stroke-miterlimit="2.4142" width="331" height="100.2"/>
<path fill="#FFFFFF" d="M315.3,93.2H15.7c-4.3,0-7.9-3.5-7.9-7.9V15c0-4.3,3.5-7.9,7.9-7.9h299.6c4.3,0,7.9,3.5,7.9,7.9v70.4
	C323.1,89.7,319.6,93.2,315.3,93.2z"/>
<path fill="#2D3081" stroke="#231815" stroke-width="0.216" stroke-miterlimit="2.4142" d="M314,90.6H17.4c-3.7,0-6.8-3-6.8-6.8
	V16.1c0-3.7,3-6.8,6.8-6.8H314c3.7,0,6.8,3,6.8,6.8v67.6C320.8,87.5,317.8,90.6,314,90.6z"/>
<polygon fill="#F4AB1C" points="64.1,10.4 103.7,49.5 64.1,88.7 24.6,49.5 "/>
<path fill="#FFFFFF" d="M125.3,33.8l-4.8-0.2l0.2,4.7l0,25.2l-0.2,6.5h6.1l-0.2-6.5V38.8h26.4v23.6c0,0.4,0,1-0.1,1.5
	c0,0.5-0.2,0.8-0.6,0.9c-0.5,0.1-1,0.1-1.5,0.1c-1,0-2.3-0.1-3.9-0.2c0.7,2.2,1.3,4.2,1.6,6c1.7-0.1,3.2-0.2,4.6-0.4
	c2.9-0.4,4.6-1.1,5.2-2.4c0.2-0.4,0.3-1.2,0.3-2.4V38.2l0.2-4.7l-5.4,0.2h-13.3c0.4-1.4,0.9-2.8,1.3-4.3c-1.8-0.1-3.9-0.5-6.2-1.1
	c-0.1,0.9-0.2,1.7-0.4,2.3c-0.1,0.8-0.4,1.8-0.7,3L125.3,33.8L125.3,33.8z M130.4,60.8l4.6-0.2h9l4.6,0.2l-0.2-4.4v-8.6l0.2-4.1
	l-9.2,0.1l-9.1-0.1l0.1,4.1v8.6L130.4,60.8L130.4,60.8z M135.7,55.7v-7.3h7.6v7.3H135.7L135.7,55.7z M175.9,65.6l-0.1,5.3h5.8v-1.1
	h16.5v1.1h5.8l-0.2-5.3V53.7l0.2-4.8l-5.3,0.2H182c0.6-1.3,1.2-2.6,1.7-3.9c0.4-1.3,0.9-2.8,1.4-4.5h15.4l6.5,0.1v-5.7l-6.5,0.2
	h-14.4c0.3-1.9,0.6-4.2,0.8-6.8l-2.1,0c-1.1,0-2.5-0.1-4-0.2l-0.2,3.9l-0.4,3.1H171l-5.2-0.2v5.7l5.2-0.2h8.2
	c-0.7,2.8-1.6,5.3-2.9,7.3c-1,1.7-2.6,3.5-4.5,5.4c-1.9,1.7-3.7,3-5.4,3.9c-0.4,0.2-1.1,0.5-2.1,0.9c1.3,1.6,2.4,3.3,3.3,5.1
	c1.5-0.9,2.9-1.8,4.2-2.7c1.3-0.9,2.6-2,4.1-3.3V65.6L175.9,65.6z M181.5,64.7V54.3h16.5v10.5H181.5L181.5,64.7z M217.1,41.8
	c-1.3,0-2.6,0-3.9-0.1c0,12.1,0,18.2-0.1,18.5c-0.1,0.1-0.4,0.3-0.8,0.6l2.1,5.9c5.7-2.7,11.4-5.3,16.9-7.6l0.2-3.2l0.3-2.6
	c-5,2.3-9.3,4-13.1,5.3V46.7h11.9c-0.7,0.7-1.5,1.4-2.3,2c2.1,1.8,3.6,3.2,4.3,4.2c0.4-0.4,0.9-1,1.2-1.5c1,3.7,2.3,6.9,3.9,9.6
	c-3,3-7.5,4.5-13.2,4.5c1.2,1.9,2,3.8,2.5,5.7c5.6-1.1,10.5-3.2,14.7-6.2c3.7,3,7,5.1,10,6.3c1.1-2.3,2.2-4,3.1-5.2
	c-3.4-1.2-6.6-2.9-9.5-5c2.6-5.5,4.1-11.6,4.5-18.6c2,0,3.7,0,5,0.1v-5.2l-14,0.1c0.7-2.3,1.5-4.9,2.3-7.9c-1.8-0.2-3.8-0.7-6.2-1.6
	c-0.4,6.6-2.4,12.6-5.8,18.1l0.1-15.1h-18.8v5l13.4-0.1v6.1H217.1L217.1,41.8z M244.3,42.4c-0.3,3.3-0.6,6-1,8.3
	c-0.4,2-1,3.9-1.9,5.8c-1.6-2.9-2.6-6.5-3.1-10.9c-0.3,0-0.6,0.1-1,0.2c0.3-0.6,0.6-1.1,0.9-1.8c0.1-0.4,0.4-1,0.7-1.7H244.3
	L244.3,42.4z M259.1,49.2c2.1-0.1,3.9-0.1,5.4-0.1v12.9c-1.6,0.7-3.3,1.4-5.2,2.1l1.7,6.5c2.5-2.9,4.6-4.5,6.4-4.7h0.1
	c0.3,0,1.3,0.9,3.2,2.7c1.8,1.5,5.5,2.3,11.1,2.3c7.7,0.1,13.9,0.1,18.7,0c0.2-2,0.7-3.9,1.4-5.6C286,66.3,276.7,66,274,64.6
	c-1-0.5-2.4-1.6-4.3-3.4l0.1-17.5h-10.7L259.1,49.2L259.1,49.2z M266.8,39.7c0.7-0.7,1.4-1.4,2.2-2.1c0.2-0.3,0.5-0.6,0.8-0.8
	c0.1-0.1,0.3-0.2,0.4-0.4l-5.7-7.1c-2,1.6-3.6,2.8-4.7,3.5c1.7,2,3.8,4.6,6.2,7.7C266.2,40.2,266.5,40,266.8,39.7L266.8,39.7z
	 M270.5,34.2v5.2l12-0.1c-0.1,0.7-0.3,1.3-0.4,2l-8.9-0.2l0.1,23c9.3-0.3,17.7-0.3,24.9,0c-0.3-8.2-0.3-15.8-0.1-22.9
	c-2.5,0.1-6,0.1-10.6,0.1l0.6-2c6.6,0,10.9,0,13,0.1v-5.2l-8.5,0.1c0.7-0.9,1.6-2.1,2.5-3.6c-1-0.4-2.7-1.2-4.9-2.4
	c-1.1,2-2.2,3.7-3.3,5.1l1.7,0.9h-7.7c0.6-0.4,1.2-0.9,1.9-1.2c-0.7-0.9-2.1-2.5-4-4.7c-1.1,0.7-2.6,1.5-4.5,2.4l3.2,3.6L270.5,34.2
	L270.5,34.2z M292.8,57.3v2h-14v-2H292.8L292.8,57.3z M278.7,53.5v-2h14v2H278.7L278.7,53.5z M278.7,47.6c0-0.7,0-1.3,0-2h14.1v2
	H278.7L278.7,47.6z"/>
<rect x="49" y="31" fill="#231815" stroke="#231815" stroke-width="0.216" stroke-miterlimit="2.4142" width="7.1" height="8.3"/>
<rect x="49" y="42.7" fill="#231815" stroke="#231815" stroke-width="0.216" stroke-miterlimit="2.4142" width="7.1" height="8.3"/>
<path fill="#231815" stroke="#231815" stroke-width="0.216" stroke-miterlimit="2.4142" d="M79.2,59.7H72l4.6-6l-14.5,0.1
	c-3.2,0.2-5.5,2-6.5,6.2l-0.1,7.9l-6,0.1C48.6,57.8,50.9,50,62.2,48.6l14.7-0.1l-5.3-5.1h7.9l9.6,7.6L79.2,59.7L79.2,59.7z"/>
</svg>
