<?xml version="1.0" encoding="utf-8"?>
<!-- Generator: Adobe Illustrator 18.1.1, SVG Export Plug-In . SVG Version: 6.00 Build 0)  -->
<svg version="1.1" id="图层_1" xmlns="http://www.w3.org/2000/svg" xmlns:xlink="http://www.w3.org/1999/xlink" x="0px" y="0px"
	 width="330.2" height="100" enable-background="new 0 0 330.2 100" xml:space="preserve">
<rect fill-rule="evenodd" clip-rule="evenodd" fill="#2E3192" stroke="#2E3192" stroke-width="0.216" stroke-miterlimit="2.4142" width="330.2" height="100"/>
<path fill-rule="evenodd" clip-rule="evenodd" fill="#FAA61A" d="M322.3,14.3v71.4c0,4.7-4.3,8.6-9.5,8.6H17.3
	c-5.2,0-9.5-3.9-9.5-8.6V14.3c0-4.7,4.3-8.6,9.5-8.6h295.6C318.1,5.7,322.3,9.5,322.3,14.3z"/>
<polygon fill-rule="evenodd" clip-rule="evenodd" stroke="#000000" stroke-width="0.216" stroke-miterlimit="2.4142" points="
	95.6,92.3 52.1,92.3 10.1,52.4 51.6,9.9 95.6,9.9 54,51.2 95.6,92.3 "/>
<polygon fill-rule="evenodd" clip-rule="evenodd" stroke="#000000" stroke-width="0.216" stroke-miterlimit="2.4142" points="
	181.2,92.3 137.6,92.3 95.6,52.4 137.2,9.9 181.2,9.9 139.6,51.2 181.2,92.3 "/>
<polygon fill-rule="evenodd" clip-rule="evenodd" stroke="#000000" stroke-width="0.216" stroke-miterlimit="2.4142" points="
	271.6,92.3 228,92.3 186,52.4 227.5,9.9 271.6,9.9 230,51.2 271.6,92.3 "/>
<polygon fill-rule="evenodd" clip-rule="evenodd" stroke="#000000" stroke-width="0.216" stroke-miterlimit="2.4142" points="
	318.1,89.1 312.5,92.3 270.5,52.4 312,9.9 318.6,15.7 318.4,42.8 308.7,52.4 318.3,60.7 318.1,89.1 "/>
</svg>
