<?xml version="1.0" encoding="utf-8"?>
<!-- Generator: Adobe Illustrator 18.1.1, SVG Export Plug-In . SVG Version: 6.00 Build 0)  -->
<svg version="1.1" id="图层_1" xmlns="http://www.w3.org/2000/svg" xmlns:xlink="http://www.w3.org/1999/xlink" x="0px" y="0px"
	 width="330.2" height="100" enable-background="new 0 0 330.2 100" xml:space="preserve">
<rect fill-rule="evenodd" clip-rule="evenodd" fill="#2E3192" stroke="#2E3192" stroke-width="0.216" stroke-miterlimit="2.4142" width="330.2" height="100"/>
<path fill-rule="evenodd" clip-rule="evenodd" fill="#FAA61A" d="M7.8,14.3v71.4c0,4.7,4.3,8.6,9.5,8.6h295.6c5.2,0,9.5-3.9,9.5-8.6
	V14.3c0-4.7-4.3-8.6-9.5-8.6H17.3C12.1,5.7,7.8,9.5,7.8,14.3z"/>
<polygon fill-rule="evenodd" clip-rule="evenodd" stroke="#000000" stroke-width="0.216" stroke-miterlimit="2.4142" points="
	234.6,92.3 278.1,92.3 320.1,52.4 278.6,9.9 234.6,9.9 276.1,51.2 234.6,92.3 "/>
<polygon fill-rule="evenodd" clip-rule="evenodd" stroke="#000000" stroke-width="0.216" stroke-miterlimit="2.4142" points="
	149,92.3 192.6,92.3 234.6,52.4 193,9.9 149,9.9 190.6,51.2 149,92.3 "/>
<polygon fill-rule="evenodd" clip-rule="evenodd" stroke="#000000" stroke-width="0.216" stroke-miterlimit="2.4142" points="
	58.6,92.3 102.2,92.3 144.2,52.4 102.6,9.9 58.6,9.9 100.2,51.2 58.6,92.3 "/>
<polygon fill-rule="evenodd" clip-rule="evenodd" stroke="#000000" stroke-width="0.216" stroke-miterlimit="2.4142" points="
	12.1,89.1 17.7,92.3 59.7,52.4 18.2,9.9 11.6,15.7 11.8,42.8 21.5,52.4 11.9,60.7 12.1,89.1 "/>
</svg>
