<?xml version="1.0" encoding="utf-8"?>
<!-- Generator: Adobe Illustrator 18.1.1, SVG Export Plug-In . SVG Version: 6.00 Build 0)  -->
<svg version="1.1" id="图层_1" xmlns="http://www.w3.org/2000/svg" xmlns:xlink="http://www.w3.org/1999/xlink" x="0px" y="0px"
	 width="100" height="100" enable-background="new 0 0 99.7 100" xml:space="preserve">
<polyline fill="#F4AB1C" points="49.5,99 0,50 49.5,1 99.1,50 49.5,99 "/>
<g>
	<path fill="#070404" d="M66.6,31.9c-2.1,1.9-2.4,2-2.7,4.8c-4.6,1.3-5,2.2-3.7,6.6c-2.3-1.2-2.3,0.2-3.7,0.2
		c-1.3-0.7-2.6-1.4-3.9-2c0-0.8,0-1.6,0-2.4c-1.4-1.4-2.1-2.7-2.6-4.1c-0.7-3.2-1.4-6.1-3.7-8.1c-3.8-1.3-6.9,0.3-10.2,1.8
		c-3,2.6-1.2,4,1.2,6.8c-1.1,1.8-2.1,3.5-3.1,5.3c-2.5,5.1-3.4,9.5-4.1,15.3c-4.4,0.1-8.8,0.2-13.2,0.2c-0.7,1.4-1.4,2.8-2,4.1
		c23,0,46-0.1,69-0.1C78,50.9,72.3,41.4,66.6,31.9z M40.7,30.9c-0.4,0.5-0.7,1-1.1,1.5c-0.2-0.5-0.5-1-0.7-1.5
		C39.5,30.9,40.1,30.9,40.7,30.9z M33.5,56.1c1.1-3.8,2.4-7.2,4.2-10.5c2-2.9,2-2.9,2.2-3c0.9,0.9,1.7,1.8,2.6,2.7
		c0,3.6,0.1,7.2,0.2,10.9C39.6,56.1,36.6,56.1,33.5,56.1z M46.7,35.8c0.4,1.2,0.9,2.4,1.3,3.6c-0.1,0-0.2,0-0.3,0
		c-0.9-0.5-1.7-0.9-2.6-1.3C46.5,35.9,46.5,35.9,46.7,35.8z M59.8,49.4c-3,0-6.5-0.8-8,2.1c0,0.6,0.1,1.2,0.2,1.8
		c-1.8,0.8-2.2,0.8-2.7,2.7c-0.6,0-1.1,0-1.7,0c0-4.1-0.1-8.3-0.1-12.4c-0.7-1-1.3-2-2-3c3.5,1.6,6.9,3.2,10.5,4.8
		c0.3,2,1.6,2.1,3.8,3.2C59.8,48.8,59.8,49.1,59.8,49.4z"/>
	<path fill="#070404" d="M48.6,26.7c2.2-0.2,3.5-0.5,4.1-2.9c-0.3-3.5-2.5-4-5.3-3C45.4,22.8,45.6,25.3,48.6,26.7z"/>
</g>
</svg>
