<?xml version="1.0" encoding="utf-8"?>
<!-- Generator: Adobe Illustrator 18.1.1, SVG Export Plug-In . SVG Version: 6.00 Build 0)  -->
<svg version="1.1" id="图层_1" xmlns="http://www.w3.org/2000/svg" xmlns:xlink="http://www.w3.org/1999/xlink" x="0px" y="0px"
	 width="100" height="100" enable-background="new 0 0 100 100" xml:space="preserve">
<g>
	<path fill="#F4AB1C" d="M4.6,82.6L46,8.7c0.9-1.4,2.5-2.5,4.2-2.5c-1.7,0-3.3,1.1-4.2,2.5L4.6,82.6c-2.6,4.7-2.8,8.4,1,9.1l0,0
		C1.9,91,2,87.2,4.6,82.6z"/>
	<path fill="#F4AB1C" d="M49.9,63.1c3.1,0,5.7-2.6,5.7-5.7s-2.5-5.7-5.7-5.7s-5.7,2.6-5.7,5.7S46.8,63.1,49.9,63.1z"/>
	<path fill="#F4AB1C" d="M10.8,84.7h78.1L49.9,15.5L10.8,84.7z M58.1,41.6v31.3c0,4.2-3.4,7.6-7.6,7.6h-0.8c-4.2,0-7.6-3.4-7.6-7.6
		V41.6c0-4.2,3.4-7.6,7.6-7.6h0.8C54.7,34,58.1,37.5,58.1,41.6z"/>
	<path fill="#010101" d="M94.4,81L53.8,8.7c-1-1.8-2.3-2.5-3.6-2.5c-1.7,0-3.3,1.1-4.2,2.5L4.6,82.6c-2.6,4.7-2.8,8.4,1,9.1h87.7
		l0,0C99.7,91.8,97.1,85.4,94.4,81z M10.8,84.7l39.1-69.2l39.1,69.2H10.8z"/>
	<path fill="#010101" d="M42.1,41.6v31.3c0,4.2,3.4,7.6,7.6,7.6h0.8c4.2,0,7.6-3.4,7.6-7.6V41.6c0-4.2-3.4-7.6-7.6-7.6h-0.8
		C45.6,34,42.1,37.5,42.1,41.6z M49.9,78.8c-3.1,0-5.7-2.6-5.7-5.7c0-3.2,2.5-5.7,5.7-5.7s5.7,2.6,5.7,5.7
		C55.5,76.2,53,78.8,49.9,78.8z M44.2,57.3c0-3.2,2.5-5.7,5.7-5.7c3.1,0,5.7,2.6,5.7,5.7s-2.5,5.7-5.7,5.7
		C46.8,63.1,44.2,60.5,44.2,57.3z M55.5,42c0,3.2-2.5,5.7-5.7,5.7s-5.7-2.6-5.7-5.7c0-3.2,2.5-5.7,5.7-5.7
		C53,36.3,55.5,38.9,55.5,42z"/>
	<ellipse fill="#ED2224" cx="49.9" cy="42" rx="5.7" ry="5.7"/>
	<ellipse fill="#0D8943" cx="49.9" cy="73.1" rx="5.7" ry="5.7"/>
</g>
</svg>
