<?xml version="1.0" encoding="utf-8"?>
<!-- Generator: Adobe Illustrator 18.1.1, SVG Export Plug-In . SVG Version: 6.00 Build 0)  -->
<svg version="1.1" id="图层_1" xmlns="http://www.w3.org/2000/svg" xmlns:xlink="http://www.w3.org/1999/xlink" x="0px" y="0px"
	 width="123.5" height="79.5" enable-background="new 0 0 123.5 79.5" xml:space="preserve">
<g>
	<path fill="#FFFFFF" d="M115.8,36.2c-4.9-4.9-10.9-7.3-18-7.3c-3.4,0-6.7,0.6-9.8,1.9l-6.1-13.4l2.2-6.2L83.7,11l1.6-4.5
		c1.8,0,3.3-0.2,4.4-0.5c1.9-0.5,2.8-1.3,2.8-2.6c0-2.3-0.8-3.5-2.4-3.5c-0.9,0-2.1,0.2-3.7,0.6c-1.6,0.4-2.7,0.6-3.3,0.6
		c-0.8,0-1.8-0.1-3-0.3s-2-0.3-2.4-0.3c-0.9,0-1.4,0.6-1.4,1.8c0,0.4,0.9,1.1,2.7,2c1.8,1,3.3,1.6,4.5,1.9l-1.5,4.1l-0.3-0.3
		L80,14.7H41.9l3.8-10.3L55.1,4l-1.9-3.2h-9.4L42.3,6l-8.8,24.1c-2.6-0.9-5.3-1.3-8.1-1.3c-7,0-13,2.4-17.9,7.3
		C2.4,41,0,46.9,0,53.9s2.5,12.9,7.5,17.8c4.9,4.9,10.9,7.4,17.9,7.4c7,0,13-2.4,18-7.4c4.9-4.9,7.4-10.8,7.4-17.8
		c0-5-1.4-9.6-4.1-13.7c-2.7-4.1-6.4-7.1-10.8-9.1l2-5l23.4,27.7c-0.9,1-1.4,2.2-1.4,3.6c0,2.9,2.3,5.3,5.2,5.5v6.9v0.1V72h6.1v-2.2
		h-4v-7h-0.7c2.2-0.4,3.9-2.2,4.3-4.4l2.2-0.2c1,5.9,3.9,10.9,8.6,14.8C86.3,77,91.7,79,98,79c7,0,12.9-2.4,17.9-7.4
		c5-4.9,7.5-10.8,7.5-17.8C123.3,47,120.8,41.1,115.8,36.2z M47.9,53.9c0,6.2-2.2,11.4-6.6,15.8c-4.4,4.4-9.7,6.5-16,6.5
		c-6.2,0-11.5-2.2-15.9-6.5C5,65.3,2.8,60,2.8,53.9c0-6.2,2.2-11.4,6.6-15.8c4.4-4.4,9.7-6.6,15.9-6.6c2.3,0,4.7,0.4,7.2,1.2
		c-2.7,7.4-4.8,13.1-6.4,17.3l-1.9,4.6c0,0.7,0.4,1,1.1,1c0.8,0,1.8-1.5,2.9-4.5l6.6-17.4C43.6,37.7,47.9,44.4,47.9,53.9z
		 M40.9,17.4h38L66.1,52c-0.3,0-0.5-0.1-0.8-0.1c-0.7,0-1.4,0.1-2,0.4L38.7,23.3L40.9,17.4z M68,55c0.2,0.2,0.4,0.5,0.6,0.8
		l-0.9,0.1L68,55z M65.4,53.8l-0.3,0.7l-0.5-0.6c0.2,0,0.4-0.1,0.7-0.1C65.3,53.8,65.4,53.8,65.4,53.8z M65.3,61.1
		c-2,0-3.6-1.6-3.6-3.6c0-0.8,0.3-1.6,0.8-2.2l3.1,3.7l3.1-0.3C68.2,60,66.9,61.1,65.3,61.1z M72.5,53.9v1.6l-2.1,0.2
		c-0.3-1-1-1.9-1.8-2.5l12-32.2l5,11.1C76.9,36.8,72.5,44.1,72.5,53.9z M75.4,53.9L75.4,53.9c0-8.6,3.8-15.1,11.5-19.4l8.5,18.8
		l-20,1.9V53.9z M113.8,69.6c-4.4,4.4-9.7,6.5-15.9,6.5c-5.5,0-10.4-1.7-14.5-5.2c-4.2-3.5-6.7-7.8-7.7-13l23.9-2.2L89.2,33.4
		c2.9-1.2,5.8-1.8,8.7-1.8c6.2,0,11.5,2.2,15.9,6.6c4.4,4.4,6.6,9.6,6.6,15.8C120.4,60,118.2,65.3,113.8,69.6z"/>
	<polygon fill="#FFFFFF" points="65.9,44.1 65.9,42.4 59.8,42.4 59.8,44.9 63.8,44.9 63.8,51.9 65.3,51.9 65.9,51.9 	"/>
</g>
</svg>
