<?xml version="1.0" encoding="utf-8"?>
<!-- Generator: Adobe Illustrator 18.1.1, SVG Export Plug-In . SVG Version: 6.00 Build 0)  -->
<svg version="1.1" id="图层_1" xmlns="http://www.w3.org/2000/svg" xmlns:xlink="http://www.w3.org/1999/xlink" x="0px" y="0px"
	width="96.5" height="77" enable-background="new 0 0 96.5 77" xml:space="preserve">
<path fill="#FFFFFF" d="M90.5,27.1L85.2,10c-0.9-2.9-0.8-2.6-3.7-3.7c-20-7.8-41.2-8.5-63.9-0.7c-3.7,0.5-6,2.7-7.3,6.1
	C9,20.6,7.1,28.2,3.1,31c-2.2,0.9-4,2.3-2.6,7.2l4.9,24.4l3.8,0l0,10.4c-0.1,4.7,8.7,4.5,8.8,0V62.3l61.9,0.2l0,9.4
	c0,6.8,10.1,6.6,10.1,0.2l0-9.6l3.9,0l2.4-23.9C97.3,33.3,95.4,29.5,90.5,27.1z M9.2,40.8C6.9,40.8,5,39,5,36.7
	c0-2.3,1.9-4.1,4.1-4.1c2.3,0,4.1,1.8,4.1,4.1C13.3,39,11.4,40.8,9.2,40.8z M77.8,49.5H20.7v-5.3h57.1V49.5z M77.8,39.9H20.7
	c-0.9-1.5-1.8-3.1,0-5.3c18.4-3.2,37.5-3.2,57.1,0C79,37.1,78.7,38.8,77.8,39.9z M13.1,25.6l3.4-13.3c7.7-6.6,54.7-9.2,63.4,0
	l3.6,13.3C60,22.3,36.5,22.3,13.1,25.6z M88.3,40.2c-2.3,0-4.1-1.8-4.1-4.1c0-2.3,1.9-4.1,4.1-4.1c2.3,0,4.1,1.8,4.1,4.1
	C92.4,38.3,90.5,40.2,88.3,40.2z"/>
</svg>
