<?xml version="1.0" encoding="utf-8"?>
<!-- Generator: Adobe Illustrator 18.1.1, SVG Export Plug-In . SVG Version: 6.00 Build 0)  -->
<svg version="1.1" id="图层_1" xmlns="http://www.w3.org/2000/svg" xmlns:xlink="http://www.w3.org/1999/xlink" x="0px" y="0px"
	 width="100" height="100" enable-background="new 0 0 100 100" xml:space="preserve">
<line fill="none" stroke="#231815" stroke-width="0.216" stroke-miterlimit="22.9256" x1="100.8" y1="102.8" x2="-0.8" y2="102.8"/>
<circle id="白底" fill="#FFFFFF" cx="50.1" cy="49.5" r="44.2"/>
<path fill="#E41E26" d="M50,1c26.7,0,48.4,21.7,48.4,48.4S76.7,97.8,50,97.8S1.6,76.1,1.6,49.4C1.6,22.7,23.3,1,50,1L50,1z M22,17.9
	l61.2,57.5c5.6-7.2,9-16.2,9-26c0-23.3-19-42.2-42.2-42.2C39.3,7.2,29.4,11.2,22,17.9L22,17.9z M78.4,80.6L17.1,23.1
	c-5.8,7.2-9.3,16.4-9.3,26.4c0,23.3,19,42.2,42.2,42.2C60.9,91.6,70.9,87.5,78.4,80.6z"/>
<path fill="#010101" d="M55.5,33.8c1.2-1.2-0.9-5,0.5-6c-1.6,0.1-1.6,1.7-2.2,1.7c-0.5,0.1-0.5-0.7-0.5-1.6c0.2-1.9-0.6-3.1-2.6-3.3
	c0.7,0.6,0.7,2.6-1,2c-1.3-0.5,0.5-3.4-1.3-6.6c0.1,1.9-3,3.1-2.7,6.6c0.1,1.6,0.7,2.6,0.4,2.9c-1,0.6-2.1-1.8-1.8-2.7
	c-0.6,0.6-2,1.8-0.9,3.5c0.6,1,0.9,2.4,0.4,2.3c-0.4,0-1.5-1.2-2.6-0.4c1.7,0.6-0.5,7.6,7.2,8.3c-1.8-1-1.7-3.5-2.1-3.6
	c1.2-0.2,1.3,0.8,1.7,0.9c0.6-0.1-0.8-1.1,0.2-2.3c0,0.6,1,2,1.6,1.8c0.6-0.2-1.3-2.9,0.5-4c-0.5,1.1,1.3,2.6,1.7,4.6
	c0.1-0.9,0.4-1.4,1.5-1.1c-0.7,0.2-0.4,2.5-1.9,3.5c7.1-1.1,5.8-8.1,6.9-8.2C56.8,31.7,56.8,33.5,55.5,33.8z"/>
<line fill="none" stroke="#E51E25" stroke-width="0.216" stroke-miterlimit="2.4142" x1="66.2" y1="83.2" x2="26.2" y2="46.6"/>
<line fill="none" stroke="#E51E25" stroke-width="0.216" stroke-miterlimit="2.4142" x1="29.7" y1="43.3" x2="69.6" y2="79.8"/>
<path fill="#231815" d="M35.2,45.8c0,0,12.5-6.3,30.3,0.1c0,0,0.1,5.9,1.4,7.6c0.9,1.1,1.9,2.3,3,3.2c0,0-1.2,11.7-1.7,12.7l-1.4,1
	l0.1,3.5c0,0-2.1,4.2-4.2,0.1l0-3.7l-25.3-0.1l-0.1,3.6c0,0-1.4,3.8-3.5,0.1l0-3.6c0,0-1.9,0.1-2.2-1.4l-1.5-11.7
	c0-0.1,2.4-1.9,3.3-3.4C34.5,51.9,34.6,48,35.2,45.8L35.2,45.8z M36.5,52.9h26.7v-4.4c-13.8-6.4-26.5-0.2-26.5-0.2L36.5,52.9
	L36.5,52.9z M38.6,57.5c-1.5,1.3,0.1,2.4,0.1,2.4h1.1h21.7c1.4-1.7-0.2-2.5-0.2-2.5L38.6,57.5L38.6,57.5z M39.1,61.8
	c-1.4,1.2,0.1,2.3,0.1,2.3h1.1H61c1.3-1.6-0.2-2.4-0.2-2.4L39.1,61.8L39.1,61.8z M34,56.7c-0.9,0-1.7,0.8-1.7,1.7
	c0,0.9,0.8,1.7,1.7,1.7c0.9,0,1.7-0.8,1.7-1.7C35.7,57.5,34.9,56.7,34,56.7L34,56.7z M66.6,56.7c-0.9,0-1.7,0.8-1.7,1.7
	c0,0.9,0.8,1.7,1.7,1.7c0.9,0,1.7-0.8,1.7-1.7C68.2,57.5,67.5,56.7,66.6,56.7z"/>
<line fill="none" x1="68.5" y1="84.5" x2="26.5" y2="43"/>
<line fill="none" x1="31.1" y1="38.7" x2="72.9" y2="80.2"/>
</svg>
