<?xml version="1.0" encoding="utf-8"?>
<!-- Generator: Adobe Illustrator 18.1.1, SVG Export Plug-In . SVG Version: 6.00 Build 0)  -->
<svg version="1.1" id="图层_1" xmlns="http://www.w3.org/2000/svg" xmlns:xlink="http://www.w3.org/1999/xlink" x="0px" y="0px"
	 width="100" height="100" enable-background="new 0 0 100 100" xml:space="preserve">
<g>
	<path fill="#F4AB1C" d="M47.8,5.8c0.4-0.3,0.8-0.5,1.3-0.7C48.7,5.3,48.2,5.5,47.8,5.8z"/>
	<path fill="#F4AB1C" d="M49.1,5.1C49.3,5,49.6,5,49.8,4.9C49.6,5,49.3,5,49.1,5.1z"/>
	<path fill="#F4AB1C" d="M47.1,6.4c0.2-0.2,0.4-0.4,0.7-0.6C47.6,6,47.3,6.2,47.1,6.4z"/>
	<path fill="#F4AB1C" d="M50.1,4.9c0.1,0,0.2,0,0.3,0C50.3,4.9,50.2,4.9,50.1,4.9z"/>
	<path fill="#F4AB1C" d="M9.6,85.1h81.6L50.4,14.3L9.6,85.1z M86.6,83.8H12.2l33.1-59.1c1.4,1.7,2.4,3.6,1.2,6.3
		c1,1.4,0.9,3-0.4,4.8c0.2,0.9-0.3,1.9,0.6,2.7c-0.4,2.4,0.6,5.1,3.2,8.2c0,3.4,0.7,5.2,2,5.7c0.9,0.7,1,3.1,0.2,7.1
		c0.7,1.2,1,2.5,0.7,4c2.1,5.3,2.7,10.2,2.5,14.8h27.9L86.6,83.8z M65,69.1c-2.6-0.5-3.9-1.7-3.8-3.8c0.7-2.7,2.6-2.3,3.8-3.4V69.1z
		 M62.9,53.1c1.1,0,2,1,2,2.2c0,1.2-0.9,2.2-2,2.2c-1.1,0-2-1-2-2.2C60.9,54.1,61.8,53.1,62.9,53.1z M57.4,44.1l2.7,4.4
		c0.5,0.8,0.5,1.7,0.1,2l-2.1,1.2c-0.5,0.3-1.2-0.2-1.7-1l-2.7-4.4c-0.5-0.8-0.5-1.7-0.1-2l2.1-1.2C56.1,42.9,56.9,43.3,57.4,44.1z
		 M51.1,33.9l2.6,2.9c0.5,0.5,0.6,1.2,0.3,1.4l-1.4,1.2c-0.3,0.3-0.9,0-1.4-0.5l-2.6-2.9c-0.5-0.5-0.6-1.2-0.3-1.4l1.4-1.2
		C49.9,33.2,50.6,33.4,51.1,33.9z"/>
	<path fill="#F4AB1C" d="M50.4,4.9c0.1,0,0.2,0,0.3,0C50.6,4.9,50.5,4.9,50.4,4.9z"/>
	<path fill="#F4AB1C" d="M47.1,6.4c-0.3,0.3-0.6,0.6-0.8,1L3.1,83L46.3,7.4C46.5,7,46.8,6.7,47.1,6.4z"/>
	<path fill="#010101" d="M96.8,81.4l-42.4-74c-0.6-1-1.2-1.6-1.9-2C52.2,5.2,52,5.1,51.7,5c-0.1,0-0.2-0.1-0.3-0.1
		c-0.2-0.1-0.5-0.1-0.7-0.1c-0.1,0-0.2,0-0.3,0c-0.1,0-0.2,0-0.3,0c-0.1,0-0.2,0-0.3,0.1c-0.2,0.1-0.5,0.1-0.7,0.2
		c-0.5,0.2-0.9,0.4-1.3,0.7c-0.2,0.2-0.5,0.4-0.7,0.6c-0.3,0.3-0.6,0.6-0.8,1L3.1,83c-1.6,2.8-2.3,5.3-1.8,7.1
		c0.1,0.2,0.1,0.3,0.2,0.5c0.1,0.2,0.3,0.5,0.5,0.7c0.5,0.5,1.2,0.9,2.2,1.1l0,0h91.7c0.5,0,1,0,1.4-0.1
		C102,91.4,99.5,85.5,96.8,81.4z M9.6,85.1l40.8-70.8l40.8,70.8H9.6z"/>
	<path fill="#010101" d="M52.8,63.6c0.3-1.5,0-2.9-0.7-4c0.8-4,0.7-6.4-0.2-7.1c-1.3-0.4-2-2.3-2-5.7c-2.5-3.1-3.6-5.8-3.2-8.2
		c-0.9-0.8-0.4-1.8-0.6-2.7c1.3-1.7,1.4-3.3,0.4-4.8c1.3-2.7,0.2-4.6-1.2-6.3L12.2,83.8h74.3l-3.3-5.4H55.4
		C55.5,73.8,55,68.9,52.8,63.6z"/>
	<ellipse fill="#010101" cx="62.9" cy="55.3" rx="2" ry="2.2"/>
	<path fill="#010101" d="M61.2,65.3c0,2.1,1.2,3.3,3.8,3.8v-7.2C63.7,63,61.8,62.6,61.2,65.3z"/>
	<path fill="#010101" d="M53.7,46.3l2.7,4.4c0.5,0.8,1.3,1.2,1.7,1l2.1-1.2c0.5-0.3,0.4-1.2-0.1-2l-2.7-4.4c-0.5-0.8-1.3-1.2-1.7-1
		l-2.1,1.2C53.1,44.7,53.2,45.5,53.7,46.3z"/>
	<path fill="#010101" d="M49.6,33.4l-1.4,1.2c-0.3,0.3-0.2,0.9,0.3,1.4l2.6,2.9c0.5,0.5,1.1,0.7,1.4,0.5l1.4-1.2
		c0.3-0.3,0.2-0.9-0.3-1.4L51,33.9C50.6,33.4,49.9,33.2,49.6,33.4z"/>
</g>
</svg>
