<?xml version="1.0" encoding="utf-8"?>
<!-- Generator: Adobe Illustrator 18.1.1, SVG Export Plug-In . SVG Version: 6.00 Build 0)  -->
<svg version="1.1" id="图层_1" xmlns="http://www.w3.org/2000/svg" xmlns:xlink="http://www.w3.org/1999/xlink" x="0px" y="0px"
	 width="100" height="100" enable-background="new 0 0 100 100" xml:space="preserve">
<path fill="#010101" d="M95.8,93.4H3.1c-4-0.7-3.8-4.6-1-9.5L45.8,7.5c1.7-2.6,5.8-4.2,8.2,0l42.9,74.8
	C99.8,86.9,102.5,93.5,95.8,93.4L95.8,93.4z"/>
<polygon fill="#F4AB1C" points="6.8,87.4 50.1,13.1 93.5,87.4 "/>
<line fill="none" stroke="#231815" stroke-width="0.216" stroke-miterlimit="2.4142" x1="50.7" y1="13.7" x2="93.1" y2="87.3"/>
<path fill="#231815" stroke="#231815" stroke-width="0.216" stroke-miterlimit="2.4142" d="M13,85.9h77.3L55.9,24.5
	c-1.4,1.8-2.5,3.8-1.2,6.6c-1.1,1.5-0.9,3.1,0.4,5c-0.2,0.9,0.4,2-0.6,2.8c0.5,2.5-0.7,5.3-3.3,8.5c0,3.5-0.7,5.4-2.1,5.9
	c-0.9,0.8-1,3.3-0.2,7.4c-0.7,1.2-1,2.6-0.7,4.2c-2.2,5.5-2.8,10.6-2.6,15.4h-29L13,85.9L13,85.9z"/>
<ellipse fill="#231815" stroke="#231815" stroke-width="0.216" stroke-miterlimit="2.4142" cx="37.7" cy="56.3" rx="2.1" ry="2.3"/>
<path fill="#231815" stroke="#231815" stroke-width="0.216" stroke-miterlimit="2.4142" d="M35.5,63.1c1.3,1.2,3.3,0.7,4,3.6
	c0,2.2-1.3,3.5-4,3.9V63.1L35.5,63.1z"/>
<path fill="#231815" stroke="#231815" stroke-width="0.216" stroke-miterlimit="2.4142" d="M43.4,44.6l-2.8,4.6
	c-0.5,0.8-0.6,1.7-0.1,2l2.2,1.3c0.5,0.3,1.3-0.2,1.8-1l2.8-4.6c0.5-0.8,0.6-1.7,0.1-2l-2.2-1.3C44.7,43.4,43.9,43.8,43.4,44.6z"/>
<path fill="#231815" stroke="#231815" stroke-width="0.216" stroke-miterlimit="2.4142" d="M50,34l-2.7,3c-0.5,0.6-0.6,1.2-0.3,1.5
	l1.4,1.3c0.3,0.3,1,0,1.5-0.5l2.7-3c0.5-0.6,0.6-1.2,0.3-1.5l-1.4-1.3C51.1,33.3,50.5,33.5,50,34z"/>
</svg>
