<?xml version="1.0" encoding="utf-8"?>
<!-- Generator: Adobe Illustrator 18.1.1, SVG Export Plug-In . SVG Version: 6.00 Build 0)  -->
<svg version="1.1" id="图层_1" xmlns="http://www.w3.org/2000/svg" xmlns:xlink="http://www.w3.org/1999/xlink" x="0px" y="0px"
	 width="100" height="100" enable-background="new 0 0 100 100" xml:space="preserve">
<g>
	<path fill="#F4AB1C" d="M62.4,57.1l-3-1.8c-1.9,0.8-2.9,2.5-2.9,5.1l3.8,1.7C59.8,59.9,60.8,58.3,62.4,57.1z"/>
	<path fill="#F4AB1C" d="M67.2,63.7c0.9,0,1.6-0.7,1.6-1.5s-0.7-1.5-1.6-1.5s-1.6,0.7-1.6,1.5S66.3,63.7,67.2,63.7z"/>
	<path fill="#F4AB1C" d="M51.2,58.6c-0.5-2.9,0.7-5,2.8-6.6l-4-2.3c-2.6,1.1-3.8,3.3-3.8,6.7L51.2,58.6z"/>
	<polygon fill="#F4AB1C" points="41.1,52.3 41.6,50 39,50.1 	"/>
	<path fill="#F4AB1C" d="M8.7,85.8H91L49.9,14.4L8.7,85.8z M67.1,65.9l-24.2-8.2l-5-5.2l0,28.4h-3.5V49.1l13.5-3.3l21.3,13.5
		C73,62.9,71.1,65.9,67.1,65.9z"/>
	<path fill="#F4AB1C" d="M52.6,5.7C52.7,5.8,52.9,6,53,6.1C52.9,6,52.7,5.8,52.6,5.7z"/>
	<path fill="#F4AB1C" d="M51.8,5.2c0.1,0,0.2,0.1,0.3,0.1C51.9,5.3,51.8,5.3,51.8,5.2z"/>
	<path fill="#F4AB1C" d="M51,5C51.1,5,51.2,5,51.3,5C51.2,5,51.1,5,51,5z"/>
	<path fill="#F4AB1C" d="M52.2,5.4c0.1,0.1,0.3,0.2,0.4,0.3C52.5,5.6,52.3,5.5,52.2,5.4z"/>
	<path fill="#F4AB1C" d="M51.5,5.1c0.1,0,0.2,0.1,0.3,0.1C51.7,5.2,51.6,5.1,51.5,5.1z"/>
	<path fill="#F4AB1C" d="M50.2,4.8c0.1,0,0.3,0,0.4,0C50.5,4.8,50.3,4.8,50.2,4.8z"/>
	<path fill="#F4AB1C" d="M53.1,6.2c0.1,0.1,0.2,0.2,0.2,0.3C53.3,6.4,53.2,6.3,53.1,6.2z"/>
	<path fill="#010101" d="M96.7,82L54,7.4c-0.2-0.3-0.4-0.6-0.6-0.9c-0.1-0.1-0.2-0.2-0.2-0.3c0-0.1-0.1-0.1-0.1-0.1
		c-0.1-0.1-0.3-0.3-0.4-0.4c-0.1-0.1-0.3-0.2-0.4-0.3c-0.1,0-0.1-0.1-0.1-0.1c-0.1-0.1-0.2-0.1-0.3-0.1c-0.1,0-0.2-0.1-0.3-0.1
		c-0.1,0-0.1,0-0.1-0.1C51.2,5,51.1,5,51,5c-0.1,0-0.3-0.1-0.4-0.1s-0.3,0-0.4,0c-0.1,0-0.3,0-0.4,0C49.5,4.9,49.2,5,49,5
		c-0.3,0.1-0.6,0.2-0.8,0.3c-0.1,0-0.2,0.1-0.3,0.1c-0.9,0.5-1.6,1.2-2.1,2L2.2,83.6c-0.2,0.3-0.3,0.6-0.5,0.9
		c-0.2,0.3-0.3,0.6-0.4,0.9c-0.4,0.9-0.7,1.7-0.9,2.4c-0.1,0.2-0.1,0.5-0.1,0.7c-0.1,0.6-0.1,1.1,0,1.6c0.2,1.5,1.1,2.5,3,2.9l0,0
		h92.4C102.3,93.1,99.6,86.6,96.7,82z M8.7,85.8l41.1-71.4L91,85.8H8.7z"/>
	<path fill="#010101" d="M34.4,49.1v31.7h3.5l0-28.4l5,5.2l24.2,8.2c4,0.1,5.9-2.9,2.1-6.5L47.8,45.8L34.4,49.1z M41.1,52.3L39,50.1
		l2.6-0.1L41.1,52.3z M67.2,60.6c0.9,0,1.6,0.7,1.6,1.5s-0.7,1.5-1.6,1.5s-1.6-0.7-1.6-1.5S66.3,60.6,67.2,60.6z M59.3,55.3l3,1.8
		c-1.6,1.3-2.5,2.8-2.2,5.1l-3.8-1.7C56.4,57.9,57.4,56.2,59.3,55.3z M50,49.7l4,2.3c-2.1,1.6-3.3,3.7-2.8,6.6l-4.9-2.2
		C46.2,53,47.4,50.8,50,49.7z"/>
</g>
</svg>
