<?xml version="1.0" encoding="utf-8"?>
<!-- Generator: Adobe Illustrator 18.1.1, SVG Export Plug-In . SVG Version: 6.00 Build 0)  -->
<svg version="1.1" id="图层_1" xmlns="http://www.w3.org/2000/svg" xmlns:xlink="http://www.w3.org/1999/xlink" x="0px" y="0px"
	 width="100" height="100" enable-background="new 0 0 100 100" xml:space="preserve">
<g>
	<path fill="#F6AB00" d="M9.1,86.5h81.6L49.9,15.8L9.1,86.5z M47.6,66.4l-10.3,3.2c-3.2,0.8-1.7,1.7-1.3,2.3l11.6,10.7h-8.2L30,72.1
		c-1.2-1.2-1.2-2.6,0-3.4l14.1-3.5c1.3-0.2,1.7-0.6,1.3-1.2l-3.9-4.9h3.3l2.8,4.5C48.5,65,48.8,65.9,47.6,66.4z M43.7,55.6
		c-1.7,3.5-4.7,1.8-3.1-1.1l-0.7-0.3v-1.6l18.9,7l-0.2,1.8l-1.1-0.4c-1.6,2.9-4.3,1.3-3.1-1.2L43.7,55.6z M61.1,69.4l-5,1.1
		c-3,0.7-1.6,1.6-1.2,2.1l11.6,10.1h-8.3l-8.8-10c-1.1-1.1-1.1-2.5,0-3.2l7.3-1.4c1.2-0.2,1.6-0.6,1.2-1.1l-3.4-3.4h3.1l4,3.3
		C62.3,68.3,62.2,68.9,61.1,69.4z M60.7,49.9C60,52,60,54.1,61.1,56l-2.1,2.9l-19.1-7l-0.4-3.4c-0.1-0.5-0.1-0.3,0.4-0.4
		c2-0.3,3.5-1.5,4.4-3.6c1.4-1.1,3.2-1.3,5.5-0.6l8.9,3.3C60.3,47.7,60.6,48.6,60.7,49.9z"/>
	<path fill="#F6AB00" d="M45.7,49l10.6,3.9c1.9,0.3,2.5-1.8,0.9-2.8l-9.3-3.5C45.9,46.6,45,47.5,45.7,49z"/>
	<path d="M99.4,90c0-0.1,0-0.3-0.1-0.4c0-0.3-0.1-0.6-0.2-0.9c-0.1-0.4-0.3-0.9-0.4-1.4c-0.1-0.2-0.1-0.3-0.2-0.5
		c-0.6-1.4-1.4-2.8-2.2-4.1l-42.4-74c-2.4-4.2-6.5-2.5-8.1,0L2.6,84.4c-0.2,0.3-0.3,0.6-0.5,0.9c-0.6,1.2-1,2.3-1.3,3.3
		c0,0.1-0.1,0.2-0.1,0.4c-0.4,1.8-0.1,3.3,1.1,4.1c0.5,0.3,1,0.6,1.8,0.7h91.7c2.8,0,3.9-1.1,4.1-2.8c0-0.1,0-0.2,0-0.4
		C99.4,90.4,99.4,90.2,99.4,90z M9.1,86.5l40.8-70.8l40.8,70.8H9.1z"/>
	<path d="M47.6,63.5L44.7,59h-3.3l3.9,4.9c0.5,0.5,0.1,0.9-1.3,1.2L30,68.6c-1.2,0.8-1.2,2.3,0,3.4l9.4,10.6h8.2L35.9,71.9
		c-0.4-0.5-1.9-1.5,1.3-2.3l10.3-3.2C48.8,65.9,48.5,65,47.6,63.5z"/>
	<path d="M54.2,63.6l3.4,3.4c0.4,0.5,0.1,0.9-1.2,1.1l-7.3,1.4c-1.1,0.8-1.1,2.1,0,3.2l8.8,10h8.3L54.8,72.6
		c-0.3-0.5-1.8-1.4,1.2-2.1l5-1.1c1.1-0.5,1.3-1.1,0.4-2.5l-4-3.3L54.2,63.6L54.2,63.6z"/>
	<path d="M44.3,44.6c-0.9,2.1-2.4,3.3-4.4,3.6c-0.5,0.1-0.4-0.1-0.4,0.4l0.4,3.4l19.1,7l2.1-2.9c-1.2-1.9-1.1-3.9-0.5-6.1
		c-0.1-1.2-0.4-2.2-2-2.6L49.8,44C47.5,43.3,45.7,43.5,44.3,44.6z M56.3,52.9L45.7,49c-0.7-1.6,0.2-2.5,2.1-2.4l9.3,3.5
		C58.8,51.2,58.2,53.3,56.3,52.9z"/>
	<path d="M57.4,60.9l1.1,0.4l0.2-1.8l-18.9-7v1.6l0.7,0.3c-1.6,3,1.4,4.7,3.1,1.1l10.7,4.1C53.1,62.3,55.8,63.8,57.4,60.9z"/>
</g>
</svg>
