<?xml version="1.0" encoding="utf-8"?>
<!-- Generator: Adobe Illustrator 18.1.1, SVG Export Plug-In . SVG Version: 6.00 Build 0)  -->
<svg version="1.1" id="图层_1" xmlns="http://www.w3.org/2000/svg" xmlns:xlink="http://www.w3.org/1999/xlink" x="0px" y="0px"
	 width="100" height="100" enable-background="new 0 0 100 100" xml:space="preserve">
<g>
	<path fill="#F4AB1C" d="M9.4,85h80.9L49.9,14.9L9.4,85z M56.5,53h1.6L58,56.6l1.5,0.1c-0.2,7.8,0,14.8,3.6,15.8
		c0.5,2.5,1.7,1.8,2.5,2.7c0.9,2.8,2.6,4.4,4.8,5.1l14,0l2,3.4H12.9l31.9-54.8l4.1,2.4c-0.5,1.7-0.4,3.1,0.3,4.3
		c-1.8,4.5-2.9,9-1.4,13.4l-0.1,7.8l8.8-0.1L56.5,53z"/>
	<path fill="#F4AB1C" d="M3,82.9L45.9,8c0.9-1.4,2.6-2.5,4.3-2.5c-1.7,0-3.4,1.1-4.3,2.5L3,82.9c-2.7,4.7-2.9,8.5,1,9.3l0,0
		C0.1,91.5,0.3,87.6,3,82.9z"/>
	<path fill="#010101" d="M95.9,81.3L53.9,8c-1-1.8-2.4-2.5-3.7-2.5c-1.7,0-3.4,1.1-4.3,2.5L3,82.9c-2.7,4.7-2.9,8.5,1,9.3h90.9l0,0
		C101.4,92.3,98.8,85.8,95.9,81.3z M9.4,85l40.4-70.1L90.3,85H9.4z"/>
	<path fill="#010101" d="M47.8,49c-1.5-4.5-0.4-9,1.4-13.4c-0.7-1.2-0.8-2.7-0.3-4.3l-4.1-2.4L12.9,83.6h73.5l-2-3.4l-14,0
		c-2.2-0.7-3.9-2.3-4.8-5.1c-0.8-0.9-2-0.2-2.5-2.7c-3.6-1.1-3.8-8-3.6-15.8L58,56.6l0.2-3.6h-1.6l0,3.7l-8.8,0.1L47.8,49z"/>
</g>
</svg>
