<?xml version="1.0" encoding="utf-8"?>
<!-- Generator: Adobe Illustrator 18.1.1, SVG Export Plug-In . SVG Version: 6.00 Build 0)  -->
<svg version="1.1" id="图层_1" xmlns="http://www.w3.org/2000/svg" xmlns:xlink="http://www.w3.org/1999/xlink" x="0px" y="0px"
	 width="30.4" height="120" enable-background="new 0 0 30.4 120" xml:space="preserve">
<path fill="#FFFFFF" d="M48.1,65.3l0-2.5"/>
<path fill="#FFFFFF" d="M30.4,72.9c0-0.5-0.1-1-0.1-1.4l0.1-29.7L8.1,19.7V0L0,31.9l8.1,29.6V43.8l16.5,16.7l0,2.7
	c-1.7-0.9-3.5-1.5-5.6-1.5c-6.3,0-11.5,5-11.5,11.1l0,12.5l-5.2,0.2l7.9,31.7l7.8-32l-4.7,0l0-12.3c0-7.3,11.2-7.2,11.2,0L24.3,94
	h0.1l-0.1,26h5.9l0.1-40.1L30.4,72.9z"/>
</svg>
