<?xml version="1.0" encoding="utf-8"?>
<!-- Generator: Adobe Illustrator 18.1.1, SVG Export Plug-In . SVG Version: 6.00 Build 0)  -->
<svg version="1.1" id="图层_1" xmlns="http://www.w3.org/2000/svg" xmlns:xlink="http://www.w3.org/1999/xlink" x="0px" y="0px"
	 width="240.8" height="44.1" enable-background="new 0 0 240.8 44.1" xml:space="preserve">
<path fill="#FFFFFF" d="M48.1,65.3l0-2.5"/>
<g>
	<polygon fill="#FFFFFF" points="0.2,2.9 0.2,13.2 34,23.5 0.2,33.8 0.2,44.1 50.8,28.6 100.7,43.9 100.7,33.7 67.5,23.5 
		100.7,13.4 100.7,3.1 50.7,18.4 	"/>
	<path fill="#FFFFFF" d="M224.8,7.2l-17.3-0.1L207.2,0l-43.9,10.9l44.2,10.8l-0.1-6.5l17,0.1c10.1,0.1,10,15.5-0.1,15.5l-103.8-0.2
		l0,8.1l104.1,0.2c8.6,0,15.5-7,15.6-15.8C240.3,14.3,233.4,7.2,224.8,7.2z"/>
</g>
</svg>
