<?xml version="1.0" encoding="utf-8"?>
<!-- Generator: Adobe Illustrator 18.1.1, SVG Export Plug-In . SVG Version: 6.00 Build 0)  -->
<svg version="1.1" id="图层_1" xmlns="http://www.w3.org/2000/svg" xmlns:xlink="http://www.w3.org/1999/xlink" x="0px" y="0px"
	 width="100" height="100" enable-background="new 0 0 100 100" xml:space="preserve">
<path fill="#F4AB1C" d="M9.6,85.5h81.9l-41-71L9.6,85.5z M88,84H13.5l2-3.4l14.2,0c2.2-0.7,3.9-2.3,4.8-5.1c0.9-0.9,2-0.2,2.6-2.7
	c3.6-1.1,3.9-8.2,3.7-16l1.5-0.1L42.1,53h1.7l0,3.8l8.9,0.1l-0.1-7.9c1.6-4.5,0.4-9.1-1.4-13.6c0.8-1.2,0.9-2.7,0.3-4.4l4.1-2.4
	L88,84z"/>
<path fill="#010101" d="M98,83.3L54.6,7.4C53.7,6,52,4.9,50.3,4.9c-1.3,0-2.7,0.7-3.8,2.6l-4,7l-3.3,5.7l-9.6,16.6l-3.8,6.6l-5.8,10
	L10.6,70l-1.3,2.3l-5.4,9.4c-1,1.5-1.9,3.2-2.5,4.9c-1.2,3.3-0.9,6.2,3.6,6.1l0,0h4.3h16.6h16.6H59h16.6h16.6H97
	C100.9,91.9,100.7,88.1,98,83.3z M91.5,85.5H9.6l41-71L91.5,85.5z"/>
<path fill="#010101" d="M51.2,35.3c1.9,4.5,3,9.1,1.4,13.6l0.1,7.9l-8.9-0.1l0-3.8h-1.7l0.2,3.7l-1.5,0.1c0.2,7.9,0,14.9-3.7,16
	c-0.5,2.5-1.7,1.8-2.6,2.7c-0.9,2.8-2.6,4.4-4.8,5.1l-14.2,0l-2,3.4H88L55.7,28.5l-4.1,2.4C52.1,32.6,52,34,51.2,35.3z"/>
</svg>
