<?xml version="1.0" encoding="utf-8"?>
<!-- Generator: Adobe Illustrator 18.1.1, SVG Export Plug-In . SVG Version: 6.00 Build 0)  -->
<svg version="1.1" id="图层_1" xmlns="http://www.w3.org/2000/svg" xmlns:xlink="http://www.w3.org/1999/xlink" x="0px" y="0px"
	width="100" height="83.5" enable-background="new 0 0 100 83.5" xml:space="preserve">
<g>
	<polygon fill="#FFFFFF" points="74.1,0 61.5,0 49,27.5 36.5,0 23.8,0 42.6,41.4 23.6,83.3 36.3,83.3 49,55.3 61.7,83.3 74.3,83.3 
		55.3,41.4 	"/>
	<path fill="#FFFFFF" d="M27.3,57.4c1.1-1.1,2.2-2.1,3.3-3.1c-3.6-1.9-6-4.9-7.2-9.1h6v-3.4H23c0.1-1.2,0.1-2.8,0.1-4.8h5.1v-3.4
		h-5.1c0-2.5,0.1-4,0.3-4.5s0.3-0.8,0.3-0.9c0-0.1-0.1-0.2-0.2-0.3s-0.5-0.1-1.2-0.1c-0.7,0-1.6,0-2.8,0v5.9h-1.8
		c0.3-1,0.5-1.6,0.7-1.8c0.2-0.2,0.3-0.4,0.3-0.6c0-0.3-0.2-0.4-0.7-0.5c-0.5-0.1-1.6-0.3-3.4-0.6c-0.4,4-1.1,7.1-2.3,9.5v-2.2h-7
		c0.3-0.6,0.7-1.4,1.1-2.3h6.9v-3.5H7.8c0.4-0.9,0.8-1.6,1.1-1.9c0.3-0.3,0.5-0.5,0.5-0.7S9.3,28.9,9,28.8s-1.6-0.5-4-1.1
		C3.9,32.9,2.2,37-0.1,39.9c1.2,0.7,2.1,1.3,2.8,2l0.7-1.1h1.7v2.8H0.9v3.5h4.3v3.7c0,0.9-0.1,1.5-0.3,2C4.6,53.2,4.4,53.6,4,54
		l2.1,3.4c1.7-1.4,4-3.1,7-5.3c-0.6-1.2-1.1-2.3-1.4-3.4c-0.8,0.8-1.8,1.7-3,2.7v-4.3h4.3v-3.5H8.6v-2.8h3.6V40c1,0.3,2,0.6,3.1,1.2
		c0.6-1.4,1.1-2.8,1.5-4.1h2.6c0,2.1-0.1,3.7-0.2,4.8h-6v3.4h5.4c-1,4.1-3.8,7.3-8.1,9.5c1.2,0.8,2.3,1.7,3.4,2.8
		c3.4-2.3,5.9-5,7.3-8.2C22.6,52.7,24.6,55.4,27.3,57.4z"/>
	<path fill="#FFFFFF" d="M93.3,39.6c1.9-2.1,3.3-5.1,4.2-8.8h-7.9c0.4-0.9,0.7-1.4,0.9-1.6s0.3-0.4,0.3-0.6c0-0.2-0.1-0.3-0.3-0.3
		s-0.8-0.2-1.7-0.3c-1-0.2-1.8-0.3-2.5-0.4c-0.9,4.5-2.3,7.7-4,9.5v-7.6H71.8v10.8h3.9V51l-1.4,0.3v-5.6c0-1.6,0.1-2.6,0.3-3
		c0.1-0.2,0.1-0.3,0.1-0.4c0-0.3-0.3-0.4-0.9-0.4h-2.8v10.2c-0.7,0.2-1.3,0.3-1.7,0.4l1.4,4.3c3.9-1.6,8-3.1,12.2-4.3
		c-0.2-0.8-0.3-1.4-0.3-2s0-1.1,0.1-1.4c-1.2,0.4-2.4,0.8-3.7,1.2v-3.2h3.2v-2.4c0.3,0.4,0.6,0.9,0.9,1.5l0.8-0.3v11.5h3.8v-1.9h4.8
		v1.9h3.9V45.4c0.2,0.1,0.6,0.3,1.1,0.4c0.7-1.3,1.5-2.5,2.5-3.8C97.4,41.5,95.1,40.7,93.3,39.6z M78.8,36.9h-3.4v-4.1h3.4V36.9z
		 M92.5,34c-0.6,1.3-1.2,2.4-2,3.4c-0.9-1-1.7-2.1-2.1-3.4H92.5z M80.8,42.7c0.3,0.3,0.6,0.6,0.7,0.8h-2.4v-3.2h3.1v-2.3
		c0.6,0.3,1.4,0.8,2.5,1.6c0.5-0.6,1-1.3,1.5-2.1c0.4,0.9,0.9,1.7,1.5,2.4C86.1,40.9,83.8,41.9,80.8,42.7z M92.7,52.4h-4.8v-4.3h4.8
		V52.4z M85.9,44.8c1.7-0.8,3.2-1.7,4.5-2.6c1.3,0.9,2.9,1.8,4.7,2.6H85.9z"/>
</g>
</svg>
