<?xml version="1.0" encoding="utf-8"?>
<!-- Generator: Adobe Illustrator 18.1.1, SVG Export Plug-In . SVG Version: 6.00 Build 0)  -->
<svg version="1.1" id="图层_1" xmlns="http://www.w3.org/2000/svg" xmlns:xlink="http://www.w3.org/1999/xlink" x="0px" y="0px"
	 width="100" height="100" enable-background="new 0 0 100 100" xml:space="preserve">
<path fill="#010101" d="M95.6,92.6H3.5c-3.9-0.7-3.8-4.6-1-9.4L45.9,7.3c1.6-2.5,5.7-4.2,8.1,0l42.6,74.3
	C99.6,86.1,102.2,92.7,95.6,92.6L95.6,92.6z"/>
<polygon fill="#F4AB1C" points="7.2,86.7 50.3,12.9 93.3,86.7 "/>
<line fill="none" stroke="#231815" stroke-width="0.216" stroke-miterlimit="2.4142" x1="90.9" y1="84.9" x2="9.6" y2="84.9"/>
<path fill="#231815" stroke="#231815" stroke-width="0.216" stroke-miterlimit="2.4142" d="M46,43.6c1.6-1.2,3.7-1.4,6.3-0.6
	l10.1,3.8c1.8,0.5,2.2,1.5,2.3,2.9c-0.7,2.5-0.8,4.8,0.5,7l-2.3,3.3l-21.8-8l-0.5-3.8c-0.1-0.5-0.1-0.4,0.4-0.5
	C43.3,47.3,44.9,46,46,43.6L46,43.6z M50,45.9l10.6,4c1.9,1.2,1.2,3.6-1,3.2l-12.1-4.5C46.8,46.9,47.8,45.8,50,45.9L50,45.9z"/>
<path fill="#231815" stroke="#231815" stroke-width="0.216" stroke-miterlimit="2.4142" d="M40.9,52.7l21.5,7.9l-0.3,2L61,62.2
	c-1.9,3.3-4.9,1.5-3.5-1.3l-12.1-4.7c-2,4-5.4,2.1-3.6-1.3l-0.8-0.3L40.9,52.7L40.9,52.7z"/>
<polygon fill="#231815" stroke="#231815" stroke-width="0.216" stroke-miterlimit="2.4142" points="49,62.3 25.5,62.3 13.4,83.3 
	49,83.3 "/>
<path fill="#231815" stroke="#231815" stroke-width="0.216" stroke-miterlimit="2.4142" d="M48.4,74.6c0,0,2,2.2,4.7,2.5
	c2.6,0.3,5.3-1.1,5.3-1.1s1.3-0.7,1.5-0.8s0.7-0.2,1.8-0.1c1,0.1,2.3,0.6,2.3,0.6s1.6,0.9,2.1,1.6c0.5,0.7,3,0.8,3,0.8
	s1.6-0.2,2.7-1s2.1-0.9,2.1-0.9s1.2-0.3,3,0.3s1.1,0.6,3.1,1.4s2.2,0.6,2.2,0.6V78c0,0-0.5-0.1-1.3-0.4c-0.8-0.3-2.4-1.1-2.4-1.1
	s-1.7-0.9-3.3-1.1c-1.6-0.1-2.5,0.4-2.5,0.4s-1.2,0.6-2,1.1s-1.7,0.5-1.7,0.5s-0.9,0-1.6-0.1c-0.7-0.2-1-0.5-1.3-0.8s-1.3-1.2-3-1.6
	s-3.6,0-3.6,0s-2.6,1.5-4.3,1.7s-1.8,0.1-2.8-0.1s-2.2-1.1-2.2-1.1l-1-0.8L48.4,74.6z"/>
<path fill="#231815" stroke="#231815" stroke-width="0.216" stroke-miterlimit="2.4142" d="M47.8,79c0,0,2,2.2,4.7,2.5
	c2.6,0.3,5.3-1.1,5.3-1.1s1.3-0.7,1.5-0.8s0.7-0.2,1.8-0.1c1,0.1,2.3,0.6,2.3,0.6s1.6,0.9,2.1,1.6c0.5,0.7,3,0.8,3,0.8
	s1.6-0.2,2.7-1s2.1-0.9,2.1-0.9s1.2-0.3,3,0.3c1.8,0.7,1.1,0.6,3.1,1.4s2.2,0.6,2.2,0.6v-0.4c0,0-0.5-0.1-1.3-0.4
	c-0.8-0.3-2.4-1.1-2.4-1.1s-1.7-0.9-3.3-1.1S72,80.2,72,80.2s-1.2,0.6-2,1.1s-1.7,0.5-1.7,0.5s-0.9,0-1.6-0.1s-1-0.5-1.3-0.8
	s-1.3-1.2-3-1.6c-1.7-0.5-3.6,0-3.6,0s-2.6,1.5-4.3,1.7c-1.7,0.2-1.8,0.1-2.8-0.1c-0.9-0.2-2.2-1.1-2.2-1.1l-1-0.8L47.8,79z"/>
<path fill="#231815" stroke="#231815" stroke-width="0.216" stroke-miterlimit="2.4142" d="M46.7,76.8c0,0,2,2.2,4.7,2.5
	c2.6,0.3,5.3-1.1,5.3-1.1s1.3-0.7,1.5-0.8s0.7-0.2,1.8-0.1c1,0.1,2.3,0.6,2.3,0.6s1.6,0.9,2.1,1.6c0.5,0.7,3,0.8,3,0.8
	s1.6-0.2,2.7-1s2.1-0.9,2.1-0.9s1.2-0.3,3,0.3c1.8,0.7,1.1,0.6,3.1,1.4s2.2,0.6,2.2,0.6v-0.4c0,0-0.5-0.1-1.3-0.4
	c-0.8-0.3-2.4-1.1-2.4-1.1s-1.7-0.9-3.3-1.1c-1.6-0.1-2.5,0.4-2.5,0.4s-1.2,0.6-2,1.1s-1.7,0.5-1.7,0.5s-0.9,0-1.6-0.1
	c-0.7-0.2-1-0.5-1.3-0.8s-1.3-1.2-3-1.6c-1.7-0.5-3.6,0-3.6,0s-2.6,1.5-4.3,1.7c-1.7,0.2-1.8,0.1-2.8-0.1c-0.9-0.2-2.2-1.1-2.2-1.1
	l-1-0.8L46.7,76.8z"/>
<path fill="#231815" stroke="#231815" stroke-width="0.216" stroke-miterlimit="2.4142" d="M47.5,80.9c0,0,2,2.2,4.7,2.5
	c2.6,0.3,5.3-1.1,5.3-1.1s1.3-0.7,1.5-0.8c0.1-0.1,0.7-0.2,1.8-0.1c1,0.1,2.3,0.6,2.3,0.6s1.6,0.9,2.1,1.6c0.5,0.7,3,0.8,3,0.8
	s1.6-0.2,2.7-1s2.1-0.9,2.1-0.9s1.2-0.3,3,0.3c1.8,0.7,1.1,0.6,3.1,1.4s2.2,0.6,2.2,0.6v-0.4c0,0-0.5-0.1-1.3-0.4
	c-0.8-0.3-2.4-1.1-2.4-1.1s-1.7-0.9-3.3-1.1c-1.6-0.1-2.5,0.4-2.5,0.4s-1.2,0.6-2,1.1s-1.7,0.5-1.7,0.5s-0.9,0-1.6-0.1
	c-0.7-0.2-1-0.5-1.3-0.8s-1.3-1.2-3-1.6c-1.7-0.5-3.6,0-3.6,0s-2.6,1.5-4.3,1.7c-1.7,0.2-1.8,0.1-2.8-0.1c-0.9-0.2-2.2-1.1-2.2-1.1
	l-1-0.8L47.5,80.9z"/>
<path fill="#F4AB1C" d="M59.6,53.1l-12.1-4.5c0,0-0.6-0.9-0.1-1.9c0.5-1,2.3-0.8,2.3-0.8l10.7,3.9c0,0,0.9,0.4,1,1.1
	c0.2,0.7,0.2,1.2-0.3,1.8C60.9,53.3,59.6,53.1,59.6,53.1z"/>
</svg>
