<?xml version="1.0" encoding="utf-8"?>
<!-- Generator: Adobe Illustrator 18.1.1, SVG Export Plug-In . SVG Version: 6.00 Build 0)  -->
<svg version="1.1" id="图层_1" xmlns="http://www.w3.org/2000/svg" xmlns:xlink="http://www.w3.org/1999/xlink" x="0px" y="0px"
	 width="100" height="100" enable-background="new 0 0 100 100" xml:space="preserve">
<path fill="#010101" d="M95.9,93.7H3.6c-3.9-0.7-3.8-4.6-1-9.4L46.1,8.1c1.6-2.6,5.8-4.2,8.2,0L97,82.6
	C99.9,87.2,102.6,93.8,95.9,93.7L95.9,93.7z"/>
<polygon fill="#F4AB1C" points="7.3,87.8 50.5,13.7 93.6,87.8 "/>
<line fill="none" stroke="#231815" stroke-width="0.216" stroke-miterlimit="2.4142" x1="91.2" y1="85.9" x2="9.6" y2="85.9"/>
<path fill="#231815" stroke="#231815" stroke-width="0.216" stroke-miterlimit="2.4142" d="M54.6,44.5c1.1,2.4,2.7,3.8,5,4.1
	c0.5,0.1,0.5-0.1,0.4,0.5l-0.5,3.8l-21.8,8l-2.4-3.4c1.3-2.1,1.3-4.5,0.5-7c0.1-1.4,0.5-2.5,2.3-2.9l10.1-3.8
	C51,43,53.1,43.2,54.6,44.5L54.6,44.5z M50.6,46.9c2.2-0.1,3.2,0.9,2.4,2.7l-12.1,4.5c-2.2,0.4-2.9-2-1-3.2L50.6,46.9L50.6,46.9z"/>
<path fill="#231815" stroke="#231815" stroke-width="0.216" stroke-miterlimit="2.4142" d="M59.7,53.7l-21.6,8l0.3,2.1l1.2-0.5
	c1.9,3.3,4.9,1.5,3.5-1.3l12.2-4.7c2,4,5.4,2.1,3.6-1.3l0.8-0.3L59.7,53.7L59.7,53.7z"/>
<polygon fill="#231815" stroke="#231815" stroke-width="0.216" stroke-miterlimit="2.4142" points="51.6,63.3 75.2,63.3 87.3,84.3 
	51.6,84.3 "/>
<path fill="#231815" stroke="#231815" stroke-width="0.216" stroke-miterlimit="2.4142" d="M52.3,75.7c0,0-2.1,2.2-4.7,2.5
	c-2.6,0.3-5.3-1.1-5.3-1.1s-1.3-0.7-1.5-0.8S40,76.1,39,76.2c-1,0.1-2.3,0.6-2.3,0.6s-1.6,0.9-2.1,1.6c-0.5,0.7-3,0.8-3,0.8
	s-1.6-0.2-2.8-1c-1.1-0.8-2.1-0.9-2.1-0.9s-1.2-0.3-3,0.3c-1.8,0.7-1.1,0.6-3.1,1.4c-2,0.9-2.2,0.6-2.2,0.6V79c0,0,0.5-0.1,1.3-0.4
	c0.8-0.3,2.4-1.1,2.4-1.1s1.7-0.9,3.3-1.1c1.6-0.1,2.5,0.4,2.5,0.4s1.2,0.6,2,1.1c0.7,0.5,1.7,0.5,1.7,0.5s0.9,0,1.6-0.1
	c0.7-0.2,1-0.5,1.3-0.8c0.4-0.3,1.3-1.2,3-1.6c1.7-0.5,3.6,0,3.6,0s2.6,1.5,4.4,1.7s1.8,0.1,2.8-0.1c1-0.2,2.2-1.1,2.2-1.1l1-0.8
	L52.3,75.7z"/>
<path fill="#231815" stroke="#231815" stroke-width="0.216" stroke-miterlimit="2.4142" d="M52.8,80c0,0-2.1,2.2-4.7,2.5
	c-2.6,0.3-5.3-1.1-5.3-1.1s-1.3-0.7-1.5-0.8s-0.7-0.2-1.8-0.1c-1,0.1-2.3,0.6-2.3,0.6s-1.6,0.9-2.1,1.6c-0.5,0.7-3,0.8-3,0.8
	s-1.6-0.2-2.8-1c-1.1-0.8-2.1-0.9-2.1-0.9s-1.2-0.3-3,0.3c-1.8,0.7-1.1,0.6-3.1,1.4c-2,0.9-2.2,0.6-2.2,0.6v-0.4
	c0,0,0.5-0.1,1.3-0.4c0.8-0.3,2.4-1.1,2.4-1.1s1.7-0.9,3.3-1.1c1.6-0.1,2.5,0.4,2.5,0.4s1.2,0.6,2,1.1c0.7,0.5,1.7,0.5,1.7,0.5
	s0.9,0,1.6-0.1c0.7-0.2,1-0.5,1.3-0.8c0.4-0.3,1.3-1.2,3-1.6c1.7-0.5,3.6,0,3.6,0s2.6,1.5,4.4,1.7c1.7,0.2,1.8,0.1,2.8-0.1
	s2.2-1.1,2.2-1.1l1-0.8L52.8,80z"/>
<path fill="#231815" stroke="#231815" stroke-width="0.216" stroke-miterlimit="2.4142" d="M53.9,77.8c0,0-2.1,2.2-4.7,2.5
	c-2.6,0.3-5.3-1.1-5.3-1.1s-1.3-0.7-1.5-0.8c-0.1-0.1-0.7-0.2-1.8-0.1c-1,0.1-2.3,0.6-2.3,0.6s-1.6,0.9-2.1,1.6
	c-0.5,0.7-3,0.8-3,0.8s-1.6-0.2-2.8-1s-2.1-0.9-2.1-0.9s-1.2-0.3-3,0.3c-1.8,0.7-1.1,0.6-3.1,1.4s-2.2,0.6-2.2,0.6v-0.4
	c0,0,0.5-0.1,1.3-0.4c0.8-0.3,2.4-1.1,2.4-1.1s1.7-0.9,3.3-1.1c1.6-0.1,2.5,0.4,2.5,0.4s1.2,0.6,2,1.1c0.7,0.5,1.7,0.5,1.7,0.5
	s0.9,0,1.6-0.1c0.7-0.2,1-0.5,1.3-0.8c0.4-0.3,1.3-1.2,3-1.6c1.7-0.5,3.6,0,3.6,0s2.6,1.5,4.4,1.7c1.7,0.2,1.8,0.1,2.8-0.1
	c1-0.2,2.2-1.1,2.2-1.1l1-0.8L53.9,77.8z"/>
<path fill="#231815" stroke="#231815" stroke-width="0.216" stroke-miterlimit="2.4142" d="M53.1,82c0,0-2.1,2.2-4.7,2.5
	s-5.3-1.1-5.3-1.1s-1.3-0.7-1.5-0.8s-0.7-0.2-1.8-0.1c-1,0.1-2.3,0.6-2.3,0.6s-1.6,0.9-2.1,1.6c-0.5,0.7-3,0.8-3,0.8s-1.6-0.2-2.8-1
	c-1.1-0.8-2.1-1-2.1-1s-1.2-0.3-3,0.3c-1.8,0.7-1.1,0.6-3.1,1.4s60.1,0.6,60.1,0.6l-62.3-0.4c0,0,0.5-0.1,1.3-0.4
	c0.8-0.3,2.4-1.1,2.4-1.1s1.7-0.9,3.3-1.1c1.6-0.1,2.5,0.4,2.5,0.4s1.2,0.6,2,1.1c0.7,0.5,1.7,0.5,1.7,0.5s0.9,0,1.6-0.1
	c0.7-0.2,1-0.5,1.3-0.8c0.4-0.3,1.3-1.2,3-1.6c1.7-0.5,3.6,0,3.6,0s2.6,1.5,4.4,1.7s1.8,0.1,2.8-0.1c1-0.2,2.2-1.1,2.2-1.1l1-0.8
	L53.1,82z"/>
<path fill="#F4AB1C" d="M40.9,54.1L53,49.6c0,0,0.6-0.9,0.1-1.9c-0.5-1-2.3-0.8-2.3-0.8l-10.8,4c0,0-0.9,0.4-1,1.1
	c-0.2,0.7-0.2,1.2,0.3,1.8C39.7,54.2,40.9,54.1,40.9,54.1z"/>
</svg>
