<?xml version="1.0" encoding="utf-8"?>
<!-- Generator: Adobe Illustrator 18.1.1, SVG Export Plug-In . SVG Version: 6.00 Build 0)  -->
<svg version="1.1" id="图层_1" xmlns="http://www.w3.org/2000/svg" xmlns:xlink="http://www.w3.org/1999/xlink" x="0px" y="0px"
	 width="100" height="100" enable-background="new 0 0 100 100" xml:space="preserve">
<g>
	<rect x="27.5" y="72" fill="#F4AB1C" width="2.6" height="6"/>
	<rect x="27.5" y="67.3" fill="#F4AB1C" width="2.6" height="2.7"/>
	<path fill="#F4AB1C" d="M3.3,82.2L45.7,7.4c0.9-1.4,2.6-2.5,4.3-2.5c-1.7,0-3.4,1.1-4.3,2.5L3.3,82.2c-2.7,4.7-2.8,8.5,1,9.2l0,0
		C0.5,90.7,0.6,86.9,3.3,82.2z"/>
	<path fill="#F4AB1C" d="M9.7,84.3h79.9l-40-70L9.7,84.3z M63.3,59.1l-1.5,0l2.4,4h-2.3l2.7,4.9l-7.6-0.1l0,9.7l27.2,0.2l2,4.7H12.7
		l22.5-39L48,54.2l-3.8-0.1l0.3,23.5l8.7,0.1l0-9.5l-7,0l2.5-5.1l-2,0l2.5-3.8l-2,0.1L54.9,42L63.3,59.1z"/>
	<rect x="32.4" y="72" fill="#F4AB1C" width="2.6" height="6"/>
	<rect x="32.4" y="67.3" fill="#F4AB1C" width="2.6" height="2.7"/>
	<path fill="#010101" d="M95.2,80.6L53.6,7.4c-1-1.8-2.4-2.5-3.7-2.5c-1.7,0-3.4,1.1-4.3,2.5L3.3,82.2c-2.7,4.7-2.8,8.5,1,9.2h89.8
		l0,0C100.6,91.5,98,85.1,95.2,80.6z M9.7,84.3l40-70l40,70H9.7z"/>
	<path fill="#010101" d="M49.2,59.2L46.7,63l2,0l-2.5,5.1l7,0l0,9.5l-8.7-0.1l-0.3-23.5l3.8,0.1L35.2,43.5l-22.5,39h73.6l-2-4.7
		l-27.2-0.2l0-9.7l7.6,0.1l-2.7-4.9h2.3l-2.4-4l1.5,0L54.9,42l-7.7,17.3L49.2,59.2z M30.1,78h-2.6v-6h2.6V78z M30.1,70h-2.6v-2.7
		h2.6V70z M35,78h-2.6v-6H35V78z M35,70h-2.6v-2.7H35V70z"/>
</g>
</svg>
