<?xml version="1.0" encoding="utf-8"?>
<!-- Generator: Adobe Illustrator 18.1.1, SVG Export Plug-In . SVG Version: 6.00 Build 0)  -->
<svg version="1.1" id="图层_1" xmlns="http://www.w3.org/2000/svg" xmlns:xlink="http://www.w3.org/1999/xlink" x="0px" y="0px"
	width="100" height="100" enable-background="new 0 0 100 100" xml:space="preserve">
<g>
	<path fill="#F4AB1C" d="M48,5.8c0.1,0,0.2-0.1,0.3-0.1C48.2,5.8,48.1,5.8,48,5.8z"/>
	<path fill="#F4AB1C" d="M47,6.3c0.3-0.2,0.7-0.3,1.1-0.4C47.7,5.9,47.3,6.1,47,6.3z"/>
	<path fill="#F4AB1C" d="M8.4,85.3h81L48.9,15.1L8.4,85.3z M37.7,80.5L44.4,68h7.4l7.8,12.5H37.7z M60.3,80.4
		c-2.5-4.2-5-8.3-7.6-12.5c0-3.4,0-6.8,0-10.2c-2.1-4.9-7.3-4.5-8.9,0.1v10.1l-7,12.5V54.8c4.8-10.5,17.9-12.3,23.5,0.5L60.3,80.4
		L60.3,80.4z M64.6,54.6v26.3h-3.6l0-26.2c-4.1-11.2-19.6-13.4-25.4,0v26.2h-3.2V54.4C38.5,37.9,59,37.8,64.6,54.6z"/>
	<path fill="#F4AB1C" d="M48.3,5.8c0.3-0.1,0.6-0.1,0.9-0.1C48.9,5.7,48.6,5.7,48.3,5.8z"/>
	<path fill="#F4AB1C" d="M46.1,6.8c0.1-0.1,0.2-0.2,0.4-0.3C46.4,6.6,46.2,6.7,46.1,6.8z"/>
	<path fill="#F4AB1C" d="M46.5,6.6c0.1-0.1,0.2-0.1,0.2-0.2C46.6,6.4,46.5,6.5,46.5,6.6z"/>
	<path fill="#F4AB1C" d="M45.6,7.3c0.1-0.1,0.1-0.1,0.2-0.2C45.7,7.2,45.6,7.2,45.6,7.3z"/>
	<path fill="#F4AB1C" d="M45.1,7.9c0.1-0.1,0.1-0.2,0.2-0.2C45.2,7.7,45.2,7.8,45.1,7.9z"/>
	<path fill="#F4AB1C" d="M45.8,7.1C45.9,7,46,6.9,46.1,6.8C46,6.9,45.9,7,45.8,7.1z"/>
	<path fill="#010101" d="M98,88.5c0-0.1,0-0.3-0.1-0.4c0-0.1-0.1-0.3-0.1-0.4c0-0.1,0-0.1-0.1-0.2c-0.1-0.3-0.2-0.6-0.3-0.9
		c-0.1-0.4-0.3-0.8-0.4-1.1c-0.1-0.2-0.1-0.3-0.2-0.5c-0.5-1.2-1.2-2.3-1.9-3.4L52.9,8.2c-0.2-0.3-0.4-0.6-0.6-0.9
		c-0.1-0.1-0.2-0.2-0.3-0.3C52,7,52,7,51.9,6.9c-0.3-0.3-0.5-0.5-0.8-0.6c-0.1,0-0.1-0.1-0.1-0.1c-0.2-0.1-0.5-0.2-0.7-0.3
		c-0.1,0-0.1,0-0.1,0c-0.3-0.1-0.7-0.1-1-0.1c-0.3,0-0.6,0-0.9,0.1c-0.1,0-0.2,0-0.3,0.1c-0.4,0.1-0.7,0.2-1.1,0.4
		c-0.1,0.1-0.2,0.1-0.3,0.1c-0.1,0.1-0.2,0.1-0.2,0.2c-0.1,0.1-0.2,0.2-0.4,0.3C46,6.9,45.9,7,45.8,7.1c-0.1,0.1-0.1,0.1-0.2,0.2
		c-0.1,0.1-0.2,0.2-0.3,0.3c-0.1,0.1-0.1,0.2-0.2,0.2C45,8,44.9,8.1,44.8,8.2L2,83.2c-2.7,4.7-2.9,8.5,1,9.3h91l0,0
		c2.9,0,4-1.2,4.1-2.9c0-0.1,0-0.1,0-0.2C98,89.1,98,88.8,98,88.5z M8.4,85.3l40.5-70.2l40.5,70.2H8.4z"/>
	<polygon fill="#010101" points="44.4,68 37.7,80.5 59.6,80.5 51.8,68 	"/>
	<path fill="#010101" d="M32.3,54.4v26.4h3.2V54.7c5.8-13.5,21.3-11.2,25.4,0l0,26.2h3.6V54.6C59,37.8,38.5,37.9,32.3,54.4z"/>
	<path fill="#010101" d="M36.8,54.8v25.5l7-12.5V57.7c1.6-4.6,6.9-5,8.9-0.1c0,3.4,0,6.8,0,10.2c2.5,4.2,5,8.3,7.6,12.5v-25
		C54.7,42.5,41.7,44.3,36.8,54.8z"/>
</g>
</svg>
