<?xml version="1.0" encoding="utf-8"?>
<!-- Generator: Adobe Illustrator 18.1.1, SVG Export Plug-In . SVG Version: 6.00 Build 0)  -->
<svg version="1.1" id="图层_1" xmlns="http://www.w3.org/2000/svg" xmlns:xlink="http://www.w3.org/1999/xlink" x="0px" y="0px"
	 width="100" height="100" enable-background="new 0 0 100 100" xml:space="preserve">
<g>
	<path fill="#F4AB1C" d="M41.7,66.7c0.5,0,1-0.4,1-1c0-0.5-0.4-1-1-1c-0.5,0-1,0.4-1,1C40.7,66.3,41.2,66.7,41.7,66.7z"/>
	<polygon fill="#F4AB1C" points="58.7,57.4 57.1,57.4 57.1,60.7 61.7,60.7 	"/>
	<path fill="#F4AB1C" d="M59.9,66.7c0.5,0,1-0.4,1-1c0-0.5-0.4-1-1-1c-0.5,0-1,0.4-1,1C58.9,66.3,59.4,66.7,59.9,66.7z"/>
	<polygon fill="#F4AB1C" points="49.9,60.7 49.9,57.4 46.8,57.4 43.5,60.7 	"/>
	<rect x="51.4" y="57.4" fill="#F8991D" width="3.8" height="3.3"/>
	<path fill="#F4AB1C" d="M10,84.9h80.4L50.2,15.2L10,84.9z M35.6,79.1c-2.9-0.1-5.2-1.2-6.7-3.4c3.9,1.5,7.6,2,11.1,0
		c4.7-0.4,4.8,1.1,5.4,2.8C43.1,75.9,39.4,77.2,35.6,79.1z M63.3,79.4c-2.5-1.6-5.5-1.8-8.8-1.2c1.5-1.2,3.4-1.7,5.8-1.4
		c2.7,1.6,5.4,2.8,7.6,1.5C67.2,79.2,67,80.2,63.3,79.4z M61.1,74.8c3.5,2.3,8.9,1.7,14,0.7c-3.4,1.7-6.7,2.6-9.6,1.9
		c-1.7-0.8-3.7-1.3-5.9-1.7c-5.5,0.5-9.7-0.6-12.8-2.9l-1.6,0l1.9,2.2c-1.8-0.5-3.7-0.9-5.9-0.5c-3.6,1.8-7.6,2-12.1-0.4
		c-1.1-0.9-2.6-1.3-4.7-1.1c1.1-1.2,2.7-1.7,5-1.6l-1.9-5.4H34l1.4,1.7h4.9c-0.7-0.5-1.2-1.3-1.2-2.2c0-1.4,1.2-2.6,2.6-2.6
		s2.6,1.2,2.6,2.6c0,0.9-0.5,1.7-1.2,2.2h15.5c-0.7-0.5-1.2-1.3-1.2-2.2c0-1.4,1.2-2.6,2.6-2.6s2.6,1.2,2.6,2.6
		c0,0.9-0.5,1.7-1.2,2.2h12.2c-1.5,3.4-1.3,7.7-11.2,6.7c-1.9-1.4-3.9-1.6-6-0.6C58.4,75,60.3,74.3,61.1,74.8z M66.4,60.9l2.1,0V66
		h-4.8c-0.8-4.3-6.6-4.6-7.1,0H45c0-4.5-6.1-5.5-6.5,0h-4.2V60h7.3l5.1-4.3l12.5,0.1L66.4,60.9z"/>
	<path fill="#010101" d="M96,81.2L54.2,8.3c-2.4-4.1-6.4-2.5-8,0L3.6,82.8c-2.7,4.7-2.8,8.5,1,9.2H95C101.4,92.1,98.8,85.7,96,81.2z
		 M10,84.9l40.2-69.7l40.2,69.7H10z"/>
	<path fill="#010101" d="M41.5,60h-7.3V66h4.2c0.4-5.5,6.5-4.5,6.5,0h11.5c0.5-4.6,6.4-4.3,7.1,0h4.8v-5.1l-2.1,0l-7.2-5.1
		l-12.5-0.1L41.5,60z M57.1,57.4h1.6l3,3.3h-4.6V57.4z M51.4,57.4h3.8v3.3h-3.8V57.4z M49.9,57.4v3.3h-6.3l3.2-3.3H49.9z"/>
	<path fill="#010101" d="M62.4,74.6c9.9,1,9.7-3.3,11.2-6.7H61.3c0.7-0.5,1.2-1.3,1.2-2.2c0-1.4-1.2-2.6-2.6-2.6
		c-1.4,0-2.6,1.2-2.6,2.6c0,0.9,0.5,1.7,1.2,2.2H43.1c0.7-0.5,1.2-1.3,1.2-2.2c0-1.4-1.2-2.6-2.6-2.6s-2.6,1.2-2.6,2.6
		c0,0.9,0.5,1.7,1.2,2.2h-4.9L34,66.2h-6.7l1.9,5.4c-2.2-0.2-3.9,0.3-5,1.6c2.1-0.3,3.6,0.2,4.7,1.1c4.5,2.4,8.5,2.2,12.1,0.4
		c2.3-0.4,4.1-0.1,5.9,0.5L45.1,73l1.6,0c3.2,2.3,7.3,3.4,12.8,2.9c2.2,0.3,4.2,0.9,5.9,1.7c2.9,0.7,6.2-0.3,9.6-1.9
		c-5.1,0.9-10.6,1.6-14-0.7c-0.9-0.6-2.7,0.2-4.7-0.9C58.5,73,60.5,73.2,62.4,74.6z M59.9,64.7c0.5,0,1,0.4,1,1c0,0.5-0.4,1-1,1
		c-0.5,0-1-0.4-1-1C58.9,65.2,59.4,64.7,59.9,64.7z M41.7,64.7c0.5,0,1,0.4,1,1c0,0.5-0.4,1-1,1c-0.5,0-1-0.4-1-1
		C40.7,65.2,41.2,64.7,41.7,64.7z"/>
	<path fill="#010101" d="M40,75.6c-3.5,2-7.3,1.5-11.1,0c1.5,2.2,3.7,3.4,6.7,3.4c3.8-1.8,7.4-3.1,9.8-0.7
		C44.8,76.7,44.8,75.2,40,75.6z"/>
	<path fill="#010101" d="M60.3,76.7c-2.3-0.3-4.3,0.2-5.8,1.4c3.3-0.5,6.3-0.4,8.8,1.2c3.7,0.8,3.9-0.1,4.6-1.2
		C65.7,79.5,63,78.3,60.3,76.7z"/>
</g>
</svg>
