<?xml version="1.0" encoding="utf-8"?>
<!-- Generator: Adobe Illustrator 18.1.1, SVG Export Plug-In . SVG Version: 6.00 Build 0)  -->
<svg version="1.1" id="图层_1" xmlns="http://www.w3.org/2000/svg" xmlns:xlink="http://www.w3.org/1999/xlink" x="0px" y="0px"
	 width="72.7" height="72.7" enable-background="new 0 0 72.7 72.7" xml:space="preserve">
<g id="图层_1_1_">
	<circle fill="#010101" cx="36.4" cy="36.4" r="36.4"/>
	<circle fill="#ED2224" cx="36.2" cy="36.7" r="32.4"/>
	<path fill="#FFFFFF" d="M3.8,40.4L43,68.8c0,0,2.5,0.2,8.9-3.4c6.4-3.6,7.3-5.6,7.3-5.6L6.4,24c0,0-1.6,2.6-2.4,7.9
		S3.8,40.4,3.8,40.4z"/>
	<path fill="#FFFFFF" d="M28.6,4.9l40,26.2c0,0,1,2.2,0,9.4c-1.1,7.1-2.6,8.7-2.6,8.7l-51.7-36c0,0,1.9-2.4,6.5-4.9
		S28.6,4.9,28.6,4.9z"/>
	<circle fill="#010101" cx="36" cy="37.3" r="8.7"/>
	<circle fill="#ED2224" cx="35.9" cy="37" r="5.8"/>
</g>
<g id="图层_2">
</g>
</svg>
