<?xml version="1.0" encoding="utf-8"?>
<!-- Generator: Adobe Illustrator 18.1.1, SVG Export Plug-In . SVG Version: 6.00 Build 0)  -->
<svg version="1.1" id="图层_1" xmlns="http://www.w3.org/2000/svg" xmlns:xlink="http://www.w3.org/1999/xlink" x="0px" y="0px"
	 width="100" height="100" enable-background="new 0 0 100 100" xml:space="preserve">
<g>
	<path fill="#F4AB1C" d="M10.1,84h79.7L49.9,14.9L10.1,84z M60.8,61.1l6.5,6.6h10.2v8.9H56.4L55.9,67c-2.2-5.1-9.1-4.9-11.6-0.2
		l-0.1,9.9H22.5v-8.9h10.6l6.6-6.1C46.1,54.5,53.1,54.4,60.8,61.1z"/>
	<path fill="#F4AB1C" d="M3.8,81.9L46,8.2c0.9-1.4,2.6-2.5,4.2-2.5c-1.7,0-3.3,1.1-4.2,2.5L3.8,81.9c-2.7,4.6-2.8,8.4,1,9.1l0,0
		C1,90.3,1.1,86.6,3.8,81.9z"/>
	<path fill="#010101" d="M95.3,80.4L53.9,8.2c-1-1.8-2.4-2.5-3.7-2.5c-1.7,0-3.3,1.1-4.2,2.5L3.8,81.9c-2.7,4.6-2.8,8.4,1,9.1h89.5
		l0,0C100.7,91.1,98.1,84.8,95.3,80.4z M10.1,84l39.8-69.1L89.8,84H10.1z"/>
	<path fill="#010101" d="M39.7,61.6l-6.6,6.1H22.5v8.9h21.8l0.1-9.9c2.5-4.7,9.4-4.9,11.6,0.2l0.4,9.6h21.2v-8.9H67.3l-6.5-6.6
		C53.1,54.4,46.1,54.5,39.7,61.6z"/>
</g>
</svg>
