<?xml version="1.0" encoding="utf-8"?>
<!-- Generator: Adobe Illustrator 18.1.1, SVG Export Plug-In . SVG Version: 6.00 Build 0)  -->
<svg version="1.1" id="图层_1" xmlns="http://www.w3.org/2000/svg" xmlns:xlink="http://www.w3.org/1999/xlink" x="0px" y="0px"
	 width="44.1" height="123.9" enable-background="new 0 0 44.1 123.9" xml:space="preserve">
<g id="图层_1_1_">
	<path fill="#FFFFFF" d="M42,120.4H2.1c-1.1,0-2.1-0.9-2.1-2.1V4.1C0,3,0.9,2,2.1,2H42c1.1,0,2.1,0.9,2.1,2.1v114.2
		C44.1,119.6,43.1,120.4,42,120.4z"/>
	<ellipse fill="#FFFFFF" cx="22.1" cy="118.6" rx="22" ry="5.4"/>
	<path fill="#393A39" d="M41,118.9H3.3c-1.1,0-2.1-0.9-2.1-2.1V5.3c0-1.1,0.9-2.1,2.1-2.1h37.9c1.1,0,2.1,0.9,2.1,2.1v111.6
		C43.1,118.1,42.3,118.9,41,118.9z"/>
	<ellipse fill="#020202" cx="22.9" cy="32" rx="17.8" ry="20.9"/>
	<ellipse fill="#020202" cx="22.6" cy="90.3" rx="17.8" ry="20.9"/>
	<circle fill="#D02029" cx="22.6" cy="34.6" r="15.6"/>
	<circle fill="#41B649" cx="22.9" cy="93.2" r="15.6"/>
	<ellipse fill="#393A39" cx="22.1" cy="116.8" rx="21" ry="5.3"/>
	<ellipse fill="#393A39" cx="22.1" cy="4.4" rx="21" ry="3.4"/>
	<ellipse fill="#020202" cx="22.4" cy="1.1" rx="5.1" ry="1.1"/>
</g>
</svg>
