<?xml version="1.0" encoding="utf-8"?>
<!-- Generator: Adobe Illustrator 18.1.1, SVG Export Plug-In . SVG Version: 6.00 Build 0)  -->
<svg version="1.1" id="图层_1" xmlns="http://www.w3.org/2000/svg" xmlns:xlink="http://www.w3.org/1999/xlink" x="0px" y="0px"
	 width="200" height="44.5" enable-background="new 0 0 200 44.5" xml:space="preserve">
<path fill="#383938" d="M182,44.5H18c-9.9,0-18-8-18-18l0,0c0-9.9,8-18,18-18H182c9.9,0,18,8,18,18l0,0
	C200,36.4,191.9,44.5,182,44.5z"/>
<ellipse fill="#010101" cx="29.5" cy="21.9" rx="18.2" ry="21.5"/>
<ellipse fill="#010101" cx="121.9" cy="21.6" rx="18.2" ry="21.5"/>
<circle fill="#D02027" cx="29.2" cy="24.7" r="16.1"/>
<circle fill="#3FB549" cx="122.3" cy="24.5" r="16.1"/>
<ellipse fill="#010101" cx="170.7" cy="21.9" rx="18.2" ry="21.5"/>
<circle fill="#0A88C3" cx="171.1" cy="24.9" r="16.1"/>
<ellipse fill="#010101" cx="75.2" cy="21.6" rx="18.2" ry="21.5"/>
<circle fill="#F6EB16" cx="75.5" cy="24.5" r="16.1"/>
</svg>
