<?xml version="1.0" encoding="utf-8"?>
<!-- Generator: Adobe Illustrator 18.1.1, SVG Export Plug-In . SVG Version: 6.00 Build 0)  -->
<svg version="1.1" id="图层_1" xmlns="http://www.w3.org/2000/svg" xmlns:xlink="http://www.w3.org/1999/xlink" x="0px" y="0px"
	 width="100" height="100" enable-background="new 0 0 100 100" xml:space="preserve">
<g>
	<path fill="#F4AB1C" d="M9.8,84.4h80L49.8,15L9.8,84.4z M57.3,65.8c5.5-3.1,9.8-1.2,13.7,2.9h2.8V77H28.4v-8.2h2
		c7-7.2,12.8-4.9,18.3,0h4L57.3,65.8z"/>
	<path fill="#010101" d="M95.4,80.7L53.8,8.2c-2.3-4.1-6.3-2.5-7.9,0L3.5,82.3c-0.3,0.4-0.5,0.9-0.7,1.3c-0.7,1.5-1.2,2.9-1.3,4.1
		c0,0.1,0,0.2,0,0.3c0,1.3,0.5,2.2,1.4,2.9c0.4,0.3,0.9,0.4,1.5,0.6h89.9C100.8,91.5,98.2,85.2,95.4,80.7z M9.8,84.4l40-69.4
		l40,69.4L9.8,84.4L9.8,84.4z"/>
	<path fill="#010101" d="M30.4,68.8h-2V77h45.3v-8.2H71c-3.9-4.2-8.3-6.1-13.7-2.9l-4.6,2.9h-4C43.3,63.9,37.5,61.6,30.4,68.8z"/>
</g>
</svg>
