<?xml version="1.0" encoding="utf-8"?>
<!-- Generator: Adobe Illustrator 18.1.1, SVG Export Plug-In . SVG Version: 6.00 Build 0)  -->
<svg version="1.1" id="图层_1" xmlns="http://www.w3.org/2000/svg" xmlns:xlink="http://www.w3.org/1999/xlink" x="0px" y="0px"
	 width="100" height="100" enable-background="new 0 0 100 100" xml:space="preserve">
<g>
	<path fill="#F4AB1C" d="M9.9,84.3h80.5L50.2,14.6L9.9,84.3z M59.6,54.9c0.7,0.3,0.7,0.2,0.9,0.9l1.3,4.2c1.2,0.6,1.7,1.5,1.4,2.8
		l-0.6,5.9h-0.9v2.4c0,0.6-0.4,1-0.8,1.1h1.3v-0.1c3.1-3.5,6.9-5.8,11.7-6.2c3.8,0.2,5.1,5.2,0.6,2.4c-3.4-1.3-6.9,0-10.3,3.9h14.1
		l4.3,7.3H18.3l4.8-7.3H38c-2.1-1.8-6-2.4-12-1.5c-0.4-0.3,0.8-1.1,3.7-2.2c-1.3-3.5-0.4-5.4,2.6-5.6c2.5-0.1,4.5,1.8,6.1,4.9
		c0.2,0.7-0.4,0.7-2.6-0.8c-3.2-2.2-4.8-1.7-4.9,1.4c4.6,0.4,7.3,2,9.5,3.9h19.5c-0.5-0.1-0.8-0.5-0.8-1.2v-2.3l-15.2-0.1v2.6
		c0,1.1-2.2,1.1-2.2,0l0-2.5l-0.9,0l-1.2-6c-0.3-1.2,0.1-1.5,0.6-1.8c1-0.7,1.4-2.5,1.7-4.7c0.3-0.8,0.9-1.4,1.8-1.5
		C49.6,52.8,54.7,53,59.6,54.9z M74.7,72.2c-1.5-2.2-4.4-2.3-7.8-1.5c3.6-2.4,7-2.2,10.2,0C77.4,73,75.5,71.7,74.7,72.2z M46.9,70.4
		c1.6,0.4,3.1,0.4,4.6,0c1.9-0.8,3.6-0.4,5.3,0.4c-1.8-0.1-3.7,0-5.3,0.7C49.6,71.8,48.2,71.3,46.9,70.4z"/>
	<rect x="44.8" y="64.2" fill="#F4AB1C" width="14" height="1.3"/>
	<path fill="#F4AB1C" d="M61.3,63.2c0.6,0,1-0.5,1-1c0-0.6-0.5-1-1-1c-0.6,0-1,0.5-1,1C60.3,62.8,60.7,63.2,61.3,63.2z"/>
	<path fill="#F4AB1C" d="M42.9,59.7c5.7-0.8,11.5-0.8,17.2,0l-0.9-3.3c-2.1-2.2-13.6-1.6-15.5,0L42.9,59.7z"/>
	<path fill="#F4AB1C" d="M44.8,61.9c-0.4,0.5-0.2,0.9,0,1.3h14c0.2-0.3,0.3-0.7,0-1.3C53.9,61.1,49.3,61.1,44.8,61.9z"/>
	<path fill="#F8991D" d="M41.9,61.4c-0.6,0-1,0.5-1,1c0,0.6,0.5,1,1,1s1-0.5,1-1C43,61.8,42.5,61.4,41.9,61.4z"/>
	<path fill="#010101" d="M96,80.7L54.2,7.7c-2.4-4.1-6.4-2.5-8,0L3.6,82.2c-0.1,0.2-0.2,0.3-0.2,0.4c-0.1,0.2-0.2,0.3-0.2,0.4
		c-0.5,1-0.9,2-1.2,2.8c-0.1,0.3-0.1,0.5-0.2,0.7c-0.1,0.2-0.1,0.5-0.1,0.7c0,0.2,0,0.4,0,0.7s0,0.4,0,0.6c0,0.1,0,0.2,0.1,0.3
		c0.3,1.3,1.2,2.2,2.9,2.5l0,0H95C101.4,91.5,98.8,85.1,96,80.7z M9.9,84.3l40.2-69.8l40.2,69.8H9.9z"/>
	<path fill="#010101" d="M42.2,56.3c-0.3,2.2-0.8,4.1-1.7,4.7c-0.5,0.2-1,0.6-0.6,1.8l1.2,6l0.9,0l0,2.5c0,1.1,2.1,1.1,2.2,0v-2.6
		l15.2,0.1V71c0,0.7,0.4,1,0.8,1.2H40.6c-2.2-2-4.9-3.6-9.5-3.9c0-3.1,1.6-3.6,4.9-1.4c2.2,1.6,2.7,1.6,2.6,0.8
		c-1.6-3.1-3.6-4.9-6.1-4.9c-3.1,0.2-3.9,2.1-2.6,5.6c-2.9,1.2-4.2,1.9-3.7,2.2c5.9-0.8,9.9-0.4,12,1.5H23.1l-4.8,7.3h64.1l-4.3-7.3
		H64.1c3.4-3.8,6.9-5.1,10.3-3.9c4.5,2.7,3.2-2.2-0.6-2.4c-4.8,0.4-8.6,2.7-11.7,6.2v0.1h-1.3c0.5-0.1,0.8-0.5,0.8-1.1v-2.4h0.9
		l0.6-5.9c0.3-1.3-0.2-2.2-1.4-2.8l-1.3-4.2c-0.2-0.7-0.2-0.6-0.9-0.9C54.7,53,49.5,52.9,44,54.8C43.1,54.9,42.5,55.4,42.2,56.3z
		 M41.9,63.4c-0.6,0-1-0.5-1-1c0-0.6,0.5-1,1-1s1,0.5,1,1C43,62.9,42.5,63.4,41.9,63.4z M58.7,65.5h-14v-1.3h14V65.5z M58.7,63.2
		h-14c-0.2-0.4-0.4-0.8,0-1.3c4.5-0.8,9.2-0.8,14,0C59,62.5,59,62.9,58.7,63.2z M61.3,61.2c0.6,0,1,0.5,1,1c0,0.6-0.5,1-1,1
		c-0.6,0-1-0.5-1-1C60.3,61.7,60.7,61.2,61.3,61.2z M59.2,56.4l0.9,3.3c-5.7-0.8-11.5-0.8-17.2,0l0.8-3.3
		C45.6,54.8,57.1,54.2,59.2,56.4z"/>
	<path fill="#010101" d="M66.9,70.7c3.4-0.8,6.3-0.7,7.8,1.5c0.8-0.5,2.7,0.8,2.4-1.5C73.9,68.5,70.5,68.2,66.9,70.7z"/>
	<path fill="#010101" d="M56.7,70.8c-1.7-0.7-3.4-1.1-5.3-0.4c-1.5,0.4-3,0.4-4.6,0c1.3,1,2.7,1.4,4.6,1.1
		C53.1,70.7,54.9,70.7,56.7,70.8z"/>
</g>
</svg>
