<?xml version="1.0" encoding="utf-8"?>
<!-- Generator: Adobe Illustrator 18.1.1, SVG Export Plug-In . SVG Version: 6.00 Build 0)  -->
<svg version="1.1" id="图层_1" xmlns="http://www.w3.org/2000/svg" xmlns:xlink="http://www.w3.org/1999/xlink" x="0px" y="0px"
	 width="100" height="100" enable-background="new 0 0 100 100" xml:space="preserve">
<g>
	<rect x="33.4" y="57.8" fill="#F4AB1C" width="5.7" height="17.7"/>
	<rect x="42.5" y="57.8" fill="#F4AB1C" width="5.2" height="17.7"/>
	<path fill="#F4AB1C" d="M4,82.4L46.4,8.2c0.9-1.4,2.6-2.5,4.3-2.5c-1.7,0-3.4,1.1-4.3,2.5L4,82.4c-2.7,4.7-2.8,8.5,1,9.2l0,0
		C1.1,90.8,1.3,87,4,82.4z"/>
	<rect x="51.1" y="57.8" fill="#F4AB1C" width="5.4" height="17.7"/>
	<path fill="#F4AB1C" d="M10.3,84.5h80.1L50.4,15L10.3,84.5z M56.8,54.3l1.5-2.9l1.6,2.9h5.9l1.6-3.2l1.6,3.2l1.8,3.6h-1.7v17.7h1.7
		v3.6h-1.7V81h-3.4v-1.8h-5.7V81h-3.4v-1.8h-5.4V81h-3.4v-1.8h-5.2V81h-3.4v-1.8h-5.7V81H30v-1.8h-1.4v-3.6H30V57.8h-1.4l1.7-3.6
		l1.6-3.1l1.5,3.1h5.9l1.8-2.8l1.8,2.8h5.2l1.6-2.8l1.8,2.8H56.8z"/>
	<rect x="59.8" y="57.8" fill="#F4AB1C" width="5.7" height="17.7"/>
	<path fill="#010101" d="M96,80.8L54.4,8.2c-1-1.8-2.4-2.5-3.7-2.5c-1.7,0-3.4,1.1-4.3,2.5L4,82.4c-2.7,4.7-2.8,8.5,1,9.2h90l0,0
		C101.4,91.6,98.8,85.2,96,80.8z M10.3,84.5L50.4,15l40.1,69.5H10.3z"/>
	<path fill="#010101" d="M47.9,54.3h-5.2L41,51.5l-1.8,2.8h-5.9l-1.5-3.1l-1.6,3.1l-1.7,3.6H30v17.7h-1.4v3.6H30V81h3.4v-1.8h5.7V81
		h3.4v-1.8h5.2V81h3.4v-1.8h5.4V81h3.4v-1.8h5.7V81h3.4v-1.8h1.6v-3.6h-1.7V57.8h1.7l-1.8-3.6l-1.6-3.2l-1.6,3.2h-5.9l-1.6-2.9
		l-1.5,2.9h-5.5l-1.8-2.8L47.9,54.3z M33.4,75.6V57.8h5.7v17.7H33.4z M42.5,75.6V57.8h5.2v17.7H42.5z M65.5,57.8v17.7h-5.7V57.8
		H65.5z M56.4,57.8v17.7h-5.4V57.8H56.4z"/>
</g>
</svg>
