<?xml version="1.0" encoding="utf-8"?>
<!-- Generator: Adobe Illustrator 18.1.1, SVG Export Plug-In . SVG Version: 6.00 Build 0)  -->
<svg version="1.1" id="图层_1" xmlns="http://www.w3.org/2000/svg" xmlns:xlink="http://www.w3.org/1999/xlink" x="0px" y="0px"
	 width="100" height="100" enable-background="new 0 0 100 100" xml:space="preserve">
<g>
	<path fill="#F4AB1C" d="M49.4,4.8c0.1,0,0.2,0,0.3-0.1C49.6,4.7,49.5,4.7,49.4,4.8z"/>
	<path fill="#F4AB1C" d="M9.5,84.2h80.9L49.9,14.1L9.5,84.2z M53.6,44.5c6.3-2,12.6,1,9.6,8.9c-0.7,2.1-3,3-7,2.6
		c-1.8,1.9-4.5,1.4-7.6,0c-1.9,2.1-4.5,2.5-7.9,1.3c-1.8,0.4-2.9,1.4-2.7,3.5h0.4v2.3h11.4l1.5-2.9h3.6l1.4,2.9H61v-2.4h9.1V64h-4.8
		v4.3h4.9l-0.1,2.7v3.2h-1.2c0.4,0.6,0.7,1.3,0.7,2.1c0,2.2-2,3.9-4.4,3.9c-2.5,0-4.4-1.8-4.4-3.9c0-0.8,0.2-1.5,0.7-2.1h-2.9
		c0.4,0.6,0.7,1.3,0.7,2.1c0,2.2-2,3.9-4.4,3.9s-4.4-1.8-4.4-3.9c0-0.8,0.2-1.5,0.7-2.1H48c0.4,0.6,0.7,1.3,0.7,2.1
		c0,2.2-2,3.9-4.4,3.9c-2.5,0-4.4-1.8-4.4-3.9c0-0.8,0.2-1.5,0.7-2.1h-3c1.2,0.4,2.1,1.6,2.1,2.9c0,1.7-1.3,3.1-3,3.1
		c-1.6,0-3-1.4-3-3.1c0-1.4,0.9-2.5,2.1-2.9h-4v2c0.5,0.4,0.8,1,0.8,1.8c0,1.2-1,2.2-2.1,2.2c-1.2,0-2.1-1-2.1-2.2
		c0-0.7,0.3-1.3,0.8-1.8v-2h-1.3v-3.2H30v-7.9h3.6v-2.3h0.9c-0.1-7.4,3.4-11.1,9.2-12.2C45.7,44.4,48.8,42.7,53.6,44.5z"/>
	<path fill="#F4AB1C" d="M47.4,5.6c-0.6,0.4-1.1,1-1.5,1.6L3.1,82.1L45.9,7.2C46.3,6.6,46.8,6.1,47.4,5.6z"/>
	<path fill="#F4AB1C" d="M48.2,5.2c0.1-0.1,0.3-0.1,0.4-0.2C48.4,5.1,48.3,5.1,48.2,5.2z"/>
	<path fill="#F4AB1C" d="M47.6,5.5c0.1-0.1,0.2-0.1,0.2-0.2C47.8,5.4,47.7,5.4,47.6,5.5z"/>
	<path fill="#F4AB1C" d="M48.8,4.9c0.1,0,0.2-0.1,0.3-0.1C49,4.8,48.9,4.9,48.8,4.9z"/>
	<path fill="#010101" d="M99,87.8c0-0.5-0.1-1-0.2-1.5c-0.1-0.5-0.3-1-0.5-1.6c-0.1-0.2-0.1-0.3-0.2-0.5c-0.6-1.3-1.3-2.6-2.1-3.8
		L54,7.2c-0.8-1.5-1.9-2.2-3-2.5c-0.1,0-0.2,0-0.3-0.1c-0.3,0-0.7,0-1,0c-0.1,0-0.2,0-0.3,0.1c-0.1,0-0.2,0-0.3,0.1
		s-0.2,0.1-0.3,0.1c-0.1,0-0.2,0.1-0.3,0.1c-0.1,0.1-0.3,0.1-0.4,0.2c-0.1,0-0.2,0.1-0.3,0.1c-0.1,0.1-0.2,0.1-0.2,0.2
		c-0.1,0.1-0.2,0.1-0.2,0.2c-0.6,0.4-1.1,1-1.5,1.6L3.1,82.1c-0.8,1.5-1.4,2.9-1.7,4.1c-0.1,0.2-0.1,0.5-0.1,0.7
		c-0.1,0.3-0.1,0.7-0.1,1c0,0.2,0,0.4,0,0.6c0,0.1,0,0.2,0.1,0.3c0.3,1.3,1.2,2.2,2.9,2.6l0,0h90.8c0.5,0,1,0,1.4-0.1
		c0.2,0,0.3-0.1,0.5-0.1c0.1,0,0.1,0,0.2-0.1c0.5-0.2,0.9-0.4,1.2-0.7c0.1-0.1,0.2-0.2,0.2-0.2c0.4-0.4,0.6-1,0.6-1.6
		C99,88.3,99,88.1,99,87.8z M9.5,84.2l40.4-70.1l40.4,70.1H9.5z"/>
	<path fill="#010101" d="M43.8,48.7c-5.8,1.1-9.3,4.7-9.2,12.2h-0.9v2.3H30v7.9h-2.2v3.2H29v2c-0.5,0.4-0.8,1-0.8,1.8
		c0,1.2,1,2.2,2.1,2.2c1.2,0,2.1-1,2.1-2.2c0-0.7-0.3-1.3-0.8-1.8v-2h4c-1.2,0.4-2.1,1.6-2.1,2.9c0,1.7,1.3,3.1,3,3.1
		c1.6,0,3-1.4,3-3.1c0-1.4-0.9-2.5-2.1-2.9h3c-0.4,0.6-0.7,1.3-0.7,2.1c0,2.2,2,3.9,4.4,3.9c2.5,0,4.4-1.8,4.4-3.9
		c0-0.8-0.2-1.5-0.7-2.1h2.9c-0.4,0.6-0.7,1.3-0.7,2.1c0,2.2,2,3.9,4.4,3.9c2.5,0,4.4-1.8,4.4-3.9c0-0.8-0.2-1.5-0.7-2.1h2.9
		c-0.4,0.6-0.7,1.3-0.7,2.1c0,2.2,2,3.9,4.4,3.9c2.5,0,4.4-1.8,4.4-3.9c0-0.8-0.2-1.5-0.7-2.1h1.2v-3.2l0.1-2.7h-4.9V64h4.8v-3.3H61
		v2.4h-4.6l-1.4-2.9h-3.6l-1.5,2.9H38.5v-2.3H38c-0.2-2.1,0.9-3.1,2.7-3.5c3.4,1.2,6,0.8,7.9-1.3c3.1,1.4,5.8,1.8,7.6,0
		c4,0.4,6.3-0.4,7-2.6c3-7.9-3.3-10.9-9.6-8.9C48.8,42.7,45.7,44.4,43.8,48.7z"/>
</g>
</svg>
