<?xml version="1.0" encoding="utf-8"?>
<!-- Generator: Adobe Illustrator 18.1.1, SVG Export Plug-In . SVG Version: 6.00 Build 0)  -->
<svg version="1.1" id="图层_1" xmlns="http://www.w3.org/2000/svg" xmlns:xlink="http://www.w3.org/1999/xlink" x="0px" y="0px"
	 width="100" height="100" enable-background="new 0 0 100 100" xml:space="preserve">
<line fill="none" stroke="#231815" stroke-width="0.216" stroke-miterlimit="22.9256" x1="102.1" y1="104.3" x2="-2" y2="104.3"/>
<path fill="#E41E26" d="M50,0c27.3,0,49.6,22.3,49.6,49.6S77.4,99.2,50,99.2S0.4,76.9,0.4,49.6C0.4,22.3,22.7,0,50,0L50,0z
	 M21.3,17.3l62.7,59c5.8-7.4,9.2-16.6,9.2-26.7C93.3,25.8,73.9,6.3,50,6.3C39,6.3,29,10.5,21.3,17.3L21.3,17.3z M79.1,81.6l-62.8-59
	c-5.9,7.4-9.5,16.8-9.5,27c0,23.8,19.4,43.3,43.3,43.3C61.2,92.9,71.4,88.6,79.1,81.6z"/>
<circle id="白色底图" fill="#FFFFFF" cx="50.1" cy="49.5" r="43"/>
<g>
	<path fill="#010101" d="M40.3,71.1h-8.5V39.2c-3.1,2.9-6.7,5-10.9,6.4V38c2.2-0.7,4.6-2.1,7.2-4.1s4.4-4.4,5.3-7.1h6.9L40.3,71.1
		L40.3,71.1z"/>
	<path fill="#010101" d="M67.2,26.8c4.3,0,7.6,1.5,10,4.6c2.9,3.6,4.3,9.6,4.3,18c0,8.3-1.4,14.4-4.3,18c-2.4,3-5.7,4.5-10,4.5
		c-4.3,0-7.8-1.7-10.4-5c-2.6-3.3-3.9-9.2-3.9-17.7c0-8.3,1.4-14.3,4.3-17.9C59.6,28.3,62.9,26.8,67.2,26.8z M67.2,33.8
		c-1,0-1.9,0.3-2.7,1c-0.8,0.6-1.4,1.8-1.9,3.5c-0.6,2.2-0.9,5.9-0.9,11.1S62,58.1,62.5,60c0.5,1.9,1.2,3.2,2,3.9s1.7,1,2.7,1
		s1.9-0.3,2.7-1c0.8-0.6,1.4-1.8,1.9-3.5c0.6-2.2,0.9-5.8,0.9-11s-0.3-8.7-0.8-10.7c-0.5-1.9-1.2-3.2-2-3.9
		C69.1,34.1,68.2,33.8,67.2,33.8z"/>
</g>
</svg>
