<?xml version="1.0" encoding="utf-8"?>
<!-- Generator: Adobe Illustrator 18.1.1, SVG Export Plug-In . SVG Version: 6.00 Build 0)  -->
<svg version="1.1" id="图层_1" xmlns="http://www.w3.org/2000/svg" xmlns:xlink="http://www.w3.org/1999/xlink" x="0px" y="0px"
	 width="100" height="100" enable-background="new 0 0 100 100" xml:space="preserve">
<line fill="none" stroke="#231815" stroke-width="0.216" stroke-miterlimit="22.9256" x1="101.4" y1="104" x2="-1.4" y2="104"/>
<path fill="#E41E26" d="M50,1c27,0,49,22,49,49S77,99,50,99S1,77,1,50C1,23,23,1,50,1L50,1z M21.6,18.1l62,58.2
	c5.7-7.3,9.1-16.4,9.1-26.3C92.7,26.5,73.5,7.3,50,7.3C39.1,7.3,29.2,11.4,21.6,18.1L21.6,18.1z M78.7,81.6l-62-58.3
	C10.8,30.6,7.3,39.9,7.3,50c0,23.5,19.2,42.7,42.7,42.7C61,92.8,71.1,88.5,78.7,81.6z"/>
<circle id="白色底图" fill="#FFFFFF" stroke="#010101" stroke-miterlimit="22.9256" cx="50.1" cy="49.9" r="42.5"/>
<g>
	<path fill="#010101" d="M47.2,63.5v7.8H17.9c0.3-2.9,1.3-5.7,2.9-8.3c1.6-2.6,4.7-6.1,9.4-10.5c3.8-3.5,6.1-5.9,6.9-7.1
		c1.1-1.7,1.7-3.4,1.7-5.1c0-1.9-0.5-3.3-1.5-4.3c-1-1-2.4-1.5-4.1-1.5c-1.7,0-3.1,0.5-4.2,1.6c-1,1-1.6,2.8-1.8,5.2l-8.3-0.8
		c0.5-4.6,2.1-7.9,4.7-9.9c2.6-2,5.9-3,9.8-3c4.3,0,7.7,1.2,10.1,3.5c2.5,2.3,3.7,5.2,3.7,8.7c0,2-0.4,3.8-1.1,5.6
		c-0.7,1.8-1.8,3.6-3.3,5.6c-1,1.3-2.8,3.1-5.5,5.6c-2.6,2.4-4.3,4-5,4.8c-0.7,0.8-1.3,1.6-1.7,2.3L47.2,63.5L47.2,63.5z"/>
	<path fill="#010101" d="M67,27.5c4.2,0,7.5,1.5,9.9,4.5c2.8,3.6,4.3,9.5,4.3,17.8c0,8.2-1.4,14.2-4.3,17.8c-2.4,3-5.6,4.5-9.9,4.5
		c-4.2,0-7.7-1.6-10.3-4.9c-2.6-3.3-3.9-9.1-3.9-17.4c0-8.2,1.4-14.1,4.3-17.7C59.5,29,62.7,27.5,67,27.5z M67,34.4
		c-1,0-1.9,0.3-2.7,1c-0.8,0.6-1.4,1.8-1.8,3.5c-0.6,2.2-0.9,5.8-0.9,10.9s0.3,8.6,0.8,10.5c0.5,1.9,1.2,3.2,2,3.8
		c0.8,0.6,1.7,0.9,2.7,0.9s1.9-0.3,2.7-1c0.8-0.6,1.4-1.8,1.8-3.5c0.6-2.1,0.9-5.8,0.9-10.9c0-5.1-0.3-8.6-0.8-10.5
		c-0.5-1.9-1.2-3.2-2-3.8C68.9,34.7,68,34.4,67,34.4z"/>
</g>
</svg>
