<?xml version="1.0" encoding="utf-8"?>
<!-- Generator: Adobe Illustrator 18.1.1, SVG Export Plug-In . SVG Version: 6.00 Build 0)  -->
<svg version="1.1" id="图层_1" xmlns="http://www.w3.org/2000/svg" xmlns:xlink="http://www.w3.org/1999/xlink" x="0px" y="0px"
	 width="100" height="100" enable-background="new 0 0 100 100" xml:space="preserve">
<line fill="none" stroke="#231815" stroke-width="0.216" stroke-miterlimit="22.9256" x1="101" y1="103.2" x2="-1" y2="103.2"/>
<path fill="#E41E26" d="M50,1c26.8,0,48.6,21.8,48.6,48.6S76.8,98.2,50,98.2S1.4,76.4,1.4,49.6C1.4,22.8,23.2,1,50,1L50,1z M21.8,18
	l61.5,57.8c5.7-7.2,9-16.3,9-26.1c0-23.3-19-42.4-42.4-42.4C39.2,7.2,29.3,11.3,21.8,18L21.8,18z M78.5,81L16.9,23.1
	c-5.8,7.3-9.3,16.5-9.3,26.5C7.6,73,26.7,92,50,92C60.9,92,70.9,87.8,78.5,81z"/>
<circle id="白色底图" fill="#FFFFFF" stroke="#010101" stroke-miterlimit="22.9256" cx="50.1" cy="49.5" r="42.2"/>
<g>
	<path fill="#010101" d="M18.9,59.2l8-1c0.3,2,0.9,3.6,2.1,4.7c1.1,1.1,2.5,1.6,4.1,1.6c1.7,0,3.2-0.6,4.3-1.9
		c1.2-1.3,1.8-3.1,1.8-5.3c0-2.1-0.6-3.7-1.7-5c-1.1-1.2-2.5-1.8-4.1-1.8c-1.1,0-2.3,0.2-3.8,0.6l0.9-6.8c2.2,0.1,3.9-0.4,5.1-1.5
		s1.8-2.4,1.8-4.1c0-1.5-0.4-2.6-1.3-3.5c-0.9-0.9-2-1.3-3.5-1.3c-1.4,0-2.6,0.5-3.6,1.5c-1,1-1.6,2.4-1.8,4.3l-7.6-1.3
		c0.5-2.6,1.3-4.7,2.4-6.3c1.1-1.6,2.6-2.8,4.5-3.7s4.1-1.3,6.4-1.3c4.1,0,7.3,1.3,9.8,3.9c2,2.1,3,4.5,3,7.2c0,3.8-2.1,6.8-6.2,9.1
		c2.5,0.5,4.5,1.7,5.9,3.6c1.5,1.8,2.2,4.1,2.2,6.7c0,3.8-1.4,7-4.2,9.7c-2.8,2.7-6.2,4-10.4,4c-3.9,0-7.2-1.1-9.7-3.4
		C20.8,65.8,19.3,62.9,18.9,59.2z"/>
	<path fill="#010101" d="M66.8,27.3c4.2,0,7.5,1.5,9.8,4.5c2.8,3.5,4.2,9.4,4.2,17.6c0,8.2-1.4,14.1-4.2,17.6
		c-2.3,3-5.6,4.4-9.8,4.4c-4.2,0-7.6-1.6-10.2-4.9c-2.6-3.2-3.9-9-3.9-17.3c0-8.1,1.4-14,4.2-17.6C59.4,28.7,62.6,27.3,66.8,27.3z
		 M66.8,34.1c-1,0-1.9,0.3-2.7,1c-0.8,0.6-1.4,1.8-1.8,3.4c-0.6,2.1-0.9,5.8-0.9,10.8s0.3,8.6,0.8,10.5c0.5,1.9,1.2,3.2,1.9,3.8
		c0.8,0.6,1.7,0.9,2.7,0.9s1.9-0.3,2.7-1c0.8-0.6,1.4-1.8,1.8-3.4c0.6-2.1,0.9-5.7,0.9-10.8s-0.3-8.6-0.8-10.5s-1.2-3.2-1.9-3.8
		C68.7,34.5,67.8,34.1,66.8,34.1z"/>
</g>
</svg>
