<?xml version="1.0" encoding="utf-8"?>
<!-- Generator: Adobe Illustrator 18.1.1, SVG Export Plug-In . SVG Version: 6.00 Build 0)  -->
<svg version="1.1" id="图层_1" xmlns="http://www.w3.org/2000/svg" xmlns:xlink="http://www.w3.org/1999/xlink" x="0px" y="0px"
	 width="100" height="100" enable-background="new 0 0 100 100" xml:space="preserve">
<line fill="none" stroke="#231815" stroke-width="0.216" stroke-miterlimit="22.9256" x1="102.6" y1="104.5" x2="-1.3" y2="104.5"/>
<path fill="#E41E26" d="M50.7,0.5c27.2,0,49.5,22.2,49.5,49.5S77.9,99.5,50.7,99.5S1.2,77.2,1.2,50C1.2,22.7,23.4,0.5,50.7,0.5
	L50.7,0.5z M22,17.8l62.6,58.8c5.8-7.3,9.2-16.6,9.2-26.6c0-23.8-19.4-43.1-43.1-43.1C39.7,6.8,29.6,11,22,17.8L22,17.8z M79.6,81.9
	L17,23C11.1,30.4,7.5,39.8,7.5,50c0,23.8,19.4,43.1,43.1,43.1C61.8,93.1,72,88.9,79.6,81.9z"/>
<circle id="白色底图" fill="#FFFFFF" stroke="#010101" stroke-miterlimit="22.9256" cx="50.7" cy="49.9" r="42.9"/>
<g>
	<path fill="#010101" d="M35.9,71.4v-8.9h-18v-7.4l19.1-28H44v27.9h5.5v7.4H44v8.9H35.9z M35.9,55.2V40.1l-10.1,15L35.9,55.2
		L35.9,55.2z"/>
	<path fill="#010101" d="M67.8,27.2c4.3,0,7.6,1.5,10,4.6c2.9,3.6,4.3,9.6,4.3,17.9c0,8.3-1.4,14.3-4.3,18c-2.4,3-5.7,4.5-10,4.5
		c-4.3,0-7.7-1.6-10.4-4.9c-2.6-3.3-3.9-9.2-3.9-17.6c0-8.3,1.4-14.3,4.3-17.9C60.2,28.7,63.5,27.2,67.8,27.2z M67.8,34.2
		c-1,0-1.9,0.3-2.7,1c-0.8,0.6-1.4,1.8-1.9,3.5c-0.6,2.2-0.9,5.9-0.9,11s0.3,8.7,0.8,10.6c0.5,1.9,1.2,3.2,2,3.9
		c0.8,0.6,1.7,1,2.7,1c1,0,1.9-0.3,2.7-1c0.8-0.6,1.4-1.8,1.9-3.5c0.6-2.2,0.9-5.8,0.9-11c0-5.2-0.3-8.7-0.8-10.6
		c-0.5-1.9-1.2-3.2-2-3.9C69.7,34.6,68.8,34.2,67.8,34.2z"/>
</g>
</svg>
