<?xml version="1.0" encoding="utf-8"?>
<!-- Generator: Adobe Illustrator 18.1.1, SVG Export Plug-In . SVG Version: 6.00 Build 0)  -->
<svg version="1.1" id="图层_1" xmlns="http://www.w3.org/2000/svg" xmlns:xlink="http://www.w3.org/1999/xlink" x="0px" y="0px"
	 width="100" height="100" enable-background="new 0 0 100 100" xml:space="preserve">
<line fill="none" stroke="#231815" stroke-width="0.216" stroke-miterlimit="22.9256" x1="101.6" y1="104.6" x2="-1.6" y2="104.6"/>
<path fill="#E41E26" d="M50,1.3c27.1,0,49.2,22.1,49.2,49.2S77.1,99.6,50,99.6S0.8,77.5,0.8,50.4C0.8,23.3,22.9,1.3,50,1.3L50,1.3z
	 M21.5,18.4l62.2,58.4c5.7-7.3,9.2-16.5,9.2-26.4C92.9,26.8,73.6,7.5,50,7.5C39.1,7.5,29.1,11.7,21.5,18.4L21.5,18.4z M78.8,82.1
	L16.6,23.6C10.7,31,7.1,40.3,7.1,50.4C7.1,74,26.4,93.3,50,93.3C61.1,93.3,71.2,89.1,78.8,82.1z"/>
<circle id="白色底图" fill="#FFFFFF" stroke="#010101" stroke-miterlimit="22.9256" cx="50.1" cy="50.3" r="42.7"/>
<g>
	<path fill="#010101" d="M19,60.5l8.4-0.9c0.2,1.9,0.9,3.4,2.1,4.5c1.2,1.1,2.5,1.7,4.1,1.7c1.7,0,3.2-0.7,4.4-2.1
		c1.2-1.4,1.8-3.6,1.8-6.4c0-2.7-0.6-4.7-1.8-6c-1.2-1.3-2.8-2-4.7-2c-2.4,0-4.6,1.1-6.5,3.2l-6.8-1l4.3-22.8h22.2v7.8H30.6
		l-1.3,7.4c1.9-0.9,3.8-1.4,5.7-1.4c3.7,0,6.9,1.3,9.5,4.1c2.6,2.7,3.9,6.2,3.9,10.5c0,3.6-1,6.8-3.1,9.6c-2.8,3.9-6.8,5.8-11.9,5.8
		c-4,0-7.3-1.1-9.9-3.3C21,67.1,19.5,64.1,19,60.5z"/>
	<path fill="#010101" d="M67,27.8c4.2,0,7.5,1.5,9.9,4.5c2.8,3.6,4.3,9.5,4.3,17.8c0,8.3-1.4,14.2-4.3,17.8c-2.4,3-5.7,4.5-9.9,4.5
		c-4.3,0-7.7-1.6-10.3-4.9c-2.6-3.3-3.9-9.1-3.9-17.5c0-8.2,1.4-14.2,4.3-17.8C59.5,29.3,62.8,27.8,67,27.8z M67,34.8
		c-1,0-1.9,0.3-2.7,1c-0.8,0.6-1.4,1.8-1.8,3.5c-0.6,2.2-0.9,5.8-0.9,11s0.3,8.7,0.8,10.6c0.5,1.9,1.2,3.2,2,3.8
		c0.8,0.6,1.7,1,2.7,1c1,0,1.9-0.3,2.7-1c0.8-0.6,1.4-1.8,1.8-3.5c0.6-2.1,0.9-5.8,0.9-10.9s-0.3-8.7-0.8-10.6
		c-0.5-1.9-1.2-3.2-2-3.9C68.9,35.1,68,34.8,67,34.8z"/>
</g>
</svg>
