<?xml version="1.0" encoding="utf-8"?>
<!-- Generator: Adobe Illustrator 18.1.1, SVG Export Plug-In . SVG Version: 6.00 Build 0)  -->
<svg version="1.1" id="图层_1" xmlns="http://www.w3.org/2000/svg" xmlns:xlink="http://www.w3.org/1999/xlink" x="0px" y="0px"
	 width="100" height="100" enable-background="new 0 0 100 100" xml:space="preserve">
<line fill="none" stroke="#231815" stroke-width="0.216" stroke-miterlimit="22.9256" x1="101.2" y1="103.7" x2="-0.3" y2="103.7"/>
<path fill="#E41E26" d="M50.5,2c26.6,0,48.4,21.7,48.4,48.4S77.1,98.7,50.5,98.7S2.1,77,2.1,50.4C2.1,23.7,23.8,2,50.5,2L50.5,2z
	 M22.5,18.9l61.2,57.5c5.6-7.2,9-16.2,9-26c0-23.2-19-42.2-42.2-42.2C39.7,8.2,29.9,12.2,22.5,18.9L22.5,18.9z M78.8,81.6L17.6,24
	c-5.8,7.2-9.3,16.4-9.3,26.3c0,23.2,19,42.2,42.2,42.2C61.4,92.6,71.3,88.4,78.8,81.6z"/>
<circle id="白色底图" fill="#FFFFFF" stroke="#010101" stroke-miterlimit="22.9256" cx="50.5" cy="50.3" r="42"/>
<g>
	<path fill="#010101" d="M47.8,38.8l-8,0.9c-0.2-1.6-0.7-2.9-1.5-3.6c-0.8-0.8-1.9-1.2-3.2-1.2c-1.7,0-3.2,0.8-4.4,2.4
		c-1.2,1.6-2,4.8-2.3,9.8c2.1-2.4,4.6-3.6,7.7-3.6c3.4,0,6.4,1.3,8.9,3.9c2.5,2.6,3.7,6,3.7,10.2c0,4.4-1.3,7.9-3.9,10.6
		c-2.6,2.7-5.9,4-10,4c-4.3,0-7.9-1.7-10.7-5.1c-2.8-3.4-4.2-8.9-4.2-16.6c0-7.9,1.5-13.6,4.4-17.1c2.9-3.5,6.7-5.2,11.4-5.2
		c3.3,0,6,0.9,8.1,2.7C45.8,32.7,47.2,35.4,47.8,38.8z M29.1,56.8c0,2.7,0.6,4.7,1.9,6.2c1.2,1.5,2.6,2.2,4.2,2.2
		c1.5,0,2.8-0.6,3.8-1.8c1-1.2,1.5-3.1,1.5-5.9c0-2.8-0.5-4.8-1.6-6.2c-1.1-1.3-2.5-1.9-4.1-1.9c-1.6,0-2.9,0.6-4,1.9
		C29.6,52.6,29.1,54.4,29.1,56.8z"/>
	<path fill="#010101" d="M67.2,28.1c4.2,0,7.4,1.5,9.8,4.5c2.8,3.5,4.2,9.4,4.2,17.5c0,8.1-1.4,14-4.2,17.6
		c-2.3,2.9-5.6,4.4-9.7,4.4c-4.2,0-7.6-1.6-10.1-4.8c-2.6-3.2-3.8-9-3.8-17.2c0-8.1,1.4-13.9,4.2-17.5
		C59.8,29.6,63.1,28.1,67.2,28.1z M67.2,35c-1,0-1.9,0.3-2.7,1c-0.8,0.6-1.4,1.8-1.8,3.4c-0.6,2.1-0.8,5.7-0.8,10.8
		s0.3,8.5,0.8,10.4c0.5,1.9,1.2,3.1,1.9,3.8c0.8,0.6,1.7,0.9,2.7,0.9c1,0,1.9-0.3,2.7-1c0.8-0.6,1.4-1.8,1.8-3.4
		c0.6-2.1,0.8-5.7,0.8-10.7c0-5.1-0.3-8.5-0.8-10.4c-0.5-1.9-1.2-3.1-1.9-3.8C69.1,35.3,68.2,35,67.2,35z"/>
</g>
</svg>
