<?xml version="1.0" encoding="utf-8"?>
<!-- Generator: Adobe Illustrator 18.1.1, SVG Export Plug-In . SVG Version: 6.00 Build 0)  -->
<svg version="1.1" id="图层_1" xmlns="http://www.w3.org/2000/svg" xmlns:xlink="http://www.w3.org/1999/xlink" x="0px" y="0px"
	 width="100" height="100" enable-background="new 0 0 100 100" xml:space="preserve">
<line fill="none" stroke="#231815" stroke-width="0.216" stroke-miterlimit="22.9256" x1="102.7" y1="104.9" x2="-1" y2="104.9"/>
<path fill="#E41E26" d="M50.8,1c27.2,0,49.4,22.2,49.4,49.4S78,99.8,50.8,99.8S1.4,77.6,1.4,50.4C1.4,23.2,23.6,1,50.8,1L50.8,1z
	 M22.2,18.3L84.7,77c5.8-7.3,9.2-16.6,9.2-26.6c0-23.7-19.4-43.1-43.1-43.1C39.8,7.3,29.8,11.5,22.2,18.3L22.2,18.3z M79.8,82.3
	L17.2,23.5c-5.9,7.4-9.5,16.8-9.5,26.9c0,23.7,19.4,43.1,43.1,43.1C61.9,93.5,72.1,89.3,79.8,82.3z"/>
<circle id="白色底图" fill="#FFFFFF" stroke="#010101" stroke-miterlimit="22.9256" cx="50.9" cy="50.3" r="42.9"/>
<g>
	<path fill="#010101" d="M19.5,36.3v-7.8h28.8v6.1c-2.4,2.3-4.8,5.7-7.3,10.1c-2.5,4.4-4.3,9-5.6,14s-1.9,9.3-1.9,13.2h-8.1
		c0.1-6.1,1.4-12.3,3.8-18.6s5.5-12,9.5-17L19.5,36.3L19.5,36.3z"/>
	<path fill="#010101" d="M67.9,27.7c4.3,0,7.6,1.5,10,4.6c2.9,3.6,4.3,9.6,4.3,17.9c0,8.3-1.4,14.3-4.3,17.9c-2.4,3-5.7,4.5-10,4.5
		c-4.3,0-7.7-1.6-10.3-4.9c-2.6-3.3-3.9-9.2-3.9-17.6c0-8.3,1.4-14.2,4.3-17.9C60.3,29.2,63.7,27.7,67.9,27.7z M67.9,34.7
		c-1,0-1.9,0.3-2.7,1c-0.8,0.6-1.4,1.8-1.9,3.5c-0.6,2.2-0.9,5.9-0.9,11s0.3,8.7,0.8,10.6c0.5,1.9,1.2,3.2,2,3.9
		c0.8,0.6,1.7,1,2.7,1c1,0,1.9-0.3,2.7-1c0.8-0.6,1.4-1.8,1.9-3.5c0.6-2.2,0.9-5.8,0.9-11s-0.3-8.7-0.8-10.6c-0.5-1.9-1.2-3.2-2-3.9
		C69.8,35,68.9,34.7,67.9,34.7z"/>
</g>
</svg>
