<?xml version="1.0" encoding="utf-8"?>
<!-- Generator: Adobe Illustrator 18.1.1, SVG Export Plug-In . SVG Version: 6.00 Build 0)  -->
<svg version="1.1" id="图层_1" xmlns="http://www.w3.org/2000/svg" xmlns:xlink="http://www.w3.org/1999/xlink" x="0px" y="0px"
	 width="100" height="100" enable-background="new 0 0 100 100" xml:space="preserve">
<line fill="none" stroke="#231815" stroke-width="0.216" stroke-miterlimit="22.9256" x1="101.8" y1="104" x2="-1" y2="104"/>
<path fill="#E41E26" d="M50.4,1c27,0,49,22,49,49s-22,49-49,49s-49-22-49-49C1.4,23,23.4,1,50.4,1L50.4,1z M22,18.1l62,58.2
	c5.7-7.3,9.1-16.4,9.1-26.3c0-23.5-19.2-42.7-42.7-42.7C39.5,7.3,29.6,11.4,22,18.1L22,18.1z M79.1,81.6l-62-58.3
	C11.2,30.6,7.7,39.9,7.7,50c0,23.5,19.2,42.7,42.7,42.7C61.4,92.8,71.5,88.5,79.1,81.6z"/>
<circle id="白色底图" fill="#FFFFFF" stroke="#010101" stroke-miterlimit="22.9256" cx="50.5" cy="49.9" r="42.5"/>
<g>
	<path fill="#010101" d="M26.5,47.7c-2.2-0.9-3.7-2.2-4.7-3.8c-1-1.6-1.5-3.3-1.5-5.2c0-3.3,1.1-5.9,3.4-8.1
		c2.3-2.1,5.5-3.2,9.7-3.2c4.1,0,7.4,1.1,9.7,3.2c2.3,2.1,3.4,4.8,3.4,8.1c0,2-0.5,3.8-1.6,5.4c-1,1.6-2.5,2.8-4.4,3.6
		c2.4,1,4.3,2.4,5.5,4.3c1.3,1.9,1.9,4,1.9,6.5c0,4-1.3,7.3-3.8,9.8c-2.6,2.5-6,3.8-10.2,3.8c-4,0-7.3-1-9.9-3.1
		c-3.1-2.5-4.7-5.8-4.7-10.1c0-2.4,0.6-4.5,1.8-6.5C22.2,50.3,24,48.8,26.5,47.7z M27.5,58c0,2.3,0.6,4.1,1.8,5.4
		c1.2,1.3,2.6,1.9,4.4,1.9c1.7,0,3.2-0.6,4.3-1.9c1.1-1.2,1.7-3,1.7-5.4c0-2-0.6-3.7-1.7-4.9c-1.1-1.2-2.6-1.9-4.4-1.9
		c-2,0-3.6,0.7-4.6,2.1C28,54.8,27.5,56.3,27.5,58z M28.3,39.3c0,1.7,0.5,3,1.4,3.9c0.9,0.9,2.2,1.4,3.8,1.4c1.6,0,2.9-0.5,3.8-1.4
		c0.9-0.9,1.4-2.2,1.4-3.9c0-1.6-0.5-2.8-1.4-3.8s-2.2-1.4-3.7-1.4c-1.6,0-2.9,0.5-3.8,1.4C28.7,36.5,28.3,37.7,28.3,39.3z"/>
	<path fill="#010101" d="M67.4,27.5c4.2,0,7.5,1.5,9.9,4.5c2.8,3.6,4.3,9.5,4.3,17.8c0,8.2-1.4,14.2-4.3,17.8
		c-2.4,3-5.6,4.5-9.9,4.5c-4.2,0-7.7-1.6-10.3-4.9c-2.6-3.3-3.9-9.1-3.9-17.4c0-8.2,1.4-14.1,4.3-17.7C59.9,29,63.2,27.5,67.4,27.5z
		 M67.4,34.4c-1,0-1.9,0.3-2.7,1c-0.8,0.6-1.4,1.8-1.8,3.5C62.3,41,62,44.6,62,49.8s0.3,8.6,0.8,10.5c0.5,1.9,1.2,3.2,2,3.8
		c0.8,0.6,1.7,0.9,2.7,0.9c1,0,1.9-0.3,2.7-1c0.8-0.6,1.4-1.8,1.8-3.5c0.6-2.1,0.9-5.8,0.9-10.9c0-5.1-0.3-8.6-0.8-10.5
		c-0.5-1.9-1.2-3.2-2-3.8C69.3,34.7,68.4,34.4,67.4,34.4z"/>
</g>
</svg>
