<?xml version="1.0" encoding="utf-8"?>
<!-- Generator: Adobe Illustrator 18.1.1, SVG Export Plug-In . SVG Version: 6.00 Build 0)  -->
<svg version="1.1" id="图层_1" xmlns="http://www.w3.org/2000/svg" xmlns:xlink="http://www.w3.org/1999/xlink" x="0px" y="0px"
	 width="184.1" height="100" enable-background="new 0 0 184.1 100" xml:space="preserve">
<g>
	<path fill="#ED2224" d="M183.8,40.1l-15.7-7.9l-77.2,20L17.7,32.5L0.6,40.3l6.5,12.2l40.8,10.9L7.1,74L0.5,86.1l17,7.9l73.3-19.1
		l77,20.6l15.7-7.8l-5.1-11.8l-44.9-12.1l45.1-11.8L183.8,40.1z M174.1,47.3l-63.1,16.3l62.8,16.7l2.3,5.2l-6.9,3.4L92,68.5
		L15.7,88.2l-7.5-3.5l2.9-5.3L73,63.5L11.1,47.1l-2.9-5.4l7.5-3.4l76.3,20.3l77.4-19.9l6.9,3.5L174.1,47.3z"/>
	<path fill="#ED2224" d="M92.9,47.8L179,26l5.1-12.3l-15.4-7.9l-75.5,19L16.8,4.6l-16,7l6.4,13.3L92.9,47.8z M16.5,10.2l75.8,21.2
		L170,12.1l7.4,3.2l-2.2,5.4L92.6,41.2L11.1,19.4L8.2,14L16.5,10.2z"/>
	<polygon fill="#FFFFFF" points="92.6,41.2 175.1,20.7 177.3,15.3 170,12.1 92.3,31.4 16.5,10.2 8.2,14 11.1,19.4 	"/>
	<polygon fill="#FFFFFF" points="92.1,58.6 15.8,38.3 8.3,41.7 11.1,47.1 73,63.5 11.1,79.4 8.2,84.7 15.7,88.2 92,68.5 169.2,89 
		176.1,85.5 173.9,80.3 111.1,63.6 174.1,47.3 176.4,42.2 169.5,38.7 	"/>
</g>
</svg>
