<?xml version="1.0" encoding="utf-8"?>
<!-- Generator: Adobe Illustrator 18.1.1, SVG Export Plug-In . SVG Version: 6.00 Build 0)  -->
<svg version="1.1" id="图层_1" xmlns="http://www.w3.org/2000/svg" xmlns:xlink="http://www.w3.org/1999/xlink" x="0px" y="0px"
	 width="100" height="100" enable-background="new 0 0 100 100" xml:space="preserve">
<line fill="none" stroke="#231815" stroke-width="0.216" stroke-miterlimit="22.9256" x1="102" y1="104.2" x2="-1" y2="104.2"/>
<path fill="#010101" d="M50.5,1c27,0,49.1,22,49.1,49.1s-22,49.1-49.1,49.1S1.4,77.1,1.4,50.1C1.4,23,23.5,1,50.5,1L50.5,1z
	 M22.1,18.1l62.1,58.3c5.7-7.3,9.1-16.4,9.1-26.4c0-23.6-19.2-42.8-42.8-42.8C39.6,7.3,29.6,11.4,22.1,18.1L22.1,18.1z M79.3,81.8
	L17.1,23.4C11.2,30.7,7.7,40,7.7,50.1c0,23.6,19.2,42.8,42.8,42.8C61.5,92.9,71.6,88.7,79.3,81.8z"/>
<ellipse id="白底" fill="#FFFFFF" cx="50.4" cy="50.3" rx="42.8" ry="43.3"/>
<g>
	<path fill="#010101" d="M41.4,72.6h-7.8V41.8c-2.9,2.8-6.2,4.9-10.1,6.2v-7.4c2-0.7,4.3-2,6.7-4c2.4-1.9,4-4.2,4.9-6.8h6.4V72.6
		L41.4,72.6z"/>
	<path fill="#010101" d="M66.4,29.8c4,0,7.1,1.5,9.3,4.4c2.7,3.5,4,9.3,4,17.4c0,8.1-1.3,13.9-4,17.4c-2.2,2.9-5.3,4.4-9.3,4.4
		c-4,0-7.2-1.6-9.6-4.8c-2.4-3.2-3.7-8.9-3.7-17.1c0-8,1.3-13.8,4-17.3C59.3,31.3,62.4,29.8,66.4,29.8z M66.4,36.6
		c-1,0-1.8,0.3-2.5,1c-0.7,0.6-1.3,1.8-1.7,3.4c-0.5,2.1-0.8,5.7-0.8,10.7S61.5,60,62,61.9c0.5,1.9,1.1,3.1,1.8,3.7
		c0.7,0.6,1.6,0.9,2.5,0.9s1.8-0.3,2.5-1c0.7-0.6,1.3-1.8,1.7-3.4c0.5-2.1,0.8-5.6,0.8-10.6s-0.2-8.4-0.7-10.3
		c-0.5-1.9-1.1-3.1-1.8-3.8C68.1,36.9,67.3,36.6,66.4,36.6z"/>
</g>
<rect x="45.1" y="0.6" transform="matrix(0.7071 0.7071 -0.7071 0.7071 46.3064 -18.5889)" fill="#010101" width="1.1" height="92.1"/>
<rect x="47.8" y="2.1" transform="matrix(0.7071 0.7071 -0.7071 0.7071 48.1788 -20.0979)" fill="#010101" width="1.1" height="92.1"/>
<rect x="49.8" y="4" transform="matrix(0.7071 0.7071 -0.7071 0.7071 50.1151 -20.978)" fill="#010101" width="1.1" height="92.1"/>
<rect x="52.1" y="5.2" transform="matrix(0.7071 0.7071 -0.7071 0.7071 51.6119 -22.2035)" fill="#010101" width="1.1" height="92.1"/>
<rect x="54" y="7.2" transform="matrix(0.7071 0.7071 -0.7071 0.7071 53.652 -22.9409)" fill="#010101" width="1.1" height="92.1"/>
</svg>
