<?xml version="1.0" encoding="utf-8"?>
<!-- Generator: Adobe Illustrator 18.1.1, SVG Export Plug-In . SVG Version: 6.00 Build 0)  -->
<svg version="1.1" id="图层_1" xmlns="http://www.w3.org/2000/svg" xmlns:xlink="http://www.w3.org/1999/xlink" x="0px" y="0px"
	 width="100" height="100" enable-background="new 0 0 100 100" xml:space="preserve">
<line fill="none" stroke="#231815" stroke-width="0.216" stroke-miterlimit="22.9256" x1="102.3" y1="104.7" x2="-2.2" y2="104.7"/>
<path fill="#010101" d="M50.1,0c27.4,0,49.8,22.4,49.8,49.8S77.5,99.6,50.1,99.6S0.3,77.2,0.3,49.8C0.3,22.4,22.6,0,50.1,0L50.1,0z
	 M21.2,17.4l63,59.2c5.8-7.4,9.3-16.7,9.3-26.8C93.5,25.9,74,6.4,50,6.4C39,6.4,28.9,10.5,21.2,17.4L21.2,17.4z M79.2,81.9
	L16.2,22.7c-6,7.4-9.5,16.9-9.5,27.1c0,23.9,19.5,43.4,43.4,43.4C61.3,93.2,71.5,88.9,79.2,81.9z"/>
<ellipse id="白底" fill="#FFFFFF" cx="49.9" cy="50.1" rx="43.4" ry="43.9"/>
<g>
	<path fill="#010101" d="M47.3,64.9v7.7H19.4c0.3-2.9,1.2-5.7,2.7-8.3c1.5-2.6,4.5-6.1,9-10.4c3.6-3.5,5.8-5.8,6.6-7.1
		c1.1-1.7,1.6-3.4,1.6-5.1c0-1.8-0.5-3.3-1.4-4.3c-1-1-2.3-1.5-4-1.5c-1.7,0-3,0.5-4,1.6c-1,1-1.5,2.8-1.7,5.2L20.3,42
		c0.5-4.6,2-7.8,4.4-9.8c2.5-2,5.6-3,9.3-3c4.1,0,7.3,1.2,9.7,3.5c2.3,2.3,3.5,5.2,3.5,8.6c0,2-0.3,3.8-1,5.6
		c-0.7,1.8-1.7,3.6-3.2,5.5c-1,1.3-2.7,3.1-5.2,5.5c-2.5,2.4-4.1,4-4.8,4.8c-0.7,0.8-1.2,1.6-1.6,2.3H47.3z"/>
	<path fill="#010101" d="M66.1,29.2c4,0,7.2,1.5,9.4,4.5c2.7,3.5,4,9.4,4,17.6c0,8.2-1.4,14.1-4.1,17.6c-2.3,2.9-5.4,4.4-9.4,4.4
		c-4,0-7.3-1.6-9.8-4.9c-2.5-3.2-3.7-9-3.7-17.3c0-8.1,1.4-14,4.1-17.6C59,30.7,62.1,29.2,66.1,29.2z M66.1,36.1c-1,0-1.8,0.3-2.6,1
		c-0.8,0.6-1.3,1.8-1.8,3.4c-0.5,2.1-0.8,5.7-0.8,10.8s0.2,8.6,0.7,10.5c0.5,1.9,1.1,3.2,1.9,3.8c0.8,0.6,1.6,0.9,2.6,0.9
		c1,0,1.8-0.3,2.6-1c0.8-0.6,1.3-1.8,1.8-3.4c0.5-2.1,0.8-5.7,0.8-10.8c0-5.1-0.2-8.6-0.7-10.5c-0.5-1.9-1.1-3.2-1.9-3.8
		C68,36.4,67.1,36.1,66.1,36.1z"/>
</g>
<rect x="44.5" y="-0.5" transform="matrix(0.7071 0.7071 -0.7071 0.7071 45.9175 -18.3231)" fill="#010101" width="1.1" height="93.4"/>
<rect x="47.3" y="1.1" transform="matrix(0.7071 0.7071 -0.7071 0.7071 47.8171 -19.8541)" fill="#010101" width="1.1" height="93.4"/>
<rect x="49.4" y="3" transform="matrix(0.7071 0.7071 -0.7071 0.7071 49.7816 -20.747)" fill="#010101" width="1.1" height="93.4"/>
<rect x="51.7" y="4.2" transform="matrix(0.7071 0.7071 -0.7071 0.7071 51.3002 -21.9903)" fill="#010101" width="1.1" height="93.4"/>
<rect x="53.6" y="6.3" transform="matrix(0.7071 0.7071 -0.7071 0.7071 53.37 -22.7385)" fill="#010101" width="1.1" height="93.4"/>
</svg>
