<?xml version="1.0" encoding="utf-8"?>
<!-- Generator: Adobe Illustrator 18.1.1, SVG Export Plug-In . SVG Version: 6.00 Build 0)  -->
<svg version="1.1" id="图层_1" xmlns="http://www.w3.org/2000/svg" xmlns:xlink="http://www.w3.org/1999/xlink" x="0px" y="0px"
	 width="100" height="100" enable-background="new 0 0 100 100" xml:space="preserve">
<line fill="none" stroke="#231815" stroke-width="0.216" stroke-miterlimit="22.9256" x1="101.7" y1="103.8" x2="-2" y2="103.8"/>
<path fill="#010101" d="M49.8,0C77,0,99.2,22.2,99.2,49.4S77,98.8,49.8,98.8S0.4,76.6,0.4,49.4C0.4,22.2,22.6,0,49.8,0L49.8,0z
	 M21.2,17.2L83.7,76c5.8-7.3,9.2-16.6,9.2-26.6c0-23.7-19.4-43.1-43.1-43.1C38.9,6.3,28.8,10.5,21.2,17.2L21.2,17.2z M78.8,81.3
	L16.2,22.5c-5.9,7.4-9.5,16.7-9.5,26.9c0,23.7,19.4,43.1,43.1,43.1C61,92.5,71.1,88.2,78.8,81.3z"/>
<ellipse id="白底" fill="#FFFFFF" cx="49.7" cy="49.7" rx="43" ry="43.6"/>
<g>
	<path fill="#010101" d="M20.1,60.7l7.6-1c0.2,2,0.9,3.6,2,4.7c1.1,1.1,2.4,1.6,3.9,1.6c1.6,0,3-0.6,4.1-1.9c1.1-1.3,1.7-3,1.7-5.2
		c0-2.1-0.5-3.7-1.6-4.9c-1.1-1.2-2.4-1.8-3.9-1.8c-1,0-2.2,0.2-3.6,0.6l0.9-6.7c2.1,0.1,3.8-0.4,4.9-1.4c1.1-1,1.7-2.4,1.7-4.1
		c0-1.4-0.4-2.6-1.2-3.5c-0.8-0.9-1.9-1.3-3.3-1.3c-1.3,0-2.5,0.5-3.5,1.5c-1,1-1.5,2.4-1.7,4.3l-7.3-1.3c0.5-2.6,1.3-4.7,2.3-6.2
		c1-1.6,2.4-2.8,4.3-3.7c1.8-0.9,3.9-1.3,6.1-1.3c3.9,0,7,1.3,9.3,3.9c1.9,2.1,2.9,4.5,2.9,7.1c0,3.8-2,6.8-5.9,9
		c2.4,0.5,4.2,1.7,5.7,3.5c1.4,1.8,2.1,4,2.1,6.6c0,3.8-1.3,7-4,9.6c-2.6,2.6-5.9,4-9.8,4c-3.7,0-6.8-1.1-9.3-3.3
		S20.5,64.3,20.1,60.7z"/>
	<path fill="#010101" d="M65.8,29c4,0,7.1,1.5,9.4,4.4c2.7,3.5,4,9.3,4,17.5c0,8.1-1.3,14-4,17.5c-2.2,2.9-5.3,4.4-9.3,4.4
		c-4,0-7.2-1.6-9.7-4.8c-2.5-3.2-3.7-8.9-3.7-17.2c0-8.1,1.3-13.9,4-17.4C58.7,30.5,61.8,29,65.8,29z M65.8,35.8c-1,0-1.8,0.3-2.6,1
		c-0.7,0.6-1.3,1.8-1.7,3.4c-0.5,2.1-0.8,5.7-0.8,10.7c0,5,0.2,8.5,0.7,10.4c0.5,1.9,1.1,3.1,1.8,3.8c0.7,0.6,1.6,0.9,2.5,0.9
		c1,0,1.8-0.3,2.6-1c0.7-0.6,1.3-1.8,1.7-3.4c0.5-2.1,0.8-5.7,0.8-10.7c0-5-0.2-8.5-0.7-10.4c-0.5-1.9-1.1-3.1-1.8-3.8
		C67.6,36.1,66.7,35.8,65.8,35.8z"/>
</g>
<rect x="44.4" y="-0.4" transform="matrix(0.7071 0.7071 -0.7071 0.7071 45.6035 -18.3015)" fill="#010101" width="1.1" height="92.7"/>
<rect x="47.1" y="1.1" transform="matrix(0.7071 0.7071 -0.7071 0.7071 47.4879 -19.8203)" fill="#010101" width="1.1" height="92.7"/>
<rect x="49.2" y="3" transform="matrix(0.7071 0.7071 -0.7071 0.7071 49.4368 -20.7061)" fill="#010101" width="1.1" height="92.7"/>
<rect x="51.4" y="4.2" transform="matrix(0.7071 0.7071 -0.7071 0.7071 50.9432 -21.9394)" fill="#010101" width="1.1" height="92.7"/>
<rect x="53.3" y="6.3" transform="matrix(0.7071 0.7071 -0.7071 0.7071 52.9966 -22.6817)" fill="#010101" width="1.1" height="92.7"/>
</svg>
