<?xml version="1.0" encoding="utf-8"?>
<!-- Generator: Adobe Illustrator 18.1.1, SVG Export Plug-In . SVG Version: 6.00 Build 0)  -->
<svg version="1.1" id="图层_1" xmlns="http://www.w3.org/2000/svg" xmlns:xlink="http://www.w3.org/1999/xlink" x="0px" y="0px"
	 width="100" height="100" enable-background="new 0 0 100 100" xml:space="preserve">
<line fill="none" stroke="#231815" stroke-width="0.216" stroke-miterlimit="22.9256" x1="102.2" y1="104.3" x2="-2" y2="104.3"/>
<path fill="#010101" d="M50.1,0c27.3,0,49.6,22.3,49.6,49.6S77.4,99.3,50.1,99.3S0.4,77,0.4,49.6C0.4,22.3,22.7,0,50.1,0L50.1,0z
	 M21.3,17.3l62.8,59c5.8-7.4,9.2-16.6,9.2-26.7c0-23.8-19.5-43.3-43.3-43.3C39.1,6.3,29,10.5,21.3,17.3L21.3,17.3z M79.2,81.7
	L16.3,22.6c-6,7.4-9.5,16.8-9.5,27c0,23.8,19.5,43.3,43.3,43.3C61.3,92.9,71.5,88.7,79.2,81.7z"/>
<ellipse id="白底" fill="#FFFFFF" cx="50" cy="49.9" rx="43.2" ry="43.8"/>
<g>
	<path fill="#010101" d="M36.1,72.4v-8.7H19.2v-7.2l18-27.4h6.7v27.3h5.1v7.3h-5.1v8.7H36.1z M36.1,56.5V41.7l-9.5,14.7L36.1,56.5
		L36.1,56.5z"/>
	<path fill="#010101" d="M66.1,29.1c4,0,7.1,1.5,9.4,4.5c2.7,3.5,4,9.4,4,17.6c0,8.2-1.4,14-4.1,17.6c-2.2,2.9-5.4,4.4-9.4,4.4
		c-4,0-7.3-1.6-9.7-4.8c-2.5-3.2-3.7-9-3.7-17.2c0-8.1,1.4-14,4.1-17.5C59,30.6,62.1,29.1,66.1,29.1z M66.1,36c-1,0-1.8,0.3-2.6,1
		c-0.7,0.6-1.3,1.8-1.8,3.4c-0.5,2.1-0.8,5.7-0.8,10.8s0.2,8.5,0.7,10.4c0.5,1.9,1.1,3.2,1.9,3.8c0.7,0.6,1.6,0.9,2.6,0.9
		s1.8-0.3,2.6-1c0.7-0.6,1.3-1.8,1.8-3.4c0.5-2.1,0.8-5.7,0.8-10.8s-0.2-8.5-0.7-10.4c-0.5-1.9-1.1-3.2-1.9-3.8
		C67.9,36.3,67.1,36,66.1,36z"/>
</g>
<rect x="44.6" y="-0.5" transform="matrix(0.7071 0.7071 -0.7071 0.7071 45.8258 -18.3964)" fill="#010101" width="1.1" height="93.1"/>
<rect x="47.4" y="1.1" transform="matrix(0.7071 0.7071 -0.7071 0.7071 47.7194 -19.9225)" fill="#010101" width="1.1" height="93.1"/>
<rect x="49.4" y="3" transform="matrix(0.7071 0.7071 -0.7071 0.7071 49.6776 -20.8126)" fill="#010101" width="1.1" height="93.1"/>
<rect x="51.7" y="4.2" transform="matrix(0.7071 0.7071 -0.7071 0.7071 51.1913 -22.0519)" fill="#010101" width="1.1" height="93.1"/>
<rect x="53.6" y="6.3" transform="matrix(0.7071 0.7071 -0.7071 0.7071 53.2546 -22.7977)" fill="#010101" width="1.1" height="93.1"/>
</svg>
