<?xml version="1.0" encoding="utf-8"?>
<!-- Generator: Adobe Illustrator 18.1.1, SVG Export Plug-In . SVG Version: 6.00 Build 0)  -->
<svg version="1.1" id="图层_1" xmlns="http://www.w3.org/2000/svg" xmlns:xlink="http://www.w3.org/1999/xlink" x="0px" y="0px"
	 width="100" height="100" enable-background="new 0 0 100 100" xml:space="preserve">
<line fill="none" stroke="#231815" stroke-width="0.216" stroke-miterlimit="22.9256" x1="101.5" y1="104.7" x2="-2" y2="104.7"/>
<path fill="#010101" d="M49.8,1c27.2,0,49.3,22.2,49.3,49.3S76.9,99.6,49.8,99.6S0.4,77.5,0.4,50.3C0.4,23.2,22.6,1,49.8,1L49.8,1z
	 M21.2,18.2l62.4,58.6c5.8-7.3,9.2-16.5,9.2-26.5c0-23.7-19.3-43-43-43C38.8,7.3,28.8,11.4,21.2,18.2L21.2,18.2z M78.6,82.1
	L16.2,23.5c-5.9,7.4-9.5,16.7-9.5,26.9c0,23.7,19.3,43,43,43C60.9,93.3,71,89.1,78.6,82.1z"/>
<ellipse id="白底" fill="#FFFFFF" cx="49.6" cy="50.6" rx="43" ry="43.5"/>
<g>
	<path fill="#010101" d="M20.5,61.9l7.9-0.8c0.2,1.9,0.9,3.3,2,4.4s2.4,1.6,3.8,1.6c1.6,0,3-0.7,4.2-2.1c1.1-1.4,1.7-3.5,1.7-6.3
		c0-2.6-0.6-4.6-1.7-5.9c-1.1-1.3-2.6-2-4.4-2c-2.3,0-4.3,1-6.1,3.1l-6.4-1l4-22.3h20.8v7.7H31.5l-1.2,7.3c1.8-0.9,3.6-1.4,5.4-1.4
		c3.5,0,6.5,1.3,8.9,4c2.4,2.7,3.7,6.1,3.7,10.3c0,3.5-1,6.7-2.9,9.4c-2.7,3.8-6.4,5.7-11.1,5.7c-3.8,0-6.9-1.1-9.3-3.2
		C22.4,68.4,21,65.5,20.5,61.9z"/>
	<path fill="#010101" d="M65.7,29.9c4,0,7.1,1.5,9.3,4.4c2.7,3.5,4,9.3,4,17.4c0,8.1-1.3,13.9-4,17.5c-2.2,2.9-5.3,4.4-9.3,4.4
		c-4,0-7.2-1.6-9.7-4.8s-3.7-8.9-3.7-17.1c0-8.1,1.3-13.9,4-17.4C58.6,31.4,61.7,29.9,65.7,29.9z M65.7,36.8c-1,0-1.8,0.3-2.6,1
		s-1.3,1.8-1.7,3.4c-0.5,2.1-0.8,5.7-0.8,10.7s0.2,8.5,0.7,10.4c0.5,1.9,1.1,3.1,1.8,3.8c0.7,0.6,1.6,0.9,2.5,0.9c1,0,1.8-0.3,2.6-1
		s1.3-1.8,1.7-3.4c0.5-2.1,0.8-5.7,0.8-10.7c0-5-0.2-8.5-0.7-10.4c-0.5-1.9-1.1-3.1-1.8-3.8C67.5,37.1,66.6,36.8,65.7,36.8z"/>
</g>
<rect x="44.3" y="0.6" transform="matrix(0.7071 0.7071 -0.7071 0.7071 46.2364 -17.9769)" fill="#010101" width="1.1" height="92.5"/>
<rect x="47.1" y="2.1" transform="matrix(0.7071 0.7071 -0.7071 0.7071 48.1178 -19.4933)" fill="#010101" width="1.1" height="92.5"/>
<rect x="49.1" y="4" transform="matrix(0.7071 0.7071 -0.7071 0.7071 50.0635 -20.3777)" fill="#010101" width="1.1" height="92.5"/>
<rect x="51.3" y="5.2" transform="matrix(0.7071 0.7071 -0.7071 0.7071 51.5676 -21.609)" fill="#010101" width="1.1" height="92.5"/>
<rect x="53.2" y="7.3" transform="matrix(0.7071 0.7071 -0.7071 0.7071 53.6177 -22.3501)" fill="#010101" width="1.1" height="92.5"/>
</svg>
