<?xml version="1.0" encoding="utf-8"?>
<!-- Generator: Adobe Illustrator 18.1.1, SVG Export Plug-In . SVG Version: 6.00 Build 0)  -->
<svg version="1.1" id="图层_1" xmlns="http://www.w3.org/2000/svg" xmlns:xlink="http://www.w3.org/1999/xlink" x="0px" y="0px"
	 width="100" height="100" enable-background="new 0 0 100 100" xml:space="preserve">
<line fill="none" stroke="#231815" stroke-width="0.216" stroke-miterlimit="22.9256" x1="102" y1="105" x2="-2.2" y2="105"/>
<path fill="#010101" d="M49.9,0.6c27.4,0,49.7,22.3,49.7,49.7S77.3,99.9,49.9,99.9S0.2,77.6,0.2,50.3C0.2,22.9,22.5,0.6,49.9,0.6
	L49.9,0.6z M21.1,17.9L84,77c5.8-7.4,9.2-16.6,9.2-26.7c0-23.9-19.5-43.3-43.3-43.3C38.9,6.9,28.8,11.1,21.1,17.9L21.1,17.9z
	 M79,82.3L16.1,23.2c-6,7.4-9.5,16.8-9.5,27.1c0,23.9,19.5,43.3,43.3,43.3C61.1,93.6,71.3,89.3,79,82.3z"/>
<ellipse id="白底" fill="#FFFFFF" cx="49.8" cy="50.5" rx="43.3" ry="43.8"/>
<g>
	<path fill="#010101" d="M47.2,40.5l-7.7,0.9c-0.2-1.6-0.7-2.9-1.5-3.6c-0.8-0.8-1.8-1.2-3.1-1.2c-1.7,0-3.1,0.8-4.2,2.4
		c-1.2,1.6-1.9,4.8-2.2,9.8c2-2.4,4.4-3.6,7.4-3.6c3.3,0,6.2,1.3,8.5,3.9c2.4,2.6,3.5,6,3.5,10.2c0,4.4-1.2,8-3.7,10.6
		c-2.5,2.7-5.7,4-9.6,4c-4.2,0-7.6-1.7-10.3-5.1c-2.7-3.4-4-8.9-4-16.6c0-7.9,1.4-13.6,4.2-17.1c2.8-3.5,6.5-5.2,10.9-5.2
		c3.1,0,5.7,0.9,7.8,2.8C45.4,34.3,46.7,37,47.2,40.5z M29.2,58.5c0,2.7,0.6,4.8,1.8,6.2c1.2,1.5,2.5,2.2,4.1,2.2
		c1.5,0,2.7-0.6,3.7-1.8c1-1.2,1.5-3.2,1.5-5.9c0-2.8-0.5-4.9-1.6-6.2c-1.1-1.3-2.4-2-4-2c-1.5,0-2.8,0.6-3.9,1.9
		C29.8,54.2,29.2,56.1,29.2,58.5z"/>
	<path fill="#010101" d="M65.9,29.7c4,0,7.1,1.5,9.4,4.5c2.7,3.5,4,9.4,4,17.6c0,8.2-1.4,14-4.1,17.6c-2.2,2.9-5.4,4.4-9.4,4.4
		c-4,0-7.3-1.6-9.8-4.8c-2.5-3.2-3.7-9-3.7-17.3c0-8.1,1.4-14,4.1-17.5C58.8,31.2,61.9,29.7,65.9,29.7z M65.9,36.6
		c-1,0-1.8,0.3-2.6,1S62,39.3,61.6,41c-0.5,2.1-0.8,5.7-0.8,10.8s0.2,8.5,0.7,10.4c0.5,1.9,1.1,3.2,1.9,3.8c0.7,0.6,1.6,0.9,2.6,0.9
		s1.8-0.3,2.6-1c0.7-0.6,1.3-1.8,1.8-3.4c0.5-2.1,0.8-5.7,0.8-10.8c0-5.1-0.2-8.5-0.7-10.4c-0.5-1.9-1.1-3.2-1.9-3.8
		C67.8,36.9,66.9,36.6,65.9,36.6z"/>
</g>
<rect x="44.4" y="0.1" transform="matrix(0.7071 0.7071 -0.7071 0.7071 46.2057 -18.0846)" fill="#010101" width="1.1" height="93.2"/>
<rect x="47.2" y="1.6" transform="matrix(0.7071 0.7071 -0.7071 0.7071 48.1009 -19.612)" fill="#010101" width="1.1" height="93.2"/>
<rect x="49.2" y="3.6" transform="matrix(0.7071 0.7071 -0.7071 0.7071 50.061 -20.5029)" fill="#010101" width="1.1" height="93.2"/>
<rect x="51.5" y="4.8" transform="matrix(0.7071 0.7071 -0.7071 0.7071 51.576 -21.7433)" fill="#010101" width="1.1" height="93.2"/>
<rect x="53.4" y="6.9" transform="matrix(0.7071 0.7071 -0.7071 0.7071 53.6411 -22.4898)" fill="#010101" width="1.1" height="93.2"/>
</svg>
