<?xml version="1.0" encoding="utf-8"?>
<!-- Generator: Adobe Illustrator 18.1.1, SVG Export Plug-In . SVG Version: 6.00 Build 0)  -->
<svg version="1.1" id="图层_1" xmlns="http://www.w3.org/2000/svg" xmlns:xlink="http://www.w3.org/1999/xlink" x="0px" y="0px"
	 width="100" height="100" enable-background="new 0 0 100 100" xml:space="preserve">
<line fill="none" stroke="#231815" stroke-width="0.216" stroke-miterlimit="22.9256" x1="102" y1="104" x2="-1.2" y2="104"/>
<path fill="#010101" d="M50.4,0.6c27.1,0,49.2,22.1,49.2,49.2S77.5,99,50.4,99S1.2,76.9,1.2,49.8C1.2,22.7,23.3,0.6,50.4,0.6
	L50.4,0.6z M21.9,17.8l62.2,58.5c5.7-7.3,9.2-16.5,9.2-26.5C93.3,26.2,74,6.9,50.4,6.9C39.5,6.9,29.5,11,21.9,17.8L21.9,17.8z
	 M79.2,81.5L16.9,23C11,30.4,7.5,39.7,7.5,49.8c0,23.6,19.3,42.9,42.9,42.9C61.5,92.7,71.6,88.5,79.2,81.5z"/>
<ellipse id="白底" fill="#FFFFFF" cx="50.3" cy="50" rx="42.9" ry="43.4"/>
<g>
	<path fill="#010101" d="M21.1,37.8v-7.6H48v5.9c-2.2,2.3-4.5,5.5-6.8,9.8c-2.3,4.3-4,8.8-5.2,13.6c-1.2,4.8-1.8,9.1-1.8,12.8h-7.6
		c0.1-5.9,1.3-11.9,3.5-18.1c2.2-6.1,5.2-11.6,8.9-16.5L21.1,37.8L21.1,37.8z"/>
	<path fill="#010101" d="M66.3,29.5c4,0,7.1,1.5,9.3,4.4c2.7,3.5,4,9.3,4,17.4c0,8.1-1.3,13.9-4,17.4c-2.2,2.9-5.3,4.4-9.3,4.4
		c-4,0-7.2-1.6-9.7-4.8c-2.4-3.2-3.7-8.9-3.7-17.1c0-8,1.3-13.8,4-17.4C59.2,30.9,62.3,29.5,66.3,29.5z M66.3,36.3
		c-1,0-1.8,0.3-2.5,1C63,37.8,62.4,39,62,40.6c-0.5,2.1-0.8,5.7-0.8,10.7s0.2,8.5,0.7,10.3c0.5,1.9,1.1,3.1,1.8,3.7
		c0.7,0.6,1.6,0.9,2.5,0.9s1.8-0.3,2.5-1s1.3-1.8,1.7-3.4c0.5-2.1,0.8-5.7,0.8-10.7s-0.2-8.5-0.7-10.3c-0.5-1.9-1.1-3.1-1.8-3.8
		C68.1,36.6,67.2,36.3,66.3,36.3z"/>
</g>
<rect x="44.9" y="0.1" transform="matrix(0.7071 0.7071 -0.7071 0.7071 46.0634 -18.601)" fill="#010101" width="1.1" height="92.3"/>
<rect x="47.7" y="1.7" transform="matrix(0.7071 0.7071 -0.7071 0.7071 47.9401 -20.1135)" fill="#010101" width="1.1" height="92.3"/>
<rect x="49.7" y="3.6" transform="matrix(0.7071 0.7071 -0.7071 0.7071 49.8809 -20.9957)" fill="#010101" width="1.1" height="92.3"/>
<rect x="52" y="4.8" transform="matrix(0.7071 0.7071 -0.7071 0.7071 51.3812 -22.224)" fill="#010101" width="1.1" height="92.3"/>
<rect x="53.9" y="6.9" transform="matrix(0.7071 0.7071 -0.7071 0.7071 53.4261 -22.9632)" fill="#010101" width="1.1" height="92.3"/>
</svg>
