<?xml version="1.0" encoding="utf-8"?>
<!-- Generator: Adobe Illustrator 18.1.1, SVG Export Plug-In . SVG Version: 6.00 Build 0)  -->
<svg version="1.1" id="图层_1" xmlns="http://www.w3.org/2000/svg" xmlns:xlink="http://www.w3.org/1999/xlink" x="0px" y="0px"
	 width="100" height="100" enable-background="new 0 0 100 100" xml:space="preserve">
<line fill="none" stroke="#231815" stroke-width="0.216" stroke-miterlimit="22.9256" x1="102.3" y1="104" x2="-1.5" y2="104"/>
<path fill="#010101" d="M50.4,0c27.3,0,49.5,22.2,49.5,49.5S77.7,99,50.4,99S0.9,76.7,0.9,49.5C0.9,22.2,23.2,0,50.4,0L50.4,0z
	 M21.7,17.3l62.6,58.8c5.8-7.3,9.2-16.6,9.2-26.6c0-23.8-19.4-43.2-43.2-43.2C39.4,6.3,29.4,10.5,21.7,17.3L21.7,17.3z M79.4,81.4
	L16.7,22.5c-5.9,7.4-9.5,16.8-9.5,26.9c0,23.8,19.4,43.2,43.2,43.2C61.5,92.6,71.7,88.4,79.4,81.4z"/>
<ellipse id="白底" fill="#FFFFFF" cx="50.3" cy="49.7" rx="43.1" ry="43.7"/>
<g>
	<path fill="#010101" d="M27.7,49c-2-0.9-3.5-2.1-4.5-3.7c-0.9-1.6-1.4-3.3-1.4-5.2c0-3.2,1.1-5.9,3.2-7.9c2.1-2.1,5.2-3.1,9.2-3.1
		c3.9,0,7,1,9.1,3.1c2.2,2.1,3.3,4.7,3.3,7.9c0,2-0.5,3.8-1.5,5.3c-1,1.6-2.4,2.7-4.2,3.6c2.3,1,4,2.4,5.2,4.2
		c1.2,1.8,1.8,4,1.8,6.4c0,4-1.2,7.2-3.6,9.7s-5.7,3.7-9.7,3.7c-3.8,0-6.9-1-9.4-3.1c-3-2.4-4.4-5.7-4.4-10c0-2.3,0.6-4.5,1.7-6.4
		C23.6,51.5,25.4,50.1,27.7,49z M28.6,59.1c0,2.3,0.6,4,1.7,5.3c1.1,1.3,2.5,1.9,4.2,1.9c1.6,0,3-0.6,4.1-1.8c1.1-1.2,1.6-3,1.6-5.3
		c0-2-0.5-3.6-1.6-4.9c-1.1-1.2-2.5-1.8-4.1-1.8c-1.9,0-3.4,0.7-4.3,2.1C29.1,56,28.6,57.5,28.6,59.1z M29.4,40.7
		c0,1.6,0.4,2.9,1.3,3.8c0.9,0.9,2.1,1.4,3.6,1.4c1.5,0,2.7-0.5,3.6-1.4c0.9-0.9,1.3-2.2,1.3-3.9c0-1.5-0.4-2.8-1.3-3.7
		c-0.9-0.9-2.1-1.4-3.5-1.4c-1.5,0-2.7,0.5-3.6,1.4C29.8,37.9,29.4,39.2,29.4,40.7z"/>
	<path fill="#010101" d="M66.4,29c4,0,7.1,1.5,9.4,4.5c2.7,3.5,4,9.4,4,17.5c0,8.1-1.3,14-4.1,17.5c-2.2,2.9-5.3,4.4-9.3,4.4
		c-4,0-7.2-1.6-9.7-4.8c-2.5-3.2-3.7-8.9-3.7-17.2c0-8.1,1.3-13.9,4.1-17.5C59.3,30.5,62.4,29,66.4,29z M66.4,35.9
		c-1,0-1.8,0.3-2.6,1c-0.7,0.6-1.3,1.8-1.7,3.4c-0.5,2.1-0.8,5.7-0.8,10.8s0.2,8.5,0.7,10.4c0.5,1.9,1.1,3.1,1.8,3.8
		c0.7,0.6,1.6,0.9,2.6,0.9s1.8-0.3,2.6-1c0.7-0.6,1.3-1.8,1.7-3.4c0.5-2.1,0.8-5.7,0.8-10.7c0-5-0.2-8.5-0.7-10.4
		c-0.5-1.9-1.1-3.2-1.8-3.8C68.2,36.2,67.3,35.9,66.4,35.9z"/>
</g>
<rect x="44.9" y="-0.4" transform="matrix(0.7071 0.7071 -0.7071 0.7071 45.8201 -18.6772)" fill="#010101" width="1.1" height="92.8"/>
<rect x="47.7" y="1.1" transform="matrix(0.7071 0.7071 -0.7071 0.7071 47.7075 -20.1984)" fill="#010101" width="1.1" height="92.8"/>
<rect x="49.7" y="3" transform="matrix(0.7071 0.7071 -0.7071 0.7071 49.6595 -21.0856)" fill="#010101" width="1.1" height="92.8"/>
<rect x="52" y="4.2" transform="matrix(0.7071 0.7071 -0.7071 0.7071 51.1684 -22.321)" fill="#010101" width="1.1" height="92.8"/>
<rect x="53.9" y="6.3" transform="matrix(0.7071 0.7071 -0.7071 0.7071 53.2251 -23.0644)" fill="#010101" width="1.1" height="92.8"/>
</svg>
