<?xml version="1.0" encoding="utf-8"?>
<!-- Generator: Adobe Illustrator 18.1.1, SVG Export Plug-In . SVG Version: 6.00 Build 0)  -->
<svg version="1.1" id="图层_1" xmlns="http://www.w3.org/2000/svg" xmlns:xlink="http://www.w3.org/1999/xlink" x="0px" y="0px"
	 width="100" height="191.2" enable-background="new 0 0 100 191.2" xml:space="preserve">
<path fill="#010101" d="M96.5,89.5H3.4c-4-0.7-3.8-4.7-1-9.5L46.2,3.2c1.7-2.6,5.8-4.2,8.2,0l43.1,75.2
	C100.6,83,103.2,89.6,96.5,89.5L96.5,89.5z"/>
<polygon fill="#F4AB1C" points="7.1,83.6 50.6,8.9 94.2,83.6 "/>
<rect x="30.7" y="71.6" fill="#231815" stroke="#231815" stroke-width="0.216" stroke-miterlimit="2.4142" width="2.7" height="3.5"/>
<rect x="31.6" y="60.9" fill="#231815" stroke="#231815" stroke-width="0.216" stroke-miterlimit="2.4142" width="35.9" height="8.4"/>
<rect x="63.1" y="58.4" fill="#231815" stroke="#231815" stroke-width="0.216" stroke-miterlimit="2.4142" width="9.3" height="3.4"/>
<rect x="35.3" y="58.5" fill="#231815" stroke="#231815" stroke-width="0.216" stroke-miterlimit="2.4142" width="5" height="3.4"/>
<polygon fill="#231815" stroke="#231815" stroke-width="0.216" stroke-miterlimit="2.4142" points="53.4,58 57.1,58 58.7,61.3 
	51.6,61.3 "/>
<polygon fill="#231815" stroke="#231815" stroke-width="0.216" stroke-miterlimit="2.4142" points="29.4,68.9 65.9,68.9 65.9,66.1 
	72.5,66.1 72.4,68.9 72.4,72.1 29.4,72.1 "/>
<ellipse fill="#231815" stroke="#231815" stroke-width="0.216" stroke-miterlimit="2.4142" cx="67.3" cy="74.2" rx="4.5" ry="4"/>
<ellipse fill="#231815" stroke="#231815" stroke-width="0.216" stroke-miterlimit="2.4142" cx="56.7" cy="74.2" rx="4.5" ry="4"/>
<ellipse fill="#231815" stroke="#231815" stroke-width="0.216" stroke-miterlimit="2.4142" cx="46.1" cy="74.2" rx="4.5" ry="4"/>
<ellipse fill="#231815" stroke="#231815" stroke-width="0.216" stroke-miterlimit="2.4142" cx="38.3" cy="75.1" rx="3" ry="3.1"/>
<path fill="#231815" stroke="#231815" stroke-width="0.216" stroke-miterlimit="2.4142" d="M32,78.2c-1.2,0-2.2-1-2.2-2.3
	c0-1.2,1-2.3,2.2-2.3c1.2,0,2.2,1,2.2,2.3C34.2,77.2,33.2,78.2,32,78.2"/>
<path fill="#231815" stroke="#231815" stroke-width="0.216" stroke-miterlimit="2.4142" d="M45.6,46.2c2-4.3,5.1-6.1,10-4.2
	c6.4-2.1,12.7,1.1,9.7,9c-0.7,2.1-3.1,3-7.1,2.6c-1.8,1.9-4.5,1.5-7.7,0c-1.9,2.1-4.5,2.6-8,1.3c-1.8,0.4-3,1.4-2.8,3.7l-3.5-0.1
	C36.2,51,39.7,47.3,45.6,46.2L45.6,46.2z"/>
<rect x="25.3" y="87.7" fill="#231815" stroke="#231815" stroke-width="0.216" stroke-miterlimit="2.4142" width="48.5" height="103.5"/>
<rect x="27.2" y="89" fill="#FFFFFF" stroke="#231815" stroke-width="0.216" stroke-miterlimit="2.4142" width="44.6" height="99.9"/>
<polygon fill="#DF1F26" stroke="#231815" stroke-width="0.216" stroke-miterlimit="2.4142" points="72.4,140 27.2,151.2 26.9,137.2 
	72.4,125.1 "/>
</svg>
