<?xml version="1.0" encoding="utf-8"?>
<!-- Generator: Adobe Illustrator 18.1.1, SVG Export Plug-In . SVG Version: 6.00 Build 0)  -->
<svg version="1.1" id="图层_1" xmlns="http://www.w3.org/2000/svg" xmlns:xlink="http://www.w3.org/1999/xlink" x="0px" y="0px"
	 width="100" height="191.2" enable-background="new 0 0 100 191.2" xml:space="preserve">
<path fill="#010101" d="M96.2,88.9H3.1c-4-0.7-3.8-4.7-1-9.5L45.9,2.6c1.7-2.6,5.8-4.2,8.2,0l43.1,75.1
	C100.2,82.3,102.9,88.9,96.2,88.9L96.2,88.9z"/>
<polygon fill="#F4AB1C" points="6.8,82.9 50.3,8.3 93.8,82.9 "/>
<rect x="30.4" y="70.9" fill="#231815" stroke="#231815" stroke-width="0.216" stroke-miterlimit="2.4142" width="2.6" height="3.5"/>
<rect x="31.3" y="60.2" fill="#231815" stroke="#231815" stroke-width="0.216" stroke-miterlimit="2.4142" width="35.9" height="8.4"/>
<rect x="62.8" y="57.7" fill="#231815" stroke="#231815" stroke-width="0.216" stroke-miterlimit="2.4142" width="9.3" height="3.3"/>
<rect x="35" y="57.9" fill="#231815" stroke="#231815" stroke-width="0.216" stroke-miterlimit="2.4142" width="4.9" height="3.3"/>
<polygon fill="#231815" stroke="#231815" stroke-width="0.216" stroke-miterlimit="2.4142" points="53.1,57.3 56.8,57.3 58.4,60.7 
	51.3,60.7 "/>
<polygon fill="#231815" stroke="#231815" stroke-width="0.216" stroke-miterlimit="2.4142" points="29.1,68.2 65.6,68.2 65.5,65.5 
	72.2,65.5 72,68.2 72,71.4 29.1,71.4 "/>
<ellipse fill="#231815" stroke="#231815" stroke-width="0.216" stroke-miterlimit="2.4142" cx="67" cy="73.5" rx="4.5" ry="4"/>
<ellipse fill="#231815" stroke="#231815" stroke-width="0.216" stroke-miterlimit="2.4142" cx="56.4" cy="73.5" rx="4.5" ry="4"/>
<ellipse fill="#231815" stroke="#231815" stroke-width="0.216" stroke-miterlimit="2.4142" cx="45.8" cy="73.5" rx="4.5" ry="4"/>
<ellipse fill="#231815" stroke="#231815" stroke-width="0.216" stroke-miterlimit="2.4142" cx="38" cy="74.4" rx="3" ry="3.1"/>
<path fill="#231815" stroke="#231815" stroke-width="0.216" stroke-miterlimit="2.4142" d="M31.7,77.5c-1.2,0-2.2-1-2.2-2.3
	c0-1.2,1-2.3,2.2-2.3c1.2,0,2.2,1,2.2,2.3C33.9,76.5,32.9,77.5,31.7,77.5"/>
<path fill="#231815" stroke="#231815" stroke-width="0.216" stroke-miterlimit="2.4142" d="M45.3,45.5c2-4.3,5.1-6.1,10-4.2
	c6.4-2.1,12.7,1.1,9.7,9c-0.7,2.1-3.1,3-7.1,2.6c-1.8,1.9-4.5,1.5-7.7,0c-1.9,2.1-4.5,2.6-8,1.3c-1.8,0.4-3,1.4-2.8,3.7L36,57.9
	C35.9,50.3,39.4,46.6,45.3,45.5L45.3,45.5z"/>
<rect x="25" y="87" fill="#231815" stroke="#231815" stroke-width="0.216" stroke-miterlimit="2.4142" width="48.4" height="103.4"/>
<rect x="26.9" y="88.3" fill="#FFFFFF" stroke="#231815" stroke-width="0.216" stroke-miterlimit="2.4142" width="44.6" height="99.8"/>
<polygon fill="#DF1F26" stroke="#231815" stroke-width="0.216" stroke-miterlimit="2.4142" points="72,128.3 26.9,139.6 26.6,125.6 
	72,113.4 "/>
<polygon fill="#DF1F26" stroke="#231815" stroke-width="0.216" stroke-miterlimit="2.4142" points="72,148.9 26.9,160.1 26.6,146.2 
	72,134 "/>
</svg>
