<?xml version="1.0" encoding="utf-8"?>
<!-- Generator: Adobe Illustrator 18.1.1, SVG Export Plug-In . SVG Version: 6.00 Build 0)  -->
<svg version="1.1" id="图层_1" xmlns="http://www.w3.org/2000/svg" xmlns:xlink="http://www.w3.org/1999/xlink" x="0px" y="0px"
	 width="39.3" height="217.4" enable-background="new 0 0 39.3 217.4" xml:space="preserve">
<path fill="#393A39" d="M39.3,19.5V198c0,10.8-8.7,19.5-19.5,19.5l0,0C9,217.5,0.2,208.8,0.2,198V19.5C0.2,8.7,9,0,19.8,0l0,0
	C30.6,0,39.3,8.7,39.3,19.5z"/>
<ellipse fill="#020202" cx="19.7" cy="34.8" rx="18.1" ry="21.3"/>
<ellipse fill="#020202" cx="19.9" cy="137.7" rx="18.1" ry="21.3"/>
<circle fill="#D02029" cx="19.7" cy="37.5" r="16"/>
<circle fill="#41B649" cx="19.9" cy="140.2" r="16"/>
<ellipse fill="#020202" cx="19.7" cy="185.1" rx="18.1" ry="21.3"/>
<circle fill="#41B649" cx="19.7" cy="187.7" r="16"/>
<ellipse fill="#020202" cx="20.2" cy="85.4" rx="18.1" ry="21.3"/>
<circle fill="#F5EB16" cx="20.2" cy="88.3" r="16"/>
<polygon fill="#11713B" stroke="#FFFFFF" stroke-width="3.685039e-003" stroke-miterlimit="2.4142" points="28.4,141.8 17.4,141.7 
	20.2,144.6 16,144.6 11.5,139.8 16.1,135.4 20.2,135.4 17.5,138.5 28.4,138.6 "/>
<polygon fill="#11713B" stroke="#FFFFFF" stroke-width="3.685039e-003" stroke-miterlimit="2.4142" points="11.3,189 22.3,189 
	19.4,191.8 23.7,191.7 28.2,187 23.6,182.6 19.5,182.6 22.3,185.8 11.3,185.8 "/>
</svg>
