<?xml version="1.0" encoding="utf-8"?>
<!-- Generator: Adobe Illustrator 18.1.1, SVG Export Plug-In . SVG Version: 6.00 Build 0)  -->
<svg version="1.1" id="图层_1" xmlns="http://www.w3.org/2000/svg" xmlns:xlink="http://www.w3.org/1999/xlink" x="0px" y="0px"
	 width="39.3" height="217.4" enable-background="new 0 0 39.3 217.4" xml:space="preserve">
<path fill="#393A39" d="M39.3,19.4v178.1c0,10.7-8.7,19.5-19.5,19.5l0,0C9,217,0.3,208.3,0.3,197.5V19.4C0.3,8.7,9-0.1,19.8-0.1l0,0
	C30.6-0.1,39.3,8.6,39.3,19.4z"/>
<ellipse fill="#020202" cx="19.8" cy="22.4" rx="18.1" ry="21.3"/>
<ellipse fill="#020202" cx="19.8" cy="109.1" rx="18.1" ry="21.3"/>
<circle fill="#D02029" cx="19.8" cy="25.1" r="16"/>
<circle fill="#41B649" cx="19.8" cy="111.6" r="16"/>
<ellipse fill="#020202" cx="19.8" cy="153" rx="18.1" ry="21.3"/>
<circle fill="#41B649" cx="19.8" cy="155.5" r="16"/>
<ellipse fill="#020202" cx="19.8" cy="65.3" rx="18.1" ry="21.3"/>
<circle fill="#F5EB16" cx="19.8" cy="68.2" r="16"/>
<polygon fill="#11713B" stroke="#FFFFFF" stroke-width="3.685039e-003" stroke-miterlimit="2.4142" points="28.2,113.3 17.3,113.2 
	20.1,116.1 15.8,116 11.3,111.2 15.9,106.8 20,106.8 17.3,110 28.2,110 "/>
<polygon fill="#11713B" stroke="#FFFFFF" stroke-width="3.685039e-003" stroke-miterlimit="2.4142" points="18,163.4 18,152.5 
	15.2,155.3 15.2,151.1 20,146.6 24.3,151.1 24.3,155.2 21.2,152.5 21.2,163.5 "/>
<ellipse fill="#020202" cx="19.8" cy="195.8" rx="18.1" ry="21.3"/>
<circle fill="#41B649" cx="19.8" cy="198.4" r="16"/>
<polygon fill="#11713B" stroke="#FFFFFF" stroke-width="3.685039e-003" stroke-miterlimit="2.4142" points="11.4,196.1 22.3,196.1 
	19.4,193.3 23.7,193.3 28.2,198.1 23.6,202.4 19.6,202.4 22.3,199.3 11.3,199.3 "/>
</svg>
