<?xml version="1.0" encoding="utf-8"?>
<!-- Generator: Adobe Illustrator 18.1.1, SVG Export Plug-In . SVG Version: 6.00 Build 0)  -->
<svg version="1.1" id="图层_1" xmlns="http://www.w3.org/2000/svg" xmlns:xlink="http://www.w3.org/1999/xlink" x="0px" y="0px"
	 width="250" height="51.2" enable-background="new 0 0 250 51.2" xml:space="preserve">
<path fill="#383938" d="M227.6,51.2H22.5C10.1,51.2,0,41.2,0,28.7l0,0C0,16.4,10,6.3,22.5,6.3h205.1c12.4,0,22.5,10,22.5,22.5l0,0
	C250,41.2,240,51.2,227.6,51.2z"/>
<ellipse fill="#010101" cx="24.6" cy="24.9" rx="20.8" ry="24.5"/>
<ellipse fill="#010101" cx="125.7" cy="24.5" rx="20.8" ry="24.5"/>
<circle fill="#D02027" cx="24.4" cy="28" r="18.4"/>
<circle fill="#3FB549" cx="125.5" cy="27.4" r="18.4"/>
<ellipse fill="#010101" cx="177.8" cy="24.9" rx="20.8" ry="24.5"/>
<circle fill="#3FB549" cx="178.1" cy="27.8" r="18.4"/>
<ellipse fill="#010101" cx="73.4" cy="24.5" rx="20.8" ry="24.5"/>
<circle fill="#F6EB16" cx="73.8" cy="27.8" r="18.4"/>
<polygon fill="#0C713A" stroke="#FFFFFF" stroke-width="3.685039e-003" stroke-miterlimit="2.4142" points="134.2,29.3 121.6,29.3 
	124.8,32.5 119.9,32.5 114.8,27 120,21.9 124.7,21.9 121.6,25.6 134.3,25.6 "/>
<polygon fill="#0C713A" stroke="#FFFFFF" stroke-width="3.685039e-003" stroke-miterlimit="2.4142" points="176.1,36.9 176.1,24.3 
	172.9,27.6 172.9,22.7 178.4,17.5 183.5,22.7 183.5,27.5 179.8,24.4 179.8,37 "/>
<ellipse fill="#010101" cx="226.5" cy="24.9" rx="20.8" ry="24.5"/>
<circle fill="#3FB549" cx="226.9" cy="27.8" r="18.4"/>
<polygon fill="#0C713A" stroke="#FFFFFF" stroke-width="3.685039e-003" stroke-miterlimit="2.4142" points="217.2,25.1 229.8,25.2 
	226.5,21.9 231.4,22 236.6,27.5 231.4,32.5 226.7,32.5 229.8,28.9 217.1,28.9 "/>
</svg>
