<?xml version="1.0" encoding="utf-8"?>
<!-- Generator: Adobe Illustrator 18.1.1, SVG Export Plug-In . SVG Version: 6.00 Build 0)  -->
<svg version="1.1" id="图层_1" xmlns="http://www.w3.org/2000/svg" xmlns:xlink="http://www.w3.org/1999/xlink" x="0px" y="0px"
	 width="39.3" height="217.4" enable-background="new 0 0 39.3 217.4" xml:space="preserve">
<path fill="#393A39" d="M39.2,19.6v177.9c0,10.8-8.7,19.4-19.4,19.4l0,0c-10.8,0-19.4-8.7-19.4-19.4V19.6C0.3,8.9,8.9,0.2,19.7,0.2
	l0,0C30.5,0.2,39.2,8.9,39.2,19.6z"/>
<ellipse fill="#020202" cx="19.6" cy="34.9" rx="18.1" ry="21.2"/>
<ellipse fill="#020202" cx="20" cy="137.4" rx="18.1" ry="21.2"/>
<circle fill="#D02029" cx="19.6" cy="37.5" r="16"/>
<circle fill="#41B649" cx="20" cy="139.9" r="16"/>
<ellipse fill="#020202" cx="19.6" cy="184.7" rx="18.1" ry="21.2"/>
<circle fill="#41B649" cx="19.6" cy="187.2" r="16"/>
<ellipse fill="#020202" cx="20.1" cy="85.3" rx="18.1" ry="21.2"/>
<circle fill="#F5EB16" cx="20.1" cy="88.1" r="16"/>
<polygon fill="#11713B" stroke="#FFFFFF" stroke-width="3.685039e-003" stroke-miterlimit="2.4142" points="18.1,148.1 18.2,137.2 
	15.3,140 15.3,135.7 20.1,131.2 24.5,135.8 24.5,139.9 21.4,137.2 21.3,148.1 "/>
<polygon fill="#11713B" stroke="#FFFFFF" stroke-width="3.685039e-003" stroke-miterlimit="2.4142" points="11.3,188.6 22.2,188.5 
	19.4,191.3 23.7,191.3 28.1,186.5 23.6,182.1 19.5,182.1 22.2,185.3 11.2,185.3 "/>
</svg>
