<?xml version="1.0" encoding="utf-8"?>
<!-- Generator: Adobe Illustrator 18.1.1, SVG Export Plug-In . SVG Version: 6.00 Build 0)  -->
<svg version="1.1" id="图层_1" xmlns="http://www.w3.org/2000/svg" xmlns:xlink="http://www.w3.org/1999/xlink" x="0px" y="0px"
	 width="200" height="44.5" enable-background="new 0 0 200 44.5" xml:space="preserve">
<path fill="#383938" d="M181.7,44.3H18.3c-9.9,0-17.9-8-17.9-17.9l0,0c0-9.9,8-17.9,17.9-17.9h163.4c9.9,0,17.9,8,17.9,17.9l0,0
	C199.6,36.3,191.6,44.3,181.7,44.3z"/>
<ellipse fill="#010101" cx="29.8" cy="21.9" rx="18.2" ry="21.4"/>
<ellipse fill="#010101" cx="121.9" cy="21.6" rx="18.2" ry="21.4"/>
<circle fill="#D02027" cx="29.5" cy="24.6" r="16.1"/>
<circle fill="#3FB549" cx="121.7" cy="24.1" r="16.1"/>
<ellipse fill="#010101" cx="170.4" cy="21.9" rx="18.2" ry="21.4"/>
<circle fill="#3FB549" cx="170.8" cy="24.4" r="16.1"/>
<ellipse fill="#010101" cx="75.3" cy="21.6" rx="18.2" ry="21.4"/>
<circle fill="#F6EB16" cx="75.6" cy="24.5" r="16.1"/>
<polygon fill="#0C713A" stroke="#FFFFFF" stroke-width="3.685039e-003" stroke-miterlimit="2.4142" points="120.6,32.5 120.6,21.6 
	117.8,24.4 117.8,20.1 122.6,15.6 127,20.2 127,24.3 123.8,21.6 123.8,32.6 "/>
<polygon fill="#0C713A" stroke="#FFFFFF" stroke-width="3.685039e-003" stroke-miterlimit="2.4142" points="162.4,22.4 173.3,22.4 
	170.5,19.6 174.8,19.6 179.3,24.4 174.7,28.8 170.6,28.8 173.3,25.6 162.3,25.6 "/>
</svg>
