<?xml version="1.0" encoding="utf-8"?>
<!-- Generator: Adobe Illustrator 18.1.1, SVG Export Plug-In . SVG Version: 6.00 Build 0)  -->
<svg version="1.1" id="图层_1" xmlns="http://www.w3.org/2000/svg" xmlns:xlink="http://www.w3.org/1999/xlink" x="0px" y="0px"
	 width="39.3" height="217.4" enable-background="new 0 0 39.3 217.4" xml:space="preserve">
<path fill="#393A39" d="M39.1,19.7v178.6c0,10.8-8.8,19.5-19.5,19.5l0,0C8.8,217.8,0,209,0,198.3V19.7C0,8.9,8.7,0.2,19.5,0.2l0,0
	C30.4,0.2,39.1,8.9,39.1,19.7z"/>
<ellipse fill="#020202" cx="19.4" cy="35" rx="18.1" ry="21.3"/>
<ellipse fill="#020202" cx="19.7" cy="137.9" rx="18.1" ry="21.3"/>
<circle fill="#D02029" cx="19.4" cy="37.7" r="16.1"/>
<circle fill="#41B649" cx="19.7" cy="140.4" r="16.1"/>
<ellipse fill="#020202" cx="19.4" cy="185.5" rx="18.1" ry="21.3"/>
<circle fill="#41B649" cx="19.4" cy="188" r="16.1"/>
<ellipse fill="#020202" cx="19.9" cy="85.4" rx="18.1" ry="21.3"/>
<circle fill="#F5EB16" cx="19.9" cy="88.2" r="16.1"/>
<polygon fill="#11713B" stroke="#FFFFFF" stroke-width="3.685039e-003" stroke-miterlimit="2.4142" points="28.1,142.1 17.2,142.1 
	20,144.8 15.7,144.8 11.2,140.1 15.8,135.7 19.9,135.7 17.2,138.8 28.2,138.8 "/>
<polygon fill="#11713B" stroke="#FFFFFF" stroke-width="3.685039e-003" stroke-miterlimit="2.4142" points="17.6,196 17.7,185 
	14.9,187.8 14.9,183.6 19.7,179.1 24,183.6 24,187.7 20.9,185 20.9,196 "/>
</svg>
