<?xml version="1.0" encoding="utf-8"?>
<!-- Generator: Adobe Illustrator 18.1.1, SVG Export Plug-In . SVG Version: 6.00 Build 0)  -->
<svg version="1.1" id="图层_1" xmlns="http://www.w3.org/2000/svg" xmlns:xlink="http://www.w3.org/1999/xlink" x="0px" y="0px"
	 width="200" height="44.5" enable-background="new 0 0 200 44.5" xml:space="preserve">
<path fill="#383938" d="M182.1,44.2H18c-9.9,0-18-8-18-18l0,0c0-9.9,8-18,18-18h164.1c9.9,0,18,8,18,18l0,0
	C200,36.2,192,44.2,182.1,44.2z"/>
<ellipse fill="#010101" cx="29.5" cy="21.7" rx="18.3" ry="21.5"/>
<ellipse fill="#010101" cx="122" cy="21.4" rx="18.3" ry="21.5"/>
<circle fill="#D02027" cx="29.2" cy="24.4" r="16.1"/>
<circle fill="#3FB549" cx="121.8" cy="23.9" r="16.1"/>
<ellipse fill="#010101" cx="170.8" cy="21.7" rx="18.3" ry="21.5"/>
<circle fill="#3FB549" cx="171.1" cy="24.3" r="16.1"/>
<ellipse fill="#010101" cx="75.2" cy="21.4" rx="18.3" ry="21.5"/>
<circle fill="#F6EB16" cx="75.5" cy="24.3" r="16.1"/>
<polygon fill="#0C713A" stroke="#FFFFFF" stroke-width="3.685039e-003" stroke-miterlimit="2.4142" points="129.4,25.6 118.4,25.5 
	121.2,28.4 116.9,28.3 112.4,23.5 117,19.1 121.1,19.1 118.4,22.3 129.5,22.3 "/>
<polygon fill="#0C713A" stroke="#FFFFFF" stroke-width="3.685039e-003" stroke-miterlimit="2.4142" points="169.3,32.2 169.3,21.2 
	166.5,24 166.5,19.7 171.3,15.2 175.8,19.8 175.8,23.9 172.6,21.2 172.6,32.3 "/>
</svg>
