<?xml version="1.0" encoding="utf-8"?>
<!-- Generator: Adobe Illustrator 18.1.1, SVG Export Plug-In . SVG Version: 6.00 Build 0)  -->
<svg version="1.1" id="图层_1" xmlns="http://www.w3.org/2000/svg" xmlns:xlink="http://www.w3.org/1999/xlink" x="0px" y="0px"
	 width="138" height="100" enable-background="new 0 0 138 100" xml:space="preserve">
<polygon fill="#FFFFFF" stroke="#2A3685" stroke-width="2.8346" stroke-miterlimit="2.4142" points="3.1,1.3 134.9,1.3 134.9,98.7 
	3.1,98.7 "/>
<polygon fill="#2A3685" stroke="#1569B3" stroke-width="1.1339" stroke-miterlimit="2.4142" points="6.9,3.8 131.1,3.8 131.1,95.4 
	6.9,95.4 "/>
<g>
	<line fill="none" x1="10.4" y1="47.3" x2="10.4" y2="36.9"/>
	<line fill="none" x1="10.4" y1="68" x2="10.4" y2="57.5"/>
	<line fill="none" x1="6.6" y1="88.9" x2="10.4" y2="88.9"/>
</g>
<g>
	<rect x="46.4" y="9.1" fill="#FFFFFF" width="3.8" height="11.6"/>
	<rect x="46.4" y="31.5" fill="#FFFFFF" width="3.8" height="11.6"/>
	<rect x="46.4" y="54.3" fill="#FFFFFF" width="3.8" height="11.6"/>
	<rect x="46.4" y="77.3" fill="#FFFFFF" width="3.8" height="11.6"/>
</g>
<path fill="#E41E26" d="M28.6,8c8.6,0,15.6,7,15.6,15.6c0,8.6-7,15.6-15.6,15.6c-8.6,0-15.6-7-15.6-15.6C12.9,15,19.9,8,28.6,8
	L28.6,8z M39.3,32.1c1.8-2.3,2.9-5.3,2.9-8.4c0-7.5-6.1-13.7-13.7-13.7c-3.5,0-6.7,1.3-9.1,3.5l0,0 M17.9,15.1c-1.9,2.3-3,5.3-3,8.5
	c0,7.5,6.1,13.7,13.7,13.7c3.5,0,6.7-1.3,9.2-3.6"/>
<ellipse id="白底_1_" fill="#FFFFFF" cx="28.5" cy="23.7" rx="13.6" ry="13.8"/>
<g>
	<path fill="#010101" d="M19.2,26.7l2.4-0.3c0.1,0.5,0.3,1,0.6,1.3c0.3,0.3,0.7,0.5,1.2,0.5c0.5,0,0.9-0.2,1.3-0.6
		c0.3-0.4,0.5-1,0.5-1.8c0-0.8-0.2-1.3-0.5-1.7c-0.3-0.4-0.8-0.6-1.3-0.6c-0.7,0-1.3,0.3-1.9,0.9l-2-0.3l1.2-6.5h6.3v2.2h-4.5
		l-0.4,2.1c0.5-0.3,1.1-0.4,1.6-0.4c1.1,0,2,0.4,2.7,1.2c0.7,0.8,1.1,1.8,1.1,3c0,1-0.3,2-0.9,2.8c-0.8,1.1-2,1.7-3.4,1.7
		c-1.1,0-2.1-0.3-2.8-0.9C19.8,28.6,19.4,27.8,19.2,26.7z"/>
	<path fill="#010101" d="M34.2,17.3c1.2,0,2.2,0.4,2.8,1.3c0.8,1,1.2,2.7,1.2,5.1s-0.4,4.1-1.2,5.1c-0.7,0.9-1.6,1.3-2.8,1.3
		s-2.2-0.5-3-1.4c-0.7-0.9-1.1-2.6-1.1-5c0-2.4,0.4-4.1,1.2-5.1C32,17.8,33,17.3,34.2,17.3z M34.2,19.3c-0.3,0-0.5,0.1-0.8,0.3
		c-0.2,0.2-0.4,0.5-0.5,1c-0.2,0.6-0.3,1.7-0.3,3.1c0,1.5,0.1,2.5,0.2,3c0.1,0.5,0.3,0.9,0.6,1.1c0.2,0.2,0.5,0.3,0.8,0.3
		c0.3,0,0.5-0.1,0.8-0.3c0.2-0.2,0.4-0.5,0.5-1c0.2-0.6,0.3-1.7,0.3-3.1c0-1.5-0.1-2.5-0.2-3c-0.1-0.5-0.3-0.9-0.6-1.1
		C34.7,19.4,34.5,19.3,34.2,19.3z"/>
</g>
<path fill="#E41E26" d="M68.3,8C77,8,84,15.1,84,23.7c0,8.6-7,15.6-15.6,15.6c-8.6,0-15.6-7-15.6-15.6C52.7,15,59.7,8,68.3,8L68.3,8
	z M79.1,32.1c1.8-2.3,2.9-5.3,2.9-8.4C82,16.2,75.9,10,68.3,10c-3.5,0-6.7,1.3-9.1,3.5l0,0 M57.7,15.1c-1.9,2.3-3,5.3-3,8.5
	c0,7.5,6.1,13.7,13.7,13.7c3.5,0,6.7-1.3,9.2-3.6"/>
<rect x="88.1" y="5.4" fill="#FFFFFF" width="39" height="86.8"/>
<ellipse id="白底_2_" fill="#FFFFFF" cx="68.3" cy="23.7" rx="13.6" ry="13.8"/>
<g>
	<path fill="#010101" d="M63.7,29.9v-2.5h-5.1v-2.1l5.4-8h2v8h1.6v2.1H66v2.5H63.7z M63.7,25.3V21l-2.9,4.3H63.7z"/>
	<path fill="#010101" d="M74,17.3c1.2,0,2.2,0.4,2.8,1.3c0.8,1,1.2,2.7,1.2,5.1s-0.4,4.1-1.2,5.1c-0.7,0.9-1.6,1.3-2.8,1.3
		c-1.2,0-2.2-0.5-3-1.4c-0.7-0.9-1.1-2.6-1.1-5c0-2.4,0.4-4.1,1.2-5.1C71.8,17.8,72.8,17.3,74,17.3z M74,19.3
		c-0.3,0-0.5,0.1-0.8,0.3s-0.4,0.5-0.5,1c-0.2,0.6-0.3,1.7-0.3,3.1c0,1.5,0.1,2.5,0.2,3s0.3,0.9,0.6,1.1c0.2,0.2,0.5,0.3,0.8,0.3
		c0.3,0,0.5-0.1,0.8-0.3s0.4-0.5,0.5-1c0.2-0.6,0.3-1.7,0.3-3.1c0-1.5-0.1-2.5-0.2-3c-0.1-0.5-0.3-0.9-0.6-1.1
		C74.5,19.4,74.3,19.3,74,19.3z"/>
</g>
<path fill="#E41E26" d="M107.6,8.9c8.6,0,15.6,7,15.6,15.6c0,8.6-7,15.6-15.6,15.6c-8.6,0-15.6-7-15.6-15.6S99,8.9,107.6,8.9
	L107.6,8.9z M118.4,32.9c1.8-2.3,2.9-5.3,2.9-8.4c0-7.5-6.1-13.7-13.7-13.7c-3.5,0-6.7,1.3-9.1,3.5l0,0 M97,16c-1.9,2.3-3,5.3-3,8.5
	c0,7.5,6.1,13.7,13.7,13.7c3.5,0,6.7-1.3,9.2-3.6"/>
<ellipse id="白底_3_" fill="#2A3785" cx="107.6" cy="24.6" rx="13.6" ry="13.8"/>
<path fill="#E41E26" d="M107.8,54.5c8.6,0,15.6,7,15.6,15.6c0,8.6-7,15.6-15.6,15.6c-8.6,0-15.6-7-15.6-15.6
	C92.1,61.6,99.1,54.5,107.8,54.5L107.8,54.5z M118.5,78.6c1.8-2.3,2.9-5.3,2.9-8.4c0-7.5-6.1-13.7-13.7-13.7c-3.5,0-6.7,1.3-9.1,3.5
	l0,0 M97.1,61.7c-1.9,2.3-3,5.3-3,8.5c0,7.5,6.1,13.7,13.7,13.7c3.5,0,6.7-1.3,9.2-3.6"/>
<ellipse id="白底_4_" fill="#FFFFFF" cx="107.7" cy="70.3" rx="13.6" ry="13.8"/>
<g>
	<path fill="#FFFFFF" d="M26.9,48.1c0.3,0.1,0.8,0.2,1.3,0.4c0.2,0,0.2,0.1,0.2,0.1c0,0.1,0,0.1-0.1,0.2c-0.2,0.2-0.3,0.5-0.5,1
		c-0.5,1.2-1,2.2-1.4,2.8c-0.4-0.2-0.8-0.4-1.3-0.5C26,51,26.6,49.7,26.9,48.1z M29.3,45.6h1.3c0.1,0,0.2,0,0.2,0.1
		c0,0.1,0,0.1-0.1,0.2c-0.1,0.1-0.1,0.3-0.1,0.6v7c0,0.4-0.1,0.7-0.2,0.9c-0.1,0.2-0.3,0.3-0.7,0.4c-0.3,0.1-0.8,0.1-1.5,0.2
		c0-0.5-0.2-0.9-0.5-1.5c0.5,0.1,0.9,0.1,1.1,0.1c0.2,0,0.3,0,0.3-0.1c0-0.1,0.1-0.1,0.1-0.3V45.6z M34.7,51.8l-1.4,0.7
		c-0.3-0.7-0.6-1.4-1-2.2c-0.4-0.8-0.8-1.3-1.1-1.7l1.2-0.7C33.3,49.2,34.1,50.5,34.7,51.8z"/>
	<path fill="#FFFFFF" d="M27.9,58.9h-2.2v-1.1h2.7c0.2-0.4,0.4-0.9,0.5-1.3c0.4,0.1,0.7,0.2,1.1,0.3c0.3,0.1,0.5,0.1,0.5,0.2
		c0,0,0.1,0.1,0.1,0.1c0,0.1-0.1,0.1-0.2,0.2c-0.1,0.1-0.3,0.3-0.4,0.6h4.1v1.1h-4.7c-0.3,0.6-0.7,1.2-1.2,1.8h1.5v-1.4h1.2
		c0.2,0,0.3,0.1,0.3,0.2c0,0.1,0,0.1-0.1,0.2c-0.1,0.1-0.1,0.4-0.1,1h2.5v1.1h-2.5v1.1h3.4V64h-3.4v2.1h-1.4V64h-4.3v-1.1h4.3v-1.1
		c-1.4,0-2.5,0.1-3.2,0.2c-0.1-0.4-0.2-0.8-0.2-1.3c0.3-0.1,0.6-0.3,0.9-0.6C27.4,59.9,27.7,59.5,27.9,58.9z"/>
	<path fill="#FFFFFF" d="M34.9,75.6c-0.2,0.4-0.3,0.8-0.4,1.3c-0.9,0-1.6,0-2.3,0c-1.8,0-3-0.1-3.6-0.2c-0.6-0.1-1-0.3-1.2-0.5
		c-0.1-0.1-0.2-0.2-0.2-0.2c-0.1,0-0.1,0-0.2,0.1c-0.1,0-0.2,0.2-0.4,0.4c-0.2,0.2-0.4,0.4-0.5,0.6c-0.4-0.4-0.7-0.8-1-1.1
		c0.7-0.5,1-0.7,1.2-0.8c0.1-0.1,0.2-0.3,0.2-0.6V72h-1.2v-1.1h2.4v3.5c0,0.4,0.1,0.7,0.3,0.9s0.5,0.3,1,0.4
		c0.5,0.1,1.3,0.1,2.6,0.1C32.9,75.7,34,75.7,34.9,75.6z M28.1,70.1l-1.3,0.4c-0.1-0.6-0.4-1.3-0.9-2l1.2-0.5
		C27.5,68.6,27.8,69.3,28.1,70.1z M31.4,69.1c0.2-0.3,0.3-0.8,0.5-1.4c0.7,0.2,1.1,0.4,1.2,0.4c0.1,0,0.1,0.1,0.1,0.1
		c0,0.1,0,0.1-0.1,0.2c-0.1,0.1-0.3,0.3-0.6,0.7h1.8v1h-2.7c0,0.2-0.1,0.3-0.1,0.5h2v5h-1.2v-0.5h-2.4v0.4h-1.2v-5h1.6
		c0-0.2,0.1-0.3,0.1-0.5h-2.3v-1h1.6c-0.2-0.3-0.4-0.5-0.7-0.8l1.1-0.6c0.3,0.3,0.5,0.7,0.8,1.1l-0.7,0.3L31.4,69.1L31.4,69.1z
		 M30,71.8h2.4v-0.4H30V71.8z M30,73h2.4v-0.4H30V73z M32.4,73.8H30v0.5h2.4V73.8z"/>
</g>
<g>
	<path fill="#FFFFFF" d="M69,48.4h3.6v1.2h-3.4c0.3,1.1,0.8,1.9,1.4,2.6c0.6,0.6,1.5,1.2,2.6,1.7c-0.4,0.3-0.8,0.8-1.2,1.3
		c-1.7-0.9-2.9-2.2-3.5-3.8c-0.6,1.5-1.8,2.8-3.9,3.9c-0.2-0.4-0.6-0.8-1.1-1.2c1.3-0.6,2.2-1.2,2.8-1.8c0.5-0.7,0.9-1.6,1.1-2.6
		h-3.4v-1.2h3.5c0-0.5,0.1-0.9,0.1-1.3c0-0.4,0-0.8,0-1.2c0.3,0,0.6,0,0.9,0s0.6,0,0.6,0s0.1,0.1,0.1,0.1c0,0.1,0,0.1,0,0.2
		c-0.1,0.2-0.1,0.6-0.1,1.2C69.1,47.6,69,48,69,48.4z"/>
	<path fill="#FFFFFF" d="M66.3,59.2h-2.2v-1.1h2.7c0.2-0.4,0.4-0.9,0.5-1.3c0.4,0.1,0.7,0.2,1.1,0.3c0.3,0.1,0.5,0.1,0.5,0.2
		c0,0,0.1,0.1,0.1,0.1s-0.1,0.1-0.2,0.2s-0.3,0.3-0.4,0.6h4.1v1.1h-4.7c-0.3,0.6-0.7,1.2-1.2,1.8h1.5v-1.4h1.2
		c0.2,0,0.3,0.1,0.3,0.2c0,0.1,0,0.1-0.1,0.2c-0.1,0.1-0.1,0.4-0.1,1H72v1.1h-2.5v1.1h3.4v1.1h-3.4v2.1h-1.4v-2.1h-4.3v-1.1h4.3
		v-1.1c-1.4,0-2.5,0.1-3.2,0.2c-0.1-0.4-0.2-0.8-0.2-1.3c0.3-0.1,0.6-0.3,0.9-0.6C65.8,60.2,66,59.8,66.3,59.2z"/>
	<path fill="#FFFFFF" d="M73.3,75.9c-0.2,0.4-0.3,0.8-0.4,1.3c-0.9,0-1.6,0-2.3,0c-1.8,0-3-0.1-3.6-0.2c-0.6-0.1-1-0.3-1.2-0.5
		c-0.1-0.1-0.2-0.2-0.2-0.2c-0.1,0-0.1,0-0.2,0.1c-0.1,0-0.2,0.2-0.4,0.4c-0.2,0.2-0.4,0.4-0.5,0.6c-0.4-0.4-0.7-0.8-1-1.1
		c0.7-0.5,1-0.7,1.2-0.8c0.1-0.1,0.2-0.3,0.2-0.6v-2.6h-1.2v-1.1h2.4v3.5c0,0.4,0.1,0.7,0.3,0.9c0.2,0.2,0.5,0.3,1,0.4
		c0.5,0.1,1.3,0.1,2.6,0.1C71.3,76,72.4,76,73.3,75.9z M66.4,70.4l-1.3,0.4c-0.1-0.6-0.4-1.3-0.9-2l1.2-0.5
		C65.9,68.8,66.2,69.5,66.4,70.4z M69.7,69.4c0.2-0.3,0.3-0.8,0.5-1.4c0.7,0.2,1.1,0.4,1.2,0.4s0.1,0.1,0.1,0.1c0,0.1,0,0.1-0.1,0.2
		c-0.1,0.1-0.3,0.3-0.6,0.7h1.8v1h-2.7c0,0.2-0.1,0.3-0.1,0.5h2v5h-1.2v-0.5h-2.4v0.4h-1.2v-5h1.6c0-0.2,0.1-0.3,0.1-0.5h-2.3v-1
		h1.6c-0.2-0.3-0.4-0.5-0.7-0.8l1.1-0.6c0.3,0.3,0.5,0.7,0.8,1.1l-0.7,0.3L69.7,69.4L69.7,69.4z M68.3,72.1h2.4v-0.4h-2.4V72.1
		L68.3,72.1z M68.3,73.3h2.4v-0.4h-2.4V73.3L68.3,73.3z M70.8,74.1h-2.4v0.5h2.4V74.1z"/>
</g>
<polygon fill="#FFFFFF" points="34.6,84.1 34.6,82.1 25.7,82.1 25.7,84 22.9,84 30.1,88.7 37.4,84.1 "/>
<polygon fill="#FFFFFF" points="72.6,84.1 72.6,82.1 63.6,82.1 63.6,84.1 60.9,84 68.1,88.7 75.3,84.1 "/>
<path fill="#231815" stroke="#231815" stroke-width="0.216" stroke-miterlimit="2.4142" d="M115.1,58.3c-2.2-1.3-4.7-2-7.4-2
	c-2.7,0-5.2,0.7-7.4,2h0.1l7.1,4.2L115.1,58.3L115.1,58.3L115.1,58.3z"/>
<path fill="#231815" stroke="#231815" stroke-width="0.216" stroke-miterlimit="2.4142" d="M115.3,82.3c-2.2,1.3-4.7,2-7.4,2
	c-2.7,0-5.2-0.7-7.4-2h0.1l7.1-4.2L115.3,82.3L115.3,82.3L115.3,82.3z"/>
<path fill="#231815" d="M108,76.6v-7h1v1c0.2-0.3,0.5-0.6,0.9-0.8c0.4-0.2,0.8-0.3,1.2-0.3c0.5,0,0.9,0.1,1.2,0.3
	c0.3,0.2,0.5,0.5,0.7,0.9c0.5-0.8,1.3-1.2,2.1-1.2c0.7,0,1.2,0.2,1.6,0.6c0.4,0.4,0.5,1,0.5,1.8v4.8h-1.1v-4.4c0-0.5,0-0.8-0.1-1
	c-0.1-0.2-0.2-0.4-0.4-0.5c-0.2-0.1-0.4-0.2-0.7-0.2c-0.5,0-0.9,0.2-1.2,0.5c-0.3,0.3-0.5,0.8-0.5,1.6v4H112V72
	c0-0.5-0.1-0.9-0.3-1.2c-0.2-0.3-0.5-0.4-0.9-0.4c-0.3,0-0.6,0.1-0.9,0.3c-0.3,0.2-0.5,0.4-0.6,0.8c-0.1,0.3-0.2,0.8-0.2,1.5v3.6
	L108,76.6L108,76.6z"/>
<path fill="#231815" stroke="#231815" stroke-width="3.685039e-003" stroke-miterlimit="2.4142" d="M99.2,64.3h5.2v2.1H101v2
	c2.8-0.4,5.8,3.8,2.8,7.4c-2,1.4-4.5,0.8-5.1-2.5l1.6-0.2c0.4,1.9,2.6,2.3,3,0.1c0.3-3-1.8-3.8-4.1-2.8V64.3L99.2,64.3z"/>
<rect x="92.7" y="23.2" transform="matrix(-0.7071 -0.7071 0.7071 -0.7071 166.5741 117.8189)" fill="#E41E26" width="30.1" height="2.4"/>
<rect x="92.7" y="22.8" transform="matrix(0.7071 -0.7071 0.7071 0.7071 14.5569 83.1837)" fill="#E41E26" width="30.1" height="2.4"/>
</svg>
