<?xml version="1.0" encoding="utf-8"?>
<!-- Generator: Adobe Illustrator 18.1.1, SVG Export Plug-In . SVG Version: 6.00 Build 0)  -->
<svg version="1.1" id="图层_1" xmlns="http://www.w3.org/2000/svg" xmlns:xlink="http://www.w3.org/1999/xlink" x="0px" y="0px"
	 width="100" height="191.2" enable-background="new 0 0 100 191.2" xml:space="preserve">
<path fill="#010101" d="M96,90.5H2.9c-4-0.7-3.8-4.7-1-9.5L45.7,4.3c1.7-2.6,5.8-4.2,8.2,0l43.1,75.1C100,84,102.7,90.6,96,90.5
	L96,90.5z"/>
<polygon fill="#F4AB1C" points="6.6,84.5 50.1,9.9 93.7,84.5 "/>
<rect x="30.2" y="72.5" fill="#231815" stroke="#231815" stroke-width="0.216" stroke-miterlimit="2.4142" width="2.6" height="3.5"/>
<rect x="31.1" y="61.9" fill="#231815" stroke="#231815" stroke-width="0.216" stroke-miterlimit="2.4142" width="35.9" height="8.4"/>
<rect x="62.6" y="59.4" fill="#231815" stroke="#231815" stroke-width="0.216" stroke-miterlimit="2.4142" width="9.3" height="3.3"/>
<rect x="34.8" y="59.5" fill="#231815" stroke="#231815" stroke-width="0.216" stroke-miterlimit="2.4142" width="4.9" height="3.3"/>
<polygon fill="#231815" stroke="#231815" stroke-width="0.216" stroke-miterlimit="2.4142" points="52.9,59 56.6,59 58.2,62.3 
	51.1,62.3 "/>
<polygon fill="#231815" stroke="#231815" stroke-width="0.216" stroke-miterlimit="2.4142" points="28.9,69.9 65.4,69.9 65.3,67.1 
	72,67.1 71.9,69.9 71.9,73.1 28.9,73.1 "/>
<ellipse fill="#231815" stroke="#231815" stroke-width="0.216" stroke-miterlimit="2.4142" cx="66.8" cy="75.2" rx="4.5" ry="4"/>
<ellipse fill="#231815" stroke="#231815" stroke-width="0.216" stroke-miterlimit="2.4142" cx="56.2" cy="75.2" rx="4.5" ry="4"/>
<ellipse fill="#231815" stroke="#231815" stroke-width="0.216" stroke-miterlimit="2.4142" cx="45.6" cy="75.2" rx="4.5" ry="4"/>
<ellipse fill="#231815" stroke="#231815" stroke-width="0.216" stroke-miterlimit="2.4142" cx="37.8" cy="76" rx="3" ry="3.1"/>
<path fill="#231815" stroke="#231815" stroke-width="0.216" stroke-miterlimit="2.4142" d="M31.5,79.2c-1.2,0-2.2-1-2.2-2.3
	c0-1.2,1-2.3,2.2-2.3s2.2,1,2.2,2.3C33.7,78.2,32.7,79.2,31.5,79.2"/>
<path fill="#231815" stroke="#231815" stroke-width="0.216" stroke-miterlimit="2.4142" d="M45.1,47.2c2-4.3,5.1-6.1,10-4.2
	c6.4-2.1,12.7,1.1,9.7,9c-0.7,2.1-3.1,3-7.1,2.6c-1.8,1.9-4.5,1.5-7.7,0c-1.9,2.1-4.5,2.6-8,1.3c-1.8,0.4-3,1.4-2.8,3.7l-3.5-0.1
	C35.7,52,39.2,48.3,45.1,47.2L45.1,47.2z"/>
<rect x="24.9" y="88.7" fill="#231815" stroke="#231815" stroke-width="0.216" stroke-miterlimit="2.4142" width="48.4" height="103.4"/>
<rect x="26.7" y="90" fill="#FFFFFF" stroke="#231815" stroke-width="0.216" stroke-miterlimit="2.4142" width="44.6" height="99.8"/>
<polygon fill="#DF1F26" stroke="#231815" stroke-width="0.216" stroke-miterlimit="2.4142" points="71.9,121.2 26.7,132.5 
	26.5,118.5 71.9,106.3 "/>
<polygon fill="#DF1F26" stroke="#231815" stroke-width="0.216" stroke-miterlimit="2.4142" points="71.9,141.8 26.7,153 26.5,139 
	71.9,126.9 "/>
<polygon fill="#DF1F26" stroke="#231815" stroke-width="0.216" stroke-miterlimit="2.4142" points="71.7,162.6 26.5,173.8 
	26.3,159.8 71.7,147.7 "/>
</svg>
