<?xml version="1.0" encoding="utf-8"?>
<!-- Generator: Adobe Illustrator 18.1.1, SVG Export Plug-In . SVG Version: 6.00 Build 0)  -->
<svg version="1.1" id="图层_1" xmlns="http://www.w3.org/2000/svg" xmlns:xlink="http://www.w3.org/1999/xlink" x="0px" y="0px"
	 width="175" height="100" enable-background="new 0 0 175 100" xml:space="preserve">
<polygon fill="#FFFFFF" stroke="#2A3685" stroke-width="2.8346" stroke-miterlimit="2.4142" points="1.3,1.7 173.7,1.7 173.7,99.1 
	1.3,99.1 "/>
<polygon fill="#2A3685" stroke="#1569B3" stroke-width="1.1339" stroke-miterlimit="2.4142" points="6.4,4.2 168.6,4.2 168.6,95.8 
	6.4,95.8 "/>
<g>
	<rect x="45.4" y="16.9" fill="#FFFFFF" width="3.8" height="10.5"/>
	<rect x="45.4" y="37.2" fill="#FFFFFF" width="3.8" height="10.5"/>
	<rect x="45.4" y="57.9" fill="#FFFFFF" width="3.8" height="10.5"/>
	<rect x="45.4" y="78.7" fill="#FFFFFF" width="3.8" height="10.5"/>
</g>
<g>
	<rect x="85.2" y="9.5" fill="#FFFFFF" width="3.8" height="11.5"/>
	<rect x="85.2" y="31.9" fill="#FFFFFF" width="3.8" height="11.5"/>
	<rect x="85.2" y="54.6" fill="#FFFFFF" width="3.8" height="11.5"/>
	<rect x="85.2" y="77.7" fill="#FFFFFF" width="3.8" height="11.5"/>
</g>
<path fill="#E41E26" d="M27.9,8.4c8.6,0,15.6,7,15.6,15.6c0,8.6-7,15.6-15.6,15.6c-8.6,0-15.6-7-15.6-15.6
	C12.2,15.4,19.2,8.4,27.9,8.4L27.9,8.4z M38.6,32.4c1.8-2.3,2.9-5.2,2.9-8.4c0-7.5-6.1-13.6-13.6-13.6c-3.5,0-6.7,1.3-9.1,3.5l0,0
	 M17.2,15.5c-1.9,2.3-3,5.3-3,8.5c0,7.5,6.1,13.6,13.6,13.6c3.5,0,6.7-1.4,9.2-3.6"/>
<ellipse id="白底" fill="#FFFFFF" cx="27.8" cy="24.1" rx="13.6" ry="13.8"/>
<g>
	<path fill="#010101" d="M26.6,20.8L24.3,21c-0.1-0.5-0.2-0.8-0.4-1.1c-0.2-0.2-0.5-0.3-0.9-0.3c-0.5,0-0.9,0.2-1.3,0.7
		c-0.3,0.5-0.6,1.4-0.7,2.8c0.6-0.7,1.3-1.1,2.2-1.1c1,0,1.9,0.4,2.6,1.1s1.1,1.7,1.1,3c0,1.3-0.4,2.3-1.1,3.1
		c-0.8,0.8-1.7,1.2-2.9,1.2c-1.3,0-2.3-0.5-3.1-1.5c-0.8-1-1.2-2.6-1.2-4.8c0-2.3,0.4-3.9,1.3-5c0.9-1,2-1.5,3.3-1.5
		c0.9,0,1.7,0.3,2.4,0.8C26.1,19,26.5,19.8,26.6,20.8z M21.2,26c0,0.8,0.2,1.4,0.5,1.8c0.4,0.4,0.8,0.6,1.2,0.6
		c0.4,0,0.8-0.2,1.1-0.5c0.3-0.3,0.4-0.9,0.4-1.7c0-0.8-0.2-1.4-0.5-1.8c-0.3-0.4-0.7-0.6-1.2-0.6c-0.5,0-0.9,0.2-1.2,0.5
		C21.3,24.8,21.2,25.3,21.2,26z"/>
	<path fill="#010101" d="M33.5,17.7c1.2,0,2.2,0.4,2.8,1.3c0.8,1,1.2,2.7,1.2,5.1s-0.4,4.1-1.2,5.1c-0.7,0.9-1.6,1.3-2.8,1.3
		c-1.2,0-2.2-0.5-3-1.4c-0.8-0.9-1.1-2.6-1.1-5c0-2.4,0.4-4.1,1.2-5.1C31.3,18.1,32.3,17.7,33.5,17.7z M33.5,19.7
		c-0.3,0-0.5,0.1-0.8,0.3c-0.2,0.2-0.4,0.5-0.5,1C32,21.5,32,22.6,32,24c0,1.5,0.1,2.5,0.2,3c0.2,0.5,0.3,0.9,0.6,1.1
		c0.2,0.2,0.5,0.3,0.8,0.3c0.3,0,0.5-0.1,0.8-0.3c0.2-0.2,0.4-0.5,0.5-1c0.2-0.6,0.3-1.7,0.3-3.1c0-1.5-0.1-2.5-0.2-3
		c-0.2-0.5-0.3-0.9-0.6-1.1C34,19.7,33.8,19.7,33.5,19.7z"/>
</g>
<path fill="#E41E26" d="M67.4,8.4C76,8.4,83,15.4,83,24c0,8.6-7,15.6-15.6,15.6c-8.6,0-15.6-7-15.6-15.6S58.7,8.4,67.4,8.4L67.4,8.4
	z M78.1,32.5c1.8-2.3,2.9-5.2,2.9-8.4c0-7.5-6.1-13.6-13.6-13.6c-3.5,0-6.7,1.3-9.1,3.5l0,0 M56.7,15.5c-1.9,2.3-3,5.3-3,8.5
	c0,7.5,6.1,13.6,13.6,13.6c3.5,0,6.7-1.4,9.2-3.6"/>
<ellipse id="白底_1_" fill="#FFFFFF" cx="67.3" cy="24.1" rx="13.6" ry="13.8"/>
<g>
	<path fill="#010101" d="M66.1,20.8l-2.3,0.3c-0.1-0.5-0.2-0.8-0.4-1.1c-0.2-0.2-0.5-0.3-0.9-0.3c-0.5,0-0.9,0.2-1.3,0.7
		c-0.3,0.5-0.6,1.4-0.7,2.8c0.6-0.7,1.3-1.1,2.2-1.1c1,0,1.9,0.4,2.6,1.1c0.7,0.8,1.1,1.7,1.1,3c0,1.3-0.4,2.3-1.1,3.1
		s-1.7,1.2-2.9,1.2C61,30.5,60,30,59.2,29c-0.8-1-1.2-2.6-1.2-4.8c0-2.3,0.4-3.9,1.3-5c0.9-1,2-1.5,3.3-1.5c0.9,0,1.7,0.3,2.4,0.8
		C65.6,19.1,66,19.8,66.1,20.8z M60.7,26.1c0,0.8,0.2,1.4,0.5,1.8c0.4,0.4,0.8,0.6,1.2,0.6c0.4,0,0.8-0.2,1.1-0.5
		c0.3-0.3,0.4-0.9,0.4-1.7c0-0.8-0.2-1.4-0.5-1.8c-0.3-0.4-0.7-0.6-1.2-0.6c-0.5,0-0.9,0.2-1.2,0.5C60.8,24.8,60.7,25.4,60.7,26.1z"
		/>
	<path fill="#010101" d="M73,17.7c1.2,0,2.2,0.4,2.8,1.3c0.8,1,1.2,2.7,1.2,5.1s-0.4,4.1-1.2,5.1c-0.7,0.9-1.6,1.3-2.8,1.3
		c-1.2,0-2.2-0.5-3-1.4c-0.8-0.9-1.1-2.6-1.1-5c0-2.4,0.4-4.1,1.2-5.1C70.8,18.1,71.8,17.7,73,17.7z M73,19.7
		c-0.3,0-0.5,0.1-0.8,0.3c-0.2,0.2-0.4,0.5-0.5,1c-0.2,0.6-0.3,1.7-0.3,3.1c0,1.5,0.1,2.5,0.2,3c0.2,0.5,0.3,0.9,0.6,1.1
		c0.2,0.2,0.5,0.3,0.8,0.3s0.5-0.1,0.8-0.3c0.2-0.2,0.4-0.5,0.5-1c0.2-0.6,0.3-1.7,0.3-3.1c0-1.5-0.1-2.5-0.2-3
		c-0.2-0.5-0.3-0.9-0.6-1.1C73.5,19.8,73.3,19.7,73,19.7z"/>
</g>
<path fill="#E41E26" d="M107.1,8.4c8.6,0,15.6,7,15.6,15.6c0,8.6-7,15.6-15.6,15.6c-8.6,0-15.6-7-15.6-15.6S98.5,8.4,107.1,8.4
	L107.1,8.4z M117.8,32.5c1.8-2.3,2.9-5.2,2.9-8.4c0-7.5-6.1-13.6-13.6-13.6c-3.5,0-6.7,1.3-9.1,3.5l0,0 M96.4,15.5
	c-1.9,2.3-3,5.3-3,8.5c0,7.5,6.1,13.6,13.6,13.6c3.5,0,6.7-1.4,9.2-3.6"/>
<rect x="126.9" y="5.8" fill="#FFFFFF" width="38.9" height="86.7"/>
<ellipse id="白底_2_" fill="#FFFFFF" cx="107.1" cy="24.1" rx="13.6" ry="13.8"/>
<g>
	<path fill="#010101" d="M97.8,27.1l2.4-0.3c0.1,0.5,0.3,1,0.6,1.3c0.3,0.3,0.7,0.5,1.2,0.5c0.5,0,0.9-0.2,1.3-0.6
		c0.3-0.4,0.5-1,0.5-1.8c0-0.8-0.2-1.4-0.5-1.7c-0.3-0.4-0.8-0.6-1.4-0.6c-0.7,0-1.3,0.3-1.9,0.9l-2-0.3l1.2-6.5h6.3v2.2h-4.5
		l-0.4,2.1c0.5-0.3,1.1-0.4,1.6-0.4c1.1,0,2,0.4,2.7,1.2s1.1,1.8,1.1,3c0,1-0.3,2-0.9,2.8c-0.8,1.1-2,1.7-3.4,1.7
		c-1.2,0-2.1-0.3-2.8-0.9C98.3,29,97.9,28.1,97.8,27.1z"/>
	<path fill="#010101" d="M112.7,17.7c1.2,0,2.2,0.4,2.8,1.3c0.8,1,1.2,2.7,1.2,5.1s-0.4,4.1-1.2,5.1c-0.7,0.9-1.6,1.3-2.8,1.3
		s-2.2-0.5-3-1.4c-0.8-0.9-1.1-2.6-1.1-5c0-2.4,0.4-4.1,1.2-5.1C110.6,18.1,111.5,17.7,112.7,17.7z M112.7,19.7
		c-0.3,0-0.5,0.1-0.8,0.3c-0.2,0.2-0.4,0.5-0.5,1c-0.2,0.6-0.3,1.7-0.3,3.1c0,1.5,0.1,2.5,0.2,3c0.2,0.5,0.3,0.9,0.6,1.1
		c0.2,0.2,0.5,0.3,0.8,0.3s0.5-0.1,0.8-0.3c0.2-0.2,0.4-0.5,0.5-1c0.2-0.6,0.3-1.7,0.3-3.1c0-1.5-0.1-2.5-0.2-3
		c-0.2-0.5-0.3-0.9-0.6-1.1C113.3,19.8,113,19.7,112.7,19.7z"/>
</g>
<path fill="#E41E26" d="M146.4,9.3c8.6,0,15.6,7,15.6,15.6c0,8.6-7,15.6-15.6,15.6c-8.6,0-15.6-7-15.6-15.6
	C130.7,16.3,137.8,9.3,146.4,9.3L146.4,9.3z M157.1,33.3c1.8-2.3,2.9-5.2,2.9-8.4c0-7.5-6.1-13.6-13.6-13.6c-3.5,0-6.7,1.3-9.1,3.5
	l0,0 M135.7,16.4c-1.9,2.3-3,5.3-3,8.5c0,7.5,6.1,13.6,13.6,13.6c3.5,0,6.7-1.4,9.2-3.6"/>
<ellipse id="白底_3_" fill="#2A3785" cx="146.3" cy="25" rx="13.6" ry="13.8"/>
<path fill="#E41E26" d="M146.5,54.9c8.6,0,15.6,7,15.6,15.6c0,8.6-7,15.6-15.6,15.6c-8.6,0-15.6-7-15.6-15.6S137.9,54.9,146.5,54.9
	L146.5,54.9z M157.2,79c1.8-2.3,2.9-5.2,2.9-8.4c0-7.5-6.1-13.6-13.6-13.6c-3.5,0-6.7,1.3-9.1,3.5l0,0 M135.9,62
	c-1.9,2.3-3,5.3-3,8.5c0,7.5,6.1,13.6,13.6,13.6c3.5,0,6.7-1.4,9.2-3.6"/>
<ellipse id="白底_4_" fill="#FFFFFF" cx="146.5" cy="70.6" rx="13.6" ry="13.8"/>
<g>
	<path fill="#FFFFFF" d="M22.1,49.1c0.3,0.1,0.8,0.3,1.3,0.4c0.2,0,0.2,0.1,0.2,0.2s0,0.1-0.1,0.2c-0.2,0.2-0.3,0.6-0.5,1
		c-0.5,1.2-1,2.2-1.4,2.8c-0.4-0.2-0.8-0.4-1.3-0.5C21.2,52,21.8,50.6,22.1,49.1z M24.5,46.6h1.3c0.1,0,0.2,0,0.2,0.1
		c0,0.1,0,0.1-0.1,0.2c-0.1,0.1-0.1,0.3-0.1,0.6v7c0,0.4-0.1,0.7-0.2,0.9c-0.1,0.2-0.3,0.3-0.7,0.4c-0.3,0.1-0.8,0.2-1.5,0.2
		c0-0.4-0.2-0.9-0.5-1.5c0.6,0.1,0.9,0.1,1.1,0.1c0.2,0,0.3,0,0.3-0.1c0-0.1,0.1-0.2,0.1-0.3L24.5,46.6L24.5,46.6z M29.9,52.8
		l-1.4,0.7c-0.3-0.7-0.6-1.4-1-2.2c-0.4-0.8-0.8-1.3-1.1-1.7l1.2-0.7C28.5,50.2,29.2,51.5,29.9,52.8z"/>
	<path fill="#FFFFFF" d="M23.1,59.9h-2.2v-1.1h2.7c0.2-0.4,0.3-0.9,0.5-1.3c0.4,0.1,0.7,0.2,1,0.3c0.3,0.1,0.5,0.1,0.5,0.2
		c0,0,0.1,0.1,0.1,0.1c0,0.1-0.1,0.1-0.2,0.2c-0.1,0.1-0.3,0.3-0.4,0.6h4.1v1.1h-4.7c-0.3,0.6-0.7,1.2-1.2,1.8h1.5v-1.4H26
		c0.2,0,0.3,0.1,0.3,0.2c0,0,0,0.1-0.1,0.2c0,0.1-0.1,0.4-0.1,1h2.5v1.1h-2.5V64h3.4V65h-3.4v2h-1.4v-2h-4.3v-1.1h4.3v-1.1
		c-1.4,0-2.5,0.1-3.2,0.2c-0.1-0.4-0.2-0.9-0.2-1.3c0.3-0.1,0.6-0.3,0.9-0.6C22.6,60.9,22.8,60.5,23.1,59.9z"/>
	<path fill="#FFFFFF" d="M30.1,76.6c-0.2,0.4-0.3,0.8-0.4,1.3c-0.9,0-1.6,0-2.3,0c-1.8,0-3-0.1-3.6-0.2c-0.6-0.1-1-0.3-1.2-0.5
		c-0.1-0.1-0.2-0.2-0.2-0.2c-0.1,0-0.1,0-0.2,0.1c-0.1,0-0.2,0.2-0.4,0.4c-0.2,0.2-0.4,0.4-0.5,0.6c-0.4-0.4-0.7-0.8-1-1.1
		c0.7-0.4,1-0.7,1.2-0.8c0.1-0.1,0.2-0.3,0.2-0.6v-2.6h-1.2v-1.2H23v3.5c0,0.4,0.1,0.7,0.3,0.9c0.2,0.2,0.5,0.3,1,0.4
		c0.5,0.1,1.3,0.1,2.6,0.1C28.1,76.7,29.2,76.7,30.1,76.6z M23.2,71L22,71.5c-0.2-0.6-0.4-1.3-0.9-2l1.2-0.5
		C22.7,69.5,23,70.2,23.2,71z M26.6,70.1c0.2-0.3,0.3-0.8,0.5-1.5c0.7,0.2,1.1,0.4,1.2,0.4c0.1,0,0.1,0.1,0.1,0.1s0,0.1-0.1,0.2
		c-0.1,0.1-0.3,0.3-0.6,0.7h1.8v1h-2.7c0,0.2-0.1,0.3-0.1,0.5h2v5h-1.2v-0.5h-2.5v0.4h-1.2v-4.9h1.6c0-0.2,0.1-0.3,0.1-0.5h-2.3v-1
		h1.6c-0.2-0.3-0.4-0.6-0.7-0.8l1.1-0.6c0.3,0.3,0.5,0.7,0.8,1.1L25.5,70L26.6,70.1L26.6,70.1z M25.1,72.8h2.5v-0.4h-2.5V72.8z
		 M25.1,74h2.5v-0.4h-2.5V74z M27.6,74.8h-2.5v0.5h2.5V74.8z"/>
</g>
<g>
	<path fill="#FFFFFF" d="M65.7,48.4c0.3,0.1,0.8,0.3,1.3,0.4c0.2,0,0.2,0.1,0.2,0.2c0,0.1,0,0.1-0.1,0.2c-0.2,0.2-0.3,0.6-0.5,1
		c-0.5,1.2-1,2.2-1.4,2.8c-0.4-0.2-0.8-0.4-1.3-0.5C64.8,51.4,65.4,50,65.7,48.4z M68.1,46h1.3c0.1,0,0.2,0,0.2,0.1
		c0,0.1,0,0.1-0.1,0.2c-0.1,0.1-0.1,0.3-0.1,0.6v7c0,0.4-0.1,0.7-0.2,0.9c-0.1,0.2-0.3,0.3-0.7,0.4s-0.8,0.2-1.5,0.2
		c0-0.4-0.2-0.9-0.5-1.5c0.6,0.1,0.9,0.1,1.1,0.1s0.3,0,0.3-0.1c0-0.1,0.1-0.2,0.1-0.3L68.1,46L68.1,46z M73.5,52.1l-1.4,0.7
		c-0.3-0.7-0.6-1.4-1-2.2c-0.4-0.8-0.8-1.3-1.1-1.7l1.2-0.7C72.1,49.6,72.9,50.9,73.5,52.1z"/>
	<path fill="#FFFFFF" d="M66.7,59.3h-2.2v-1.1h2.7c0.2-0.4,0.3-0.9,0.5-1.3c0.4,0.1,0.7,0.2,1,0.3c0.3,0.1,0.5,0.1,0.5,0.2
		c0,0,0.1,0.1,0.1,0.1s-0.1,0.1-0.2,0.2c-0.1,0.1-0.3,0.3-0.4,0.6h4.1v1.1h-4.7c-0.3,0.6-0.7,1.2-1.2,1.8h1.5v-1.4h1.2
		c0.2,0,0.3,0.1,0.3,0.2c0,0,0,0.1-0.1,0.2c-0.1,0.1-0.1,0.4-0.1,1h2.5v1.1h-2.5v1.1h3.4v1.1h-3.4v2h-1.4v-2h-4.3v-1.1h4.3v-1.1
		c-1.4,0-2.5,0.1-3.2,0.2c-0.1-0.4-0.2-0.9-0.2-1.3c0.3-0.1,0.6-0.3,0.9-0.6C66.2,60.3,66.4,59.9,66.7,59.3z"/>
	<path fill="#FFFFFF" d="M73.7,76c-0.2,0.4-0.3,0.8-0.4,1.3c-0.9,0-1.6,0-2.3,0c-1.8,0-3-0.1-3.6-0.2c-0.6-0.1-1-0.3-1.2-0.5
		c-0.1-0.1-0.2-0.2-0.2-0.2s-0.1,0-0.2,0.1c-0.1,0-0.2,0.2-0.4,0.4c-0.2,0.2-0.4,0.4-0.5,0.6c-0.4-0.4-0.7-0.8-1-1.1
		c0.7-0.4,1-0.7,1.2-0.8c0.1-0.1,0.2-0.3,0.2-0.6v-2.6h-1.2v-1.2h2.4v3.5c0,0.4,0.1,0.7,0.3,0.9c0.2,0.2,0.5,0.3,1,0.4
		s1.3,0.1,2.6,0.1C71.7,76.1,72.8,76,73.7,76z M66.8,70.4l-1.3,0.4c-0.2-0.6-0.4-1.3-0.9-2l1.2-0.5C66.3,68.9,66.6,69.6,66.8,70.4z
		 M70.2,69.5c0.2-0.3,0.3-0.8,0.5-1.5c0.7,0.2,1.1,0.4,1.2,0.4c0.1,0,0.1,0.1,0.1,0.1s0,0.1-0.1,0.2c-0.1,0.1-0.3,0.3-0.6,0.7h1.8v1
		h-2.7c0,0.2-0.1,0.3-0.1,0.5h2v5h-1.2v-0.5h-2.5v0.4h-1.2v-4.9h1.6c0-0.2,0.1-0.3,0.1-0.5h-2.3v-1h1.6c-0.2-0.3-0.4-0.6-0.6-0.8
		L69,68c0.3,0.3,0.5,0.7,0.8,1.1l-0.7,0.3L70.2,69.5L70.2,69.5z M68.7,72.2h2.5v-0.4h-2.5V72.2z M68.7,73.4h2.5V73h-2.5V73.4z
		 M71.2,74.2h-2.5v0.5h2.5V74.2z"/>
</g>
<g>
	<path fill="#FFFFFF" d="M107.8,48.7h3.6v1.2H108c0.3,1.1,0.8,1.9,1.4,2.6c0.6,0.6,1.5,1.2,2.6,1.7c-0.4,0.3-0.8,0.8-1.2,1.4
		c-1.7-0.9-2.9-2.2-3.5-3.8c-0.6,1.5-1.8,2.8-3.8,3.9c-0.2-0.4-0.6-0.8-1.1-1.2c1.3-0.6,2.2-1.2,2.8-1.8c0.6-0.7,0.9-1.5,1.1-2.6
		h-3.4v-1.2h3.5c0-0.5,0.1-0.9,0.1-1.4c0-0.4,0-0.9,0-1.2c0.3,0,0.6,0,0.9,0s0.6,0,0.6,0c0.1,0,0.1,0.1,0.1,0.1s0,0.1,0,0.2
		c-0.1,0.2-0.1,0.6-0.1,1.2C107.8,48,107.8,48.3,107.8,48.7z"/>
	<path fill="#FFFFFF" d="M105.1,59.6h-2.2v-1.1h2.7c0.2-0.4,0.3-0.9,0.5-1.3c0.4,0.1,0.7,0.2,1,0.3c0.3,0.1,0.5,0.1,0.5,0.2
		c0,0,0.1,0.1,0.1,0.1s-0.1,0.1-0.2,0.2c-0.1,0.1-0.3,0.3-0.4,0.6h4.1v1.1h-4.7c-0.3,0.6-0.7,1.2-1.2,1.8h1.5V60h1.2
		c0.2,0,0.3,0.1,0.3,0.2c0,0,0,0.1-0.1,0.2c0,0.1-0.1,0.4-0.1,1h2.5v1.1h-2.5v1.1h3.4v1.1h-3.4v2h-1.4v-2h-4.3v-1.1h4.3v-1.1
		c-1.4,0-2.5,0.1-3.2,0.2c-0.1-0.4-0.2-0.9-0.2-1.3c0.3-0.1,0.6-0.3,0.9-0.6C104.5,60.6,104.8,60.2,105.1,59.6z"/>
	<path fill="#FFFFFF" d="M112.1,76.2c-0.2,0.4-0.3,0.8-0.4,1.3c-0.9,0-1.6,0-2.3,0c-1.8,0-3-0.1-3.6-0.2c-0.6-0.1-1-0.3-1.2-0.5
		c-0.1-0.1-0.2-0.2-0.2-0.2s-0.1,0-0.2,0.1c-0.1,0-0.2,0.2-0.4,0.4c-0.2,0.2-0.4,0.4-0.5,0.6c-0.4-0.4-0.7-0.8-1-1.1
		c0.7-0.4,1-0.7,1.2-0.8s0.2-0.3,0.2-0.6v-2.6h-1.2v-1.2h2.4v3.5c0,0.4,0.1,0.7,0.3,0.9c0.2,0.2,0.5,0.3,1,0.4
		c0.5,0.1,1.3,0.1,2.6,0.1C110.1,76.4,111.2,76.3,112.1,76.2z M105.2,70.7l-1.3,0.4c-0.2-0.6-0.4-1.3-0.9-2l1.2-0.5
		C104.6,69.2,105,69.9,105.2,70.7z M108.5,69.7c0.2-0.3,0.3-0.8,0.5-1.5c0.7,0.2,1.1,0.4,1.2,0.4c0.1,0,0.1,0.1,0.1,0.1
		s0,0.1-0.1,0.2c-0.1,0.1-0.3,0.3-0.6,0.7h1.8v1h-2.7c0,0.2-0.1,0.3-0.1,0.5h2v5h-1.2v-0.5h-2.5v0.4h-1.2v-4.9h1.6
		c0-0.2,0.1-0.3,0.1-0.5h-2.3v-1h1.6c-0.2-0.3-0.4-0.6-0.7-0.8l1.1-0.6c0.3,0.3,0.5,0.7,0.8,1.1l-0.7,0.3L108.5,69.7L108.5,69.7z
		 M107.1,72.5h2.5v-0.4h-2.5V72.5z M107.1,73.6h2.5v-0.4h-2.5V73.6z M109.5,74.4h-2.5v0.5h2.5V74.4z"/>
</g>
<polygon fill="#FFFFFF" points="30.4,84.4 30.4,82.4 21.5,82.4 21.5,84.4 18.7,84.4 25.9,89 33.1,84.4 "/>
<polygon fill="#FFFFFF" points="73.4,84.4 73.4,82.4 64.5,82.4 64.5,84.4 61.7,84.4 68.9,89 76.1,84.4 "/>
<polygon fill="#FFFFFF" points="111.4,84.4 111.4,82.4 102.4,82.4 102.4,84.4 99.7,84.4 106.9,89 114.1,84.4 "/>
<path fill="#231815" stroke="#231815" stroke-width="0.216" stroke-miterlimit="2.4142" d="M153.9,58.6c-2.2-1.3-4.7-2-7.4-2
	c-2.7,0-5.2,0.8-7.4,2h0.1l7.1,4.2L153.9,58.6L153.9,58.6L153.9,58.6z"/>
<path fill="#231815" stroke="#231815" stroke-width="0.216" stroke-miterlimit="2.4142" d="M154,82.6c-2.2,1.3-4.7,2-7.4,2
	c-2.7,0-5.2-0.8-7.4-2h0.1l7.1-4.2L154,82.6L154,82.6L154,82.6z"/>
<path fill="#231815" d="M151.2,76.9V72h0.7v0.7c0.2-0.2,0.3-0.4,0.6-0.6c0.3-0.2,0.5-0.2,0.9-0.2c0.4,0,0.7,0.1,0.9,0.2
	c0.2,0.2,0.4,0.4,0.5,0.6c0.4-0.6,0.9-0.9,1.5-0.9c0.5,0,0.9,0.1,1.1,0.4c0.3,0.3,0.4,0.7,0.4,1.3v3.4h-0.8v-3.1
	c0-0.3,0-0.6-0.1-0.7c-0.1-0.2-0.2-0.3-0.3-0.3c-0.1-0.1-0.3-0.1-0.5-0.1c-0.3,0-0.6,0.1-0.9,0.3c-0.2,0.2-0.3,0.6-0.3,1.1v2.9H154
	v-3.2c0-0.4-0.1-0.7-0.2-0.8c-0.1-0.2-0.3-0.3-0.7-0.3c-0.2,0-0.4,0.1-0.6,0.2c-0.2,0.1-0.3,0.3-0.4,0.5c-0.1,0.2-0.1,0.6-0.1,1V77
	L151.2,76.9L151.2,76.9z"/>
<ellipse fill="#231815" stroke="#231815" stroke-width="0.216" stroke-miterlimit="2.4142" cx="143.3" cy="76.3" rx="0.4" ry="0.4"/>
<path fill="#231815" stroke="#231815" stroke-width="3.685039e-003" stroke-miterlimit="2.4142" d="M145,68.3h3.7v1.5h-2.4v1.4
	c2-0.3,4.1,2.6,2,5.2c-1.4,1-3.2,0.6-3.6-1.7l1.1-0.1c0.3,1.4,1.8,1.6,2.1,0.1c0.3-2.1-1.3-2.7-2.9-2L145,68.3L145,68.3z"/>
<g>
	<path fill="#010101" d="M135.9,73.6l2-0.3c0.1,0.5,0.2,1,0.5,1.3c0.3,0.3,0.6,0.5,0.9,0.5c0.4,0,0.8-0.2,1-0.6
		c0.3-0.4,0.4-1,0.4-1.8c0-0.8-0.1-1.4-0.4-1.7c-0.3-0.4-0.7-0.6-1.1-0.6c-0.6,0-1.1,0.3-1.5,0.9l-1.6-0.3l1-6.5h5.2v2.2h-3.7
		l-0.3,2.1c0.4-0.3,0.9-0.4,1.4-0.4c0.8,0,1.5,0.3,2,0.9c0.7,0.8,1.1,1.9,1.1,3.2c0,1.1-0.3,2.1-0.9,3c-0.6,0.9-1.5,1.4-2.6,1.4
		c-0.9,0-1.7-0.3-2.3-0.9C136.4,75.5,136,74.7,135.9,73.6z"/>
</g>
<rect x="131.4" y="23.6" transform="matrix(-0.7071 -0.7071 0.7071 -0.7071 232.4583 145.8789)" fill="#E41E26" width="30" height="2.4"/>
<rect x="131.4" y="23.2" transform="matrix(0.7071 -0.7071 0.7071 0.7071 25.6329 110.6962)" fill="#E41E26" width="30" height="2.4"/>
</svg>
