<?xml version="1.0" encoding="utf-8"?>
<!-- Generator: Adobe Illustrator 18.1.1, SVG Export Plug-In . SVG Version: 6.00 Build 0)  -->
<svg version="1.1" id="图层_1" xmlns="http://www.w3.org/2000/svg" xmlns:xlink="http://www.w3.org/1999/xlink" x="0px" y="0px"
	 width="175" height="100" enable-background="new 0 0 175 100" xml:space="preserve">
<polygon fill="#FFFFFF" stroke="#2A3685" stroke-width="2.8346" stroke-miterlimit="2.4142" points="0.9,1.5 174.1,1.5 174.1,99.4 
	0.9,99.4 "/>
<polygon fill="#2A3685" stroke="#1569B3" stroke-width="1.1339" stroke-miterlimit="2.4142" points="6,4 169,4 169,96 6,96 "/>
<g>
	<rect x="45.2" y="9.3" fill="#FFFFFF" width="3.8" height="11.6"/>
	<rect x="45.2" y="31.8" fill="#FFFFFF" width="3.8" height="11.6"/>
	<rect x="45.2" y="54.7" fill="#FFFFFF" width="3.8" height="11.6"/>
	<rect x="45.2" y="77.8" fill="#FFFFFF" width="3.8" height="11.6"/>
</g>
<g>
	<rect x="85.2" y="9.3" fill="#FFFFFF" width="3.8" height="11.6"/>
	<rect x="85.2" y="31.8" fill="#FFFFFF" width="3.8" height="11.6"/>
	<rect x="85.2" y="54.7" fill="#FFFFFF" width="3.8" height="11.6"/>
	<rect x="85.2" y="77.8" fill="#FFFFFF" width="3.8" height="11.6"/>
</g>
<g>
	<rect x="125.2" y="9.3" fill="#FFFFFF" width="3.8" height="11.6"/>
	<rect x="125.2" y="31.8" fill="#FFFFFF" width="3.8" height="11.6"/>
	<rect x="125.2" y="54.7" fill="#FFFFFF" width="3.8" height="11.6"/>
	<rect x="125.2" y="77.8" fill="#FFFFFF" width="3.8" height="11.6"/>
</g>
<path fill="#E41E26" d="M27.6,8.2c8.7,0,15.7,7.1,15.7,15.7c0,8.7-7.1,15.7-15.7,15.7c-8.7,0-15.7-7.1-15.7-15.7
	C11.9,15.2,18.9,8.2,27.6,8.2L27.6,8.2z M38.4,32.4c1.8-2.3,2.9-5.3,2.9-8.5c0-7.6-6.2-13.7-13.7-13.7c-3.5,0-6.7,1.3-9.1,3.5l0,0
	 M16.9,15.3c-1.9,2.4-3,5.3-3,8.6c0,7.6,6.2,13.7,13.7,13.7c3.5,0,6.8-1.4,9.2-3.6"/>
<ellipse id="白底" fill="#FFFFFF" cx="27.5" cy="24" rx="13.7" ry="13.9"/>
<g>
	<path fill="#010101" d="M18.2,20v-2.2h8.3v1.7c-0.7,0.7-1.4,1.6-2.1,2.9c-0.7,1.3-1.2,2.6-1.6,4c-0.4,1.4-0.5,2.7-0.5,3.8h-2.3
		c0-1.7,0.4-3.5,1.1-5.3c0.7-1.8,1.6-3.4,2.7-4.9L18.2,20L18.2,20z"/>
	<path fill="#010101" d="M33.2,17.5c1.2,0,2.2,0.4,2.9,1.3c0.8,1,1.2,2.7,1.2,5.1s-0.4,4.1-1.2,5.1c-0.7,0.9-1.6,1.3-2.9,1.3
		c-1.2,0-2.2-0.5-3-1.4c-0.8-0.9-1.1-2.6-1.1-5c0-2.4,0.4-4.1,1.2-5.1C31.1,18,32,17.5,33.2,17.5z M33.2,19.5
		c-0.3,0-0.5,0.1-0.8,0.3c-0.2,0.2-0.4,0.5-0.5,1c-0.2,0.6-0.3,1.7-0.3,3.1s0.1,2.5,0.2,3c0.2,0.5,0.3,0.9,0.6,1.1
		c0.2,0.2,0.5,0.3,0.8,0.3c0.3,0,0.5-0.1,0.8-0.3c0.2-0.2,0.4-0.5,0.5-1c0.2-0.6,0.3-1.7,0.3-3.1c0-1.5-0.1-2.5-0.2-3
		c-0.2-0.5-0.3-0.9-0.6-1.1C33.8,19.6,33.5,19.5,33.2,19.5z"/>
</g>
<path fill="#E41E26" d="M67.3,8.2C75.9,8.2,83,15.3,83,24c0,8.7-7.1,15.7-15.7,15.7c-8.7,0-15.7-7.1-15.7-15.7S58.6,8.2,67.3,8.2
	L67.3,8.2z M78,32.4c1.8-2.3,2.9-5.3,2.9-8.5c0-7.6-6.2-13.7-13.7-13.7c-3.5,0-6.7,1.3-9.1,3.5l0,0 M56.6,15.4c-1.9,2.4-3,5.3-3,8.6
	c0,7.6,6.2,13.7,13.7,13.7c3.5,0,6.8-1.4,9.2-3.6"/>
<ellipse id="白底_1_" fill="#FFFFFF" cx="67.2" cy="24" rx="13.7" ry="13.9"/>
<g>
	<path fill="#010101" d="M57.9,20.1v-2.2h8.3v1.7c-0.7,0.7-1.4,1.6-2.1,2.9s-1.2,2.6-1.6,4c-0.4,1.4-0.5,2.7-0.5,3.8h-2.3
		c0-1.7,0.4-3.5,1.1-5.3c0.7-1.8,1.6-3.4,2.7-4.9L57.9,20.1L57.9,20.1z"/>
	<path fill="#010101" d="M72.9,17.6c1.2,0,2.2,0.4,2.9,1.3c0.8,1,1.2,2.7,1.2,5.1s-0.4,4.1-1.2,5.1c-0.7,0.9-1.6,1.3-2.9,1.3
		s-2.2-0.5-3-1.4c-0.8-0.9-1.1-2.6-1.1-5c0-2.4,0.4-4.1,1.2-5.1C70.8,18,71.7,17.6,72.9,17.6z M72.9,19.6c-0.3,0-0.5,0.1-0.8,0.3
		c-0.2,0.2-0.4,0.5-0.5,1c-0.2,0.6-0.3,1.7-0.3,3.1c0,1.5,0.1,2.5,0.2,3c0.2,0.5,0.3,0.9,0.6,1.1c0.2,0.2,0.5,0.3,0.8,0.3
		s0.5-0.1,0.8-0.3c0.2-0.2,0.4-0.5,0.5-1c0.2-0.6,0.3-1.7,0.3-3.1c0-1.5-0.1-2.5-0.2-3c-0.2-0.5-0.3-0.9-0.6-1.1
		C73.5,19.7,73.2,19.6,72.9,19.6z"/>
</g>
<path fill="#E41E26" d="M107.2,8.2c8.7,0,15.7,7.1,15.7,15.7c0,8.7-7.1,15.7-15.7,15.7c-8.7,0-15.7-7.1-15.7-15.7
	S98.5,8.2,107.2,8.2L107.2,8.2z M118,32.4c1.8-2.3,2.9-5.3,2.9-8.5c0-7.6-6.2-13.7-13.7-13.7c-3.5,0-6.7,1.3-9.1,3.5l0,0 M96.5,15.4
	c-1.9,2.4-3,5.3-3,8.6c0,7.6,6.2,13.7,13.7,13.7c3.5,0,6.8-1.4,9.2-3.6"/>
<ellipse id="白底_2_" fill="#FFFFFF" cx="107.2" cy="24" rx="13.7" ry="13.9"/>
<g>
	<path fill="#010101" d="M97.8,27l2.4-0.3c0.1,0.5,0.3,1,0.6,1.3c0.3,0.3,0.7,0.5,1.2,0.5c0.5,0,0.9-0.2,1.3-0.6
		c0.3-0.4,0.5-1,0.5-1.8c0-0.8-0.2-1.4-0.5-1.7c-0.3-0.4-0.8-0.6-1.4-0.6c-0.7,0-1.3,0.3-1.9,0.9l-2-0.3l1.2-6.5h6.4v2.3h-4.5
		l-0.4,2.1c0.5-0.3,1.1-0.4,1.7-0.4c1.1,0,2,0.4,2.7,1.2c0.7,0.8,1.1,1.8,1.1,3c0,1-0.3,2-0.9,2.8c-0.8,1.1-2,1.7-3.4,1.7
		c-1.2,0-2.1-0.3-2.8-0.9C98.4,28.9,98,28.1,97.8,27z"/>
	<path fill="#010101" d="M112.9,17.6c1.2,0,2.2,0.4,2.9,1.3c0.8,1,1.2,2.7,1.2,5.1s-0.4,4.1-1.2,5.1c-0.7,0.9-1.6,1.3-2.9,1.3
		s-2.2-0.5-3-1.4c-0.8-0.9-1.1-2.6-1.1-5c0-2.4,0.4-4.1,1.2-5.1C110.7,18,111.6,17.6,112.9,17.6z M112.9,19.6
		c-0.3,0-0.5,0.1-0.8,0.3c-0.2,0.2-0.4,0.5-0.5,1c-0.2,0.6-0.3,1.7-0.3,3.1c0,1.5,0.1,2.5,0.2,3c0.2,0.5,0.3,0.9,0.6,1.1
		c0.2,0.2,0.5,0.3,0.8,0.3s0.5-0.1,0.8-0.3c0.2-0.2,0.4-0.5,0.5-1c0.2-0.6,0.3-1.7,0.3-3.1c0-1.5-0.1-2.5-0.2-3
		c-0.2-0.5-0.3-0.9-0.6-1.1C113.4,19.7,113.1,19.6,112.9,19.6z"/>
</g>
<path fill="#E41E26" d="M147.8,8.3c8.7,0,15.7,7.1,15.7,15.7c0,8.7-7.1,15.7-15.7,15.7c-8.7,0-15.7-7.1-15.7-15.7
	C132.1,15.4,139.2,8.3,147.8,8.3L147.8,8.3z M158.6,32.5c1.8-2.3,2.9-5.3,2.9-8.5c0-7.6-6.2-13.7-13.7-13.7c-3.5,0-6.7,1.3-9.1,3.5
	l0,0 M137.1,15.5c-1.9,2.4-3,5.3-3,8.6c0,7.6,6.2,13.7,13.7,13.7c3.5,0,6.8-1.4,9.2-3.6"/>
<ellipse id="白底_3_" fill="#FFFFFF" cx="147.8" cy="24.1" rx="13.7" ry="13.9"/>
<g>
	<path fill="#010101" d="M138.5,27.1l2.4-0.3c0.1,0.5,0.3,1,0.6,1.3c0.3,0.3,0.7,0.5,1.2,0.5c0.5,0,0.9-0.2,1.3-0.6s0.5-1,0.5-1.8
		c0-0.8-0.2-1.4-0.5-1.7c-0.3-0.4-0.8-0.6-1.4-0.6c-0.7,0-1.3,0.3-1.9,0.9l-2-0.3l1.2-6.5h6.4v2.3h-4.5l-0.4,2.1
		c0.5-0.3,1.1-0.4,1.7-0.4c1.1,0,2,0.4,2.7,1.2c0.7,0.8,1.1,1.8,1.1,3c0,1-0.3,2-0.9,2.8c-0.8,1.1-2,1.7-3.4,1.7
		c-1.2,0-2.1-0.3-2.8-0.9C139,29,138.6,28.1,138.5,27.1z"/>
	<path fill="#010101" d="M153.5,17.7c1.2,0,2.2,0.4,2.9,1.3c0.8,1,1.2,2.7,1.2,5.1s-0.4,4.1-1.2,5.1c-0.7,0.9-1.6,1.3-2.9,1.3
		c-1.2,0-2.2-0.5-3-1.4c-0.8-0.9-1.1-2.6-1.1-5c0-2.4,0.4-4.1,1.2-5.1C151.3,18.1,152.3,17.7,153.5,17.7z M153.5,19.7
		c-0.3,0-0.5,0.1-0.8,0.3c-0.2,0.2-0.4,0.5-0.5,1c-0.2,0.6-0.3,1.7-0.3,3.1c0,1.5,0.1,2.5,0.2,3c0.2,0.5,0.3,0.9,0.6,1.1
		c0.2,0.2,0.5,0.3,0.8,0.3s0.5-0.1,0.8-0.3c0.2-0.2,0.4-0.5,0.5-1c0.2-0.6,0.3-1.7,0.3-3.1c0-1.5-0.1-2.5-0.2-3
		c-0.2-0.5-0.3-0.9-0.6-1.1C154.1,19.8,153.8,19.7,153.5,19.7z"/>
</g>
<g>
	<path fill="#FFFFFF" d="M21.8,49.1c0.3,0.1,0.8,0.3,1.3,0.4c0.2,0,0.2,0.1,0.2,0.2c0,0.1,0,0.1-0.1,0.2c-0.2,0.2-0.3,0.6-0.5,1
		c-0.5,1.2-1,2.2-1.4,2.9c-0.4-0.2-0.8-0.4-1.3-0.5C20.9,52,21.5,50.7,21.8,49.1z M24.2,46.6h1.3c0.1,0,0.2,0,0.2,0.1
		c0,0.1,0,0.1-0.1,0.2c-0.1,0.1-0.1,0.3-0.1,0.6v7c0,0.4-0.1,0.7-0.2,0.9c-0.1,0.2-0.3,0.3-0.7,0.4c-0.3,0.1-0.8,0.2-1.5,0.2
		c0-0.4-0.2-1-0.5-1.5c0.6,0.1,0.9,0.1,1.1,0.1c0.2,0,0.3,0,0.3-0.1c0-0.1,0.1-0.2,0.1-0.3L24.2,46.6L24.2,46.6z M29.6,52.8
		l-1.4,0.7c-0.3-0.7-0.6-1.4-1-2.2c-0.4-0.8-0.8-1.3-1.1-1.7l1.2-0.7C28.2,50.2,29,51.5,29.6,52.8z"/>
	<path fill="#FFFFFF" d="M22.8,60h-2.2v-1.1h2.8c0.2-0.4,0.3-0.9,0.5-1.3c0.4,0.1,0.7,0.2,1,0.3c0.3,0.1,0.5,0.1,0.5,0.2
		c0,0,0.1,0.1,0.1,0.1c0,0.1-0.1,0.1-0.2,0.2c-0.1,0.1-0.3,0.3-0.4,0.6h4.1V60h-4.7c-0.3,0.6-0.7,1.2-1.2,1.8h1.5v-1.4h1.2
		c0.2,0,0.3,0.1,0.3,0.2c0,0,0,0.1-0.1,0.2c0,0.1-0.1,0.4-0.1,1h2.5V63H26v1.1h3.4v1.1H26v2h-1.4v-2.1h-4.4V64h4.4v-1.1
		c-1.4,0-2.5,0.1-3.2,0.2c-0.1-0.4-0.2-0.9-0.2-1.3c0.3-0.1,0.6-0.3,0.9-0.6C22.3,61,22.5,60.6,22.8,60z"/>
	<path fill="#FFFFFF" d="M29.8,76.7c-0.2,0.4-0.3,0.8-0.4,1.3c-0.9,0-1.6,0-2.3,0c-1.8,0-3-0.1-3.6-0.2c-0.6-0.1-1-0.3-1.2-0.5
		c-0.1-0.1-0.2-0.2-0.2-0.2c-0.1,0-0.1,0-0.2,0.1c-0.1,0-0.2,0.2-0.4,0.4c-0.2,0.2-0.4,0.4-0.5,0.6c-0.4-0.4-0.7-0.8-1-1.1
		c0.7-0.4,1-0.7,1.2-0.8c0.1-0.1,0.2-0.3,0.2-0.6v-2.6h-1.2v-1.2h2.4v3.5c0,0.4,0.1,0.7,0.3,0.9c0.2,0.2,0.5,0.3,1,0.4
		c0.5,0.1,1.3,0.1,2.6,0.1C27.8,76.9,28.9,76.8,29.8,76.7z M22.9,71.2l-1.3,0.4c-0.2-0.6-0.4-1.3-0.9-2.1L22,69
		C22.4,69.7,22.7,70.4,22.9,71.2z M26.3,70.2c0.2-0.3,0.3-0.8,0.5-1.5c0.7,0.2,1.1,0.4,1.2,0.4c0.1,0,0.1,0.1,0.1,0.1
		c0,0.1,0,0.1-0.1,0.2c-0.1,0.1-0.3,0.3-0.6,0.7h1.8v1h-2.7c0,0.2-0.1,0.3-0.1,0.5h2v5.1h-1.2v-0.5h-2.5v0.4h-1.2v-5h1.6
		c0-0.2,0.1-0.3,0.1-0.5H23v-1h1.6c-0.2-0.3-0.4-0.6-0.7-0.8l1.1-0.6c0.3,0.3,0.5,0.7,0.8,1.1l-0.7,0.3L26.3,70.2L26.3,70.2z
		 M24.8,73h2.5v-0.4h-2.5V73z M24.8,74.1h2.5v-0.4h-2.5V74.1z M27.3,74.9h-2.5v0.5h2.5V74.9z"/>
</g>
<g>
	<path fill="#FFFFFF" d="M65.6,48.5c0.3,0.1,0.8,0.3,1.3,0.4c0.2,0,0.2,0.1,0.2,0.2s0,0.1-0.1,0.2c-0.2,0.2-0.3,0.6-0.5,1
		c-0.5,1.2-1,2.2-1.4,2.9c-0.4-0.2-0.8-0.4-1.3-0.5C64.7,51.4,65.3,50.1,65.6,48.5z M68,46h1.3c0.1,0,0.2,0,0.2,0.1
		c0,0.1,0,0.1-0.1,0.2c-0.1,0.1-0.1,0.3-0.1,0.6v7c0,0.4-0.1,0.7-0.2,0.9c-0.1,0.2-0.3,0.3-0.7,0.4c-0.3,0.1-0.8,0.2-1.5,0.2
		c0-0.4-0.2-1-0.5-1.5C67,54,67.4,54,67.6,54c0.2,0,0.3,0,0.3-0.1c0-0.1,0.1-0.2,0.1-0.3L68,46L68,46z M73.4,52.2L72,52.9
		c-0.3-0.7-0.6-1.4-1-2.2c-0.4-0.8-0.8-1.3-1.1-1.7l1.2-0.7C72,49.6,72.8,50.9,73.4,52.2z"/>
	<path fill="#FFFFFF" d="M66.6,59.4h-2.2v-1.1h2.8c0.2-0.4,0.3-0.9,0.5-1.3c0.4,0.1,0.7,0.2,1,0.3c0.3,0.1,0.5,0.1,0.5,0.2
		s0.1,0.1,0.1,0.1s-0.1,0.1-0.2,0.2c-0.1,0.1-0.3,0.3-0.4,0.6h4.1v1.1h-4.7c-0.3,0.6-0.7,1.2-1.2,1.8h1.5v-1.4h1.2
		c0.2,0,0.3,0.1,0.3,0.2c0,0,0,0.1-0.1,0.2c-0.1,0.1-0.1,0.4-0.1,1h2.5v1.1h-2.5v1.1h3.4v1.1h-3.4v2.1h-1.4v-2.1h-4.4v-1.1h4.4v-1.1
		c-1.4,0-2.5,0.1-3.2,0.2c-0.1-0.4-0.2-0.9-0.2-1.3c0.3-0.1,0.6-0.3,0.9-0.6C66.1,60.4,66.3,60,66.6,59.4z"/>
	<path fill="#FFFFFF" d="M73.7,76.1c-0.2,0.4-0.3,0.8-0.4,1.3c-0.9,0-1.6,0-2.3,0c-1.8,0-3-0.1-3.6-0.2c-0.6-0.1-1-0.3-1.2-0.5
		c-0.1-0.1-0.2-0.2-0.2-0.2c-0.1,0-0.1,0-0.2,0.1c-0.1,0-0.2,0.2-0.4,0.4c-0.2,0.2-0.4,0.4-0.5,0.6c-0.4-0.4-0.7-0.8-1-1.1
		c0.7-0.4,1-0.7,1.2-0.8c0.1-0.1,0.2-0.3,0.2-0.6v-2.6h-1.2v-1.2h2.4v3.5c0,0.4,0.1,0.7,0.3,0.9c0.2,0.2,0.5,0.3,1,0.4
		c0.5,0.1,1.3,0.1,2.6,0.1C71.6,76.2,72.7,76.2,73.7,76.1z M66.8,70.6L65.5,71c-0.2-0.6-0.4-1.3-0.9-2.1l1.2-0.5
		C66.2,69,66.5,69.8,66.8,70.6z M70.1,69.6c0.2-0.3,0.3-0.8,0.5-1.5c0.7,0.2,1.1,0.4,1.2,0.4c0.1,0,0.1,0.1,0.1,0.1
		c0,0.1,0,0.1-0.1,0.2c-0.1,0.1-0.3,0.3-0.6,0.7h1.8v1h-2.7c0,0.2-0.1,0.3-0.1,0.5h2v5.1h-1.2v-0.5h-2.5V76h-1.2v-5H69
		c0-0.2,0.1-0.3,0.1-0.5h-2.3v-1h1.6c-0.2-0.3-0.4-0.6-0.6-0.8l1.1-0.6c0.3,0.3,0.5,0.7,0.8,1.1L69,69.5L70.1,69.6L70.1,69.6z
		 M68.7,72.3h2.5V72h-2.5V72.3z M68.7,73.5h2.5v-0.4h-2.5V73.5z M71.1,74.3h-2.5v0.5h2.5V74.3z"/>
</g>
<g>
	<path fill="#FFFFFF" d="M107.9,48.8h3.6V50h-3.4c0.3,1.1,0.8,1.9,1.4,2.6c0.6,0.6,1.5,1.2,2.6,1.7c-0.4,0.3-0.8,0.8-1.2,1.4
		c-1.7-0.9-2.9-2.2-3.6-3.8c-0.6,1.5-1.8,2.8-3.9,3.9c-0.2-0.4-0.6-0.8-1.1-1.2c1.3-0.6,2.3-1.2,2.8-1.8c0.6-0.7,0.9-1.6,1.1-2.6
		h-3.4v-1.2h3.6c0-0.5,0.1-0.9,0.1-1.4s0-0.9,0-1.2c0.3,0,0.6,0,0.9,0s0.6,0,0.6,0c0.1,0,0.1,0.1,0.1,0.1s0,0.1,0,0.2
		c-0.1,0.2-0.1,0.6-0.1,1.2C107.9,48,107.9,48.4,107.9,48.8z"/>
	<path fill="#FFFFFF" d="M105.2,59.7h-2.2v-1.1h2.8c0.2-0.4,0.3-0.9,0.5-1.3c0.4,0.1,0.7,0.2,1,0.3c0.3,0.1,0.5,0.1,0.5,0.2
		s0.1,0.1,0.1,0.1s-0.1,0.1-0.2,0.2c-0.1,0.1-0.3,0.3-0.4,0.6h4.1v1.1h-4.7c-0.3,0.6-0.7,1.2-1.2,1.8h1.5v-1.4h1.2
		c0.2,0,0.3,0.1,0.3,0.2c0,0,0,0.1-0.1,0.2c0,0.1-0.1,0.4-0.1,1h2.5v1.1h-2.5v1.1h3.4v1.1h-3.4v2.1H107v-2.1h-4.4v-1.1h4.4v-1.1
		c-1.4,0-2.5,0.1-3.2,0.2c-0.1-0.4-0.2-0.9-0.2-1.3c0.3-0.1,0.6-0.3,0.9-0.6C104.6,60.7,104.9,60.2,105.2,59.7z"/>
	<path fill="#FFFFFF" d="M112.2,76.4c-0.2,0.4-0.3,0.8-0.4,1.3c-0.9,0-1.6,0-2.3,0c-1.8,0-3-0.1-3.6-0.2c-0.6-0.1-1-0.3-1.2-0.5
		c-0.1-0.1-0.2-0.2-0.2-0.2c-0.1,0-0.1,0-0.2,0.1c-0.1,0-0.2,0.2-0.4,0.4c-0.2,0.2-0.4,0.4-0.5,0.6c-0.4-0.4-0.7-0.8-1-1.1
		c0.7-0.4,1-0.7,1.2-0.8c0.1-0.1,0.2-0.3,0.2-0.6v-2.6h-1.2v-1.2h2.4v3.5c0,0.4,0.1,0.7,0.3,0.9c0.2,0.2,0.5,0.3,1,0.4
		c0.5,0.1,1.3,0.1,2.6,0.1C110.2,76.5,111.3,76.5,112.2,76.4z M105.3,70.8l-1.3,0.4c-0.2-0.6-0.4-1.3-0.9-2.1l1.2-0.5
		C104.7,69.3,105,70,105.3,70.8z M108.6,69.9c0.2-0.3,0.3-0.8,0.5-1.5c0.7,0.2,1.1,0.4,1.2,0.4c0.1,0,0.1,0.1,0.1,0.1
		c0,0.1,0,0.1-0.1,0.2c-0.1,0.1-0.3,0.3-0.6,0.7h1.8v1h-2.7c0,0.2-0.1,0.3-0.1,0.5h2v5.1h-1.2v-0.5h-2.5v0.4H106v-5h1.6
		c0-0.2,0.1-0.3,0.1-0.5h-2.3v-1h1.6c-0.2-0.3-0.4-0.6-0.7-0.8l1.1-0.6c0.3,0.3,0.5,0.7,0.8,1.1l-0.7,0.3L108.6,69.9L108.6,69.9z
		 M107.2,72.6h2.5v-0.4h-2.5V72.6z M107.2,73.8h2.5v-0.4h-2.5V73.8z M109.6,74.6h-2.5v0.5h2.5V74.6z"/>
</g>
<g>
	<path fill="#FFFFFF" d="M150.9,48.3h3.6v1.2H151c0.3,1.1,0.8,1.9,1.4,2.6c0.6,0.6,1.5,1.2,2.6,1.7c-0.4,0.3-0.8,0.8-1.2,1.4
		c-1.7-0.9-2.9-2.2-3.6-3.8c-0.6,1.5-1.8,2.8-3.9,3.9c-0.2-0.4-0.6-0.8-1.1-1.2c1.3-0.6,2.3-1.2,2.8-1.8c0.6-0.7,0.9-1.6,1.1-2.6
		h-3.4v-1.2h3.6c0-0.5,0.1-0.9,0.1-1.4s0-0.9,0-1.2c0.3,0,0.6,0,0.9,0s0.6,0,0.6,0c0.1,0,0.1,0.1,0.1,0.1s0,0.1,0,0.2
		c-0.1,0.2-0.1,0.6-0.1,1.2C150.9,47.6,150.9,47.9,150.9,48.3z"/>
	<path fill="#FFFFFF" d="M148.1,59.2h-2.2v-1.1h2.8c0.2-0.4,0.3-0.9,0.5-1.3c0.4,0.1,0.7,0.2,1,0.3c0.3,0.1,0.5,0.1,0.5,0.2
		c0,0,0.1,0.1,0.1,0.1s-0.1,0.1-0.2,0.2c-0.1,0.1-0.3,0.3-0.4,0.6h4.1v1.1h-4.7c-0.3,0.6-0.7,1.2-1.2,1.8h1.5v-1.4h1.2
		c0.2,0,0.3,0.1,0.3,0.2c0,0,0,0.1-0.1,0.2s-0.1,0.4-0.1,1h2.5v1.1h-2.5v1.1h3.4v1.1h-3.4v2.1h-1.4v-2.1h-4.4v-1.1h4.4v-1.1
		c-1.4,0-2.5,0.1-3.2,0.2c-0.1-0.4-0.2-0.9-0.2-1.3c0.3-0.1,0.6-0.3,0.9-0.6C147.6,60.2,147.9,59.8,148.1,59.2z"/>
	<path fill="#FFFFFF" d="M155.2,75.9c-0.2,0.4-0.3,0.8-0.4,1.3c-0.9,0-1.6,0-2.3,0c-1.8,0-3-0.1-3.6-0.2c-0.6-0.1-1-0.3-1.2-0.5
		c-0.1-0.1-0.2-0.2-0.2-0.2s-0.1,0-0.2,0.1c-0.1,0-0.2,0.2-0.4,0.4c-0.2,0.2-0.4,0.4-0.5,0.6c-0.4-0.4-0.7-0.8-1-1.1
		c0.7-0.4,1-0.7,1.2-0.8c0.1-0.1,0.2-0.3,0.2-0.6v-2.6h-1.2v-1.2h2.4v3.5c0,0.4,0.1,0.7,0.3,0.9s0.5,0.3,1,0.4
		c0.5,0.1,1.3,0.1,2.6,0.1S154.2,76,155.2,75.9z M148.3,70.3l-1.3,0.4c-0.2-0.6-0.4-1.3-0.9-2.1l1.2-0.5
		C147.7,68.8,148,69.6,148.3,70.3z M151.6,69.4c0.2-0.3,0.3-0.8,0.5-1.5c0.7,0.2,1.1,0.4,1.2,0.4c0.1,0,0.1,0.1,0.1,0.1
		c0,0.1,0,0.1-0.1,0.2c-0.1,0.1-0.3,0.3-0.6,0.7h1.8v1h-2.7c0,0.2-0.1,0.3-0.1,0.5h2v5.1h-1.2v-0.5h-2.5v0.4h-1.2v-5h1.6
		c0-0.2,0.1-0.3,0.1-0.5h-2.3v-1h1.6c-0.2-0.3-0.4-0.6-0.6-0.8l1.1-0.6c0.3,0.3,0.5,0.7,0.8,1.1l-0.7,0.3L151.6,69.4L151.6,69.4z
		 M150.2,72.1h2.5v-0.4h-2.5V72.1z M150.2,73.3h2.5v-0.4h-2.5V73.3z M152.6,74.1h-2.5v0.5h2.5V74.1z"/>
</g>
<polygon fill="#FFFFFF" points="30.1,84.6 30.1,82.6 21.1,82.6 21.1,84.6 18.4,84.6 25.6,89.2 32.9,84.6 "/>
<polygon fill="#FFFFFF" points="73.4,84.6 73.4,82.6 64.4,82.6 64.4,84.6 61.6,84.6 68.9,89.2 76.1,84.6 "/>
<polygon fill="#FFFFFF" points="111.5,84.6 111.5,82.6 102.5,82.6 102.5,84.6 99.7,84.6 107,89.2 114.2,84.6 "/>
<polygon fill="#FFFFFF" points="154.8,84.8 154.8,82.8 145.8,82.8 145.8,84.8 143.1,84.8 150.3,89.4 157.6,84.8 "/>
</svg>
