<?xml version="1.0" encoding="utf-8"?>
<!-- Generator: Adobe Illustrator 18.1.1, SVG Export Plug-In . SVG Version: 6.00 Build 0)  -->
<svg version="1.1" id="图层_1" xmlns="http://www.w3.org/2000/svg" xmlns:xlink="http://www.w3.org/1999/xlink" x="0px" y="0px"
	 width="65.5" height="100" enable-background="new 0 0 65.5 100" xml:space="preserve">
<g>
	<path fill="#FA0F0C" d="M56.3,95.8v-3.9h-2.9l0,0.3H11.8l0.1-0.3H9.1v3.9H0v4.2h65.5v-4.2H56.3z M56.3,95.8"/>
	<path fill="#FFFFFF" d="M53.5,92.1l0-0.3l-8.2-46.4l6.6,39H13.3l9.1-49.5h20.9L37.2,0H37l2.5,14H26L11.8,91.9l-0.1,0.3H53.5z
		 M53.5,92.1"/>
	<path fill="#FA0F0C" d="M13.3,84.4h38.5l-6.6-39l-1.8-10.6h-21L13.3,84.4z M37,0h-8.6l-2.5,14h13.6L37,0z M37,0"/>
</g>
<g>
</g>
<g>
</g>
<g>
</g>
<g>
</g>
<g>
</g>
<g>
</g>
</svg>
