<?xml version="1.0" encoding="utf-8"?>
<!-- Generator: Adobe Illustrator 18.1.1, SVG Export Plug-In . SVG Version: 6.00 Build 0)  -->
<svg version="1.1" id="图层_1" xmlns="http://www.w3.org/2000/svg" xmlns:xlink="http://www.w3.org/1999/xlink" x="0px" y="0px"
	 width="138" height="100" enable-background="new 0 0 138 100" xml:space="preserve">
<path fill="none" stroke="#FFFFFF" stroke-width="1.085" stroke-miterlimit="2.4142" d="M134.7,17v66c0,4.4-1.8,8-4,8H7.4
	c-2.2,0-4-3.6-4-8V17c0-4.4,1.8-8,4-8h123.4C133,9,134.7,12.6,134.7,17z"/>
<rect x="0.2" y="3.8" fill="#FBAA19" width="137.8" height="92.4"/>
<path fill="#010101" d="M132.5,93.3H5.6c-1.8,0-3.3-1.5-3.3-3.3V9.2c0-1.8,1.5-3.3,3.3-3.3h126.9c1.8,0,3.3,1.5,3.3,3.3V90
	C135.8,91.8,134.4,93.3,132.5,93.3z"/>
<path fill="#FBAA19" stroke="#231815" stroke-width="0.216" stroke-miterlimit="2.4142" d="M131.1,90.7H7c-1.6,0-2.8-1.3-2.8-2.8V11
	c0-1.6,1.3-2.8,2.8-2.8H131c1.6,0,2.8,1.3,2.8,2.8v76.8C133.9,89.4,132.6,90.7,131.1,90.7z"/>
<g>
	<path fill="#010101" d="M24.1,27.9c-0.7,0.1-1.6,0.3-2.5,0.6c-0.2-0.6-0.4-1.3-0.6-2.1c0.3-0.1,0.6-0.3,0.8-0.6
		c0.2-0.3,0.6-0.9,1-1.7c0.4-0.9,0.8-1.9,1.2-3.2c1.4,0.4,2.2,0.7,2.3,0.7c0.1,0.1,0.2,0.2,0.2,0.3s0,0.2-0.2,0.3
		c-0.3,0.3-0.6,0.8-1,1.4c-0.4,0.7-0.9,1.5-1.5,2.5l1.3-0.1c0.3-0.5,0.7-1.3,1.2-2.2c0.6,0.3,1.1,0.6,1.5,0.8
		c0.4,0.2,0.6,0.4,0.7,0.4c0.1,0.1,0.1,0.1,0.1,0.2c0,0.1-0.1,0.2-0.4,0.4c-0.3,0.2-0.6,0.6-1,1.2c-0.8,1.2-1.6,2.2-2.3,3.1
		c1.1-0.1,2.1-0.3,3.1-0.5c-0.1,0.6-0.2,1.3-0.2,2c-2.5,0.3-4.5,0.6-6,0.9c-0.2-0.6-0.4-1.3-0.5-2c0.6-0.2,1.1-0.5,1.4-0.8
		C23.2,29.3,23.6,28.7,24.1,27.9z M31,24.5h-2.9v-2h8.3v2h-3.1v9.7H37v2h-9.7V35c-2.7,0.6-4.5,1-5.6,1.4l-0.6-2.5
		c1.7-0.2,4.1-0.6,7.2-1.1c-0.1,0.7-0.1,1.2-0.1,1.4H31L31,24.5L31,24.5z"/>
	<path fill="#010101" d="M58.8,24h-3c-0.3,0.4-0.5,0.8-0.6,1.2c-0.3,1.2-0.7,2.4-1.2,3.6c-0.5-0.3-1-0.4-1.4-0.6
		c0,0.7-0.1,1.3-0.2,1.9c1.2,1.2,2.3,2.5,3.3,3.9l-2,1.3c-0.6-1-1.2-2-1.9-2.9c-0.5,1.5-1.3,2.9-2.3,4.2c-0.7-0.5-1.3-0.9-2-1.2
		c1-0.9,1.7-1.9,2.2-3.2c0.5-1.3,0.8-2.6,0.8-4.2V21h1.8c0.2,0,0.3,0,0.4,0c0.1,0,0.1,0.1,0.1,0.1c0,0.1,0,0.2-0.1,0.3
		c0,0.2-0.1,0.4-0.1,0.7v5.5c0.4-1.4,0.7-2.9,0.9-4.5c0.3,0.1,0.6,0.1,1.1,0.2V22h9v2H61v9.5c0,0.7-0.1,1.3-0.3,1.6
		c-0.2,0.4-0.6,0.6-1.1,0.8c-0.5,0.2-1.4,0.3-2.5,0.5c-0.1-1-0.3-1.9-0.8-2.7c0.9,0.2,1.5,0.3,1.8,0.3c0.3,0,0.5-0.1,0.6-0.2
		c0.1-0.1,0.1-0.3,0.1-0.6L58.8,24L58.8,24z M50.1,24.1c-0.1,2.3-0.2,4-0.5,5.3l-2-0.2c0.3-1.4,0.5-3.2,0.5-5.3L50.1,24.1z"/>
	<path fill="#010101" d="M78.4,31h7.3v3.2c0,0.2,0,0.3,0.1,0.4c0,0.1,0.2,0.1,0.4,0.1h1c0.2,0,0.4-0.1,0.4-0.3
		c0.1-0.2,0.1-0.6,0.1-1.4c0.7,0.4,1.5,0.7,2.2,0.8c-0.1,0.8-0.2,1.4-0.4,1.8c-0.2,0.4-0.4,0.7-0.7,0.8c-0.3,0.2-0.7,0.2-1.2,0.2
		h-2.4c-0.6,0-1-0.1-1.3-0.3c-0.3-0.2-0.4-0.6-0.4-1.2v-2.5h-2.8c0,1.2-0.4,2.1-1.1,2.7c-0.7,0.6-1.9,1.1-3.4,1.5
		c-0.4-0.7-0.8-1.3-1.4-1.9c1.3-0.2,2.2-0.4,2.8-0.8c0.6-0.4,0.9-1,0.9-1.8L78.4,31L78.4,31z M81.2,22.1c-0.1-0.3-0.2-0.8-0.3-1.2
		l2.9-0.3c0.1,0.4,0.1,0.9,0.2,1.5h6v1.7H75v-1.7H81.2z M89.8,31.7h-2.4v-1.5h-10v1.6h-2.2v-3.2h14.6L89.8,31.7L89.8,31.7z
		 M87.5,28.1H77.4v-3.9h10.1V28.1z M85.3,26.5v-0.7h-5.8v0.7H85.3z"/>
	<path fill="#010101" d="M103.9,33.9v1.3h-2V22.3h6.1v12.6h-2v-1H103.9z M103.9,27.2h2.1v-3h-2.1V27.2z M106,28.9h-2.1v3.3h2.1V28.9
		z M115.1,24.4h2.1v2h-2.1V34c0,0.7-0.1,1.3-0.3,1.6c-0.2,0.4-0.5,0.6-1.1,0.8c-0.5,0.2-1.3,0.4-2.4,0.5c-0.1-1.1-0.3-2-0.8-2.7
		c0.9,0.2,1.4,0.2,1.7,0.2c0.3,0,0.4,0,0.5-0.2c0.1-0.1,0.1-0.3,0.1-0.6v-7.3h-4.6v-2h4.6v-3.6h2c0.3,0,0.4,0.1,0.4,0.3
		c0,0.1,0,0.2,0,0.3c-0.1,0.2-0.2,0.8-0.2,1.7L115.1,24.4L115.1,24.4z M112.3,31.3l-2,0.7c-0.3-1.1-0.9-2.5-1.6-4l2-0.8
		C111.4,28.6,111.9,30,112.3,31.3z"/>
	<path fill="#010101" d="M34.3,44.5v10.5c0,0.6-0.1,1-0.3,1.3c-0.2,0.3-0.6,0.6-1.1,0.8c-0.6,0.2-1.4,0.3-2.5,0.4
		c0-0.9-0.3-1.8-0.7-2.5c0.9,0.2,1.5,0.3,1.7,0.3c0.3,0,0.4,0,0.5-0.1c0.1-0.1,0.1-0.3,0.1-0.5v-10H21.4v-1.9h15.5v1.9H34.3z
		 M25,52.6v1.3h-2.1v-8h7.5v7.7h-2.2v-1H25z M28.3,50.8v-3.1H25v3.1H28.3z"/>
	<path fill="#010101" d="M49.3,42.3h2c0.3,0,0.4,0.1,0.4,0.2c0,0.1,0,0.2-0.1,0.3c-0.1,0.2-0.2,0.7-0.2,1.3v8.3
		c1.1-0.9,2.3-2,3.4-3.2c0.4,0.6,0.9,1.3,1.4,1.9c-2.2,1.8-4.4,3.6-6.4,5.6l-1.5-2c0.3-0.4,0.6-0.7,0.7-0.9c0.2-0.3,0.2-0.5,0.2-0.8
		L49.3,42.3L49.3,42.3z M60.7,51.7c0.9,1,2,2.3,3.3,3.8l-2.1,1.4c-0.5-1-1.3-2.1-2.2-3.2c-1.3,1.6-3.2,2.9-5.5,3.9
		c-0.5-0.6-1.1-1.2-1.7-1.7c1.5-0.5,2.7-1.1,3.7-1.9s1.7-1.5,2.1-2.3c0.4-0.8,0.7-1.7,0.9-2.5s0.2-2,0.2-3.3c0-1.3,0-2.7,0-4.1h1.6
		c0.5,0,0.8,0,0.9,0c0.1,0,0.1,0.1,0.1,0.2c0,0.1,0,0.2-0.1,0.4c-0.1,0.3-0.2,0.8-0.2,1.5c0,2.2-0.1,3.9-0.2,5
		C61.2,50,61,50.9,60.7,51.7z M57.8,47.9l-2.3,0.9c-0.2-0.7-0.6-1.5-1.1-2.5c-0.5-1-1-1.7-1.4-2.3l2.1-1
		C56.2,44.8,57.1,46.4,57.8,47.9z"/>
	<path fill="#010101" d="M79.3,46.5h-4.4v-2h5.2c0.3-1,0.6-2.1,0.9-3.4c1.5,0.2,2.3,0.4,2.5,0.5s0.3,0.1,0.3,0.3
		c0,0.1-0.1,0.2-0.2,0.4c-0.2,0.2-0.3,0.4-0.4,0.6c-0.1,0.3-0.4,0.8-0.7,1.7h7.7v2h-8.6c-0.4,0.9-0.9,1.7-1.4,2.5h8v8.3H86v-1h-5.3
		v1.1h-2.2v-5.8c-0.7,0.8-1.5,1.7-2.5,2.6c-0.6-0.6-1.2-1.1-1.8-1.5C76.6,50.9,78.3,48.9,79.3,46.5z M86,54.5v-3.7h-5.3v3.7H86z"/>
	<path fill="#010101" d="M112.7,45.6l-0.3,1.4h4.8v1.8H112l-0.3,1.3h4.9c-0.8,1.8-1.6,3.4-2.6,4.7c0.8,0.4,1.5,0.8,2.3,1.2l-1.5,1.7
		c-2.1-1.4-4-2.4-6-3.1l1.2-1.6l2.3,1c0.6-0.8,1.1-1.5,1.4-2.2h-4.4l0.6-3h-1.8v1.4h-1.5v1.2l2-0.5c0,0.8,0,1.4,0.1,1.9l-2.1,0.5
		v4.1h-1.9v-3.6c-1.2,0.3-2.2,0.6-2.9,0.9l-0.7-2.2c1.1-0.1,2.3-0.3,3.6-0.6v-1.6c-1.1,0-2.1,0.1-2.9,0.3l-0.5-1.9
		c0.3-0.2,0.6-0.4,0.9-0.8c0.2-0.4,0.5-1.1,0.8-2.2h-1.7v-1.8h2.2c0.2-0.8,0.4-1.7,0.6-2.5c1.2,0.2,1.9,0.4,2.1,0.4
		c0.2,0,0.3,0.1,0.3,0.2c0,0.1,0,0.2-0.2,0.4c-0.2,0.3-0.5,0.8-0.7,1.5h2.7v1.8H105c-0.4,1.2-0.8,2.2-1.2,3h1v-2.1h1.7
		c0.3,0,0.4,0.1,0.4,0.2s0,0.3-0.1,0.5c-0.1,0.2-0.1,0.7-0.1,1.5h1.3V47h2.4l0.3-1.4h-2.2v-1.8h2.6l0.5-2.6l1.8,0.3
		c0.3,0,0.4,0.1,0.4,0.2c0,0.1,0,0.2-0.1,0.3c-0.2,0.3-0.4,0.9-0.6,1.8h3.4v1.8L112.7,45.6L112.7,45.6z"/>
	<path fill="#010101" d="M28.9,75.5v2.6h-2.1v-3.9c-1.2,1.2-2.3,2.3-3.3,3.4c-0.5-0.5-0.9-1.1-1.4-1.8c0.3-0.3,0.5-0.6,0.6-1
		c0.1-0.3,0.2-0.8,0.2-1.3V69h-2v-2.1h4v6.7c0.4-0.5,0.8-1,1.1-1.5c0.1,0.3,0.4,0.7,0.7,1.3v-3.4h8.8v6.2c0,0.4-0.1,0.8-0.2,1
		c-0.2,0.2-0.5,0.4-0.9,0.6s-1.1,0.2-2.1,0.3c-0.1-0.8-0.3-1.5-0.6-2c0.5,0.1,0.9,0.1,1.1,0.1c0.2,0,0.3,0,0.4-0.1
		c0.1-0.1,0.1-0.2,0.1-0.4v-0.2L28.9,75.5L28.9,75.5z M26.2,65.6l-2.1,0.9c-0.5-1.1-1.1-2.2-1.9-3.3l1.9-1
		C24.9,63.3,25.6,64.4,26.2,65.6z M30.1,65.2h-3.8v-1.6h3.8v-1.5h2c0.2,0,0.3,0.1,0.3,0.2c0,0.1,0,0.2,0,0.2
		c-0.1,0.3-0.2,0.6-0.2,1.1h4.2v1.6h-4.2v0.6h3.7v1.5h-3.7V68H37v1.6H25.5V68h4.6v-0.6h-3.5v-1.5h3.5L30.1,65.2L30.1,65.2z
		 M28.9,72.2h4.5v-0.6h-4.5L28.9,72.2L28.9,72.2z M33.4,73.6h-4.5v0.5h4.5V73.6z"/>
	<path fill="#010101" d="M56.4,75.4V62.3h2.2c0.3,0,0.4,0.1,0.4,0.2s0,0.3-0.1,0.4c-0.1,0.2-0.2,0.6-0.2,1.2v2.7h4.4v1.9h-4.4v6.6h5
		v1.9H52.9v-1.7l-2.1,2.1c-0.6-0.6-1.2-1.3-1.6-1.8c0.7-0.7,1.1-1.5,1.1-2.4v-4.6h-2.5v-2.1h4.6v6.7c0.5-0.6,1.1-1.3,1.7-2.3
		c0.3,0.6,0.7,1.2,1.2,1.9l-2.2,2.3H56.4z M53.8,65.6l-2.3,1c-0.5-1.3-1.2-2.4-1.9-3.3l2.1-1.1C52.6,63.3,53.3,64.4,53.8,65.6z"/>
	<path fill="#010101" d="M79.1,69.5v8.6h-2v-6.6c-0.5,0.4-1,0.9-1.5,1.3c-0.4-0.5-0.9-1-1.5-1.5c2-1.4,3.7-3.2,5-5.6
		c0.6,0.3,1.1,0.6,1.5,0.8s0.6,0.3,0.6,0.4c0,0,0.1,0.1,0.1,0.2s-0.1,0.2-0.3,0.2c-0.2,0.1-0.4,0.2-0.6,0.5
		C80.3,68.1,79.8,68.7,79.1,69.5z M78.7,61.9c1.4,0.7,2.1,1.1,2.2,1.1c0.1,0.1,0.1,0.1,0.1,0.2c0,0.1-0.1,0.2-0.4,0.3
		c-0.2,0.2-0.5,0.4-0.7,0.6c-1.2,1.4-2.4,2.6-3.8,3.6c-0.4-0.5-1-0.9-1.6-1.4C76.3,65.3,77.7,63.8,78.7,61.9z M85.8,69.5H81v-1.9
		h9.5v1.9h-2.5v6.1c0,1-0.3,1.6-0.9,1.9c-0.6,0.3-1.5,0.5-2.6,0.5c-0.1-0.8-0.3-1.6-0.8-2.3c0.7,0.1,1.2,0.1,1.5,0.1
		c0.3,0,0.5,0,0.6-0.1c0.1-0.1,0.1-0.3,0.1-0.5V69.5z M89.4,65H82v-1.8h7.4V65z"/>
	<path fill="#010101" d="M109.4,70.9c-0.5,1.5-1.3,2.8-2.3,4s-2.4,2.3-4.2,3.3c-0.5-0.6-1.2-1.2-2-1.9c1.8-0.7,3.3-1.7,4.3-2.9
		s1.8-2.5,2.2-4.1c0.4-1.5,0.5-4,0.5-7.3c0.6,0,1.3,0,1.9,0.1c0.6,0,0.9,0.1,1,0.1s0.1,0.1,0.1,0.2s0,0.2-0.1,0.4
		c-0.1,0.2-0.2,0.4-0.2,0.7c0,0.2-0.1,0.6-0.1,1.1l-0.1,1.8c0.5,2.3,1.3,4.3,2.6,5.9c1.3,1.7,2.8,2.8,4.7,3.6
		c-0.8,0.8-1.5,1.5-1.9,2.2C112.5,76.1,110.5,73.7,109.4,70.9z"/>
</g>
</svg>
