<?xml version="1.0" encoding="utf-8"?>
<!-- Generator: Adobe Illustrator 18.1.1, SVG Export Plug-In . SVG Version: 6.00 Build 0)  -->
<svg version="1.1" id="图层_1" xmlns="http://www.w3.org/2000/svg" xmlns:xlink="http://www.w3.org/1999/xlink" x="0px" y="0px"
	 width="55.5" height="100" enable-background="new 0 0 55.5 100" xml:space="preserve">
<g id="图层_1_1_">
	<rect x="0" y="0" fill="#010101" width="55.5" height="7.2"/>
	<rect x="0" y="7.2" fill="#FFD231" width="55.5" height="5"/>
	<rect x="24" y="12" fill="#FFD231" width="7.6" height="8.1"/>
	<rect x="6.5" y="20.1" fill="#FFD231" width="43.2" height="79.8"/>
	<rect x="5.1" y="2.1" fill="#CB2027" width="11.5" height="3.8"/>
	<rect x="22" y="2.1" fill="#F7B219" width="11.5" height="3.8"/>
	<rect x="38.9" y="2.1" fill="#4554A5" width="11.5" height="3.8"/>
	<g>
		<path fill="#010101" d="M23.4,34.7c-0.5,1.1-0.9,1.8-1.1,2.3c-0.4-0.4-0.8-0.7-1.3-1c0.4-0.4,0.9-1.1,1.5-2c0.6-1,1-1.9,1.5-2.8
			c0.3,0.4,0.6,0.7,0.9,0.9C24.5,32.7,24,33.6,23.4,34.7z M24.4,29c-0.2,0.3-0.5,0.6-0.8,1.1c-0.7-0.7-1.5-1.2-2.4-1.7
			c0.2-0.2,0.5-0.6,0.7-0.9C22.9,28,23.7,28.6,24.4,29z M24.9,25.4c-0.4,0.3-0.6,0.6-0.8,0.9c-0.7-0.8-1.4-1.4-2.2-1.9
			c0.3-0.3,0.6-0.6,0.8-0.9C23.7,24.2,24.4,24.8,24.9,25.4z M31.3,25.8c0.7,0,1.6,0,2.6-0.1v1.1c-1.1,0-1.9-0.1-2.5-0.1h-1.2V30h1.1
			c0.7,0,1.5,0,2.4-0.1v1.1C32.8,31,32,31,31.3,31h-1.1v4.3h1.5c0.9,0,1.9,0,2.9-0.1v1.1c-1,0-2-0.1-2.9-0.1h-4.3
			c-1,0-1.9,0-2.5,0.1v-1.1c0.6,0,1.5,0.1,2.6,0.1H29V31h-0.9c-0.7,0-1.5,0-2.1,0.1V30c0.7,0,1.4,0.1,2.2,0.1H29v-3.3h-1.1
			c-0.8,0-1.6,0-2.4,0.1v-1.1c0.8,0,1.6,0.1,2.4,0.1H31.3z M28.7,22.9c0.5,0.4,1.1,1.1,1.9,1.9c-0.3,0.2-0.6,0.5-0.9,0.8
			c-0.7-0.8-1.3-1.5-1.8-2C28.2,23.5,28.5,23.2,28.7,22.9z"/>
		<path fill="#010101" d="M22.2,55.8c-0.5-0.2-0.9-0.3-1.2-0.4c0.5-0.6,0.9-1.5,1.2-2.6c0.4,0.2,0.7,0.3,1.1,0.4
			C22.9,53.9,22.6,54.8,22.2,55.8z M24,44.5c-0.7,0-1.5,0-2.2,0.1v-1c0.8,0,1.6,0.1,2.2,0.1h3.5c0-0.3-0.2-0.7-0.4-1.2
			c0.4,0,0.9-0.1,1.4-0.2c0.2,0.7,0.3,1.2,0.4,1.5h2.7c0.8,0,1.5,0,2.1-0.1v1c-0.7,0-1.4-0.1-2.1-0.1h-5.9c0.3,0.4,0.5,0.8,0.7,1.1
			L25.5,46h3.7c0.2-0.2,0.3-0.7,0.5-1.4c0.5,0.1,0.9,0.2,1.3,0.4c-0.3,0.4-0.5,0.7-0.7,1h1.8c0.9,0,1.7,0,2.4-0.1v1
			c-0.7,0-1.6-0.1-2.4-0.1h-8.9c-0.8,0-1.6,0-2.3,0.1v-1c0.7,0,1.5,0.1,2.3,0.1h2c-0.1-0.3-0.3-0.7-0.6-1c0.2-0.1,0.5-0.3,0.8-0.5
			L24,44.5L24,44.5z M32.5,49.8c0,0.7,0,1.4,0.1,2.2h-9.4c0-0.8,0.1-1.5,0.1-2.2s0-1.4-0.1-2.1h9.4C32.5,48.4,32.5,49.1,32.5,49.8z
			 M31.3,49.4v-0.9h-6.9v0.9H31.3z M31.3,51.1v-0.8h-6.9v0.8H31.3z M25.7,53.9c0,0.2,0,0.5,0,0.7c0,0.2,0.2,0.3,0.6,0.3h3.5
			c0.2-0.1,0.4-0.5,0.6-1.4c0.3,0.3,0.7,0.5,1.3,0.7c-0.3,0.7-0.5,1.2-0.7,1.4c-0.2,0.2-0.5,0.2-1,0.2h-4.3c-0.7,0-1-0.2-1.1-0.5
			c0-0.3-0.1-0.6-0.1-1s0-0.8-0.1-1.4h1.4C25.7,53.2,25.7,53.6,25.7,53.9z M29.2,53.7c-0.4,0.2-0.7,0.5-1.1,0.7
			c-0.1-0.4-0.5-0.8-1-1.5c0.2-0.2,0.6-0.4,1-0.7C28.6,52.8,28.9,53.3,29.2,53.7z M34.8,54.7c-0.4,0.3-0.7,0.5-0.9,0.7
			c-0.3-0.4-0.8-1.2-1.7-2.2c0.2-0.2,0.6-0.4,0.9-0.7C33.8,53.5,34.4,54.2,34.8,54.7z"/>
		<path fill="#010101" d="M24.9,66.1c-0.2,0.3-0.4,0.7-0.7,1.2v5.3c0,0.5,0,1.3,0.1,2.4H23c0-1.2,0.1-2.1,0.1-2.7v-3.8
			c-0.4,0.6-0.8,1.2-1.4,1.8c-0.3-0.4-0.5-0.7-0.8-1c0.9-0.9,1.6-1.7,2.1-2.5c0.5-0.8,1-1.5,1.4-2.2c0.4,0.2,0.8,0.5,1.4,0.8
			C25.4,65.5,25.1,65.8,24.9,66.1z M24,63c-0.5,0.8-1.2,1.7-2.1,2.7c-0.2-0.3-0.5-0.6-0.8-0.9c0.6-0.6,1.2-1.3,1.7-2
			c0.5-0.7,0.9-1.4,1.1-1.9c0.4,0.2,0.8,0.5,1.3,0.9C24.9,61.8,24.5,62.2,24,63z M32.8,66.1c0.7,0,1.4,0,2.1-0.1v1.2
			c-0.6,0-1.3-0.1-2-0.1H32v6.4c0,0.5-0.1,0.8-0.4,1c-0.3,0.2-1,0.3-2,0.4c-0.1-0.5-0.3-0.9-0.7-1.4c0.7,0.1,1.1,0.1,1.4,0.1
			s0.4-0.2,0.5-0.6v-5.9h-2.4c-0.7,0-1.5,0-2.1,0.1V66c0.7,0,1.4,0.1,2.1,0.1L32.8,66.1L32.8,66.1z M31.8,62c0.7,0,1.4,0,2.1-0.1
			v1.1c-0.7,0-1.4-0.1-2.2-0.1h-2.2c-0.9,0-1.6,0-2.2,0.1V62c0.6,0,1.4,0.1,2.2,0.1H31.8z"/>
		<path fill="#010101" d="M24.7,89.9c0.9-1.1,1.5-2.2,1.8-3.4c0.3-1.2,0.5-2.2,0.6-3.3c0-1,0-2.1-0.1-3.2c0.4,0,0.9,0.1,1.5,0.1
			c-0.1,0.6-0.2,1.3-0.2,2s0,1.4,0.1,2.3c0.1,0.9,0.6,2.2,1.7,3.9c1,1.8,2.6,3.1,4.6,3.9c-0.5,0.5-0.8,0.9-0.9,1.2
			c-2.8-1.3-4.7-3.8-5.9-7.3c-0.8,3.1-2.7,5.6-5.7,7.5c-0.2-0.3-0.6-0.7-1-1C22.7,92,23.9,91,24.7,89.9z"/>
	</g>
	<rect x="11.7" y="24.1" fill="#010101" width="1.1" height="71.1"/>
	<rect x="42.9" y="24.1" fill="#010101" width="1.1" height="71.1"/>
</g>
<g id="图层_2">
</g>
</svg>
