<?xml version="1.0" encoding="utf-8"?>
<!-- Generator: Adobe Illustrator 18.1.1, SVG Export Plug-In . SVG Version: 6.00 Build 0)  -->
<svg version="1.1" id="图层_1" xmlns="http://www.w3.org/2000/svg" xmlns:xlink="http://www.w3.org/1999/xlink" x="0px" y="0px"
	 width="47.6" height="100" enable-background="new 0 0 47.6 100" xml:space="preserve">
<g id="图层_1_1_">
	<rect x="0" y="8.1" fill="#FFD231" width="47.6" height="5"/>
	<rect x="20.4" y="12.8" fill="#FFD231" width="7.5" height="8"/>
	<rect x="5.3" y="20.8" fill="#FFD231" width="36.9" height="79"/>
	<rect x="29.7" fill="#CB2027" width="11.4" height="9.1"/>
	<rect x="7.6" fill="#4554A5" width="11.4" height="9.1"/>
	<g>
		<path fill="#010101" d="M19.7,39.8c-0.5,1.1-0.9,1.8-1.1,2.2c-0.4-0.4-0.8-0.7-1.3-1c0.4-0.4,0.9-1.1,1.5-2c0.5-1,1-1.9,1.5-2.8
			c0.3,0.3,0.6,0.6,0.9,0.9C20.7,37.8,20.3,38.7,19.7,39.8z M20.7,34.2c-0.2,0.3-0.5,0.6-0.8,1c-0.7-0.7-1.5-1.2-2.3-1.7
			c0.2-0.2,0.5-0.5,0.7-0.9C19.2,33.2,20,33.7,20.7,34.2z M21.2,30.6c-0.3,0.3-0.6,0.6-0.8,0.9c-0.7-0.8-1.4-1.4-2.2-1.9
			c0.3-0.3,0.5-0.6,0.8-0.9C19.9,29.4,20.7,30,21.2,30.6z M27.5,31c0.7,0,1.6,0,2.6-0.1V32c-1,0-1.9-0.1-2.5-0.1h-1.2v3.2h1.1
			c0.7,0,1.4,0,2.3-0.1v1.1c-0.9,0-1.6-0.1-2.3-0.1h-1.1v4.3h1.5c0.9,0,1.9,0,2.9-0.1v1.1c-1,0-2-0.1-2.9-0.1h-4.3
			c-1,0-1.8,0-2.5,0.1v-1.1c0.6,0,1.5,0.1,2.6,0.1h1.5v-4.3h-0.9c-0.7,0-1.4,0-2.1,0.1v-1.1c0.7,0,1.4,0.1,2.2,0.1h0.9V32h-1.1
			c-0.8,0-1.6,0-2.3,0.1v-1.1c0.8,0,1.6,0.1,2.4,0.1H27.5z M25,28.2c0.5,0.4,1.1,1,1.9,1.9c-0.3,0.2-0.6,0.5-0.9,0.8
			c-0.7-0.8-1.2-1.5-1.8-1.9C24.4,28.7,24.7,28.4,25,28.2z"/>
		<path fill="#010101" d="M18.5,60.7c-0.5-0.2-0.9-0.3-1.2-0.4c0.5-0.6,0.9-1.5,1.2-2.6c0.3,0.2,0.7,0.3,1.1,0.3
			C19.2,58.8,18.9,59.7,18.5,60.7z M20.3,49.5c-0.7,0-1.4,0-2.2,0.1v-1c0.8,0,1.6,0.1,2.2,0.1h3.5c0-0.3-0.2-0.7-0.4-1.2
			c0.4,0,0.9-0.1,1.3-0.2c0.1,0.7,0.3,1.2,0.3,1.5h2.7c0.8,0,1.5,0,2-0.1v1c-0.7,0-1.3-0.1-2-0.1h-5.9c0.3,0.4,0.5,0.8,0.7,1.1
			l-0.8,0.3h3.7c0.1-0.2,0.3-0.6,0.5-1.3c0.5,0.1,0.9,0.2,1.3,0.3c-0.3,0.3-0.5,0.7-0.6,1h1.8c0.9,0,1.7,0,2.4-0.1v1
			c-0.7,0-1.5-0.1-2.4-0.1h-8.8c-0.8,0-1.6,0-2.3,0.1v-1c0.7,0,1.5,0.1,2.3,0.1h1.9c-0.1-0.3-0.3-0.6-0.6-1c0.2-0.1,0.5-0.3,0.8-0.5
			L20.3,49.5L20.3,49.5z M28.7,54.8c0,0.7,0,1.4,0.1,2.2h-9.3c0-0.8,0.1-1.5,0.1-2.2c0-0.7,0-1.4-0.1-2.1h9.3
			C28.7,53.4,28.7,54.1,28.7,54.8z M27.5,54.4v-0.9h-6.8v0.9H27.5z M27.5,56.1v-0.8h-6.8v0.8H27.5z M22,58.8c0,0.2,0,0.4,0,0.6
			c0,0.2,0.2,0.3,0.6,0.3H26c0.2-0.1,0.4-0.5,0.6-1.3c0.3,0.3,0.7,0.5,1.3,0.6c-0.3,0.7-0.5,1.2-0.7,1.3c-0.2,0.1-0.5,0.2-1,0.2
			h-4.3c-0.7,0-1-0.2-1-0.5c0-0.3-0.1-0.6-0.1-1c0-0.4,0-0.8-0.1-1.3H22C22,58.2,22,58.5,22,58.8z M25.4,58.6
			c-0.3,0.2-0.7,0.4-1,0.6c-0.1-0.3-0.4-0.8-1-1.5c0.2-0.2,0.6-0.4,1-0.6C24.8,57.7,25.2,58.2,25.4,58.6z M30.9,59.6
			c-0.3,0.3-0.7,0.5-0.9,0.7c-0.3-0.4-0.8-1.2-1.7-2.2c0.2-0.2,0.5-0.4,0.9-0.6C30,58.4,30.5,59.1,30.9,59.6z"/>
		<path fill="#010101" d="M21.2,70.9c-0.2,0.3-0.4,0.7-0.7,1.2v5.3c0,0.5,0,1.3,0.1,2.3h-1.2c0-1.2,0.1-2,0.1-2.6v-3.7
			c-0.3,0.6-0.8,1.2-1.4,1.8c-0.3-0.4-0.5-0.7-0.8-1c0.9-0.9,1.6-1.7,2.1-2.5c0.5-0.8,1-1.5,1.3-2.2c0.4,0.2,0.8,0.5,1.3,0.8
			C21.6,70.3,21.4,70.6,21.2,70.9z M20.2,67.8c-0.5,0.8-1.2,1.7-2.1,2.7c-0.2-0.3-0.5-0.6-0.8-0.9c0.6-0.6,1.2-1.3,1.7-2
			s0.9-1.4,1.1-1.9c0.4,0.2,0.8,0.5,1.3,0.9C21.1,66.6,20.7,67,20.2,67.8z M29,70.8c0.7,0,1.4,0,2-0.1V72c-0.6,0-1.3-0.1-2-0.1h-0.8
			v6.4c0,0.5-0.1,0.8-0.4,1c-0.3,0.2-1,0.3-2,0.4c-0.1-0.5-0.3-0.9-0.6-1.4c0.7,0.1,1.1,0.1,1.4,0.1c0.3,0,0.4-0.2,0.5-0.6v-5.9
			h-2.3c-0.7,0-1.4,0-2.1,0.1v-1.2c0.7,0,1.4,0.1,2.1,0.1L29,70.8L29,70.8z M28,66.9c0.7,0,1.3,0,2-0.1v1.1c-0.7,0-1.4-0.1-2.2-0.1
			h-2.2c-0.9,0-1.6,0-2.2,0.1v-1.1c0.6,0,1.4,0.1,2.2,0.1H28z"/>
		<path fill="#010101" d="M21,94.5c0.9-1.1,1.4-2.2,1.8-3.4c0.3-1.1,0.5-2.2,0.6-3.2c0-1,0-2-0.1-3.1c0.4,0,0.9,0.1,1.5,0.1
			c-0.1,0.6-0.2,1.3-0.2,1.9s0,1.4,0.1,2.3c0.1,0.9,0.6,2.2,1.7,3.9c1,1.7,2.5,3,4.5,3.9c-0.5,0.5-0.8,0.9-0.9,1.2
			c-2.7-1.3-4.7-3.7-5.9-7.2c-0.8,3.1-2.7,5.5-5.7,7.4c-0.2-0.3-0.6-0.6-1-1C18.9,96.5,20.1,95.6,21,94.5z"/>
	</g>
	<rect x="10.1" y="23.8" fill="#010101" width="28.8" height="0.6"/>
</g>
<g id="图层_2">
</g>
</svg>
