<?xml version="1.0" encoding="utf-8"?>
<!-- Generator: Adobe Illustrator 18.1.1, SVG Export Plug-In . SVG Version: 6.00 Build 0)  -->
<svg version="1.1" id="图层_1" xmlns="http://www.w3.org/2000/svg" xmlns:xlink="http://www.w3.org/1999/xlink" x="0px" y="0px"
	 width="100" height="151.6" enable-background="new 0 0 100 151.6" xml:space="preserve">
<rect x="0" fill="#E51E25" width="100" height="151.6"/>
<rect x="4.5" y="4.8" fill="#FFFFFF" width="89.8" height="142.1"/>
<g>
	<rect x="7.5" y="11.4" fill="none" width="83.9" height="135.8"/>
	<path fill="#010101" d="M79,51.2l-1.1,1.2c-0.4,0.4-0.9,0.9-1.6,1.6c-0.3-0.3-0.7-0.6-1.1-0.9c0.8-0.5,1.6-1,2.2-1.7
		c0.6-0.7,1.1-1.3,1.3-1.7H78c-0.7,0-1.5,0-2.3,0.1v-1.1c0.8,0,1.6,0.1,2.3,0.1H79c0-0.8,0-1.6-0.1-2.2h1.3c0,0.6-0.1,1.3-0.1,2.2
		c0.8,0,1.6,0,2.3-0.1v1.1c-0.8,0-1.6-0.1-2.3-0.1v3.1c0,0.4,0,0.7,0.1,1.1h-1.3c0-0.2,0.1-0.6,0.1-1.1V51.2z M77.2,59.8
		c0.7-0.4,1.4-0.9,2.2-1.6c0.2,0.3,0.5,0.7,0.9,1.1c-0.5,0.3-1,0.6-1.6,0.9s-1.4,0.8-2.4,1.5c-0.2-0.4-0.5-0.8-0.8-1.1
		C76,60.4,76.5,60.2,77.2,59.8z M88.3,56.7c0.5,0,1,0,1.6-0.1v1.1c-0.5,0-1.1-0.1-1.6-0.1h-4.6v3c0,0.7-0.3,1.1-0.8,1.3
		c-0.6,0.2-1.2,0.3-1.8,0.3c-0.1-0.5-0.3-1-0.5-1.4c0.9,0,1.5,0,1.7,0c0.2-0.1,0.3-0.3,0.3-0.7v-2.4h-5.3c-0.4,0-0.8,0-1.3,0.1v-1.2
		c0.5,0,0.9,0.1,1.3,0.1L88.3,56.7L88.3,56.7z M86.6,54.4c0.4,0,0.9,0,1.6-0.1v1.1c-0.8,0-1.3-0.1-1.6-0.1h-7.4
		c-0.3,0-0.8,0-1.5,0.1v-1.1c0.5,0,1,0.1,1.5,0.1H86.6z M82.7,51.6c-0.2,0.3-0.5,0.6-0.9,0.9c-0.5-0.6-1-1.1-1.5-1.5
		c0.3-0.3,0.5-0.6,0.7-0.9C81.6,50.6,82.1,51.1,82.7,51.6z M85.5,48.7c0-0.9,0-1.6-0.1-2.1h1.3c0,0.5-0.1,1.2-0.1,2.1h1.3
		c0.6,0,1.3,0,1.9-0.1v1.1c-0.6,0-1.3-0.1-1.9-0.1h-0.9c1.1,1.4,2.2,2.4,3.5,3c-0.5,0.4-0.9,0.7-1.1,1c-0.6-0.5-1.2-1-1.7-1.6
		c-0.5-0.6-0.9-1-1.1-1.3v1.6c0,0.4,0,0.8,0.1,1.5h-1.3c0-0.5,0.1-0.9,0.1-1.3v-1.7c-0.4,0.5-0.7,0.9-1,1.3
		c-0.3,0.4-0.9,0.9-1.9,1.7c-0.3-0.3-0.6-0.6-1.1-0.8c0.9-0.5,1.6-1.1,2.2-1.7c0.6-0.6,1-1.2,1.2-1.7h-0.7c-0.4,0-0.8,0-1.2,0.1
		v-1.1c0.5,0,1,0.1,1.6,0.1H85.5z M87.8,59.1c0.6,0.3,1.4,0.8,2.2,1.3c-0.4,0.4-0.6,0.8-0.8,1.1c-0.8-0.6-2-1.4-3.8-2.3
		c0.3-0.4,0.6-0.8,0.7-1.1C86.6,58.5,87.2,58.8,87.8,59.1z"/>
	<path fill="#010101" d="M79.2,70.4v6.9h3.5V67c0-0.8,0-1.7-0.1-2.5h1.5c0,0.8-0.1,1.7-0.1,2.5v2.3h2.7c0.8,0,1.6,0,2.5-0.1v1.3
		c-0.9,0-1.8-0.1-2.5-0.1h-2.7v6.9h3.7c0.9,0,1.8,0,2.8-0.1v1.3c-0.9,0-1.9-0.1-2.8-0.1H78c-0.9,0-1.9,0-2.8,0.1v-1.3
		c0.7,0,1.6,0.1,2.7,0.1v-6.9c0-0.8,0-1.6-0.1-2.3h1.6C79.3,68.9,79.2,69.6,79.2,70.4z"/>
	<path fill="#010101" d="M87.4,87.9c1.2,0,2.2,0,3.1-0.1v1.7c-0.9,0-2-0.1-3.1-0.1h-8.9c-1.2,0-2.3,0-3.4,0.1v-1.7
		c1.1,0,2.2,0.1,3.4,0.1H87.4z"/>
	<path fill="#010101" d="M77.4,100.4c0-0.6,0-1.3-0.1-1.9h1.3c0,0.7-0.1,1.3-0.1,1.9v2.8c0.9-0.1,1.9-0.3,2.9-0.4
		c0,0.5,0.1,0.9,0.1,1.2c-0.8,0.1-1.8,0.2-3,0.3v4.8c1.2-0.8,2.2-1.4,2.8-1.9c0.1,0.4,0.3,0.8,0.6,1.2c-1,0.6-2.5,1.6-4.4,3
		c-0.3-0.5-0.5-0.9-0.8-1.2c0.5-0.4,0.7-0.8,0.7-1.3v-4.4c-0.9,0.1-1.7,0.2-2.3,0.3c0-0.5-0.1-1-0.1-1.3c0.7,0,1.5-0.1,2.4-0.2
		L77.4,100.4L77.4,100.4z M87.8,111.3c0.3-0.1,0.5-0.4,0.5-0.9l0.5-9.8h-3.1c0,2.3-0.1,4.3-0.5,5.9c-0.4,1.6-0.9,2.9-1.6,3.8
		c-0.7,0.9-1.6,2-2.9,3.1c-0.3-0.4-0.7-0.6-1.4-0.9c1.2-0.8,2.1-1.6,2.8-2.5c0.7-0.8,1.2-2,1.6-3.4s0.6-3.4,0.5-6
		c-1,0-1.9,0-2.8,0.1v-1.2c0.8,0,1.7,0.1,2.5,0.1h6.1c0,0.7-0.1,1.5-0.1,2.3l-0.4,9.1c-0.1,1-0.5,1.6-1,1.8
		c-0.6,0.2-1.3,0.3-2.3,0.5c-0.1-0.6-0.3-1.2-0.7-1.7C86.8,111.5,87.5,111.5,87.8,111.3z"/>
	<path fill="#010101" d="M76.7,122.6c0.6-0.2,1.2-0.7,1.8-1.5c0.6-0.7,1.1-1.5,1.5-2.1c-1.7,0-3,0-4,0.1v-1.3c0.9,0,2.5,0.1,4.7,0.1
		c0.5-1.1,0.9-1.9,1.1-2.6c0.5,0.3,1.1,0.5,1.6,0.7c-0.5,0.6-0.8,1.3-1.2,1.9h4.6c0.5,0,1.4,0,2.5-0.1v1.3c-0.9,0-1.7-0.1-2.5-0.1
		h-5.2c-0.5,0.8-1.3,1.9-2.5,3.5h3.7c0-0.8,0-1.7-0.1-2.6h1.5c0,0.8-0.1,1.6-0.1,2.6h2.3c0.9,0,1.8,0,2.6-0.1v1.3
		c-0.8,0-1.7-0.1-2.6-0.1H84v2.5h3.8c0.8,0,1.8,0,2.8-0.1v1.4c-1,0-2-0.1-2.8-0.1H84c0,1.4,0,2.6,0.1,3.4h-1.5c0-0.9,0.1-2,0.1-3.4
		H78c-1,0-1.9,0-2.8,0.1v-1.4c0.9,0,1.8,0.1,2.8,0.1h4.6v-2.5c-1.6,0-2.7,0-3.4,0.1c-0.6,0-1.3,0.2-2,0.3
		C77.1,123.5,76.9,123,76.7,122.6z"/>
	<path fill="#010101" d="M58.5,27.8h-1.2c0-1.2,0.1-2.3,0.1-3.5c-1,0.2-1.8,0.5-2.3,0.7c-0.1-0.5-0.3-1-0.5-1.4
		c0.5,0,1.4-0.2,2.8-0.5v-2.6c-0.5,0-1,0-1.4,0.1c-0.5,0-0.8,0.1-1.2,0.2l-0.5-1.2c0.4-0.3,0.7-0.8,0.9-1.6c0.2-0.7,0.5-1.5,0.7-2.1
		c-0.3,0-0.8,0-1.4,0.1v-1.2c0.6,0,1.1,0.1,1.7,0.1c0.2-1,0.4-2,0.5-2.8c0.2,0.1,0.7,0.2,1.5,0.4c-0.2,0.6-0.4,1.4-0.7,2.4
		c1,0,1.9,0,2.6-0.1v1.3C59.2,16,58.2,16,57.1,16c-0.2,0.7-0.6,1.9-1.1,3.6h1.4c0-1.1,0-1.9-0.1-2.5h1.2c0,0.5-0.1,1.4-0.1,2.5
		c0.7,0,1.2,0,1.7-0.1v1.2c-0.5,0-1.1-0.1-1.7-0.1V23c0.8-0.2,1.4-0.3,1.8-0.4C60,23,60,23.4,60.1,23.7c-0.6,0.1-1.1,0.2-1.7,0.4
		C58.4,25.7,58.4,27,58.5,27.8z M62.5,21.7c0.2-1,0.4-2.3,0.4-3.7h-1.4v9.6h-1.2c0-0.9,0.1-1.7,0.1-2.3v-6c0-0.8,0-1.6-0.1-2.3H63
		v-2.6c-1,0-1.9,0-2.6,0.1v-1.2c0.7,0,1.5,0.1,2.3,0.1h5.5l1.6-0.1v1.3c-0.6,0-1.6-0.1-3-0.1V17h2.9c0,0.6-0.1,1.6-0.1,2.9v6.4
		c0,0.6-0.3,0.9-0.7,1.1c-0.5,0.1-1,0.3-1.7,0.4c-0.2-0.6-0.4-1.1-0.5-1.6c0.9,0.1,1.4,0.1,1.6,0c0.2-0.1,0.3-0.3,0.4-0.6V18h-1.7
		c0,0.8-0.1,1.5-0.1,2c0.8,1.7,1.4,2.8,1.7,3.4c-0.4,0.2-0.8,0.5-1.1,0.7c-0.1-0.5-0.4-1.5-0.9-2.8c-0.5,1.8-0.9,3.2-1.2,4
		c-0.4-0.3-0.8-0.6-1.2-0.8c0.4-0.5,0.8-1.3,1.1-2.4s0.5-2.5,0.6-4.3h-1.7L64,19.7c0.3,0.4,0.7,1,1.3,1.9c-0.3,0.2-0.5,0.4-0.8,0.7
		c-0.2-0.5-0.4-1-0.6-1.4c-0.4,1.8-0.7,3.1-1,4c-0.3-0.3-0.7-0.6-1.1-0.8C62,23.5,62.3,22.7,62.5,21.7z M65.7,16.9v-2.6h-1.6v2.6
		H65.7z"/>
	<path fill="#010101" d="M57.7,32.5v9.4c0,1,0,2,0.1,3h-1.3c0-0.9,0.1-1.9,0.1-2.9v-7.3c-0.3,0.6-0.8,1.5-1.3,2.5
		c-0.4-0.5-0.8-0.8-1.1-1c0.4-0.5,1-1.5,1.7-3c0.7-1.4,1.2-2.8,1.4-4l1.6,0.5C58.5,30,58.1,30.9,57.7,32.5z M70,38.3
		c0,0.4,0,0.8,0,1h-1.1v-1.2h-9v1.2h-1.2c0-0.4,0.1-0.8,0.1-1.1c0-0.4,0-0.8-0.1-1.1H70C70,37.5,70,37.8,70,38.3z M65.3,30.8h1.9
		c1,0,1.9,0,2.5-0.1v1.1c-0.7,0-1.6-0.1-2.5-0.1h-5.8c-0.7,0-1.4,0-2.2,0.1v-1.1c0.7,0,1.4,0.1,2.2,0.1h2.3
		c-0.1-0.5-0.3-0.9-0.5-1.3c0.5-0.1,0.9-0.2,1.4-0.4C65,29.7,65.2,30.2,65.3,30.8z M68.1,34.7c0,0.6,0,1.1,0.1,1.5h-7.7
		c0-0.5,0.1-1,0.1-1.6s0-1.1-0.1-1.7h7.7C68.1,33.5,68.1,34.1,68.1,34.7z M66.5,39.4c0.6,0,1.2,0,1.9-0.1v1.2
		c-0.6,0-1.2-0.1-1.8-0.1h-1.3v3.1c0,0.7-0.3,1.1-0.7,1.2c-0.5,0.1-1.1,0.2-1.8,0.3c0-0.5-0.2-1.1-0.5-1.6c0.8,0,1.3,0,1.5,0
		c0.2,0,0.4-0.2,0.4-0.5v-2.5h-1.6c-0.7,0-1.3,0-1.9,0.1v-1.2c0.6,0.1,1.3,0.1,2,0.1L66.5,39.4L66.5,39.4z M66.9,35.2v-1.3h-5.3v1.3
		H66.9z"/>
	<path fill="#010101" d="M56.1,53.8c0.6-0.2,1.2-0.7,1.8-1.5c0.6-0.7,1.1-1.5,1.5-2.1c-1.7,0-3,0-4,0.1V49c0.9,0,2.5,0.1,4.7,0.1
		c0.5-1.1,0.9-1.9,1.1-2.6c0.5,0.3,1.1,0.5,1.6,0.7c-0.5,0.6-0.8,1.3-1.2,1.9H66c0.5,0,1.4,0,2.5-0.1v1.3c-0.9,0-1.7-0.1-2.5-0.1
		h-5.2c-0.5,0.8-1.3,1.9-2.5,3.5H62c0-0.8,0-1.7-0.1-2.6h1.5c0,0.8-0.1,1.6-0.1,2.6h2.3c0.9,0,1.8,0,2.6-0.1V55
		c-0.8,0-1.7-0.1-2.6-0.1h-2.3v2.5h3.8c0.8,0,1.8,0,2.8-0.1v1.4c-1,0-2-0.1-2.8-0.1h-3.8c0,1.4,0,2.6,0.1,3.4H62
		c0-0.9,0.1-2,0.1-3.4h-4.6c-1,0-1.9,0-2.8,0.1v-1.4c0.9,0,1.8,0.1,2.8,0.1H62V55c-1.6,0-2.7,0-3.4,0.1c-0.6,0-1.3,0.2-2,0.3
		C56.4,54.7,56.2,54.2,56.1,53.8z"/>
	<path fill="#010101" d="M62.3,66.5v2.8h3.8c0.9,0,1.7,0,2.5-0.1v1.5c-0.9,0-1.8-0.1-2.7-0.1h-3.7v6.8h5.3c0.7,0,1.5,0,2.3-0.1v1.4
		c-0.8,0-1.6-0.1-2.3-0.1H57c-0.7,0-1.5,0-2.4,0.1v-1.4c0.8,0,1.7,0.1,2.4,0.1h3.9V66.5c0-0.7,0-1.4-0.1-2.2h1.6
		C62.3,65.1,62.3,65.8,62.3,66.5z"/>
	<path fill="#010101" d="M57.1,93.4c-0.5,0.9-0.9,1.8-1.3,2.7c-0.4-0.4-0.8-0.8-1.3-1.1c0.5-0.6,1-1.3,1.5-2.2
		c0.5-0.8,0.9-1.6,1.3-2.4c0.3,0.3,0.6,0.6,1,0.9C57.9,91.8,57.5,92.5,57.1,93.4z M60.2,82.3h3.5c0-0.4,0-0.8-0.1-1.3H65
		c0,0.5-0.1,0.9-0.1,1.3h2.2c1,0,2,0,2.8-0.1v1.1c-0.8,0-1.7-0.1-2.8-0.1h-2.2c0,0.4,0,0.8,0.1,1.2h-1.3v-1.2h-3.5v1.6h-1.3
		c0-0.8,0.1-1.3,0.1-1.6h-1.6c-1,0-1.9,0-2.8,0.1v-1.2c0.8,0,1.8,0.1,2.8,0.1h1.6c0-0.4,0-0.8-0.1-1.3h1.4
		C60.2,81.5,60.2,81.9,60.2,82.3z M56.5,88.2c0.4,0.2,0.8,0.5,1.3,0.9c-0.4,0.4-0.7,0.7-0.9,1.1c-0.4-0.3-0.7-0.6-1.1-0.8
		c-0.4-0.2-0.8-0.5-1.3-0.7c0.3-0.3,0.6-0.7,0.8-1.1C55.8,87.7,56.1,87.9,56.5,88.2z M57.3,85.2c0.4,0.2,0.8,0.5,1.3,0.9
		c-0.4,0.3-0.6,0.6-0.9,0.9c-0.4-0.3-0.7-0.6-1.1-0.9c-0.4-0.3-0.8-0.5-1.2-0.7c0.3-0.4,0.6-0.7,0.8-1C56.6,84.7,57,85,57.3,85.2z
		 M62.6,85.5h5.7c-0.3,0.6-0.7,1.2-1.3,2s-1.1,1.3-1.7,1.7c0.5,0.2,1.1,0.4,1.8,0.5c0.7,0.1,1.7,0.2,3,0.2c-0.4,0.5-0.6,0.9-0.7,1.4
		c-1-0.1-2-0.3-2.8-0.5c-0.8-0.2-1.7-0.5-2.5-0.8c-0.7,0.4-1.3,0.7-2.1,0.9c-0.7,0.2-1.8,0.6-3.2,1c-0.1-0.5-0.4-0.9-0.7-1.3
		c0.9-0.1,1.9-0.2,2.8-0.5c0.9-0.2,1.6-0.5,2.2-0.8c-0.4-0.3-0.7-0.5-1-0.8c-0.3-0.3-0.6-0.6-0.9-1c-0.2,0.4-0.7,1-1.5,1.8
		c-0.3-0.4-0.7-0.6-1.1-0.9c0.7-0.5,1.3-1.2,1.9-2.1c0.6-0.8,1-1.6,1.2-2.2c0.4,0.2,0.9,0.4,1.6,0.5C63.2,84.8,63,85.1,62.6,85.5z
		 M68,93.4v0.9c0,0.7,0,1.4,0.1,2.2h-1.3v-0.9H62v0.9h-1.4c0-0.8,0.1-1.5,0.1-2.2v-0.9c0-0.5,0-1.1-0.1-1.8H68
		C68,92.1,68,92.7,68,93.4z M66.7,94.5v-1.9H62v1.9H66.7z M65.4,87.6c0.3-0.3,0.6-0.7,0.9-1.1H62c0.2,0.4,0.5,0.7,1,1.1
		c0.4,0.4,0.8,0.7,1.2,0.9C64.7,88.2,65.1,87.9,65.4,87.6z"/>
	<path fill="#010101" d="M67.4,111.5c0,0.7,0,1.5,0.1,2.4h-1.4v-1h-6.9v1.1h-1.4c0-0.9,0.1-1.7,0.1-2.3V110c0-0.3,0-0.7-0.1-1.2
		c-0.3,0.1-1.3,0.5-2.9,0.9c-0.1-0.5-0.4-1.1-0.7-1.6c1.6-0.2,3-0.5,4-0.7c1.1-0.3,2.1-0.6,3-1.1c-0.5-0.3-1.3-0.8-2.4-1.7
		c-0.5,0.5-1.1,1.1-1.8,1.6c-0.3-0.5-0.7-0.8-1.1-1c0.9-0.6,1.8-1.2,2.4-2s1.2-1.5,1.5-2.3c0.6,0.3,1.2,0.5,1.7,0.7
		c-0.3,0.2-0.6,0.5-0.9,0.9h6.4c-0.5,0.8-1,1.4-1.4,1.9c-0.5,0.5-1.1,1.2-2.1,1.9c0.6,0.3,1.5,0.5,2.5,0.8c1.1,0.3,2.4,0.5,4.1,0.5
		c-0.3,0.5-0.5,1.1-0.6,1.7c-0.8-0.2-1.6-0.4-2.1-0.5c-0.1,0.5-0.1,0.9-0.1,1.4L67.4,111.5L67.4,111.5z M69.6,99.6
		c0,0.8-0.1,1.3-0.1,1.7c0,0.3,0,0.8,0.1,1.5h-1.4v-1.9H56.5v2H55c0-0.5,0.1-0.9,0.1-1.3c0-0.4,0-1.1-0.1-1.9h6.8
		c-0.1-0.5-0.3-0.9-0.5-1.3c0.7-0.1,1.2-0.2,1.6-0.3c0.3,0.9,0.5,1.4,0.5,1.6L69.6,99.6L69.6,99.6z M57.9,108.8h9.5
		c-1.4-0.3-2.4-0.6-3.1-0.9c-0.7-0.3-1.3-0.5-1.9-0.7c-0.8,0.4-1.5,0.7-2.2,0.9C59.4,108.4,58.7,108.7,57.9,108.8z M66.1,111.8v-1.9
		h-6.9v1.9H66.1z M59.7,103.8c1.1,0.9,2.1,1.6,2.9,1.9c0.8-0.6,1.6-1.3,2.2-2.1h-5C59.8,103.6,59.7,103.7,59.7,103.8z"/>
	<path fill="#010101" d="M60.9,131.5l-0.9,1.8h-0.7l0.7-1.8h-0.7v-1.5h1.6L60.9,131.5L60.9,131.5z"/>
	<path fill="#010101" d="M37.7,18c-0.9,1.3-1.8,2.5-2.8,3.4c-0.4-0.5-0.7-0.8-1.1-1.1c0.9-0.7,1.9-1.8,3-3.3c1-1.5,1.8-2.9,2.2-4.3
		c0.3,0.2,0.8,0.4,1.3,0.6C39.5,15.1,38.6,16.7,37.7,18z M43.5,22.5c0.5-0.3,0.8-0.5,1.1-0.8c0.7,1,1.3,2,1.9,2.9
		c0.6,1,1,1.7,1.3,2.3c-0.5,0.3-0.9,0.5-1.3,0.7c-0.3-0.5-0.6-1.2-1.1-1.9c-3,0.4-5.1,0.7-6.3,0.9c-1.2,0.2-2.1,0.4-2.7,0.6
		c-0.1-0.5-0.4-0.9-0.7-1.5c0.5-0.2,0.9-0.5,1.3-0.9c0.4-0.5,1-1.4,1.8-2.8c0.8-1.4,1.3-2.7,1.6-3.8c0.7,0.4,1.2,0.6,1.6,0.7
		c-0.5,0.8-1.2,1.9-2,3.4c-0.8,1.5-1.4,2.5-1.8,3c2.1-0.2,4.3-0.4,6.7-0.7C44.6,24.1,44.1,23.3,43.5,22.5z M46.5,17.4
		c1,1.2,1.9,2,2.9,2.5c-0.6,0.3-1.1,0.7-1.3,1.1c-1.3-1.1-2.5-2.4-3.4-3.9s-1.7-3-2.3-4.5c0.5-0.1,0.9-0.2,1.3-0.5
		C44.7,14.5,45.6,16.2,46.5,17.4z"/>
	<path fill="#010101" d="M41.6,40.4c1.2-1.2,2.1-2.6,2.8-4.2c0.4,0.3,0.8,0.6,1.3,0.9c-1.1,1.7-2.1,3.1-3.1,4.2
		c1.5,1.2,3.7,1.9,6.6,2.2c-0.5,0.6-0.7,1.1-0.8,1.6c-2.9-0.5-5.2-1.5-6.9-2.9c-1.9,1.4-4.2,2.4-6.7,3c-0.1-0.5-0.4-1-0.7-1.5
		c2.7-0.3,4.9-1.1,6.4-2.4c-1-1.2-1.9-2.5-2.5-4c0.5-0.2,1-0.5,1.3-0.7C40.1,38.3,40.8,39.6,41.6,40.4z M36.4,33.5
		c-0.7,0-1.3,0-1.9,0.1v-1.3l1.9,0.1h10.5c0.7,0,1.5-0.1,2.2-0.1v1.4c-0.8,0-1.5-0.1-2.2-0.1L36.4,33.5L36.4,33.5z M35.8,38.1
		c-0.4-0.5-0.8-0.8-1.3-1.1c0.8-0.5,1.6-1,2.3-1.7c0.7-0.7,1.2-1.2,1.6-1.7c0.5,0.3,0.9,0.6,1.4,1C39.2,35.2,37.8,36.4,35.8,38.1z
		 M42.7,31.7c-0.6,0.2-1.2,0.3-1.6,0.5c-0.3-0.8-0.6-1.6-1-2.5c0.5-0.2,1.1-0.3,1.6-0.5C42.2,30.3,42.5,31.1,42.7,31.7z M46.2,34.8
		c0.8,0.6,1.6,1.2,2.3,1.7c-0.5,0.4-0.9,0.7-1.3,1.1c-0.4-0.5-1.7-1.6-3.8-3c0.4-0.4,0.7-0.7,1.1-1C44.9,33.8,45.4,34.2,46.2,34.8z"
		/>
	<path fill="#010101" d="M35.4,53.8c0.6-0.2,1.2-0.7,1.8-1.5c0.6-0.7,1.1-1.5,1.5-2.1c-1.7,0-3,0-4,0.1V49c0.9,0,2.5,0.1,4.7,0.1
		c0.5-1.1,0.9-1.9,1.1-2.6c0.5,0.3,1.1,0.5,1.6,0.7c-0.5,0.6-0.8,1.3-1.2,1.9h4.6c0.5,0,1.4,0,2.5-0.1v1.3c-0.9,0-1.7-0.1-2.5-0.1
		h-5.2c-0.5,0.8-1.3,1.9-2.5,3.5h3.8c0-0.8,0-1.7-0.1-2.6h1.5c0,0.8-0.1,1.6-0.1,2.6H45c0.9,0,1.8,0,2.6-0.1V55
		C46.8,55,45.9,55,45,55h-2.3v2.5h3.8c0.8,0,1.8,0,2.8-0.1v1.4c-1,0-2-0.1-2.8-0.1h-3.8c0,1.4,0,2.6,0.1,3.4h-1.5
		c0-0.9,0.1-2,0.1-3.4h-4.6c-1,0-1.9,0-2.8,0.1v-1.4c0.9,0,1.8,0.1,2.8,0.1h4.6V55c-1.6,0-2.7,0-3.4,0.1c-0.6,0-1.3,0.2-2,0.3
		C35.8,54.7,35.6,54.2,35.4,53.8z"/>
	<path fill="#010101" d="M37.8,76.2c-0.8,0.9-1.7,1.8-2.6,2.7c-0.3-0.3-0.7-0.7-1.1-1.1c0.8-0.6,1.6-1.3,2.5-2.3
		c0.8-0.9,1.6-1.8,2.2-2.8c0.5,0.4,0.9,0.8,1.2,1.1C39.3,74.5,38.6,75.2,37.8,76.2z M46.8,67.9c0,1.7,0,3.1,0.1,4.1H36.3
		c0-0.8,0.1-2.1,0.1-3.8s0-3.1-0.1-4h10.5C46.8,64.9,46.8,66.2,46.8,67.9z M45.4,70.8v-5.5h-7.6v5.5H45.4z M48.9,77.6
		c-0.1,0.1-0.6,0.5-1.3,1.1c-0.8-1.1-2.3-2.7-4.5-4.9c0.4-0.3,0.8-0.6,1.1-0.9C46.4,75.1,48,76.7,48.9,77.6z"/>
	<path fill="#010101" d="M36.2,92.6c-0.4,1-0.8,1.9-1.1,2.6c-0.4-0.3-0.8-0.6-1.3-0.9c0.5-0.8,0.9-1.6,1.3-2.4
		c0.4-0.8,0.8-1.9,1.2-3.2c0.3,0.3,0.7,0.5,1.2,0.7C37.1,90.5,36.6,91.6,36.2,92.6z M36.1,83.3c0.6,0.6,1.1,1.1,1.6,1.6
		c-0.4,0.4-0.7,0.8-1,1.1c-0.5-0.7-1.4-1.7-2.8-3.1c0.4-0.3,0.7-0.6,1-0.9C35.2,82.4,35.6,82.8,36.1,83.3z M39.1,84.7
		c0.7-1.3,1.1-2.6,1.4-3.7c0.5,0.2,1,0.4,1.6,0.6c-0.3,0.3-0.6,1.1-1.1,2.3H46c1,0,2,0,2.8-0.1V85C47.9,85,46.9,85,46,85h-0.8v2.3
		c1.3,0,2.3,0,3.1-0.1v1.2c-0.8,0-1.9-0.1-3.1-0.1v2.3c1.3,0,2.4,0,3.1-0.1v1.1c-0.8,0-1.8-0.1-3.1-0.1v2.3c1.9,0,3.3,0,4.1-0.1v1.3
		c-0.8,0-1.8-0.1-2.9-0.1h-5.4v1.4h-1.4c0-0.8,0.1-1.9,0.1-3.4v-6.4c-0.3,0.5-0.6,1.1-1,1.7c-0.4-0.5-0.8-0.8-1.3-1
		C37.9,87,38.5,86.1,39.1,84.7z M43.8,87.3V85h-2.9v2.3H43.8z M43.8,90.6v-2.3h-2.9v2.3H43.8z M43.8,93.9v-2.3h-2.9v2.3H43.8z
		 M45.9,82.8c-0.3,0.2-0.7,0.5-1.1,0.8c-0.3-0.5-0.9-1.2-1.7-1.9c0.3-0.1,0.6-0.4,1-0.8C45,81.6,45.5,82.3,45.9,82.8z"/>
	<path fill="#010101" d="M39.5,100.8c0.2-0.6,0.3-1.1,0.5-1.5c0.1-0.4,0.2-0.9,0.3-1.3c0.6,0.1,1.2,0.3,1.7,0.4
		c-0.2,0.5-0.4,0.8-0.5,1c-0.1,0.2-0.2,0.7-0.5,1.4h5.4c0.9,0,1.8,0,2.5-0.1v1.3c-0.8,0-1.6-0.1-2.5-0.1h-5.8
		c-0.3,0.6-0.6,1.3-1,2.1c-0.4,0.8-1,1.6-1.6,2.5v4.7c0,0.9,0,1.8,0.1,2.6h-1.4c0-0.8,0.1-1.7,0.1-2.6v-3.5
		c-0.7,0.7-1.4,1.2-1.9,1.7c-0.3-0.4-0.7-0.7-1.1-1c0.5-0.3,1.1-0.7,1.6-1.1c0.5-0.5,1-1,1.5-1.6c0-0.4,0-0.8-0.1-1.2h1.1
		c0.3-0.4,0.6-0.8,0.8-1.2c0.2-0.5,0.5-0.9,0.6-1.3h-1.7c-1.1,0-2,0-2.8,0.1v-1.3c0.8,0,1.8,0.1,2.8,0.1L39.5,100.8L39.5,100.8z
		 M42.9,106.1v-0.9c0-0.9,0-1.6-0.1-2.2h1.5c0,0.5-0.1,1.3-0.1,2.2v0.9h1.6c0.8,0,1.6,0,2.2-0.1v1.3c-0.7,0-1.4-0.1-2.2-0.1h-1.6
		v4.5h2.5c0.8,0,1.6,0,2.3-0.1v1.2c-0.7,0-1.4-0.1-2.3-0.1h-5.4c-1.2,0-2.1,0-2.8,0.1v-1.2c0.7,0,1.6,0.1,2.8,0.1h1.6v-4.5h-1.3
		c-0.8,0-1.6,0-2.3,0.1V106c0.8,0,1.6,0.1,2.3,0.1H42.9z"/>
	<path fill="#010101" d="M36.9,118.8v8.7c0,1.5,0,2.6,0.1,3.3h-1.4c0-0.8,0.1-1.9,0.1-3.4v-6.3c-0.3,0.6-0.7,1.4-1.2,2.2
		c-0.3-0.4-0.6-0.7-0.9-0.9c0.5-0.6,1-1.5,1.6-2.8c0.6-1.3,1.1-2.8,1.4-4.5c0.3,0.2,0.8,0.4,1.6,0.6
		C37.8,116.2,37.4,117.2,36.9,118.8z M39.4,119.8v6c0,0.6,0,1.1,0.1,1.6h-1.3c0-0.5,0.1-1,0.1-1.6V120c0-0.6,0-1.2-0.1-1.7h1.3
		C39.4,118.7,39.4,119.2,39.4,119.8z M42,120.2c0.6,0.2,1.1,0.4,1.3,0.5c-0.1,0.1-0.3,0.5-0.6,1.1h3.4c0.7,0,1.4,0,1.9-0.1v1.2
		c-0.6,0-1.3-0.1-1.9-0.1h-0.9c0,0.4-0.1,1.1-0.2,2.1h1.9c0.8,0,1.5,0,2.2-0.1v1.2c-0.6,0-1.3-0.1-2.2-0.1h-1.7
		c1.2,1.9,2.6,3.1,4.3,3.5c-0.4,0.3-0.7,0.7-0.9,1.3c-1.9-0.8-3.3-2.2-4.1-3.9c-0.7,1.6-2.2,3-4.4,4.1c-0.3-0.5-0.6-0.8-1.1-1.1
		c2.5-0.8,4.1-2.1,4.7-3.9h-1c-0.7,0-1.6,0-2.6,0.1v-1.2c1,0,1.9,0.1,2.6,0.1h1.1c0.1-0.9,0.2-1.6,0.2-2.1h-1.8
		c-0.3,0.5-0.5,0.9-0.7,1.3c-0.4-0.2-0.7-0.4-1.1-0.5C41.2,122.2,41.8,121.1,42,120.2z M43.2,117c-0.8,0-1.5,0-2.2,0.1v-1.3
		c0.7,0.1,1.4,0.1,2.2,0.1h4c-0.3,1.2-0.6,2.2-0.7,3h0.9c0.8,0,1.5,0,2.1-0.1v1.3c-0.6-0.1-1.3-0.1-2.1-0.1h-4.9c-1,0-1.8,0-2.3,0.1
		v-1.3c0.5,0,1.3,0.1,2.3,0.1H45c0.1-0.5,0.2-1.2,0.3-1.9L43.2,117L43.2,117z"/>
	<path fill="#010101" d="M14.8,19.4c0.6-0.2,1.2-0.7,1.8-1.5s1.1-1.5,1.5-2.1c-1.7,0-3,0-4,0.1v-1.3c0.9,0,2.5,0.1,4.7,0.1
		c0.5-1.1,0.9-1.9,1.1-2.6c0.5,0.3,1.1,0.5,1.6,0.7c-0.5,0.6-0.8,1.3-1.2,1.9h4.6c0.5,0,1.4,0,2.5-0.1v1.3c-0.9,0-1.7-0.1-2.5-0.1
		h-5.2c-0.5,0.8-1.3,1.9-2.5,3.5h3.8c0-0.8,0-1.7-0.1-2.6h1.5c0,0.8-0.1,1.6-0.1,2.6h2.3c0.9,0,1.8,0,2.6-0.1v1.3
		c-0.8,0-1.7-0.1-2.6-0.1h-2.3v2.5h3.8c0.8,0,1.8,0,2.8-0.1v1.4c-1,0-2-0.1-2.8-0.1h-3.8c0,1.4,0,2.6,0.1,3.4h-1.5
		c0-0.9,0.1-2,0.1-3.4h-4.6c-1,0-1.9,0-2.8,0.1v-1.4c0.9,0,1.8,0.1,2.8,0.1h4.6v-2.5c-1.6,0-2.7,0-3.4,0.1c-0.6,0-1.3,0.2-2,0.3
		C15.2,20.3,15,19.8,14.8,19.4z"/>
	<path fill="#010101" d="M28.3,38.5c0,0.4,0,0.8,0.1,1.3H27v-1.4H14.9V40h-1.4c0-0.4,0.1-0.8,0.1-1.3c0-0.5,0-0.9-0.1-1.3h14.9
		C28.3,37.8,28.3,38.2,28.3,38.5z M21.8,30.8H25c1.1,0,2,0,2.8-0.1V32c-0.8,0-1.7-0.1-2.8-0.1h-8.5c-0.8,0-1.6,0-2.3,0.1v-1.2
		c0.7,0,1.5,0.1,2.3,0.1h3.8c-0.1-0.5-0.3-0.9-0.5-1.3c0.4-0.1,0.9-0.2,1.4-0.4C21.4,29.6,21.5,30.2,21.8,30.8z M23.7,39.7
		c1,0,1.9,0,2.6-0.1v1.2c-0.7,0-1.6-0.1-2.5-0.1h-2.1v2.7c0,0.6-0.3,1-0.8,1.2c-0.5,0.2-1.2,0.3-2.2,0.5c-0.1-0.5-0.3-1-0.5-1.4
		c1,0,1.6-0.1,1.8-0.2c0.2-0.1,0.3-0.3,0.3-0.5v-2.3h-1.8c-0.9,0-1.8,0-2.6,0.1v-1.2c0.8,0,1.7,0.1,2.6,0.1L23.7,39.7L23.7,39.7z
		 M25.3,34.7c0,0.6,0,1.2,0.1,1.7h-9.1c0-0.6,0.1-1.2,0.1-1.7s0-1.1-0.1-1.6h9.1C25.3,33.6,25.3,34.1,25.3,34.7z M24,35.3v-1.3h-6.4
		v1.3H24z"/>
	<path fill="#010101" d="M21,49.3v2.8h3.8c0.9,0,1.7,0,2.5-0.1v1.5c-0.9,0-1.8-0.1-2.7-0.1H21v6.8h5.3c0.7,0,1.5,0,2.3-0.1v1.4
		c-0.8,0-1.6-0.1-2.3-0.1H15.7c-0.7,0-1.5,0-2.4,0.1v-1.4c0.8,0,1.7,0.1,2.4,0.1h3.9V49.3c0-0.7,0-1.4-0.1-2.2h1.6
		C21.1,47.9,21,48.6,21,49.3z"/>
	<path fill="#010101" d="M15.8,76.2c-0.5,0.9-0.9,1.8-1.3,2.7c-0.4-0.4-0.8-0.8-1.3-1.1c0.5-0.6,1-1.3,1.5-2.2
		c0.5-0.8,0.9-1.6,1.3-2.4c0.3,0.3,0.6,0.6,1,0.9C16.6,74.6,16.2,75.3,15.8,76.2z M18.9,65.1h3.5c0-0.4,0-0.8-0.1-1.3h1.4
		c0,0.5-0.1,0.9-0.1,1.3h2.2c1,0,2,0,2.8-0.1v1.1c-0.8,0-1.7-0.1-2.8-0.1h-2.2c0,0.4,0,0.8,0.1,1.2h-1.3v-1.2h-3.5v1.6h-1.3
		c0-0.8,0.1-1.3,0.1-1.6H16c-1,0-1.9,0-2.8,0.1V65c0.8,0,1.8,0.1,2.8,0.1h1.6c0-0.4,0-0.8-0.1-1.3h1.4
		C18.9,64.3,18.9,64.7,18.9,65.1z M15.3,71c0.4,0.2,0.8,0.5,1.3,0.9c-0.4,0.4-0.7,0.7-0.9,1.1c-0.4-0.3-0.7-0.6-1.1-0.8
		s-0.8-0.5-1.3-0.7c0.3-0.3,0.6-0.7,0.8-1.1C14.5,70.5,14.9,70.7,15.3,71z M16.1,68c0.4,0.2,0.8,0.5,1.3,0.9
		c-0.4,0.3-0.6,0.6-0.9,0.9c-0.4-0.3-0.7-0.6-1.1-0.9c-0.4-0.3-0.8-0.5-1.2-0.7c0.3-0.4,0.6-0.7,0.8-1C15.4,67.6,15.7,67.8,16.1,68z
		 M21.4,68.3h5.7c-0.3,0.6-0.7,1.2-1.3,2c-0.6,0.7-1.1,1.3-1.7,1.7c0.5,0.2,1.1,0.4,1.8,0.5s1.7,0.2,3,0.2c-0.4,0.5-0.6,0.9-0.7,1.4
		c-1-0.1-2-0.3-2.8-0.5c-0.8-0.2-1.7-0.5-2.5-0.8c-0.7,0.4-1.3,0.7-2.1,0.9c-0.7,0.2-1.8,0.6-3.2,1c-0.1-0.5-0.4-0.9-0.7-1.3
		c0.9-0.1,1.9-0.2,2.8-0.5c0.9-0.2,1.6-0.5,2.2-0.8c-0.4-0.3-0.7-0.5-1-0.8c-0.3-0.3-0.6-0.6-0.9-1c-0.2,0.4-0.7,1-1.5,1.8
		c-0.3-0.4-0.7-0.6-1.1-0.9c0.7-0.5,1.3-1.2,1.9-2.1c0.6-0.8,1-1.6,1.2-2.2c0.4,0.2,0.9,0.4,1.6,0.5C22,67.6,21.7,67.9,21.4,68.3z
		 M26.7,76.2v0.9c0,0.7,0,1.4,0.1,2.2h-1.3v-0.9h-4.7v0.9h-1.4c0-0.8,0.1-1.5,0.1-2.2v-0.9c0-0.5,0-1.1-0.1-1.8h7.5
		C26.7,74.9,26.7,75.6,26.7,76.2z M25.4,77.3v-1.9h-4.7v1.9H25.4z M24.1,70.4c0.3-0.3,0.6-0.7,0.9-1.1h-4.2c0.2,0.4,0.5,0.7,1,1.1
		s0.8,0.7,1.2,0.9C23.4,71,23.8,70.7,24.1,70.4z"/>
	<path fill="#010101" d="M26.1,94.3c0,0.7,0,1.5,0.1,2.4h-1.4v-1h-6.9v1.1h-1.4c0-0.9,0.1-1.7,0.1-2.3v-1.6c0-0.3,0-0.7-0.1-1.2
		c-0.3,0.1-1.3,0.5-2.9,0.9C13.5,92,13.3,91.5,13,91c1.6-0.2,3-0.5,4-0.7c1.1-0.3,2.1-0.6,3-1.1c-0.5-0.3-1.3-0.8-2.4-1.7
		c-0.5,0.5-1.1,1.1-1.8,1.6c-0.3-0.5-0.7-0.8-1.1-1c0.9-0.6,1.8-1.2,2.4-2c0.7-0.7,1.2-1.5,1.5-2.3c0.6,0.3,1.2,0.5,1.7,0.7
		c-0.3,0.2-0.6,0.5-0.9,0.9h6.4c-0.5,0.8-1,1.4-1.4,1.9c-0.5,0.5-1.1,1.2-2.1,1.9c0.6,0.3,1.5,0.5,2.5,0.8c1.1,0.3,2.4,0.5,4.1,0.5
		c-0.3,0.5-0.5,1.1-0.6,1.7c-0.8-0.2-1.6-0.4-2.1-0.5c-0.1,0.5-0.1,0.9-0.1,1.4V94.3z M28.4,82.4c0,0.8-0.1,1.3-0.1,1.7
		c0,0.3,0,0.8,0.1,1.5H27v-1.9H15.2v2h-1.5c0-0.5,0.1-0.9,0.1-1.3s0-1.1-0.1-1.9h6.8c-0.1-0.5-0.3-0.9-0.5-1.3
		c0.7-0.1,1.2-0.2,1.6-0.3c0.3,0.9,0.5,1.4,0.5,1.6L28.4,82.4L28.4,82.4z M16.7,91.6h9.5c-1.4-0.3-2.4-0.6-3.1-0.9
		c-0.7-0.3-1.3-0.5-1.9-0.7c-0.8,0.4-1.5,0.7-2.2,0.9C18.2,91.2,17.4,91.5,16.7,91.6z M24.9,94.7v-1.9h-6.9v1.9H24.9z M18.4,86.6
		c1.1,0.9,2.1,1.6,2.9,1.9c0.8-0.6,1.6-1.3,2.2-2.1h-5C18.5,86.4,18.5,86.5,18.4,86.6z"/>
	<path fill="#010101" d="M27.1,105.1c0.2,0.5,0.2,0.9,0.1,1.3c-0.1,0.4-0.3,0.7-0.7,1c-0.3,0.2-0.7,0.3-1.2,0.3s-0.8-0.2-1.2-0.5
		c-0.4-0.4-0.5-0.7-0.6-1.2c0-0.4,0.1-0.8,0.3-1.1c0.2-0.3,0.5-0.6,1-0.7c0.5-0.2,0.9-0.1,1.4,0C26.6,104.3,27,104.6,27.1,105.1z
		 M26,106.9c0.4-0.2,0.6-0.6,0.5-1.1c0-0.5-0.2-0.8-0.6-1c-0.4-0.2-0.8-0.2-1.1,0.1c-0.4,0.2-0.5,0.6-0.5,1c0,0.5,0.2,0.8,0.6,1
		C25.3,107.1,25.7,107.1,26,106.9z"/>
</g>
</svg>
