<?xml version="1.0" encoding="utf-8"?>
<!-- Generator: Adobe Illustrator 18.1.1, SVG Export Plug-In . SVG Version: 6.00 Build 0)  -->
<svg version="1.1" id="图层_1" xmlns="http://www.w3.org/2000/svg" xmlns:xlink="http://www.w3.org/1999/xlink" x="0px" y="0px"
	 width="100" height="151.6" enable-background="new 0 0 100 151.6" xml:space="preserve">
<rect x="0.2" y="0.1" fill="#E51E25" width="99.9" height="151.4"/>
<rect x="4.6" y="5" fill="#FFFFFF" width="89.8" height="142"/>
<g>
	<rect x="-0.9" y="14.3" fill="none" width="83.9" height="135.7"/>
	<path fill="#010101" d="M70.4,54.1l-1.1,1.2c-0.4,0.4-0.9,0.9-1.6,1.6c-0.3-0.3-0.7-0.6-1.1-0.9c0.8-0.5,1.6-1,2.2-1.7
		c0.6-0.7,1.1-1.3,1.3-1.7h-0.6c-0.7,0-1.5,0-2.3,0.1v-1.1c0.8,0,1.6,0.1,2.3,0.1h0.9c0-0.8,0-1.6-0.1-2.2h1.3
		c0,0.6-0.1,1.3-0.1,2.2c0.8,0,1.6,0,2.3-0.1v1.1c-0.8,0-1.6-0.1-2.3-0.1v3.1c0,0.4,0,0.7,0.1,1.1h-1.3c0-0.2,0.1-0.6,0.1-1.1V54.1z
		 M68.7,62.7c0.7-0.4,1.4-0.9,2.2-1.6c0.2,0.3,0.5,0.7,0.9,1.1c-0.5,0.3-1,0.6-1.6,0.9c-0.6,0.4-1.4,0.8-2.4,1.5
		c-0.2-0.4-0.5-0.8-0.8-1.1C67.4,63.3,68,63,68.7,62.7z M79.8,59.5c0.5,0,1,0,1.6-0.1v1.1c-0.5,0-1.1-0.1-1.6-0.1h-4.6v3
		c0,0.7-0.3,1.1-0.8,1.3c-0.6,0.2-1.2,0.3-1.8,0.3c-0.1-0.5-0.3-1-0.5-1.4c0.9,0,1.5,0,1.7,0c0.2-0.1,0.3-0.3,0.3-0.7v-2.4h-5.3
		c-0.4,0-0.8,0-1.3,0.1v-1.2c0.5,0,0.9,0.1,1.3,0.1L79.8,59.5L79.8,59.5z M78,57.3c0.4,0,0.9,0,1.6-0.1v1.1c-0.8,0-1.3-0.1-1.6-0.1
		h-7.4c-0.3,0-0.8,0-1.5,0.1v-1.1c0.5,0,1,0.1,1.5,0.1H78z M74.1,54.5c-0.2,0.3-0.5,0.6-0.9,0.9c-0.5-0.6-1-1.1-1.5-1.5
		c0.3-0.3,0.5-0.6,0.7-0.9C73,53.5,73.6,54,74.1,54.5z M77,51.6c0-0.9,0-1.6-0.1-2.1h1.3c0,0.5-0.1,1.2-0.1,2.1h1.3
		c0.6,0,1.3,0,1.9-0.1v1.1c-0.6,0-1.3-0.1-1.9-0.1h-0.9c1.1,1.4,2.2,2.4,3.5,3c-0.5,0.4-0.9,0.7-1.1,1c-0.6-0.5-1.2-1-1.7-1.6
		c-0.5-0.6-0.9-1-1.1-1.3v1.6c0,0.4,0,0.8,0.1,1.5h-1.3c0-0.5,0.1-0.9,0.1-1.3v-1.7c-0.4,0.5-0.7,0.9-1,1.3
		c-0.3,0.4-0.9,0.9-1.9,1.7c-0.3-0.3-0.6-0.6-1.1-0.8c0.9-0.5,1.6-1.1,2.2-1.7c0.6-0.6,1-1.2,1.2-1.7h-0.7c-0.4,0-0.8,0-1.2,0.1
		v-1.1c0.5,0,1,0.1,1.6,0.1H77z M79.2,62c0.6,0.3,1.4,0.8,2.2,1.3c-0.4,0.4-0.6,0.8-0.8,1.1c-0.8-0.6-2-1.4-3.8-2.3
		c0.3-0.4,0.6-0.8,0.7-1.1C78,61.4,78.6,61.7,79.2,62z"/>
	<path fill="#010101" d="M70.7,73.3v6.9h3.5V69.9c0-0.8,0-1.7-0.1-2.5h1.5c0,0.8-0.1,1.7-0.1,2.5v2.3h2.7c0.8,0,1.6,0,2.5-0.1v1.3
		c-0.9,0-1.8-0.1-2.5-0.1h-2.7v6.8h3.7c0.9,0,1.8,0,2.8-0.1v1.3c-0.9,0-1.9-0.1-2.8-0.1h-9.8c-0.9,0-1.9,0-2.8,0.1v-1.3
		c0.7,0,1.6,0.1,2.7,0.1v-6.9c0-0.8,0-1.6-0.1-2.3h1.6C70.7,71.8,70.7,72.5,70.7,73.3z"/>
	<path fill="#010101" d="M79.1,85.2c0.6,0,1.2,0,1.8-0.1v1.2c-0.6,0-1.2-0.1-1.7-0.1h-5l-0.4,3.6H79c-0.1,0.5-0.1,1.2-0.1,2
		l-0.1,4.9c1.4,0,2.5,0,3.1-0.1v1.4c-0.6,0-1.6-0.1-2.8-0.1h-9.7c-1.1,0-1.9,0-2.5,0.1v-1.5c0.7,0,1.5,0.1,2.4,0.1h2.2l0.8-5.8h-1.6
		c-0.8,0-1.4,0-1.9,0.1v-1.2c0.5,0,1.2,0.1,1.9,0.1h1.8l0.4-3.6h-3c-0.7,0-1.4,0-2,0.1v-1.2c0.6,0,1.2,0.1,2,0.1L79.1,85.2
		L79.1,85.2z M77.4,96.7l0.2-5.8h-4l-0.8,5.8H77.4z"/>
	<path fill="#010101" d="M75.5,103.2H78c1.1,0,2.2,0,3.3-0.1v1.1c-1.1,0-2.1-0.1-3-0.1h-8.7c0,2.8,0,4.7-0.1,5.7
		c-0.1,1-0.2,2.1-0.5,3.3s-0.6,2.3-1.1,3.3c-0.3-0.3-0.7-0.6-1.3-0.9c0.4-0.6,0.6-1.2,0.9-1.8c0.2-0.6,0.4-1.3,0.5-2
		c0.1-0.7,0.2-1.6,0.2-2.6c0-1,0-3,0-6H74c-0.1-0.6-0.2-1.2-0.5-1.9c0.5,0,1-0.1,1.6-0.2C75.3,101.6,75.4,102.3,75.5,103.2z
		 M76.3,106.5v4.9h2.4c0.7,0,1.4,0,2.2-0.1v1.1c-0.7,0-1.4-0.1-2.2-0.1h-2.4v2.8h3.1c0.7,0,1.6,0,2.5-0.1v1.2c-1.2,0-2-0.1-2.5-0.1
		h-7.2c-0.9,0-1.8,0-2.8,0.1v-1.2c0.9,0.1,1.9,0.1,2.8,0.1h2.7v-2.8h-1.7c-0.9,0-1.8,0-2.8,0.1v-1.1c1,0,1.9,0.1,2.7,0.1h1.7v-4.9
		c0-0.7,0-1.3-0.1-1.8h1.5C76.3,105.2,76.3,105.8,76.3,106.5z M72.5,107.3c0.5,0.3,1.2,1.1,2.3,2.2c-0.3,0.3-0.6,0.6-0.9,1
		c-0.7-0.9-1.3-1.6-1.9-2c-0.4,0.8-0.8,1.6-1.2,2.2c-0.4-0.2-0.8-0.5-1.3-0.7c0.5-0.6,1-1.4,1.4-2.3c0.4-1,0.7-1.9,0.9-2.6
		c0.5,0.3,1,0.5,1.6,0.6C73,106.2,72.7,106.8,72.5,107.3z M78.9,108.7c-0.4,0.7-0.8,1.4-1.2,2.2c-0.5-0.3-0.9-0.5-1.3-0.7
		c0.5-0.7,1-1.5,1.5-2.4c0.5-0.9,0.7-1.8,0.9-2.5c0.6,0.2,1.1,0.4,1.6,0.5l-0.9,1.7c0.4,0.2,1.2,0.8,2.4,1.8c-0.4,0.4-0.7,0.7-1,1.1
		C80.1,109.6,79.5,109,78.9,108.7z"/>
	<path fill="#010101" d="M73.9,127.3c-1.5,1.1-3.3,2.8-5.4,5c-0.4-0.5-0.7-0.8-1-1c0.4-0.5,0.5-0.9,0.5-1.5v-7.5
		c0-0.7,0-1.4-0.1-2.2h1.6c0,0.3-0.1,0.8-0.1,1.6v7.8c1.3-1.2,2.4-2.3,3.4-3.4C73.2,126.5,73.5,126.9,73.9,127.3z M79.6,123
		c-0.2,2.1-0.6,3.8-1.3,5.2c1.8,1.8,3.1,3.1,3.8,4c-0.4,0.3-0.8,0.6-1.2,0.9c-0.8-1.2-1.9-2.4-3.4-3.8c-1.7,1.9-3.7,3.4-5.8,4.3
		c-0.5-0.7-0.8-1.1-1.1-1.3c1.9-0.6,3.6-1.5,4.9-2.8s2.2-3.1,2.5-5.3s0.5-4.1,0.4-5.7c0.8,0.2,1.4,0.3,1.9,0.4
		C80,119.5,79.8,120.9,79.6,123z M73.9,120c0.5,0.6,1.1,1.4,1.8,2.4c-0.4,0.3-0.8,0.6-1.2,0.9c-0.6-1-1.7-2.4-3.2-4.2
		c0.4-0.2,0.7-0.5,1.1-0.9C72.8,118.8,73.3,119.4,73.9,120z"/>
	<path fill="#010101" d="M53.8,17.8v2.8h3.8c0.9,0,1.7,0,2.5-0.1V22c-0.9,0-1.8-0.1-2.7-0.1h-3.7v6.8h5.3c0.7,0,1.4,0,2.3-0.1v1.4
		c-0.8,0-1.6-0.1-2.3-0.1H48.5c-0.7,0-1.5,0-2.4,0.1v-1.4c0.8,0,1.7,0.1,2.4,0.1h3.9V17.9c0-0.7,0-1.4-0.1-2.2h1.6
		C53.8,16.4,53.8,17.1,53.8,17.8z"/>
	<path fill="#010101" d="M48.8,44.6v-5.4c-0.8,0-1.6,0-2.3,0.1V38c0.8,0,1.7,0.1,2.5,0.1H50c0,0.8-0.1,1.5-0.1,2v4.2
		c0.9,1.2,2.7,1.8,5.3,1.8c2.6,0,4.6-0.1,6.1-0.3c-0.3,0.6-0.5,1.1-0.6,1.6h-4.4c-1.2,0-2.1-0.1-2.9-0.2c-0.8-0.1-1.4-0.3-2-0.5
		s-1-0.5-1.5-0.9c-0.5-0.4-1-0.3-1.6,0.2c-0.6,0.5-1.1,1-1.4,1.3c-0.3-0.4-0.7-0.8-1.1-1.3C47.4,45.3,48.3,44.8,48.8,44.6z
		 M49.1,36.1c-0.5-0.9-1.2-1.7-2-2.5l0.9-0.8c1.2,1.3,1.9,2.1,2.2,2.5L49.1,36.1z M53.9,43.9c-0.8,0.1-1.4,0.2-1.7,0.4l-0.7-1.4
		c0.5-0.2,0.9-0.7,1.4-1.5c0.5-0.8,0.9-1.8,1.1-3.1c-1.5,0-2.7,0-3.5,0.1v-1.3c0.8,0,2.6,0.1,5.2,0.1c2.6,0,4.3,0,5-0.1v1.3
		c-0.8,0-2.5-0.1-5.2-0.1c-0.1,0.5-0.4,1.1-0.8,1.9c-0.4,0.8-0.8,1.6-1.4,2.5c1.7-0.1,3.2-0.3,4.8-0.4c-0.3-0.6-0.8-1.2-1.3-1.9
		c0.4-0.2,0.7-0.4,1-0.7c0.8,1.1,1.8,2.4,2.8,4c-0.4,0.2-0.8,0.5-1.2,0.7c-0.2-0.4-0.5-0.8-0.7-1.1C56.4,43.6,54.8,43.8,53.9,43.9z
		 M59.6,34.7c-0.8,0-2.1-0.1-3.8-0.1c-1.7,0-3,0-3.9,0.1v-1.3c0.8,0,2.1,0.1,3.8,0.1s3,0,3.9-0.1V34.7z"/>
	<path fill="#010101" d="M51.9,51.1h3.7c0-0.4,0-0.9-0.1-1.6H57c0,0.5-0.1,1.1-0.1,1.6h1.8c0.8,0,1.7,0,2.5-0.1v1.1
		c-0.7,0-1.6-0.1-2.5-0.1h-1.8c0,0.3,0,0.7,0.1,1.3h-1.4v-1.3h-3.7v1.3h-1.4c0-0.6,0.1-1,0.1-1.3h-1.6c-0.9,0-1.8,0-2.8,0.1V51
		c1,0,1.9,0.1,2.8,0.1h1.6c0-0.4,0-0.9-0.1-1.5H52C51.9,50.2,51.9,50.6,51.9,51.1z M59.7,56.9V55h-12v2.1h-1.3
		c0-0.4,0.1-0.8,0.1-1.3c0-0.5,0-1.1-0.1-1.7h14.7c0,0.5-0.1,0.9-0.1,1.4c0,0.5,0,0.9,0.1,1.4H59.7z M59.4,62.6c0,0.7,0,1.4,0.1,2.2
		h-1.5V64h-8.5V65h-1.3c0-0.7,0.1-1.4,0.1-2.2c0-0.8,0-1.6-0.1-2.3h11.4C59.5,61.2,59.4,61.9,59.4,62.6z M58.1,57.8
		c0,0.6,0,1.2,0.1,1.7h-8.8c0-0.6,0.1-1.2,0.1-1.7c0-0.6,0-1.2-0.1-1.7h8.8C58.1,56.6,58.1,57.2,58.1,57.8z M58.1,63v-1.6h-8.5V63
		H58.1z M56.9,58.5v-1.5h-6.3v1.5H56.9z"/>
	<path fill="#010101" d="M47.5,73.9c0.6-0.2,1.2-0.7,1.8-1.4c0.6-0.7,1.1-1.4,1.5-2.1c-1.7,0-3,0-4,0.1v-1.3c0.9,0,2.5,0.1,4.7,0.1
		c0.5-1.1,0.9-1.9,1.1-2.6c0.5,0.3,1.1,0.5,1.6,0.7c-0.5,0.6-0.8,1.3-1.2,1.9h4.6c0.5,0,1.4,0,2.5-0.1v1.3c-0.9,0-1.7-0.1-2.5-0.1
		h-5.2c-0.5,0.8-1.3,1.9-2.5,3.5h3.8c0-0.8,0-1.7-0.1-2.6h1.5c0,0.8-0.1,1.6-0.1,2.6h2.3c0.9,0,1.8,0,2.6-0.1v1.3
		c-0.8,0-1.7-0.1-2.6-0.1h-2.3v2.5h3.8c0.8,0,1.8,0,2.8-0.1v1.4c-1,0-2-0.1-2.8-0.1h-3.8c0,1.4,0,2.6,0.1,3.4h-1.5
		c0-0.9,0.1-2,0.1-3.4h-4.6c-1,0-1.9,0-2.8,0.1v-1.4c0.9,0,1.8,0.1,2.8,0.1h4.6V75c-1.6,0-2.7,0-3.4,0.1s-1.3,0.2-2,0.3
		C47.9,74.8,47.7,74.3,47.5,73.9z"/>
	<path fill="#010101" d="M50,99.5h-1.2c0-1.2,0.1-2.3,0.1-3.5c-1,0.2-1.8,0.5-2.3,0.7c-0.1-0.5-0.3-1-0.5-1.4c0.5,0,1.4-0.2,2.8-0.5
		v-2.6c-0.5,0-1,0-1.4,0.1c-0.5,0-0.8,0.1-1.2,0.2l-0.5-1.2c0.4-0.3,0.7-0.8,0.9-1.6c0.2-0.7,0.5-1.4,0.7-2.1c-0.3,0-0.8,0-1.4,0.1
		v-1.2c0.6,0,1.1,0.1,1.7,0.1c0.2-1,0.4-2,0.5-2.8c0.2,0.1,0.7,0.2,1.5,0.4c-0.2,0.6-0.4,1.4-0.7,2.4c1,0,1.9,0,2.6-0.1v1.3
		c-0.8-0.1-1.7-0.1-2.9-0.1c-0.2,0.7-0.6,1.9-1.1,3.6h1.4c0-1.1,0-1.9-0.1-2.5h1.2c0,0.5-0.1,1.4-0.1,2.5c0.7,0,1.2,0,1.7-0.1v1.2
		c-0.5,0-1.1-0.1-1.7-0.1v2.4c0.8-0.2,1.4-0.3,1.8-0.4c-0.2,0.4-0.2,0.8-0.1,1.1c-0.6,0.1-1.1,0.2-1.7,0.4
		C49.9,97.4,49.9,98.6,50,99.5z M54,93.4c0.2-1,0.4-2.3,0.4-3.7H53v9.6h-1.2c0-0.9,0.1-1.7,0.1-2.3v-6c0-0.8,0-1.6-0.1-2.3h2.6V86
		c-1,0-1.9,0-2.6,0.1v-1.2c0.7,0,1.5,0.1,2.3,0.1h5.5l1.6-0.1v1.3c-0.6,0-1.6-0.1-3-0.1v2.6h2.9c0,0.6-0.1,1.6-0.1,2.9v6.4
		c0,0.6-0.3,0.9-0.7,1.1c-0.5,0.1-1,0.3-1.7,0.4c-0.2-0.6-0.4-1.1-0.5-1.6c0.9,0.1,1.4,0.1,1.6,0c0.2-0.1,0.3-0.3,0.4-0.6v-7.5h-1.7
		c0,0.8-0.1,1.5-0.1,2c0.8,1.7,1.4,2.8,1.7,3.4c-0.4,0.2-0.8,0.5-1.1,0.7c-0.1-0.5-0.4-1.4-0.9-2.8c-0.5,1.8-0.9,3.2-1.2,4
		c-0.4-0.3-0.8-0.6-1.2-0.8c0.4-0.5,0.8-1.3,1.1-2.4c0.3-1.1,0.5-2.5,0.6-4.3h-1.7l-0.1,1.6c0.3,0.4,0.7,1,1.3,1.9
		c-0.3,0.2-0.5,0.4-0.8,0.7c-0.2-0.5-0.4-1-0.6-1.4c-0.4,1.8-0.7,3.1-1,4c-0.3-0.3-0.7-0.6-1.1-0.8C53.5,95.2,53.8,94.4,54,93.4z
		 M57.1,88.6V86h-1.6v2.6H57.1z"/>
	<path fill="#010101" d="M52.4,108.6l-0.9,1.8h-0.7l0.7-1.8h-0.7v-1.5h1.6L52.4,108.6L52.4,108.6z"/>
	<path fill="#010101" d="M50.6,120.5c0,2.5,0,4.2,0.1,5h-1.6c0-0.8,0.1-2,0.1-3.7c-0.4,0.4-0.8,0.7-1.1,1.1c-0.4,0.4-0.7,0.7-1.1,1
		c-0.4-0.4-0.7-0.7-1-0.9c0.9-0.6,1.8-1.3,2.7-2.3c0.8-0.9,1.5-1.8,1.9-2.5c0.5,0.5,1,0.7,1.6,0.9C51.8,119.3,51.3,119.8,50.6,120.5
		z M54,130.2c-0.2,0.5-0.5,1-1,1.5c-0.5,0.5-1.2,0.9-2.1,1.2c-0.9,0.4-2.1,0.7-3.6,0.9c-0.1-0.5-0.4-1-0.9-1.6
		c1.3,0,2.4-0.2,3.2-0.3c0.8-0.2,1.5-0.5,2-0.8c0.5-0.4,0.8-0.8,1-1.2c0.2-0.5,0.4-1,0.5-1.7c0.5,0.1,1,0.2,1.6,0.2
		C54.4,129.1,54.2,129.7,54,130.2z M59,128.2c0,0.7,0,1.4,0.1,2.2h-1.6v-3.1h-7.2v3.1h-1.5c0-0.7,0.1-1.4,0.1-2.1
		c0-0.7,0-1.4-0.1-2.2h10.2C59,126.8,59,127.5,59,128.2z M55.7,121c0.2-0.1,0.7-0.4,1.6-0.7c0.8-0.4,1.6-0.8,2.3-1.4
		c0.3,0.5,0.6,0.9,0.9,1.3c-0.5,0.1-1.1,0.4-1.9,0.8c-0.8,0.4-1.7,0.8-2.8,1.2v1.1c0,0.4,0.3,0.5,0.9,0.5h2.2c0.5,0,0.9-0.1,1-0.3
		s0.2-0.6,0.2-1.3c0.5,0.3,1,0.5,1.5,0.7c-0.3,0.9-0.5,1.4-0.8,1.7c-0.3,0.2-0.6,0.3-0.9,0.3h-4c-1,0-1.6-0.5-1.6-1.3v-1.1
		c-0.9,0.4-1.7,0.6-2.3,0.8c-0.3-0.5-0.5-0.9-0.6-1.1c0.7-0.2,1.7-0.4,2.9-0.7c0-1.5,0-2.5-0.1-3.1h1.6
		C55.8,119,55.7,119.8,55.7,121z M57.6,132.5c-0.8-0.4-1.8-0.8-2.9-1.2c0.3-0.5,0.5-0.9,0.7-1.3c0.9,0.4,1.8,0.8,2.6,1.1
		c0.8,0.4,1.8,0.8,2.9,1.3c-0.3,0.4-0.6,0.8-0.8,1.3C59.3,133.3,58.5,132.9,57.6,132.5z"/>
	<path fill="#010101" d="M26.9,22.4c0.6-0.2,1.2-0.7,1.8-1.4s1.1-1.4,1.5-2.1c-1.7,0-3,0-4,0.1v-1.3c0.9,0,2.5,0.1,4.7,0.1
		c0.5-1.1,0.9-1.9,1.1-2.6c0.5,0.3,1.1,0.5,1.6,0.7c-0.5,0.6-0.8,1.3-1.2,1.9h4.6c0.5,0,1.4,0,2.5-0.1v1.3c-0.9,0-1.7-0.1-2.5-0.1
		h-5.2c-0.5,0.8-1.3,1.9-2.5,3.5h3.8c0-0.8,0-1.7-0.1-2.6h1.5c0,0.8-0.1,1.6-0.1,2.6h2.3c0.9,0,1.8,0,2.6-0.1v1.3
		c-0.8,0-1.7-0.1-2.6-0.1h-2.3v2.5H38c0.8,0,1.8,0,2.8-0.1v1.4c-1,0-2-0.1-2.8-0.1h-3.8c0,1.4,0,2.6,0.1,3.4h-1.5
		c0-0.9,0.1-2,0.1-3.4h-4.6c-1,0-1.9,0-2.8,0.1V26c0.9,0,1.8,0.1,2.8,0.1h4.6v-2.5c-1.6,0-2.7,0-3.4,0.1c-0.6,0-1.3,0.2-2,0.3
		C27.3,23.3,27.1,22.8,26.9,22.4z"/>
	<path fill="#010101" d="M28.3,40.3v4c1.1,1.1,3.2,1.7,6.2,1.7s5.2-0.1,6.6-0.4c-0.3,0.5-0.4,1.1-0.5,1.7c-3.6,0-6.1,0-7.6-0.1
		c-1.5-0.1-2.7-0.4-3.7-0.9s-1.6-0.5-1.9-0.2c-0.3,0.3-0.7,0.9-1.1,1.6c-0.4-0.5-0.8-0.8-1.2-1.1c0.7-0.6,1.4-1.2,2.1-1.7v-5.8
		c-0.4,0-0.9,0-1.7,0.1v-1.3c0.7,0,1.7,0.1,2.9,0.1C28.3,38.8,28.3,39.6,28.3,40.3z M29.1,35c-0.5,0.3-0.9,0.6-1.2,0.9
		c-0.3-0.7-0.9-1.6-1.7-2.7c0.4-0.3,0.7-0.5,1.1-0.8C28,33.6,28.6,34.4,29.1,35z M39.7,32.4c-0.6,0.7-1.3,1.4-2,2
		c-0.7,0.6-1.3,1.2-1.8,1.7h3.9c0,1-0.1,1.9-0.1,2.9v4.6c0,0.6-0.1,1-0.5,1.1c-0.4,0.2-0.9,0.3-1.6,0.5c-0.1-0.4-0.3-0.9-0.7-1.4
		c0.7,0,1.1-0.1,1.3-0.2c0.2-0.1,0.3-0.5,0.3-1.3h-3v2.8h-1.2v-2.8h-3v2.8h-1.2c0-1.5,0.1-3,0.1-4.4s0-3-0.1-4.6h4
		c-0.2-0.4-0.7-0.8-1.5-1.5c0.3-0.3,0.6-0.6,0.9-0.9c0.8,0.6,1.4,1.1,1.7,1.4c0.7-0.8,1.3-1.3,1.7-1.7h-4.3c-0.9,0-1.7,0-2.3,0.1
		v-1.2c0.7,0,1.4,0.1,2.2,0.1L39.7,32.4L39.7,32.4z M34.4,38.7v-1.5h-3v1.5H34.4z M34.4,41.4v-1.6h-3v1.6H34.4z M38.6,38.7v-1.5h-3
		v1.5H38.6z M38.6,41.4v-1.6h-3v1.6H38.6z"/>
	<path fill="#010101" d="M29.8,55.2c-0.2,0.4-0.5,0.8-0.8,1.3v6c0,0.6,0,1.5,0.1,2.7h-1.4c0-1.3,0.1-2.3,0.1-3v-4.3
		c-0.4,0.7-0.9,1.3-1.6,2c-0.3-0.5-0.6-0.8-0.9-1.1c1-1,1.8-1.9,2.4-2.8c0.6-0.9,1.1-1.7,1.6-2.5c0.5,0.3,1,0.6,1.6,0.9
		C30.3,54.5,30,54.8,29.8,55.2z M28.7,51.7c-0.6,0.9-1.4,1.9-2.4,3.1c-0.3-0.4-0.6-0.7-0.9-1c0.7-0.7,1.4-1.5,1.9-2.3s1-1.6,1.3-2.2
		c0.5,0.3,0.9,0.6,1.5,1C29.7,50.3,29.3,50.7,28.7,51.7z M38.7,55.1c0.8,0,1.6,0,2.3-0.1v1.3c-0.7,0-1.5-0.1-2.3-0.1h-0.9v7.3
		c0,0.5-0.1,0.9-0.5,1.1c-0.4,0.2-1.1,0.4-2.3,0.5c-0.1-0.5-0.3-1.1-0.7-1.6c0.8,0.1,1.3,0.1,1.6,0.1c0.3,0,0.5-0.2,0.5-0.7v-6.7
		h-2.7c-0.8,0-1.7,0-2.4,0.1V55c0.8,0,1.6,0.1,2.4,0.1L38.7,55.1L38.7,55.1z M37.6,50.5c0.8,0,1.6,0,2.3-0.1v1.3
		c-0.8,0-1.6-0.1-2.5-0.1H35c-1,0-1.8,0-2.5,0.1v-1.3c0.7,0,1.6,0.1,2.5,0.1H37.6z"/>
	<path fill="#010101" d="M39.2,73.6c0.2,0.5,0.2,0.9,0.1,1.3c-0.1,0.4-0.3,0.7-0.7,1c-0.3,0.2-0.7,0.3-1.2,0.3s-0.8-0.2-1.2-0.5
		c-0.4-0.4-0.5-0.7-0.6-1.2c0-0.4,0.1-0.8,0.3-1.1c0.2-0.3,0.5-0.6,1-0.7c0.5-0.2,0.9-0.1,1.4,0C38.8,72.8,39.1,73.1,39.2,73.6z
		 M38.2,75.3c0.4-0.2,0.6-0.6,0.5-1.1c0-0.5-0.2-0.8-0.6-1c-0.4-0.2-0.8-0.2-1.1,0.1c-0.4,0.2-0.5,0.6-0.5,1c0,0.5,0.2,0.8,0.6,1
		C37.4,75.6,37.8,75.6,38.2,75.3z"/>
</g>
</svg>
