<?xml version="1.0" encoding="utf-8"?>
<!-- Generator: Adobe Illustrator 18.1.1, SVG Export Plug-In . SVG Version: 6.00 Build 0)  -->
<svg version="1.1" id="图层_1" xmlns="http://www.w3.org/2000/svg" xmlns:xlink="http://www.w3.org/1999/xlink" x="0px" y="0px"
	 width="138" height="100" enable-background="new 0 0 138 100" xml:space="preserve">
<rect x="-0.1" y="9.8" fill="#E51E25" width="137.6" height="78.4"/>
<rect x="3.3" y="13.4" fill="#FFFFFF" width="130" height="71.4"/>
<g>
	<path fill="#010101" d="M41.7,25.5c-0.3,1-0.6,1.9-0.8,2.5c0.7,0.8,1.2,1.6,1.3,2.5c0.1,0.9,0,1.5-0.3,1.9
		c-0.4,0.4-0.9,0.7-1.5,0.9c-0.1-0.4-0.3-0.8-0.6-1.2c0.7-0.1,1.1-0.3,1.3-0.7c0.2-0.4,0.2-0.9-0.1-1.5c-0.3-0.6-0.6-1.2-1.1-1.9
		c0.4-1.3,0.8-2.6,1.1-3.8h-1.4V36h-1.1c0-0.7,0.1-1.7,0.1-2.9v-6.9c0-1.1,0-2-0.1-2.7h3.9C42.2,23.8,42,24.5,41.7,25.5z M44,30.2
		v3.6c0.3,0.4,0.8,0.7,1.7,0.9c0.9,0.2,1.6,0.2,2.2,0.2c0.6,0,1.2,0,1.8,0c0.6,0,1.3-0.1,2.1-0.3c-0.2,0.3-0.4,0.8-0.5,1.3
		c-1.8,0.1-3.2,0.1-4.3,0c-1.1-0.1-1.8-0.2-2.1-0.4c-0.3-0.2-0.6-0.3-0.9-0.5c-0.3-0.2-0.6-0.2-1,0.1c-0.4,0.3-0.7,0.6-0.9,0.9
		c-0.3-0.4-0.6-0.7-0.9-0.9c0.6-0.5,1.2-0.9,1.9-1.3v-4.6h-0.9v-0.9H44C44,28.7,44,29.4,44,30.2z M44,26.1c-0.3,0-0.7,0.1-1,0.2
		c-0.1-0.6-0.2-1.4-0.5-2.4c0.3,0,0.7-0.1,1-0.2C43.7,24.3,43.8,25.1,44,26.1z M49.2,24.9c0.8,0,1.5,0,2.1-0.1v0.9
		c-0.4,0-0.9-0.1-1.5-0.1h-1.2c-0.4,0.4-0.8,0.8-1.1,1.1c0.6,0.7,1,1.4,1.2,1.9c0.8-0.8,1.2-1.4,1.4-1.7c0.4,0.3,0.8,0.6,1.1,0.8
		c-0.3,0.2-0.6,0.4-0.9,0.8c-0.4,0.3-0.6,0.6-0.8,0.8c0.3,0.3,0.6,0.7,1,1.1c0.4,0.4,0.8,0.9,1.2,1.4c-0.3,0.2-0.7,0.5-0.9,0.8
		c-0.5-0.9-1-1.7-1.7-2.4c0.1,0.9,0.1,1.7,0.1,2.3c0,0.6-0.2,1.1-0.6,1.3c-0.4,0.2-0.9,0.4-1.7,0.6c0-0.4-0.2-0.9-0.5-1.3
		c0.7,0,1.1,0,1.4-0.1s0.3-0.3,0.4-0.5c0-0.3,0-0.9,0-1.8c-0.3,0.4-0.8,0.8-1.2,1.2c-0.4,0.4-0.9,0.8-1.5,1.2
		c-0.2-0.3-0.5-0.6-0.9-0.9c0.6-0.3,1.2-0.6,1.7-1c0.5-0.4,1.1-1.1,1.7-1.9c-0.1-0.3-0.2-0.5-0.3-0.6c-0.7,0.7-1.5,1.2-2.3,1.7
		c-0.2-0.3-0.5-0.5-0.8-0.8c0.5-0.2,0.9-0.4,1.3-0.8c0.4-0.3,0.8-0.7,1.2-1.1c-0.1-0.2-0.2-0.3-0.3-0.4c-0.6,0.3-1.2,0.7-1.7,0.9
		c-0.2-0.3-0.4-0.6-0.9-0.9c0.8-0.2,1.4-0.4,1.9-0.7c0.5-0.3,0.9-0.6,1.3-0.9c-1,0-1.9,0-2.6,0.1v-0.9c0.5,0,1.1,0.1,1.8,0.1h1.7
		c0.4-1,0.7-1.8,0.7-2.3c0.4,0.2,0.8,0.3,1.2,0.5C49.8,23.3,49.5,24,49.2,24.9z M47.4,24.1c-0.5,0.2-0.8,0.4-1,0.5
		c-0.2-0.3-0.4-0.8-0.9-1.3c0.3-0.1,0.6-0.3,0.9-0.5C46.7,23.2,47.1,23.7,47.4,24.1z"/>
	<path fill="#010101" d="M52.9,28.3c0.6,0,1.2,0.1,1.6,0.1h1.2c0,0.6-0.1,1.3-0.1,2v3.3c1,0.9,2.7,1.4,5.1,1.4
		c2.4,0,4.3-0.1,5.6-0.3c-0.2,0.5-0.3,0.9-0.5,1.4c-1.5,0-2.8,0.1-3.9,0c-1.1,0-2-0.1-2.8-0.1c-0.7-0.1-1.3-0.2-1.8-0.4
		s-0.9-0.4-1.4-0.8c-0.5-0.3-0.9-0.3-1.2,0c-0.3,0.3-0.7,0.8-1.1,1.3c-0.3-0.3-0.7-0.6-1-0.9c0.6-0.4,1.2-0.9,1.9-1.6v-4.3
		c-0.6,0-1.1,0-1.7,0.1L52.9,28.3L52.9,28.3z M53.9,23.7c0.5-0.1,0.9-0.2,1.2-0.3c0.3,0.8,0.5,1.6,0.8,2.6c-0.4,0.1-0.8,0.2-1.2,0.4
		C54.5,25.6,54.2,24.8,53.9,23.7z M56.8,24.8c0.6,0,2.3,0.1,5.3,0.1c0.3-0.7,0.6-1.5,0.9-2.3c0.5,0.2,0.9,0.3,1.3,0.5
		c-0.3,0.3-0.6,0.9-1,1.8c1.5,0,2.6,0,3.3-0.1v1c-0.7,0-2.1-0.1-4.4-0.1L61.8,27h3.4c0,0.9-0.1,2.1-0.1,3.6c0,1.5,0,2.6,0.1,3.3
		h-7.2C58,33.1,58,32,58,30.6s0-2.6-0.1-3.6h2.6l0.3-1.2c-2.1,0-3.4,0-4,0.1L56.8,24.8L56.8,24.8z M60.5,24.2
		c-0.3,0.2-0.6,0.4-0.9,0.6c-0.3-0.5-0.7-1-1.2-1.6c0.3-0.2,0.6-0.4,0.9-0.6C59.7,23.2,60.2,23.7,60.5,24.2z M63.9,29v-1.1h-4.8V29
		H63.9z M63.9,31v-1.1h-4.8V31H63.9z M63.9,33v-1.2h-4.8V33H63.9z"/>
	<path fill="#010101" d="M71.1,26.8l-0.9,1c-0.3,0.3-0.8,0.8-1.4,1.3c-0.3-0.2-0.6-0.5-1-0.8c0.7-0.4,1.4-0.9,1.9-1.5
		c0.5-0.6,0.9-1.1,1.1-1.5h-0.5c-0.6,0-1.3,0-2,0.1v-1c0.7,0,1.4,0.1,2,0.1h0.8c0-0.7,0-1.4-0.1-1.9h1.2c0,0.5-0.1,1.1-0.1,1.9
		c0.7,0,1.4,0,2-0.1v1c-0.7,0-1.3-0.1-2-0.1v2.7c0,0.3,0,0.6,0.1,1h-1.2c0-0.2,0.1-0.5,0.1-1V26.8z M69.6,34.2
		c0.6-0.3,1.2-0.8,1.9-1.4c0.2,0.3,0.4,0.6,0.8,1c-0.4,0.2-0.9,0.5-1.4,0.8c-0.5,0.3-1.2,0.7-2.1,1.3c-0.2-0.3-0.4-0.7-0.7-1
		C68.5,34.8,69,34.5,69.6,34.2z M79.2,31.5c0.4,0,0.9,0,1.3-0.1v1c-0.5,0-0.9-0.1-1.3-0.1h-3.9V35c0,0.6-0.3,0.9-0.7,1.1
		c-0.5,0.2-1,0.3-1.6,0.3c-0.1-0.4-0.3-0.8-0.5-1.2c0.8,0,1.3,0,1.4,0c0.2-0.1,0.2-0.3,0.2-0.6v-2.1h-4.6c-0.3,0-0.7,0-1.1,0.1v-1
		c0.4,0,0.8,0.1,1.1,0.1L79.2,31.5L79.2,31.5z M77.7,29.6c0.3,0,0.8,0,1.4-0.1v1c-0.7,0-1.1-0.1-1.4-0.1h-6.4c-0.3,0-0.7,0-1.3,0.1
		v-1c0.5,0,0.9,0.1,1.3,0.1H77.7z M74.3,27.2c-0.2,0.2-0.4,0.5-0.8,0.8c-0.4-0.5-0.9-0.9-1.3-1.3c0.3-0.3,0.5-0.5,0.6-0.8
		C73.4,26.3,73.8,26.8,74.3,27.2z M76.7,24.7c0-0.8,0-1.4-0.1-1.8h1.2c0,0.5-0.1,1.1-0.1,1.8h1.2c0.5,0,1.1,0,1.7-0.1v1
		c-0.5,0-1.1-0.1-1.6-0.1h-0.8c0.9,1.2,1.9,2.1,3,2.6c-0.5,0.3-0.8,0.6-0.9,0.9c-0.5-0.4-1-0.9-1.5-1.4c-0.5-0.5-0.8-0.9-1-1.1v1.4
		c0,0.3,0,0.7,0.1,1.3h-1.2c0-0.4,0.1-0.8,0.1-1.2v-1.4c-0.3,0.4-0.6,0.8-0.8,1.1c-0.3,0.3-0.8,0.8-1.6,1.5
		c-0.2-0.3-0.5-0.5-0.9-0.7c0.8-0.5,1.4-1,1.9-1.5c0.5-0.5,0.8-1,1-1.4h-0.6c-0.3,0-0.7,0-1,0.1v-1c0.4,0,0.9,0.1,1.4,0.1H76.7z
		 M78.7,33.7c0.5,0.3,1.2,0.7,1.9,1.2c-0.3,0.3-0.5,0.7-0.7,1c-0.7-0.5-1.8-1.2-3.3-2c0.3-0.3,0.5-0.7,0.6-0.9
		C77.7,33.2,78.2,33.4,78.7,33.7z"/>
	<path fill="#010101" d="M86.2,28.3v6h3v-8.9c0-0.7,0-1.5-0.1-2.2h1.3c0,0.7-0.1,1.4-0.1,2.2v2h2.3c0.7,0,1.4,0,2.2-0.1v1.2
		c-0.8,0-1.5-0.1-2.2-0.1h-2.3v5.9h3.2c0.8,0,1.6,0,2.4-0.1v1.2c-0.8,0-1.6-0.1-2.4-0.1h-8.4c-0.8,0-1.6,0-2.4,0.1v-1.2
		c0.6,0,1.4,0.1,2.3,0.1v-6c0-0.7,0-1.3-0.1-2h1.3C86.2,27,86.2,27.6,86.2,28.3z"/>
	<path fill="#010101" d="M99.4,22.8h1.3c-0.1,0.8-0.1,1.8-0.1,2.9c0.5,0,1,0,1.6-0.1v1c-0.6,0-1.1-0.1-1.6-0.1v2.6
		c0.6-0.3,1-0.5,1.4-0.8c0,0.3,0,0.7,0.1,1.1l-1.5,0.7v4.5c0,0.5-0.2,0.8-0.5,0.9c-0.3,0.2-0.9,0.3-1.7,0.4
		c-0.1-0.4-0.3-0.9-0.6-1.3c0.8,0,1.3,0,1.4-0.1c0.2-0.1,0.3-0.3,0.3-0.7v-3.4c-0.7,0.3-1.3,0.6-1.6,0.8c-0.2-0.5-0.3-0.9-0.6-1.2
		c0.7-0.2,1.4-0.4,2.2-0.7v-3c-0.8,0-1.5,0-2,0.1v-1c0.5,0,1.1,0.1,2,0.1C99.4,24.6,99.4,23.7,99.4,22.8z M103.1,28.2h1.2
		c0,0.4-0.1,0.9-0.1,1.4L106,29c0-0.8,0-1.6-0.1-2.4h1.2c0,0.7-0.1,1.4-0.1,2.1l3.2-0.9c0,0.3-0.1,1-0.1,2.1s-0.1,1.7-0.2,2
		c-0.1,0.3-0.3,0.5-0.4,0.6c-0.2,0.1-0.6,0.2-1.3,0.3c-0.2-0.4-0.3-0.8-0.6-1.2c0.5,0,0.9,0,1.1-0.1s0.3-0.2,0.3-0.5l0.1-1.9l-2,0.6
		v1.9c0,0.5,0,1.1,0.1,1.9h-1.2c0-0.8,0.1-1.4,0.1-1.9v-1.6l-1.7,0.5v3.5c0,0.5,0.3,0.8,0.8,0.8h3.2c0.6,0,0.9,0,1.1-0.2
		c0.2-0.2,0.3-0.6,0.4-1.3c0.4,0.3,0.9,0.4,1.3,0.5c-0.3,0.9-0.6,1.4-0.8,1.6c-0.3,0.2-0.7,0.3-1.3,0.3h-4.3c-1,0-1.4-0.4-1.4-1.2
		V31c-0.5,0.1-0.9,0.3-1.3,0.4l-0.3-1.1c0.5-0.1,1.1-0.2,1.6-0.3C103.2,29.2,103.2,28.6,103.1,28.2z M104.9,23.8
		c-0.1,0.3-0.3,0.6-0.4,0.9h4c0.6,0,1.4,0,2.2-0.1v1.2c-0.9,0-1.6-0.1-2.3-0.1h-4.3c-0.2,0.5-0.6,1.3-1.1,2.3
		c-0.3-0.2-0.8-0.3-1.2-0.5c0.3-0.3,0.7-1,1.2-2c0.5-1,0.8-2.1,1-3c0.5,0.2,1,0.3,1.3,0.4C105.2,23.3,105,23.6,104.9,23.8z"/>
	<path fill="#010101" d="M116.1,27.7c-0.2,0.3-0.4,0.7-0.7,1.2v5.2c0,0.5,0,1.3,0.1,2.3h-1.2c0-1.2,0.1-2,0.1-2.6v-3.7
		c-0.3,0.6-0.8,1.2-1.4,1.7c-0.3-0.4-0.5-0.7-0.8-1c0.9-0.9,1.6-1.7,2.1-2.4c0.5-0.8,0.9-1.5,1.3-2.2c0.4,0.2,0.8,0.5,1.3,0.8
		C116.5,27.2,116.3,27.4,116.1,27.7z M115.1,24.7c-0.5,0.8-1.2,1.7-2.1,2.6c-0.2-0.3-0.5-0.6-0.8-0.9c0.6-0.6,1.2-1.3,1.7-2
		c0.5-0.7,0.9-1.3,1.1-1.9c0.4,0.2,0.8,0.5,1.3,0.9C116,23.5,115.6,23.9,115.1,24.7z M123.8,27.7c0.7,0,1.4,0,2-0.1v1.2
		c-0.6,0-1.3-0.1-2-0.1h-0.8V35c0,0.5-0.1,0.8-0.4,0.9c-0.3,0.2-1,0.3-1.9,0.4c-0.1-0.5-0.3-0.9-0.6-1.4c0.7,0.1,1.1,0.1,1.4,0.1
		c0.3,0,0.4-0.2,0.5-0.6v-5.8h-2.3c-0.7,0-1.4,0-2.1,0.1v-1.1c0.7,0,1.4,0.1,2.1,0.1H123.8z M122.8,23.7c0.7,0,1.3,0,2-0.1v1.1
		c-0.7,0-1.4-0.1-2.1-0.1h-2.1c-0.9,0-1.6,0-2.2,0.1v-1.1c0.6,0,1.4,0.1,2.2,0.1H122.8z"/>
	<path fill="#010101" d="M11.1,42.7c0-0.5,0-1-0.1-1.5h1.2c-0.1,0.5-0.1,1-0.1,1.6V44c1.2,0,2.1,0,2.7-0.1v1c-0.6,0-1.5-0.1-2.7-0.1
		v2.5h2c0,0.7-0.1,1.5-0.1,2.6c0,1.1,0,1.9,0.1,2.7H13v-0.8h-2.8v1.2H9.1c0-0.7,0.1-1.7,0.1-2.8c0-1.2,0-2.1-0.1-2.8h2v-2.5
		c-1.2,0-2.1,0-2.7,0.1v-1C9,44,9.9,44,11.1,44V42.7z M13,50.9v-2.6h-2.8v2.6H13z M17.9,41.9c-0.2,0.4-0.4,0.9-0.6,1.5h2.7
		c0.9,0,1.6,0,2.1-0.1v1c-0.5,0-1-0.1-1.6-0.1c-0.1,1-0.2,2-0.5,3.1c-0.2,1.1-0.7,2.2-1.3,3.3c0.4,0.5,0.9,0.9,1.6,1.3
		c0.7,0.4,1.2,0.7,1.7,0.9c-0.3,0.2-0.6,0.6-0.9,1c-1.2-0.7-2.2-1.5-3.1-2.5c-0.5,0.5-1.1,1-1.8,1.4c-0.7,0.5-1.3,0.8-1.8,1
		c-0.2-0.4-0.5-0.7-0.8-0.9c1.5-0.7,2.8-1.4,3.6-2.4c-0.4-0.7-0.8-1.5-1-2.4s-0.4-1.6-0.6-2.4c-0.3,0.4-0.5,0.7-0.7,1
		c-0.2-0.3-0.5-0.5-0.9-0.7c0.5-0.5,1-1.2,1.6-2.3c0.6-1.1,1-2.2,1.2-3.4c0.4,0.2,0.8,0.4,1.3,0.5C18.2,41.2,18,41.5,17.9,41.9z
		 M16.8,45.5c0.1,0.9,0.2,1.7,0.5,2.5s0.5,1.4,0.8,1.9c0.4-0.6,0.7-1.4,0.9-2.5c0.2-1,0.3-2.1,0.4-3.1h-2.6
		c-0.3,0.5-0.5,0.9-0.8,1.3L16.8,45.5z"/>
	<path fill="#010101" d="M27.3,43.4c-0.3,0.9-0.6,1.7-0.8,2.4c0.7,0.9,1.2,1.6,1.3,2.1c0.2,0.5,0.2,0.9,0.2,1.4
		c0,0.5-0.3,0.8-0.7,1.1c-0.5,0.3-1,0.4-1.6,0.6c0-0.4-0.2-0.8-0.4-1.2c0.8,0,1.3-0.1,1.5-0.3c0.2-0.2,0.3-0.5,0.1-0.9
		c-0.1-0.4-0.3-0.8-0.6-1.2c-0.3-0.4-0.6-0.8-1-1.3c0.2-0.5,0.4-1.1,0.6-1.7c0.2-0.6,0.4-1.2,0.5-1.9h-1.8v11.5h-1.2
		c0-0.9,0.1-1.9,0.1-3.3V44c0-0.9,0-1.6-0.1-2.4H28C27.9,41.9,27.6,42.5,27.3,43.4z M35.6,47.5v1.2c0,0.5,0,1,0.1,1.5h-2.9v1.1h2.1
		c0.6,0,1.3,0,2-0.1v0.9c-0.6,0-1.2-0.1-2-0.1h-2.1c0,0.8,0,1.4,0.1,1.9h-1.2c0-0.5,0.1-1.1,0.1-1.9h-1.6c-0.9,0-1.7,0-2.4,0.1v-0.9
		c0.7,0,1.5,0.1,2.4,0.1h1.6v-1.1h-2.8c0-0.4,0.1-0.9,0.1-1.6v-1.2c0-0.5,0-1-0.1-1.4h6.8C35.7,46.7,35.6,47.2,35.6,47.5z M33,44.3
		c0.1-0.2,0.2-0.5,0.2-0.7c0-0.3,0.1-0.5,0.1-0.7H31c-0.9,0-1.6,0-2.3,0.1V42c0.7,0,1.4,0.1,2.2,0.1H34c0.8,0,1.5,0,2.2-0.1v0.9
		c-0.7,0-1.4-0.1-2.2-0.1h-0.5c0.3,0.1,0.6,0.3,1.1,0.4c-0.2,0.3-0.4,0.7-0.5,1H35c0.7,0,1.4,0,2-0.1v0.9c-0.6,0-1.3-0.1-2-0.1h-4.9
		c-0.7,0-1.4,0-2.1,0.1v-0.9c0.4,0,0.9,0.1,1.5,0.1h0.7c-0.1-0.3-0.2-0.7-0.3-1c0.3,0,0.7-0.1,1-0.2c0.1,0.4,0.3,0.8,0.5,1.2
		L33,44.3L33,44.3z M34.5,47.7v-0.8H30v0.8H34.5z M34.5,49.4v-0.8H30v0.8H34.5z M31.3,40.7l1.2-0.3c0.2,0.4,0.3,0.8,0.5,1.3
		c-0.4,0.1-0.8,0.2-1.2,0.3C31.7,41.5,31.5,41.1,31.3,40.7z"/>
	<path fill="#010101" d="M39.5,46.8c0.5-0.2,1-0.6,1.5-1.3c0.5-0.6,0.9-1.3,1.3-1.8c-1.4,0-2.6,0-3.5,0.1v-1.1
		c0.8,0,2.2,0.1,4.1,0.1c0.5-0.9,0.8-1.7,0.9-2.3c0.5,0.2,0.9,0.4,1.3,0.6c-0.4,0.5-0.7,1.1-1,1.7h3.9c0.5,0,1.2,0,2.1-0.1v1.2
		c-0.8,0-1.5-0.1-2.1-0.1h-4.5c-0.4,0.7-1.2,1.7-2.2,3h3.3c0-0.7,0-1.5-0.1-2.3h1.3c0,0.7-0.1,1.4-0.1,2.3h2c0.8,0,1.5,0,2.3-0.1
		v1.2c-0.7,0-1.5-0.1-2.3-0.1h-2V50h3.3c0.7,0,1.5,0,2.4-0.1v1.2c-0.9,0-1.7-0.1-2.4-0.1h-3.3c0,1.2,0,2.2,0.1,2.9h-1.3
		c0-0.8,0.1-1.8,0.1-2.9h-4c-0.9,0-1.7,0-2.4,0.1v-1.2c0.8,0,1.6,0.1,2.4,0.1h4v-2.2c-1.4,0-2.4,0-2.9,0.1c-0.5,0-1.1,0.1-1.7,0.3
		C39.8,47.6,39.7,47.1,39.5,46.8z"/>
	<path fill="#010101" d="M56.4,54h-1c0-1,0.1-2,0.1-3c-0.9,0.2-1.6,0.4-2,0.6c-0.1-0.4-0.3-0.8-0.4-1.2c0.4,0,1.2-0.2,2.4-0.4v-2.3
		c-0.4,0-0.8,0-1.2,0.1c-0.4,0-0.7,0.1-1,0.2l-0.4-1c0.3-0.3,0.6-0.7,0.8-1.4c0.2-0.6,0.4-1.3,0.6-1.8c-0.3,0-0.7,0-1.2,0.1v-1.1
		c0.5,0,1,0.1,1.4,0.1c0.2-0.9,0.3-1.7,0.4-2.4c0.2,0.1,0.6,0.2,1.3,0.3c-0.2,0.5-0.4,1.2-0.6,2.1c0.9,0,1.6,0,2.3-0.1v1.1
		c-0.7-0.1-1.5-0.1-2.5-0.1c-0.2,0.6-0.5,1.6-1,3.1h1.2c0-0.9,0-1.7-0.1-2.2h1c0,0.5-0.1,1.2-0.1,2.2c0.6,0,1.1,0,1.4-0.1v1
		c-0.4,0-0.9-0.1-1.4-0.1v2.1c0.7-0.2,1.2-0.3,1.6-0.3c-0.2,0.3-0.2,0.7-0.1,0.9c-0.5,0.1-1,0.2-1.4,0.3
		C56.4,52.2,56.4,53.3,56.4,54z M59.9,48.7c0.2-0.9,0.3-1.9,0.4-3.2h-1.2v8.3h-1c0-0.8,0.1-1.4,0.1-2v-5.2c0-0.7,0-1.4-0.1-2h2.3
		v-2.3c-0.9,0-1.6,0-2.3,0.1v-1c0.6,0,1.3,0.1,2,0.1h4.8l1.4-0.1v1.1c-0.5,0-1.4-0.1-2.6-0.1v2.3h2.5c0,0.5-0.1,1.4-0.1,2.5v5.5
		c0,0.5-0.3,0.8-0.6,0.9c-0.4,0.1-0.9,0.2-1.5,0.3c-0.2-0.5-0.3-1-0.5-1.3c0.8,0.1,1.2,0.1,1.4,0c0.1-0.1,0.2-0.2,0.3-0.6v-6.5h-1.5
		c0,0.7-0.1,1.3-0.1,1.7c0.7,1.5,1.2,2.4,1.4,2.9c-0.3,0.2-0.7,0.4-0.9,0.6c-0.1-0.5-0.4-1.3-0.8-2.4c-0.4,1.6-0.8,2.7-1,3.5
		c-0.3-0.3-0.7-0.5-1-0.7c0.3-0.5,0.7-1.1,0.9-2.1c0.3-0.9,0.5-2.1,0.6-3.7h-1.4L61.1,47c0.3,0.3,0.6,0.9,1.1,1.7
		c-0.2,0.2-0.5,0.4-0.7,0.6c-0.2-0.4-0.4-0.8-0.5-1.2c-0.3,1.6-0.6,2.7-0.9,3.4c-0.3-0.3-0.6-0.5-0.9-0.7
		C59.5,50.3,59.7,49.6,59.9,48.7z M62.6,44.6v-2.3h-1.3v2.3H62.6z"/>
	<path fill="#010101" d="M77,52.3l-0.8,1.6h-0.6l0.6-1.6h-0.6v-1.3h1.3L77,52.3L77,52.3z"/>
	<path fill="#010101" d="M85.9,44.6l-0.9,1c-0.3,0.3-0.8,0.8-1.4,1.3c-0.3-0.2-0.6-0.5-1-0.8c0.7-0.4,1.4-0.9,1.9-1.5
		c0.5-0.6,0.9-1.1,1.1-1.5h-0.5c-0.6,0-1.3,0-2,0.1v-1c0.7,0,1.4,0.1,2,0.1h0.8c0-0.7,0-1.4-0.1-1.9h1.2c0,0.5-0.1,1.1-0.1,1.9
		c0.7,0,1.4,0,2-0.1v1c-0.7,0-1.3-0.1-2-0.1v2.7c0,0.3,0,0.6,0.1,1h-1.2c0-0.2,0.1-0.5,0.1-1V44.6z M84.4,52
		c0.6-0.3,1.2-0.8,1.9-1.4c0.2,0.3,0.4,0.6,0.8,1c-0.4,0.2-0.9,0.5-1.4,0.8s-1.2,0.7-2.1,1.3c-0.2-0.3-0.4-0.7-0.7-1
		C83.4,52.6,83.9,52.3,84.4,52z M94,49.3c0.4,0,0.9,0,1.3-0.1v1c-0.5,0-0.9-0.1-1.3-0.1h-3.9v2.6c0,0.6-0.3,0.9-0.7,1.1
		c-0.5,0.2-1,0.3-1.6,0.3c-0.1-0.4-0.3-0.8-0.5-1.2c0.8,0,1.3,0,1.4,0c0.2-0.1,0.2-0.3,0.2-0.6v-2.1h-4.6c-0.3,0-0.7,0-1.1,0.1v-1
		c0.4,0,0.8,0.1,1.1,0.1H94z M92.5,47.3c0.3,0,0.8,0,1.4-0.1v1c-0.7,0-1.1-0.1-1.4-0.1h-6.4c-0.3,0-0.7,0-1.3,0.1v-1
		c0.5,0,0.9,0.1,1.3,0.1H92.5z M89.1,45c-0.2,0.2-0.4,0.5-0.8,0.8c-0.4-0.5-0.9-0.9-1.3-1.3c0.3-0.3,0.5-0.5,0.6-0.8
		C88.2,44.1,88.7,44.5,89.1,45z M91.6,42.5c0-0.8,0-1.4-0.1-1.8h1.2c0,0.5-0.1,1.1-0.1,1.8h1.2c0.5,0,1.1,0,1.7-0.1v1
		c-0.5,0-1.1-0.1-1.6-0.1H93c0.9,1.2,1.9,2.1,3,2.6c-0.5,0.3-0.8,0.6-0.9,0.9c-0.5-0.4-1-0.9-1.5-1.4c-0.5-0.5-0.8-0.9-1-1.1v1.4
		c0,0.3,0,0.7,0.1,1.3h-1.2c0-0.4,0.1-0.8,0.1-1.2v-1.4c-0.3,0.4-0.6,0.8-0.8,1.1c-0.3,0.3-0.8,0.8-1.6,1.5
		c-0.2-0.3-0.5-0.5-0.9-0.7c0.8-0.5,1.4-1,1.9-1.5c0.5-0.5,0.8-1,1-1.4h-0.6c-0.3,0-0.7,0-1,0.1v-1c0.4,0,0.9,0.1,1.4,0.1H91.6z
		 M93.5,51.5c0.5,0.3,1.2,0.7,1.9,1.2c-0.3,0.3-0.5,0.7-0.7,1c-0.7-0.5-1.8-1.2-3.3-2c0.3-0.3,0.5-0.7,0.6-0.9
		C92.5,50.9,93,51.2,93.5,51.5z"/>
	<path fill="#010101" d="M101,46.1v6h3v-8.9c0-0.7,0-1.5-0.1-2.2h1.3c0,0.7-0.1,1.4-0.1,2.2v2h2.3c0.7,0,1.4,0,2.2-0.1v1.2
		c-0.8,0-1.5-0.1-2.2-0.1h-2.3V52h3.2c0.8,0,1.6,0,2.4-0.1v1.2c-0.8,0-1.6-0.1-2.4-0.1h-8.4c-0.8,0-1.6,0-2.4,0.1V52
		c0.6,0,1.4,0.1,2.3,0.1v-6c0-0.7,0-1.3-0.1-2h1.3C101,44.7,101,45.4,101,46.1z"/>
	<path fill="#010101" d="M114.3,50c0.3,0.5,0.8,0.9,1.3,1.2v-4.5c-1.2,0-2.2,0-2.9,0.1v-0.9c0.7,0,1.6,0.1,2.6,0.1v-2.2
		c-0.9,0-1.6,0-2.1,0.1v-0.9c0.6,0,1.3,0.1,2.1,0.1c0-0.8,0-1.5-0.1-2.1h1.1c0,0.6-0.1,1.3-0.1,2.1c0.7,0,1.3,0,1.9-0.1v0.9
		c-0.6,0-1.2-0.1-1.9-0.1v2.2c0.6,0,1.3,0,2-0.1v0.9c-0.7,0-1.2-0.1-1.7-0.1v2c0.4,0,0.9,0,1.4-0.1v0.9c-0.5,0-1-0.1-1.4-0.1v2.4
		c1.2,0.5,2.7,0.8,4.6,0.9c1.9,0,3.3,0,4.3-0.2c-0.3,0.5-0.4,0.9-0.5,1.2c-1.4,0-2.7,0-3.9,0c-1.2,0-2.2-0.1-3-0.3
		c-0.9-0.2-1.6-0.5-2.3-0.8c-0.7-0.3-1.2-0.8-1.7-1.4c-0.3,1.1-0.6,2-1,2.7c-0.3-0.3-0.6-0.5-0.8-0.6c0.3-0.7,0.6-1.3,0.7-1.8
		c0.1-0.6,0.2-1.1,0.3-1.7c0.1-0.6,0.1-1.1,0.1-1.6c0.4,0.2,0.7,0.3,1,0.3C114.4,48.8,114.3,49.4,114.3,50z M122.1,42.2v1.2
		c1.2,0,2.2,0,2.9-0.1v0.9c-0.7,0-1.7-0.1-2.9-0.1c0,0.4,0.1,1,0.2,1.9c0.1,0.9,0.2,1.6,0.3,2.2c0.5-1,0.8-2.1,1-3.1
		c0.3,0.2,0.7,0.4,1,0.6c-0.2,0.2-0.4,0.7-0.6,1.3s-0.5,1.4-0.9,2.3c0.2,0.4,0.4,0.7,0.7,1c0.3,0.3,0.5-0.1,0.7-1.1
		c0.3,0.3,0.6,0.6,0.9,0.7c-0.3,1-0.7,1.6-1.1,1.8c-0.4,0.2-1-0.3-1.9-1.6c-0.5,0.7-1.1,1.3-1.7,1.9c-0.3-0.3-0.6-0.5-0.9-0.6
		c0.3-0.2,0.7-0.5,1.1-0.9c0.4-0.3,0.7-0.8,0.9-1.3c-0.3-1-0.6-2.7-0.8-5.2h-1.4v4.9c0.3-0.2,0.7-0.5,1.1-0.9c0.1,0.3,0.2,0.7,0.3,1
		c-0.3,0.2-0.6,0.5-1,0.8c-0.4,0.3-0.8,0.6-1.1,0.9c-0.2-0.3-0.3-0.6-0.6-0.9c0.2-0.2,0.3-0.4,0.3-0.8v-4c0-0.5,0-1.1-0.1-1.8h2.4
		c0-1-0.1-1.9-0.1-2.6c0.4,0.1,0.8,0.2,1.2,0.2C122.1,41.5,122.1,41.8,122.1,42.2z M124.9,42.4c-0.2,0.2-0.4,0.4-0.6,0.7
		c-0.5-0.5-1-1-1.5-1.3c0.2-0.2,0.4-0.4,0.6-0.6C123.7,41.4,124.2,41.8,124.9,42.4z"/>
	<path fill="#010101" d="M11.2,60.6c-0.4,0.6-0.9,1.4-1.5,2.3c0.9,0,1.6-0.1,1.9-0.1c0.3-0.6,0.7-1.2,0.9-1.9
		c0.4,0.3,0.8,0.5,1.3,0.6c-0.4,0.4-0.8,0.9-1.2,1.6c-0.4,0.7-1.1,1.8-2.1,3.4c1-0.1,2-0.2,2.8-0.2c-0.1,0.4-0.2,0.7-0.2,1
		c-0.3,0-0.9,0.1-1.8,0.1c-0.9,0.1-1.7,0.2-2.3,0.4c0-0.4-0.2-0.8-0.3-1.2c0.5-0.1,0.9-0.4,1.3-0.9c0.4-0.5,0.8-1.1,1.2-1.9
		c-1.3,0.1-2.1,0.2-2.4,0.5c-0.1-0.4-0.3-0.9-0.5-1.3c0.5-0.3,1-0.9,1.4-1.7c0.5-0.8,0.9-1.7,1.3-2.8c0.4,0.3,0.8,0.5,1.3,0.6
		C11.9,59.5,11.5,60,11.2,60.6z M13.7,69.4c-1,0.2-1.8,0.4-2.6,0.6c-0.8,0.2-1.5,0.4-2.1,0.6c-0.1-0.4-0.3-0.9-0.6-1.3
		c1.1-0.1,1.9-0.2,2.5-0.3c0.6-0.1,1.5-0.3,2.9-0.6C13.7,68.8,13.7,69.1,13.7,69.4z M15.8,60.4c0-0.6-0.1-1.2-0.2-1.9
		c0.5,0,1,0.1,1.6,0.2c-0.1,0.2-0.2,0.6-0.2,1.1c0,0.5,0,1.3,0,2.2l2-0.3c0.7-0.2,1.3-0.3,2-0.5l0.2,1.1c-0.7,0.1-1.3,0.2-2,0.3
		L17,63c0,0.6,0,1.2,0.1,1.6l2.3-0.4c0.8-0.2,1.5-0.3,2.2-0.6l0.2,1.1c-0.7,0.1-1.4,0.3-2.2,0.4l-2.3,0.4c0.1,0.8,0.3,1.5,0.6,2.1
		c0.3-0.3,0.7-0.6,1-0.9c0.3-0.3,0.6-0.7,0.9-1.2c0.6,0.5,1,0.8,1.3,0.9c-0.5,0.2-0.9,0.5-1.2,0.8s-0.8,0.8-1.4,1.4
		c0.5,0.8,0.9,1.3,1.3,1.5c0.4,0.2,0.6,0.2,0.8,0c0.2-0.2,0.3-0.6,0.4-1.2c0.3,0.3,0.8,0.5,1.2,0.6c-0.7,1.7-1.4,2.4-2.1,2.1
		c-0.8-0.3-1.6-1.1-2.4-2.3c-0.5,0.4-1.1,0.8-1.6,1.2c-0.5,0.4-1.2,0.8-1.9,1.1c-0.2-0.4-0.5-0.7-0.9-1c0.8-0.3,1.4-0.6,2-0.9
		c0.5-0.3,1.2-0.8,1.9-1.3c-0.3-0.8-0.6-1.7-0.8-2.7c-1.2,0.2-2,0.4-2.4,0.5l-0.2-1.1c0.5,0,1.3-0.1,2.4-0.3
		c-0.1-0.6-0.1-1.1-0.1-1.6c-1,0.2-1.8,0.4-2.1,0.5l-0.2-1.1c0.4,0,1.1-0.1,2.3-0.3L15.8,60.4L15.8,60.4z M17.9,59.6l0.9-0.5
		c0.2,0.2,0.5,0.7,1.2,1.4c-0.4,0.2-0.7,0.3-1,0.6C18.7,60.7,18.4,60.2,17.9,59.6z"/>
	<path fill="#010101" d="M32.6,70.1l-0.8,1.6h-0.6l0.6-1.6h-0.6v-1.3h1.3L32.6,70.1L32.6,70.1z"/>
	<path fill="#010101" d="M41.5,62.4l-0.9,1c-0.3,0.3-0.8,0.8-1.4,1.3c-0.3-0.2-0.6-0.5-1-0.8c0.7-0.4,1.4-0.9,1.9-1.5
		c0.5-0.6,0.9-1.1,1.1-1.5h-0.5c-0.6,0-1.3,0-2,0.1v-1c0.7,0,1.4,0.1,2,0.1h0.8c0-0.7,0-1.4-0.1-1.9h1.2c0,0.5-0.1,1.1-0.1,1.9
		c0.7,0,1.4,0,2-0.1v1c-0.7,0-1.3-0.1-2-0.1v2.7c0,0.3,0,0.6,0.1,1h-1.2c0-0.2,0.1-0.5,0.1-1L41.5,62.4L41.5,62.4z M40,69.8
		c0.6-0.3,1.2-0.8,1.9-1.4c0.2,0.3,0.4,0.6,0.8,1c-0.4,0.2-0.9,0.5-1.4,0.8c-0.5,0.3-1.2,0.7-2.1,1.3c-0.2-0.3-0.4-0.7-0.7-1
		C38.9,70.4,39.4,70.1,40,69.8z M49.5,67.1c0.4,0,0.9,0,1.3-0.1v1C50.4,68,50,68,49.5,68h-3.9v2.6c0,0.6-0.3,0.9-0.7,1.1
		c-0.5,0.2-1,0.3-1.6,0.3c-0.1-0.4-0.3-0.8-0.5-1.2c0.8,0,1.3,0,1.4,0c0.2-0.1,0.2-0.3,0.2-0.6V68h-4.6c-0.3,0-0.7,0-1.1,0.1v-1
		c0.4,0,0.8,0.1,1.1,0.1L49.5,67.1L49.5,67.1z M48,65.1c0.3,0,0.8,0,1.4-0.1v1C48.7,66,48.3,66,48,66h-6.4c-0.3,0-0.7,0-1.3,0.1v-1
		c0.5,0,0.9,0.1,1.3,0.1H48z M44.7,62.8c-0.2,0.2-0.4,0.5-0.8,0.8c-0.4-0.5-0.9-0.9-1.3-1.3c0.3-0.3,0.5-0.5,0.6-0.8
		C43.7,61.9,44.2,62.3,44.7,62.8z M47.1,60.3c0-0.8,0-1.4-0.1-1.8h1.2c0,0.5-0.1,1.1-0.1,1.8h1.2c0.5,0,1.1,0,1.7-0.1v1
		c-0.5,0-1.1-0.1-1.6-0.1h-0.8c0.9,1.2,1.9,2.1,3,2.6c-0.5,0.3-0.8,0.6-0.9,0.9c-0.5-0.4-1-0.9-1.5-1.4s-0.8-0.9-1-1.1v1.4
		c0,0.3,0,0.7,0.1,1.3H47c0-0.4,0.1-0.8,0.1-1.2v-1.4c-0.3,0.4-0.6,0.8-0.8,1.1c-0.3,0.3-0.8,0.8-1.6,1.5c-0.2-0.3-0.5-0.5-0.9-0.7
		c0.8-0.5,1.4-1,1.9-1.5s0.8-1,1-1.4H46c-0.3,0-0.7,0-1,0.1v-1c0.4,0,0.9,0.1,1.4,0.1H47.1z M49.1,69.2c0.5,0.3,1.2,0.7,1.9,1.2
		c-0.3,0.3-0.5,0.7-0.7,1c-0.7-0.5-1.8-1.2-3.3-2c0.3-0.3,0.5-0.7,0.6-0.9C48,68.7,48.5,69,49.1,69.2z"/>
	<path fill="#010101" d="M56.5,63.9v6h3v-8.9c0-0.7,0-1.5-0.1-2.2h1.3c0,0.7-0.1,1.4-0.1,2.2v2H63c0.7,0,1.4,0,2.2-0.1V64
		c-0.8,0-1.5-0.1-2.2-0.1h-2.3v5.9h3.2c0.8,0,1.6,0,2.4-0.1v1.2c-0.8,0-1.6-0.1-2.4-0.1h-8.5c-0.8,0-1.6,0-2.4,0.1v-1.2
		c0.6,0,1.4,0.1,2.3,0.1v-6c0-0.7,0-1.3-0.1-2h1.3C56.6,62.5,56.5,63.2,56.5,63.9z"/>
	<path fill="#010101" d="M71.1,64.2c-1.2,0-2.2,0-2.9,0.1v-1c0.7,0,1.6,0.1,2.7,0.1v-1.9c-0.9,0-1.6,0-2.3,0.1v-1.1
		c0.7,0,1.5,0.1,2.3,0.1c0-0.7,0-1.3-0.1-2h1.2c0,0.6-0.1,1.3-0.1,2c0.7,0,1.3,0,2-0.1v1.1c-0.6,0-1.3-0.1-2-0.1v1.9
		c0.7,0,1.5,0,2.3-0.1v0.5c0.7-0.4,1.2-0.9,1.5-1.6c0.3-0.7,0.5-1.3,0.6-2c-0.6,0-1.2,0-1.7,0.1v-1c0.6,0,1.1,0.1,1.6,0.1h4.5
		c-0.1,0.5-0.1,1-0.1,1.5l-0.1,2c0,0.7-0.3,1.1-0.7,1.3c-0.4,0.2-1,0.4-1.7,0.5c-0.1-0.4-0.2-0.8-0.5-1.2c0.6,0,1.1,0,1.3-0.1
		c0.3-0.1,0.4-0.3,0.4-0.6l0.1-2.4h-2c-0.2,1.1-0.4,2-0.8,2.8c-0.4,0.7-0.9,1.3-1.5,1.8c-0.2-0.2-0.4-0.4-0.9-0.7v0.3
		c-0.8,0-1.5-0.1-2-0.1v2c0.5,0,1.1,0,1.9-0.1v1.1c-0.7,0-1.3-0.1-1.9-0.1v2.6c1,0.4,2.3,0.7,4,0.7c1.7,0,3.4,0,5.2-0.2
		c-0.3,0.5-0.5,1-0.6,1.4c-1.5,0-2.8,0.1-3.9,0.1s-2-0.1-2.8-0.2c-0.9-0.1-1.6-0.4-2.4-0.7c-0.7-0.3-1.4-0.9-2.1-1.7
		c-0.2,0.9-0.5,1.7-0.9,2.6c-0.4-0.3-0.8-0.5-1.1-0.7c0.4-0.6,0.7-1.3,0.9-1.9c0.2-0.6,0.3-1.2,0.3-1.7c0.1-0.5,0.1-1.1,0.1-1.9
		l1.4,0.2c-0.2,0.5-0.3,1.3-0.4,2.3c0.3,0.5,0.8,0.9,1.3,1.3L71.1,64.2L71.1,64.2z M80.4,67.2c0,0.8,0,1.5,0.1,2.1h-5.3
		c0-0.5,0.1-1.2,0.1-2c0-0.9,0-1.7-0.1-2.5h5.3C80.5,65.6,80.4,66.4,80.4,67.2z M79.4,68.4v-2.6h-3.1v2.6H79.4z"/>
	<path fill="#010101" d="M84,64.5c0.5-0.2,1-0.6,1.5-1.3c0.5-0.6,0.9-1.3,1.3-1.8c-1.4,0-2.6,0-3.5,0.1v-1.2c0.8,0,2.2,0.1,4.1,0.1
		c0.5-0.9,0.8-1.7,0.9-2.3c0.5,0.2,0.9,0.4,1.3,0.6c-0.4,0.5-0.7,1.1-1,1.7h3.9c0.5,0,1.2,0,2.1-0.1v1.2c-0.8,0-1.5-0.1-2.1-0.1
		h-4.5c-0.4,0.7-1.2,1.7-2.2,3h3.3c0-0.7,0-1.5-0.1-2.3h1.3c0,0.7-0.1,1.4-0.1,2.3h2c0.8,0,1.5,0,2.3-0.1v1.2
		c-0.7,0-1.5-0.1-2.3-0.1h-2v2.2h3.3c0.7,0,1.5,0,2.4-0.1v1.2c-0.9,0-1.7-0.1-2.4-0.1h-3.3c0,1.2,0,2.2,0.1,2.9h-1.3
		c0-0.8,0.1-1.8,0.1-2.9h-4c-0.9,0-1.7,0-2.4,0.1v-1.2c0.8,0,1.6,0.1,2.4,0.1h4v-2.2c-1.4,0-2.4,0-2.9,0.1c-0.5,0-1.1,0.1-1.7,0.3
		C84.3,65.4,84.1,64.9,84,64.5z"/>
	<path fill="#010101" d="M109.4,68.1c0.2,0.4,0.2,0.8,0.1,1.3c-0.1,0.4-0.3,0.7-0.6,0.9c-0.3,0.2-0.7,0.3-1.1,0.3
		c-0.4,0-0.8-0.2-1.2-0.5c-0.4-0.3-0.5-0.7-0.5-1.1c0-0.4,0.1-0.8,0.3-1.1c0.2-0.3,0.5-0.5,0.9-0.7c0.4-0.2,0.8-0.1,1.3,0
		C109,67.4,109.2,67.7,109.4,68.1z M108.4,69.8c0.3-0.2,0.5-0.6,0.5-0.9c0-0.4-0.2-0.7-0.6-0.9c-0.4-0.2-0.7-0.2-1,0.1
		s-0.5,0.5-0.5,0.9c0,0.4,0.2,0.7,0.6,0.9C107.6,70,108,70,108.4,69.8z"/>
</g>
</svg>
