<?xml version="1.0" encoding="utf-8"?>
<!-- Generator: Adobe Illustrator 18.1.1, SVG Export Plug-In . SVG Version: 6.00 Build 0)  -->
<svg version="1.1" id="图层_1" xmlns="http://www.w3.org/2000/svg" xmlns:xlink="http://www.w3.org/1999/xlink" x="0px" y="0px"
	 width="138" height="151.6" enable-background="new 0 0 100 151.6" xml:space="preserve">
<rect x="2.9" fill="#036EAC" width="94.7" height="151.5"/>
<g>
	<rect x="25.1" y="7.3" fill="none" width="67.7" height="140.6"/>
	<path fill="#FFFFFF" d="M84.5,14.1c2,0,4.2,0,6.6-0.1v2.5c-2.4-0.1-4.6-0.1-6.6-0.1h-6.6v4.3h9.8c-0.1,1.5-0.1,3.1-0.1,4.7v6.2
		c0,1.4-0.5,2.4-1.5,2.9c-1,0.5-2.4,0.8-4.1,1c-0.2-1-0.6-2-1.1-3.1c1.8,0,2.9,0,3.4-0.1c0.5-0.1,0.7-0.5,0.7-1.3V23h-7v10
		c0,2.1,0,3.9,0.1,5.5h-2.9c0.1-1.5,0.1-3.4,0.1-5.5V23h-7.1v12.4h-2.8c0.1-1.4,0.1-3,0.1-4.8v-4.7c0-2,0-3.7-0.1-5.2h9.9v-4.3h-6.6
		c-2.2,0-4.4,0-6.6,0.1v-2.5c2.2,0.1,4.4,0.1,6.6,0.1L84.5,14.1L84.5,14.1z M78.5,12.7c-0.9,0.4-1.7,0.8-2.3,1.3
		c-0.8-1.4-1.7-2.7-2.9-3.9c0.7-0.5,1.4-1,2-1.4C76.4,9.6,77.4,11,78.5,12.7z"/>
	<path fill="#FFFFFF" d="M90.1,44.4c-1.3-0.1-3-0.1-5.1-0.1H66.2v23.5h20.7c1.7,0,3.1,0,4.1-0.1V70c-1.1-0.1-2.5-0.1-4.3-0.1H63.5
		c0.1-2,0.1-3.5,0.1-4.4V46.1c0-1.4,0-2.8-0.1-3.9h26.5L90.1,44.4L90.1,44.4z M79.6,53.7c2-2.3,3.4-4.6,4.3-6.9
		c0.9,0.6,2,1.2,3.3,1.8c-0.9,0.6-1.7,1.4-2.4,2.4c-0.7,1-1.7,2.5-3.1,4.3c2.9,2.4,5.2,4.7,7,7c-1,0.7-1.7,1.4-2.2,2.2
		c-1.4-2-3.6-4.4-6.7-7c-1.3,1.4-2.6,2.8-3.9,3.9c-1.3,1.2-3,2.5-4.9,3.9c-0.8-0.8-1.6-1.4-2.5-1.9c1.7-0.8,3.2-1.7,4.6-2.7
		c1.4-1.1,3-2.7,4.8-5c-2.1-2-4.7-3.9-7.9-5.8c0.8-0.7,1.4-1.4,1.8-2.2C74.9,49.8,77.4,51.7,79.6,53.7z"/>
	<path fill="#FFFFFF" d="M73.2,88.2c1.2-1.9,1.9-4.2,2-7h-8.6v21.6h-2.9c0.2-1.7,0.3-3.1,0.3-4.3V84.4c0-1.7,0-3.5-0.1-5.3h11.5
		c0-2.3,0-4-0.1-5.1c1.4,0.1,2.4,0.1,3.2,0.1c-0.4,1.1-0.6,2.8-0.6,4.9h11.9c-0.2,1.8-0.3,3.6-0.3,5.3v15.5c0,1.3-0.5,2.1-1.5,2.4
		c-1,0.3-2.4,0.6-4.2,0.8c-0.3-0.8-0.8-1.8-1.8-2.8c2,0,3.4-0.1,3.9-0.2c0.6-0.1,0.9-0.5,0.9-1.2V81.2h-9.1c0,1.5-0.1,3-0.4,4.4
		c0.8,0.6,2.1,1.6,4.1,3.1c2,1.5,3.4,2.7,4.2,3.5c-0.9,0.8-1.7,1.4-2.2,2c-1.4-1.7-3.7-3.8-6.9-6.3c-1.5,2.6-3.5,5.1-6,7.4
		c-1-0.8-2-1.4-2.9-1.7C70.1,91.9,72,90.1,73.2,88.2z"/>
	<path fill="#FFFFFF" d="M69.2,115.2l-2,2.3c-0.7,0.8-1.7,1.7-3.1,2.9c-0.6-0.5-1.3-1.1-2.2-1.7c1.6-0.8,3-1.9,4.2-3.2
		c1.2-1.3,2-2.4,2.4-3.2h-1.1c-1.4,0-2.8,0-4.3,0.1v-2.2c1.5,0.1,3,0.1,4.3,0.1h1.8c0-1.6,0-3-0.1-4.1h2.5c-0.1,1.1-0.1,2.5-0.1,4.1
		c1.5,0,3,0,4.4-0.1v2.2c-1.4-0.1-2.9-0.1-4.4-0.1v5.8c0,0.7,0,1.4,0.1,2.2h-2.5c0.1-0.4,0.1-1.1,0.1-2.2V115.2z M65.9,131.4
		c1.3-0.7,2.7-1.7,4.2-3c0.4,0.6,1,1.3,1.7,2.2c-0.9,0.5-2,1.1-3.1,1.8c-1.1,0.7-2.6,1.6-4.6,2.8c-0.4-0.8-0.9-1.5-1.5-2.2
		C63.6,132.6,64.7,132.1,65.9,131.4z M86.9,125.5c0.9,0,1.9,0,2.9-0.1v2.2c-1-0.1-2-0.1-2.9-0.1h-8.6v5.6c0,1.3-0.5,2.1-1.6,2.4
		c-1.1,0.3-2.2,0.6-3.5,0.6c-0.3-0.9-0.6-1.8-1-2.7c1.8,0.1,2.8,0.1,3.2-0.1c0.3-0.1,0.5-0.6,0.5-1.3v-4.6h-10
		c-0.8,0-1.6,0.1-2.4,0.3v-2.3c0.8,0.1,1.7,0.1,2.4,0.1L86.9,125.5L86.9,125.5z M83.6,121.2c0.8,0,1.8,0,3.1-0.1v2.2
		c-1.4-0.1-2.5-0.1-3.1-0.1h-14c-0.6,0-1.5,0-2.8,0.1v-2.2c1,0.1,2,0.1,2.8,0.1H83.6z M76.2,116c-0.4,0.5-1,1.1-1.7,1.7
		c-0.9-1.1-1.9-2-2.8-2.8c0.6-0.6,1-1.1,1.3-1.7C74.1,114.1,75.2,115,76.2,116z M81.6,110.5c0-1.8,0-3.1-0.1-3.9H84
		c-0.1,1-0.1,2.3-0.1,3.9h2.5c1.2,0,2.4,0,3.7-0.1v2.2c-1.2-0.1-2.4-0.1-3.6-0.1h-1.8c2,2.6,4.2,4.5,6.6,5.7c-1,0.7-1.7,1.3-2,1.9
		c-1.2-0.9-2.3-2-3.3-3.1c-1-1.1-1.7-1.9-2.2-2.4v3.1c0,0.7,0,1.6,0.1,2.8h-2.5c0.1-0.9,0.1-1.8,0.1-2.5v-3.2
		c-0.7,0.9-1.3,1.7-1.8,2.4c-0.6,0.7-1.8,1.8-3.6,3.3c-0.5-0.6-1.2-1.1-2-1.5c1.7-1,3.1-2.1,4.1-3.3c1.1-1.2,1.8-2.2,2.2-3.2h-1.3
		c-0.7,0-1.4,0-2.3,0.1v-2.2c0.8,0.1,1.9,0.1,3.1,0.1L81.6,110.5L81.6,110.5z M85.9,130.2c1.2,0.6,2.6,1.4,4.2,2.5
		c-0.7,0.8-1.2,1.5-1.5,2.2c-1.4-1.2-3.8-2.6-7.2-4.3c0.6-0.8,1.1-1.4,1.4-2C83.6,129,84.7,129.6,85.9,130.2z"/>
	<path fill="#FFFFFF" d="M30.7,21.4v13.1h6.6V15c0-1.6,0-3.2-0.1-4.8H40c-0.1,1.5-0.1,3.1-0.1,4.8v4.3H45c1.4,0,3.1,0,4.8-0.1v2.5
		c-1.8-0.1-3.4-0.1-4.8-0.1h-5.1v12.9h7c1.7,0,3.4,0,5.2-0.1v2.5c-1.8-0.1-3.5-0.1-5.2-0.1H28.3c-1.8,0-3.6,0-5.3,0.1v-2.5
		c1.4,0.1,3.1,0.1,5.1,0.1V21.4c0-1.4,0-2.9-0.1-4.4h2.9C30.8,18.5,30.7,20,30.7,21.4z"/>
	<path fill="#FFFFFF" d="M32.3,51.2v8.1c0,1.5,0,3.2,0.1,5.1h-2.3v-2.5h-3.9V66h-2.4c0.1-1.2,0.1-2.7,0.1-4.4V51.2
		c0-1.8,0-3.6-0.1-5.3h8.6C32.3,47.3,32.3,49,32.3,51.2z M30.1,59.9V47.9h-3.9v12.1H30.1z M42.8,62.5c1.4,0,2.7,0,3.9-0.1v2.4
		c-1.7-0.1-3-0.1-3.9-0.1h-4.3c-1.6,0-3.1,0-4.4,0.1v-2.4c1.4,0.1,2.8,0.1,4.4,0.1H42.8z M35.9,59.7c0.1-1.4,0.1-2.6,0.1-3.8v-6.5
		c0-1.2,0-2.6-0.1-4.3h3.4c0.4-1,0.8-2.2,1.1-3.4c0.8,0.3,1.8,0.6,2.8,0.9c-0.4,0.4-1,1.3-1.7,2.5h8.6c-0.2,1-0.3,2.3-0.4,3.9
		c-0.1,1.6-0.1,2.7-0.2,3.4c0,0.6-0.1,1.3-0.3,1.8c-0.2,0.6-0.7,1-1.5,1.3c-0.8,0.3-2.3,0.6-4.2,0.8c-0.1-0.9-0.4-1.8-0.9-2.7
		c2.5,0,3.8-0.2,4.1-0.5c0.3-0.3,0.5-0.8,0.5-1.4s0.1-1.4,0.1-2.3s0.1-1.8,0.1-2.5h-9.3v10.5h13.5c-0.2,1.4-0.3,3.5-0.4,6.2
		c-0.1,2.7-0.4,4.3-0.8,4.9s-1,1.1-1.9,1.3c-0.9,0.3-2.3,0.5-4.1,0.6c-0.2-0.8-0.5-1.7-1-2.7c2.2,0,3.6-0.1,4.1-0.3
		c0.5-0.2,0.8-0.6,1-1.1c0.2-0.6,0.3-1.6,0.4-3.1c0.1-1.5,0.1-2.7,0.1-3.7L35.9,59.7L35.9,59.7z M44.6,51.7c-1,0.4-1.8,0.8-2.4,1.3
		c-0.6-1.3-1.3-2.5-2-3.6c0.8-0.3,1.6-0.6,2.3-1.1C43.1,49.2,43.8,50.3,44.6,51.7z"/>
	<path fill="#FFFFFF" d="M30.6,83v8.1c0,1.5,0.1,3.2,0.3,5.1h-2.5v-2.5h-3.1v4.9h-2.7c0.2-1.7,0.3-3.4,0.3-5.2V83.1
		c0-1.8-0.1-3.5-0.3-5.1h8.1C30.6,79.6,30.6,81.3,30.6,83z M28.3,91.8V79.8h-3.1v11.9H28.3z M44.1,88.7c0,0.8,0,1.6,0.1,2.4h-4.8
		v7.2c0,1.4,0,3,0.1,4.6h-2.5c0.1-1.6,0.1-3.1,0.1-4.6v-3.3c-0.7,0.9-1.4,1.9-2.2,2.8c-0.8,0.9-1.8,2-2.9,3.2
		c-0.8-0.6-1.8-1.2-2.8-1.8c1.4-0.8,2.8-2,4.2-3.4c1.4-1.4,2.5-3,3.4-4.8h-4.6c0.1-0.8,0.1-1.7,0.1-2.4v-4.1c0-0.8,0-1.5-0.1-2.3
		h4.8v-2.5h-0.8c-1.4,0-2.8,0-4.4,0.1v-2.2c1.6,0.1,3.1,0.1,4.4,0.1h0.8v-1.7c0-0.5,0-1.2-0.1-2h2.5c-0.1,0.7-0.1,1.4-0.1,2v1.7h0.8
		c1.3,0,2.7,0,4.3-0.1v2.2c-1.6-0.1-3.1-0.1-4.4-0.1h-0.6v2.5h4.8c-0.1,0.8-0.1,1.5-0.1,2.3L44.1,88.7L44.1,88.7z M37.1,89.3v-4.9
		h-2.4v4.9H37.1z M41.6,89.3v-4.9h-2.3v4.9H41.6z M43.5,94.8c0.7,0.7,1.3,1.4,1.8,2c-0.8,0.4-1.4,1-2,1.7c-0.6-0.9-1.2-1.7-1.8-2.4
		c-0.6-0.7-1.3-1.3-1.8-1.9c0.6-0.5,1.2-1,1.9-1.4C42.1,93.5,42.8,94.2,43.5,94.8z M48.1,90.3c0,1.4,0,2.8,0.1,4.2h-2.5
		c0.1-1.4,0.1-2.8,0.1-4.2v-9c0-1.1,0-2.2-0.1-3.3h2.5c-0.1,1-0.1,2-0.1,3.1V90.3z M52.6,78.6v20.7c0,1.4-0.4,2.4-1.1,2.7
		c-0.7,0.4-1.9,0.7-3.5,1c-0.3-1.4-0.7-2.3-1.1-2.8c2.1,0.1,3.2-0.3,3.2-1.1V77.8c0-1.4,0-2.5-0.1-3.6h2.8
		C52.6,75.5,52.6,77,52.6,78.6z"/>
	<path fill="#FFFFFF" d="M33.8,118.8c0,4.6,0,7.7,0.1,9.1h-2.3v-2.3H27v5.1h-2.4c0.1-1.8,0.1-5.4,0.1-10.8c0-5.4,0-8.9-0.1-10.3h9.3
		C33.8,111.1,33.8,114.2,33.8,118.8z M31.6,123.5v-11.8H27v11.8H31.6z M40.1,112.7c0,1.7-0.2,3.9-0.4,6.5c-0.3,3.4-1,6.3-2,8.8
		c-1,2.5-2.4,4.8-4.4,6.9c-0.5-0.6-1.4-1.1-2.7-1.5c1.9-1.5,3.3-3.2,4.3-5.1c1-1.9,1.7-4,2-6.3c0.5-2.4,0.8-4.7,0.8-7.1
		c0-2.5,0-4.6-0.1-6.6c1.2,0.2,2.2,0.3,2.9,0.4C40.2,109.6,40.1,111,40.1,112.7z M46.6,113.1c0,2.4,0.2,4.8,0.5,7.2
		c0.4,2.5,1.2,4.8,2.2,6.9c1.1,2.2,2.3,3.9,3.6,5.4c-0.8,0.5-1.7,1.1-2.5,1.8c-0.9-1.3-1.9-2.8-2.8-4.7c-0.9-1.9-1.7-3.8-2.2-6
		c-0.5-2.5-0.8-5-1-7.7c-0.1-2.7-0.3-5.7-0.4-8.9c1,0.2,2,0.3,2.8,0.3C46.7,108.9,46.6,110.8,46.6,113.1z"/>
</g>
<g>
	<rect x="6.8" y="62.2" fill="none" width="9.9" height="118.5"/>
	<path fill="#FFFFFF" d="M9.8,69.3C9.9,69.2,10,69.1,10,69v-1.8c-0.2,0.1-0.4,0.1-0.5,0.2s-0.3,0.2-0.6,0.3
		c-0.1-0.2-0.2-0.4-0.3-0.7c0.3-0.1,0.6-0.2,0.8-0.2c0.2-0.1,0.4-0.1,0.6-0.2V65H9.8c-0.3,0-0.6,0-0.9,0v-0.6c0.3,0,0.5,0,0.9,0H10
		v-1c0-0.3,0-0.6,0-0.9h0.7c0,0.2,0,0.5,0,0.9v1c0.3,0,0.6,0,0.9,0v0.6c-0.3,0-0.6,0-0.9,0v1.3c0.1,0,0.2-0.1,0.4-0.1l0.5-0.2
		c0,0.2,0,0.4,0,0.6c-0.1,0-0.3,0.1-0.4,0.1c-0.1,0.1-0.3,0.1-0.4,0.2v2.3c0,0.3-0.1,0.5-0.2,0.6C10.2,69.9,9.8,70,9.2,70
		c0-0.2-0.1-0.5-0.2-0.7C9.5,69.4,9.8,69.4,9.8,69.3z M12.6,62.8c0,0.3,0,0.7,0,1.2c0.7-0.1,1.3-0.3,1.6-0.4
		c0.3-0.1,0.7-0.3,0.9-0.4c0.1,0.2,0.2,0.4,0.5,0.6c-0.1,0-0.3,0.1-0.4,0.1c-0.2,0-0.4,0.1-0.7,0.2s-0.6,0.1-0.9,0.2
		c-0.3,0.1-0.7,0.1-1,0.2v0.7c0,0.2,0.2,0.3,0.5,0.3h1.6c0.3,0,0.5-0.1,0.6-0.2c0.1-0.1,0.1-0.4,0.2-0.7c0.2,0.2,0.4,0.3,0.7,0.4
		c-0.2,0.5-0.4,0.8-0.5,0.9c-0.1,0.1-0.3,0.1-0.6,0.1h-2.5c-0.3,0-0.4-0.1-0.5-0.2C12,65.6,12,65.5,12,65.4v-1.5c0-0.6,0-1,0-1.2
		L12.6,62.8L12.6,62.8z M15.6,67.6V69c0,0.5,0,0.8,0,1.1H15v-0.5h-2.4v0.7h-0.7c0-0.3,0-0.7,0-1.2v-1.4c0-0.5,0-0.9,0-1.1h3.7
		C15.6,66.7,15.6,67.1,15.6,67.6z M15,67.7V67h-2.4v0.8H15z M15,69v-0.8h-2.4V69H15z"/>
	<path fill="#FFFFFF" d="M9.8,72.7v-1c0-0.2,0-0.4,0-0.7h0.7c0,0.3,0,0.6,0,0.7v1c0.2,0,0.5,0,0.9,0v0.6c-0.3,0-0.6,0-0.9,0v1.4
		c0.1,0,0.4-0.2,0.8-0.4c0,0.1,0.1,0.3,0.2,0.5c-0.2,0.1-0.5,0.2-1,0.4v2.4c0,0.3-0.1,0.5-0.2,0.6c-0.1,0.1-0.5,0.3-1.1,0.4
		c-0.1-0.3-0.1-0.6-0.2-0.7c0.5,0,0.8,0,0.9-0.1c0-0.1,0.1-0.1,0.1-0.2v-2.1c-0.5,0.2-0.8,0.4-1,0.5c-0.1-0.3-0.2-0.5-0.3-0.6
		c0.2,0,0.6-0.2,1.2-0.5v-1.6H9.6c-0.2,0-0.5,0-0.8,0v-0.6c0.3,0,0.6,0,0.8,0L9.8,72.7L9.8,72.7z M13.1,72.2
		c0.4,0.1,0.6,0.2,0.7,0.2c-0.3,0.4-0.4,0.7-0.5,0.8h1.3c0.5,0,0.9,0,1.1,0v0.6c-0.2,0-0.6,0-1.1,0h-1.5l-0.8,1.2h1.2
		c0-0.3,0-0.6,0-1h0.7c0,0.3,0,0.6,0,1h0.7c0.5,0,0.8,0,0.9,0v0.6c-0.1,0-0.4,0-0.9,0H14v1h1.1c0.4,0,0.7,0,1.1,0V77
		c-0.3,0-0.7,0-1.1,0H14v0.5c0,0.4,0,0.8,0,1.1h-0.7c0-0.4,0-0.8,0-1.1v-0.5h-1.1c-0.4,0-0.9,0-1.2,0v-0.6c0.4,0,0.8,0,1.2,0h1.1v-1
		h-1.1c-0.1,0-0.3,0-0.7,0.1c-0.1-0.2-0.1-0.4-0.2-0.6c0.2-0.1,0.5-0.5,1-1.3c-0.3,0-0.6,0-1,0v-0.6c0.4,0,0.8,0,1.2,0
		C12.9,72.8,13.1,72.4,13.1,72.2z M15.9,72.1c0,0.2,0,0.4,0,0.7h-0.7V72H12v0.8h-0.6c0-0.2,0-0.4,0-0.7s0-0.5,0-0.7h4.5
		C15.9,71.7,15.9,71.9,15.9,72.1z"/>
	<path fill="#FFFFFF" d="M12.8,79.4c0,0.6,0,1.2,0,1.7h2.9c0,0.4,0,1,0,1.8c0,0.7,0,1.3,0,1.7h-0.7v-0.5h-2.1v1.4c0,0.3,0,0.8,0,1.5
		h-0.8c0-0.4,0.1-0.9,0.1-1.4v-1.5H10v0.5H9.3c0-0.3,0-0.9,0-1.7c0-0.8,0-1.4,0-1.8h2.9c0-0.6,0-1.2,0-1.7L12.8,79.4L12.8,79.4z
		 M12.1,83.6v-1.9H10v1.9H12.1z M14.9,83.6v-1.9h-2.1v1.9H14.9z"/>
	<path fill="#FFFFFF" d="M10,91.7c-0.1,0.6-0.3,1.2-0.5,2c-0.3-0.1-0.5-0.2-0.8-0.2c0.3-0.9,0.5-1.9,0.7-3c0.2,0,0.5,0.1,0.8,0.2
		C10.2,90.8,10.1,91.1,10,91.7z M11.8,91.4v2.8c0,0.3,0.1,0.4,0.4,0.4h1.5c0.2,0,0.4,0,0.5-0.2s0.1-0.5,0.2-1
		c0.2,0.2,0.5,0.3,0.8,0.4c-0.2,0.7-0.3,1.1-0.5,1.3s-0.3,0.2-0.6,0.2h-2.4c-0.4,0-0.6-0.2-0.7-0.7v-3.1c0-0.4,0-0.8,0-1.2h0.8
		C11.8,90.5,11.8,90.9,11.8,91.4z M13.4,89.5c-0.3,0.1-0.5,0.3-0.7,0.4c-0.4-0.7-0.7-1.3-1-1.8c0.2-0.1,0.4-0.2,0.6-0.4
		C12.5,88.2,12.9,88.8,13.4,89.5z M16.4,92.4c-0.2,0.1-0.5,0.3-0.7,0.5c-0.5-0.9-0.9-1.6-1.3-2.2c0.2-0.1,0.4-0.2,0.6-0.4
		C15.4,91.1,15.9,91.8,16.4,92.4z"/>
	<path fill="#FFFFFF" d="M12.5,101.5c0.6-0.6,1-1.3,1.3-2.1c0.2,0.1,0.4,0.3,0.7,0.4c-0.5,0.8-1,1.5-1.5,2.1
		c0.7,0.6,1.8,0.9,3.2,1.1c-0.2,0.3-0.4,0.6-0.4,0.8c-1.4-0.3-2.5-0.7-3.3-1.4c-0.9,0.7-2,1.2-3.3,1.5c-0.1-0.3-0.2-0.5-0.4-0.7
		c1.3-0.2,2.4-0.5,3.2-1.2c-0.5-0.6-0.9-1.2-1.2-2c0.3-0.1,0.5-0.2,0.6-0.3C11.7,100.5,12.1,101.1,12.5,101.5z M9.9,98.1
		c-0.3,0-0.6,0-1,0v-0.7l0.9,0.1H15c0.3,0,0.7,0,1.1-0.1v0.7c-0.4,0-0.7,0-1.1-0.1L9.9,98.1L9.9,98.1z M9.6,100.4
		c-0.2-0.2-0.4-0.4-0.6-0.5c0.4-0.2,0.8-0.5,1.1-0.8c0.3-0.3,0.6-0.6,0.8-0.9c0.2,0.2,0.4,0.3,0.7,0.5C11.3,99,10.6,99.5,9.6,100.4z
		 M13,97.3c-0.3,0.1-0.6,0.2-0.8,0.2c-0.1-0.4-0.3-0.8-0.5-1.2c0.3-0.1,0.5-0.2,0.8-0.2C12.8,96.6,12.9,97,13,97.3z M14.7,98.8
		c0.4,0.3,0.8,0.6,1.1,0.8c-0.2,0.2-0.4,0.4-0.6,0.6c-0.2-0.3-0.8-0.8-1.8-1.5c0.2-0.2,0.4-0.3,0.6-0.5
		C14.1,98.3,14.3,98.5,14.7,98.8z"/>
	<path fill="#FFFFFF" d="M8.9,105.5V105c0.3,0,0.7,0,1.1,0c0-0.2,0-0.4,0-0.6h0.6c0,0.2,0,0.4,0,0.6h1c0-0.2,0-0.4,0-0.6h0.6
		c0,0.2,0,0.4,0,0.6c0.3,0,0.6,0,0.9,0v0.5c-0.3,0-0.6,0-0.9,0v0.4h-0.5v-0.4h-1v0.4h-0.2l0.3,0.1c-0.1,0-0.1,0.1-0.2,0.1h2.3
		c0,0.4,0,0.7,0,0.9v0.4c0,0.2-0.1,0.4-0.2,0.4c-0.1,0.1-0.4,0.1-0.7,0.2c-0.1-0.2-0.1-0.4-0.2-0.6c0.4,0,0.6-0.1,0.6-0.3v-0.6h-2.2
		c-0.1,0.1-0.3,0.2-0.4,0.3h1.9c0,0.2,0,0.4,0,0.6c0,0.2,0,0.4,0,0.6H9.3c0-0.3,0-0.6,0-0.9c-0.1,0.1-0.2,0.2-0.4,0.3
		c-0.1-0.2-0.2-0.4-0.4-0.5c0.3-0.2,0.6-0.4,0.9-0.6c0.3-0.3,0.5-0.5,0.6-0.6v-0.2C9.6,105.5,9.2,105.5,8.9,105.5z M12.8,108.4h2.4
		c0.3,0,0.7,0,1.1,0v0.5c-0.4,0-0.7,0-1.1,0H10c-0.4,0-0.8,0-1.3,0v-0.5c0.5,0,1,0,1.3,0h2.2c0-0.1-0.1-0.2-0.1-0.3
		c0.2,0,0.4-0.1,0.6-0.1C12.7,108,12.7,108.2,12.8,108.4z M11,107.6v-0.4H9.9v0.4H11z M15.1,111.3c0,0.2,0,0.5,0,0.9h-0.6v-0.3h-4
		v0.3H9.9c0-0.3,0-0.6,0-0.8s0-0.5,0-0.8h5.2C15.1,110.8,15.1,111.1,15.1,111.3z M14.1,109.1c0.3,0,0.6,0,0.9,0v0.5
		c-0.3,0-0.6,0-0.9,0h-3c-0.3,0-0.6,0-1,0v-0.5c0.4,0,0.7,0,1,0H14.1z M14.1,109.9c0.2,0,0.5,0,0.9,0v0.5c-0.4,0-0.6,0-0.9,0H11
		c-0.3,0-0.7,0-1,0v-0.5c0.4,0,0.7,0,1.1,0H14.1z M14.5,111.5V111h-4v0.5H14.5z M12.7,105.9c0.2-0.1,0.4-0.3,0.6-0.6
		c0.2-0.3,0.4-0.6,0.5-0.8c0.2,0.1,0.4,0.2,0.6,0.3c-0.2,0.1-0.3,0.3-0.5,0.5h1.6c0.1,0,0.4,0,0.8,0v0.5c-0.3,0-0.6,0-0.8,0
		c0,0.3-0.1,0.5-0.2,0.8c-0.1,0.3-0.2,0.5-0.4,0.8c0.1,0.1,0.3,0.1,0.5,0.2c0.2,0,0.5,0.1,0.9,0.1c-0.1,0.2-0.2,0.4-0.2,0.7
		c-0.4-0.1-0.7-0.1-0.9-0.2c-0.2-0.1-0.4-0.2-0.6-0.3c-0.3,0.2-0.8,0.4-1.3,0.6c-0.1-0.3-0.2-0.5-0.3-0.6c0.5-0.1,0.9-0.2,1.2-0.4
		c-0.2-0.1-0.4-0.5-0.9-1.2l-0.1,0.1C13,106.2,12.9,106,12.7,105.9z M14.9,105.7h-1.2l-0.1,0.1c0.3,0.5,0.6,0.9,0.9,1.1
		C14.7,106.6,14.8,106.2,14.9,105.7z"/>
	<path fill="#FFFFFF" d="M12.1,115.2c0-0.8,0-1.3,0-1.5c0-0.3,0-0.5,0-0.8c0.3,0,0.6,0.1,0.9,0.1c-0.1,0.2-0.1,0.5-0.1,1
		c0,0.4,0,0.8,0,1.2h1.7c0.6,0,1.1,0,1.6-0.1v0.7c-0.4,0-0.9,0-1.3,0h-1.9c0.1,0.4,0.2,0.7,0.5,1.1c0.2,0.4,0.4,0.7,0.7,1
		c0.2,0.3,0.5,0.6,1,0.9c0.4,0.3,0.8,0.6,1.3,0.8c-0.2,0.1-0.4,0.3-0.5,0.7c-0.4-0.2-0.8-0.5-1.2-0.8c-0.4-0.3-0.8-0.8-1.1-1.3
		c-0.4-0.5-0.7-1-0.9-1.5c-0.2,0.5-0.4,0.9-0.6,1.2c-0.2,0.3-0.4,0.6-0.6,0.9c-0.2,0.3-0.5,0.5-0.9,0.8c-0.4,0.3-0.8,0.5-1.2,0.8
		c-0.2-0.3-0.4-0.5-0.6-0.7c0.5-0.2,0.9-0.4,1.4-0.7c0.4-0.3,0.8-0.6,1.1-1c0.3-0.4,0.5-0.7,0.7-1.1c0.2-0.4,0.3-0.8,0.3-1.1h-1.8
		c-0.5,0-0.9,0-1.2,0v-0.7c0.3,0,0.7,0,1.2,0.1H12.1z"/>
	<path fill="#FFFFFF" d="M9.7,122.2v6.6H9c0-0.5,0-1,0-1.4v-4.2c0-0.4,0-1,0-1.5h2.9c-0.2,0.7-0.4,1.1-0.5,1.5
		c-0.1,0.3-0.2,0.7-0.4,1.1c0.3,0.5,0.5,0.8,0.7,1.1c0.1,0.3,0.2,0.6,0.1,0.9c0,0.3-0.1,0.5-0.3,0.7c-0.2,0.2-0.6,0.4-1.2,0.5
		c-0.1-0.3-0.2-0.5-0.3-0.8c0.4,0,0.7,0,0.9-0.1c0.2-0.1,0.3-0.2,0.3-0.4s0-0.5-0.2-0.8c-0.2-0.3-0.4-0.7-0.6-1.1
		c0.2-0.3,0.4-1,0.7-2L9.7,122.2L9.7,122.2z M13.8,122.3c0,0.3,0,0.8,0,1.3c0,0.5,0.2,1.1,0.4,1.6s0.5,1,0.7,1.4
		c0.3,0.4,0.5,0.7,0.7,1c0.2,0.2,0.5,0.4,0.7,0.6c-0.2,0.2-0.4,0.4-0.5,0.6c-0.4-0.3-0.8-0.8-1.2-1.4c-0.4-0.6-0.8-1.4-1.1-2.5
		c-0.2,0.7-0.3,1.3-0.5,1.7s-0.4,0.7-0.7,1.2c-0.3,0.4-0.7,0.8-1.1,1.1c-0.1-0.2-0.3-0.4-0.6-0.5c0.5-0.3,1-0.8,1.3-1.2
		c0.3-0.5,0.6-1,0.7-1.5c0.2-0.5,0.3-1,0.3-1.5c0-0.5,0.1-1,0.1-1.4c0-0.4,0-0.9-0.1-1.4c0.4,0,0.6,0.1,0.8,0.1
		C13.9,121.6,13.8,121.9,13.8,122.3z"/>
	<path fill="#FFFFFF" d="M15.1,132.1c0.3,0,0.6,0,1.1,0v0.7c-0.4,0-0.8-0.1-1.1-0.1h-2.2v3.5c0,0.2-0.1,0.4-0.4,0.5
		c-0.3,0.1-0.6,0.2-1,0.2c0-0.2-0.1-0.5-0.3-0.8c0.4,0,0.7,0,0.9,0c0.2,0,0.3-0.1,0.3-0.3v-3.2h-2.1c-0.4,0-0.8,0-1.2,0v-0.6
		c0.4,0,0.8,0,1.2,0L15.1,132.1L15.1,132.1z M10.4,134.9c-0.3,0.4-0.6,0.9-0.9,1.3c-0.2-0.2-0.4-0.3-0.6-0.4
		c0.3-0.4,0.7-0.8,0.9-1.2s0.5-0.9,0.7-1.3c0.2,0.1,0.4,0.2,0.7,0.3C11,134.1,10.7,134.5,10.4,134.9z M14.1,129.8c0.3,0,0.7,0,1.1,0
		v0.6c-0.4,0-0.7,0-1.1,0h-3c-0.5,0-0.9,0-1.2,0v-0.6c0.3,0,0.8,0,1.2,0H14.1z M16.1,135.8c-0.2,0.1-0.4,0.3-0.6,0.4
		c-0.3-0.5-0.9-1.3-1.8-2.3c0.2-0.1,0.3-0.2,0.5-0.4C15,134.4,15.6,135.2,16.1,135.8z"/>
</g>
</svg>
