<?xml version="1.0" encoding="utf-8"?>
<!-- Generator: Adobe Illustrator 18.1.1, SVG Export Plug-In . SVG Version: 6.00 Build 0)  -->
<svg version="1.1" id="图层_1" xmlns="http://www.w3.org/2000/svg" xmlns:xlink="http://www.w3.org/1999/xlink" x="0px" y="0px"
	 width="100" height="100" enable-background="new 0 0 100 100" xml:space="preserve">
<g>
	<path fill="#F4AB1C" d="M36.2,70c-0.4,1.1-0.8,1.7-1.1,1.7c-0.3,0-0.4-0.1-0.4-0.4l0.7-1.7c0.6-1.6,1.4-3.7,2.4-6.5
		c-0.9-0.3-1.8-0.5-2.7-0.5c-2.3,0-4.3,0.8-6,2.5s-2.5,3.6-2.5,5.9c0,2.3,0.8,4.3,2.5,5.9c1.7,1.6,3.7,2.5,6,2.5
		c2.3,0,4.3-0.8,6-2.5c1.7-1.6,2.5-3.6,2.5-5.9c0-3.6-1.6-6.1-4.9-7.6L36.2,70z"/>
	<path fill="#F4AB1C" d="M3.3,82.9L46.1,8.2c0.9-1.4,2.6-2.5,4.3-2.5c-1.7,0-3.4,1.1-4.3,2.5L3.3,82.9c-2.7,4.7-2.9,8.5,1,9.2l0,0
		C0.5,91.4,0.6,87.6,3.3,82.9z"/>
	<path fill="#F4AB1C" d="M54,71.1v0.5l7.5-0.7l-3.2-7.1C55.4,65.4,54,67.8,54,71.1z"/>
	<path fill="#F4AB1C" d="M54.1,72.6c0.4,2,1.3,3.6,2.9,4.9c1.6,1.3,3.4,2,5.5,2c2.3,0,4.3-0.8,6-2.5c1.7-1.6,2.5-3.6,2.5-5.9
		c0-2.3-0.8-4.3-2.5-5.9c-1.7-1.7-3.7-2.5-6-2.5c-1.1,0-2.2,0.2-3.3,0.7l3.9,8.5L54.1,72.6z"/>
	<path fill="#F4AB1C" d="M9.7,85h80.6L50.1,15L9.7,85z M49.6,70.3v-2.7h-1.5v-0.9h2.3v0.6v0.3v2.7H49.6z M52.4,77.9h-2.3v-0.8v0
		v-2.6h0.8v2.6h1.5V77.9z M54.8,51c0.1,0,0.4,0,0.9,0.1s0.9,0.1,1.1,0.1c0.2,0,0.7-0.1,1.3-0.2c0.6-0.2,1.1-0.2,1.4-0.2
		c0.6,0,0.9,0.4,0.9,1.3c0,0.5-0.4,0.8-1.1,1c-0.4,0.1-1,0.2-1.7,0.2l-0.6,1.7l0.2,0.1l-0.8,2.3l2.3,5.1c1.2-0.5,2.4-0.7,3.7-0.7
		c2.7,0,4.9,0.9,6.8,2.8c1.9,1.8,2.8,4.1,2.8,6.7c0,2.6-0.9,4.9-2.8,6.7c-1.9,1.8-4.1,2.8-6.8,2.8c-2.3,0-4.4-0.8-6.2-2.2
		c-1.8-1.5-2.9-3.4-3.3-5.6l-0.7,0.1c0-0.1,0-0.2,0-0.4c0-0.2,0-0.5-0.1-0.7l0.6-0.1v-0.6c0-3.7,1.6-6.5,4.9-8.3l-1.9-4.2l-4.5,12.1
		c-0.3-0.2-0.6-0.3-1-0.3l4.8-13.1H40.9l-0.8,2.2l9.3,11c-0.3,0.1-0.6,0.3-0.8,0.6l-8.9-10.5L39,62.5c1.7,0.8,3.1,1.9,4.1,3.4
		c1,1.5,1.6,3.3,1.6,5.2c0,2.6-0.9,4.9-2.8,6.7c-1.9,1.8-4.1,2.8-6.8,2.8c-2.6,0-4.9-0.9-6.8-2.8c-1.9-1.8-2.8-4.1-2.8-6.7
		c0-2.6,0.9-4.9,2.8-6.7c1.9-1.8,4.1-2.8,6.8-2.8c1.1,0,2.1,0.2,3.1,0.5l3.3-9.1l0.6-2h3.5l0.7,1.2l-3.6,0.2l-1.4,3.9h14.4l0.6-1.7
		l0.1,0.1l0.6-1.6c-0.5-0.1-1-0.3-1.7-0.7c-0.7-0.4-1-0.6-1-0.8C54.3,51.2,54.5,51,54.8,51z"/>
	<path fill="#010101" d="M96,81.3L54.1,8.2c-1-1.8-2.4-2.5-3.7-2.5c-1.7,0-3.4,1.1-4.3,2.5L3.3,82.9c-2.7,4.7-2.9,8.5,1,9.2h90.6
		l0,0C101.4,92.2,98.8,85.8,96,81.3z M9.7,85l40.3-69.9L90.4,85H9.7z"/>
	<path fill="#010101" d="M55.3,52.4c0.7,0.4,1.3,0.6,1.7,0.7l-0.6,1.6l-0.1-0.1l-0.6,1.7H41.3l1.4-3.9l3.6-0.2L45.6,51h-3.5l-0.6,2
		l-3.3,9.1c-1-0.3-2-0.5-3.1-0.5c-2.7,0-4.9,0.9-6.8,2.8c-1.9,1.8-2.8,4.1-2.8,6.7c0,2.6,0.9,4.9,2.8,6.7c1.9,1.8,4.1,2.8,6.8,2.8
		c2.7,0,4.9-0.9,6.8-2.8c1.9-1.8,2.8-4.1,2.8-6.7c0-1.9-0.5-3.6-1.6-5.2c-1-1.6-2.4-2.7-4.1-3.4l0.8-1.9l8.9,10.5
		c0.2-0.3,0.5-0.5,0.8-0.6l-9.3-11l0.8-2.2h14.4l-4.8,13.1c0.4,0,0.7,0.1,1,0.3L56,58.6l1.9,4.2c-3.3,1.8-4.9,4.6-4.9,8.3v0.6
		l-0.6,0.1c0.1,0.2,0.1,0.4,0.1,0.7c0,0.1,0,0.3,0,0.4l0.7-0.1c0.4,2.2,1.5,4.1,3.3,5.6c1.8,1.5,3.9,2.2,6.2,2.2
		c2.6,0,4.9-0.9,6.8-2.8s2.8-4.1,2.8-6.7c0-2.6-0.9-4.8-2.8-6.7c-1.9-1.8-4.1-2.8-6.8-2.8c-1.3,0-2.5,0.2-3.7,0.7l-2.3-5.1l0.8-2.3
		l-0.2-0.1l0.6-1.7c0.7,0,1.2-0.1,1.7-0.2c0.7-0.2,1.1-0.5,1.1-1c0-0.9-0.3-1.3-0.9-1.3c-0.3,0-0.8,0.1-1.4,0.2
		c-0.6,0.1-1,0.2-1.3,0.2c-0.3,0-0.7,0-1.1-0.1C55.3,51,55,51,54.9,51c-0.3,0-0.5,0.2-0.5,0.7C54.3,51.8,54.7,52.1,55.3,52.4z
		 M43.6,71.1c0,2.3-0.8,4.3-2.5,5.9c-1.7,1.6-3.7,2.5-6,2.5c-2.3,0-4.3-0.8-6-2.5c-1.7-1.6-2.5-3.6-2.5-5.9c0-2.3,0.8-4.3,2.5-5.9
		c1.7-1.7,3.7-2.5,6-2.5c0.9,0,1.8,0.2,2.7,0.5c-1,2.8-1.8,5-2.4,6.5l-0.7,1.7c0,0.3,0.1,0.4,0.4,0.4c0.3,0,0.7-0.6,1.1-1.7l2.5-6.6
		C42,64.9,43.6,67.5,43.6,71.1z M62.5,62.7c2.3,0,4.3,0.8,6,2.5s2.5,3.6,2.5,5.9c0,2.3-0.8,4.3-2.5,5.9c-1.7,1.6-3.7,2.5-6,2.5
		c-2.1,0-3.9-0.7-5.5-2c-1.6-1.3-2.6-2.9-2.9-4.9l9-0.8l-3.9-8.5C60.3,62.9,61.4,62.7,62.5,62.7z M61.5,70.9L54,71.6v-0.5
		c0-3.3,1.4-5.7,4.3-7.3L61.5,70.9z"/>
	<polygon fill="#010101" points="50.4,70.3 50.4,67.7 50.4,67.4 50.4,66.8 48.1,66.8 48.1,67.7 49.6,67.7 49.6,70.3 	"/>
	<polygon fill="#010101" points="50.8,74.4 50.1,74.4 50.1,77.1 50.1,77.1 50.1,77.9 52.4,77.9 52.4,77.1 50.8,77.1 	"/>
</g>
</svg>
