<?xml version="1.0" encoding="utf-8"?>
<!-- Generator: Adobe Illustrator 18.1.1, SVG Export Plug-In . SVG Version: 6.00 Build 0)  -->
<svg version="1.1" id="图层_1" xmlns="http://www.w3.org/2000/svg" xmlns:xlink="http://www.w3.org/1999/xlink" x="0px" y="0px"
	 width="296" height="150" enable-background="new 0 0 296 150" xml:space="preserve">
<path fill="none" stroke="#FFFFFF" stroke-width="1.085" stroke-miterlimit="2.4142" d="M288.5,41.8v64c0,4.3-3.9,7.8-8.4,7.8H14.9
	c-4.7,0-8.4-3.4-8.4-7.8v-64c0-4.3,3.9-7.8,8.4-7.8h265.2C284.8,34,288.5,37.5,288.5,41.8z"/>
<rect x="-0.4" y="0.4" fill="#036FAD" width="296.9" height="150.1"/>
<g>
	<path fill="#FFFFFF" d="M35.3,23c-1.3-1.7-2.6-3.2-4.5-5l8-3.7c1.9,2.6,3.7,5,5.2,7.1l-3.7,1.3h10.3c1.7-2.6,3-5.6,4.3-8.8l7.8,2.6
		c0.9,0.2,1.1,0.4,1.1,0.9s-0.4,0.9-1.3,1.3c-0.9,0.6-2.2,1.9-3.7,3.9h16v6.3H19.4v-6.3L35.3,23L35.3,23z M30.8,56.9v14.2h-6.9v-39
		h23.3v30.8c0,1.9-0.2,3.4-0.6,4.3c-0.4,0.9-1.3,1.5-2.6,1.9c-1.3,0.4-3.4,0.9-6.5,1.1c-0.2-2.8-1.1-5.2-2.8-7.5
		c1.9,0.4,3.2,0.6,3.9,0.6c0.6,0,1.1-0.2,1.3-0.4c0.2-0.4,0.2-0.9,0.2-1.7v-4.5L30.8,56.9L30.8,56.9z M40.1,41.8v-3.7H31v3.7H40.1z
		 M30.8,47.4v3.9h9.1v-3.9H30.8z M51.1,34.7h6.5c0.9,0,1.5,0.2,1.5,0.9c0,0.2,0,0.6-0.2,0.9c-0.4,0.9-0.4,2.6-0.4,5.6v18.3h-7.3
		V34.7L51.1,34.7z M69.4,39.6v23.7c0,1.9-0.4,3.4-1.1,4.5c-0.6,1.1-1.9,1.9-3.7,2.4c-1.7,0.4-4.3,0.9-8,1.1
		c-0.2-3.4-1.1-6.3-2.6-8.4c3,0.4,4.7,0.9,5.6,0.9s1.3-0.2,1.7-0.4c0.4-0.2,0.4-0.9,0.4-1.7V30.4H69c0.9,0,1.3,0.2,1.3,0.4
		c0,0.4,0,0.9-0.2,1.3c-0.2,0.4-0.4,1.3-0.4,2.8C69.6,36.4,69.4,37.9,69.4,39.6z"/>
	<path fill="#FFFFFF" d="M109.7,24.5c-0.6-2.2-1.9-4.5-3.9-7.3l9.1-3c1.3,3,2.6,6,3.4,8.8l-6.5,1.5h27.2v6.9h-28.2
		c0,3-0.2,5.2-0.2,6.9h21.6l-1.9,20.3c-0.4,3-0.9,5.4-1.7,7.1c-0.9,1.5-2.4,2.8-4.3,3.4s-5.2,1.1-9.3,1.3c-0.2-3.2-1.3-6.3-3-9.1
		c3.7,0.6,6,1.1,7.1,1.1c1.1,0,1.9-0.2,2.2-0.6s0.6-1.1,0.6-1.9l1.5-14.9h-13.6c-1.1,5.8-2.8,10.8-5.2,14.9s-5.8,7.8-10.3,11
		c-1.7-1.7-4.3-3.4-7.3-5.2c5.6-3.9,9.7-8.2,12.1-13.2s3.4-11.9,3.4-20.9H86.7v-6.9L109.7,24.5L109.7,24.5z"/>
	<path fill="#FFFFFF" d="M185.6,21.9h19.8v6.5h-22.9c-1.3,2.6-2.8,4.7-4.5,6.9h4.7c0.9,0,1.3,0.2,1.3,0.6s0,0.9-0.4,1.5
		c-0.2,0.6-0.2,1.5-0.2,2.8l2.8-1.1v-9.3h5.8c0.9,0,1.3,0.2,1.3,0.9c0,0.2,0,0.6-0.2,1.1c-0.4,1.3-0.6,3-0.4,5l10.6-3.9l-0.2,17
		c0,1.7-0.2,3-0.6,3.9c-0.4,0.9-1.3,1.7-2.4,2.2c-1.3,0.6-3,1.1-5.6,1.5c-0.4-2.6-0.9-4.5-1.7-6V59h-6.3V45.4l-2.8,1.1V61
		c0,0.6,0,1.1,0.4,1.5c0.2,0.2,0.6,0.4,1.1,0.4h12.5c0.6,0,1.1,0,1.3-0.4c0.2-0.2,0.4-0.6,0.6-1.5s0.2-2.2,0.4-4.3
		c1.9,1.3,4.3,2.2,7.1,2.6c-0.4,3-0.9,5.2-1.5,6.5c-0.6,1.3-1.5,2.4-2.6,2.8c-1.1,0.4-2.8,0.9-5,0.9h-14.2c-2.6,0-4.3-0.4-5.2-1.1
		c-1.1-0.9-1.5-2.4-1.5-4.5V49.5l-2.6,1.1l-1.3-3.7l-0.4,14.4c0,1.7-0.2,3.2-0.9,4.3c-0.4,0.9-1.3,1.7-2.8,2.4
		c-1.3,0.6-3.4,1.1-6.5,1.7c-0.2-2.8-0.9-5.2-2.2-7.3c1.5,0.2,2.8,0.2,3.4,0.2c0.9,0,1.3,0,1.5-0.4c0.2-0.2,0.4-0.6,0.4-1.3
		l0.6-17.9h-3.4c-0.2,6.3-0.9,11.4-2.2,15.5c-1.1,4.1-2.8,8.4-5.4,12.7c-1.5-1.1-3.7-2.4-6.5-3.7c2.8-3.9,4.7-8.6,5.8-14
		c1.1-5.4,1.5-12.9,1.5-22.6h-6v-6.3h10.8c-0.4-1.9-1.5-4.5-2.8-7.5L166,15c1.1,2.6,1.9,5.2,2.6,8l-6.3,1.9h12.5v3.7
		c2.2-3.4,3.7-8,4.7-13.2l6.9,1.7c1.1,0.2,1.7,0.6,1.7,1.1c0,0.4-0.2,0.9-0.9,1.5C186.9,20,186.3,20.9,185.6,21.9z M177.2,37
		c-0.4,0.4-0.6,0.9-1.1,1.3c-1.7-1.3-3.7-2.4-6-3.2c1.3-1.3,2.4-2.8,3.2-4.1h-10.1v6.5h9.9l-0.2,7.3l3.9-1.5V37H177.2z M193,51.1
		c0.6,0,1.3,0,1.7,0s0.9,0,1.3-0.2c0.4-0.2,0.4-0.4,0.4-1.1l0.2-7.8l-3.9,1.5v7.5H193z"/>
	<path fill="#FFFFFF" d="M240.2,28.4h-18.5v-7.3h46.1v7.3h-19V58h22.6v7.3h-53.7V58h22.6V28.4H240.2z"/>
</g>
<g>
	<path fill="#FFFFFF" d="M34.3,107.3l-6.5,5.6c-2.8-2.6-6-5.4-9.7-8l5.8-5.8C27.6,101.7,31,104.5,34.3,107.3z M36.4,119.2
		c-4.1,6.9-7.5,13.6-10.6,20.3c-3.2-1.9-5.8-3.7-7.3-5c4.1-4.7,8-11.2,11.9-19.6C32.1,116.4,34.3,117.9,36.4,119.2z M52.6,93.7
		c-0.9-2.6-2.4-5.2-4.3-8l8-3.2c1.5,2.8,3,5.8,4.3,9.1l-6,1.9h18.3v6.5H58.2v11.2h12.5v6.5H58.2v12.9h16.6v6.5H34.3v-6.5h16.6v-12.9
		H38.6v-6.5h12.3V100H37.1v-5.6l-3.9,3.4c-2.8-2.6-5.8-5.4-9.5-8.4l6-5.4c3.7,3,6.9,5.6,9.5,8.2l-1.1,1.5H52.6z"/>
	<path fill="#FFFFFF" d="M97.4,125.7c-1.5,5-3.7,9.1-6,12.1c-2.8-1.3-5.2-2.4-6.9-2.8c3-3.4,5-7.1,6-11.2L97.4,125.7z M123.5,93.5
		c3,0.9,4.5,1.3,5,1.3c0.4,0.2,0.6,0.4,0.6,0.6c0,0.2-0.2,0.4-0.6,0.9c-0.4,0.4-1.1,0.9-1.7,1.7H141v5.4H84.9v-5.6h14.9
		c-0.6-1.1-1.3-1.9-2.4-3l5.2-1.5H89v-5.8h20.3c-0.2-1.3-0.6-2.6-1.1-4.1l9.3-1.1c0.4,1.7,0.6,3.4,0.9,5.2h19v5.8h-13.8V93.5z
		 M132.2,123.1c3.9,3.9,6.9,7.3,9.3,10.1l-6.7,4.3c-2.2-3.9-5-7.5-8.8-11l5.2-3.4H116c1.7,1.9,3.4,3.9,4.7,6l-6.9,3
		c-1.5-2.6-3.2-5-5-6.9l4.5-2.4H93.1V105h39.5v17.9h-0.4V123.1z M106.1,131.5c0,0.6,0.2,1.1,0.4,1.3c0.2,0.2,0.9,0.4,1.5,0.4h11
		c0.9,0,1.5,0,1.9-0.2c0.4-0.2,0.6-0.6,0.9-1.3c0.2-0.6,0.2-1.9,0.2-3.4c2.6,1.3,5.2,2.2,7.8,2.6c-0.6,3-1.5,5.2-2.6,6.5
		c-1.1,1.3-3.4,2.2-6.5,2.2h-14.9c-2.6,0-4.3-0.4-5.4-1.3c-1.1-0.9-1.5-2.4-1.5-4.5v-9.3h6.9c0.9,0,1.3,0.2,1.3,0.4
		c0,0.4,0,0.6-0.2,1.1c-0.2,0.4-0.2,1.1-0.2,2.2L106.1,131.5L106.1,131.5z M124.8,111.9v-1.7h-23.9v1.7H124.8z M100.9,116.4v1.9H125
		v-1.9H100.9z M118.4,98.1c0.6-1.5,1.3-3,1.9-4.5h-14.2c1.1,1.9,1.7,3.4,1.9,4.5H118.4z"/>
	<path fill="#FFFFFF" d="M165.8,113.8h-14.4v-6.7h17.9c1.7-3.7,3-6.9,3.9-9.7c2.4,0.4,4.3,1.1,6.3,1.5c1.7,0.4,2.8,0.9,3,1.1
		s0.4,0.4,0.4,0.9c0,0.4-0.2,0.6-0.6,0.9c-0.4,0.2-0.9,0.6-1.3,1.3c-0.4,0.6-1.1,1.9-2.2,3.9h26.7v6.7h-11.2
		c-1.5,4.5-3.7,8.4-6.3,11.4c4.1,1.7,9.5,4.3,16,7.5l-6.5,7.5c-6.7-3.9-11.9-6.9-16-8.8c-6.5,4.7-14.4,7.8-23.5,8.8
		c-0.9-1.9-2.6-4.3-4.7-7.5c8.4-0.6,14.9-2.4,19.8-5.2c-3.4-1.5-7.8-3-12.7-4.7C161.7,120.5,163.6,117.7,165.8,113.8z M174.4,90.5
		c-0.4-2.4-0.9-4.3-1.5-6.3l9.9-0.6c0.2,1.3,0.4,3.7,0.9,6.9h18.8v12.9H194V97h-32.1v6.3h-8V90.3L174.4,90.5L174.4,90.5z
		 M184.5,113.8h-9.7c-1.1,1.7-2.2,3.7-3.2,5.2c3.4,1.3,6,2.4,8.2,3C181.7,120,183.3,117.2,184.5,113.8z"/>
	<path fill="#FFFFFF" d="M248.4,131.3h21.6v6.5H219v-6.5h21.3v-6.9h-16.2v-6.5h16.2v-6.5h-13.6v-3.2c-1.3,0.9-3.2,1.7-5.8,3
		c-1.3-1.7-3-3.9-5.6-6.3c12.9-4.1,21.6-11.4,25.9-22.2c2.6,0.6,4.7,1.1,6.5,1.5c1.7,0.4,2.6,0.6,2.8,0.9c0.2,0.2,0.2,0.4,0.2,0.6
		c0,0.2-0.2,0.6-0.9,1.1c0,0-0.4,0.2-0.9,0.6c2.6,4.1,6,7.5,10.3,10.3c4.3,2.8,9.1,4.7,14.4,5.6c-1.7,2.2-3.7,4.7-5.6,7.8
		c-1.7-0.9-3.7-1.7-6-3v3.2h-13.8v6.5h16.4v6.5h-16.4V131.3z M244.7,93.1c-3.2,4.3-7.3,8.2-12.5,11.6h24.4
		C251.6,101.5,247.7,97.6,244.7,93.1z"/>
</g>
</svg>
