<?xml version="1.0" encoding="utf-8"?>
<!-- Generator: Adobe Illustrator 18.1.1, SVG Export Plug-In . SVG Version: 6.00 Build 0)  -->
<svg version="1.1" id="图层_1" xmlns="http://www.w3.org/2000/svg" xmlns:xlink="http://www.w3.org/1999/xlink" x="0px" y="0px"
	 width="138" height="100" enable-background="new 0 0 138 100" xml:space="preserve">
<path fill="none" stroke="#FFFFFF" stroke-width="1.085" stroke-miterlimit="2.4142" d="M134.7,17.2v66.1c0,4.4-1.8,8-4,8H7.2
	c-2.2,0-4-3.6-4-8V17.2c0-4.4,1.8-8,4-8h123.6C132.9,9.2,134.7,12.8,134.7,17.2z"/>
<rect y="4" fill="#FBAA19" width="138" height="92.5"/>
<path fill="#010101" d="M132.5,93.6H5.4c-1.8,0-3.3-1.5-3.3-3.3V9.4c0-1.8,1.5-3.3,3.3-3.3h127.1c1.8,0,3.3,1.5,3.3,3.3v80.9
	C135.8,92.2,134.4,93.6,132.5,93.6z"/>
<path fill="#FBAA19" stroke="#231815" stroke-width="0.216" stroke-miterlimit="2.4142" d="M131,91H6.8C5.2,91,4,89.7,4,88.2V11.3
	c0-1.6,1.3-2.8,2.8-2.8H131c1.6,0,2.8,1.3,2.8,2.8v76.9C133.9,89.7,132.6,91,131,91z"/>
<g>
	<path fill="#010101" d="M42.2,57.9v1.7h-1.4v-2.6c-0.8,0.8-1.5,1.5-2.2,2.3c-0.3-0.3-0.6-0.7-1-1.2c0.2-0.2,0.3-0.4,0.4-0.7
		c0.1-0.2,0.1-0.5,0.1-0.9v-3h-1.3v-1.4h2.7v4.5c0.3-0.3,0.5-0.7,0.7-1c0.1,0.2,0.2,0.5,0.5,0.9v-2.3h5.9v4.2c0,0.3,0,0.5-0.2,0.7
		s-0.3,0.3-0.6,0.4c-0.3,0.1-0.8,0.2-1.4,0.2c0-0.5-0.2-1-0.4-1.3c0.4,0,0.6,0.1,0.7,0.1s0.2,0,0.3-0.1c0,0,0.1-0.1,0.1-0.3v-0.2
		L42.2,57.9L42.2,57.9z M40.3,51.3L39,51.9c-0.3-0.7-0.7-1.5-1.3-2.2L39,49C39.5,49.7,39.9,50.5,40.3,51.3z M43,51h-2.6v-1.1H43v-1
		h1.3c0.2,0,0.2,0,0.2,0.2c0,0,0,0.1,0,0.2c-0.1,0.2-0.1,0.4-0.1,0.7h2.8V51h-2.8v0.4h2.5v1h-2.5v0.4h3.2v1.1h-7.7v-1.1H43v-0.4
		h-2.3v-1H43L43,51L43,51z M42.2,55.7h3v-0.4h-3V55.7z M45.2,56.6h-3V57h3V56.6z"/>
	<path fill="#010101" d="M53.1,52.5h-1.4v-1.4h1.4v-2.1h1.2c0.2,0,0.3,0,0.3,0.1c0,0,0,0.1,0,0.2c-0.1,0.2-0.1,0.4-0.1,0.5v1.3h1
		v1.4h-1v1l0.9-0.5c0,0.4,0,0.9,0.1,1.5c-0.4,0.2-0.7,0.4-0.9,0.5v2.4c0,0.9-0.2,1.5-0.5,1.7c-0.3,0.3-0.9,0.4-1.6,0.4
		c0-0.6-0.2-1.1-0.5-1.5c0.3,0,0.6,0,0.7,0c0.2,0,0.3,0,0.4-0.1c0.1,0,0.1-0.2,0.1-0.4v-1.9c-0.4,0.3-0.8,0.5-1,0.7l-0.6-1.6
		c0.7-0.3,1.2-0.6,1.6-0.7L53.1,52.5L53.1,52.5z M56.8,54.8h-1.3v-1.2h1.8c0.2-0.6,0.4-1.1,0.5-1.7c0.4,0.1,0.8,0.2,1.1,0.2
		c0.3,0.1,0.5,0.1,0.6,0.2c0,0,0.1,0.1,0.1,0.1c0,0.1,0,0.1-0.1,0.2c-0.1,0-0.2,0.1-0.2,0.3c-0.1,0.1-0.2,0.4-0.3,0.7h3.4v1.2H61
		c-0.2,1-0.5,1.7-0.9,2.3c0.6,0.3,1.3,0.7,2.2,1.1l-1,1.3c-0.7-0.5-1.5-1-2.2-1.4c-0.8,0.7-1.9,1.2-3.3,1.6
		c-0.2-0.4-0.5-0.9-0.9-1.3c1.2-0.2,2.1-0.5,2.8-0.9c-0.4-0.2-1-0.4-1.8-0.8C56.2,56.2,56.5,55.6,56.8,54.8z M57.9,50.2
		c-0.1-0.4-0.2-0.8-0.3-1.2l1.7-0.2c0.1,0.3,0.2,0.8,0.2,1.4H62v2.3h-1.5v-1.1h-3.4v1.1h-1.4v-2.4H57.9z M59.6,54.8h-1.2
		c-0.2,0.4-0.4,0.8-0.6,1.3c0.5,0.2,0.8,0.3,1,0.4C59.1,56.1,59.4,55.5,59.6,54.8z"/>
	<path fill="#010101" d="M72.4,50.2c-0.1-0.4-0.2-0.8-0.4-1.2l1.8-0.2c0.1,0.5,0.2,0.9,0.2,1.4H77v1.2h-7.3v-1l-0.5,1.2v8.1h-1.4
		v-5.4c-0.3,0.4-0.5,0.7-0.7,0.9c-0.3-0.3-0.7-0.6-1.1-0.9c1.3-1.4,2.1-3.2,2.4-5.5c0.4,0.1,0.8,0.2,1.1,0.2
		c0.3,0.1,0.5,0.2,0.6,0.2s0.1,0.1,0.1,0.1c0,0.1,0,0.1-0.1,0.2c-0.1,0.1-0.2,0.3-0.3,0.6L72.4,50.2L72.4,50.2z M71.6,59v0.6h-1.4
		v-4.1h6.1v4.1h-1.5V59H71.6z M76.2,54.9h-5.9v-1.2h5.9V54.9z M76.2,53.2h-5.8V52h5.8V53.2z M74.8,57.9v-1.2h-3.2v1.2H74.8z"/>
	<path fill="#010101" d="M83.8,54.7h-2.6v-1.3h10.4v1.3h-6.2l-0.3,0.9h5l-0.3,2.3c0,0.5-0.2,0.9-0.3,1.1c-0.2,0.2-0.5,0.4-0.9,0.5
		c-0.4,0.1-1.1,0.2-1.9,0.2c0-0.6-0.2-1.2-0.6-1.6c0.7,0.1,1.3,0.2,1.5,0.2s0.4,0,0.5-0.1c0.1-0.1,0.1-0.2,0.1-0.3l0.2-1.1h-5.3
		L83.8,54.7z M90.1,52.8h-7.3v-3.4h7.3V52.8z M88.4,51.6v-1h-4v1H88.4z"/>
	<path fill="#010101" d="M103.2,51.1h-2c-0.2,0.3-0.3,0.5-0.4,0.8c-0.2,0.8-0.5,1.6-0.8,2.4c-0.3-0.2-0.6-0.3-0.9-0.4
		c0,0.5-0.1,0.9-0.1,1.3c0.8,0.8,1.5,1.7,2.2,2.6l-1.3,0.9c-0.4-0.7-0.8-1.3-1.3-1.9c-0.3,1-0.9,2-1.6,2.8c-0.4-0.3-0.9-0.6-1.4-0.8
		c0.6-0.6,1.1-1.3,1.5-2.1c0.3-0.8,0.5-1.8,0.5-2.8v-4.8h1.2c0.1,0,0.2,0,0.2,0c0,0,0.1,0,0.1,0.1s0,0.1,0,0.2c0,0.1,0,0.3,0,0.5
		v3.7c0.2-0.9,0.5-1.9,0.6-3c0.2,0,0.4,0.1,0.7,0.1v-1h6V51h-1.8v6.4c0,0.5-0.1,0.9-0.2,1.1c-0.1,0.2-0.4,0.4-0.8,0.6
		c-0.4,0.1-0.9,0.2-1.7,0.3c0-0.7-0.2-1.3-0.5-1.8c0.6,0.1,1,0.2,1.2,0.2c0.2,0,0.3,0,0.4-0.1s0.1-0.2,0.1-0.4V51.1z M97.4,51.1
		c0,1.5-0.2,2.7-0.3,3.5l-1.3-0.1c0.2-1,0.3-2.1,0.3-3.5L97.4,51.1z"/>
	<path fill="#010101" d="M38.5,66.4H37v-1.3h1.5v-2.2h1.3c0.1,0,0.2,0,0.2,0.1c0,0.1,0,0.1-0.1,0.2c-0.1,0.1-0.1,0.4-0.1,0.7v1.2H41
		v1.3h-1.2v1.3l0.9-0.5c0.1,0.3,0.2,0.7,0.4,1.2l-1.3,0.6v2.8c0,0.5,0,0.8-0.2,1.1c-0.1,0.2-0.3,0.4-0.6,0.5
		c-0.3,0.1-0.8,0.2-1.5,0.2c0-0.5-0.2-1-0.4-1.5c0.5,0,0.8,0.1,1,0.1s0.3,0,0.3-0.1c0,0,0.1-0.1,0.1-0.3v-2.1
		c-0.6,0.3-1,0.5-1.2,0.7L36.6,69c0.6-0.2,1.2-0.4,1.9-0.7L38.5,66.4L38.5,66.4z M42.6,72.9v0.6h-1.3v-5.4h5.4v5.4h-1.4v-0.6H42.6z
		 M42.7,64.5c1.3-0.2,2.3-0.7,3.3-1.3c0.6,0.8,1,1.2,1,1.2c0.1,0.1,0.1,0.1,0.1,0.2c0,0,0,0.1-0.1,0.1c0,0-0.1,0-0.3,0
		c-0.3,0-0.7,0.1-1.3,0.2c-1,0.3-1.9,0.6-2.8,0.7V66c0,0.2,0,0.3,0.1,0.4c0,0.1,0.2,0.1,0.4,0.1h2.3c0.2,0,0.3,0,0.4-0.1
		c0.1,0,0.1-0.1,0.2-0.3c0-0.2,0.1-0.4,0.1-0.8c0.5,0.3,1,0.4,1.4,0.5c-0.1,0.6-0.2,1.1-0.4,1.5c-0.2,0.3-0.5,0.5-1.1,0.5h-3.3
		c-0.6,0-0.9-0.1-1.2-0.2c-0.2-0.2-0.3-0.5-0.3-1.1v-3.4h1.3c0.2,0,0.3,0,0.3,0.1s0,0.2-0.1,0.2C42.7,63.4,42.7,63.8,42.7,64.5z
		 M42.6,70h2.7v-0.7h-2.7V70z M45.3,71.1h-2.7v0.7h2.7V71.1z"/>
	<path fill="#010101" d="M53.7,68c0.9,0.3,1.4,0.5,1.5,0.6c0.1,0,0.2,0.1,0.2,0.2s-0.1,0.1-0.2,0.2c-0.1,0.1-0.4,0.5-0.8,1.2
		c-0.4,0.7-1,1.5-1.6,2.3c-0.4-0.3-0.9-0.5-1.3-0.7C52.5,70.6,53.2,69.4,53.7,68z M56.2,67.4h-4.5V66h10.5v1.3h-4.4v4.5
		c0,0.4-0.1,0.7-0.2,1c-0.1,0.2-0.4,0.4-0.8,0.5s-0.9,0.2-1.7,0.2c0-0.6-0.2-1.2-0.5-1.7c0.6,0.1,1,0.2,1.2,0.2c0.2,0,0.3,0,0.3-0.1
		s0.1-0.2,0.1-0.3L56.2,67.4L56.2,67.4z M60.8,64.7h-7.7v-1.3h7.7V64.7z M62.3,71.4l-1.5,0.9c-0.7-1.3-1.5-2.5-2.4-3.5l1.3-0.8
		C60.7,69.1,61.5,70.2,62.3,71.4z"/>
	<path fill="#010101" d="M69.5,67.7v5.8h-1.3v-4.4c-0.3,0.3-0.7,0.6-1,0.9c-0.3-0.3-0.6-0.7-1-1c1.3-0.9,2.5-2.2,3.4-3.8
		c0.4,0.2,0.7,0.4,1,0.5c0.2,0.1,0.4,0.2,0.4,0.2c0,0,0,0.1,0,0.1c0,0-0.1,0.1-0.2,0.2c-0.1,0-0.3,0.2-0.4,0.3
		C70.2,66.8,69.9,67.2,69.5,67.7z M69.2,62.6c0.9,0.4,1.4,0.7,1.5,0.7c0,0,0.1,0.1,0.1,0.1c0,0-0.1,0.1-0.2,0.2
		c-0.2,0.1-0.3,0.2-0.5,0.4c-0.8,0.9-1.6,1.7-2.5,2.4c-0.3-0.3-0.6-0.6-1.1-0.9C67.6,64.9,68.5,63.9,69.2,62.6z M73.9,67.7h-3.2
		v-1.3h6.4v1.3h-1.7v4.1c0,0.6-0.2,1.1-0.6,1.3c-0.4,0.2-1,0.3-1.8,0.3c0-0.6-0.2-1.1-0.5-1.5c0.5,0,0.8,0.1,1,0.1s0.3,0,0.4-0.1
		c0-0.1,0.1-0.2,0.1-0.4L73.9,67.7L73.9,67.7z M76.4,64.7h-4.9v-1.2h4.9V64.7z"/>
	<path fill="#010101" d="M84.2,69.8c-0.1,0.4-0.1,0.9-0.1,1.2c-1.2,0.2-2.1,0.3-2.8,0.5l-0.2-1.4C82.3,70,83.3,69.9,84.2,69.8z
		 M87.3,68.5v0.4H86v-4.4h2v-1.7h1.2c0.2,0,0.3,0.1,0.3,0.2c0,0,0,0.1-0.1,0.2c-0.1,0.2-0.1,0.6-0.1,1.3h2.1v4.5h-1.3v-0.4h-0.8
		c0,0.9-0.2,1.8-0.4,2.5c1,0.6,2,1,3.2,1.1c-0.4,0.5-0.7,1-1,1.5c-1.2-0.5-2.1-1-2.8-1.5c-0.5,0.6-1.1,1.1-2,1.5
		c-0.2-0.2-0.5-0.5-0.9-0.8c-0.1,0.2-0.4,0.4-0.7,0.5c-0.3,0.1-0.8,0.2-1.4,0.3c-0.1-0.6-0.2-1.2-0.4-1.6c0.5,0.1,0.8,0.2,1,0.2
		s0.2,0,0.3-0.1s0.1-0.2,0.1-0.4l0.2-2.5h-2.8l0.3-4.2h1.1c0.2,0,0.3,0,0.3,0.2c0,0,0,0.1,0,0.2c-0.1,0.2-0.1,0.5-0.2,0.9L83,68h0.7
		l0.2-3.3h-2.6v-1.2h4.1L85.1,68h0.7l-0.2,3.7c0,0.3,0,0.5-0.1,0.7c0.8-0.3,1.4-0.7,1.7-1.2c-0.4-0.4-0.8-1-1.2-1.6
		c0.7-0.4,1.1-0.6,1.2-0.6c0.1,0,0.2,0.1,0.2,0.3c0,0.2,0.1,0.4,0.3,0.7C88,69.5,88,69,88,68.5L87.3,68.5L87.3,68.5z M88.1,65.6
		h-0.8v1.7h0.8V65.6z M90.2,67.4v-1.7h-0.8v1.7H90.2z"/>
	<path fill="#010101" d="M47.8,85.4c-0.2,0.5-0.4,1-0.5,1.6c-0.7,0-1.5,0-2.4,0s-1.7,0-2.5,0c-0.8,0-1.5-0.1-2-0.3
		c-0.5-0.2-0.9-0.3-1.1-0.6c-0.1-0.1-0.2-0.2-0.3-0.2c-0.1,0-0.2,0.1-0.5,0.4c-0.2,0.3-0.5,0.5-0.7,0.8c-0.5-0.5-0.9-0.9-1.2-1.3
		c0.4-0.3,0.8-0.6,1.1-0.7c0.3-0.2,0.4-0.3,0.5-0.4c0-0.1,0.1-0.2,0.1-0.4v-2.7h-1.4v-1.4h2.8v3.6c0,0.4,0.1,0.8,0.3,1.1
		c0.2,0.2,0.6,0.4,1.2,0.5c0.6,0.1,1.6,0.2,2.9,0.2S46.7,85.6,47.8,85.4z M39.9,79.3l-1.4,0.5c-0.2-0.7-0.5-1.5-0.9-2.3l1.3-0.6
		C39.3,77.6,39.6,78.5,39.9,79.3z M42.5,77.9v-1.2h1.2c0.2,0,0.3,0,0.3,0.2c0,0,0,0.1-0.1,0.2c0,0.1-0.1,0.4-0.1,0.9H47v1.2h-3.1
		v0.6h2.6v1.2h-2.6v0.6H47l-0.1,2.1c0,0.4-0.1,0.6-0.2,0.8c-0.1,0.2-0.3,0.3-0.6,0.4c-0.3,0.1-0.7,0.1-1.3,0.2
		c0-0.6-0.2-1.1-0.4-1.4c0.4,0,0.6,0.1,0.8,0.1c0.2,0,0.2,0,0.3-0.1c0,0,0.1-0.1,0.1-0.2l0-0.6h-1.6v2.7h-1.4v-2.6h-2.6v-1.2h2.6
		v-0.6h-2.2v-1.2h2.2v-0.6H40v-1.2L42.5,77.9L42.5,77.9z"/>
	<path fill="#010101" d="M55.3,86.7v0.7h-1.4V84l-1.6,0.8c-0.3-0.5-0.6-0.9-0.9-1.2c0.8-0.2,1.7-0.6,2.6-0.9v-0.4h0.9
		c0.6-0.3,1.1-0.6,1.5-0.9h-4.6v-1.1h4.2v-1.1h-2.7v-1.2h2.7v-1.4h1.3c0.2,0,0.3,0,0.3,0.1c0,0,0,0.1-0.1,0.2
		c-0.1,0.2-0.1,0.5-0.1,1.1h2.1v0.6c0.4-0.4,0.7-0.9,1.1-1.5c0.8,0.4,1.3,0.7,1.3,0.8c0.1,0,0.1,0.1,0.1,0.2s-0.1,0.1-0.2,0.2
		c-0.3,0.2-0.6,0.5-1,0.9s-0.7,0.8-1.1,1.1h2.6v1.1h-3.9c-0.3,0.2-0.7,0.5-1.2,0.9h3.5v5.2h-1.4v-0.7H55.3z M55.3,84h3.8v-0.7h-3.8
		V84z M59.1,85h-3.8v0.6h3.8V85z M58.9,79.1h-1.7v1.1h0.5C58.2,79.9,58.6,79.5,58.9,79.1z"/>
	<path fill="#010101" d="M68.1,80.1h-1.6v-1.3h1.6v-2.2h1.2c0.2,0,0.3,0,0.3,0.2c0,0,0,0.1-0.1,0.3c0,0.1-0.1,0.4-0.1,1v0.8h1.2v1.3
		h-1.2v1.4c0.4-0.1,0.8-0.3,1.1-0.4c0,0.5,0,1,0,1.4l-1.1,0.4v2.7c0,0.4-0.1,0.7-0.2,0.9c-0.1,0.2-0.3,0.4-0.6,0.5
		c-0.3,0.1-0.8,0.2-1.4,0.3c0-0.5-0.2-1-0.5-1.6c0.4,0.1,0.7,0.1,0.8,0.1c0.1,0,0.2,0,0.3-0.1c0.1,0,0.1-0.2,0.1-0.3v-1.9
		c-0.3,0.1-0.8,0.3-1.2,0.5l-0.5-1.5l1.7-0.6L68.1,80.1L68.1,80.1z M72.5,78.3c0.1-0.5,0.2-1,0.2-1.7c0.5,0,0.9,0.1,1.2,0.1
		c0.3,0,0.4,0.1,0.5,0.1c0.1,0,0.1,0,0.1,0.1s-0.1,0.2-0.2,0.4c-0.1,0.2-0.2,0.5-0.4,1h2.4v8.8h-1.5v-0.8h-2.6v0.9h-1.4v-8.9H72.5z
		 M72.3,81.6h2.6v-2h-2.6V81.6z M74.9,82.8h-2.6v2.4h2.6V82.8z"/>
	<path fill="#010101" d="M83.8,84.9c-0.4,1-0.9,1.9-1.5,2.6C82,87.2,81.5,87,81,86.7c0.6-0.6,1.1-1.4,1.4-2.3L83.8,84.9z M87.2,78.2
		h-1.2V77h5.2l-0.2,2.2c0,0.4-0.1,0.7-0.2,0.8c-0.1,0.2-0.3,0.3-0.6,0.4s-0.7,0.2-1.3,0.2c0-0.5-0.2-0.9-0.4-1.3c0.3,0,0.5,0,0.6,0
		c0.2,0,0.3,0,0.4-0.1c0.1,0,0.1-0.2,0.1-0.3l0.1-0.9h-1.2c-0.1,1.1-0.6,1.9-1.4,2.6H91v3.4h-4.5v-3c-0.3-0.2-0.5-0.4-0.7-0.5V84H82
		V77h3.8v3.4C86.6,79.8,87.1,79.1,87.2,78.2z M83.3,79.9h1.1v-1.7h-1.1V79.9z M84.4,81.1h-1.1v1.8h1.1V81.1z M86.2,87l-1.5,0.3
		c-0.1-0.7-0.2-1.5-0.5-2.3l1.4-0.3C85.8,85.5,86,86.2,86.2,87z M88.7,86.9l-1.5,0.3c-0.1-0.7-0.4-1.5-0.7-2.3l1.5-0.4
		C88.2,85.3,88.5,86.1,88.7,86.9z M89.6,83v-1.1h-1.8V83H89.6z M91.7,86.6l-1.5,0.7c-0.4-0.9-0.9-1.7-1.4-2.4l1.3-0.7
		C90.8,85.1,91.4,85.9,91.7,86.6z"/>
</g>
<path fill="#FFFFFF" d="M111.2,44.5H27.6c-2.7,0-4.9-2.2-4.9-4.9V18.5c0-2.7,2.2-4.9,4.9-4.9h83.7c2.7,0,4.9,2.2,4.9,4.9v21.1
	C116.1,42.3,113.9,44.5,111.2,44.5z"/>
<rect x="35.6" y="19.7" fill="#010101" width="56.7" height="17.9"/>
<polygon fill="#010101" points="91.7,29 102.8,22.7 102.7,35.4 "/>
<rect x="92.3" y="23.6" fill="#010101" width="4.5" height="9.9"/>
</svg>
