<?xml version="1.0" encoding="utf-8"?>
<!-- Generator: Adobe Illustrator 18.1.1, SVG Export Plug-In . SVG Version: 6.00 Build 0)  -->
<svg version="1.1" id="图层_1" xmlns="http://www.w3.org/2000/svg" xmlns:xlink="http://www.w3.org/1999/xlink" x="0px" y="0px"
	 width="100" height="118.2" enable-background="new 0 0 100 118.2" xml:space="preserve">
<rect x="0.5" fill="#2A3685" stroke="#231815" stroke-width="0.216" stroke-miterlimit="2.4142" width="99.9" height="118.2"/>
<path fill="#FFFFFF" d="M40.7,57.4c0.1-0.5,0.2-1.6,0.4-3.3c0.1-1.6,0.2-3.3,0.2-5c1.2,0,1.9,0,2.3,0c0.2,0,0.4,0.1,0.4,0.2
	c0,0.1-0.1,0.3-0.2,0.6s-0.2,1-0.2,2.1c-0.1,2.3-0.2,4.2-0.4,5.4h5.7v2h-6.1c-0.5,1.5-1.3,2.7-2.5,3.6c-1.2,0.9-3.1,1.8-5.5,2.5
	c-0.5-0.8-1.1-1.5-1.6-2c2.1-0.4,3.7-1,4.8-1.6c1.1-0.6,1.9-1.5,2.4-2.5h-7.5v-2h4.7c-0.9-0.6-2.2-1.3-3.8-2.2l1.4-1.9
	c1.5,0.8,3,1.7,4.3,2.6l-1.4,1.5L40.7,57.4L40.7,57.4z M40.6,52.2L39,54.1c-1.1-0.8-2.4-1.6-4-2.5l1.5-2
	C38,50.6,39.4,51.4,40.6,52.2z M48.6,63.9l-1.9,1.7c-1.1-1.1-2.7-2.4-4.8-3.7l1.6-1.6C45.6,61.6,47.3,62.9,48.6,63.9z"/>
<g>
	<path fill="#FFFFFF" d="M36.6,35.7h2.2V33h4.7v0.2c0,0.2,0,0.4-0.1,0.4c-0.1,0.1-0.2,0.1-0.4,0.1s-0.6,0-1.2-0.1
		c0.3,0.6,0.5,1.2,0.6,2.1c0.9,0,1.7-0.1,2.1-0.3c0.5-0.2,0.8-0.4,1-0.6s0.2-0.6,0.2-1v-6.4h-9.1v3.5c-0.4-0.6-0.6-1-0.8-1.3
		c-0.3,0.5-0.7,1.1-1.1,1.6v-7h-4.2v2.1h2v4.6c0,0.6-0.1,1.1-0.2,1.4c-0.1,0.4-0.4,0.7-0.7,1c0.5,0.8,1,1.4,1.5,1.9
		c1-1.1,2.2-2.3,3.4-3.5V35.7z M38.7,29h4.7v0.6h-4.7V29z M38.7,31h4.7v0.6h-4.7V31z"/>
	<path fill="#FFFFFF" d="M40,23h-3.6v1.6H40v0.6h-4.8v1.6h11.9v-1.6h-4.9v-0.6H46V23h-3.8v-0.7h4.4v-1.7h-4.4c0-0.4,0.1-0.8,0.2-1.1
		c0-0.1,0.1-0.2,0.1-0.2c0-0.2-0.1-0.2-0.4-0.2H40v1.6h-4v1.7h4V23z"/>
	<path fill="#FFFFFF" d="M35.9,22.7c-0.6-1.3-1.3-2.5-2.1-3.6l-2,1.1c0.8,1.2,1.4,2.3,1.9,3.5L35.9,22.7z"/>
	<path fill="#FFFFFF" d="M61.7,23H67v1.7h2.4v-3.6h-3.8c0-0.9-0.1-1.6-0.3-2.1l-2.6,0.3c0.2,0.5,0.4,1.1,0.4,1.8h-3.6v3.6h2.2V23z"
		/>
	<path fill="#FFFFFF" d="M53.1,28.3l0.9,2.4c0.4-0.2,0.9-0.6,1.6-1v3c0,0.3-0.1,0.5-0.2,0.6c-0.1,0.1-0.3,0.1-0.6,0.1
		s-0.6,0-1.1-0.1c0.4,0.7,0.6,1.5,0.7,2.3c1.1,0,1.9-0.2,2.5-0.6s0.8-1.3,0.8-2.7v-3.8c0.3-0.2,0.8-0.4,1.5-0.8
		C59,26.9,59,26.1,59,25.5l-1.4,0.7v-1.5h1.5v-2.2h-1.5v-2c0-0.3,0.1-0.5,0.2-0.8c0-0.1,0.1-0.2,0.1-0.2c0-0.1-0.2-0.2-0.5-0.2h-1.8
		v3.3h-2.2v2.1h2.2v2.5C55,27.5,54.2,27.9,53.1,28.3z"/>
	<path fill="#FFFFFF" d="M59.9,31.2c1.2,0.5,2.2,0.9,2.8,1.2c-1,0.7-2.5,1.2-4.3,1.4c0.6,0.7,1.1,1.3,1.4,2c2.2-0.6,3.9-1.4,5.1-2.4
		c1.2,0.6,2.3,1.3,3.5,2.2l1.5-2.1c-1.3-0.7-2.5-1.3-3.4-1.8c0.6-0.9,1.1-2.1,1.4-3.6h1.9v-1.9h-5.3c0.2-0.6,0.4-0.9,0.5-1.1
		c0.1-0.2,0.2-0.3,0.4-0.4s0.2-0.2,0.2-0.3s0-0.2-0.1-0.2c-0.1,0-0.3-0.1-0.9-0.3c-0.5-0.1-1.1-0.3-1.7-0.4
		c-0.2,0.9-0.5,1.8-0.8,2.6h-2.7v1.9h2C60.9,29.4,60.4,30.4,59.9,31.2z M63.8,28.1h1.9c-0.3,1.1-0.7,2-1.2,2.7
		c-0.3-0.1-0.9-0.4-1.6-0.6C63.2,29.4,63.5,28.7,63.8,28.1z"/>
	<path fill="#FFFFFF" d="M31.1,54.6h-4.6c0.4-0.4,0.6-0.6,0.8-0.8c0.2-0.1,0.3-0.2,0.3-0.3l1.3-0.4c-0.1-0.5-0.3-0.9-0.5-1.4h2.4
		v-1.6H26c0.2-0.2,0.3-0.4,0.4-0.5c0.1-0.1,0.2-0.1,0.2-0.2s-0.1-0.2-0.2-0.2c-0.2-0.1-0.9-0.3-2.2-0.6c-0.1,0.7-0.4,1.5-0.8,2.3
		c-0.4,0.8-0.8,1.5-1.3,2c0.9,0.4,1.5,0.6,1.8,0.8c0.5-0.6,0.9-1.2,1.3-1.9H26c0.2,0.4,0.4,0.8,0.5,1.1c-0.2-0.1-0.6-0.2-1.2-0.4
		c-0.3,0.6-0.7,1.3-1.2,2h-3.4l0.8-0.4c-0.2-0.3-0.5-0.6-0.8-0.9l0.7-0.2l-0.6-1.2h1.9v-1.6h-3.5c0.2-0.2,0.3-0.4,0.5-0.5
		c0.1-0.1,0.2-0.2,0.2-0.3s0-0.1-0.1-0.2c-0.1,0-0.3-0.1-0.8-0.2c-0.4-0.1-1-0.2-1.6-0.4c-0.5,1.6-1.4,3.1-2.7,4.4
		c0.8,0.4,1.4,0.7,1.8,1c0.7-0.7,1.3-1.4,1.7-2.2h0.4c0.2,0.5,0.4,0.8,0.6,1.2l-1.2,0.6c0.3,0.2,0.7,0.6,1.1,1h-4.4v1.7h16.3V54.6z"
		/>
	<path fill="#FFFFFF" d="M26.4,58c0.1-0.1,0.1-0.2,0.1-0.3s-0.1-0.1-0.4-0.1h-1.9v5.7h2v-3.7C26.2,58.8,26.3,58.3,26.4,58z"/>
	<path fill="#FFFFFF" d="M16.2,65.7h2V63h2.9v0.3c0,0.2-0.1,0.4-0.1,0.5s-0.2,0.1-0.5,0.1c-0.2,0-0.6,0-1-0.1
		c0.4,0.6,0.6,1.2,0.6,1.9c0.9-0.1,1.5-0.2,1.9-0.3c0.4-0.2,0.7-0.4,0.9-0.6s0.2-0.6,0.2-1v-6.7h-7V65.7z M18.2,58.6h2.9v0.7h-2.9
		V58.6z M18.2,60.8h2.9v0.7h-2.9V60.8z"/>
	<path fill="#FFFFFF" d="M28.5,65.3c0.6-0.3,1-0.9,1-1.8v-4.4c0-0.4,0-0.8,0.1-1.2s0.1-0.6,0.2-0.7c0.1-0.1,0.1-0.2,0.1-0.3
		s-0.1-0.1-0.4-0.1h-2.1h0v6.5c0,0.2,0,0.3-0.1,0.4s-0.3,0.1-0.6,0.1s-0.8,0-1.4-0.1c0.5,0.8,0.7,1.5,0.7,2.1
		C27,65.8,27.8,65.6,28.5,65.3z"/>
	<path fill="#FFFFFF" d="M54.5,61.1c0.7,0.9,1.3,1.9,1.9,3l2-1.4c-1.1-1.4-2.2-2.7-3.4-4c0.1-0.5,0.1-1.2,0.2-1.9
		c0.4,0.1,0.9,0.3,1.4,0.6c0.5-1.3,0.9-2.5,1.2-3.7c0.1-0.4,0.3-0.8,0.6-1.2h3.1v9.5c0,0.3,0,0.5-0.1,0.6c-0.1,0.1-0.3,0.2-0.6,0.2
		s-0.9-0.1-1.9-0.3c0.5,0.9,0.8,1.8,0.8,2.8c1.2-0.1,2-0.3,2.6-0.5c0.6-0.2,0.9-0.5,1.2-0.9c0.2-0.4,0.3-0.9,0.3-1.7v-9.9h2.7v-2.1
		h-9.3v1.5c-0.5-0.1-0.9-0.2-1.1-0.2c-0.3,1.6-0.6,3.2-1,4.6v-5.7c0-0.4,0-0.6,0.1-0.8c0.1-0.2,0.1-0.3,0.1-0.3s0-0.1-0.1-0.1
		c-0.1,0-0.2,0-0.4,0h-1.8v7.4c0,1.6-0.3,3-0.8,4.3c-0.5,1.3-1.3,2.4-2.3,3.3c0.7,0.3,1.4,0.7,2.1,1.2C53.2,64.1,54,62.6,54.5,61.1z
		"/>
	<path fill="#FFFFFF" d="M52.7,52.4l-2-0.2c0,2.2-0.1,4-0.5,5.4l2,0.2C52.4,56.6,52.6,54.8,52.7,52.4z"/>
	<path fill="#FFFFFF" d="M84.2,57.9v-1.9H68.1v1.9h4l-0.9,3.3h8.1L79,62.8c0,0.2-0.1,0.4-0.2,0.5c-0.1,0.1-0.4,0.1-0.8,0.1
		c-0.4,0-1.2-0.1-2.3-0.2c0.5,0.6,0.8,1.5,0.9,2.5c1.3,0,2.3-0.1,3-0.3c0.7-0.2,1.1-0.4,1.4-0.8c0.3-0.4,0.4-1,0.5-1.7l0.4-3.5h-7.8
		l0.4-1.4H84.2z"/>
	<path fill="#FFFFFF" d="M81.8,49.7H70.6v5.3h11.2V49.7z M79.2,53.3H73v-1.6h6.2V53.3z"/>
	<path fill="#FFFFFF" d="M21.1,86.6v-2H23v-2h-1.9v-1.9c0-0.5,0.1-0.9,0.2-1.1c0.1-0.1,0.1-0.2,0.1-0.3s-0.1-0.1-0.3-0.1h-2v3.5
		h-2.3v2H19v3c-1,0.4-1.9,0.8-2.9,1.1l1.1,2.3c0.4-0.2,1-0.6,1.8-1.1V93c0,0.2,0,0.4-0.1,0.4s-0.2,0.1-0.5,0.1s-0.8,0-1.5-0.1
		c0.4,0.7,0.6,1.4,0.7,2.2c1.1-0.1,1.8-0.1,2.3-0.3s0.8-0.4,1-0.7c0.2-0.3,0.2-0.9,0.2-1.6v-4.3l2-1c-0.3-0.8-0.5-1.5-0.6-1.9
		L21.1,86.6z"/>
	<path fill="#FFFFFF" d="M30.6,84c-0.1,0.2-0.2,0.4-0.3,0.5c-0.1,0.1-0.3,0.1-0.6,0.1h-3.6c-0.3,0-0.5-0.1-0.5-0.1
		c-0.1-0.1-0.1-0.3-0.1-0.5v-0.5c1.3-0.3,2.8-0.6,4.3-1.1c0.8-0.2,1.5-0.4,1.9-0.4c0.2,0,0.3,0,0.4-0.1c0.1,0,0.1-0.1,0.1-0.2
		c0-0.1-0.1-0.2-0.1-0.3s-0.6-0.8-1.6-1.9c-1.4,1-3.1,1.7-5,2.1c0-1,0.1-1.6,0.2-2c0.1-0.1,0.1-0.3,0.1-0.4c0-0.1-0.1-0.2-0.4-0.2
		h-2v5.3c0,0.9,0.2,1.5,0.5,1.7c0.4,0.2,0.9,0.4,1.8,0.4h5.1c0.8,0,1.3-0.3,1.6-0.8c0.3-0.5,0.5-1.3,0.6-2.2
		c-0.7-0.1-1.4-0.3-2.2-0.7C30.7,83.3,30.7,83.8,30.6,84z"/>
	<path fill="#FFFFFF" d="M23.3,95.6h2.1v-0.9h4.1v0.9h2.2v-8.3h-8.3V95.6z M25.4,89.1h4.1v1h-4.1V89.1z M25.4,91.8h4.1v1.1h-4.1
		V91.8z"/>
	<path fill="#FFFFFF" d="M44.9,88.2c1.4,1.7,2.6,3.5,3.6,5.5l2.3-1.3c-1.2-1.9-2.5-3.6-3.9-5.4L44.9,88.2z"/>
	<path fill="#FFFFFF" d="M40.1,88.1c0-0.1-0.1-0.2-0.2-0.3s-0.9-0.4-2.4-0.9c-0.7,2.2-1.9,4.1-3.4,5.8c0.7,0.3,1.4,0.7,2,1.1
		c1.1-1.3,1.9-2.5,2.5-3.6s1-1.8,1.2-1.9C40,88.3,40.1,88.2,40.1,88.1z"/>
	<rect x="36.6" y="79.8" fill="#FFFFFF" width="12" height="2.1"/>
	<path fill="#FFFFFF" d="M50.7,84H34.5v2h6.9v6.7c0,0.2,0,0.4-0.1,0.4c-0.1,0.1-0.2,0.1-0.5,0.1c-0.3,0-0.9-0.1-1.8-0.3
		c0.4,0.8,0.7,1.6,0.8,2.6c1.1-0.1,2-0.2,2.6-0.4c0.6-0.2,1-0.4,1.2-0.8c0.2-0.3,0.3-0.8,0.3-1.5v-7h6.8V84z"/>
	<rect x="59.9" y="80.1" fill="#FFFFFF" width="7.6" height="1.9"/>
	<path fill="#FFFFFF" d="M52.2,83.5c0.6,0.5,1.2,0.9,1.6,1.4c1.4-1.1,2.7-2.3,3.9-3.7c0.2-0.3,0.5-0.5,0.7-0.6s0.4-0.3,0.4-0.4
		s0-0.1-0.1-0.2c-0.1-0.1-0.8-0.4-2.2-1.1C55.4,80.7,54,82.3,52.2,83.5z"/>
	<path fill="#FFFFFF" d="M58.8,86.6h5h0v6c0,0.3,0,0.5-0.1,0.5c-0.1,0.1-0.3,0.1-0.6,0.1c-0.3,0-0.8,0-1.5-0.1
		c0.5,0.7,0.8,1.5,0.8,2.3c1.2,0,2.1-0.2,2.7-0.5s1-1,1-2v-6.4h2.6v-2h-9.8V86.6z"/>
	<path fill="#FFFFFF" d="M59.2,84.2c0-0.1,0-0.2-0.1-0.2c-0.1-0.1-0.3-0.2-0.6-0.4c-0.4-0.2-0.9-0.5-1.5-0.8
		c-1.4,2.4-3.2,4.3-5.2,5.8c0.6,0.5,1.1,1,1.5,1.5c0.5-0.4,1.1-0.9,1.6-1.3v6.8h2.1v-8.9c0.7-0.9,1.2-1.4,1.4-1.7
		c0.2-0.3,0.4-0.4,0.6-0.5S59.2,84.3,59.2,84.2z"/>
	<path fill="#FFFFFF" d="M82,91.6c0.4-1.1,0.7-2.3,0.7-3.8h1.2v0.7h2v-6.9h-3.2c0-1,0.1-1.7,0.2-1.9c0.1-0.1,0.1-0.3,0.1-0.4
		c0-0.2-0.1-0.3-0.4-0.3h-1.8v2.6h-3.1v6.8h1.9v-0.6v0h1.2c0,0.9-0.1,1.7-0.3,2.3c-0.3-0.4-0.5-0.8-0.5-1.1c0-0.3-0.1-0.5-0.3-0.5
		c-0.2,0-0.8,0.3-1.8,0.9c0.6,1,1.2,1.8,1.8,2.5c-0.5,0.7-1.4,1.3-2.7,1.9c0.1-0.3,0.1-0.7,0.1-1.1l0.3-5.6h-1.1l0.5-7h-6.3v1.9h4.1
		L74,87h-1.2l0.2-2.7c0-0.6,0.1-1,0.2-1.3c0.1-0.1,0.1-0.2,0.1-0.3c0-0.2-0.1-0.2-0.4-0.2h-1.8l-0.5,6.5H75l-0.2,3.8
		c0,0.3-0.1,0.5-0.2,0.5c-0.1,0.1-0.2,0.1-0.5,0.1s-0.7-0.1-1.5-0.2c0.4,0.6,0.6,1.4,0.7,2.4c0.9-0.1,1.7-0.2,2.2-0.4s0.8-0.5,1-0.8
		c0.6,0.5,1,0.9,1.4,1.3c1.3-0.7,2.3-1.5,3-2.4c1.1,0.8,2.5,1.5,4.3,2.3c0.4-0.7,1-1.5,1.6-2.2C85.1,93.1,83.4,92.5,82,91.6z
		 M82.6,83.4h1.2V86h-1.2V83.4z M80.6,86h-1.2v-2.7h1.2V86z"/>
	<path fill="#FFFFFF" d="M74.6,89.8c-1.3,0.2-2.9,0.4-4.7,0.6l0.4,2.1c0.9-0.3,2.4-0.5,4.2-0.8C74.4,91.1,74.5,90.5,74.6,89.8z"/>
</g>
</svg>
