<?xml version="1.0" encoding="utf-8"?>
<!-- Generator: Adobe Illustrator 18.1.1, SVG Export Plug-In . SVG Version: 6.00 Build 0)  -->
<svg version="1.1" id="图层_1" xmlns="http://www.w3.org/2000/svg" xmlns:xlink="http://www.w3.org/1999/xlink" x="0px" y="0px"
	 width="138" height="100" enable-background="new 0 0 138 100" xml:space="preserve">
<rect y="9.5" fill="#E51E25" width="138" height="78.7"/>
<rect x="3.4" y="13.1" fill="#FFFFFF" width="130.4" height="71.6"/>
<g>
	<path fill="#010101" d="M33.9,24.8c0.9,0,1.9,0,3-0.1V26c-1.1,0-2.1-0.1-3-0.1h-3v2h4.5c0,0.7-0.1,1.4-0.1,2.1v2.8
		c0,0.7-0.2,1.1-0.7,1.3c-0.4,0.2-1.1,0.4-1.9,0.5c-0.1-0.5-0.3-0.9-0.5-1.4c0.8,0,1.3,0,1.5-0.1c0.2,0,0.3-0.2,0.3-0.6v-3.7h-3.2
		v4.6c0,1,0,1.8,0.1,2.5h-1.3c0-0.7,0.1-1.5,0.1-2.5v-4.6h-3.3v5.7h-1.3c0-0.6,0.1-1.4,0.1-2.2v-2.1c0-0.9,0-1.7-0.1-2.4h4.5v-2h-3
		c-1,0-2,0-3,0.1v-1.2c1,0,2,0.1,3,0.1L33.9,24.8L33.9,24.8z M31.1,24.2c-0.4,0.2-0.8,0.4-1,0.6c-0.3-0.6-0.8-1.2-1.3-1.8
		c0.3-0.2,0.6-0.4,0.9-0.6C30.1,22.8,30.6,23.4,31.1,24.2z"/>
	<path fill="#010101" d="M51.3,24.1c-0.6,0-1.4-0.1-2.3-0.1h-8.6v10.7h9.5c0.8,0,1.4,0,1.9-0.1v1c-0.5,0-1.2-0.1-2-0.1H39.2
		c0-0.9,0.1-1.6,0.1-2v-8.9c0-0.7,0-1.3-0.1-1.8h12.1L51.3,24.1L51.3,24.1z M46.5,28.3c0.9-1,1.5-2.1,2-3.1c0.4,0.3,0.9,0.5,1.5,0.8
		c-0.4,0.3-0.8,0.6-1.1,1.1c-0.3,0.5-0.8,1.1-1.4,2c1.3,1.1,2.4,2.1,3.2,3.2c-0.5,0.3-0.8,0.6-1,1c-0.6-0.9-1.6-2-3.1-3.2
		c-0.6,0.7-1.2,1.3-1.8,1.8c-0.6,0.5-1.3,1.1-2.2,1.8c-0.3-0.3-0.7-0.6-1.2-0.9c0.8-0.3,1.5-0.8,2.1-1.3c0.6-0.5,1.4-1.3,2.2-2.3
		c-1-0.9-2.2-1.8-3.6-2.7c0.4-0.3,0.7-0.6,0.8-1C44.3,26.5,45.5,27.4,46.5,28.3z"/>
	<path fill="#010101" d="M58.5,29.1c0.6-0.9,0.9-1.9,0.9-3.2h-3.9v9.9h-1.3c0.1-0.8,0.1-1.4,0.1-2v-6.4c0-0.8,0-1.6-0.1-2.4h5.3
		c0-1,0-1.8-0.1-2.3c0.6,0,1.1,0.1,1.5,0.1c-0.2,0.5-0.3,1.3-0.3,2.3H66c-0.1,0.8-0.1,1.6-0.1,2.4v7.1c0,0.6-0.2,0.9-0.7,1.1
		c-0.5,0.1-1.1,0.3-1.9,0.4c-0.1-0.4-0.4-0.8-0.8-1.3c0.9,0,1.5,0,1.8-0.1c0.3-0.1,0.4-0.2,0.4-0.6v-8.1h-4.2c0,0.7-0.1,1.4-0.2,2
		c0.3,0.3,1,0.8,1.9,1.4c0.9,0.7,1.5,1.2,1.9,1.6c-0.4,0.3-0.8,0.7-1,0.9c-0.7-0.8-1.7-1.7-3.1-2.9c-0.7,1.2-1.6,2.3-2.7,3.4
		c-0.5-0.4-0.9-0.6-1.3-0.8C57,30.8,57.9,29.9,58.5,29.1z"/>
	<path fill="#010101" d="M21.4,42.1c-0.5,0-1-0.1-1.6-0.1h-2.1V46H20c0.7,0,1.3-0.1,1.7-0.1V47c-0.3,0-0.9-0.1-1.7-0.1h-8.7
		c0,1.8-0.2,3.2-0.5,4.2c-0.3,1-0.7,2-1.3,2.8c-0.4-0.5-0.8-0.8-1-0.9c0.8-1.2,1.3-2.3,1.5-3.5c0.2-1.2,0.2-2.4,0.1-3.6h3.5v-3.9
		h-1.9c-0.6,0-1.3,0-2,0.1v-1c0.7,0,1.4,0.1,2,0.1h8c0.5,0,1,0,1.6-0.1V42.1z M12.5,45.1c-0.5,0.2-0.9,0.3-1.1,0.5
		c-0.2-0.7-0.5-1.4-0.9-2.1c0.2-0.1,0.5-0.3,1-0.5C11.9,43.9,12.3,44.6,12.5,45.1z M16.6,46v-3.9h-1.9V46H16.6z M20.1,44.4
		c-0.3,0.5-0.4,0.9-0.6,1.2c-0.2-0.2-0.6-0.3-1-0.5c0.5-0.9,0.8-1.7,1-2.3c0.4,0.3,0.8,0.5,1.1,0.6C20.6,43.5,20.4,43.9,20.1,44.4z"
		/>
	<path fill="#010101" d="M26.9,44.4l-0.9,1c-0.3,0.3-0.8,0.8-1.4,1.3c-0.3-0.2-0.6-0.5-1-0.8c0.7-0.4,1.4-0.9,1.9-1.5
		c0.5-0.6,0.9-1.1,1.1-1.5h-0.5c-0.6,0-1.3,0-2,0.1v-1c0.7,0,1.4,0.1,2,0.1h0.8c0-0.7,0-1.4-0.1-1.9H28c0,0.5-0.1,1.1-0.1,1.9
		c0.7,0,1.4,0,2-0.1v1c-0.7,0-1.3-0.1-2-0.1v2.7c0,0.3,0,0.6,0.1,1h-1.2c0-0.2,0.1-0.5,0.1-1L26.9,44.4L26.9,44.4z M25.4,51.8
		c0.6-0.3,1.2-0.8,1.9-1.4c0.2,0.3,0.4,0.6,0.8,1c-0.4,0.2-0.9,0.5-1.4,0.8c-0.5,0.3-1.2,0.7-2.1,1.3c-0.2-0.3-0.4-0.7-0.7-1
		C24.3,52.4,24.8,52.2,25.4,51.8z M35,49.1c0.4,0,0.9,0,1.3-0.1v1C35.8,50,35.4,50,35,50H31v2.6c0,0.6-0.3,0.9-0.7,1.1
		s-1,0.3-1.6,0.3c-0.1-0.4-0.3-0.8-0.5-1.2c0.8,0,1.3,0,1.5,0c0.2-0.1,0.2-0.3,0.2-0.6V50h-4.6c-0.3,0-0.7,0-1.1,0.1v-1
		c0.4,0,0.8,0.1,1.1,0.1H35z M33.4,47.2c0.3,0,0.8,0,1.4-0.1v1c-0.7,0-1.1-0.1-1.4-0.1h-6.4c-0.3,0-0.7,0-1.3,0.1v-1
		c0.5,0,0.9,0.1,1.3,0.1H33.4z M30.1,44.8c-0.2,0.2-0.4,0.5-0.8,0.8c-0.4-0.5-0.9-0.9-1.3-1.3c0.3-0.3,0.5-0.5,0.6-0.8
		C29.1,43.9,29.6,44.4,30.1,44.8z M32.5,42.3c0-0.8,0-1.4-0.1-1.8h1.2c0,0.5-0.1,1.1-0.1,1.8h1.2c0.5,0,1.1,0,1.7-0.1v1
		c-0.5,0-1.1-0.1-1.6-0.1H34c0.9,1.2,1.9,2.1,3,2.6c-0.5,0.3-0.8,0.6-0.9,0.9c-0.5-0.4-1-0.9-1.5-1.4s-0.8-0.9-1-1.1v1.4
		c0,0.3,0,0.7,0.1,1.3h-1.2c0-0.4,0.1-0.8,0.1-1.2v-1.5c-0.3,0.4-0.6,0.8-0.8,1.1c-0.3,0.3-0.8,0.8-1.6,1.5
		c-0.2-0.3-0.5-0.5-0.9-0.7c0.8-0.5,1.4-1,1.9-1.5c0.5-0.5,0.8-1,1-1.5h-0.6c-0.3,0-0.7,0-1,0.1v-1c0.4,0,0.9,0.1,1.4,0.1H32.5z
		 M34.5,51.3c0.5,0.3,1.2,0.7,1.9,1.2c-0.3,0.3-0.5,0.7-0.7,1c-0.7-0.5-1.8-1.2-3.3-2c0.3-0.3,0.5-0.7,0.6-0.9
		C33.5,50.8,33.9,51,34.5,51.3z"/>
	<path fill="#010101" d="M49.9,43v5.9h-4.4v1.4h3.8c0.9,0,1.6,0,2.2-0.1v1.2c-0.7,0-1.4-0.1-2.2-0.1h-3.8c0,1.2,0,2.1,0.1,2.6h-1.3
		c0.1-0.5,0.1-1.4,0.1-2.6h-3.8c-0.9,0-1.6,0-2,0.1v-1.2c0.4,0,1,0.1,1.9,0.1h3.9v-1.4h-4.2c0-0.7,0.1-1.6,0.1-2.8s0-2.3-0.1-3.1
		h5.8c0.4-0.9,0.8-1.8,1.1-2.7c0.4,0.2,0.8,0.4,1.3,0.6c-0.2,0.2-0.3,0.5-0.6,0.9c-0.2,0.4-0.5,0.8-0.7,1.2L49.9,43L49.9,43z
		 M44.5,45.5V44h-3v1.5H44.5z M44.5,48v-1.6h-3V48H44.5z M43.9,42.3c-0.4,0.2-0.8,0.4-1,0.5c-0.4-0.9-0.8-1.5-1.2-2
		c0.3-0.2,0.6-0.3,0.9-0.6C43,40.7,43.4,41.4,43.9,42.3z M48.8,45.5V44h-3.2v1.5H48.8z M48.8,48v-1.6h-3.2V48H48.8z"/>
	<path fill="#010101" d="M54.7,46.6c0.5-0.2,1-0.6,1.5-1.3c0.5-0.6,0.9-1.3,1.3-1.8c-1.4,0-2.6,0-3.5,0.1v-1.1
		c0.8,0,2.2,0.1,4.1,0.1c0.5-0.9,0.8-1.7,0.9-2.3c0.5,0.2,0.9,0.4,1.3,0.6c-0.4,0.5-0.7,1.1-1,1.7h3.9c0.5,0,1.2,0,2.1-0.1v1.2
		c-0.8,0-1.5-0.1-2.1-0.1h-4.5c-0.4,0.7-1.2,1.7-2.2,3h3.3c0-0.7,0-1.5-0.1-2.3h1.3c0,0.7-0.1,1.4-0.1,2.3h2c0.8,0,1.5,0,2.3-0.1
		v1.2c-0.7,0-1.5-0.1-2.3-0.1h-2v2.2h3.3c0.7,0,1.5,0,2.4-0.1V51c-0.9,0-1.7-0.1-2.4-0.1H61c0,1.2,0,2.2,0.1,3h-1.3
		c0-0.8,0.1-1.8,0.1-3h-4c-0.9,0-1.7,0-2.4,0.1v-1.2c0.8,0,1.6,0.1,2.4,0.1h4v-2.2c-1.4,0-2.4,0-2.9,0.1c-0.5,0-1.1,0.1-1.7,0.3
		C55,47.4,54.8,46.9,54.7,46.6z"/>
	<path fill="#010101" d="M20.2,60.8v5.9h-4.4v1.4h3.8c0.9,0,1.6,0,2.2-0.1v1.2c-0.7,0-1.4-0.1-2.2-0.1h-3.8c0,1.2,0,2.1,0.1,2.6
		h-1.3c0.1-0.5,0.1-1.4,0.1-2.6H11c-0.9,0-1.6,0-2,0.1v-1.2c0.4,0,1,0.1,1.9,0.1h3.9v-1.4h-4.2c0-0.7,0.1-1.6,0.1-2.8
		c0-1.2,0-2.3-0.1-3.1h5.8c0.4-0.9,0.8-1.8,1.1-2.7c0.4,0.2,0.8,0.4,1.3,0.6c-0.2,0.2-0.3,0.5-0.6,0.9c-0.2,0.4-0.5,0.8-0.7,1.2
		L20.2,60.8L20.2,60.8z M14.7,63.3v-1.5h-3v1.5H14.7z M14.7,65.8v-1.6h-3v1.6L14.7,65.8L14.7,65.8z M14.2,60.2
		c-0.4,0.2-0.8,0.4-1,0.5c-0.4-0.9-0.8-1.5-1.2-2c0.3-0.2,0.6-0.3,0.9-0.6C13.2,58.6,13.7,59.3,14.2,60.2z M19,63.3v-1.5h-3.2v1.5
		H19z M19,65.8v-1.6h-3.2v1.6L19,65.8L19,65.8z"/>
	<path fill="#010101" d="M24.9,64.4c0.5-0.2,1-0.6,1.5-1.3s0.9-1.3,1.3-1.8c-1.4,0-2.6,0-3.5,0.1v-1.2c0.8,0,2.2,0.1,4.1,0.1
		c0.5-0.9,0.8-1.7,0.9-2.3c0.5,0.2,0.9,0.4,1.3,0.6c-0.4,0.5-0.7,1.1-1,1.7h3.9c0.5,0,1.2,0,2.1-0.1v1.2c-0.8,0-1.5-0.1-2.1-0.1H29
		c-0.4,0.7-1.2,1.7-2.2,3h3.3c0-0.7,0-1.5-0.1-2.3h1.3c0,0.7-0.1,1.4-0.1,2.3h2c0.8,0,1.5,0,2.3-0.1v1.2c-0.7,0-1.5-0.1-2.3-0.1h-2
		v2.2h3.3c0.7,0,1.5,0,2.4-0.1v1.2c-0.9,0-1.7-0.1-2.4-0.1h-3.3c0,1.2,0,2.2,0.1,3H30c0-0.8,0.1-1.8,0.1-3h-4c-0.9,0-1.7,0-2.4,0.1
		v-1.2c0.8,0,1.6,0.1,2.4,0.1h4v-2.2c-1.4,0-2.4,0-2.9,0.1c-0.5,0-1.1,0.1-1.7,0.3C25.2,65.2,25.1,64.8,24.9,64.4z"/>
	<path fill="#010101" d="M40.4,60c0-0.7,0-1.3-0.1-1.7h1.3c-0.1,0.4-0.1,1-0.1,1.7v1.6c0.4,0,0.9,0,1.5-0.1v1
		c-0.6,0-1.1-0.1-1.5-0.1v2.1c0.5-0.2,1-0.4,1.4-0.6c0,0.3,0,0.7,0.1,1c-0.5,0.2-1,0.4-1.5,0.6v4c0,0.8-0.2,1.3-0.5,1.5
		c-0.3,0.2-1,0.3-2,0.5c-0.1-0.5-0.3-0.9-0.5-1.3c0.9,0,1.4,0,1.5-0.1c0.2-0.1,0.2-0.3,0.2-0.8v-3.3c-0.8,0.3-1.4,0.5-1.7,0.8
		c-0.1-0.3-0.3-0.7-0.5-1.2c0.5-0.1,1.2-0.3,2.1-0.6v-2.6c-0.9,0-1.5,0-2.1,0.1v-1c0.5,0,1.2,0.1,2.1,0.1L40.4,60L40.4,60z
		 M46.4,66.1c-0.2,0-0.6,0-1,0.1v-0.9c-0.5,0.5-1.2,1-2,1.5c-0.2-0.3-0.6-0.7-1-0.9c1-0.4,1.9-1,2.7-1.7c0.7-0.7,1.3-1.6,1.6-2.7
		c0.4,0.2,0.8,0.3,1.3,0.5l-0.3,0.3c0.7,0.8,1.3,1.5,2.1,1.9c0.7,0.4,1.5,0.8,2.4,0.9c-0.3,0.4-0.6,0.8-0.8,1.2
		c-0.8-0.3-1.4-0.6-1.9-1v0.9c-0.4,0-0.8-0.1-1.2-0.1L46.4,66.1L46.4,66.1z M44.9,58.3h1.3c-0.1,0.3-0.1,0.9-0.1,1.7h2.7
		c0-0.9,0-1.5-0.1-1.8h1.3c-0.1,0.3-0.1,0.9-0.1,1.8c0.8,0,1.5,0,2-0.1v1c-0.5,0-1.2-0.1-2-0.1c0,0.2,0,0.7,0.1,1.6h-1.2
		c0-0.5,0.1-1,0.1-1.6h-2.7v1.6h-1.2c0-0.7,0.1-1.2,0.1-1.6c-0.8,0-1.4,0-1.8,0.1v-1c0.4,0,1,0.1,1.8,0.1
		C44.9,59.1,44.9,58.6,44.9,58.3z M50.7,69.4c0,1,0,1.7,0.1,2.3h-1.2v-1h-4.4v0.9h-1.2c0-0.5,0.1-1.3,0.1-2.3s0-1.7-0.1-2.1h6.7
		C50.7,67.7,50.7,68.4,50.7,69.4z M49.6,69.9v-1.7h-4.4v1.7H49.6z M47.4,65.2c0.7,0,1.3,0,2-0.1c-0.8-0.5-1.5-1.3-2.2-2.1
		c-0.5,0.9-1.1,1.6-1.7,2.1C46.1,65.2,46.7,65.2,47.4,65.2z"/>
	<path fill="#010101" d="M56.9,67.9c0.9-1.1,1.4-2.2,1.8-3.3c0.3-1.1,0.5-2.2,0.6-3.2c0-1,0-2-0.1-3.1c0.4,0,0.9,0.1,1.5,0.1
		c-0.1,0.6-0.2,1.3-0.2,1.9s0,1.4,0.1,2.3c0.1,0.9,0.6,2.1,1.6,3.9c1,1.7,2.5,3,4.5,3.9c-0.5,0.5-0.8,0.9-0.9,1.2
		c-2.7-1.3-4.6-3.7-5.8-7.1c-0.8,3.1-2.7,5.5-5.6,7.3c-0.2-0.3-0.6-0.6-1-1C54.9,69.9,56.1,69,56.9,67.9z"/>
</g>
<path fill="#E41E26" d="M101.8,23.7c12.8,0,23.3,10.5,23.3,23.3c0,12.8-10.5,23.3-23.3,23.3c-12.8,0-23.3-10.5-23.3-23.3
	S88.9,23.7,101.8,23.7L101.8,23.7z M88.3,31.8l29.5,27.7c2.7-3.5,4.4-7.8,4.4-12.5c0-11.2-9.1-20.4-20.4-20.4
	C96.6,26.6,91.9,28.6,88.3,31.8L88.3,31.8z M115.5,62.1L85.9,34.3c-2.8,3.5-4.5,7.9-4.5,12.7c0,11.2,9.1,20.4,20.4,20.4
	C107,67.3,111.8,65.3,115.5,62.1z"/>
<g>
	
		<ellipse fill="#231815" stroke="#231815" stroke-width="3.118110e-002" stroke-miterlimit="2.4142" cx="99.1" cy="36.5" rx="1.7" ry="1.7"/>
	<path fill="#231815" stroke="#231815" stroke-width="3.118110e-002" stroke-miterlimit="2.4142" d="M98.1,52.9l1.5,0
		c1.3,0.4,1.8-0.4,1.3-2.3l-0.7-2l2.3-0.1c2.3,0.3,2.2-2.1,0.4-6.4c-1.9-3.4-3.9-5.2-6-0.9c-0.4,0.9-1.1,1.6-2.9,1.8l-1,0.5
		c-1.1,0.1-1.6,0.5-1,1.5c-0.1,1.6-0.5,3.1-1.2,4.4c-0.6-0.3-1.3-0.5-2.1-0.5c-2.6,0-4.7,2.1-4.7,4.6c0,2.5,2.1,4.6,4.7,4.6
		c2.6,0,4.7-2.1,4.7-4.6c0-1.5-0.7-2.8-1.8-3.7c0.2-0.4,0.4-0.7,0.6-1.1l2.8,2.4l0.1,2.2c0.3,1.4,1.1,1.5,2.3,0.4L98.1,52.9z
		 M92.4,53.6c0,2-1.6,3.5-3.6,3.5s-3.6-1.6-3.6-3.5c0-2,1.6-3.5,3.6-3.5c0.6,0,1.1,0.1,1.6,0.4c-0.6,0.9-1.2,1.8-1.9,2.6
		c-0.2,0.3-0.2,1.4,1.1,0c0.5-0.7,1-1.4,1.5-2.1C91.9,51.5,92.4,52.5,92.4,53.6z M97.6,52.4v-3l0.6,0.1l1.1,2.9H97.6z M95.1,50
		l-2.4-1.7l-0.1-0.7h2.5V50z M95.8,46.8h-2.6c0-0.7,0.3-1.3,0-2.1c1.4,0.9,3.3-0.8,5-1.2l0.6,1.9C97.4,45.9,96.4,46.4,95.8,46.8z"/>
	<path fill="#231815" stroke="#231815" stroke-width="3.118110e-002" stroke-miterlimit="2.4142" d="M117.1,36.7
		c-1.6-0.8-3.3,0.1-4.9,2.7l-0.4,1.6c0.7,3.1-0.1,5.3-3.6,5.4c-2.8,1.3-4.9,3.5-5,7.7h-3.4c-0.2-0.5-0.6-0.9-1.2-0.9
		c-0.7,0-1.3,0.6-1.3,1.2s0.6,1.2,1.3,1.2c0.6,0,1.1-0.4,1.2-1h1.4v0.9h2.2v-0.9h1.7c0.2,2.4,2.2,4.3,4.7,4.3c2.6,0,4.7-2.1,4.7-4.6
		s-2.1-4.6-4.7-4.6c-2.5,0-4.5,1.9-4.7,4.4h-1.8c1.9-5.2,8.6-7.5,11.5-1.3c0.2-2.1,0.9-3.9,2.5-4.9
		C117.7,44.5,117.6,40.8,117.1,36.7z M98.6,55.4c-0.5,0-1-0.4-1-0.9c0-0.5,0.4-0.9,1-0.9s1,0.4,1,0.9C99.6,55,99.1,55.4,98.6,55.4z
		 M109.8,50.8c2,0,3.6,1.6,3.6,3.5c0,2-1.6,3.5-3.6,3.5s-3.6-1.6-3.6-3.5C106.2,52.4,107.8,50.8,109.8,50.8z"/>
</g>
</svg>
