<?xml version="1.0" encoding="utf-8"?>
<!-- Generator: Adobe Illustrator 18.1.1, SVG Export Plug-In . SVG Version: 6.00 Build 0)  -->
<svg version="1.1" id="图层_1" xmlns="http://www.w3.org/2000/svg" xmlns:xlink="http://www.w3.org/1999/xlink" x="0px" y="0px"
	 width="71" height="150" enable-background="new 0 0 71 150" xml:space="preserve">
<g>
	<path fill="#FFFFFF" d="M68.9,18.4L0,0l1.7,131.5L70.6,150L68.9,18.4z M7.4,122.3L7.2,27.4l56.7,0.7l0.2,95.2L7.4,122.3z M7.2,22.3
		l0-5.3l20.1,5.6L7.2,22.3z M64.1,128.1l0,5.2l-19.2-5.4L64.1,128.1z M63.9,23.3L63.9,23.3l-24.5-0.4L7.2,12.1l0-5L63.9,23.3z
		 M7.7,127.4l25.3,0.3l31.2,10.5l0,5.4L7.7,127.4z"/>
	<path fill="#FFFFFF" d="M29.6,43.4c0-0.2-0.2-0.3-0.6-0.3l-2.3,0.1l0.2,7.8l13.7-0.8l0,1.3l2.7-0.1l-0.2-5.8c0-1.1,0-1.8,0.1-2.1
		c0.1-0.2,0.1-0.3,0.1-0.4c0-0.3-0.3-0.4-0.7-0.4l-2.3,0.1l0.1,5.1l-4.2,0.3l-0.2-6.3l6-0.2l-0.1-4.7c0-0.6,0-1.1,0-1.4
		c0-0.3,0-0.5,0.1-0.7c0.1-0.2,0.1-0.3,0.1-0.4c0-0.3-0.2-0.4-0.7-0.4l-2.2,0.1l0.1,5.3l-3.4,0.1L35.9,35c0-1,0-1.7,0.1-1.9
		c0.1-0.3,0.1-0.4,0.1-0.5c0-0.1-0.1-0.2-0.2-0.2c-0.1-0.1-0.3-0.1-0.6-0.1l-2.3,0.1l0.2,7.3L30,39.7l-0.1-3.4c0-0.7,0-1.1,0.1-1.3
		c0.1-0.2,0.1-0.3,0.1-0.4c0-0.2-0.2-0.3-0.7-0.3l-2.3,0.1l0.2,7.7l6-0.2l0.2,6.4l-4.1,0.2l-0.1-3.4c0-0.6,0-1.1,0.1-1.3
		C29.5,43.6,29.6,43.5,29.6,43.4z"/>
	<path fill="#FFFFFF" d="M27.1,70.2c1-1.5,1.7-2.9,2.1-4.4l0.2,7.5l2.4-0.1l-0.2-8.5c0.5,0.8,0.9,1.6,1.3,2.5l2-1l0.1,4.2l-2.1,0.1
		l0.1,2.2l12.4-0.3l-0.1-2.2l-1.7,0.1l-0.4-15.6l-8.5,0.2l0.3,11.2c-0.8-1.4-1.5-2.5-2.2-3.4l-1.1,0.7l0-1.4l2.7-0.1l-0.1-2.3
		l-2.7,0.1L31.4,57c0.9-0.2,1.7-0.3,2.3-0.4c0.4,0,0.6-0.1,0.6-0.2c0-0.1-0.1-0.3-0.2-0.5c-0.2-0.2-0.6-0.9-1.4-2
		c-2.4,1.1-4.7,1.7-7,1.9c0.4,0.6,0.7,1.4,1,2.2c0.8-0.1,1.6-0.3,2.4-0.4l0.1,2.3l-3.5,0.1l0.1,2.3l2.7-0.1
		c-0.6,2.4-1.7,4.5-3.2,6.3C26,69,26.6,69.6,27.1,70.2z M40.9,70.2l-3.4,0.1l-0.1-3l3.4-0.1L40.9,70.2z M40.8,65l-3.4,0.1l-0.1-3
		l3.4-0.1L40.8,65z M40.6,56.9l0.1,2.8l-3.4,0.1L37.2,57L40.6,56.9z"/>
	<path fill="#FFFFFF" d="M38.3,86l5.2-0.1l-0.1-2.3l-5.2,0.1c0-1.1,0-1.8,0.1-2c0.1-0.2,0.1-0.4,0.1-0.5c0-0.2-0.3-0.3-0.7-0.3
		l-2.4,0.1l0.1,2.8l-3.2,0.1c0.9-1.3,1.7-2.5,2.4-3.8l9.7-0.3l-0.1-2.3l-8.4,0.2c0.3-0.6,0.6-1,0.8-1.2c0.2-0.2,0.3-0.4,0.3-0.5
		c0-0.1-0.1-0.2-0.1-0.2c-0.1-0.1-0.4-0.2-1.1-0.3s-1.4-0.3-2.2-0.5c-0.3,1-0.6,1.9-1,2.8l-5.7,0.2l0.1,2.3l4.6-0.1
		c-0.6,1.2-1.1,2.1-1.5,2.6c-0.5,0.6-1.1,1-1.8,1.2c0.1,0.9,0.3,1.7,0.5,2.6c1.5-0.3,3.7-0.5,6.6-0.5l0.1,2.3l-9,0.2l0.1,2.2l9-0.2
		l0.1,4.3l2.8-0.1l-0.1-4.3l7.1-0.2L45.4,88l-7.1,0.2L38.3,86z"/>
	<path fill="#FFFFFF" d="M45.4,100.3l-6.7,0.2l2.2-0.7c-0.4-1.2-0.9-2.3-1.4-3.2l-2.9,1.1c0.6,0.8,1.1,1.8,1.5,2.9l-5,0.1l0.1,2.3
		l12.3-0.3L45.4,100.3z"/>
	<path fill="#FFFFFF" d="M46.3,112.7l-4.7,0.1c0.7-2.2,1.2-4,1.6-5.2c0.3-1.2,0.6-2,0.7-2.3c0.1-0.3,0.3-0.5,0.4-0.7
		c0.1-0.2,0.2-0.3,0.2-0.4c0-0.1-0.1-0.2-0.1-0.2c-0.1-0.1-0.4-0.1-1-0.3s-1.3-0.3-2.2-0.4c-0.6,3.9-1.3,7.1-2.2,9.6l-6.3,0.2
		l0.1,2.4l13.6-0.4L46.3,112.7z"/>
	<path fill="#FFFFFF" d="M36.2,112.1l2.7-0.8c-0.8-2.9-1.5-5.4-2.3-7.4l-2.7,0.9C34.8,107.2,35.6,109.6,36.2,112.1z"/>
	<path fill="#FFFFFF" d="M33.3,99.6c0.2-0.5,0.5-0.8,0.7-1.1c0.2-0.2,0.3-0.4,0.3-0.6c0-0.2-0.1-0.3-0.4-0.3s-1.2-0.3-2.9-0.7
		c-1.2,4.8-2.8,8.2-4.7,10.1c0.7,0.7,1.3,1.3,1.7,1.9c0.6-0.7,1.1-1.4,1.6-2.1l0.3,9.8l2.6-0.1L32,102.3
		C32.6,100.9,33,100,33.3,99.6z"/>
</g>
</svg>
