<?xml version="1.0" encoding="utf-8"?>
<!-- Generator: Adobe Illustrator 18.1.1, SVG Export Plug-In . SVG Version: 6.00 Build 0)  -->
<svg version="1.1" id="图层_1" xmlns="http://www.w3.org/2000/svg" xmlns:xlink="http://www.w3.org/1999/xlink" x="0px" y="0px"
	 width="180" height="43.9" enable-background="new 0 0 180 43.9" xml:space="preserve">
<rect y="0" fill="#FFFFFF" width="180" height="44"/>
<rect x="2" y="1.8" fill="#A09F9F" width="175.8" height="40.4"/>
<circle fill="#FFFFFF" cx="26.8" cy="22" r="18"/>
<circle fill="#FFFFFF" cx="91.4" cy="22" r="18"/>
<circle fill="#FFFFFF" cx="154" cy="22" r="18"/>
<polygon fill="#FCD404" stroke="#FFFFFF" stroke-width="3.685039e-003" stroke-miterlimit="2.4142" points="103.7,24.7 88.5,24.9 
	92.6,29.1 86.2,29 79.7,21.9 86.4,15.4 92.4,15.4 87.5,20.1 103.7,20.1 "/>
<polygon fill="#16723B" stroke="#FFFFFF" stroke-width="3.685039e-003" stroke-miterlimit="2.4142" points="166.6,24.8 150.3,24.8 
	154.5,28.8 148.1,28.8 141.4,21.7 148.3,15.2 154.3,15.2 150.4,19.8 166.6,19.8 "/>
<polygon fill="#D52629" stroke="#FFFFFF" stroke-width="3.685039e-003" stroke-miterlimit="2.4142" points="39.2,24.7 23,24.7 
	27.1,28.8 20.9,28.8 14.1,21.7 20.9,15.2 26.9,15.2 23,19.9 39.4,19.9 "/>
</svg>
