<?xml version="1.0" encoding="utf-8"?>
<!-- Generator: Adobe Illustrator 18.1.1, SVG Export Plug-In . SVG Version: 6.00 Build 0)  -->
<svg version="1.1" id="图层_1" xmlns="http://www.w3.org/2000/svg" xmlns:xlink="http://www.w3.org/1999/xlink" x="0px" y="0px"
	 width="180" height="43.9" enable-background="new 0 0 180 43.9" xml:space="preserve">
<rect x="0.1" y="0.6" fill="#FFFFFF" width="180" height="42.7"/>
<rect x="2" y="2.3" fill="#A09F9F" width="176.3" height="39.2"/>
<circle fill="#FFFFFF" cx="25.8" cy="22" r="17.5"/>
<circle fill="#FFFFFF" cx="88.7" cy="22" r="17.5"/>
<circle fill="#FFFFFF" cx="149.4" cy="21.8" r="17.5"/>
<polygon fill="#FCD404" stroke="#FFFFFF" stroke-width="3.685039e-003" stroke-miterlimit="2.4142" points="86.4,34 86.6,18.3 
	82.5,22.2 82.5,16.2 89.5,9.7 95.9,16.2 95.9,22 91.2,18.3 91.2,34.2 "/>
<polygon fill="#16723B" stroke="#FFFFFF" stroke-width="3.685039e-003" stroke-miterlimit="2.4142" points="147.6,33.5 147.8,17.6 
	143.7,21.8 143.7,15.5 150.6,9 157.1,15.6 157.1,21.6 152.5,17.8 152.5,33.5 "/>
<polygon fill="#D52629" stroke="#FFFFFF" stroke-width="3.685039e-003" stroke-miterlimit="2.4142" points="23.3,34 23.3,18.3 
	19.1,22.2 19.1,16.2 26.1,9.7 32.5,16.2 32.5,22 27.9,18.3 27.9,34.2 "/>
</svg>
