<?xml version="1.0" encoding="utf-8"?>
<!-- Generator: Adobe Illustrator 18.1.1, SVG Export Plug-In . SVG Version: 6.00 Build 0)  -->
<svg version="1.1" id="图层_1" xmlns="http://www.w3.org/2000/svg" xmlns:xlink="http://www.w3.org/1999/xlink" x="0px" y="0px"
	 width="100" height="100" enable-background="new 0 0 100 100" xml:space="preserve">
<g>
	<path fill="#F4AB1C" d="M9.9,84.3h80L49.9,15L9.9,84.3z M35.6,54.3h11.6v7.2H35.6V54.3z M29.8,54.1h4.3v7.2h-8.5L29.8,54.1z
		 M31.9,82c-3.4,0-6.2-2.8-6.2-6.1s2.8-6.1,6.2-6.1s6.2,2.8,6.2,6.1C38.1,79.2,35.3,82,31.9,82z M53.6,65.3c1.4,0.1,2.2,0.5,2.7,1
		l2.6-2.5l-2.2,3c0.3,0.8,0.1,1.8-0.2,2.9l13.1-2.2l3.8,3.5l6.7,0l2.2,3.4l-6.8,1.2c-1,5.1-5.4,4.4-6.4,1.5l-13,2.1
		c-0.5,4-5.1,5.5-6.3,0.9l-5.5,0.7l0.6-3.6l4-1.4l0,0c-1-0.8-1.9-1.7-2.4-2.5l-7.3,0c-3.1-6-11.5-7-14.9-0.1l-5.3,0l5.9-9.6
		l22.6,0.1v4.4c0.1-0.1,0.3-0.3,0.5-0.4c0.6-2.3,1.3-3,2.1-3l1.1-4.4l-0.4,4.5C51.8,65,52.7,65.7,53.6,65.3z M41,77.2l5.1-3.1l1,0.4
		L41,77.2z M50.9,49.4c-0.2,0.2-0.5,0.4-0.9,0.4c-0.4,0-0.6-0.1-0.9-0.4c-0.2-0.2-0.4-0.5-0.4-0.9c0-0.4,0.1-0.6,0.4-0.9
		c0.2-0.2,0.5-0.4,0.9-0.4c0.4,0,0.6,0.1,0.9,0.4c0.2,0.2,0.4,0.5,0.4,0.9C51.3,48.9,51.2,49.2,50.9,49.4z M50.8,34.5
		c0.1,0.3,0.2,0.6,0.2,1.1c0,0.8-0.1,1.9-0.3,3.5c-0.2,1.6-0.3,3.2-0.3,4.8v0.9h-0.7v-0.9c0-1.6-0.1-3.2-0.3-4.8
		c-0.2-1.6-0.3-2.8-0.3-3.5c0-0.5,0.1-0.8,0.2-1.1c0.2-0.3,0.4-0.4,0.7-0.4C50.5,34.1,50.7,34.2,50.8,34.5z"/>
	<path fill="#010101" d="M98.4,87.3c0-0.1-0.1-0.3-0.1-0.4c0-0.2-0.1-0.4-0.2-0.6c0-0.1,0-0.2-0.1-0.2c-0.1-0.4-0.2-0.7-0.4-1.1
		c0-0.1-0.1-0.2-0.1-0.2c-0.1-0.2-0.2-0.5-0.3-0.7c-0.5-1.1-1.2-2.3-1.8-3.3L53.9,8.2c-0.4-0.8-0.9-1.3-1.5-1.7c0,0-0.1-0.1-0.1-0.1
		c-0.5-0.3-1-0.5-1.5-0.6c-1.9-0.3-3.8,0.9-4.8,2.5L3.5,82.2c-0.3,0.4-0.5,0.9-0.7,1.3c-0.2,0.4-0.4,0.8-0.5,1.2
		c-0.2,0.5-0.4,1-0.5,1.5c-0.1,0.5-0.2,1-0.2,1.4c0,0.2,0,0.4,0,0.6c0.1,1.6,1,2.7,2.9,3.1l0,0h89.9c1.6,0,2.7-0.4,3.3-1
		c0.1-0.1,0.2-0.2,0.2-0.3c0-0.1,0.1-0.1,0.1-0.1c0.1-0.2,0.3-0.5,0.3-0.8s0.1-0.6,0.1-0.9C98.4,88,98.4,87.7,98.4,87.3z M9.9,84.3
		l40-69.4l40,69.4H9.9z"/>
	<path fill="#010101" d="M56,72.2l0.7-1.2l3.4-0.4l0.1,2.4l-4,0.7c0.1,1.8-0.9,2.4-3.4,1.5c-0.9,2.4-2.4,2.2-4,0.6l-4,1.4l-0.6,3.6
		l5.5-0.7c1.1,4.5,5.8,3.1,6.3-0.9l13-2.1c1,2.9,5.4,3.6,6.4-1.5l6.8-1.2L80,71l-6.7,0l-3.8-3.5l-13.1,2.2c-0.2,0.6-0.4,1.3-0.6,1.9
		C55.9,71.8,55.9,72,56,72.2z M52.9,81.3c-0.6,0-1.1-0.5-1.1-1s0.5-1,1.1-1c0.6,0,1.1,0.5,1.1,1C53.9,80.8,53.5,81.3,52.9,81.3z
		 M73.4,76.9c0,0.6-0.5,1-1.1,1s-1.1-0.5-1.1-1s0.5-1,1.1-1S73.4,76.4,73.4,76.9z M69.1,68.6l2.7,2.7l-5.2,0.8l-0.8-2.9L69.1,68.6z
		 M65,69.4l0.6,3.1L61.8,73l-0.3-2.9L65,69.4z"/>
	<path fill="#010101" d="M49.3,34.5c-0.2,0.3-0.2,0.6-0.2,1.1c0,0.8,0.1,1.9,0.3,3.5c0.2,1.6,0.3,3.2,0.3,4.8v0.9h0.7v-0.9
		c0-1.6,0.1-3.2,0.3-4.8c0.2-1.6,0.3-2.8,0.3-3.5c0-0.4-0.1-0.8-0.2-1.1c-0.1-0.3-0.4-0.4-0.8-0.4C49.7,34.1,49.5,34.2,49.3,34.5z"
		/>
	<path fill="#010101" d="M50,47.3c-0.4,0-0.6,0.1-0.9,0.4c-0.2,0.2-0.4,0.5-0.4,0.9c0,0.4,0.1,0.6,0.4,0.9c0.2,0.2,0.5,0.4,0.9,0.4
		c0.4,0,0.6-0.1,0.9-0.4c0.2-0.2,0.4-0.5,0.4-0.9c0-0.4-0.1-0.6-0.4-0.9C50.7,47.4,50.4,47.3,50,47.3z"/>
	<rect x="35.6" y="54.3" fill="#010101" width="11.6" height="7.2"/>
	<polygon fill="#010101" points="34.1,54.1 29.8,54.1 25.6,61.3 34.1,61.3 	"/>
	<path fill="#010101" d="M47.5,68.1v-4.4l-22.6-0.1l-5.9,9.6l5.3,0c3.4-6.9,11.7-6,14.9,0.1l7.3,0C45.4,71.7,45.5,70,47.5,68.1z"/>
	<path fill="#010101" d="M31.9,69.7c-3.4,0-6.2,2.8-6.2,6.1s2.8,6.1,6.2,6.1s6.2-2.8,6.2-6.1C38.1,72.4,35.3,69.7,31.9,69.7z
		 M31.9,78.5c-1.5,0-2.8-1.2-2.8-2.7s1.2-2.7,2.8-2.7s2.8,1.2,2.8,2.7S33.4,78.5,31.9,78.5z"/>
	<ellipse fill="#FFFFFF" cx="31.9" cy="75.8" rx="2.8" ry="2.7"/>
	<polygon fill="#FFFFFF" points="65.6,72.4 65,69.4 61.5,70.1 61.8,73 	"/>
	<polygon fill="#FFFFFF" points="71.8,71.3 69.1,68.6 65.9,69.2 66.6,72.1 	"/>
	<ellipse fill="#FFFFFF" cx="52.9" cy="80.3" rx="1.1" ry="1"/>
	<ellipse fill="#FFFFFF" cx="72.3" cy="76.9" rx="1.1" ry="1"/>
	<path fill="#FFFFFF" d="M50.7,66.8l-1-0.4l0.4-1.7c-0.8,0-1.5,0.7-2.1,3c-0.2,0.1-0.3,0.3-0.5,0.4c-2,2-2.1,3.6-1.1,5.1
		c0.5,0.9,1.4,1.7,2.4,2.5l0,0c1.7,1.6,3.1,1.8,4-0.6c2.6,0.9,3.6,0.3,3.4-1.5l4-0.7l-0.1-2.4L56.7,71L56,72.2
		c-0.1-0.2-0.1-0.4-0.2-0.6c0.2-0.6,0.4-1.3,0.6-1.9c0.3-1.1,0.5-2.1,0.2-2.9l-1.5,2.1l-1-0.4l2.2-2.2c-0.5-0.5-1.3-0.9-2.7-1
		c-0.9,0.4-1.8-0.3-2.8-0.6L50.7,66.8z"/>
	<polygon fill="#010101" points="50.7,66.8 50.8,64.7 51.2,60.1 50.1,64.6 49.7,66.3 	"/>
	<polygon fill="#010101" points="55.1,68.9 56.6,66.8 58.9,63.8 56.3,66.3 54.1,68.5 	"/>
	<polygon fill="#010101" points="46.2,74 41,77.2 47.2,74.5 	"/>
</g>
</svg>
