<?xml version="1.0" encoding="utf-8"?>
<!-- Generator: Adobe Illustrator 18.1.1, SVG Export Plug-In . SVG Version: 6.00 Build 0)  -->
<svg version="1.1" id="图层_1" xmlns="http://www.w3.org/2000/svg" xmlns:xlink="http://www.w3.org/1999/xlink" x="0px" y="0px"
	 width="180" height="43.9" enable-background="new 0 0 180 43.9" xml:space="preserve">
<rect y="0" fill="#FFFFFF" width="180" height="43.9"/>
<rect x="2" y="1.8" fill="#A09F9F" width="175.7" height="40.3"/>
<circle fill="#FFFFFF" cx="27.2" cy="22" r="17.9"/>
<circle fill="#FFFFFF" cx="91.1" cy="22" r="17.9"/>
<circle fill="#FFFFFF" cx="153.6" cy="22" r="17.9"/>
<polygon fill="#FCD404" stroke="#FFFFFF" stroke-width="3.685039e-003" stroke-miterlimit="2.4142" points="79,19.4 95.3,19.4 
	91.1,15.1 97.5,15.1 104.1,22.3 97.3,28.8 91.3,28.8 95.2,24.1 78.9,24.1 "/>
<polygon fill="#16723B" stroke="#FFFFFF" stroke-width="3.685039e-003" stroke-miterlimit="2.4142" points="141.8,18.9 158.1,18.9 
	154.1,14.8 160.3,14.8 167,22 160.3,28.5 154.1,28.5 158.1,23.8 141.8,23.8 "/>
<polygon fill="#D52629" stroke="#FFFFFF" stroke-width="3.685039e-003" stroke-miterlimit="2.4142" points="14.6,19.4 31,19.4 
	26.9,15.1 33.1,15.1 39.8,22.3 33.1,28.8 26.9,28.8 31,24.1 14.6,24.1 "/>
</svg>
