<?xml version="1.0" encoding="utf-8"?>
<!-- Generator: Adobe Illustrator 18.1.1, SVG Export Plug-In . SVG Version: 6.00 Build 0)  -->
<svg version="1.1" id="图层_1" xmlns="http://www.w3.org/2000/svg" xmlns:xlink="http://www.w3.org/1999/xlink" x="0px" y="0px"
	 width="43.8" height="180" enable-background="new 0 0 43.8 180" xml:space="preserve">
<rect y="0.1" fill="#FFFFFF" width="43.8" height="179.9"/>
<rect x="2.1" y="2" fill="#A09F9F" width="39.9" height="176"/>
<circle fill="#FFFFFF" cx="22.3" cy="26.6" r="17.9"/>
<circle fill="#FFFFFF" cx="22.3" cy="87.8" r="17.9"/>
<circle fill="#FFFFFF" cx="22.3" cy="153.1" r="17.9"/>
<polygon fill="#FDD402" stroke="#FFFFFF" stroke-width="3.685039e-003" stroke-miterlimit="2.4142" points="35.2,90.6 19.1,90.6 
	23.2,94.8 16.9,94.7 10.3,87.7 17,81.2 23.1,81.2 19.1,85.8 35.3,85.8 "/>
<polygon fill="#11713B" stroke="#FFFFFF" stroke-width="3.685039e-003" stroke-miterlimit="2.4142" points="35.7,155.4 19.5,155.3 
	23.7,159.5 17.4,159.5 10.7,152.4 17.4,145.9 23.5,145.9 19.5,150.6 35.7,150.6 "/>
<polygon fill="#D52328" stroke="#FFFFFF" stroke-width="3.685039e-003" stroke-miterlimit="2.4142" points="34.8,29.3 18.6,29.3 
	22.8,33.4 16.5,33.4 9.8,26.4 16.5,19.9 22.6,19.9 18.6,24.5 34.8,24.5 "/>
</svg>
