<?xml version="1.0" encoding="utf-8"?>
<!-- Generator: Adobe Illustrator 18.1.1, SVG Export Plug-In . SVG Version: 6.00 Build 0)  -->
<svg version="1.1" id="图层_1" xmlns="http://www.w3.org/2000/svg" xmlns:xlink="http://www.w3.org/1999/xlink" x="0px" y="0px"
	 width="43.8" height="180" enable-background="new 0 0 43.8 180" xml:space="preserve">
<rect y="-0.3" fill="#FFFFFF" width="43.8" height="180.3"/>
<rect x="2" y="1.6" fill="#A09F9F" width="39.8" height="176.6"/>
<circle fill="#FFFFFF" cx="22.3" cy="28" r="17.9"/>
<circle fill="#FFFFFF" cx="21.9" cy="87.1" r="17.9"/>
<circle fill="#FFFFFF" cx="21.9" cy="151.4" r="17.9"/>
<polygon fill="#FDD402" stroke="#FFFFFF" stroke-width="3.685039e-003" stroke-miterlimit="2.4142" points="19.6,99.6 19.7,83.3 
	15.5,87.5 15.5,81.2 22.6,74.5 29.1,81.3 29.1,87.3 24.4,83.3 24.4,99.6 "/>
<polygon fill="#11713B" stroke="#FFFFFF" stroke-width="3.685039e-003" stroke-miterlimit="2.4142" points="20.2,163.5 20.2,147.2 
	16.1,151.4 16.1,145.1 23.1,138.4 29.7,145.2 29.7,151.2 25,147.3 25,163.5 "/>
<polygon fill="#D52328" stroke="#FFFFFF" stroke-width="3.685039e-003" stroke-miterlimit="2.4142" points="19.5,40.6 19.6,24.4 
	15.4,28.5 15.5,22.3 22.5,15.5 29.1,22.3 29.1,28.4 24.4,24.4 24.4,40.7 "/>
</svg>
