<?xml version="1.0" encoding="utf-8"?>
<!-- Generator: Adobe Illustrator 18.1.1, SVG Export Plug-In . SVG Version: 6.00 Build 0)  -->
<svg version="1.1" id="图层_1" xmlns="http://www.w3.org/2000/svg" xmlns:xlink="http://www.w3.org/1999/xlink" x="0px" y="0px"
	 width="43.8" height="180" enable-background="new 0 0 43.8 180" xml:space="preserve">
<rect fill="#FFFFFF" width="43.8" height="180"/>
<rect x="2.7" y="1.9" fill="#A09F9F" width="38.8" height="175.9"/>
<circle fill="#FFFFFF" cx="21.9" cy="26.6" r="17.9"/>
<circle fill="#FFFFFF" cx="21.9" cy="88.1" r="17.9"/>
<circle fill="#FFFFFF" cx="22.3" cy="151.4" r="17.9"/>
<polygon fill="#FDD402" stroke="#FFFFFF" stroke-width="3.685039e-003" stroke-miterlimit="2.4142" points="9.9,85.4 26.1,85.5 
	21.9,81.3 28.2,81.3 34.9,88.4 28.1,94.9 22.1,94.9 26,90.2 9.8,90.2 "/>
<polygon fill="#11713B" stroke="#FFFFFF" stroke-width="3.685039e-003" stroke-miterlimit="2.4142" points="10.7,148.3 26.9,148.3 
	22.8,144.2 29.1,144.2 35.7,151.3 29,157.8 22.9,157.8 26.9,153.1 10.6,153.1 "/>
<polygon fill="#D52328" stroke="#FFFFFF" stroke-width="3.685039e-003" stroke-miterlimit="2.4142" points="9.4,24 25.6,24 
	21.4,19.8 27.8,19.8 34.4,26.9 27.7,33.4 21.6,33.4 25.6,28.7 9.3,28.7 "/>
</svg>
