<?xml version="1.0" encoding="utf-8"?>
<!-- Generator: Adobe Illustrator 18.1.1, SVG Export Plug-In . SVG Version: 6.00 Build 0)  -->
<svg version="1.1" id="图层_1" xmlns="http://www.w3.org/2000/svg" xmlns:xlink="http://www.w3.org/1999/xlink" x="0px" y="0px"
	 width="43.8" height="180" enable-background="new 0 0 43.8 180" xml:space="preserve">
<rect x="0" fill="#FFFFFF" width="43.8" height="180"/>
<rect x="1.8" y="2.4" fill="#A09F9F" width="39.9" height="175.6"/>
<circle fill="#FFFFFF" cx="21.9" cy="25.7" r="17.7"/>
<circle fill="#FFFFFF" cx="21.9" cy="87.2" r="17.7"/>
<circle fill="#FFFFFF" cx="22.3" cy="151.2" r="17.7"/>
<path fill="#D62329" d="M29.6,36.1h-3.8v-15C25.4,16,19.4,16,18.6,20v8.8l4-4.2l-0.4,5.2l-5.6,6.4l-5.4-5.7V25l3.8,4.3l-0.4-9.9
	c2.7-7.3,12.1-8.2,14.9-0.5L29.6,36.1L29.6,36.1z"/>
<path fill="#FCDA00" d="M29.1,98.5h-3.7V83.9c-0.4-5-6.3-5-7-1.1v8.6l3.9-4.1l-0.4,5.1l-5.4,6.1L11.2,93v-5.4l3.7,4.1L14.5,82
	c2.6-7.1,11.8-8,14.5-0.5L29.1,98.5L29.1,98.5z"/>
<path fill="#19A64A" d="M30.5,162.9h-3.8v-15c-0.4-5.1-6.4-5.1-7.2-1.1v8.8l4-4.2l-0.4,5.2l-5.5,6.2l-5.4-5.7v-5.4L16,156l-0.4-9.9
	c2.7-7.3,12.1-8.2,14.9-0.5V162.9L30.5,162.9z"/>
</svg>
