<?xml version="1.0" encoding="utf-8"?>
<!-- Generator: Adobe Illustrator 18.1.1, SVG Export Plug-In . SVG Version: 6.00 Build 0)  -->
<svg version="1.1" id="图层_1" xmlns="http://www.w3.org/2000/svg" xmlns:xlink="http://www.w3.org/1999/xlink" x="0px" y="0px"
	width="100" height="100" enable-background="new 0 0 100 100" xml:space="preserve">
<g>
	<rect x="53.9" y="62.8" fill="#F8991D" width="1.9" height="1.5"/>
	<rect x="48.9" y="62.8" fill="#F8991D" width="1.9" height="1.5"/>
	<path fill="#F4AB1C" d="M3.6,82.8L46.2,8.3c0.9-1.4,2.6-2.5,4.3-2.5c-1.7,0-3.4,1.1-4.3,2.5L3.6,82.8c-2.7,4.7-2.8,8.5,1,9.2l0,0
		C0.7,91.3,0.9,87.5,3.6,82.8z"/>
	<path fill="#F4AB1C" d="M54.9,72.4c0.8-0.4,1.6-1,2.5-1.7h-4.6C53.3,71.3,54,71.8,54.9,72.4z"/>
	<rect x="58.9" y="62.8" fill="#F8991D" width="1.8" height="1.5"/>
	<path fill="#F4AB1C" d="M50.3,52.6c0,0.3,0,0.7,0,1h8.8c0-0.4,0-0.7,0-1H50.3z"/>
	<rect x="50.3" y="56.1" fill="#F8991D" width="8.8" height="0.8"/>
	<path fill="#F4AB1C" d="M10,84.9h80.4L50.2,15.2L10,84.9z M39.3,56.5c0,2.8-0.1,5.3-0.3,7.4c-1.4,0-2.5,0-3.4,0.1
		c0.3-1.3,0.5-4.3,0.5-9c1,0.2,2,0.2,3.3,0.2C39.3,55.6,39.3,56,39.3,56.5z M63.2,78.4c-2.7-0.3-5.6-1.1-8.4-2.3
		c-2.8,1.1-4.6,1.7-5.5,1.8C48,78,46.9,78.2,46,78.5c-0.3-1.2-0.9-2.4-1.5-3.4c2.4,0,4.7-0.4,6.9-1.1c-1-1-1.8-1.8-2.4-2.5
		c0.4-0.2,0.8-0.4,1.1-0.6c-1.5,0-2.8,0.1-3.9,0.1v-3l15.9,0.1l1,1.6c-1.3,1.6-2.9,3.1-4.7,4.4c1.3,0.5,3.3,0.8,6,0.9
		C63.6,76.6,63.2,77.7,63.2,78.4z M64,67c-0.8-0.1-1.5-0.1-2.2-0.1c-9.5,0-14.8,0.1-16.2,0.1c0.1-2.6,0.1-4.8,0-6.8
		c5.1,0.2,11.3,0.2,18.4,0C63.9,62.2,63.9,64.4,64,67z M62.5,59.4c-0.4,0-0.9-0.1-1.2-0.1l-14.3,0.1c0-0.2,0-0.3,0-0.4
		c-1,0.6-1.7,1-2.2,1.5c-0.5-1.3-1-2.4-1.5-3.3L43.4,78h-3.6c0-0.2,0-0.4,0-0.6l0-27.7h3.6l-0.1,5.9c0.6-0.2,1.3-0.6,2-1
		c0.8,1.2,1.3,2.3,1.7,3.4c0-3.1-0.1-5.7-0.2-8h15.6C62.3,52.6,62.3,55.8,62.5,59.4z"/>
	<path fill="#010101" d="M96,81.2L54.2,8.3c-1-1.8-2.4-2.5-3.7-2.5c-1.7,0-3.4,1.1-4.3,2.5L3.6,82.8c-2.7,4.7-2.8,8.5,1,9.2h90.4
		l0,0C101.4,92.1,98.9,85.7,96,81.2z M10,84.9l40.2-69.7l40.2,69.7H10z"/>
	<path fill="#010101" d="M46.8,49.9c0.1,2.3,0.1,4.9,0.2,8c-0.4-1.1-0.9-2.2-1.7-3.4c-0.7,0.5-1.4,0.8-2,1l0.1-5.9h-3.6l0,27.7
		c0,0.2,0,0.4,0,0.6h3.6l-0.1-20.8c0.5,0.9,1,2,1.5,3.3c0.5-0.4,1.2-0.9,2.2-1.5c0,0.1,0,0.3,0,0.4l14.3-0.1c0.4,0,0.8,0,1.2,0.1
		c-0.1-3.6-0.1-6.8,0-9.4L46.8,49.9L46.8,49.9z M59.1,56.9h-8.8v-0.8h8.8V56.9z M50.3,53.6c0-0.4,0-0.7,0-1h8.8c0,0.3,0,0.7,0,1
		H50.3z"/>
	<path fill="#010101" d="M45.6,60.1c0.1,2,0.1,4.3,0,6.8c1.3-0.1,6.7-0.1,16.2-0.1c0.7,0,1.4,0,2.2,0.1c-0.1-2.5-0.1-4.8,0-6.8
		C56.9,60.3,50.8,60.3,45.6,60.1z M50.8,64.4h-1.9v-1.5h1.9V64.4z M55.9,64.4h-1.9v-1.5h1.9V64.4z M60.7,64.4h-1.8v-1.5h1.8V64.4z"
		/>
	<path fill="#010101" d="M36,55c0,4.7-0.2,7.7-0.5,9c0.9-0.1,2-0.1,3.4-0.1c0.2-2.1,0.3-4.6,0.3-7.4c0-0.5,0-0.9,0-1.4
		C38.1,55.2,37,55.1,36,55z"/>
	<path fill="#010101" d="M63.1,69.5l-1-1.6l-15.9-0.1v3c1-0.1,2.3-0.1,3.9-0.1c-0.3,0.2-0.7,0.4-1.1,0.6c0.6,0.7,1.4,1.6,2.4,2.5
		c-2.2,0.7-4.5,1.1-6.9,1.1c0.7,1.1,1.2,2.3,1.5,3.4c0.9-0.2,2-0.4,3.2-0.7c0.9-0.1,2.7-0.7,5.5-1.8c2.8,1.2,5.7,2,8.4,2.3
		c0.1-0.6,0.5-1.8,1.2-3.5c-2.7-0.1-4.7-0.4-6-0.9C60.2,72.6,61.8,71.1,63.1,69.5z M54.9,72.4c-0.9-0.6-1.6-1.1-2.2-1.7h4.6
		C56.5,71.4,55.6,72,54.9,72.4z"/>
</g>
</svg>
