<?xml version="1.0" encoding="utf-8"?>
<!-- Generator: Adobe Illustrator 18.1.1, SVG Export Plug-In . SVG Version: 6.00 Build 0)  -->
<svg version="1.1" id="图层_1" xmlns="http://www.w3.org/2000/svg" xmlns:xlink="http://www.w3.org/1999/xlink" x="0px" y="0px"
	width="100" height="100" enable-background="new 0 0 100 100" xml:space="preserve">
<g>
	<path fill="#F4AB1C" d="M10.4,84.7h80.1l-40-69.4L10.4,84.7z M59.3,63.9l0.1-4.6l-3.7,3l0-4.1l5.9-5.9l5.2,5.3v4.8L63.4,59l0,8.4
		c-0.4,2.8-2.1,3.9-4.9,3.2c-1.6,0.4-4.1-0.7-4.1,1.8l0.1,7h-7.8l0-6.4c0-1.2-0.5-2-1.7-2.1l-3.4,0c-2.3-0.1-3.9-1-4-3.4l0-8l-3.2,3
		v-5.2l5.3-5.2l6,5.6l0,4.9l-3.9-3l0,3.9c-0.3,3.1,0.8,4.3,3.9,4c2.1-0.2,3.8,0.6,5.2,2.5c0.7-2.1,2.5-2.4,4.4-2.4
		C58.2,67.5,59.5,66.3,59.3,63.9z M46.2,36.6h8.1C54.3,60.5,46.2,60.5,46.2,36.6z"/>
	<path fill="#010101" d="M96,81L54.4,8.5c-2.4-4.1-6.3-2.5-8,0L4,82.6c-2.7,4.7-2.8,8.4,1,9.2h90l0,0c1.3,0,2.3-0.2,2.9-0.7
		c0.2-0.1,0.3-0.2,0.4-0.3c0.4-0.4,0.6-0.8,0.7-1.3c0-0.1,0-0.1,0-0.2C99.3,87,97.7,83.7,96,81z M10.4,84.7l40-69.4l40,69.4H10.4z"
		/>
	<path fill="#010101" d="M54.3,36.6h-8.1C46.2,60.5,54.3,60.5,54.3,36.6z"/>
	<path fill="#010101" d="M55.2,67.5c-1.8,0-3.7,0.3-4.4,2.4c-1.4-1.9-3.1-2.7-5.2-2.5c-3.1,0.3-4.3-0.9-3.9-4l0-3.9l3.9,3l0-4.9
		l-6-5.6l-5.3,5.2v5.2l3.2-3l0,8c0.1,2.5,1.7,3.3,4,3.4l3.4,0c1.2,0.1,1.7,0.9,1.7,2.1l0,6.4h7.8l-0.1-7c0-2.5,2.5-1.4,4.1-1.8
		c2.9,0.6,4.5-0.4,4.9-3.2l0-8.4l3.4,3.3v-4.8l-5.2-5.3l-5.9,5.9l0,4.1l3.7-3l-0.1,4.6C59.5,66.3,58.2,67.5,55.2,67.5z"/>
</g>
</svg>
