<?xml version="1.0" encoding="utf-8"?>
<!-- Generator: Adobe Illustrator 18.1.1, SVG Export Plug-In . SVG Version: 6.00 Build 0)  -->
<svg version="1.1" id="图层_1" xmlns="http://www.w3.org/2000/svg" xmlns:xlink="http://www.w3.org/1999/xlink" x="0px" y="0px"
	 width="100" height="100" enable-background="new 0 0 100 100" xml:space="preserve">
<g>
	<path fill="#F4AB1C" d="M3.7,82.9L46.4,8.2c0.9-1.4,2.6-2.5,4.3-2.5c-1.7,0-3.4,1.1-4.3,2.5L3.7,82.9c-2.7,4.7-2.9,8.5,1,9.2l0,0
		C0.8,91.4,1,87.6,3.7,82.9z"/>
	<path fill="#F4AB1C" d="M10.1,85h80.6L50.4,15.1L10.1,85z M47,79.6l0-6.4c0-1.2-0.5-2-1.7-2.1l-3.5,0c-2.3-0.1-3.9-1-4.1-3.5l0-8
		l-3.2,3v-5.2l5.4-5.2l6,5.7l0,4.9l-3.9-3l0,3.9c-0.3,3.1,0.8,4.4,3.9,4c2.3-0.3,3.9,0.8,5.2,2.5v9.5L47,79.6L47,79.6z M47.1,36.5
		h8.2C55.2,60.6,47.1,60.6,47.1,36.5z"/>
	<path fill="#010101" d="M96.3,81.3L54.4,8.2c-1-1.8-2.4-2.5-3.7-2.5c-1.7,0-3.4,1.1-4.3,2.5L3.7,82.9c-2.7,4.7-2.9,8.5,1,9.2h90.6
		l0,0C101.8,92.2,99.2,85.8,96.3,81.3z M10.1,85l40.3-69.9L90.7,85L10.1,85L10.1,85z"/>
	<path fill="#010101" d="M55.2,36.5h-8.2C47.1,60.6,55.2,60.6,55.2,36.5z"/>
	<path fill="#010101" d="M46.1,67.5c-3.1,0.3-4.3-0.9-3.9-4l0-3.9l3.9,3l0-4.9l-6-5.7l-5.4,5.2v5.2l3.2-3l0,8
		c0.1,2.5,1.7,3.4,4.1,3.5l3.5,0c1.2,0.1,1.7,0.9,1.7,2.1l0,6.4h4.3V70C50,68.3,48.4,67.2,46.1,67.5z"/>
</g>
</svg>
