<?xml version="1.0" encoding="utf-8"?>
<!-- Generator: Adobe Illustrator 18.1.1, SVG Export Plug-In . SVG Version: 6.00 Build 0)  -->
<svg version="1.1" id="图层_1" xmlns="http://www.w3.org/2000/svg" xmlns:xlink="http://www.w3.org/1999/xlink" x="0px" y="0px"
	 width="100" height="100" enable-background="new 0 0 100 100" xml:space="preserve">
<g>
	<path fill="#F4AB1C" d="M10.1,84.9h80.3L50.3,15.2L10.1,84.9z M58.4,63.5l0-3.9l-3.9,3l0-4.9l6-5.6l5.4,5.2v5.2l-3.2-3l0,8
		c-0.1,2.5-1.7,3.3-4,3.5l-3.4,0c-1.2,0.1-1.7,0.9-1.7,2.1l0,6.4h-4.3V70c1.3-1.7,2.9-2.8,5.2-2.5C57.6,67.8,58.7,66.6,58.4,63.5z
		 M45.6,36.6h8.1C53.8,60.5,45.6,60.5,45.6,36.6z"/>
	<path fill="#F4AB1C" d="M3.7,82.8L46.3,8.4c0.9-1.4,2.6-2.5,4.3-2.5c-1.7,0-3.4,1.1-4.3,2.5L3.7,82.8c-2.7,4.7-2.8,8.5,1,9.2l0,0
		C0.9,91.2,1,87.4,3.7,82.8z"/>
	<path fill="#010101" d="M96,81.2L54.3,8.4c-1-1.8-2.4-2.5-3.7-2.5c-1.7,0-3.4,1.1-4.3,2.5L3.7,82.8c-2.7,4.7-2.8,8.5,1,9.2h90.2
		l0,0C101.4,92,98.8,85.6,96,81.2z M10.1,84.9l40.1-69.6l40.1,69.6H10.1z"/>
	<path fill="#010101" d="M53.8,36.6h-8.1C45.6,60.5,53.8,60.5,53.8,36.6z"/>
	<path fill="#010101" d="M54.5,67.5c-2.3-0.3-3.9,0.8-5.2,2.5v9.5h4.3l0-6.4c0-1.2,0.5-2,1.7-2.1l3.4,0c2.3-0.1,3.9-1,4-3.5l0-8
		l3.2,3v-5.2l-5.4-5.2l-6,5.6l0,4.9l3.9-3l0,3.9C58.7,66.6,57.6,67.8,54.5,67.5z"/>
</g>
</svg>
