<?xml version="1.0" encoding="utf-8"?>
<!-- Generator: Adobe Illustrator 18.1.1, SVG Export Plug-In . SVG Version: 6.00 Build 0)  -->
<svg version="1.1" id="图层_1" xmlns="http://www.w3.org/2000/svg" xmlns:xlink="http://www.w3.org/1999/xlink" x="0px" y="0px"
	 width="100" height="100" enable-background="new 0 0 100 100" xml:space="preserve">
<g>
	<polygon fill="#F4AB1C" points="40.3,52 38.1,52.1 38.9,54 	"/>
	<path fill="#F4AB1C" d="M32.3,79h10V67.6l-3.1-3.2C36.3,67.9,34,72.9,32.3,79z"/>
	<path fill="#F4AB1C" d="M2.8,83.2L45.8,8c0.9-1.4,2.6-2.5,4.3-2.5c-1.7,0-3.4,1.1-4.3,2.5L2.8,83.2c-2.7,4.7-2.9,8.6,1,9.3l0,0
		C0,91.7,0.1,87.9,2.8,83.2z"/>
	<path fill="#F4AB1C" d="M47.4,65.8v13.1h1.9c-0.1-1.5,1.1-2.4,2.9-3c-1.4-3.7,2.2-4.5,8.2-3.9v-1l-3.7-2l-0.2-1.4L45,62.2
		L47.4,65.8z"/>
	<path fill="#F4AB1C" d="M9.3,85.3h81.2L49.9,14.9L9.3,85.3z M61.2,65.8c-2.3-4-1.1-6.4,3.8-7.3c-0.3-4.2,1.8-3.5,2.7-5.2l18.2,30.4
		H12.6l2.2-4.3l14-0.2c0.3-8.6,3.4-15.7,7.7-22.1c-4-3.8-4-6.2,0.1-7.8c6.1-2.8,9.9-2.6,11.5,1.3l1.4,3.9c0.2,2.7,1.3,4.9,3.3,6.7
		l-0.1,2.5l4.6,2.3C58.6,64.5,59.7,64.7,61.2,65.8z M52.8,44.3c0,1.9-1.6,3.4-3.5,3.4s-3.5-1.5-3.5-3.4c0-1.9,1.6-3.4,3.5-3.4
		C51.3,40.9,52.8,42.4,52.8,44.3z"/>
	<polygon fill="#F4AB1C" points="46.5,57.1 44.8,59.9 48,61.5 	"/>
	<path fill="#010101" d="M96.1,81.6L53.9,8c-1-1.8-2.4-2.5-3.7-2.5c-1.7,0-3.4,1.1-4.3,2.5l-43,75.2c-2.7,4.7-2.9,8.6,1,9.3H95l0,0
		C101.6,92.6,99,86.1,96.1,81.6z M9.3,85.3l40.6-70.4l40.6,70.4H9.3z"/>
	<ellipse fill="#010101" cx="49.4" cy="44.3" rx="3.5" ry="3.4"/>
	<path fill="#010101" d="M52.8,61.1c-2-1.8-3.1-4-3.3-6.7l-1.4-3.9c-1.6-3.9-5.4-4.1-11.5-1.3c-4.1,1.6-4.1,4-0.1,7.8
		c-4.3,6.4-7.4,13.5-7.7,22.1l-14,0.2l-2.2,4.3h73.3L67.6,53.3c-0.9,1.7-3,1-2.7,5.2c-4.9,0.9-6.1,3.3-3.8,7.3
		c-1.5-1.1-2.6-1.3-3.9,0.1l-4.6-2.3L52.8,61.1z M40.3,52l-1.4,2l-0.8-1.8L40.3,52z M42.3,79h-10c1.7-6.1,4-11.1,7-14.6l3.1,3.2V79z
		 M46.5,57.1l1.5,4.4l-3.2-1.7L46.5,57.1z M56.5,67.6l0.2,1.4l3.7,2v1c-6-0.5-9.6,0.3-8.2,3.9c-1.8,0.6-3,1.5-2.9,3h-1.9V65.8
		L45,62.2L56.5,67.6z"/>
</g>
</svg>
