<?xml version="1.0" encoding="utf-8"?>
<!-- Generator: Adobe Illustrator 18.1.1, SVG Export Plug-In . SVG Version: 6.00 Build 0)  -->
<svg version="1.1" id="图层_1" xmlns="http://www.w3.org/2000/svg" xmlns:xlink="http://www.w3.org/1999/xlink" x="0px" y="0px"
	 width="100" height="100" enable-background="new 0 0 100 100" xml:space="preserve">
<g>
	<path fill="#F4AB1C" d="M9.3,84.6h80.2L49.4,15L9.3,84.6z M51.6,77.7c-1.4,0.9-2.9,0.9-4.5,0.1c-1.5-0.8-2.4-2.1-2.6-3.8
		c-0.2-1.7,0.5-3,2.2-4c1.6-1,3.2-1,4.7,0c1.5,1,2.3,2.3,2.3,3.9C53.8,75.6,53,76.8,51.6,77.7z M52.9,38.4c-0.2,1.9-0.7,6.9-1.5,15
		c-0.8,8.1-1.5,12.2-2.2,12.2s-1.4-4.1-2.3-12.2c-0.9-8.1-1.4-13.2-1.5-15.3c-0.1-2,0.6-3.5,2-4.1c1.4-0.7,2.8-0.6,3.9,0.3
		C52.6,35.2,53.1,36.6,52.9,38.4z"/>
	<path fill="#010101" d="M95.1,80.9L53.4,8.2c-2.3-4.1-6.4-2.5-8,0L3,82.5c-1.3,2.2-2,4.2-2,5.8c0,0.1,0,0.2,0,0.3
		c0,0.3,0.1,0.6,0.2,0.9c0.1,0.3,0.2,0.5,0.3,0.7c0.1,0.2,0.2,0.3,0.3,0.4C2.3,91.1,3,91.5,4,91.7h90.1
		C100.6,91.7,98,85.3,95.1,80.9z M9.3,84.6L49.4,15l40.1,69.6H9.3z"/>
	<path fill="#010101" d="M51.4,70.1c-1.5-1-3.1-1-4.7,0c-1.6,1-2.3,2.3-2.2,4c0.2,1.7,1,3,2.6,3.8c1.5,0.8,3,0.8,4.5-0.1
		c1.4-0.9,2.2-2.1,2.2-3.8C53.8,72.4,53,71.1,51.4,70.1z"/>
	<path fill="#010101" d="M47.5,34c-1.4,0.7-2.1,2.1-2,4.1c0.1,2.1,0.6,7.2,1.5,15.3c0.9,8.1,1.7,12.2,2.3,12.2
		c0.6,0,1.4-4.1,2.2-12.2c0.8-8.1,1.3-13.1,1.5-15c0.2-1.9-0.3-3.3-1.5-4.2C50.3,33.4,49,33.3,47.5,34z"/>
</g>
</svg>
