<?xml version="1.0" encoding="utf-8"?>
<!-- Generator: Adobe Illustrator 18.1.1, SVG Export Plug-In . SVG Version: 6.00 Build 0)  -->
<svg version="1.1" id="图层_1" xmlns="http://www.w3.org/2000/svg" xmlns:xlink="http://www.w3.org/1999/xlink" x="0px" y="0px"
	 width="100" height="100" enable-background="new 0 0 100 100" xml:space="preserve">
<g>
	<path fill="#F4AB1C" d="M9.7,84.6H90L49.9,15L9.7,84.6z M57.7,42.8l4.5,5.7l-9,9.9l-0.1,20.9h-7.4V58.4l-9.2-10.1l5.1-5.5L50,51
		L57.7,42.8z"/>
	<path fill="#010101" d="M95.6,81L53.9,8.2c-2.4-4.1-6.4-2.5-8,0L3.4,82.5c-0.3,0.4-0.5,0.9-0.7,1.3c-0.8,1.5-1.2,3-1.3,4.2
		c0,0.2,0,0.4,0,0.6c0,0.6,0.2,1.1,0.5,1.6C1.9,90.3,2,90.4,2,90.4c0.4,0.5,0.9,0.9,1.7,1.1c0.2,0.1,0.4,0.1,0.7,0.2h90.2
		C101,91.8,98.4,85.4,95.6,81z M9.7,84.6L49.9,15L90,84.6H9.7z"/>
	<polygon fill="#010101" points="36.5,48.3 45.7,58.4 45.7,79.3 53.1,79.3 53.2,58.4 62.2,48.5 57.7,42.8 50,51 41.7,42.8 	"/>
</g>
</svg>
