<?xml version="1.0" encoding="utf-8"?>
<!-- Generator: Adobe Illustrator 18.1.1, SVG Export Plug-In . SVG Version: 6.00 Build 0)  -->
<svg version="1.1" id="图层_1" xmlns="http://www.w3.org/2000/svg" xmlns:xlink="http://www.w3.org/1999/xlink" x="0px" y="0px"
	 width="100" height="100" enable-background="new 0 0 100 100" xml:space="preserve">
<line fill="none" stroke="#231815" stroke-width="0.216" stroke-miterlimit="22.9256" x1="101.9" y1="104.3" x2="-1.4" y2="104.3"/>
<path fill="#E41E26" d="M50.2,0.9c27.1,0,49.2,22.1,49.2,49.2S77.3,99.3,50.2,99.3S1,77.2,1,50.1C1,23,23.1,0.9,50.2,0.9L50.2,0.9z
	 M21.7,18.1L84,76.6c5.7-7.3,9.2-16.5,9.2-26.5c0-23.6-19.3-42.9-42.9-42.9C39.3,7.2,29.3,11.3,21.7,18.1L21.7,18.1z M79.1,81.9
	L16.7,23.3C10.8,30.6,7.3,40,7.3,50.1C7.3,73.7,26.6,93,50.2,93C61.3,93,71.4,88.8,79.1,81.9z"/>
<circle id="白色底图" fill="#FFFFFF" cx="50.3" cy="50" r="42.7"/>
</svg>
