<?xml version="1.0" encoding="utf-8"?>
<!-- Generator: Adobe Illustrator 18.1.1, SVG Export Plug-In . SVG Version: 6.00 Build 0)  -->
<svg version="1.1" id="图层_1" xmlns="http://www.w3.org/2000/svg" xmlns:xlink="http://www.w3.org/1999/xlink" x="0px" y="0px"
	 width="100" height="100" enable-background="new 0 0 100 100" xml:space="preserve">
<ellipse id="白底" fill="#FFFFFF" cx="49.8" cy="50.2" rx="43.5" ry="44"/>
<path fill="#E41E26" d="M49.9,0c27.5,0,49.9,22.4,49.9,49.9S77.4,99.8,49.9,99.8S0,77.4,0,49.9C0,22.4,22.4,0,49.9,0L49.9,0z
	 M21,17.4l63.1,59.3c5.8-7.4,9.3-16.7,9.3-26.8c0-24-19.6-43.5-43.5-43.5C38.8,6.4,28.7,10.6,21,17.4L21,17.4z M79.1,82.1L15.9,22.7
	c-6,7.5-9.6,16.9-9.6,27.2c0,24,19.6,43.5,43.5,43.5C61.1,93.4,71.4,89.1,79.1,82.1z"/>
<path fill="#231815" stroke="#231815" stroke-width="0.216" stroke-miterlimit="2.4142" d="M76.6,44.1l-3.4-10.9
	c-0.6-1.9-0.5-1.6-2.4-2.4c-12.7-5-26.2-5.4-40.7-0.5c-2.4,0.3-3.8,1.7-4.7,3.9c-0.8,5.7-2,10.6-4.5,12.3c-1.4,0.6-2.5,1.5-1.7,4.6
	l3.1,15.5l2.4,0l0,6.6c0,3,5.5,2.9,5.6,0v-6.8l39.4,0.1l0,6c0,4.3,6.4,4.2,6.4,0.1l0-6.1l2.5,0l1.5-15.2
	C80.9,48,79.7,45.6,76.6,44.1z M24.8,52.8c-1.4,0-2.6-1.2-2.6-2.6c0-1.4,1.2-2.6,2.6-2.6c1.4,0,2.6,1.2,2.6,2.6S26.3,52.8,24.8,52.8
	z M68.5,58.3H32.2v-3.4h36.3V58.3z M68.5,52.2H32.2c-0.6-1-1.1-2,0-3.4c11.7-2.1,23.8-2.1,36.3,0C69.2,50.4,69.1,51.5,68.5,52.2z
	 M27.3,43.1l2.1-8.4c4.9-4.2,34.8-5.8,40.3,0l2.3,8.4C57.2,41,42.3,41,27.3,43.1z M75.2,52.4c-1.4,0-2.6-1.2-2.6-2.6
	c0-1.4,1.2-2.6,2.6-2.6c1.4,0,2.6,1.2,2.6,2.6C77.8,51.2,76.6,52.4,75.2,52.4z"/>
</svg>
