<?xml version="1.0" encoding="utf-8"?>
<!-- Generator: Adobe Illustrator 18.1.1, SVG Export Plug-In . SVG Version: 6.00 Build 0)  -->
<svg version="1.1" id="图层_1" xmlns="http://www.w3.org/2000/svg" xmlns:xlink="http://www.w3.org/1999/xlink" x="0px" y="0px"
	 width="100" height="100" enable-background="new 0 0 100 100" xml:space="preserve">
<line fill="none" stroke="#231815" stroke-width="0.216" stroke-miterlimit="22.9256" x1="102" y1="104.9" x2="-2" y2="104.9"/>
<ellipse id="白底" fill="#FFFFFF" cx="49.9" cy="50.6" rx="43.2" ry="43.7"/>
<path fill="#E41E26" d="M50,0.8c27.3,0,49.6,22.3,49.6,49.6S77.3,99.9,50,99.9S0.4,77.6,0.4,50.3C0.4,23,22.7,0.8,50,0.8L50,0.8z
	 M21.3,18L84,76.9c5.8-7.3,9.2-16.6,9.2-26.6C93.2,26.5,73.8,7.1,50,7.1C39,7.1,28.9,11.2,21.3,18L21.3,18z M79,82.3l-62.7-59
	c-5.9,7.4-9.5,16.8-9.5,27c0,23.8,19.4,43.2,43.2,43.2C61.2,93.5,71.3,89.3,79,82.3z"/>
<g>
	<rect x="39" y="35" fill="#231815" width="13.2" height="10.8"/>
	<rect x="68.6" y="35" fill="#231815" width="13.2" height="10.8"/>
	<rect x="53.7" y="35" fill="#231815" width="13.2" height="10.8"/>
	<path fill="#231815" d="M28.7,58.5c-3.2,0-5.9,2.6-5.9,5.8c0,3.2,2.6,5.8,5.9,5.8s5.9-2.6,5.9-5.8C34.6,61.1,32,58.5,28.7,58.5z
		 M28.7,67.7c-1.9,0-3.5-1.6-3.5-3.4c0-1.9,1.6-3.4,3.5-3.4s3.5,1.6,3.5,3.4S30.6,67.7,28.7,67.7z"/>
	<path fill="#231815" d="M64.5,58.5c-3.2,0-5.9,2.6-5.9,5.8c0,3.2,2.6,5.8,5.9,5.8c3.2,0,5.9-2.6,5.9-5.8
		C70.3,61.1,67.7,58.5,64.5,58.5z M64.5,68.2c-2.2,0-4-1.8-4-4c0-2.2,1.8-4,4-4c2.2,0,4,1.8,4,4S66.7,68.2,64.5,68.2z"/>
	<path fill="#231815" d="M38.1,47.3l0.1-16.1l-11.2,0l-5.6,12.5l-4.6,4L20,58.4l-3.2,0v1.9h3.8c6.4-6.5,11.4-5.1,15.8,0h20
		c2.8-5.4,11.5-6.7,15.6,0h11.1v-13L38.1,47.3z M35.6,42.8H24.7l3.3-9.1h7.6V42.8z"/>
</g>
</svg>
