<?xml version="1.0" encoding="utf-8"?>
<!-- Generator: Adobe Illustrator 18.1.1, SVG Export Plug-In . SVG Version: 6.00 Build 0)  -->
<svg version="1.1" id="图层_1" xmlns="http://www.w3.org/2000/svg" xmlns:xlink="http://www.w3.org/1999/xlink" x="0px" y="0px"
	 width="100" height="100" enable-background="new 0 0 100 100" xml:space="preserve">
<circle fill="none" stroke="#CDCCCC" stroke-width="3.700000e-003" stroke-miterlimit="22.9256" cx="50.2" cy="51.5" r="48.3"/>
<circle id="白底" fill="#FFFFFF" stroke="#231815" stroke-width="3.700000e-003" stroke-miterlimit="22.9256" cx="49.9" cy="49.9" r="44.9"/>
<g>
	<path fill="#E41E26" d="M50,0.2c27.3,0,49.6,22.3,49.6,49.6S77.3,99.5,50,99.5S0.4,77.2,0.4,49.9S22.7,0.2,50,0.2L50,0.2z
		 M21.3,17.5l62.8,59c5.8-7.4,9.2-16.6,9.2-26.7C93.3,26,73.8,6.6,50,6.6C39,6.6,28.9,10.7,21.3,17.5L21.3,17.5z M79.1,81.9
		l-62.8-59c-5.9,7.4-9.5,16.8-9.5,27c0,23.8,19.4,43.3,43.3,43.3C61.2,93.1,71.4,88.9,79.1,81.9z"/>
</g>
<line fill="none" stroke="#E51E25" stroke-width="0.216" stroke-miterlimit="2.4142" x1="38.8" y1="51.8" x2="43" y2="55.5"/>
<g>
	<path fill="#231815" stroke="#231815" stroke-width="0.216" stroke-miterlimit="2.4142" d="M69.5,56.3c-3.6,0-6.6,2.9-6.6,6.5
		c0,3.6,3,6.5,6.6,6.5s6.6-2.9,6.6-6.5C76.1,59.2,73.1,56.3,69.5,56.3z M69.5,67.3c-2.5,0-4.6-2-4.6-4.5c0-2.5,2.1-4.5,4.6-4.5
		c2.5,0,4.6,2,4.6,4.5C74.1,65.3,72,67.3,69.5,67.3z"/>
	<path fill="#231815" stroke="#231815" stroke-width="0.216" stroke-miterlimit="2.4142" d="M82.3,50.8v-5H51.5l-0.1-17.3H35.6
		L30.3,43l-2.1,3.7l1,6.6c-4.6,0-8,1.6-10.3,4.8l2.6,0c1.5-1.7,4.1-2.3,6.8-1.8l-0.2,1.2c-0.6-0.2-1.2-0.3-1.8-0.3
		c-3.1,0-5.7,2.5-5.7,5.6c0,3.1,2.6,5.6,5.7,5.6c3.1,0,5.6-2.5,5.7-5.5l0.3,0.2h18.5l0-3.6l9.8,0H62c2.3-6.4,11.9-7.2,14.6,0l6.9,0
		v-8.8H82.3z M30.3,62.8c0,2.1-1.8,3.9-4,3.9s-4-1.8-4-3.9c0-2.1,1.8-3.9,4-3.9c0.4,0,0.8,0.1,1.2,0.2l-2,4.7
		c-0.2,0.4,0.4,1.3,1.8,0.1l1.8-3.2l1,0.7C30.2,61.9,30.3,62.4,30.3,62.8z M31.3,44l5.2-13.1h0.9l-3,13.1H31.3z M49.4,44.1H36.2
		L41.4,31h8.1V44.1z M60.6,50.8h-8.9v-4h8.9V50.8z M71.1,50.8h-8.9v-4h8.9V50.8z M81,50.8h-8.2v-4H81V50.8z"/>
</g>
</svg>
