<?xml version="1.0" encoding="utf-8"?>
<!-- Generator: Adobe Illustrator 18.1.1, SVG Export Plug-In . SVG Version: 6.00 Build 0)  -->
<svg version="1.1" id="图层_1" xmlns="http://www.w3.org/2000/svg" xmlns:xlink="http://www.w3.org/1999/xlink" x="0px" y="0px"
	 width="100" height="100" enable-background="new 0 0 100 100" xml:space="preserve">
<circle fill="none" stroke="#CDCCCC" stroke-width="3.700000e-003" stroke-miterlimit="22.9256" cx="50.2" cy="51.5" r="48.4"/>
<circle id="白底" fill="#FFFFFF" stroke="#231815" stroke-width="3.700000e-003" stroke-miterlimit="22.9256" cx="49.9" cy="49.9" r="45.1"/>
<g>
	<path fill="#E41E26" d="M50,0c27.4,0,49.8,22.4,49.8,49.8S77.4,99.7,50,99.7S0.2,77.3,0.2,49.9S22.6,0,50,0L50,0z M21.2,17.4
		l63,59.2c5.8-7.4,9.3-16.7,9.3-26.8C93.4,25.9,73.9,6.4,50,6.4C38.9,6.4,28.8,10.6,21.2,17.4L21.2,17.4z M79.2,82L16.1,22.7
		c-6,7.4-9.6,16.9-9.6,27.1c0,23.9,19.5,43.4,43.4,43.4C61.2,93.3,71.5,89,79.2,82z"/>
</g>
<g>
	<path fill="#231815" d="M77.7,42.4h5.7c0.4,0,0.7,0.3,0.7,0.7V47c0,0.4-0.3,0.7-0.7,0.7h-5.7v10.7l10.9-2.2V42
		c-0.6-1.9-1.8-3.3-4.2-3.8h-6.7L77.7,42.4L77.7,42.4z M72,42.4h5.7v-4.3H62.3v4.3H68c0.4,0,0.7,0.3,0.7,0.7V47
		c0,0.4-0.3,0.7-0.7,0.7h-5.7v11.5h0.8c0.5-7.7,9.5-7.9,10.6,0l3.9-0.8V47.7h-5.7c-0.4,0-0.7-0.3-0.7-0.7v-3.9
		C71.2,42.7,71.5,42.4,72,42.4z M62.3,38.2v4.3h-5.7c-0.4,0-0.7,0.3-0.7,0.7V47c0,0.4,0.3,0.7,0.7,0.7h5.7v11.5H46.9V47.7h5.7
		c0.4,0,0.7-0.3,0.7-0.7v-3.9c0-0.4-0.3-0.7-0.7-0.7h-5.7v-4.3L62.3,38.2L62.3,38.2z M46.9,38.2v4.3h-5.7c-0.4,0-0.7,0.3-0.7,0.7V47
		c0,0.4,0.3,0.7,0.7,0.7h5.7v11.5H34.2c-0.5-2.4-1.5-4-2.8-4.7v-6.8h5.3c0.4,0,0.7-0.3,0.7-0.7v-3.9c0-0.4-0.3-0.7-0.7-0.7h-5.3
		v-4.3H46.9z M31.4,38.2v4.3h-5.3c-0.4,0-0.7,0.3-0.7,0.7V47c0,0.4,0.3,0.7,0.7,0.7h5.3v6.8c-2.7-1.6-6.3,0.2-7.7,4.7h-4.3v-2.1
		c0.9,0,1.8-0.3,2.2-1.1V42.4h-2.2v-4.2H31.4z M19.4,38.2v4.2h-2.2v13.7c0.3,0.7,1.3,1.1,2.2,1.1v2.1h-7.2v-9.1l1.5-1.6v-7.6
		c0.1-1.5,1.2-2.3,3.1-2.7H19.4z"/>
	<path fill="none" stroke="#231815" stroke-width="0.216" stroke-miterlimit="22.9256" d="M72,42.4h11.5c0.4,0,0.7,0.3,0.7,0.7V47
		c0,0.4-0.3,0.7-0.7,0.7H72c-0.4,0-0.7-0.3-0.7-0.7v-3.9C71.2,42.7,71.5,42.4,72,42.4L72,42.4z M56.6,42.4H68c0.4,0,0.7,0.3,0.7,0.7
		V47c0,0.4-0.3,0.7-0.7,0.7H56.6c-0.4,0-0.7-0.3-0.7-0.7v-3.9C55.8,42.7,56.2,42.4,56.6,42.4L56.6,42.4z M41.2,42.4h11.5
		c0.4,0,0.7,0.3,0.7,0.7V47c0,0.4-0.3,0.7-0.7,0.7H41.2c-0.4,0-0.7-0.3-0.7-0.7v-3.9C40.4,42.7,40.8,42.4,41.2,42.4L41.2,42.4z
		 M26.1,42.4h10.6c0.4,0,0.7,0.3,0.7,0.7V47c0,0.4-0.3,0.7-0.7,0.7H26.1c-0.4,0-0.7-0.3-0.7-0.7v-3.9C25.4,42.7,25.7,42.4,26.1,42.4
		L26.1,42.4z M17.2,42.4h4.5v13.7c-0.9,1.5-3.8,1.4-4.5,0V42.4L17.2,42.4z M88.6,56.2l-14.8,3c-1.1-7.9-10.2-7.7-10.6,0H34.2
		c-1.4-7.4-8.5-6.7-10.5,0H12.2v-9.1l1.5-1.6v-7.6c0.1-1.5,1.2-2.3,3.1-2.7h67.6c2.4,0.5,3.5,2,4.2,3.8L88.6,56.2L88.6,56.2z"/>
</g>
<g>
	<path fill="#231815" d="M29.2,55.3c2.1,0,3.8,1.7,3.8,3.8c0,2.1-1.7,3.8-3.8,3.8l0,0v-1.7l0,0c1.2,0,2.1-0.9,2.1-2.1
		c0-1.2-0.9-2.1-2.1-2.1l0,0V55.3L29.2,55.3z M29.2,62.8c-2.1,0-3.8-1.7-3.8-3.8s1.7-3.8,3.8-3.8V57c-1.2,0-2.1,0.9-2.1,2.1
		c0,1.2,0.9,2.1,2.1,2.1V62.8z"/>
	<path fill="none" stroke="#231815" stroke-width="0.216" stroke-miterlimit="22.9256" d="M29.2,55.3c2.1,0,3.8,1.7,3.8,3.8
		c0,2.1-1.7,3.8-3.8,3.8c-2.1,0-3.8-1.7-3.8-3.8C25.4,57,27.1,55.3,29.2,55.3L29.2,55.3z M29.2,57c1.2,0,2.1,0.9,2.1,2.1
		c0,1.2-0.9,2.1-2.1,2.1c-1.2,0-2.1-0.9-2.1-2.1C27.1,57.9,28,57,29.2,57z"/>
</g>
<g>
	<path fill="#231815" d="M68.6,55.3c2.1,0,3.8,1.7,3.8,3.8c0,2.1-1.7,3.8-3.8,3.8l0,0v-1.7l0,0c1.2,0,2.1-0.9,2.1-2.1
		c0-1.2-0.9-2.1-2.1-2.1l0,0V55.3L68.6,55.3z M68.6,62.8c-2.1,0-3.8-1.7-3.8-3.8s1.7-3.8,3.8-3.8V57c-1.2,0-2.1,0.9-2.1,2.1
		c0,1.2,0.9,2.1,2.1,2.1V62.8z"/>
	<path fill="none" stroke="#231815" stroke-width="0.216" stroke-miterlimit="22.9256" d="M68.6,55.3c2.1,0,3.8,1.7,3.8,3.8
		c0,2.1-1.7,3.8-3.8,3.8c-2.1,0-3.8-1.7-3.8-3.8C64.8,57,66.5,55.3,68.6,55.3L68.6,55.3z M68.6,57c1.2,0,2.1,0.9,2.1,2.1
		c0,1.2-0.9,2.1-2.1,2.1s-2.1-0.9-2.1-2.1C66.5,57.9,67.4,57,68.6,57z"/>
</g>
</svg>
