<?xml version="1.0" encoding="utf-8"?>
<!-- Generator: Adobe Illustrator 18.1.1, SVG Export Plug-In . SVG Version: 6.00 Build 0)  -->
<svg version="1.1" id="图层_1" xmlns="http://www.w3.org/2000/svg" xmlns:xlink="http://www.w3.org/1999/xlink" x="0px" y="0px"
	 width="100" height="100" enable-background="new 0 0 100 100" xml:space="preserve">
<circle fill="none" stroke="#CDCCCC" stroke-width="3.700000e-003" stroke-miterlimit="22.9256" cx="50.2" cy="51.5" r="48.2"/>
<circle id="白底" fill="#FFFFFF" stroke="#231815" stroke-width="3.700000e-003" stroke-miterlimit="22.9256" cx="49.9" cy="49.9" r="44.8"/>
<g>
	<path fill="#E41E26" d="M50,0.3c27.3,0,49.5,22.3,49.5,49.5S77.3,99.4,50,99.4S0.5,77.1,0.5,49.9S22.7,0.3,50,0.3L50,0.3z
		 M21.3,17.6L84,76.5c5.8-7.3,9.2-16.6,9.2-26.6C93.2,26.1,73.8,6.6,50,6.6C39,6.7,29,10.8,21.3,17.6L21.3,17.6z M79,81.8L16.3,22.9
		c-5.9,7.4-9.5,16.8-9.5,27C6.8,73.6,26.2,93,50,93C61.2,93,71.3,88.8,79,81.8z"/>
</g>
<g>
	<path fill="#231815" stroke="#231815" stroke-width="0.216" stroke-miterlimit="2.4142" d="M31.2,57.8c-2.5,0-4.6,2-4.6,4.6
		c0,2.5,2.1,4.6,4.6,4.6s4.6-2,4.6-4.6C35.8,59.8,33.7,57.8,31.2,57.8z M31.2,64.8c-1.4,0-2.5-1.1-2.5-2.5c0-1.4,1.1-2.5,2.5-2.5
		c1.4,0,2.5,1.1,2.5,2.5C33.7,63.7,32.6,64.8,31.2,64.8z"/>
	<path fill="#231815" stroke="#231815" stroke-width="0.216" stroke-miterlimit="2.4142" d="M81.5,46.2c-1-7.8-4.8-10.9-10-11.8
		H31.2c-4.2-0.3-7.2,1.5-9.5,4.9h0v0c-2.1,3.2-3.4,7.7-4.2,13.2c-0.2,9.3,3.5,10,7.9,9.5c0.7-7.9,11.1-8,11.5,0h25.3
		c0.3-6.3,10.9-9,11.6,0h6.3C83,61,83.5,55.7,81.5,46.2z M19.7,55.8c0,1.2-0.4,2.2-1,2.2h0c-0.5,0-1-1-1-2.2v-0.7
		c0-1.2,0.4-2.2,1-2.2h0c0.5,0,1,1,1,2.2V55.8z M21.6,48.3c-0.9-3.7,2.7-8.2,4.6-7.7h9.9v7.7H21.6z M36.5,52.4h-2v-2.2h2V52.4z
		 M56.5,52.4h-1.3v-2.2h1.3L56.5,52.4L56.5,52.4z M56.8,48.3H38.3v-7.7h18.4V48.3z M59.4,48.3v-7.7h17.5l2.2,7.7H59.4z"/>
	<path fill="#231815" stroke="#231815" stroke-width="0.216" stroke-miterlimit="2.4142" d="M68.2,57.8c-2.5,0-4.6,2-4.6,4.6
		c0,2.5,2.1,4.6,4.6,4.6c2.5,0,4.6-2,4.6-4.6C72.8,59.8,70.8,57.8,68.2,57.8z M68.2,64.8c-1.4,0-2.5-1.1-2.5-2.5
		c0-1.4,1.1-2.5,2.5-2.5c1.4,0,2.5,1.1,2.5,2.5C70.7,63.7,69.6,64.8,68.2,64.8z"/>
</g>
</svg>
