<?xml version="1.0" encoding="utf-8"?>
<!-- Generator: Adobe Illustrator 18.1.1, SVG Export Plug-In . SVG Version: 6.00 Build 0)  -->
<svg version="1.1" id="图层_1" xmlns="http://www.w3.org/2000/svg" xmlns:xlink="http://www.w3.org/1999/xlink" x="0px" y="0px"
	 width="100" height="100" enable-background="new 0 0 100 100" xml:space="preserve">
<circle fill="none" stroke="#CDCCCC" stroke-width="3.700000e-003" stroke-miterlimit="22.9256" cx="50.2" cy="51.5" r="48.4"/>
<circle id="白底" fill="#FFFFFF" stroke="#231815" stroke-width="3.700000e-003" stroke-miterlimit="22.9256" cx="49.9" cy="49.9" r="45"/>
<g>
	<path fill="#E41E26" d="M50,0.1c27.4,0,49.7,22.3,49.7,49.7S77.3,99.6,50,99.6S0.2,77.2,0.2,49.9S22.6,0.1,50,0.1L50,0.1z
		 M21.2,17.5l62.9,59.1c5.8-7.4,9.3-16.7,9.3-26.7C93.3,26,73.8,6.5,50,6.5C38.9,6.5,28.8,10.6,21.2,17.5L21.2,17.5z M79.1,81.9
		l-63-59.2c-6,7.4-9.5,16.9-9.5,27.1c0,23.9,19.5,43.4,43.4,43.4C61.2,93.2,71.4,88.9,79.1,81.9z"/>
</g>
<line fill="none" stroke="#E51E25" stroke-width="0.216" stroke-miterlimit="2.4142" x1="38.8" y1="51.8" x2="42.9" y2="55.6"/>
<g>
	
		<rect x="30.1" y="37.2" fill="#231815" stroke="#231815" stroke-width="0.216" stroke-miterlimit="2.4142" width="11.2" height="6.6"/>
	<path fill="#231815" stroke="#231815" stroke-width="0.216" stroke-miterlimit="2.4142" d="M28.3,37.2H16.7
		c-1.6,0.5-2.7,4.3-3.3,6.6l15-0.1V37.2z"/>
	
		<rect x="48.4" y="40.2" fill="#231815" stroke="#231815" stroke-width="0.216" stroke-miterlimit="2.4142" width="9.8" height="5.8"/>
	
		<rect x="59.6" y="40.2" fill="#231815" stroke="#231815" stroke-width="0.216" stroke-miterlimit="2.4142" width="9.8" height="5.8"/>
	
		<rect x="71.8" y="40.2" fill="#231815" stroke="#231815" stroke-width="0.216" stroke-miterlimit="2.4142" width="9.8" height="5.8"/>
	<path fill="#231815" stroke="#231815" stroke-width="0.216" stroke-miterlimit="2.4142" d="M47,47.8l0,8.5h-2.3l0-1l-1.6,0v1h-2.8
		v-2.4h1.4v-8.1H13.7c-0.2,2.8-0.1,5.6,0.7,8.1h21.4V58l4.7,0v-0.6l2.8,0v1.1l1.6,0l0-1l2.2,0l0,0.9l4,0v-1.8l34.4,0l0-8.9L47,47.8z
		"/>
	<path fill="#231815" stroke="#231815" stroke-width="0.216" stroke-miterlimit="2.4142" d="M27,55.8c-3.2,0-5.7,2.5-5.7,5.7
		c0,3.1,2.6,5.7,5.7,5.7s5.7-2.5,5.7-5.7C32.7,58.3,30.2,55.8,27,55.8z M27,64.5c-1.7,0-3.1-1.4-3.1-3.1c0-1.7,1.4-3.1,3.1-3.1
		c1.7,0,3.1,1.4,3.1,3.1C30.1,63.1,28.7,64.5,27,64.5z"/>
	<path fill="#231815" stroke="#231815" stroke-width="0.216" stroke-miterlimit="2.4142" d="M54.8,58.1c-2.6,0-4.7,2.1-4.7,4.6
		s2.1,4.6,4.7,4.6c2.6,0,4.7-2.1,4.7-4.6S57.3,58.1,54.8,58.1z M54.8,65.2c-1.4,0-2.5-1.1-2.5-2.5c0-1.4,1.1-2.5,2.5-2.5
		c1.4,0,2.5,1.1,2.5,2.5C57.3,64,56.1,65.2,54.8,65.2z"/>
	<path fill="#231815" stroke="#231815" stroke-width="0.216" stroke-miterlimit="2.4142" d="M77.1,58.1c-2.6,0-4.7,2.1-4.7,4.6
		s2.1,4.6,4.7,4.6s4.7-2.1,4.7-4.6S79.7,58.1,77.1,58.1z M77.1,65.2c-1.4,0-2.5-1.1-2.5-2.5c0-1.4,1.1-2.5,2.5-2.5
		c1.4,0,2.5,1.1,2.5,2.5C79.6,64,78.5,65.2,77.1,65.2z"/>
</g>
</svg>
