<?xml version="1.0" encoding="utf-8"?>
<!-- Generator: Adobe Illustrator 18.1.1, SVG Export Plug-In . SVG Version: 6.00 Build 0)  -->
<svg version="1.1" id="图层_1" xmlns="http://www.w3.org/2000/svg" xmlns:xlink="http://www.w3.org/1999/xlink" x="0px" y="0px"
	 width="100" height="100" enable-background="new 0 0 100 100" xml:space="preserve">
<circle fill="none" stroke="#CDCCCC" stroke-width="3.700000e-003" stroke-miterlimit="22.9256" cx="50.2" cy="51.5" r="48.1"/>
<circle id="白底" fill="#FFFFFF" stroke="#231815" stroke-width="3.700000e-003" stroke-miterlimit="22.9256" cx="49.9" cy="49.9" r="44.7"/>
<g>
	<path fill="#E41E26" d="M50,0.4c27.2,0,49.4,22.2,49.4,49.4S77.2,99.3,50,99.3S0.6,77.1,0.6,49.9S22.8,0.4,50,0.4L50,0.4z
		 M21.4,17.7l62.5,58.8c5.8-7.3,9.2-16.6,9.2-26.6C93.1,26.1,73.7,6.7,50,6.7C39,6.7,29,10.9,21.4,17.7L21.4,17.7z M79,81.7
		L16.4,22.9c-5.9,7.4-9.5,16.7-9.5,26.9C6.9,73.6,26.3,93,50,93C61.1,93,71.3,88.7,79,81.7z"/>
</g>
<g>
	<path fill="#231815" stroke="#231815" stroke-width="0.216" stroke-miterlimit="2.4142" d="M66.7,48.3c-6,0-11,4.9-11,10.8
		s4.9,10.8,11,10.8s11-4.9,11-10.8S72.7,48.3,66.7,48.3z M66.7,65.6c-3.6,0-6.6-2.9-6.6-6.5c0-3.6,3-6.5,6.6-6.5
		c3.6,0,6.6,2.9,6.6,6.5C73.3,62.7,70.4,65.6,66.7,65.6z"/>
	<path fill="#231815" stroke="#231815" stroke-width="0.216" stroke-miterlimit="2.4142" d="M29.8,55.2c-4.3,0-7.8,3.5-7.8,7.7
		s3.5,7.7,7.8,7.7s7.8-3.5,7.8-7.7C37.6,58.7,34.1,55.2,29.8,55.2z M29.8,67.6c-2.6,0-4.7-2.1-4.7-4.7c0-2.6,2.1-4.7,4.7-4.7
		s4.7,2.1,4.7,4.7C34.5,65.5,32.4,67.6,29.8,67.6z"/>
	<path fill="#231815" stroke="#231815" stroke-width="0.216" stroke-miterlimit="2.4142" d="M77.1,52.3l2.7-2.1c-2-3-4.4-5.2-8-6
		l0.1-16.6H51.8l-4.1,13.1l-13.1,0l-0.2-11.3l-2.5,0v11.4l-5.9,0l0,4.5l-2.4,0l-0.1,4.1l2.3-1.3l0,5.4C31.4,52,35.5,54,38,59.3
		l15.6-0.1C52,47.2,70.7,39.8,77.1,52.3z M54.5,31.9H67v9.2H51.5L54.5,31.9z"/>
</g>
</svg>
