<?xml version="1.0" encoding="utf-8"?>
<!-- Generator: Adobe Illustrator 18.1.1, SVG Export Plug-In . SVG Version: 6.00 Build 0)  -->
<svg version="1.1" id="图层_1" xmlns="http://www.w3.org/2000/svg" xmlns:xlink="http://www.w3.org/1999/xlink" x="0px" y="0px"
	 width="100" height="100" enable-background="new 0 0 100 100" xml:space="preserve">
<circle fill="none" stroke="#CDCCCC" stroke-width="3.700000e-003" stroke-miterlimit="22.9256" cx="50.2" cy="51.5" r="48.2"/>
<circle id="白底" fill="#FFFFFF" stroke="#231815" stroke-width="3.700000e-003" stroke-miterlimit="22.9256" cx="49.9" cy="49.9" r="44.8"/>
<g>
	<path fill="#E41E26" d="M50,0.3c27.3,0,49.6,22.3,49.6,49.6S77.3,99.4,50,99.4S0.4,77.1,0.4,49.9S22.7,0.3,50,0.3L50,0.3z
		 M21.3,17.6L84,76.5c5.8-7.4,9.2-16.6,9.2-26.7C93.2,26,73.8,6.6,50,6.6C39,6.6,28.9,10.8,21.3,17.6L21.3,17.6z M79,81.8l-62.8-59
		c-5.9,7.4-9.5,16.8-9.5,27c0,23.8,19.4,43.2,43.2,43.2C61.2,93.1,71.4,88.8,79,81.8z"/>
</g>
<g>
	<path fill="#231815" d="M49.9,42.2v-5.6h-1.5v17.8l2.6,0.3l0.8,3.3c1.5-10.8,15.8-9.8,17.6,0h17.9V42.2H49.9z"/>
	<path fill="#231815" d="M60.6,51.5c-3.9,0-7.1,3.1-7.1,7s3.2,7,7.1,7s7.1-3.1,7.1-7S64.5,51.5,60.6,51.5z M60.6,63.3
		c-2.7,0-4.9-2.2-4.9-4.8s2.2-4.8,4.9-4.8c2.7,0,4.9,2.2,4.9,4.8C65.4,61.2,63.2,63.3,60.6,63.3z"/>
	<path fill="#231815" d="M45.2,50l-6.4,0l0,7.1h-4.9l0.1-10.4l2.4-1.7l2.2,3.2l0.6-0.4l-4.2-6l-0.6,0.4l1.5,2.2L34,45.8l0-4.4h-8
		l-5.3,6l0.2,3.2c-4.6,1.1-5.9,3.5-5.9,5.8c2.7-3.4,5.8-4.3,8.4-3.8l-0.6,1.4C22.3,54,22,54,21.6,54c-3.1,0-5.5,2.5-5.5,5.5
		c0,3,2.5,5.5,5.5,5.5s5.5-2.5,5.5-5.5c0-1.7-0.8-3.2-2-4.2l0.7-1.2v-0.2c1.5,1.2,2.5,3,2.6,5.2h19.3V40.9h-1.3L45.2,50z M25.4,59.5
		c0,2.1-1.7,3.8-3.8,3.8s-3.8-1.7-3.8-3.8c0-2.1,1.7-3.8,3.8-3.8c0.1,0,0.3,0,0.4,0l-1.7,3.7l1.6,1.2l2.3-3.9
		C25,57.5,25.4,58.4,25.4,59.5z"/>
</g>
</svg>
