<?xml version="1.0" encoding="utf-8"?>
<!-- Generator: Adobe Illustrator 18.1.1, SVG Export Plug-In . SVG Version: 6.00 Build 0)  -->
<svg version="1.1" id="图层_1" xmlns="http://www.w3.org/2000/svg" xmlns:xlink="http://www.w3.org/1999/xlink" x="0px" y="0px"
	 width="100" height="100" enable-background="new 0 0 100 100" xml:space="preserve">
<g>
	<path fill="#F4AB1C" d="M10,84.7h80.2h0.2L50.2,15L10,84.7z M38.6,79.1l-3.2-3.1c1.5-0.2,3-0.4,4.5-0.6c-7.2-5.8-8.8-12.1-5-18.8
		c1,0.6,1.9,1.3,2.9,1.9c-2.4,7.3,0,10.9,4.6,12.9l-0.5-4.1l4.5,3.4l0.8,8.4L38.6,79.1z M49.5,53.1l-5,2.6l-8.1-2.8l3.5-7.6l4.2-1.6
		L42.8,48c9.5-3.5,17.5,0,20.2,5.4l-3,1.8c-3.5-4.3-10.1-6.4-14.5-3.3L49.5,53.1z M70.3,67.4l-3.2-3.2c-1.4,10-8.7,14.1-14.8,14
		l-0.2-3.4c5.5-1,10.9-4.7,10.2-10l-3.1,2.9l0.1-5.6l6.4-5.6l5.1,6.7L70.3,67.4z"/>
	<path fill="#F4AB1C" d="M48.6,6.1c0.1,0,0.2-0.1,0.3-0.1C48.7,6,48.7,6.1,48.6,6.1z"/>
	<path fill="#F4AB1C" d="M49.8,5.7c0.2,0,0.4-0.1,0.6-0.1C50.2,5.7,50,5.7,49.8,5.7z"/>
	<path fill="#F4AB1C" d="M49.1,5.9c0.2-0.1,0.4-0.1,0.5-0.2C49.5,5.8,49.3,5.8,49.1,5.9z"/>
	<path fill="#F4AB1C" d="M47.8,6.6c0.1-0.1,0.2-0.1,0.2-0.2C48,6.4,47.9,6.5,47.8,6.6z"/>
	<path fill="#F4AB1C" d="M48.1,6.4c0.1-0.1,0.2-0.1,0.3-0.1C48.2,6.3,48.1,6.3,48.1,6.4z"/>
	<path fill="#F4AB1C" d="M46.3,8.1c0.1-0.1,0.1-0.2,0.2-0.2C46.4,7.9,46.4,8,46.3,8.1z"/>
	<path fill="#F4AB1C" d="M47.1,7.1c-0.1,0.1-0.2,0.2-0.3,0.3C46.9,7.3,47,7.2,47.1,7.1z"/>
	<path fill="#010101" d="M98.9,87.7c0-0.1-0.1-0.3-0.1-0.4c0-0.1,0-0.1-0.1-0.2c-0.1-0.2-0.1-0.4-0.2-0.7c-0.5-1.8-1.6-3.7-2.6-5.4
		L54.2,8.2c-0.4-0.7-0.9-1.2-1.3-1.6c-0.1-0.1-0.3-0.2-0.4-0.3C52.3,6.1,52.1,6,51.9,6c-0.1,0-0.1,0-0.1-0.1
		c-0.4-0.1-0.7-0.2-1.1-0.2c-0.1,0-0.2,0-0.3,0c-1.7,0-3.4,1.1-4.3,2.5L3.5,82.6c-0.8,1.5-1.4,2.8-1.7,4.1c-0.1,0.2-0.1,0.5-0.1,0.7
		c0,0.2-0.1,0.5-0.1,0.7s0,0.4,0,0.6c0,0.1,0,0.2,0,0.3c0.1,0.6,0.3,1.1,0.6,1.5c0.1,0.1,0.2,0.3,0.4,0.4c0.1,0.1,0.3,0.2,0.5,0.3
		c0.4,0.3,0.9,0.4,1.5,0.6h0.2h90.2H95c0.3,0,0.6,0,0.8,0c0.2,0,0.3,0,0.5-0.1c0.1,0,0.2,0,0.2-0.1c0.2,0,0.3-0.1,0.4-0.1
		c0.1,0,0.3-0.1,0.4-0.2c0.1-0.1,0.2-0.1,0.3-0.2c0.1,0,0.1-0.1,0.2-0.1c0.2-0.1,0.4-0.3,0.5-0.5c0.1-0.1,0.2-0.3,0.3-0.4
		c0.2-0.4,0.3-1,0.4-1.5C99,88.4,99,88.1,98.9,87.7z M50.4,5.7c-0.2,0-0.4,0-0.6,0.1C50,5.7,50.2,5.7,50.4,5.7z M49.7,5.8
		c-0.2,0-0.4,0.1-0.5,0.2C49.3,5.8,49.5,5.8,49.7,5.8z M48.8,6c-0.1,0-0.2,0.1-0.3,0.1C48.7,6.1,48.7,6,48.8,6z M48.1,6.4
		c0.1-0.1,0.2-0.1,0.3-0.1C48.2,6.3,48.1,6.3,48.1,6.4c-0.1,0.1-0.2,0.1-0.2,0.2C47.9,6.5,48,6.4,48.1,6.4z M47.1,7.1
		c-0.1,0.1-0.2,0.2-0.3,0.3C46.9,7.3,47,7.2,47.1,7.1z M46.5,7.8c-0.1,0.1-0.1,0.2-0.2,0.2C46.4,8,46.4,7.9,46.5,7.8z M90.3,84.7H10
		L50.2,15l40.2,69.7H90.3z"/>
	<path fill="#010101" d="M60,55.1l3-1.8c-2.8-5.4-10.7-8.9-20.2-5.4l1.3-4.3l-4.2,1.6l-3.5,7.6l8.1,2.8l5-2.6l-4-1.3
		C49.9,48.7,56.5,50.9,60,55.1z"/>
	<path fill="#010101" d="M59.4,61.9l-0.1,5.6l3.1-2.9c0.6,5.3-4.8,9-10.2,10l0.2,3.4c6.1,0.2,13.4-4,14.8-14l3.2,3.2l0.6-4.4
		l-5.1-6.7L59.4,61.9z"/>
	<path fill="#010101" d="M41.8,67.2l0.5,4.1c-4.6-2-7-5.6-4.6-12.9c-1-0.6-1.9-1.3-2.9-1.9c-3.8,6.8-2.1,13.1,5,18.8
		c-1.5,0.2-3,0.4-4.5,0.6l3.2,3.1l8.4-0.1l-0.8-8.4L41.8,67.2z"/>
</g>
</svg>
