<?xml version="1.0" encoding="utf-8"?>
<!-- Generator: Adobe Illustrator 18.1.1, SVG Export Plug-In . SVG Version: 6.00 Build 0)  -->
<svg version="1.1" id="图层_1" xmlns="http://www.w3.org/2000/svg" xmlns:xlink="http://www.w3.org/1999/xlink" x="0px" y="0px"
	 width="100" height="100" enable-background="new 0 0 100 100" xml:space="preserve">
<circle id="白色底图" fill="#FFFFFF" stroke="#010101" stroke-miterlimit="22.9256" cx="50.1" cy="49.9" r="43"/>
<path fill="#E41E26" d="M50,0.4c27.3,0,49.6,22.3,49.6,49.6S77.3,99.6,50,99.6S0.4,77.3,0.4,50C0.4,22.7,22.7,0.4,50,0.4L50,0.4z
	 M21.3,17.7L84,76.6c5.8-7.3,9.2-16.6,9.2-26.6C93.2,26.2,73.8,6.8,50,6.8C39,6.8,28.9,10.9,21.3,17.7L21.3,17.7z M79,82L16.3,23
	c-5.9,7.4-9.5,16.8-9.5,27c0,23.8,19.4,43.2,43.2,43.2C61.2,93.2,71.3,89,79,82z"/>
<g>
	
		<ellipse fill="#231815" stroke="#231815" stroke-width="0.216" stroke-miterlimit="2.4142" cx="43.9" cy="23.6" rx="3.6" ry="3.5"/>
	
		<ellipse fill="#231815" stroke="#231815" stroke-width="0.216" stroke-miterlimit="2.4142" cx="68.2" cy="59.8" rx="2.3" ry="2.2"/>
	<path fill="#231815" stroke="#231815" stroke-width="0.216" stroke-miterlimit="2.4142" d="M81.7,58.3c-1-6.4-4.5-9.9-9.9-11.3
		c4.6-1.7,4.4-3.1-0.5-4l-6.5,0c-3.1,0-5.3,0.3-5.1-2.4l-5-5.4c-5.3-8.3-9.7-10-13.2-2c-0.6,3.2-2.7,4.7-6.2,4.6
		c-2-0.1-3.5,0.4-4.4,1.4h-3.6v6c0.6,0.2,1.2,0.4,1.8,0.6v1.6c-3.6-0.8-7.8-0.2-12,2.4V52c0.4-0.1,0.7-0.3,1-0.4
		c-2.5,2-4.2,5-4.2,8.4c0,5.9,4.9,10.7,10.8,10.7c3.9,0,7.3-2,9.2-5.1h4.4c1.6-9-1.9-15.5-7.5-17.8v-1.4c6.5,2.9,9.8,7.6,10.2,14.2
		l1.9,0.6c3.3,3,5.6,3,6.7,0.2l6.4-0.7c0.1-0.3,0.3-0.5,0.4-0.7c0,5.9,5,10.6,11.2,10.6C74,70.7,79,65.9,79,60c0-0.7-0.1-1.3-0.2-2
		c0.1,0.1,0.2,0.3,0.4,0.4L81.7,58.3z M24.9,67.4c-4.1,0-7.4-3.3-7.4-7.3s3.3-7.3,7.4-7.3c0.9,0,1.7,0.1,2.5,0.4l-1.7,4.5
		c-0.1,0-0.2,0-0.3,0c-1.2,0-2.2,1-2.2,2.2s1,2.2,2.2,2.2c1.2,0,2.2-1,2.2-2.2c0-0.6-0.2-1.1-0.6-1.5h0.3l1.7-4.4
		c2.1,1.3,3.5,3.6,3.5,6.2C32.3,64.1,29,67.4,24.9,67.4z M46.5,47l-5.8-3.7l-7.1,0.3V42h6.4l4-3.7c1.4-0.4,3.4,5.2,5.1,7.7L46.5,47z
		 M50.4,50.4l1.5-1.2l1.8,3L50.4,50.4z M61,45.8c0.6,0,1.2,0.4,1.2,0.9c0,0.5-0.5,0.9-1.2,0.9c-0.6,0-1.2-0.4-1.2-0.9
		C59.8,46.2,60.4,45.8,61,45.8z M67.8,67.4c-4.2,0-7.7-3.3-7.7-7.3s3.4-7.3,7.7-7.3c4.2,0,7.7,3.3,7.7,7.3S72,67.4,67.8,67.4z"/>
</g>
</svg>
