<?xml version="1.0" encoding="utf-8"?>
<!-- Generator: Adobe Illustrator 18.1.1, SVG Export Plug-In . SVG Version: 6.00 Build 0)  -->
<svg version="1.1" id="图层_1" xmlns="http://www.w3.org/2000/svg" xmlns:xlink="http://www.w3.org/1999/xlink" x="0px" y="0px"
	 width="257.3" height="150" enable-background="new 0 0 257.3 150" xml:space="preserve">
<polygon fill="#283E95" stroke="#283E95" stroke-width="0.2835" stroke-miterlimit="2.4142" points="0,0 257.3,0 257.3,149.8 
	0,149.8 "/>
<path fill="none" stroke="#FFFFFF" stroke-width="1.5598" stroke-miterlimit="2.4142" d="M252.5,12.6v124.7c0,3.8-1.7,6.9-3.8,6.9
	H8.6c-2.1,0-3.8-3.1-3.8-6.9V12.6c0-3.8,1.7-6.9,3.8-6.9h240.1C250.8,5.7,252.5,8.8,252.5,12.6z"/>
<polygon fill="#FFFFFF" points="124.1,54.3 129,49.7 134.9,54.3 134.9,128.7 124.1,128.7 "/>
<polygon fill="#FFFFFF" points="60.7,113.3 56,108.4 60.7,103.5 124.4,103.5 124.4,113.3 "/>
<polygon fill="#FFFFFF" points="198.5,113.3 203.2,108.4 198.5,103.5 134.7,103.5 134.7,113.3 "/>
<polygon fill="#FFFFFF" points="168.8,84.1 173.5,79.3 168.8,74.4 128.2,74.4 128.2,84.1 "/>
<g>
	<path fill="#FFFFFF" d="M62.9,75.2c-1.9,2.7-4.3,4.9-7.2,6.4c1,1.2,1.7,2.2,2.2,3.1c2.9-2,5.6-4.4,8.1-7.1
		C65,76.9,64,76.1,62.9,75.2z"/>
	<path fill="#FFFFFF" d="M49.3,75.5c-0.2,2.4-0.6,3.8-1.2,4.3c-0.4,0.3-1.4,0.5-3,0.4c-0.4-0.1-0.7-0.2-0.9-0.4
		c-0.2-0.2-0.3-0.7-0.3-1.3v-6.2c3.6-2,6.4-4.3,8.5-6.8c-0.9-0.7-1.9-1.6-2.9-2.6c-1.4,2-3.2,3.8-5.6,5.4L44,57.9h-3.9l0.1,22.5
		c0,1.1,0.4,1.9,1.2,2.4c1.3,0.8,3.8,1,7.2,0.7c1-0.1,1.8-0.5,2.4-1.2c0.8-1,1.4-3,1.9-5.9c0,0,0-0.1,0-0.1
		C51.5,76.1,50.3,75.8,49.3,75.5z"/>
	<path fill="#FFFFFF" d="M33.1,57.9l0.1,6.8l-6.9-0.1v3.6l6.9-0.1v6.5c-2.5,1.1-5,1.8-7.5,2.1c0.5,1.2,1,2.5,1.3,3.8
		c2.7-0.9,4.7-1.7,6.2-2.4v2.1l-0.1,3.6H37l-0.1-22.7c0-1.1,0-2.2,0.1-3.3C37,57.9,33.1,57.9,33.1,57.9z"/>
	<path fill="#FFFFFF" d="M78.5,65.7c-7.5,0.1-13.9,0.1-19.3,0v9.4c1.6-0.1,4.2-0.1,8-0.1v5.6c0,0.5-0.3,0.7-1,0.7
		c-0.3,0-0.9-0.1-1.7-0.1c0.3,1.1,0.6,2.4,0.7,3.7c2.3,0,3.9-0.3,4.7-0.8c0.6-0.4,0.9-1.1,0.9-1.9V75l7.7,0.1
		C78.4,71.6,78.4,68.4,78.5,65.7z M74.8,71.9H63v-3h11.7V71.9z"/>
	<path fill="#FFFFFF" d="M70.1,61.2l1.5-0.8c-0.5-0.9-1.2-2-2.2-3.3c-1.2,0.5-2.3,0.9-3.5,1.2c0.8,1.1,1.3,2.1,1.7,2.9h-8L56,61.1
		v3.4c2.2-0.1,9.7-0.2,22.5-0.1c1.1,0,2.2,0.1,3.3,0.1v-3.4L70.1,61.2z"/>
	<path fill="#FFFFFF" d="M74.9,75.5c-0.9,0.8-1.9,1.5-2.8,2.2c2.3,2.1,4.6,4.4,7,7l2.5-2.8C80.1,80.3,77.9,78.2,74.9,75.5z"/>
</g>
<g>
	<path fill="#FFFFFF" d="M150.3,26c-3.8,0.1-7.1,0.1-9.9,0c0.1,3.6,0.1,7.5,0,11.6c3.6-0.2,6.9-0.2,9.9,0
		C150.2,33.5,150.2,29.6,150.3,26z M147,34.4h-3.4V29h3.4V34.4z"/>
	<path fill="#FFFFFF" d="M140,20v3.3c1.5-0.1,5.7-0.1,12.4-0.1v17.3c0,0.6-0.2,0.9-0.5,1.1c-0.7,0.2-2,0.2-3.8-0.1
		c0.5,1.1,0.9,2.4,1.3,4c3.3-0.1,5.2-0.7,5.9-1.7c0.2-0.4,0.4-1.1,0.4-2.1V23.1c0.8,0,1.6,0,2.4,0.1V20L140,20z"/>
	<path fill="#FFFFFF" d="M133.8,37.7c-1.1,1.9-2.1,3.4-3,4.4c1.1,0.8,2.2,1.6,3.1,2.5c1.5-2.4,3.1-5.7,5-9.9
		c0.1-0.5,0.3-0.8,0.5-1.1c-1.3-0.8-2.3-1.5-3.1-2.1C135.8,33.4,134.9,35.5,133.8,37.7z"/>
	<path fill="#FFFFFF" d="M119.8,27.4h6.3c0.6,0,1.2,0,1.7,0.1v-3.2c-0.7,0-1.4,0-2.1,0.1h-9.1v-1.9c1.3-0.1,2.5-0.1,3.6-0.3
		c1.2-0.1,2.6-0.3,4.4-0.5c-0.3-0.3-0.5-0.7-0.8-1.1c-0.3-0.5-0.8-1.2-1.4-2.2c-0.4,0.1-0.7,0.2-1.1,0.3c-1,0.3-2.2,0.5-3.6,0.7
		c-2.1,0.3-4.8,0.4-8,0.4l-3-0.1c-0.8,0-1.8-0.1-2.9-0.2c0.3,1.1,0.7,2.2,1,3.4h4.9c0.9-0.1,2.1-0.1,3.6-0.1v1.7h-9
		c-0.8,0-1.6,0-2.4-0.1v3.2l3-0.1h5.1c-1.2,1.2-2.7,2.3-4.4,3.2c-1.5,0.7-3,1.3-4.7,1.7c0.7,1,1.4,2,2,3c0.7-0.3,1.2-0.5,1.6-0.7
		c0.6-0.3,1.2-0.6,1.9-0.9l0.1,2.1V43l-0.1,2.1h3.4v-0.6h10.5v0.6h3.3l-0.1-2.5v-8.7c1.2,0.6,2.5,1.1,3.7,1.6
		c0.1-0.3,0.3-0.5,0.4-0.8c0.2-0.6,0.5-1.1,0.7-1.7c0.2-0.3,0.3-0.6,0.5-0.9c-1.9-0.3-3.5-0.8-4.8-1.5
		C122.7,29.7,121.2,28.7,119.8,27.4z M108.4,32.6c1.8-1.2,3.5-2.5,5-3.9v3.9H108.4z M120.4,41.6h-10.5v-1.7h10.5V41.6z M120.4,37.1
		h-10.5v-1.6h10.5V37.1z M116.7,32.6v-3.8l2.3,2.1c0.7,0.5,1.5,1.1,2.3,1.7C121.3,32.6,116.7,32.6,116.7,32.6z"/>
	<path fill="#FFFFFF" d="M133.1,20.8c2.1,1.3,3.7,2.4,4.7,3.4c0.1-0.1,0.2-0.3,0.4-0.6c0.9-1.6,1.4-2.4,1.5-2.4
		c-1.6-1.1-3.1-2.1-4.6-3C134.3,19.2,133.7,20.1,133.1,20.8z"/>
	<path fill="#FFFFFF" d="M135.9,30.7c0.7-1.1,1.2-1.8,1.6-2.3c-0.3-0.2-1.9-1.3-4.7-3.1c-0.7,1.2-1.4,2.1-2,2.8
		c1.7,0.9,3.2,2,4.7,3.4C135.5,31.1,135.7,30.9,135.9,30.7z"/>
</g>
<g>
	<path fill="#FFFFFF" d="M195.4,75.9c-0.9-1.1-1.7-2.1-2.1-3c-0.3-0.6-0.7-1.4-1.1-2.5h7.1l3.7,0.1V67l-11.4,0.1l0.3-4.8l9.7,0.1
		v-3.5c-7.5,0.2-15.2,0.2-23.1,0v3.5l9.7-0.1c0,0.6-0.1,2.3-0.2,4.8L177.1,67v3.5c2.1-0.1,5.6-0.1,10.5-0.1c-0.5,2.8-1.6,5-3.4,6.6
		c-0.9,0.8-2,1.5-3.3,2.3c-1.2,0.6-2.6,1.2-4.4,1.6c0.7,0.9,1.4,2.1,2.2,3.6c3.8-1.8,6.7-3.5,8.5-5.2c1.4-1.4,2.4-3,3.1-4.7
		c2.4,4.6,6.3,8,11.5,10c0.5-1.5,1.1-2.8,1.8-3.7C200.6,80.2,197.9,78.6,195.4,75.9z"/>
	<path fill="#FFFFFF" d="M233.4,64.4c-0.8,0-1.5,0-2.3,0l0.1-4.9l-7.1,0.1l0.1-2.3h-3.4l0.1,2.3l-6-0.1v3.1l6-0.1v1.8l-8-0.1v3.2
		l8-0.1v1.7l-6-0.1v3.2l6-0.1v1.5l-6.8-0.1v3.1l6.8-0.1v1.8l-7.9-0.1v3.4c1.6-0.1,4.2-0.1,7.9-0.1l-0.1,3.1h3.4l-0.1-3.1
		c4.6,0,7.8,0,9.4,0.1v-3.3l-9.4,0.1v-1.8l7.7,0.1v-3.1l-7.7,0.1v-1.5l7.1,0.1l-0.1-4.8c0.8,0,1.5,0,2.3,0.1V64.4z M227.8,69.1H224
		v-1.7h3.9V69.1z M227.8,64.4H224v-1.8h3.9V64.4z"/>
	<path fill="#FFFFFF" d="M214.3,60.5c-1.3-1.1-2.8-2.1-4.2-3.1c-0.7,1.1-1.4,1.9-2,2.6c1.7,1.1,3.2,2.3,4.3,3.5
		C213.2,62.1,213.9,61.1,214.3,60.5z"/>
	<path fill="#FFFFFF" d="M210.2,70.8c0-0.1,0.1-0.1,0.1-0.2c0.2-0.4,0.8-1.3,1.8-2.5c0-0.1,0.1-0.1,0.1-0.2
		c-1.2-1.2-2.4-2.2-3.5-2.9c-0.2-0.1-0.4-0.3-0.6-0.4c-0.5,0.9-1.2,1.7-2.1,2.6C207.6,68.3,208.9,69.4,210.2,70.8z"/>
	<path fill="#FFFFFF" d="M210.5,71.5c-1.1,4.2-2.5,7.5-4.4,10.1c1.1,0.8,2.1,1.7,2.9,2.8c1.2-2.5,2.7-6.1,4.5-10.8
		C212.2,72.8,211.2,72.1,210.5,71.5z"/>
</g>
</svg>
