<?xml version="1.0" encoding="utf-8"?>
<!-- Generator: Adobe Illustrator 18.1.1, SVG Export Plug-In . SVG Version: 6.00 Build 0)  -->
<svg version="1.1" id="图层_1" xmlns="http://www.w3.org/2000/svg" xmlns:xlink="http://www.w3.org/1999/xlink" x="0px" y="0px"
	 width="296" height="150" enable-background="new 0 0 296 150" xml:space="preserve">
<path fill="none" stroke="#FFFFFF" stroke-width="1.085" stroke-miterlimit="2.4142" d="M288.1,41.5v63.9c0,4.3-3.9,7.7-8.6,7.7H15
	c-4.7,0-8.6-3.4-8.6-7.7V41.5c0-4.3,3.9-7.7,8.6-7.7h264.5C284.2,33.8,288.1,37.2,288.1,41.5z"/>
<rect y="0.1" fill="#036FAD" width="296" height="149.7"/>
<g>
	<path fill="#FFFFFF" d="M47.2,28.2c-1.3-1.7-2.8-3.2-4.5-4.9l7.9-3.6c1.9,2.6,3.6,4.9,5.1,7.1L52.1,28h10.1c1.7-2.6,3-5.6,4.3-8.8
		l7.7,2.6c0.9,0.2,1.1,0.4,1.1,0.9s-0.2,0.9-1.1,1.5c-0.9,0.6-2.1,1.9-3.6,4.1h15.9v6H31.3V28L47.2,28.2L47.2,28.2z M42.7,61.9v14.2
		h-7.1V37h23.2v30.9c0,1.9-0.2,3.4-0.6,4.3c-0.4,0.9-1.3,1.5-2.6,1.9c-1.3,0.4-3.4,0.9-6.6,1.1c-0.2-2.8-1.1-5.1-2.8-7.5
		c1.9,0.4,3.2,0.6,3.9,0.6c0.6,0,1.1-0.2,1.3-0.4c0.2-0.4,0.2-0.9,0.2-1.7v-4.5L42.7,61.9L42.7,61.9z M51.9,46.7V43h-9v3.6H51.9z
		 M42.7,52.5v3.9h9v-3.9H42.7z M62.8,39.6h6.4c0.9,0,1.5,0.2,1.5,0.9c0,0.2,0,0.6-0.2,0.9c-0.4,0.9-0.4,2.6-0.4,5.6v18.2h-7.1
		L62.8,39.6L62.8,39.6z M81.1,44.5v23.8c0,1.9-0.4,3.4-1.1,4.5c-0.6,1.1-1.9,1.9-3.6,2.4c-1.7,0.4-4.5,0.9-7.9,1.1
		c-0.2-3.4-1.1-6.2-2.6-8.4c3,0.4,4.9,0.9,5.8,0.9c0.9,0,1.3-0.2,1.7-0.4c0.2-0.2,0.4-0.9,0.4-1.7V35.5h7.1c0.9,0,1.3,0.2,1.3,0.4
		s0,0.9-0.2,1.3c-0.2,0.4-0.4,1.3-0.4,2.8C81.3,41.3,81.1,42.8,81.1,44.5z"/>
	<path fill="#FFFFFF" d="M115.4,29.5c-0.6-2.1-1.9-4.5-3.9-7.3l9-3c1.3,3,2.6,6,3.4,8.8l-6.4,1.5h27.2v6.9h-28.3
		c0,3-0.2,5.4-0.2,6.9h21.4l-1.9,20.2c-0.4,3.2-0.9,5.4-1.7,7.1c-0.9,1.5-2.4,2.8-4.3,3.4c-1.9,0.6-5.1,1.1-9.2,1.3
		c-0.2-3.2-1.3-6.2-3-9c3.6,0.6,6,1.1,7.1,1.1s1.9-0.2,2.1-0.6c0.2-0.4,0.6-1.1,0.6-1.9l1.5-15h-13.5c-1.1,5.8-2.8,10.7-5.1,14.8
		c-2.4,4.1-5.8,7.7-10.3,10.9c-1.7-1.7-4.3-3.4-7.5-5.1c5.6-3.9,9.7-8.2,12-13.1c2.4-4.9,3.6-11.8,3.4-21H92.2v-6.9h23.2V29.5z"/>
	<path fill="#FFFFFF" d="M185.1,27h19.7v6.6h-22.7c-1.3,2.6-2.8,4.9-4.5,7.1h4.9c0.9,0,1.3,0.2,1.3,0.6c0,0.4,0,0.9-0.4,1.5
		c-0.2,0.6-0.2,1.5-0.2,2.8l2.8-1.1v-9.2h5.8c0.9,0,1.3,0.2,1.3,0.9c0,0.2,0,0.6-0.2,1.1c-0.4,1.3-0.6,3-0.4,4.9l10.5-3.9l-0.2,16.9
		c0,1.7-0.2,3-0.6,3.9c-0.4,0.9-1.3,1.7-2.4,2.1c-1.3,0.6-3,1.1-5.6,1.5c-0.4-2.6-0.9-4.5-1.7-6v7.5h-6.2V50.8l-2.8,1.1v14.6
		c0,0.6,0,1.1,0.4,1.5c0.4,0.4,0.6,0.4,1.1,0.4h12.4c0.6,0,1.1,0,1.3-0.4s0.4-0.6,0.6-1.5c0.2-0.9,0.2-2.1,0.4-4.3
		c1.9,1.3,4.3,2.1,7.1,2.6c-0.4,3-0.9,5.1-1.5,6.4c-0.6,1.3-1.5,2.4-2.6,2.8s-2.8,0.9-4.9,0.9h-14.2c-2.6,0-4.3-0.4-5.4-1.1
		c-1.1-0.9-1.5-2.4-1.5-4.5V54.8l-2.8,0.9l-1.3-3.6l-0.4,14.4c0,1.7-0.2,3.2-0.9,4.3c-0.4,0.9-1.3,1.7-2.8,2.4
		c-1.3,0.6-3.6,1.1-6.4,1.7c-0.2-2.8-0.9-5.1-2.1-7.3c1.5,0.2,2.8,0.2,3.4,0.2c0.9,0,1.3,0,1.5-0.4c0.2-0.2,0.4-0.6,0.4-1.3l0.6-18
		h-3.4c-0.2,6.2-0.9,11.4-2.1,15.4c-1.1,4.1-2.8,8.4-5.4,12.7c-1.5-1.1-3.6-2.4-6.4-3.6c2.8-4.1,4.7-8.6,5.8-13.9s1.5-12.9,1.5-22.7
		h-6v-6.2h10.7c-0.4-1.9-1.5-4.5-2.8-7.5l7.5-2.1c1.1,2.6,1.9,5.1,2.6,7.9l-6.2,1.9h12.4v3.6c2.1-3.6,3.6-7.9,4.7-13.3l6.9,1.7
		c1.1,0.2,1.7,0.6,1.7,1.1s-0.2,0.9-0.9,1.5C186.4,25,185.8,25.9,185.1,27z M176.7,42c-0.4,0.4-0.6,0.9-1.1,1.3
		c-1.7-1.3-3.6-2.4-6-3.2c1.3-1.3,2.4-2.8,3.2-4.1h-10.1v6.4h9.9l-0.2,7.3l3.9-1.5V42H176.7z M192.4,56.1c0.6,0,1.3,0,1.7,0
		s0.9,0,1.3-0.2c0.2-0.2,0.4-0.4,0.4-1.1l0.2-7.7l-3.9,1.5v7.5H192.4z"/>
	<path fill="#FFFFFF" d="M233.6,33.4h-18.7v-7.3h45.9v7.3h-18.9v29.4h22.5v7.3h-53.4v-7.3h22.5V33.4z"/>
</g>
<g>
	<path fill="#FFFFFF" d="M48.9,119.8v3.6h-3v-5.6c-1.7,1.7-3.2,3.2-4.7,4.7c-0.6-0.6-1.3-1.5-1.9-2.6c0.4-0.4,0.6-0.9,0.9-1.5
		c0.2-0.4,0.2-1.1,0.2-1.9v-6.2h-2.8v-3h5.8v9.7c0.6-0.6,1.1-1.5,1.5-2.1c0.2,0.4,0.4,1.1,1.1,1.7v-4.7h12.4v8.8
		c0,0.6,0,1.1-0.4,1.5c-0.2,0.4-0.6,0.6-1.3,0.9c-0.6,0.2-1.7,0.4-3,0.4c0-1.1-0.4-2.1-0.9-2.8c0.9,0,1.3,0.2,1.5,0.2s0.4,0,0.6-0.2
		c0,0,0.2-0.2,0.2-0.6v-0.4L48.9,119.8L48.9,119.8z M45,105.7l-3,1.3c-0.6-1.5-1.5-3.2-2.6-4.7l2.8-1.5
		C43.3,102.5,44.2,104,45,105.7z M50.6,105.2h-5.4v-2.4h5.4v-2.1h3c0.4,0,0.4,0,0.4,0.4c0,0,0,0.2,0,0.4c-0.2,0.4-0.2,0.9-0.2,1.5h6
		v2.4h-6.2v0.9h5.1v2.1h-5.1v0.9h6.6v2.1H44v-2.1h6.6v-0.9h-4.9v-2.1h4.9V105.2L50.6,105.2z M48.9,115.1h6.4v-0.9h-6.4V115.1z
		 M55.3,117h-6.4v0.9h6.4V117z"/>
	<path fill="#FFFFFF" d="M91.4,117c0,0.2,0,0.6,0,1.1s0,0.9,0.2,1.5c-3.9,1.3-6.6,2.4-7.9,3l-1.1-3C85.2,119,88.2,118.1,91.4,117z
		 M94.8,106.3l-2.6,0.4c0,0,0.2,0.2,0.2,0.4c0,0.2,0,0.2-0.4,0.4c-0.2,0.2-0.4,0.4-0.6,0.4c-0.2,0.2-0.4,0.6-0.9,1.3
		c-0.9,1.5-2.1,3.2-3.4,4.9c1.1-0.2,2.1-0.4,3.4-0.9c-0.2,0.4-0.2,1.3-0.2,2.6c-2.6,0.4-4.9,0.9-6.9,1.5c-0.4-1.1-0.6-1.9-0.9-2.8
		c0.9-0.2,1.5-0.6,1.7-1.1c0.4-0.4,1.1-1.3,1.7-2.6c-1.1,0.2-2.1,0.4-3.2,0.6c-0.2-0.9-0.6-1.7-0.9-2.8c0.4-0.2,0.9-0.4,1.1-0.9
		c0.2-0.4,0.6-1.3,1.3-2.8c0.6-1.5,1.1-2.8,1.3-4.1c1.1,0.2,1.9,0.4,2.4,0.6c0.4,0.2,0.9,0.2,0.9,0.4l0.2,0.2c0,0-0.2,0.2-0.4,0.6
		c-0.2,0.2-0.4,0.6-0.6,1.1l-2.4,4.7c0.6,0,1.1,0,1.7-0.2c0.4-0.6,0.9-1.7,1.3-3l1.7,0.9l-0.4-1.9l3.2-0.6c-0.2-1.3-0.4-2.4-0.4-3
		l3.9-0.2c0.2,0,0.4,0,0.4,0.2c0,0.2,0,0.2,0,0.4c0,0.2,0,0.4,0,0.6c0,0.2,0,0.9,0.2,1.5l6.6-1.3l0.4,2.4l-2.1,0.4
		c0.9,0.6,1.5,1.1,1.7,1.1c0.2,0.2,0.2,0.2,0.2,0.4s-0.2,0.2-0.4,0.4c-0.2,0.2-0.9,0.4-1.7,1.1s-1.5,1.1-1.9,1.5
		c0.4,0.2,0.9,0.6,1.1,0.6c0.4,0.2,0.6,0.2,0.9,0.2c0.2,0,0.4-0.2,0.4-0.4c0.2-0.4,0.2-0.9,0.2-1.5c0.6,0.6,1.5,1.1,2.6,1.3
		c-0.2,1.3-0.6,2.1-1.1,2.6c-0.4,0.6-0.9,0.9-1.7,0.9c-0.6,0-1.5-0.2-2.4-0.4c-0.9-0.4-1.9-0.9-2.8-1.7c-1.5,0.9-3,1.5-4.5,1.9
		c-0.4-0.9-1.1-1.5-1.7-2.4c1.5-0.2,3.2-0.9,4.9-1.7C95.4,108.2,95,107.4,94.8,106.3z M98,116h-1.5c0,1.9-0.4,3.4-1.3,4.7
		c-0.9,1.3-2.1,2.1-4.1,3c-1.1-0.9-1.7-1.5-2.6-1.9c3.2-1.1,4.9-3,5.1-5.8h-2.8v-2.4h13.5v2.4h-4.1v3.9c0,0.4,0,0.6,0.2,0.6
		c0,0,0.2,0.2,0.4,0.2h0.6c0.2,0,0.4-0.2,0.4-0.4c0-0.2,0.2-0.9,0.2-1.9c1.1,0.4,1.9,0.9,2.8,0.9c-0.2,1.3-0.2,2.1-0.4,2.8
		c-0.2,0.6-0.4,0.9-0.9,1.1c-0.4,0.2-1.1,0.4-1.9,0.4h-1.7c-0.9,0-1.5-0.2-1.7-0.6c-0.4-0.4-0.4-1.1-0.4-1.9L98,116L98,116z
		 M101,105l-3.6,0.6c0.2,0.6,0.4,1.3,0.9,1.7C99.3,106.7,100.2,105.9,101,105z"/>
	<path fill="#FFFFFF" d="M157.4,119.6c-0.4,0.9-0.9,1.9-1.1,3.2c-2.1,0-3.9,0-5.4,0c-4.5,0-7.3-0.2-8.8-0.4
		c-1.5-0.2-2.4-0.6-2.8-1.3c-0.2-0.2-0.4-0.4-0.6-0.4s-0.2,0-0.4,0.2c-0.2,0-0.4,0.4-0.9,0.9c-0.4,0.4-0.9,1.1-1.1,1.3
		c-0.9-0.9-1.7-1.9-2.6-2.8c1.5-1.1,2.6-1.7,2.8-1.9c0.2-0.2,0.4-0.6,0.4-1.3v-6.2h-2.8V108h5.8v8.4c0,0.9,0.2,1.7,0.6,2.1
		c0.4,0.4,1.3,0.9,2.4,1.1c1.1,0.2,3.2,0.2,6.2,0.2C152.5,120,155.3,119.8,157.4,119.6z M140.9,106.3l-3,1.1c-0.4-1.5-1.1-3-2.1-4.9
		l3-1.3C139.4,102.7,140.3,104.4,140.9,106.3z M148.9,104c0.4-0.9,0.9-1.9,1.3-3.4c1.7,0.6,2.8,0.9,3,0.9s0.2,0.2,0.2,0.4
		s0,0.2-0.2,0.4c-0.4,0.2-0.9,0.9-1.3,1.7h4.5v2.4h-6.4c0,0.4-0.2,0.9-0.2,1.1h4.9v12.2h-3v-1.1h-6v0.9h-2.8v-12h3.9
		c0-0.4,0.2-0.9,0.2-1.1h-5.6V104h3.9c-0.4-0.6-1.1-1.3-1.5-1.9l2.6-1.3c0.6,0.9,1.3,1.7,1.9,2.8l-1.7,0.6h2.4V104z M145.4,110.6h6
		v-0.9h-6V110.6L145.4,110.6z M145.4,113.4h6v-0.9h-6V113.4L145.4,113.4z M151.4,115.3h-6v1.1h6V115.3z"/>
	<path fill="#FFFFFF" d="M192.4,111.2v12.2h-2.8v-9.2c-0.6,0.6-1.5,1.3-2.1,1.7c-0.6-0.6-1.3-1.3-2.1-2.1c2.8-1.9,5.1-4.7,7.1-7.9
		c0.9,0.4,1.5,0.9,2.1,1.1c0.4,0.2,0.9,0.4,0.9,0.4v0.2c0,0-0.2,0.2-0.4,0.4c-0.2,0-0.6,0.4-0.9,0.6
		C194.1,109.3,193.5,110.2,192.4,111.2z M191.8,100.5c1.9,0.9,3,1.5,3,1.5l0.2,0.2c0,0-0.2,0.2-0.4,0.4c-0.4,0.2-0.6,0.4-1.1,0.9
		c-1.7,1.9-3.4,3.6-5.4,5.1c-0.6-0.6-1.3-1.3-2.1-1.9C188.3,105.2,190.5,103.1,191.8,100.5z M201.8,111.2H195v-2.8h13.5v2.8h-3.6
		v8.8c0,1.3-0.4,2.1-1.3,2.8c-0.9,0.6-2.1,0.6-3.6,0.6c0-1.3-0.4-2.1-1.1-3.2c1.1,0,1.7,0.2,2.1,0.2s0.6,0,0.9-0.2
		c0-0.2,0.2-0.4,0.2-0.9L201.8,111.2L201.8,111.2z M207,104.8h-10.5v-2.6H207V104.8z"/>
	<path fill="#FFFFFF" d="M244.3,116c0.9,1.5,1.9,2.6,3.6,3.2v-7.7h-10.1v-2.6h9.4v-2.6h-6.9v-2.6h6.9v-3h3c0.2,0,0.4,0,0.4,0
		s0.2,0,0.2,0.2c0,0,0,0.2-0.2,0.6c0,0.2-0.2,1.1-0.2,2.1h6.9v2.6h-6.9v2.6h9.4v2.6h-9v2.6h6.2v2.6H251v3.2c1.1,0.2,2.6,0.2,4.3,0.2
		c1.7,0,3.6,0,5.4-0.2c-0.4,1.1-0.9,2.1-0.9,3.2c-1.3,0-3,0-5.6,0s-4.1,0-4.7-0.2c-0.4,0-1.1-0.2-1.7-0.4c-0.6-0.2-1.3-0.4-1.7-0.9
		c-0.6-0.4-1.1-0.6-1.5-1.3c-0.4-0.4-0.9-0.9-1.3-1.5c-0.9,1.7-1.7,3.2-3,4.7c-0.9-0.6-1.7-1.1-2.8-1.7c2.4-2.4,3.9-5.6,4.5-9.4
		c1.9,0.2,3,0.4,3.2,0.6s0.2,0.2,0.2,0.2c0,0.2-0.2,0.4-0.4,0.6C245,114.3,244.7,114.9,244.3,116z"/>
</g>
</svg>
