<?xml version="1.0" encoding="utf-8"?>
<!-- Generator: Adobe Illustrator 18.1.1, SVG Export Plug-In . SVG Version: 6.00 Build 0)  -->
<svg version="1.1" id="图层_1" xmlns="http://www.w3.org/2000/svg" xmlns:xlink="http://www.w3.org/1999/xlink" x="0px" y="0px"
	 width="100" height="100" enable-background="new 0 0 99.7 100" xml:space="preserve">
<circle fill="none" stroke="#CDCCCC" stroke-width="3.700000e-003" stroke-miterlimit="22.9256" cx="50.4" cy="51.6" r="47.9"/>
<circle id="白底" fill="#FFFFFF" stroke="#231815" stroke-width="3.700000e-003" stroke-miterlimit="22.9256" cx="50.1" cy="49.9" r="44.6"/>
<g>
	<path fill="#E41E26" d="M50.1,0.7c27.1,0,49.3,22.1,49.3,49.3S77.3,99.2,50.1,99.2S0.9,77.1,0.9,49.9S23,0.7,50.1,0.7L50.1,0.7z
		 M21.6,17.9l62.3,58.6c5.7-7.3,9.2-16.5,9.2-26.5c0-23.7-19.3-43-43-43C39.2,7,29.2,11.1,21.6,17.9L21.6,17.9z M79,81.7L16.6,23.1
		c-5.9,7.4-9.5,16.7-9.5,26.8c0,23.7,19.3,43,43,43C61.3,92.9,71.4,88.7,79,81.7z"/>
</g>
<line fill="none" stroke="#E51E25" stroke-width="0.216" stroke-miterlimit="2.4142" x1="39.1" y1="51.9" x2="43.2" y2="55.6"/>
<g>
	<path fill="#231815" d="M50.1,65.8c-3.5,0-6.4,2.8-6.4,6.3c0,3.5,2.9,6.3,6.4,6.3c3.5,0,6.4-2.8,6.4-6.3
		C56.5,68.6,53.6,65.8,50.1,65.8z M50.1,75.9c-2.1,0-3.9-1.7-3.9-3.8c0-2.1,1.7-3.8,3.9-3.8c2.1,0,3.9,1.7,3.9,3.8
		S52.2,75.9,50.1,75.9z"/>
	<path fill="#231815" d="M28.5,69.8c-2.5,0-4.6,2-4.6,4.5c0,2.5,2.1,4.5,4.6,4.5s4.6-2,4.6-4.5C33,71.8,31,69.8,28.5,69.8z M28.5,77
		c-1.5,0-2.8-1.2-2.8-2.7s1.2-2.7,2.8-2.7c1.5,0,2.8,1.2,2.8,2.7S30,77,28.5,77z"/>
	<path fill="#231815" d="M53,63.4l0.1-9.7H41.3l-2.4,7.7l-7.7,0l-0.1-6.6l-1.4,0v6.6l-3.5,0l0,2.6l-1.4,0l0,2.4l1.4-0.7l0,3.2
		c3.3-0.8,5.7,0.3,7.2,3.4l9.1-0.1c-0.9-7,10-11.3,13.7-4l1.6-1.2C56.5,65.2,55.1,63.8,53,63.4z M50.2,61.5h-9l1.7-5.4h7.3V61.5z"/>
	<rect x="46.4" y="26.4" fill="#231815" width="7.6" height="6.2"/>
	<rect x="63.4" y="26.4" fill="#231815" width="7.6" height="6.2"/>
	<rect x="54.8" y="26.4" fill="#231815" width="7.6" height="6.2"/>
	<path fill="#231815" d="M43.8,43.2c0-1.8-1.5-3.3-3.4-3.3s-3.4,1.5-3.4,3.3s1.5,3.3,3.4,3.3S43.8,45,43.8,43.2z M38.4,43.2
		c0-1.1,0.9-2,2-2s2,0.9,2,2s-0.9,2-2,2S38.4,44.3,38.4,43.2z"/>
	<path fill="#231815" d="M61,39.9c-1.9,0-3.4,1.5-3.4,3.3s1.5,3.3,3.4,3.3s3.4-1.5,3.4-3.3S62.9,39.9,61,39.9z M61,45.5
		c-1.3,0-2.3-1-2.3-2.3s1-2.3,2.3-2.3s2.3,1,2.3,2.3S62.3,45.5,61,45.5z"/>
	<path fill="#231815" d="M45.8,33.4l0.1-9.3h-6.5l-3.2,7.2l-2.6,2.3l1.9,6.2l-1.9,0v1.1h2.2c3.7-3.7,6.6-2.9,9.1,0h11.5
		c1.6-3.1,6.6-3.9,9,0h6.4v-7.5L45.8,33.4z"/>
</g>
</svg>
