<?xml version="1.0" encoding="utf-8"?>
<!-- Generator: Adobe Illustrator 18.1.1, SVG Export Plug-In . SVG Version: 6.00 Build 0)  -->
<svg version="1.1" id="图层_1" xmlns="http://www.w3.org/2000/svg" xmlns:xlink="http://www.w3.org/1999/xlink" x="0px" y="0px"
	width="100" height="100" enable-background="new 0 0 100 100" xml:space="preserve">
<circle fill="none" stroke="#CDCCCC" stroke-width="3.700000e-003" stroke-miterlimit="22.9256" cx="49.6" cy="51.5" r="48.2"/>
<circle id="白底" fill="#FFFFFF" stroke="#231815" stroke-width="3.700000e-003" stroke-miterlimit="22.9256" cx="49.3" cy="49.9" r="44.9"/>
<g>
	<path fill="#E41E26" d="M49.4,0.3C76.7,0.3,99,22.5,99,49.8S76.7,99.4,49.4,99.4S-0.2,77.2-0.2,49.9S22.1,0.3,49.4,0.3L49.4,0.3z
		 M20.7,17.6l62.7,58.9c5.8-7.4,9.2-16.6,9.2-26.7C92.6,26,73.2,6.6,49.4,6.6C38.4,6.6,28.3,10.8,20.7,17.6L20.7,17.6z M78.4,81.8
		l-62.8-59c-5.9,7.4-9.5,16.8-9.5,27c0,23.8,19.4,43.2,43.2,43.2C60.6,93.1,70.8,88.8,78.4,81.8z"/>
</g>
<line fill="none" stroke="#E51E25" stroke-width="0.216" stroke-miterlimit="2.4142" x1="38.2" y1="51.8" x2="42.3" y2="55.5"/>
<g>
	<path fill="#231815" stroke="#231815" stroke-width="0.216" stroke-miterlimit="2.4142" d="M76.3,45.8c-2.5-2.5-5.5-3.7-9.1-3.7
		c-1.7,0-3.4,0.3-5,1l-3.1-6.8l1.1-3.1l-0.2-0.1l0.8-2.3c0.9,0,1.7-0.1,2.2-0.2c1-0.2,1.4-0.7,1.4-1.3c0-1.2-0.4-1.8-1.2-1.8
		c-0.4,0-1.1,0.1-1.9,0.3c-0.8,0.2-1.4,0.3-1.7,0.3c-0.4,0-0.9,0-1.5-0.1C57.6,28,57.2,28,57,28c-0.5,0-0.7,0.3-0.7,0.9
		c0,0.2,0.5,0.5,1.4,1c0.9,0.5,1.7,0.8,2.3,0.9l-0.8,2.1L59,32.8L58.2,35H39l1.9-5.2l4.8-0.2l-1-1.6H40l-0.8,2.7l-4.5,12.2
		c-1.3-0.4-2.7-0.7-4.1-0.7c-3.5,0-6.6,1.2-9,3.7c-2.5,2.5-3.7,5.4-3.7,8.9c0,3.5,1.2,6.5,3.8,9c2.5,2.5,5.5,3.7,9,3.7
		c3.5,0,6.6-1.2,9.1-3.7c2.5-2.5,3.7-5.4,3.7-9c0-2.5-0.7-4.8-2.1-6.9c-1.4-2.1-3.2-3.6-5.5-4.6l1-2.5l14,16.6l3.7-0.4
		c0.5,3,2,5.5,4.3,7.5c2.4,2,5.1,3,8.3,3c3.5,0,6.5-1.2,9-3.7c2.5-2.5,3.8-5.4,3.8-9C80,51.3,78.8,48.3,76.3,45.8z M42,54.8
		c0,3.1-1.1,5.7-3.3,7.9c-2.2,2.2-4.9,3.3-8,3.3c-3.1,0-5.8-1.1-8-3.3c-2.2-2.2-3.3-4.8-3.3-7.9c0-3.1,1.1-5.7,3.3-7.9
		c2.2-2.2,4.9-3.3,8-3.3c1.2,0,2.4,0.2,3.6,0.6c-1.3,3.7-2.4,6.6-3.2,8.7l-1,2.3c0,0.3,0.2,0.5,0.5,0.5c0.4,0,0.9-0.8,1.5-2.3
		l3.3-8.8C39.8,46.6,42,50,42,54.8z M50.7,55.1L37.4,39.3l1.1-3h19.2L50.7,55.1z M54.4,54.8v0.8L52,55.8l6.6-17.6l2.5,5.6
		C56.6,46.1,54.4,49.8,54.4,54.8z M55.9,54.8c0-4.3,1.9-7.6,5.8-9.8l4.3,9.5l-10.1,0.9L55.9,54.8L55.9,54.8z M75.3,62.7
		c-2.2,2.2-4.9,3.3-8,3.3c-2.8,0-5.2-0.9-7.3-2.6c-2.1-1.7-3.4-3.9-3.9-6.6l12-1.1l-5.2-11.3c1.5-0.6,2.9-0.9,4.4-0.9
		c3.1,0,5.8,1.1,8,3.3c2.2,2.2,3.3,4.8,3.3,7.9C78.6,57.8,77.5,60.5,75.3,62.7z"/>
	<polygon fill="#231815" stroke="#231815" stroke-width="0.216" stroke-miterlimit="2.4142" points="51.1,49.8 51.1,49 48,49 
		48,50.2 50,50.2 50,53.8 51.1,53.8 	"/>
	<polygon fill="#231815" stroke="#231815" stroke-width="0.216" stroke-miterlimit="2.4142" points="51.7,59.3 50.7,59.3 50.7,62.8 
		50.7,62.8 50.7,63.9 53.7,63.9 53.7,62.8 51.7,62.8 	"/>
</g>
</svg>
