<?xml version="1.0" encoding="utf-8"?>
<!-- Generator: Adobe Illustrator 18.1.1, SVG Export Plug-In . SVG Version: 6.00 Build 0)  -->
<svg version="1.1" id="图层_1" xmlns="http://www.w3.org/2000/svg" xmlns:xlink="http://www.w3.org/1999/xlink" x="0px" y="0px"
	 width="100" height="100" enable-background="new 0 0 100 100" xml:space="preserve">
<circle fill="none" stroke="#CDCCCC" stroke-width="3.700000e-003" stroke-miterlimit="22.9256" cx="50.2" cy="51.5" r="47.9"/>
<circle id="白底" fill="#FFFFFF" stroke="#231815" stroke-width="3.700000e-003" stroke-miterlimit="22.9256" cx="49.9" cy="49.9" r="44.6"/>
<g>
	<path fill="#E41E26" d="M50,0.6c27.1,0,49.3,22.1,49.3,49.3S77.1,99.1,50,99.1S0.8,77,0.8,49.9S22.9,0.6,50,0.6L50,0.6z M21.5,17.8
		l62.3,58.5C89.5,69,93,59.8,93,49.8c0-23.7-19.3-43-43-43C39.1,6.9,29.1,11,21.5,17.8L21.5,17.8z M78.9,81.6L16.5,23
		C10.6,30.4,7,39.7,7,49.8c0,23.7,19.3,43,43,43C61.1,92.8,71.2,88.6,78.9,81.6z"/>
</g>
<g>
	<path fill="#231815" stroke="#231815" stroke-width="3.685039e-003" stroke-miterlimit="2.4142" d="M56.8,41.7v12h10.6
		c2.7-3.4,8.6-3,10.9,0h8v-12H56.8z"/>
	<path fill="#231815" stroke="#231815" stroke-width="3.685039e-003" stroke-miterlimit="2.4142" d="M73.1,52.6
		c-3.4,0-6.2,2.7-6.2,6.1c0,3.4,2.8,6.1,6.2,6.1s6.2-2.7,6.2-6.1C79.3,55.3,76.5,52.6,73.1,52.6z M73.1,61.8c-1.8,0-3.2-1.4-3.2-3.1
		c0-1.7,1.4-3.1,3.2-3.1s3.2,1.4,3.2,3.1C76.3,60.4,74.9,61.8,73.1,61.8z"/>
	<path fill="#231815" stroke="#231815" stroke-width="3.685039e-003" stroke-miterlimit="2.4142" d="M50.6,44.5
		c-1.3-2.1-4.1-2.3-8.4-0.6c-3.4,1.4-6.7,2.3-9.5,0.4c-2.7-4.4-5.4-7.3-8.2-7.8l-1.2-1.2l-0.6,1.2c-1.6,1.2-2.3,2.5-2.1,3.7l-2,1.9
		c-0.5,0.9,0.3,2.2,2.3,1c2.4-2,3.8-0.7,4.8,2.1c-1.7,2.2-1.2,4.1,0.1,6l-3.3,3.5c-1.1,0.8-1.3,2-0.6,3.4l1.6,5.6l2.2-0.6l-0.8-5.9
		c-0.6-2.1,1.5-3.5,3-3.6c0.6,0.9,1,2,1.9,2.8c1.5,0.9,2,2,1.7,3.2l-0.9,5.4l2.7,0l0.2-3.2c0.6-2.7,0.4-5.2-1.4-7l0.1-1.4
		c3,1,6.2,0.8,9.5-0.9l0.9,3.5c0.7,1,0.8,2.3,0.4,3.9l-2.6,4.9l3.1,0l2.5-5.6L46.1,54l2.4,2.7c2.3,2.5,0.1,4.9,0.1,7.4l3.2,0.1
		l0.2-7.2l-2-1.8c-1.1-2.6,3.5-3.6,3-1l3.4,0.1l0-6.3C55.6,45.3,53.9,43.7,50.6,44.5z M53.7,50.9h-1.9v-4.4
		C53.2,46.2,53.8,47.6,53.7,50.9z"/>
</g>
</svg>
