<?xml version="1.0" encoding="utf-8"?>
<!-- Generator: Adobe Illustrator 18.1.1, SVG Export Plug-In . SVG Version: 6.00 Build 0)  -->
<svg version="1.1" id="图层_1" xmlns="http://www.w3.org/2000/svg" xmlns:xlink="http://www.w3.org/1999/xlink" x="0px" y="0px"
	 width="100" height="100" enable-background="new 0 0 100 100" xml:space="preserve">
<circle fill="none" stroke="#CDCCCC" stroke-width="3.700000e-003" stroke-miterlimit="22.9256" cx="50.2" cy="51.5" r="48.3"/>
<circle id="白底" fill="#FFFFFF" stroke="#231815" stroke-width="3.700000e-003" stroke-miterlimit="22.9256" cx="49.9" cy="49.9" r="45"/>
<g>
	<path fill="#E41E26" d="M49.9,0.2c27.4,0,49.7,22.3,49.7,49.7S77.3,99.5,49.9,99.5S0.3,77.2,0.3,49.9S22.6,0.2,49.9,0.2L49.9,0.2z
		 M21.2,17.5L84,76.6c5.8-7.4,9.2-16.6,9.2-26.7C93.3,26,73.8,6.5,49.9,6.5C38.9,6.5,28.8,10.7,21.2,17.5L21.2,17.5z M79,81.9
		L16.1,22.8c-6,7.4-9.5,16.8-9.5,27c0,23.9,19.5,43.3,43.3,43.3C61.1,93.2,71.3,88.9,79,81.9z"/>
</g>
<g>
	
		<ellipse fill="#231815" stroke="#231815" stroke-width="3.685039e-003" stroke-miterlimit="2.4142" cx="48.8" cy="23" rx="3.9" ry="3.8"/>
	<path fill="#231815" stroke="#231815" stroke-width="3.685039e-003" stroke-miterlimit="2.4142" d="M61.2,56.6
		c5.3-7.9,19.4-6.7,21.9,1.6h5c0-3,1-5.5,2.6-7.9H58.4c3.2-0.9,2.6-6.1-0.9-14.5c-4.4-7.8-8.9-11.8-13.7-2.1
		c-0.9,2.1-2.6,3.7-6.6,4.2L35,39.1c-2.4,0.3-3.7,1.2-2.3,3.3c-0.2,3.5-1.1,6.6-2.5,9.5c-1.4-0.7-2.9-1-4.6-1
		c-5.9,0-10.6,4.7-10.6,10.5S19.8,72,25.6,72s10.6-4.7,10.6-10.5c0-3.4-1.7-6.5-4.3-8.4c0.4-0.7,0.8-1.3,1.2-2l6.4,5.4l0.1,5
		c0.8,3,2.4,3.4,5,0.9c0,0.2-0.1,0.4-0.1,0.6c0,1.6,1.3,2.8,2.9,2.8c1.4,0,2.6-1,2.8-2.3h11.5c0.2,5.6,4.9,10.2,10.6,10.2
		c5.9,0,10.6-4.7,10.6-10.5s-4.8-10.5-10.6-10.5c-5.5,0-10.1,4.2-10.6,9.6H50.3c-0.2-0.8-0.8-1.4-1.5-1.8l1,0c3.1,0.9,4.1-0.8,3-5.2
		l-1.5-4.5l4.9-0.2v6.1L61.2,56.6L61.2,56.6z M33.8,61.4c0,4.5-3.7,8.1-8.2,8.1c-4.5,0-8.2-3.6-8.2-8.1c0-4.5,3.7-8.1,8.2-8.1
		c1.2,0,2.4,0.3,3.4,0.8c-1.3,2.3-2.9,4.4-4.6,6.5c-0.5,0.6-0.5,3.2,2.6,0c1.3-1.7,2.5-3.6,3.6-5.4C32.6,56.6,33.8,58.9,33.8,61.4z
		 M39.5,53.7l-5.6-3.9l-0.1-1.5h5.7V53.7z M41.1,46.5h-5.9c0-1.6,0.6-3,0-4.8c3.2,2,7.5-1.8,11.3-2.7l1.3,4.2
		C44.8,44.3,42.6,45.4,41.1,46.5z M72.5,55c4.5,0,8.2,3.6,8.2,8.1s-3.7,8.1-8.2,8.1c-4.5,0-8.2-3.6-8.2-8.1S68,55,72.5,55z
		 M49.7,62.9c0,1.2-1,2.2-2.2,2.2c-1.2,0-2.2-1-2.2-2.2c0-1.2,1-2.2,2.2-2.2C48.7,60.7,49.7,61.7,49.7,62.9z M45.2,59.2v-6.8
		l1.3,0.1l2.4,6.7L45.2,59.2L45.2,59.2z"/>
</g>
</svg>
