<?xml version="1.0" encoding="utf-8"?>
<!-- Generator: Adobe Illustrator 18.1.1, SVG Export Plug-In . SVG Version: 6.00 Build 0)  -->
<svg version="1.1" id="图层_1" xmlns="http://www.w3.org/2000/svg" xmlns:xlink="http://www.w3.org/1999/xlink" x="0px" y="0px"
	 width="100" height="100" enable-background="new 0 0 100 100" xml:space="preserve">
<circle fill="none" stroke="#CDCCCC" stroke-width="3.700000e-003" stroke-miterlimit="22.9256" cx="50.2" cy="52" r="48"/>
<circle id="白底" fill="#FFFFFF" stroke="#231815" stroke-width="3.700000e-003" stroke-miterlimit="22.9256" cx="49.9" cy="50.4" r="44.7"/>
<g>
	<path fill="#E41E26" d="M49.9,1c27.2,0,49.4,22.2,49.4,49.4S77.1,99.7,49.9,99.7S0.6,77.5,0.6,50.4S22.7,1,49.9,1L49.9,1z
		 M21.3,18.2l62.5,58.7c5.8-7.3,9.2-16.5,9.2-26.6C93,26.6,73.7,7.3,49.9,7.3C39,7.3,29,11.4,21.3,18.2L21.3,18.2z M78.9,82.2
		L16.3,23.5c-5.9,7.4-9.5,16.7-9.5,26.9c0,23.7,19.3,43.1,43.1,43.1C61.1,93.4,71.2,89.2,78.9,82.2z"/>
</g>
<g>
	
		<ellipse fill="#231815" stroke="#231815" stroke-width="3.118110e-002" stroke-miterlimit="2.4142" cx="46.9" cy="29.2" rx="3.4" ry="3.3"/>
	<path fill="#231815" stroke="#231815" stroke-width="3.118110e-002" stroke-miterlimit="2.4142" d="M44.8,61.4l3,0
		c2.7,0.8,3.5-0.7,2.6-4.5L49.1,53l4.6-0.1c4.5,0.6,4.3-4.2,0.8-12.6c-3.8-6.8-7.7-10.2-11.8-1.8c-0.7,1.8-2.2,3.2-5.7,3.6l-1.9,1
		c-2.1,0.3-3.2,1-2,2.9c-0.2,3.3-1.1,6.1-2.4,8.7c-1.2-0.6-2.6-1-4.1-1c-5.1,0-9.2,4.1-9.2,9.1s4.1,9.1,9.2,9.1s9.2-4.1,9.2-9.1
		c0-2.9-1.4-5.5-3.6-7.2c0.4-0.7,0.9-1.5,1.3-2.2l5.5,4.7l0.1,4.3c0.7,2.7,2.1,2.9,4.4,0.7L44.8,61.4z M33.6,62.8c0,3.8-3.2,7-7.1,7
		c-3.9,0-7.1-3.1-7.1-7s3.2-7,7.1-7c1.1,0,2.2,0.3,3.1,0.7c-1.1,1.8-2.4,3.5-3.7,5.2c-0.4,0.5-0.4,2.7,2.3,0c1-1.4,1.9-2.8,2.9-4.2
		C32.6,58.7,33.6,60.6,33.6,62.8z M43.8,60.4v-5.9l1.1,0.1l2.1,5.8H43.8z M38.8,55.6L34,52.3L33.9,51h4.9V55.6z M40.3,49.4h-5.1
		c0-1.4,0.5-2.6,0-4.2c2.7,1.8,6.5-1.6,9.8-2.3l1.1,3.7C43.4,47.5,41.5,48.5,40.3,49.4z"/>
	<path fill="#231815" stroke="#231815" stroke-width="3.118110e-002" stroke-miterlimit="2.4142" d="M82.3,29.5
		c-3.2-1.6-6.5,0.1-9.7,5.2l-0.7,3.1c1.3,6.1-0.2,10.5-7.1,10.7c-5.6,2.6-9.6,6.9-9.9,15.1h-6.7c-0.3-1-1.3-1.7-2.4-1.7
		c-1.4,0-2.5,1.1-2.5,2.4c0,1.4,1.1,2.4,2.5,2.4c1.2,0,2.2-0.9,2.4-2h2.7v1.7h4.3v-1.7h3.4c0.3,4.7,4.3,8.4,9.2,8.4
		c5.1,0,9.2-4.1,9.2-9.1c0-5-4.1-9.1-9.2-9.1c-4.9,0-8.9,3.8-9.2,8.6H55c3.7-10.1,16.9-14.7,22.7-2.5c0.4-4.2,1.7-7.8,4.9-9.7
		C83.4,44.8,83.3,37.5,82.3,29.5z M45.8,66.3c-1.1,0-1.9-0.8-1.9-1.9c0-1,0.9-1.9,1.9-1.9c1.1,0,1.9,0.8,1.9,1.9
		C47.7,65.4,46.8,66.3,45.8,66.3z M67.8,57.2c3.9,0,7.1,3.1,7.1,7s-3.2,7-7.1,7c-3.9,0-7.1-3.1-7.1-7C60.7,60.3,63.9,57.2,67.8,57.2
		z"/>
</g>
</svg>
