<?xml version="1.0" encoding="utf-8"?>
<!-- Generator: Adobe Illustrator 18.1.1, SVG Export Plug-In . SVG Version: 6.00 Build 0)  -->
<svg version="1.1" id="图层_1" xmlns="http://www.w3.org/2000/svg" xmlns:xlink="http://www.w3.org/1999/xlink" x="0px" y="0px"
	 width="100" height="100" enable-background="new 0 0 100 100" xml:space="preserve">
<circle fill="none" stroke="#CDCCCC" stroke-width="3.700000e-003" stroke-miterlimit="22.9256" cx="49.9" cy="51.3" r="48.3"/>
<circle id="白底" fill="#FFFFFF" stroke="#231815" stroke-width="3.700000e-003" stroke-miterlimit="22.9256" cx="49.6" cy="49.6" r="45"/>
<g>
	<path fill="#E41E26" d="M49.7-0.1c27.4,0,49.7,22.3,49.7,49.7S77.1,99.4,49.7,99.4S0,77,0,49.6S22.3-0.1,49.7-0.1L49.7-0.1z
		 M20.9,17.3l62.9,59.1c5.8-7.4,9.3-16.7,9.3-26.7c0-23.9-19.5-43.4-43.4-43.4C38.7,6.3,28.6,10.4,20.9,17.3L20.9,17.3z M78.8,81.7
		l-63-59.1c-6,7.4-9.5,16.8-9.5,27.1C6.4,73.5,25.8,93,49.7,93C60.9,93,71.1,88.7,78.8,81.7z"/>
</g>
<line fill="none" stroke="#E51E25" stroke-width="0.216" stroke-miterlimit="2.4142" x1="38.5" y1="51.6" x2="42.7" y2="55.3"/>
<g>
	<path fill="#231815" stroke="#231815" stroke-width="3.685039e-003" stroke-miterlimit="2.4142" d="M84.1,38.8l-25.2,9.6l-4.8-10.1
		l2.3-0.9l-1.8-2.1L16.4,50l1.1,2.6l3.7-1.4l4.3,11L18,65l2.1,2l11.8-4.6l-1.8-2.1l-2.6,1l0.7-0.4l-4.7-10.7l7.3-2.8l1.4,3.7
		c-0.7,1.5-1.2,3.1-1.2,4.9c0,6,5,10.9,11.1,10.9c6.1,0,11.1-4.9,11.1-10.9c0-0.8-0.1-1.6-0.2-2.3l30.9-12L84.1,38.8z M42.2,64.8
		c-4.9,0-9-4-9-8.9s4-8.9,9-8.9s9,4,9,8.9C51.1,60.8,47.1,64.8,42.2,64.8z M42.2,45c-3.2,0-6.1,1.3-8.1,3.5l-0.9-2l18.6-7.2
		l4.4,10.2L52.1,51C50.2,47.5,46.5,45,42.2,45z"/>
	<path fill="#231815" stroke="#231815" stroke-width="3.685039e-003" stroke-miterlimit="2.4142" d="M41.6,53.1
		c-1.7,0-3.2,1.4-3.2,3.1c0,1.7,1.4,3.1,3.2,3.1c1.7,0,3.2-1.4,3.2-3.1S43.4,53.1,41.6,53.1z"/>
</g>
</svg>
