<?xml version="1.0" encoding="utf-8"?>
<!-- Generator: Adobe Illustrator 18.1.1, SVG Export Plug-In . SVG Version: 6.00 Build 0)  -->
<svg version="1.1" id="图层_1" xmlns="http://www.w3.org/2000/svg" xmlns:xlink="http://www.w3.org/1999/xlink" x="0px" y="0px"
	 width="100" height="100" enable-background="new 0 0 100 100" xml:space="preserve">
<circle fill="none" stroke="#CDCCCC" stroke-width="3.700000e-003" stroke-miterlimit="22.9256" cx="50.2" cy="51.1" r="48"/>
<circle id="白底" fill="#FFFFFF" stroke="#231815" stroke-width="3.700000e-003" stroke-miterlimit="22.9256" cx="49.9" cy="49.4" r="44.7"/>
<g>
	<path fill="#E41E26" d="M50,0c27.2,0,49.4,22.2,49.4,49.4S77.2,98.8,50,98.8S0.6,76.6,0.6,49.4S22.8,0,50,0L50,0z M21.4,17.2
		l62.5,58.7c5.8-7.3,9.2-16.5,9.2-26.5C93.1,25.7,73.7,6.3,50,6.3C39,6.3,29,10.5,21.4,17.2L21.4,17.2z M78.9,81.2L16.4,22.5
		c-5.9,7.4-9.5,16.7-9.5,26.9c0,23.7,19.3,43.1,43.1,43.1C61.1,92.5,71.3,88.2,78.9,81.2z"/>
</g>
<line fill="none" stroke="#E51E25" stroke-width="0.216" stroke-miterlimit="2.4142" x1="38.9" y1="51.3" x2="43" y2="55"/>
<g>
	<path fill="#231815" d="M16.2,77.1c26,29.1,66.3,13.4,74.9-13.4L16.2,77.1z M38.2,80.2l2.3,1.7L36.6,83l-4.5-3.5l3.4-4.5l3.1-0.3
		l-1.1,2.5L63,72.7l0.3,3L38.2,80.2z"/>
	<ellipse fill="#231815" cx="40.1" cy="23.4" rx="3.8" ry="3.8"/>
	<path fill="#231815" d="M27.8,74.6c5.8,0,10.5-4.7,10.5-10.4c0-2.9-1.2-5.6-3.2-7.5l4,1.6l1.7,4.6c1.7,2.6,3.3,2.4,5-0.7
		c0,0,0,0,0,0.1c0,1.5,1.3,2.8,2.8,2.8c1.6,0,2.8-1.3,2.8-2.8c0-0.1,0-0.2,0-0.2l3.4-0.8c1.4,4,5.3,7,9.9,7
		c5.8,0,10.5-4.7,10.5-10.4s-4.7-10.4-10.5-10.4c-2.4,0-4.7,0.8-6.5,2.2l-2.5-3.1l-0.9,0.3c2.8-1.8,0.5-6.5-5.4-13.3
		c-0.9-6-8.7-8.3-13.4,2.3c-0.2,2.2-1.2,4.3-4.9,6l-1.7,1.8c-2.2,1-3.1,2.2-1.1,3.8c0.6,2.2,0.9,4.4,0.9,6.5
		c-0.4-0.1-0.9-0.1-1.3-0.1c-5.8,0-10.5,4.7-10.5,10.4C17.4,69.9,22.1,74.6,27.8,74.6z M31.7,53.8l-0.6-1.4l5.3-1.8l1.7,5.1
		L31.7,53.8z M48.6,64.4c-1.2,0-2.2-1-2.2-2.1s1-2.1,2.2-2.1c1.2,0,2.2,1,2.2,2.1S49.8,64.4,48.6,64.4z M64.8,49.9
		c4.5,0,8.1,3.6,8.1,8s-3.6,8-8.1,8c-3.4,0-6.4-2.1-7.5-5.1l8.4-1.9l-5.8-7.2C61.2,50.5,62.9,49.9,64.8,49.9z M56.7,57.8
		c0-1.5,0.4-2.9,1.1-4l3.6,4.2l-4.6,1.3C56.8,58.9,56.7,58.4,56.7,57.8z M52.6,47.7l3.6,4.2c-1.2,1.7-1.9,3.7-1.9,5.9
		c0,0.7,0.1,1.5,0.2,2.2l-3.4,1c-0.5-0.9-1.4-1.5-2.5-1.5c-0.9,0-1.6,0.4-2.2,1l0.2-0.6l3.3-1c3.2-0.1,3.5-2,1.2-5.8l-2.9-3.7
		L52.6,47.7z M44.3,52.5l4.4,5.5l-3.4,1.1l-2.1-6.4L44.3,52.5z M40.1,39.8l2.6,3.6c-2.5,2-4.2,3.7-5.2,5.1l-5.6,1.8
		c-0.5-1.5-0.4-3-1.5-4.5C34,46.8,36.8,41.8,40.1,39.8z M27.8,56.2c0.4,0,0.8,0,1.2,0.1c-0.4,3.6-1.5,7.1-2.7,10.5
		c-0.2,0.7,0.5,3.1,2.4-0.8c0.9-3,1.7-6,2.3-9.1c2.8,1.2,4.8,4,4.8,7.3c0,4.4-3.6,8-8.1,8c-4.5,0-8.1-3.6-8.1-8
		C19.8,59.8,23.4,56.2,27.8,56.2z"/>
</g>
</svg>
