<?xml version="1.0" encoding="utf-8"?>
<!-- Generator: Adobe Illustrator 18.1.1, SVG Export Plug-In . SVG Version: 6.00 Build 0)  -->
<svg version="1.1" id="图层_1" xmlns="http://www.w3.org/2000/svg" xmlns:xlink="http://www.w3.org/1999/xlink" x="0px" y="0px"
	 width="100" height="100" enable-background="new 0 0 100 100" xml:space="preserve">
<circle fill="none" stroke="#CDCCCC" stroke-width="3.700000e-003" stroke-miterlimit="22.9256" cx="50.1" cy="51.6" r="48.5"/>
<circle id="白底" fill="#FFFFFF" stroke="#231815" stroke-width="3.700000e-003" stroke-miterlimit="22.9256" cx="49.8" cy="49.9" r="45.1"/>
<g>
	<path fill="#E41E26" d="M49.9,0c27.5,0,49.9,22.4,49.9,49.9S77.3,99.7,49.9,99.7S0,77.3,0,49.9S22.4,0,49.9,0L49.9,0z M21,17.4
		l63.1,59.3c5.8-7.4,9.3-16.7,9.3-26.8c0-24-19.5-43.5-43.5-43.5C38.8,6.4,28.7,10.6,21,17.4L21,17.4z M79.1,82L15.9,22.7
		c-6,7.5-9.6,16.9-9.6,27.2c0,24,19.5,43.5,43.5,43.5C61.1,93.4,71.4,89.1,79.1,82z"/>
</g>
<line fill="none" stroke="#E51E25" stroke-width="0.216" stroke-miterlimit="2.4142" x1="38.7" y1="51.8" x2="42.8" y2="55.6"/>
<g>
	<path fill="#231815" d="M7.7,61.7c12.4,37.4,56,39,74.8,17.6L7.7,61.7z M26.9,73.4l1.5,2.5l-4.1-0.5l-2.8-5.1l5-2.8l3,1l-2,1.9
		l25.4,5.9l-0.9,2.9L26.9,73.4z"/>
	
		<ellipse transform="matrix(0.9176 0.3975 -0.3975 0.9176 12.7635 -18.6755)" fill="#231815" cx="51.4" cy="21.4" rx="3.9" ry="3.8"/>
	<path fill="#231815" d="M19.5,64c5.4,2.3,11.6-0.1,13.9-5.4c1.2-2.7,1.1-5.7,0-8.2l3,3.1l-0.3,4.9c0.5,3.1,2.1,3.6,4.9,1.3
		c0,0,0,0,0,0.1c-0.6,1.4,0.1,3.1,1.5,3.7c1.4,0.6,3.1,0,3.7-1.5c0-0.1,0.1-0.2,0.1-0.2l3.5,0.7c-0.3,4.3,2.1,8.6,6.4,10.4
		c5.4,2.3,11.6-0.1,13.9-5.4c2.3-5.3-0.2-11.5-5.6-13.8c-2.3-1-4.7-1.1-6.9-0.5l-1.1-3.9l-1-0.1c3.3-0.5,3.1-5.8,0.4-14.5
		c1.5-5.9-4.7-11.2-13.4-3.3c-1,2-2.9,3.5-6.9,3.6l-2.3,0.9C31,36,29.7,36.7,30.8,39c-0.3,2.3-0.9,4.4-1.8,6.4
		c-0.4-0.2-0.8-0.4-1.2-0.6c-5.4-2.3-11.6,0.1-13.9,5.4C11.7,55.5,14.2,61.7,19.5,64z M31.4,46.3l0-1.5l5.7,0.5l-0.5,5.4L31.4,46.3z
		 M42.9,62.9c-1.1-0.5-1.6-1.8-1.2-2.9c0.5-1.1,1.8-1.6,2.9-1.1c1.1,0.5,1.6,1.8,1.2,2.9S44,63.4,42.9,62.9z M63.7,55.9
		c4.1,1.8,6,6.6,4.3,10.6c-1.8,4.1-6.6,5.9-10.7,4.2c-3.2-1.4-5-4.5-4.9-7.8l8.5,1.6l-2.5-9C60.1,55.1,61.9,55.2,63.7,55.9z
		 M53,60.1c0.6-1.4,1.5-2.5,2.7-3.3l1.6,5.4l-4.8-0.6C52.6,61.1,52.8,60.6,53,60.1z M53.3,49l1.6,5.4c-1.8,1.1-3.3,2.7-4.2,4.8
		c-0.3,0.7-0.5,1.4-0.7,2.1l-3.5-0.5c-0.1-1-0.7-2-1.7-2.4c-0.8-0.4-1.7-0.3-2.4,0.1l0.5-0.5l3.4,0.4c3,1.2,4.1-0.5,3.4-4.9
		l-1.1-4.6L53.3,49z M43.6,50.2l1.8,6.9l-3.6-0.3l0.6-6.8L43.6,50.2z M44.8,36.7l0.9,4.3c-3.1,0.8-5.4,1.7-6.9,2.7L33,43.2
		c0.1-1.6,0.8-2.9,0.4-4.8C36.4,40.7,41,37.3,44.8,36.7z M26.9,47c0.4,0.2,0.7,0.4,1.1,0.6c-1.8,3.2-4.2,6-6.8,8.7
		c-0.5,0.6-0.8,3.1,2.6,0.2c2.1-2.4,4-4.9,5.8-7.5c2.1,2.3,2.9,5.7,1.5,8.7c-1.8,4.1-6.6,5.9-10.7,4.2c-4.1-1.8-6-6.6-4.3-10.6
		S22.8,45.2,26.9,47z"/>
</g>
</svg>
