<?xml version="1.0" encoding="utf-8"?>
<!-- Generator: Adobe Illustrator 18.1.1, SVG Export Plug-In . SVG Version: 6.00 Build 0)  -->
<svg version="1.1" id="图层_1" xmlns="http://www.w3.org/2000/svg" xmlns:xlink="http://www.w3.org/1999/xlink" x="0px" y="0px"
	 width="100" height="100" enable-background="new 0 0 100 100" xml:space="preserve">
<ellipse id="白底" fill="#FFFFFF" cx="49.8" cy="49.8" rx="43.2" ry="43.8"/>
<path fill="#E41E26" d="M49.9,0c27.3,0,49.6,22.3,49.6,49.6S77.3,99.2,49.9,99.2S0.3,76.9,0.3,49.6C0.3,22.3,22.6,0,49.9,0L49.9,0z
	 M21.2,17.3l62.8,59c5.8-7.4,9.2-16.6,9.2-26.7c0-23.8-19.4-43.3-43.3-43.3C38.9,6.3,28.8,10.5,21.2,17.3L21.2,17.3z M79,81.6
	l-62.8-59c-6,7.4-9.5,16.8-9.5,27c0,23.8,19.4,43.3,43.3,43.3C61.1,92.9,71.3,88.6,79,81.6z"/>
<ellipse fill="#231815" stroke="#231815" stroke-width="0.216" stroke-miterlimit="2.4142" cx="51.8" cy="23.8" rx="5.8" ry="5.8"/>
<path fill="#231815" stroke="#231815" stroke-width="3.685039e-003" stroke-miterlimit="2.4142" d="M46.7,35
	c5.5-7.5,11.6-6.2,18.9,8.2l0.8,1.8c0.5,2.7,0.9,5.3,0.1,7.6c-2,4.2-3.8,2-5.4-6.6l-3.5-3.9c0.9,7.9,1.3,15.5,0.9,22.5L65,75.7
	c0.7,3.1-3.5,5.3-5.3,2.7l-7.4-12.2l-0.2-8.3l-5.5,6.6L44,74.9c-1.6,5.5-6.3,4.1-5.8-0.8c1.3-5.1,0.9-13,3.8-15.3
	c1.3-2.1,3.2-3.6,3.8-6.4l0.4-6.7c-2.7,1.9-5.8,3.3-9.4,4.2c-4.1-0.3-4.9-0.8-2.4-2.9C39.6,43.7,44.1,40,46.7,35L46.7,35z"/>
</svg>
