<?xml version="1.0" encoding="utf-8"?>
<!-- Generator: Adobe Illustrator 18.1.1, SVG Export Plug-In . SVG Version: 6.00 Build 0)  -->
<svg version="1.1" id="图层_1" xmlns="http://www.w3.org/2000/svg" xmlns:xlink="http://www.w3.org/1999/xlink" x="0px" y="0px"
	 width="100" height="100" enable-background="new 0 0 100 100" xml:space="preserve">
<g>
	<path fill="#F4AB1C" d="M3.1,82.4L45.9,7.5C46.8,6.1,48.5,5,50.2,5c-1.7,0-3.4,1.1-4.3,2.5L3.1,82.4c-2.7,4.7-2.9,8.5,1,9.3l0,0
		C0.2,90.9,0.4,87.1,3.1,82.4z"/>
	<path fill="#F4AB1C" d="M9.5,84.5h80.8L49.9,14.4L9.5,84.5z M65.9,53.9c4.1,2.5,4.5,5.5,0.9,9.1L44.4,82.6L40,77.1L60.3,59
		l-12.5-4.4l2.6,7.7l-8.7-2.8l-6.1-12.5l12.5-6.1l8.6,3.4l-6.9,3.4L65.9,53.9z"/>
	<path fill="#010101" d="M96,80.8L54,7.5c-1-1.8-2.4-2.5-3.7-2.5c-1.7,0-3.4,1.1-4.3,2.5L3.1,82.4c-2.7,4.7-2.9,8.5,1,9.3h90.8l0,0
		C101.5,91.7,98.8,85.3,96,80.8z M9.5,84.5l40.4-70.1l40.4,70.1H9.5z"/>
	<path fill="#010101" d="M48.1,40.9l-12.5,6.1l6.1,12.5l8.7,2.8l-2.6-7.7L60.3,59L40,77.1l4.4,5.5l22.4-19.7
		c3.5-3.5,3.2-6.6-0.9-9.1l-16-6.2l6.9-3.4L48.1,40.9z"/>
</g>
</svg>
