<?xml version="1.0" encoding="utf-8"?>
<!-- Generator: Adobe Illustrator 18.1.1, SVG Export Plug-In . SVG Version: 6.00 Build 0)  -->
<svg version="1.1" id="图层_1" xmlns="http://www.w3.org/2000/svg" xmlns:xlink="http://www.w3.org/1999/xlink" x="0px" y="0px"
	 width="138" height="100" enable-background="new 0 0 138 100" xml:space="preserve">
<rect x="0" y="19.2" fill="#FDB515" width="138" height="61.5"/>
<g>
	<path fill="#FFFFFF" d="M82.2,42.6l-0.7,1.9h11.7v2.6H80.5l-0.6,1.7h11c-1.3,2-3.1,4.1-5.2,6.4c1.8,0.6,3.3,1.1,4.6,1.6l-2.1,2.5
		c-1.5-0.7-3.5-1.5-6-2.3s-4.8-1.5-6.9-2l1.4-2.4c2.2,0.6,4.2,1.2,6.2,1.8c1.1-1.1,2.1-2.1,3-3.1h-9.7l1.5-4.2H72v-2.6h6.4l0.7-1.9
		h-5v-2.5H80L81,37l2.8,0.5c0.3,0.1,0.5,0.2,0.5,0.3c0,0.1-0.1,0.3-0.3,0.5c-0.2,0.2-0.5,0.8-0.9,1.8h7.8v2.5L82.2,42.6L82.2,42.6z"
		/>
	<path fill="#FFFFFF" d="M100.4,51.7c-0.2,2.8-1,5.3-2.4,7.5c-0.7-0.4-1.6-0.8-2.9-1.3c0.8-1.1,1.5-2.4,1.9-3.7
		c0.4-1.4,0.6-3.2,0.6-5.6V38.4h16.9v17.4c0,1.1-0.4,1.8-1.2,2.2c-0.8,0.4-1.9,0.7-3.4,0.7c-0.1-1.3-0.4-2.4-1-3.2
		c0.8,0.1,1.3,0.2,1.6,0.2c0.3,0,0.6-0.1,0.7-0.2c0.1-0.1,0.2-0.4,0.2-0.8v-3h-4.1V58h-3v-6.4L100.4,51.7L100.4,51.7z M100.5,43.9
		h3.9v-3h-3.9V43.9z M104.4,46.3h-3.9v2.9h3.9V46.3z M107.4,43.9h4.1v-3h-4.1V43.9z M111.5,46.3h-4.1v2.9h4.1V46.3z"/>
</g>
<g>
	<path fill="#FFFFFF" d="M36,57.7H22.3V39.1h13.4v3.7h-9.7v3.1h5.5v3.7h-5.5V54h10V57.7z"/>
	<path fill="#FFFFFF" d="M51.9,42.7h-5.1v15h-3.6v-15h-5.1v-3.6h13.8V42.7z"/>
	<path fill="#FFFFFF" d="M69.3,53.8c-1.6,2.7-3.9,4.1-6.8,4.1c-2.4,0-4.3-0.9-5.8-2.6c-1.5-1.8-2.2-4.2-2.2-7.4
		c0-2.4,0.7-4.5,2.2-6.2c1.5-1.8,3.4-2.7,5.7-2.7c1.5,0,2.8,0.3,4.1,1s2.2,1.7,2.9,2.9l-3.2,1.7c-0.4-0.7-1-1.2-1.6-1.6
		c-0.7-0.3-1.3-0.5-1.9-0.5c-1.4,0-2.5,0.6-3.3,1.6c-0.8,1.1-1.1,2.5-1.1,4.2c0,1.7,0.4,3.1,1.1,4.2c0.8,1,1.7,1.6,2.7,1.6
		s1.8-0.1,2.3-0.4c0.5-0.3,1.1-0.8,1.8-1.7L69.3,53.8z"/>
</g>
</svg>
