<?xml version="1.0" encoding="utf-8"?>
<!-- Generator: Adobe Illustrator 18.1.1, SVG Export Plug-In . SVG Version: 6.00 Build 0)  -->
<svg version="1.1" id="图层_1" xmlns="http://www.w3.org/2000/svg" xmlns:xlink="http://www.w3.org/1999/xlink" x="0px" y="0px"
	 width="100" height="100" enable-background="new 0 0 100 100" xml:space="preserve">
<ellipse fill="#FFFFFF" stroke="#2A3685" stroke-width="2.8346" stroke-miterlimit="2.4142" cx="50" cy="49.7" rx="48.2" ry="47.6"/>
<ellipse fill="#2A3685" cx="50" cy="49.7" rx="44.3" ry="43.8"/>
<polygon fill="#FFFFFF" points="59.5,57.3 20.1,48.2 24.5,28.9 71.1,39.6 "/>
<polygon fill="#FFFFFF" points="68.7,57.5 61.8,54.8 69.4,43.2 73.3,44.6 "/>
<polygon fill="#FFFFFF" points="76,62.9 69.6,57.6 73.7,45.2 82,44.8 "/>
<polygon fill="#FFFFFF" points="45.1,60.1 28.2,56.4 28.1,50.8 48,55.1 "/>
<rect x="33.3" y="58.4" transform="matrix(-0.9749 -0.2227 0.2227 -0.9749 54.2566 133.9404)" fill="#FFFFFF" width="2.7" height="11"/>
<rect x="27.7" y="63.7" transform="matrix(0.1906 0.9817 -0.9817 0.1906 91.4291 27.4578)" fill="#FFFFFF" width="2.7" height="11"/>
</svg>
