<?xml version="1.0" encoding="utf-8"?>
<!-- Generator: Adobe Illustrator 18.1.1, SVG Export Plug-In . SVG Version: 6.00 Build 0)  -->
<svg version="1.1" id="图层_1" xmlns="http://www.w3.org/2000/svg" xmlns:xlink="http://www.w3.org/1999/xlink" x="0px" y="0px"
	 width="138" height="100" enable-background="new 0 0 138 100" xml:space="preserve">
<rect y="7.7" fill="#010101" width="138" height="84.3"/>
<g>
	<path fill="#B9539F" d="M41.6,68.2H21.1V28.5h4.6V64h15.9L41.6,68.2L41.6,68.2z"/>
	<path fill="#6ABD45" d="M72.6,68.2h-21V28.5h20.1v4.2H56.3v13.2h14.3v4.2H56.3V64h16.4V68.2z"/>
	<path fill="#70CDDD" d="M84.2,68.2V28.5h10.9c14,0,21,6.4,21,19.3c0,6.1-1.9,11-5.8,14.8c-3.9,3.7-9.1,5.6-15.6,5.6H84.2z
		 M88.8,32.7V64h5.9c5.2,0,9.2-1.4,12.1-4.2c2.9-2.8,4.3-6.7,4.3-11.8c0-10.2-5.4-15.2-16.2-15.2L88.8,32.7L88.8,32.7z"/>
</g>
</svg>
