<?xml version="1.0" encoding="utf-8"?>
<!-- Generator: Adobe Illustrator 18.1.1, SVG Export Plug-In . SVG Version: 6.00 Build 0)  -->
<svg version="1.1" id="图层_1" xmlns="http://www.w3.org/2000/svg" xmlns:xlink="http://www.w3.org/1999/xlink" x="0px" y="0px"
	 width="100" height="100" enable-background="new 0 0 100 100" xml:space="preserve">
<polyline fill="#FBB217" points="99.3,50 50,0.7 0.7,50 50,99.3 99.3,50 "/>
<path fill="#010101" d="M50.9,54V24.5l-4.4,4.7v-6l6.5-7.1l6.5,7.1v6l-4.4-4.7v53.3h-4.3V67.4c0-4.6-1.8-9.1-5.1-12.3l-13-13
	l0.2,6.4l-4.3-4.2l-0.4-9.6L38,35l4.3,4.2L35.8,39L50.9,54z"/>
<path fill="#010101" d="M46.3,6.9L6.9,46.3c-1,1-1.5,2.3-1.5,3.7c0,1.4,0.6,2.7,1.5,3.7l39.4,39.4c2,2,5.3,2,7.4,0l39.4-39.4
	c2-2,2-5.4,0-7.4L53.7,6.9C51.7,4.8,48.3,4.8,46.3,6.9L46.3,6.9z M47.5,8.1c1.4-1.4,3.6-1.4,4.9,0l39.4,39.4c1.4,1.4,1.4,3.6,0,4.9
	L52.5,91.9c-1.4,1.4-3.6,1.4-4.9,0L8.1,52.5c-0.6-0.7-1-1.5-1-2.5c0-0.9,0.4-1.8,1-2.5L47.5,8.1z"/>
</svg>
