<?xml version="1.0" encoding="utf-8"?>
<!-- Generator: Adobe Illustrator 18.1.1, SVG Export Plug-In . SVG Version: 6.00 Build 0)  -->
<svg version="1.1" id="图层_1" xmlns="http://www.w3.org/2000/svg" xmlns:xlink="http://www.w3.org/1999/xlink" x="0px" y="0px"
	 width="100" height="100" enable-background="new 0 0 100 100" xml:space="preserve">
<polyline fill="#2A6AB4" points="99.6,49.8 49.8,0 0,49.8 49.8,99.6 99.6,49.8 "/>
<path fill="#FFFFFF" d="M50.7,53.9V24l-4.4,4.8v-6.1l6.6-7.1l6.6,7.1v6.1L55.1,24v53.8h-4.4V67.3c0-4.7-1.9-9.2-5.2-12.5L32.4,41.7
	l0.2,6.5l-4.3-4.3L28,34.2l9.7,0.4l4.3,4.3l-6.5-0.2L50.7,53.9z"/>
<path fill="#FFFFFF" d="M46.1,6.2L6.2,46.1c-1,1-1.5,2.3-1.5,3.7c0,1.4,0.6,2.7,1.5,3.7l39.8,39.8c2.1,2.1,5.4,2.1,7.5,0l39.8-39.8
	c2.1-2.1,2.1-5.4,0-7.5L53.5,6.2C51.5,4.2,48.1,4.2,46.1,6.2L46.1,6.2z M47.3,7.5c1.4-1.4,3.6-1.4,5,0l39.8,39.8
	c1.4,1.4,1.4,3.6,0,5L52.3,92.1c-1.4,1.4-3.6,1.4-5,0L7.5,52.3c-0.6-0.7-1-1.6-1-2.5c0-0.9,0.4-1.8,1-2.5L47.3,7.5z"/>
</svg>
