<?xml version="1.0" encoding="utf-8"?>
<!-- Generator: Adobe Illustrator 18.1.1, SVG Export Plug-In . SVG Version: 6.00 Build 0)  -->
<svg version="1.1" id="图层_1" xmlns="http://www.w3.org/2000/svg" xmlns:xlink="http://www.w3.org/1999/xlink" x="0px" y="0px"
	 width="100" height="100" enable-background="new 0 0 100 100" xml:space="preserve">
<g>
	
		<rect x="14.6" y="14.6" transform="matrix(0.7071 0.7071 -0.7071 0.7071 49.6928 -20.5834)" fill="#FCB316" width="70.3" height="70.3"/>
	<path fill="#010101" d="M48.8,53.8V23.9l4.4,4.8v-6.1l-6.6-7.1L40,22.6v6.1l4.4-4.8v53.7h4.4V67.2c0-4.7,1.9-9.1,5.1-12.4L67,41.6
		l-0.2,6.5l4.3-4.3l0.4-9.7l-9.7,0.4l-4.3,4.3l6.5-0.2L48.8,53.8z"/>
	<path fill="#010101" d="M53.4,6.2L93.2,46c1,1,1.5,2.3,1.5,3.7s-0.6,2.7-1.5,3.7L53.4,93.2c-2.1,2.1-5.4,2.1-7.4,0L6.2,53.4
		c-2.1-2.1-2.1-5.4,0-7.5L46,6.2C48,4.1,51.4,4.1,53.4,6.2L53.4,6.2z M52.2,7.5c-1.4-1.4-3.6-1.4-5,0L7.5,47.2c-1.4,1.4-1.4,3.6,0,5
		l39.8,39.8c1.4,1.4,3.6,1.4,5,0l39.8-39.8c0.7-0.7,1-1.6,1-2.5c0-0.9-0.4-1.8-1-2.5L52.2,7.5z"/>
</g>
</svg>
