<?xml version="1.0" encoding="utf-8"?>
<!-- Generator: Adobe Illustrator 18.1.1, SVG Export Plug-In . SVG Version: 6.00 Build 0)  -->
<svg version="1.1" id="图层_1" xmlns="http://www.w3.org/2000/svg" xmlns:xlink="http://www.w3.org/1999/xlink" x="0px" y="0px"
	 width="100" height="100" enable-background="new 0 0 100 100" xml:space="preserve">
<g>
	
		<rect x="15" y="15" transform="matrix(0.7071 0.7071 -0.7071 0.7071 50.0995 -20.7585)" fill="#2B6BB4" width="70.2" height="70.2"/>
	<path fill="#FFFFFF" d="M49.2,54.2V24.4l4.4,4.8v-6.1L47,16l-6.6,7.1v6.1l4.4-4.8V78h4.4V67.6c0-4.7,1.9-9.1,5.1-12.4l13.1-13.1
		l-0.2,6.5l4.3-4.3l0.4-9.7L62.2,35l-4.3,4.3l6.5-0.2L49.2,54.2z"/>
	<path fill="#FFFFFF" d="M53.8,6.6l39.7,39.7c1,1,1.5,2.3,1.5,3.7c0,1.4-0.6,2.7-1.5,3.7L53.8,93.5c-2.1,2.1-5.4,2.1-7.4,0L6.7,53.8
		c-2.1-2.1-2.1-5.4,0-7.5L46.4,6.6C48.5,4.6,51.8,4.6,53.8,6.6L53.8,6.6z M52.6,7.9c-1.4-1.4-3.6-1.4-5,0L7.9,47.6
		c-1.4,1.4-1.4,3.6,0,5l39.7,39.7c1.4,1.4,3.6,1.4,5,0l39.7-39.7c0.7-0.7,1-1.6,1-2.5c0-0.9-0.4-1.8-1-2.5L52.6,7.9z"/>
</g>
</svg>
