<?xml version="1.0" encoding="utf-8"?>
<!-- Generator: Adobe Illustrator 18.1.1, SVG Export Plug-In . SVG Version: 6.00 Build 0)  -->
<svg version="1.1" id="图层_1" xmlns="http://www.w3.org/2000/svg" xmlns:xlink="http://www.w3.org/1999/xlink" x="0px" y="0px"
	 width="100" height="100" enable-background="new 0 0 100 100" xml:space="preserve">
<g>
	
		<rect x="14.8" y="14.6" transform="matrix(0.7071 0.7071 -0.7071 0.7071 49.8775 -20.7614)" fill="#FBB217" width="70.5" height="70.5"/>
	<path fill="#010101" d="M49.1,46.3l0,31.6h-4.4V24l-4.4,4.8v-6.1l6.6-7.1l6.6,7.1v6.1L49.1,24v4.1c0,9.4,3.7,18.3,10.3,24.9
		l9.3,9.3l-3.1,3.1l-9.4-9.4C53,53,51.1,50.1,49.1,46.3L49.1,46.3z"/>
	<path fill="#010101" d="M53.7,6.2l39.9,39.9c1,1,1.5,2.3,1.5,3.7s-0.6,2.7-1.5,3.7L53.7,93.4c-2.1,2.1-5.4,2.1-7.5,0L6.4,53.6
		c-2.1-2.1-2.1-5.4,0-7.5L46.3,6.2C48.3,4.2,51.7,4.2,53.7,6.2L53.7,6.2z M52.5,7.5c-1.4-1.4-3.6-1.4-5,0L7.7,47.3
		c-1.4,1.4-1.4,3.6,0,5l39.9,39.9c1.4,1.4,3.6,1.4,5,0l39.9-39.9c0.7-0.7,1-1.6,1-2.5s-0.4-1.8-1-2.5L52.5,7.5z"/>
</g>
</svg>
