<?xml version="1.0" encoding="utf-8"?>
<!-- Generator: Adobe Illustrator 18.1.1, SVG Export Plug-In . SVG Version: 6.00 Build 0)  -->
<svg version="1.1" id="图层_1" xmlns="http://www.w3.org/2000/svg" xmlns:xlink="http://www.w3.org/1999/xlink" x="0px" y="0px"
	 width="100" height="100" enable-background="new 0 0 100 100" xml:space="preserve">
<circle fill="none" stroke="#CDCCCC" stroke-width="3.700000e-003" stroke-miterlimit="22.9256" cx="50" cy="51.5" r="48.4"/>
<circle id="白底" fill="#FFFFFF" stroke="#231815" stroke-width="3.700000e-003" stroke-miterlimit="22.9256" cx="49.7" cy="49.8" r="45"/>
<g>
	<path fill="#E41E26" d="M49.8,0c27.4,0,49.8,22.4,49.8,49.8S77.2,99.5,49.8,99.5S0,77.2,0,49.8S22.4,0,49.8,0L49.8,0z M20.9,17.4
		l63,59.2c5.8-7.4,9.3-16.7,9.3-26.8c0-23.9-19.5-43.4-43.4-43.4C38.7,6.4,28.6,10.5,20.9,17.4L20.9,17.4z M78.9,81.9l-63-59.2
		c-6,7.4-9.5,16.9-9.5,27.1c0,23.9,19.5,43.4,43.4,43.4C61,93.2,71.2,88.9,78.9,81.9z"/>
</g>
<path fill="#231815" stroke="#231815" stroke-width="3.700000e-003" stroke-miterlimit="22.9256" d="M28.6,79.5h12.2l0-29.1
	c0.6-4.4,3.5-6.3,8.6-5.9l11.7,0.2L50.7,54.9l15.7-0.1l16.6-17.3l-18.9-15H49l12,10.6l-21.7,0c-6.2,0.9-9.8,4.4-10.7,10.5V79.5z"/>
</svg>
