<?xml version="1.0" encoding="utf-8"?>
<!-- Generator: Adobe Illustrator 18.1.1, SVG Export Plug-In . SVG Version: 6.00 Build 0)  -->
<svg version="1.1" id="图层_1" xmlns="http://www.w3.org/2000/svg" xmlns:xlink="http://www.w3.org/1999/xlink" x="0px" y="0px"
	 width="100" height="100" enable-background="new 0 0 100 100" xml:space="preserve">
<g>
	
		<rect x="14.6" y="14.7" transform="matrix(0.7071 0.7071 -0.7071 0.7071 50.0238 -20.6531)" fill="#2A6AB4" width="70.6" height="70.6"/>
	<path fill="#FFFFFF" d="M49.1,46.5l0,31.7h-4.4v-54L40.2,29v-6.1l6.6-7.1l6.6,7.1V29L49,24.2v4.1c0,9.4,3.7,18.4,10.3,25l9.3,9.3
		l-3.1,3.1l-9.4-9.5C53,53.3,51.1,50.3,49.1,46.5L49.1,46.5z"/>
	<path fill="#FFFFFF" d="M53.7,6.4l39.9,39.9c1,1,1.6,2.3,1.6,3.7s-0.6,2.8-1.6,3.7l-39.9,40c-2.1,2.1-5.4,2.1-7.5,0l-40-40
		c-2.1-2.1-2.1-5.4,0-7.5L46.2,6.4C48.3,4.3,51.6,4.3,53.7,6.4L53.7,6.4z M52.4,7.6c-1.4-1.4-3.6-1.4-5,0L7.5,47.6
		c-1.4,1.4-1.4,3.6,0,5l40,39.9c1.4,1.4,3.6,1.4,5,0l40-39.9c0.7-0.7,1-1.6,1-2.5s-0.4-1.8-1-2.5L52.4,7.6z"/>
</g>
</svg>
