<?xml version="1.0" encoding="utf-8"?>
<!-- Generator: Adobe Illustrator 18.1.1, SVG Export Plug-In . SVG Version: 6.00 Build 0)  -->
<svg version="1.1" id="图层_1" xmlns="http://www.w3.org/2000/svg" xmlns:xlink="http://www.w3.org/1999/xlink" x="0px" y="0px"
	 width="100" height="100" enable-background="new 0 0 100 100" xml:space="preserve">
<g>
	
		<rect x="14.8" y="14.8" transform="matrix(-0.7071 0.7071 -0.7071 -0.7071 120.7107 50)" fill="#FBB217" width="70.3" height="70.3"/>
	<path fill="#010101" d="M50.9,46.4l0,31.5h4.4V24.2l4.4,4.8v-6.1l-6.6-7.1l-6.6,7.1V29l4.4-4.8v4.1c0,9.4-3.7,18.3-10.3,24.9
		l-9.3,9.3l3.1,3.1l9.4-9.4C47,53.2,48.9,50.2,50.9,46.4L50.9,46.4z"/>
	<path fill="#010101" d="M46.3,6.5c2.1-2.1,5.4-2.1,7.5,0l39.8,39.8c2.1,2.1,2.1,5.4,0,7.5L53.7,93.5c-2.1,2.1-5.4,2.1-7.5,0
		L6.5,53.7c-1-1-1.5-2.3-1.5-3.7c0-1.4,0.6-2.7,1.5-3.7L46.3,6.5L46.3,6.5z M7.7,47.5c-0.7,0.7-1,1.5-1,2.5c0,0.9,0.4,1.8,1,2.5
		l39.8,39.8c1.4,1.4,3.6,1.4,5,0l39.8-39.8c1.4-1.4,1.4-3.6,0-5L52.5,7.7c-1.4-1.4-3.6-1.4-5,0L7.7,47.5z"/>
</g>
</svg>
