<?xml version="1.0" encoding="utf-8"?>
<!-- Generator: Adobe Illustrator 18.1.1, SVG Export Plug-In . SVG Version: 6.00 Build 0)  -->
<svg version="1.1" id="图层_1" xmlns="http://www.w3.org/2000/svg" xmlns:xlink="http://www.w3.org/1999/xlink" x="0px" y="0px"
	 width="100" height="100" enable-background="new 0 0 100 100" xml:space="preserve">
<g>
	
		<rect x="14.6" y="14.6" transform="matrix(-0.7071 0.7071 -0.7071 -0.7071 120.3747 49.8693)" fill="#2A6AB4" width="70.5" height="70.5"/>
	<path fill="#FFFFFF" d="M50.7,46.3l0,31.6h4.4V24l4.4,4.8v-6.1L53,15.6l-6.6,7.1v6.1l4.4-4.8v4.1c0,9.4-3.7,18.3-10.3,24.9
		l-9.3,9.3l3.1,3.1l9.4-9.5C46.8,53.1,48.8,50.1,50.7,46.3L50.7,46.3z"/>
	<path fill="#FFFFFF" d="M46.1,6.2c2.1-2.1,5.4-2.1,7.5,0l39.9,39.9c2.1,2.1,2.1,5.4,0,7.5L53.6,93.5c-2.1,2.1-5.4,2.1-7.5,0
		L6.2,53.6c-1-1-1.5-2.3-1.5-3.7s0.6-2.7,1.5-3.7L46.1,6.2L46.1,6.2z M7.5,47.4c-0.7,0.7-1,1.5-1,2.5s0.4,1.8,1,2.5l39.9,39.9
		c1.4,1.4,3.6,1.4,5,0l39.9-39.9c1.4-1.4,1.4-3.6,0-5L52.4,7.5c-1.4-1.4-3.6-1.4-5,0L7.5,47.4z"/>
</g>
</svg>
