<?xml version="1.0" encoding="utf-8"?>
<!-- Generator: Adobe Illustrator 18.1.1, SVG Export Plug-In . SVG Version: 6.00 Build 0)  -->
<svg version="1.1" id="图层_1" xmlns="http://www.w3.org/2000/svg" xmlns:xlink="http://www.w3.org/1999/xlink" x="0px" y="0px"
	 width="100" height="100" enable-background="new 0 0 100 100" xml:space="preserve">
<line fill="none" stroke="#231815" stroke-width="0.216" stroke-miterlimit="22.9256" x1="101.8" y1="103" x2="0" y2="103"/>
<path fill="#010101" d="M50.9,1c26.7,0,48.5,21.8,48.5,48.5S77.6,98.1,50.9,98.1S2.4,76.3,2.4,49.5C2.4,22.8,24.2,1,50.9,1L50.9,1z
	 M22.8,17.9l61.4,57.7c5.7-7.2,9-16.3,9-26.1c0-23.3-19-42.3-42.3-42.3C40.1,7.2,30.3,11.3,22.8,17.9L22.8,17.9z M79.3,80.8
	L17.9,23.1c-5.8,7.3-9.3,16.4-9.3,26.4c0,23.3,19,42.3,42.3,42.3C61.8,91.9,71.8,87.7,79.3,80.8z"/>
<ellipse id="白底" fill="#FFFFFF" cx="50.8" cy="49.8" rx="42.3" ry="42.8"/>
<g>
	<path fill="#010101" d="M37.9,60.9l7.7-0.8c0.2,1.8,0.9,3.3,2,4.3s2.3,1.6,3.8,1.6c1.6,0,3-0.7,4.1-2.1c1.1-1.4,1.7-3.4,1.7-6.2
		c0-2.6-0.6-4.5-1.7-5.8c-1.1-1.3-2.6-1.9-4.3-1.9c-2.2,0-4.2,1-6,3.1l-6.3-1l4-21.9h20.5v7.6H48.7l-1.2,7.2
		c1.7-0.9,3.5-1.4,5.3-1.4c3.4,0,6.4,1.3,8.7,3.9c2.4,2.6,3.6,6,3.6,10.1c0,3.5-1,6.6-2.9,9.3c-2.6,3.7-6.3,5.6-11,5.6
		c-3.7,0-6.8-1-9.1-3.1C39.8,67.2,38.3,64.4,37.9,60.9z"/>
</g>
<rect x="45.5" y="0.6" transform="matrix(0.7071 0.7071 -0.7071 0.7071 46.0808 -19.0747)" fill="#010101" width="1.1" height="91.1"/>
<rect x="48.3" y="2" transform="matrix(0.7071 0.7071 -0.7071 0.7071 47.9319 -20.5666)" fill="#010101" width="1.1" height="91.1"/>
<rect x="50.3" y="3.9" transform="matrix(0.7071 0.7071 -0.7071 0.7071 49.8464 -21.4368)" fill="#010101" width="1.1" height="91.1"/>
<rect x="52.5" y="5.1" transform="matrix(0.7071 0.7071 -0.7071 0.7071 51.3263 -22.6484)" fill="#010101" width="1.1" height="91.1"/>
<rect x="54.4" y="7.2" transform="matrix(0.7071 0.7071 -0.7071 0.7071 53.3434 -23.3775)" fill="#010101" width="1.1" height="91.1"/>
</svg>
