<?xml version="1.0" encoding="utf-8"?>
<!-- Generator: Adobe Illustrator 18.1.1, SVG Export Plug-In . SVG Version: 6.00 Build 0)  -->
<svg version="1.1" id="图层_1" xmlns="http://www.w3.org/2000/svg" xmlns:xlink="http://www.w3.org/1999/xlink" x="0px" y="0px"
	 width="100" height="100" enable-background="new 0 0 100 100" xml:space="preserve">
<line fill="none" stroke="#231815" stroke-width="0.216" stroke-miterlimit="22.9256" x1="101.4" y1="104.6" x2="-2" y2="104.6"/>
<path fill="#010101" d="M49.7,1c27.1,0,49.3,22.1,49.3,49.3S76.8,99.5,49.7,99.5S0.4,77.4,0.4,50.3C0.4,23.2,22.6,1,49.7,1L49.7,1z
	 M21.1,18.2l62.3,58.5c5.7-7.3,9.2-16.5,9.2-26.5c0-23.7-19.3-43-43-43C38.8,7.3,28.7,11.4,21.1,18.2L21.1,18.2z M78.5,82.1
	L16.2,23.5c-5.9,7.4-9.4,16.7-9.4,26.8c0,23.7,19.3,43,43,43C60.8,93.3,70.9,89,78.5,82.1z"/>
<ellipse id="白底" fill="#FFFFFF" cx="49.6" cy="50.5" rx="42.9" ry="43.5"/>
<g>
	<path fill="#010101" d="M20.5,63l7.6-0.9c0.2,1.6,0.7,2.8,1.5,3.6c0.8,0.8,1.8,1.2,3.1,1.2c1.6,0,3-0.8,4.1-2.3
		c1.1-1.6,1.9-4.8,2.2-9.7c-2,2.4-4.5,3.6-7.4,3.6c-3.2,0-6-1.3-8.4-3.9c-2.3-2.6-3.5-6-3.5-10.1c0-4.3,1.2-7.8,3.7-10.5
		c2.5-2.7,5.6-4,9.5-4c4.2,0,7.6,1.7,10.3,5c2.7,3.4,4,8.9,4,16.6c0,7.8-1.4,13.5-4.2,16.9c-2.8,3.5-6.4,5.2-10.9,5.2
		c-3.2,0-5.8-0.9-7.8-2.7C22.4,69.2,21.1,66.5,20.5,63z M38.4,45.1c0-2.6-0.6-4.7-1.8-6.2c-1.2-1.5-2.5-2.2-4-2.2
		c-1.5,0-2.7,0.6-3.6,1.8c-1,1.2-1.4,3.2-1.4,5.9c0,2.8,0.5,4.8,1.6,6.1c1,1.3,2.4,1.9,3.9,1.9c1.5,0,2.8-0.6,3.8-1.9
		C37.8,49.3,38.4,47.5,38.4,45.1z"/>
	<path fill="#010101" d="M65.6,29.9c4,0,7.1,1.5,9.3,4.4c2.7,3.5,4,9.3,4,17.4c0,8.1-1.3,13.9-4,17.4c-2.2,2.9-5.3,4.4-9.3,4.4
		c-4,0-7.2-1.6-9.7-4.8c-2.5-3.2-3.7-8.9-3.7-17.1c0-8.1,1.3-13.9,4-17.4C58.5,31.4,61.6,29.9,65.6,29.9z M65.6,36.7
		c-1,0-1.8,0.3-2.5,1c-0.7,0.6-1.3,1.8-1.7,3.4c-0.5,2.1-0.8,5.7-0.8,10.7s0.2,8.5,0.7,10.3c0.5,1.9,1.1,3.1,1.8,3.7
		c0.7,0.6,1.6,0.9,2.5,0.9c1,0,1.8-0.3,2.5-1s1.3-1.8,1.7-3.4c0.5-2.1,0.8-5.7,0.8-10.7s-0.2-8.5-0.7-10.3c-0.5-1.9-1.1-3.1-1.8-3.8
		C67.4,37,66.5,36.7,65.6,36.7z"/>
</g>
<rect x="44.2" y="0.6" transform="matrix(0.7071 0.7071 -0.7071 0.7071 46.1945 -17.9453)" fill="#010101" width="1.1" height="92.4"/>
<rect x="47" y="2.1" transform="matrix(0.7071 0.7071 -0.7071 0.7071 48.0736 -19.4597)" fill="#010101" width="1.1" height="92.4"/>
<rect x="49" y="4" transform="matrix(0.7071 0.7071 -0.7071 0.7071 50.0168 -20.343)" fill="#010101" width="1.1" height="92.4"/>
<rect x="51.3" y="5.2" transform="matrix(0.7071 0.7071 -0.7071 0.7071 51.519 -21.5728)" fill="#010101" width="1.1" height="92.4"/>
<rect x="53.2" y="7.3" transform="matrix(0.7071 0.7071 -0.7071 0.7071 53.5665 -22.3129)" fill="#010101" width="1.1" height="92.4"/>
</svg>
