<?xml version="1.0" encoding="utf-8"?>
<!-- Generator: Adobe Illustrator 18.1.1, SVG Export Plug-In . SVG Version: 6.00 Build 0)  -->
<svg version="1.1" id="图层_1" xmlns="http://www.w3.org/2000/svg" xmlns:xlink="http://www.w3.org/1999/xlink" x="0px" y="0px"
	 width="100" height="100" enable-background="new 0 0 100 100" xml:space="preserve">
<line fill="none" stroke="#231815" stroke-width="0.216" stroke-miterlimit="22.9256" x1="100" y1="102.2" x2="0" y2="102.2"/>
<path fill="#010101" d="M50,2c26.2,0,47.7,21.4,47.7,47.7S76.2,97.3,50,97.3S2.3,75.9,2.3,49.7C2.3,23.4,23.8,2,50,2L50,2z
	 M22.4,18.6l60.3,56.6c5.6-7.1,8.9-16,8.9-25.6C91.5,26.8,72.9,8.1,50,8.1C39.4,8.1,29.7,12.1,22.4,18.6L22.4,18.6z M77.9,80.4
	L17.6,23.7c-5.7,7.1-9.1,16.2-9.1,26c0,22.9,18.7,41.6,41.6,41.6C60.7,91.2,70.5,87.1,77.9,80.4z"/>
<ellipse id="白底" fill="#FFFFFF" cx="49.9" cy="49.9" rx="41.5" ry="42"/>
<g>
	<path fill="#010101" d="M33,63.1h-5.4V42.9c-2,1.8-4.3,3.2-6.9,4.1v-4.9c1.4-0.5,2.9-1.3,4.6-2.6c1.6-1.3,2.8-2.8,3.4-4.5H33V63.1z
		"/>
	<path fill="#010101" d="M50.1,35c2.7,0,4.8,1,6.4,2.9c1.8,2.3,2.7,6.1,2.7,11.4c0,5.3-0.9,9.1-2.7,11.4c-1.5,1.9-3.6,2.9-6.3,2.9
		c-2.7,0-4.9-1.1-6.6-3.1c-1.7-2.1-2.5-5.8-2.5-11.2c0-5.3,0.9-9.1,2.7-11.4C45.3,36,47.4,35,50.1,35z M50.1,39.5
		c-0.7,0-1.2,0.2-1.7,0.6c-0.5,0.4-0.9,1.2-1.2,2.2c-0.4,1.4-0.6,3.7-0.6,7c0,3.3,0.2,5.5,0.5,6.8c0.3,1.2,0.8,2,1.3,2.5
		c0.5,0.4,1.1,0.6,1.7,0.6c0.7,0,1.2-0.2,1.7-0.6c0.5-0.4,0.9-1.2,1.2-2.2c0.4-1.4,0.6-3.7,0.6-7s-0.2-5.5-0.5-6.8
		c-0.3-1.2-0.8-2-1.3-2.5C51.3,39.7,50.8,39.5,50.1,39.5z"/>
	<path fill="#010101" d="M71.9,35c2.7,0,4.8,1,6.4,2.9C80.1,40.2,81,44,81,49.3c0,5.3-0.9,9.1-2.7,11.4c-1.5,1.9-3.6,2.9-6.3,2.9
		c-2.7,0-4.9-1.1-6.6-3.1c-1.7-2.1-2.5-5.8-2.5-11.2c0-5.3,0.9-9.1,2.7-11.4C67,36,69.2,35,71.9,35z M71.9,39.5
		c-0.7,0-1.2,0.2-1.7,0.6c-0.5,0.4-0.9,1.2-1.2,2.2c-0.4,1.4-0.6,3.7-0.6,7c0,3.3,0.2,5.5,0.5,6.8c0.3,1.2,0.8,2,1.3,2.5
		c0.5,0.4,1.1,0.6,1.7,0.6s1.2-0.2,1.7-0.6c0.5-0.4,0.9-1.2,1.2-2.2c0.4-1.4,0.6-3.7,0.6-7s-0.2-5.5-0.5-6.8c-0.3-1.2-0.8-2-1.3-2.5
		C73.1,39.7,72.5,39.5,71.9,39.5z"/>
</g>
<rect x="44.7" y="1.6" transform="matrix(0.7071 0.7071 -0.7071 0.7071 45.9697 -18.4326)" fill="#010101" width="1" height="89.4"/>
<rect x="47.4" y="3" transform="matrix(0.7071 0.7071 -0.7071 0.7071 47.7876 -19.8976)" fill="#010101" width="1" height="89.4"/>
<rect x="49.4" y="4.9" transform="matrix(0.7071 0.7071 -0.7071 0.7071 49.6675 -20.7521)" fill="#010101" width="1" height="89.4"/>
<rect x="51.5" y="6" transform="matrix(0.7071 0.7071 -0.7071 0.7071 51.1207 -21.9418)" fill="#010101" width="1" height="89.4"/>
<rect x="53.4" y="8.1" transform="matrix(0.7071 0.7071 -0.7071 0.7071 53.1014 -22.6578)" fill="#010101" width="1" height="89.4"/>
</svg>
