<?xml version="1.0" encoding="utf-8"?>
<!-- Generator: Adobe Illustrator 18.1.1, SVG Export Plug-In . SVG Version: 6.00 Build 0)  -->
<svg version="1.1" id="图层_1" xmlns="http://www.w3.org/2000/svg" xmlns:xlink="http://www.w3.org/1999/xlink" x="0px" y="0px"
	 width="100" height="100" enable-background="new 0 0 100 100" xml:space="preserve">
<line fill="none" stroke="#231815" stroke-width="0.216" stroke-miterlimit="22.9256" x1="101.6" y1="104.3" x2="-1" y2="104.3"/>
<path fill="#E41E26" d="M50.3,1.6c26.9,0,48.9,22,48.9,48.9s-22,48.9-48.9,48.9S1.4,77.4,1.4,50.5C1.4,23.5,23.4,1.6,50.3,1.6
	L50.3,1.6z M22,18.6l61.8,58.1c5.7-7.3,9.1-16.4,9.1-26.3C92.9,27,73.8,7.8,50.3,7.8C39.4,7.8,29.5,11.9,22,18.6L22,18.6z M78.9,82
	L17,23.9c-5.9,7.3-9.4,16.6-9.4,26.6c0,23.5,19.2,42.6,42.6,42.6C61.3,93.1,71.4,88.9,78.9,82z"/>
<circle id="白色底图" fill="#FFFFFF" stroke="#010101" stroke-miterlimit="22.9256" cx="50.3" cy="50.4" r="42.4"/>
<g>
	<path fill="#010101" d="M36.2,60.4l8.3-0.9c0.2,1.9,0.9,3.4,2.1,4.5c1.2,1.1,2.5,1.7,4,1.7c1.7,0,3.2-0.7,4.4-2.1
		c1.2-1.4,1.8-3.5,1.8-6.4c0-2.7-0.6-4.7-1.8-6c-1.2-1.3-2.8-2-4.7-2c-2.4,0-4.5,1.1-6.4,3.2l-6.8-1l4.3-22.6h22v7.8H47.8l-1.3,7.4
		c1.9-0.9,3.8-1.4,5.7-1.4c3.7,0,6.8,1.3,9.4,4c2.6,2.7,3.9,6.2,3.9,10.5c0,3.6-1,6.8-3.1,9.6c-2.8,3.8-6.8,5.8-11.8,5.8
		c-4,0-7.3-1.1-9.8-3.2C38.2,67,36.7,64.1,36.2,60.4z"/>
</g>
</svg>
