<?xml version="1.0" encoding="utf-8"?>
<!-- Generator: Adobe Illustrator 18.1.1, SVG Export Plug-In . SVG Version: 6.00 Build 0)  -->
<svg version="1.1" id="图层_1" xmlns="http://www.w3.org/2000/svg" xmlns:xlink="http://www.w3.org/1999/xlink" x="0px" y="0px"
	 width="100" height="100" enable-background="new 0 0 100 100" xml:space="preserve">
<line fill="none" stroke="#231815" stroke-width="0.216" stroke-miterlimit="22.9256" x1="102" y1="105" x2="-2" y2="105"/>
<path fill="#E41E26" d="M50,0.8c27.3,0,49.6,22.3,49.6,49.6S77.3,99.9,50,99.9S0.4,77.7,0.4,50.4C0.4,23.1,22.7,0.8,50,0.8L50,0.8z
	 M21.3,18.1L84,77c5.8-7.4,9.2-16.6,9.2-26.7C93.3,26.6,73.8,7.1,50,7.1C39,7.1,28.9,11.3,21.3,18.1L21.3,18.1z M79.1,82.4l-62.8-59
	c-5.9,7.4-9.5,16.8-9.5,27c0,23.8,19.4,43.2,43.2,43.2C61.2,93.6,71.4,89.3,79.1,82.4z"/>
<circle id="白色底图" fill="#FFFFFF" stroke="#010101" stroke-miterlimit="22.9256" cx="50.1" cy="50.3" r="43"/>
<g>
	<path fill="#010101" d="M18.8,61.7l8.2-0.9c0.2,1.7,0.7,2.9,1.6,3.7c0.8,0.8,2,1.2,3.3,1.2c1.7,0,3.2-0.8,4.5-2.4
		c1.2-1.6,2-4.9,2.3-10c-2.1,2.5-4.8,3.7-8,3.7c-3.5,0-6.5-1.3-9-4c-2.5-2.7-3.8-6.2-3.8-10.5c0-4.5,1.3-8.1,4-10.8
		c2.7-2.7,6-4.1,10.2-4.1c4.5,0,8.1,1.7,11,5.2c2.9,3.5,4.3,9.2,4.3,17.1c0,8.1-1.5,13.9-4.5,17.5c-3,3.6-6.9,5.4-11.7,5.4
		c-3.4,0-6.2-0.9-8.4-2.8C20.8,68.1,19.4,65.3,18.8,61.7z M37.9,43.2c0-2.7-0.6-4.8-1.9-6.3c-1.2-1.5-2.7-2.3-4.4-2.3
		c-1.6,0-2.9,0.6-3.9,1.9c-1,1.2-1.6,3.3-1.6,6.1c0,2.8,0.6,4.9,1.7,6.3c1.1,1.3,2.5,2,4.2,2c1.6,0,3-0.6,4.1-1.9
		C37.4,47.6,37.9,45.7,37.9,43.2z"/>
	<path fill="#010101" d="M67.2,27.6c4.3,0,7.6,1.5,10,4.6c2.9,3.6,4.3,9.6,4.3,18c0,8.3-1.4,14.4-4.3,18c-2.4,3-5.7,4.5-10,4.5
		c-4.3,0-7.8-1.7-10.4-5c-2.6-3.3-3.9-9.2-3.9-17.7c0-8.3,1.4-14.3,4.3-17.9C59.6,29.1,62.9,27.6,67.2,27.6z M67.2,34.6
		c-1,0-1.9,0.3-2.7,1c-0.8,0.6-1.4,1.8-1.9,3.5c-0.6,2.2-0.9,5.9-0.9,11s0.3,8.7,0.8,10.7c0.5,1.9,1.2,3.2,2,3.9
		c0.8,0.6,1.7,1,2.7,1s1.9-0.3,2.7-1c0.8-0.6,1.4-1.8,1.9-3.5c0.6-2.2,0.9-5.8,0.9-11s-0.3-8.7-0.8-10.7s-1.2-3.2-2-3.9
		C69.1,34.9,68.2,34.6,67.2,34.6z"/>
</g>
</svg>
