<?xml version="1.0" encoding="utf-8"?>
<!-- Generator: Adobe Illustrator 18.1.1, SVG Export Plug-In . SVG Version: 6.00 Build 0)  -->
<svg version="1.1" id="图层_1" xmlns="http://www.w3.org/2000/svg" xmlns:xlink="http://www.w3.org/1999/xlink" x="0px" y="0px"
	 width="100" height="100" enable-background="new 0 0 100 100" xml:space="preserve">
<line fill="none" stroke="#231815" stroke-width="0.216" stroke-miterlimit="22.9256" x1="102.7" y1="104.8" x2="-2" y2="104.8"/>
<path fill="#E41E26" d="M50.3,0c27.5,0,49.9,22.4,49.9,49.9S77.8,99.7,50.3,99.7S0.5,77.3,0.5,49.9C0.5,22.4,22.9,0,50.3,0L50.3,0z
	 M21.5,17.4l63.1,59.3c5.8-7.4,9.3-16.7,9.3-26.8c0-23.9-19.5-43.5-43.5-43.5C39.3,6.4,29.1,10.5,21.5,17.4L21.5,17.4z M79.6,82
	L16.4,22.7c-6,7.5-9.6,16.9-9.6,27.2c0,23.9,19.5,43.5,43.5,43.5C61.6,93.4,71.8,89.1,79.6,82z"/>
<ellipse id="白底" fill="#FFFFFF" cx="50.2" cy="50.1" rx="43.4" ry="44"/>
<g>
	<path fill="#010101" d="M32.6,64H27V42.8c-2.1,1.9-4.5,3.3-7.3,4.3V42c1.5-0.5,3.1-1.4,4.8-2.7c1.7-1.3,2.9-2.9,3.5-4.7h4.6V64z"/>
	<path fill="#010101" d="M50.5,34.6c2.8,0,5.1,1,6.7,3C59,40,60,44,60,49.5c0,5.5-1,9.5-2.9,12c-1.6,2-3.8,3-6.6,3
		c-2.9,0-5.2-1.1-6.9-3.3C41.8,59,41,55.1,41,49.5c0-5.5,1-9.5,2.9-11.9C45.4,35.6,47.6,34.6,50.5,34.6z M50.5,39.2
		c-0.7,0-1.3,0.2-1.8,0.7c-0.5,0.4-0.9,1.2-1.2,2.3c-0.4,1.4-0.6,3.9-0.6,7.3c0,3.4,0.2,5.8,0.5,7.1c0.3,1.3,0.8,2.1,1.3,2.6
		c0.5,0.4,1.1,0.6,1.8,0.6c0.7,0,1.3-0.2,1.8-0.7c0.5-0.4,0.9-1.2,1.2-2.3c0.4-1.4,0.6-3.9,0.6-7.3c0-3.4-0.2-5.8-0.5-7.1
		c-0.3-1.3-0.8-2.1-1.3-2.6C51.7,39.4,51.1,39.2,50.5,39.2z"/>
	<path fill="#010101" d="M73.2,34.6c2.8,0,5.1,1,6.7,3c1.9,2.4,2.9,6.4,2.9,11.9c0,5.5-1,9.5-2.9,12c-1.6,2-3.8,3-6.6,3
		c-2.9,0-5.2-1.1-6.9-3.3c-1.8-2.2-2.6-6.1-2.6-11.7c0-5.5,1-9.5,2.9-11.9C68.2,35.6,70.4,34.6,73.2,34.6z M73.2,39.2
		c-0.7,0-1.3,0.2-1.8,0.7c-0.5,0.4-0.9,1.2-1.2,2.3c-0.4,1.4-0.6,3.9-0.6,7.3c0,3.4,0.2,5.8,0.5,7.1c0.3,1.3,0.8,2.1,1.3,2.6
		c0.5,0.4,1.1,0.6,1.8,0.6c0.7,0,1.3-0.2,1.8-0.7c0.5-0.4,0.9-1.2,1.2-2.3c0.4-1.4,0.6-3.9,0.6-7.3c0-3.4-0.2-5.8-0.5-7.1
		c-0.3-1.3-0.8-2.1-1.3-2.6C74.5,39.4,73.9,39.2,73.2,39.2z"/>
</g>
</svg>
