<?xml version="1.0" encoding="utf-8"?>
<!-- Generator: Adobe Illustrator 18.1.1, SVG Export Plug-In . SVG Version: 6.00 Build 0)  -->
<svg version="1.1" id="图层_1" xmlns="http://www.w3.org/2000/svg" xmlns:xlink="http://www.w3.org/1999/xlink" x="0px" y="0px"
	 width="100" height="100" enable-background="new 0 0 100 100" xml:space="preserve">
<line fill="none" stroke="#231815" stroke-width="0.216" stroke-miterlimit="22.9256" x1="102.3" y1="104.8" x2="-1.8" y2="104.8"/>
<ellipse id="白底" fill="#FFFFFF" cx="50.1" cy="50.3" rx="43.3" ry="43.8"/>
<path fill="#E41E26" d="M50.2,0.4c27.3,0,49.6,22.3,49.6,49.6S77.6,99.7,50.2,99.7S0.6,77.4,0.6,50C0.6,22.7,22.9,0.4,50.2,0.4
	L50.2,0.4z M21.5,17.7l62.8,59c5.8-7.4,9.2-16.6,9.2-26.7c0-23.8-19.5-43.3-43.3-43.3C39.2,6.7,29.1,10.9,21.5,17.7L21.5,17.7z
	 M79.3,82.1L16.5,23c-6,7.4-9.5,16.8-9.5,27c0,23.8,19.5,43.3,43.3,43.3C61.4,93.4,71.6,89.1,79.3,82.1z"/>
<polygon fill="#231815" stroke="#231815" stroke-width="3.685039e-003" stroke-miterlimit="2.4142" points="43.8,82.3 43.9,41.6 
	33.5,52 33.5,36.2 51.3,19.5 67.6,36.4 67.6,51.7 55.9,41.6 55.8,82.4 "/>
</svg>
