<?xml version="1.0" encoding="utf-8"?>
<!-- Generator: Adobe Illustrator 18.1.1, SVG Export Plug-In . SVG Version: 6.00 Build 0)  -->
<svg version="1.1" id="图层_1" xmlns="http://www.w3.org/2000/svg" xmlns:xlink="http://www.w3.org/1999/xlink" x="0px" y="0px"
	 width="100" height="100" enable-background="new 0 0 100 100" xml:space="preserve">
<line fill="none" stroke="#231815" stroke-width="0.216" stroke-miterlimit="22.9256" x1="100" y1="102" x2="0.1" y2="102"/>
<circle id="白底" fill="#FFFFFF" cx="50.3" cy="50.2" r="43.4"/>
<path fill="#E41E26" d="M50,2c26.2,0,47.6,21.4,47.6,47.6S76.2,97.1,50,97.1S2.5,75.8,2.5,49.6C2.5,23.4,23.8,2,50,2L50,2z
	 M22.5,18.6l60.2,56.5c5.5-7.1,8.9-15.9,8.9-25.6C91.5,26.7,72.9,8.1,50,8.1C39.5,8.1,29.8,12.1,22.5,18.6L22.5,18.6z M77.9,80.3
	L17.7,23.7C12,30.8,8.5,39.8,8.5,49.6c0,22.9,18.6,41.5,41.5,41.5C60.7,91.1,70.5,87,77.9,80.3z"/>
<path fill="#010101" d="M66.3,58c3.4-3.4-2.4-13.7,1.4-16.4c-4.4,0.3-4.4,4.6-5.9,4.8c-1.5,0.2-1.5-1.8-1.3-4.4c0.5-5.3-1.7-8.4-7-9
	c1.9,1.7,1.9,7.1-2.6,5.4c-3.7-1.3,1.3-9.3-3.5-18c0.3,5.3-8.1,8.4-7.3,18.1c0.3,4.3,2,7.3,1,7.8c-2.8,1.7-5.8-5-5-7.5
	c-1.7,1.7-5.5,4.9-2.4,9.7c1.7,2.6,2.4,6.5,1,6.4c-1.1-0.1-4.2-3.2-7.3-1.1c4.7,1.7-1.4,20.9,19.7,22.9c-4.9-2.7-4.7-9.7-5.7-9.8
	c3.3-0.6,3.5,2.2,4.8,2.5c1.7-0.3-2.2-3.1,0.6-6.3c-0.1,1.8,2.7,5.5,4.4,5c1.7-0.4-3.5-7.8,1.4-11c-1.4,3.1,3.6,7.2,4.7,12.6
	c0.3-2.4,1.1-3.8,4-3c-1.9,0.5-1.2,7-5.3,9.7c19.4-3,15.9-22.3,19-22.6C69.6,52.4,69.9,57.2,66.3,58z"/>
</svg>
