<?xml version="1.0" encoding="utf-8"?>
<!-- Generator: Adobe Illustrator 18.1.1, SVG Export Plug-In . SVG Version: 6.00 Build 0)  -->
<svg version="1.1" id="图层_1" xmlns="http://www.w3.org/2000/svg" xmlns:xlink="http://www.w3.org/1999/xlink" x="0px" y="0px"
	 width="100" height="100" enable-background="new 0 0 100 100" xml:space="preserve">
<line fill="none" stroke="#231815" stroke-width="0.216" stroke-miterlimit="22.9256" x1="99.8" y1="100" x2="0" y2="100"/>
<circle id="白底" fill="#FFFFFF" cx="50.3" cy="48.8" r="43.4"/>
<path fill="#E41E26" d="M49.9,0c26.2,0,47.6,21.4,47.6,47.6S76.1,95.1,49.9,95.1S2.3,73.8,2.3,47.6C2.3,21.4,23.7,0,49.9,0L49.9,0z
	 M22.4,16.6l60.2,56.5c5.5-7.1,8.9-15.9,8.9-25.6c0-22.9-18.6-41.5-41.5-41.5C39.4,6.1,29.7,10.1,22.4,16.6L22.4,16.6z M77.8,78.3
	L17.6,21.7c-5.7,7.1-9.1,16.1-9.1,25.9c0,22.9,18.6,41.5,41.5,41.5C60.6,89.1,70.4,85,77.8,78.3z"/>
<path fill="#010101" d="M65.4,78.8H34.6c-0.7,0-1.3-0.6-1.3-1.3V21.7c0-0.7,0.6-1.3,1.3-1.3h30.9c0.7,0,1.3,0.6,1.3,1.3v55.8
	C66.7,78.2,66.1,78.8,65.4,78.8z"/>
<path fill="#FFFFFF" d="M62.5,71.1H37.6c-0.7,0-1.3-0.6-1.3-1.3V26.4c0-0.7,0.6-1.3,1.3-1.3h24.9c0.7,0,1.3,0.6,1.3,1.3v43.4
	C63.8,70.5,63.2,71.1,62.5,71.1z"/>
<circle fill="#FFFFFF" cx="49.9" cy="75.5" r="2.1"/>
<path fill="#FFFFFF" d="M54.5,23.2h-9.2c-0.4,0-0.6-0.3-0.6-0.6l0,0c0-0.4,0.3-0.6,0.6-0.6h9.2c0.4,0,0.6,0.3,0.6,0.6l0,0
	C55.1,22.9,54.9,23.2,54.5,23.2z"/>
</svg>
