<?xml version="1.0" encoding="utf-8"?>
<!-- Generator: Adobe Illustrator 18.1.1, SVG Export Plug-In . SVG Version: 6.00 Build 0)  -->
<svg version="1.1" id="图层_1" xmlns="http://www.w3.org/2000/svg" xmlns:xlink="http://www.w3.org/1999/xlink" x="0px" y="0px"
	 width="100" height="100" enable-background="new 0 0 100 100" xml:space="preserve">
<circle fill="none" stroke="#CDCCCC" stroke-width="3.700000e-003" stroke-miterlimit="22.9256" cx="49.8" cy="51.4" r="48.3"/>
<circle id="白底" fill="#FFFFFF" stroke="#231815" stroke-width="3.700000e-003" stroke-miterlimit="22.9256" cx="49.5" cy="49.7" r="45"/>
<g>
	<path fill="#E41E26" d="M49.6,0C77,0,99.3,22.3,99.3,49.7S77,99.4,49.6,99.4S-0.1,77.1-0.1,49.7S22.2,0,49.6,0L49.6,0z M20.8,17.3
		l62.9,59.1c5.8-7.4,9.3-16.6,9.3-26.7c0-23.9-19.5-43.3-43.3-43.3C38.6,6.4,28.5,10.5,20.8,17.3L20.8,17.3z M78.7,81.7L15.8,22.6
		c-6,7.4-9.5,16.8-9.5,27.1C6.3,73.6,25.7,93,49.6,93C60.8,93,71,88.8,78.7,81.7z"/>
	<g>
		<path fill="#010101" d="M33.2,80.1V21.3h17.4c6.6,0,10.9,0.3,12.9,0.9c3.1,0.9,5.6,2.8,7.7,5.8s3.1,6.8,3.1,11.4
			c0,3.6-0.6,6.6-1.8,9.1s-2.7,4.4-4.5,5.8c-1.8,1.4-3.7,2.3-5.6,2.8c-2.6,0.6-6.3,0.8-11.2,0.8h-7v22.2L33.2,80.1L33.2,80.1z
			 M44.1,31.3v16.7H50c4.3,0,7.1-0.3,8.5-0.9c1.4-0.6,2.6-1.6,3.4-2.9c0.8-1.3,1.2-2.8,1.2-4.6c0-2.1-0.6-3.9-1.7-5.3
			c-1.1-1.4-2.6-2.3-4.3-2.6c-1.3-0.3-3.9-0.4-7.8-0.4L44.1,31.3L44.1,31.3z"/>
	</g>
</g>
</svg>
