<?xml version="1.0" encoding="utf-8"?>
<!-- Generator: Adobe Illustrator 18.1.1, SVG Export Plug-In . SVG Version: 6.00 Build 0)  -->
<svg version="1.1" id="图层_1" xmlns="http://www.w3.org/2000/svg" xmlns:xlink="http://www.w3.org/1999/xlink" x="0px" y="0px"
	 width="100" height="100" enable-background="new 0 0 100 100" xml:space="preserve">
<circle fill="none" stroke="#CDCCCC" stroke-width="3.700000e-003" stroke-miterlimit="22.9256" cx="50.2" cy="52" r="48"/>
<circle id="白底" fill="#FFFFFF" stroke="#231815" stroke-width="3.700000e-003" stroke-miterlimit="22.9256" cx="49.9" cy="50.4" r="44.7"/>
<g>
	<path fill="#E41E26" d="M50,1c27.2,0,49.3,22.2,49.3,49.3S77.2,99.7,50,99.7S0.7,77.5,0.7,50.4S22.8,1,50,1L50,1z M21.4,18.2
		l62.4,58.7c5.8-7.3,9.2-16.5,9.2-26.5c0-23.7-19.3-43-43-43C39,7.3,29,11.5,21.4,18.2L21.4,18.2z M78.9,82.2L16.4,23.5
		C10.5,30.9,7,40.2,7,50.3c0,23.7,19.3,43,43,43C61.1,93.4,71.3,89.1,78.9,82.2z"/>
</g>
<path fill="#231815" stroke="#231815" stroke-width="3.700000e-003" stroke-miterlimit="22.9256" d="M46.4,78.6h8.8l0-33.7
	c0.5-3.2,2.5-4.6,6.2-4.3l8.5,0.1l-7.5,7.4l11.4,0l12-12.6l-13.7-11h-11l8.7,7.7l-15.7,0c-4.5,0.6-7.1,3.2-7.7,7.7L46.4,78.6
	L46.4,78.6z"/>
<path fill="#231815" stroke="#231815" stroke-width="3.700000e-003" stroke-miterlimit="22.9256" d="M53.3,78.6h-8.8l0-33.7
	c-0.5-3.2-2.5-4.6-6.2-4.3l-8.5,0.1l7.5,7.4l-11.4,0L13.9,35.6l13.7-11h11l-8.7,7.7l15.7,0c4.5,0.6,7.1,3.2,7.7,7.7L53.3,78.6
	L53.3,78.6z"/>
</svg>
