<?xml version="1.0" encoding="utf-8"?>
<!-- Generator: Adobe Illustrator 18.1.1, SVG Export Plug-In . SVG Version: 6.00 Build 0)  -->
<svg version="1.1" id="图层_1" xmlns="http://www.w3.org/2000/svg" xmlns:xlink="http://www.w3.org/1999/xlink" x="0px" y="0px"
	 width="100" height="100" enable-background="new 0 0 100 100" xml:space="preserve">
<ellipse id="白底" fill="#FFFFFF" cx="50.5" cy="50.5" rx="43.2" ry="43.8"/>
<path fill="#E41E26" d="M49.7,0.5c27.3,0,49.6,22.3,49.6,49.6S77,99.7,49.7,99.7S0.1,77.4,0.1,50.1C0.1,22.8,22.4,0.5,49.7,0.5
	L49.7,0.5z M21,17.8l62.8,59c5.8-7.4,9.2-16.6,9.2-26.7C93,26.3,73.5,6.8,49.7,6.8C38.7,6.8,28.6,11,21,17.8L21,17.8z M78.8,82.1
	L16,23.1c-6,7.4-9.5,16.8-9.5,27c0,23.8,19.4,43.3,43.3,43.3C60.9,93.4,71.1,89.1,78.8,82.1z"/>
<path fill="none" stroke="#E51E25" stroke-width="0.216" stroke-miterlimit="2.4142" d="M82.3,28.1"/>
<path fill="none" stroke="#E51E25" stroke-width="0.216" stroke-miterlimit="2.4142" d="M22.8,82.7"/>
<path fill="none" stroke="#E51E25" stroke-width="0.216" stroke-miterlimit="2.4142" d="M17.7,77.6"/>
<path fill="none" stroke="#E51E25" stroke-width="0.216" stroke-miterlimit="2.4142" d="M77.1,23.3"/>
<polygon fill="#231815" stroke="#231815" stroke-width="3.685039e-003" stroke-miterlimit="2.4142" points="52.6,77.1 52.7,34.4 
	47.7,40.7 47.8,31.2 58.4,21.1 68.2,31.3 68.2,40.5 62.2,34.4 62.2,77.1 "/>
<path fill="#231815" stroke="#231815" stroke-width="0.216" stroke-miterlimit="2.4142" d="M32,45.9h9.5l-5.3,5.2h9.8
	c4,0.1,7,1.8,9.1,4.9l-0.2,13.4c-1.5-3.3-4.3-9.1-9.2-8.1l-9.2,0l5.3,5.4h-10L21.1,56L32,45.9L32,45.9z"/>
</svg>
