<?xml version="1.0" encoding="utf-8"?>
<!-- Generator: Adobe Illustrator 18.1.1, SVG Export Plug-In . SVG Version: 6.00 Build 0)  -->
<svg version="1.1" id="图层_1" xmlns="http://www.w3.org/2000/svg" xmlns:xlink="http://www.w3.org/1999/xlink" x="0px" y="0px"
	 width="100" height="100" enable-background="new 0 0 100 100" xml:space="preserve">
<line fill="none" stroke="#231815" stroke-width="0.216" stroke-miterlimit="22.9256" x1="101.8" y1="104.8" x2="-1.8" y2="104.8"/>
<ellipse id="白底" fill="#FFFFFF" cx="49.9" cy="50.6" rx="43" ry="43.5"/>
<path fill="#E41E26" d="M50,1c27.2,0,49.4,22.2,49.4,49.4S77.2,99.7,50,99.7S0.6,77.5,0.6,50.4C0.6,23.2,22.8,1,50,1L50,1z
	 M21.4,18.2l62.4,58.7c5.8-7.3,9.2-16.5,9.2-26.5c0-23.7-19.3-43-43-43C39,7.3,29,11.4,21.4,18.2L21.4,18.2z M78.9,82.2L16.4,23.5
	C10.5,30.9,7,40.2,7,50.4c0,23.7,19.3,43,43,43C61.1,93.4,71.3,89.2,78.9,82.2z"/>
<path fill="#231815" stroke="#231815" stroke-width="0.216" stroke-miterlimit="2.4142" d="M73.5,77.4h-9.7l0-36.3
	c-1-12.6-16.7-12.4-18.7-2.7l0.1,21.5l10.4-10.1l-1,12.6L40.1,77.4l-14-13.9V49.9l9.8,10.3l-1.1-24.1c6.8-17.8,31.1-20,38.3-1.2
	L73.5,77.4L73.5,77.4z"/>
</svg>
