<?xml version="1.0" encoding="utf-8"?>
<!-- Generator: Adobe Illustrator 18.1.1, SVG Export Plug-In . SVG Version: 6.00 Build 0)  -->
<svg version="1.1" id="图层_1" xmlns="http://www.w3.org/2000/svg" xmlns:xlink="http://www.w3.org/1999/xlink" x="0px" y="0px"
	 width="100" height="100" enable-background="new 0 0 100 100" xml:space="preserve">
<line fill="none" stroke="#231815" stroke-width="0.216" stroke-miterlimit="22.9256" x1="102" y1="104.3" x2="-1.7" y2="104.3"/>
<ellipse id="白底" fill="#FFFFFF" cx="50" cy="50.1" rx="43.1" ry="43.6"/>
<path fill="#E41E26" d="M50.1,0.4c27.2,0,49.4,22.2,49.4,49.4S77.4,99.3,50.1,99.3S0.7,77.1,0.7,49.8C0.7,22.6,22.9,0.4,50.1,0.4
	L50.1,0.4z M21.5,17.7L84,76.4c5.8-7.3,9.2-16.6,9.2-26.6c0-23.7-19.4-43.1-43.1-43.1C39.2,6.7,29.1,10.9,21.5,17.7L21.5,17.7z
	 M79.1,81.7L16.5,22.9C10.6,30.3,7,39.7,7,49.8C7,73.6,26.4,93,50.1,93C61.3,93,71.4,88.7,79.1,81.7z"/>
<line fill="none" stroke="#E51E25" stroke-width="0.216" stroke-miterlimit="2.4142" x1="74.2" y1="75.6" x2="22.1" y2="27.8"/>
<line fill="none" stroke="#E51E25" stroke-width="0.216" stroke-miterlimit="2.4142" x1="26.7" y1="23.6" x2="78.7" y2="71.1"/>
<polygon fill="#231815" stroke="#231815" stroke-width="3.685039e-003" stroke-miterlimit="2.4142" points="54.3,49.7 46.2,57.6 
	46.2,64.7 51.7,60.1 51.7,73.1 56.6,73.1 56.6,60.1 61.7,64.9 61.7,57.6 "/>
<path fill="#231815" stroke="#231815" stroke-width="3.685039e-003" stroke-miterlimit="2.4142" d="M54.2,18.3L46,26.8l-0.2,7.4
	l6.3-7.2v6.4l-19,10.9c-3.1,1.3-4.8,3.7-5,7.2L28,65.7c0.6,3,3.9,3.9,5.9,5.9l16.2,8.5L50,73.8l-12.8-6.3c-1.9-1.3-3.7-2.7-3.9-5.2
	l0.1-9.3c-0.4-2.3,0.9-3.6,3-4.4l19.7-11.4V27l5.5,7.6v-7.8L54.2,18.3L54.2,18.3z"/>
</svg>
