<?xml version="1.0" encoding="utf-8"?>
<!-- Generator: Adobe Illustrator 18.1.1, SVG Export Plug-In . SVG Version: 6.00 Build 0)  -->
<svg version="1.1" id="图层_1" xmlns="http://www.w3.org/2000/svg" xmlns:xlink="http://www.w3.org/1999/xlink" x="0px" y="0px"
	 width="100" height="100" enable-background="new 0 0 100 100" xml:space="preserve">
<line fill="none" stroke="#231815" stroke-width="0.216" stroke-miterlimit="22.9256" x1="102.3" y1="104.3" x2="-1.8" y2="104.3"/>
<path fill="#010101" d="M50.2,0c27.3,0,49.6,22.3,49.6,49.6S77.5,99.2,50.2,99.2S0.6,76.9,0.6,49.6C0.6,22.3,22.9,0,50.2,0L50.2,0z
	 M21.5,17.3l62.7,59c5.8-7.4,9.2-16.6,9.2-26.7C93.5,25.8,74,6.3,50.2,6.3C39.2,6.3,29.1,10.5,21.5,17.3L21.5,17.3z M79.3,81.6
	l-62.8-59c-6,7.4-9.5,16.8-9.5,27c0,23.8,19.4,43.3,43.3,43.3C61.4,92.9,71.6,88.6,79.3,81.6z"/>
<ellipse id="白底" fill="#FFFFFF" cx="50.1" cy="49.9" rx="43.2" ry="43.8"/>
<rect x="44.7" y="-0.5" transform="matrix(0.7071 0.7071 -0.7071 0.7071 45.8384 -18.4971)" fill="#010101" width="1.1" height="93.1"/>
<rect x="47.5" y="1.1" transform="matrix(0.7071 0.7071 -0.7071 0.7071 47.7304 -20.022)" fill="#010101" width="1.1" height="93.1"/>
<rect x="49.5" y="3" transform="matrix(0.7071 0.7071 -0.7071 0.7071 49.6872 -20.9114)" fill="#010101" width="1.1" height="93.1"/>
<rect x="51.8" y="4.2" transform="matrix(0.7071 0.7071 -0.7071 0.7071 51.1998 -22.1498)" fill="#010101" width="1.1" height="93.1"/>
<rect x="53.7" y="6.3" transform="matrix(0.7071 0.7071 -0.7071 0.7071 53.2614 -22.895)" fill="#010101" width="1.1" height="93.1"/>
<polygon fill="#231815" stroke="#231815" stroke-width="3.700000e-003" stroke-miterlimit="22.9256" points="60.3,50.7 51.8,59.1 
	51.8,66.6 57.6,61.7 57.6,75.4 62.7,75.4 62.7,61.7 68.1,66.8 68.1,59.1 "/>
<path fill="#231815" stroke="#231815" stroke-width="3.700000e-003" stroke-miterlimit="22.9256" d="M60.2,17.5l-8.7,9l-0.2,7.8
	l6.6-7.6v6.8L37.8,45c-3.3,1.4-5.1,3.9-5.2,7.6l-0.1,15c0.6,3.1,4.1,4.1,6.2,6.2l17.1,9l-0.1-6.7l-13.5-6.7
	c-2.1-1.3-3.9-2.8-4.1-5.5l0.1-9.9c-0.4-2.4,0.9-3.8,3.1-4.6l20.8-12.1V26.7l5.8,8v-8.2L60.2,17.5z"/>
</svg>
