<?xml version="1.0" encoding="utf-8"?>
<!-- Generator: Adobe Illustrator 18.1.1, SVG Export Plug-In . SVG Version: 6.00 Build 0)  -->
<svg version="1.1" id="图层_1" xmlns="http://www.w3.org/2000/svg" xmlns:xlink="http://www.w3.org/1999/xlink" x="0px" y="0px"
	width="100" height="100" enable-background="new 0 0 100 100" xml:space="preserve">
<circle fill="none" stroke="#CDCCCC" stroke-width="3.700000e-003" stroke-miterlimit="22.9256" cx="50" cy="52.1" r="48.2"/>
<circle fill="#2A3785" stroke="#231815" stroke-width="3.700000e-003" stroke-miterlimit="22.9256" cx="49.7" cy="50.4" r="44.9"/>
<path fill="#E41E26" d="M49.7,8.4c23,0,41.8,18.8,41.8,41.8S72.8,92.1,49.7,92.1S7.9,73.3,7.9,50.2C7.9,27.2,26.7,8.4,49.7,8.4
	L49.7,8.4z M49.7,0.5C22.3,0.5,0,22.8,0,50.2s22.3,49.7,49.7,49.7s49.7-22.3,49.7-49.7S77.1,0.5,49.7,0.5z"/>
<polygon fill="#E51E25" stroke="#E51E25" stroke-width="0.216" stroke-miterlimit="2.4142" points="55.4,49.3 82.5,20.5 82.5,15.1 
	77,15.1 49.7,44.2 22.1,19 14.6,18 16.6,24.1 44.6,49.8 18.5,77.6 17.5,85.1 23.7,83.1 50.2,54.9 79.9,82.2 85.4,82.2 85.4,76.8 "/>
</svg>
