<?xml version="1.0" encoding="utf-8"?>
<!-- Generator: Adobe Illustrator 18.1.1, SVG Export Plug-In . SVG Version: 6.00 Build 0)  -->
<svg version="1.1" id="图层_1" xmlns="http://www.w3.org/2000/svg" xmlns:xlink="http://www.w3.org/1999/xlink" x="0px" y="0px"
	 width="100" height="100" enable-background="new 0 0 100 100" xml:space="preserve">
<g>
	<path fill="#F4AB1C" d="M3.6,82.7L46.2,8.2c0.9-1.4,2.6-2.5,4.3-2.5c-1.7,0-3.4,1.1-4.3,2.5L3.6,82.7c-2.7,4.7-2.8,8.5,1,9.2l0,0
		C0.7,91.2,0.9,87.4,3.6,82.7z"/>
	<path fill="#F4AB1C" d="M9.9,84.8h80.5L50.2,15L9.9,84.8z M64.3,47.4l-6,12.5l-8.7,2.8l2.6-7.6l-12.4,4.3l20.2,18.1l-4.4,5.5
		L33.2,63.3c-3.5-3.5-3.2-6.5,0.9-9l15.9-6.2l-6.8-3.3l8.6-3.4L64.3,47.4z"/>
	<path fill="#010101" d="M96,81.1L54.2,8.2c-1-1.8-2.4-2.5-3.7-2.5c-1.7,0-3.4,1.1-4.3,2.5L3.6,82.7c-2.7,4.7-2.8,8.5,1,9.2H95l0,0
		C101.4,92,98.8,85.6,96,81.1z M9.9,84.8L50.2,15l40.2,69.8H9.9z"/>
	<path fill="#010101" d="M50.1,48.1l-15.9,6.2c-4.1,2.5-4.4,5.5-0.9,9l22.3,19.6l4.4-5.5L39.7,59.4L52.1,55l-2.6,7.6l8.7-2.8l6-12.5
		l-12.4-6l-8.6,3.4L50.1,48.1z"/>
</g>
</svg>
