<?xml version="1.0" encoding="utf-8"?>
<!-- Generator: Adobe Illustrator 18.1.1, SVG Export Plug-In . SVG Version: 6.00 Build 0)  -->
<svg version="1.1" id="图层_1" xmlns="http://www.w3.org/2000/svg" xmlns:xlink="http://www.w3.org/1999/xlink" x="0px" y="0px"
	 width="100" height="100" enable-background="new 0 0 100 100" xml:space="preserve">
<circle id="白色底图" fill="#2A3785" stroke="#010101" stroke-miterlimit="22.9256" cx="50.3" cy="50.3" r="43"/>
<line fill="none" stroke="#231815" stroke-width="0.216" stroke-miterlimit="22.9256" x1="101.6" y1="104.3" x2="-1.5" y2="104.3"/>
<path fill="#E41E26" d="M50,1c27.1,0,49.1,22.1,49.1,49.1S77.1,99.2,50,99.2S0.9,77.2,0.9,50.1C0.9,23.1,23,1,50,1L50,1z M21.6,18.1
	l62.1,58.4c5.7-7.3,9.1-16.5,9.1-26.4C92.9,26.5,73.6,7.3,50,7.3C39.1,7.3,29.2,11.4,21.6,18.1L21.6,18.1z M78.8,81.8L16.6,23.4
	C10.7,30.7,7.2,40,7.2,50.1C7.2,73.7,26.4,93,50,93C61.1,93,71.2,88.7,78.8,81.8z"/>
</svg>
