<?xml version="1.0" encoding="utf-8"?>
<!-- Generator: Adobe Illustrator 18.1.1, SVG Export Plug-In . SVG Version: 6.00 Build 0)  -->
<svg version="1.1" id="图层_1" xmlns="http://www.w3.org/2000/svg" xmlns:xlink="http://www.w3.org/1999/xlink" x="0px" y="0px"
	 width="100" height="100" enable-background="new 0 0 100 100" xml:space="preserve">
<line fill="none" stroke="#231815" stroke-width="0.216" stroke-miterlimit="22.9256" x1="101.5" y1="104.2" x2="-1.5" y2="104.2"/>
<ellipse id="白底" fill="#FFFFFF" cx="49.9" cy="50.3" rx="42.8" ry="43.3"/>
<path fill="#E41E26" d="M50,1c27,0,49.1,22,49.1,49.1S77,99.2,50,99.2S0.9,77.1,0.9,50.1C0.9,23,23,1,50,1L50,1z M21.6,18.1
	l62.1,58.3c5.7-7.3,9.1-16.4,9.1-26.4C92.8,26.5,73.6,7.3,50,7.3C39.1,7.3,29.1,11.4,21.6,18.1L21.6,18.1z M78.8,81.8L16.6,23.4
	C10.7,30.7,7.2,40,7.2,50.1c0,23.6,19.2,42.8,42.8,42.8C61,92.9,71.1,88.7,78.8,81.8z"/>
<path fill="#231815" stroke="#FFFFFF" stroke-width="0.216" stroke-miterlimit="22.9256" d="M18.2,62.6c4.6-5.1,9.4-11,16-13.9
	l31.3-0.4c7,2.5,7,12.3-1.1,16l-23.9,0.3c-3.5-1.1-4.1-5.4,0-6.5h41.7l0.1-3.2l-42-0.1c-9.4,1.7-5.8,13.7-0.1,12.8L65.7,67
	c12.3-5,10.3-19.3,0-22.9l-31.3-0.6c-5.8-2.3-11.2-7-16.3-13.4L18.2,62.6z"/>
</svg>
