<?xml version="1.0" encoding="utf-8"?>
<!-- Generator: Adobe Illustrator 18.1.1, SVG Export Plug-In . SVG Version: 6.00 Build 0)  -->
<svg version="1.1" id="图层_1" xmlns="http://www.w3.org/2000/svg" xmlns:xlink="http://www.w3.org/1999/xlink" x="0px" y="0px"
	 width="100" height="100" enable-background="new 0 0 100 100" xml:space="preserve">
<circle fill="none" stroke="#CDCCCC" stroke-width="3.700000e-003" stroke-miterlimit="22.9256" cx="50.3" cy="52.2" r="47.8"/>
<circle id="白底" fill="#FFFFFF" stroke="#231815" stroke-width="3.700000e-003" stroke-miterlimit="22.9256" cx="50" cy="50.5" r="44.5"/>
<path fill="#231815" stroke="#231815" stroke-width="0.216" stroke-miterlimit="2.4142" d="M12.6,72.9c-4-6.5-6.3-14.1-6.3-22.2
	S8.7,35,12.6,28.6v0.2l12.9,21.4L12.6,72.9L12.6,72.9L12.6,72.9z"/>
<path fill="#231815" stroke="#231815" stroke-width="0.216" stroke-miterlimit="2.4142" d="M86.9,72.9c4-6.5,6.3-14.1,6.3-22.2
	S90.9,35,86.9,28.6v0.2L74,50.2L86.9,72.9L86.9,72.9L86.9,72.9z"/>
<path fill="#231815" stroke="#231815" stroke-width="0.216" stroke-miterlimit="2.4142" d="M29.5,31.1H50l-8.3,13.2
	c9.6,5.9,9.1,23.6,0,25.3c-10.4,3.1-13.4-5.2-13.7-11.3l5.6,0c-0.6,5,2.7,7.2,6.3,5.7c6.3-3.7,2.2-11.9-5.7-19.4l5.4-7.9H29.4
	L29.5,31.1L29.5,31.1z"/>
<path fill="#231815" d="M53.4,68.4V53.5h2.2v2.1c0.4-0.7,1-1.3,1.8-1.8c0.7-0.4,1.6-0.7,2.5-0.7c1,0,1.9,0.2,2.6,0.7
	c0.7,0.5,1.1,1.1,1.4,1.9c1.1-1.7,2.6-2.6,4.4-2.6c1.4,0,2.5,0.4,3.2,1.2c0.8,0.8,1.1,2.1,1.1,3.8v10.3h-2.4V59c0-1-0.1-1.7-0.2-2.2
	c-0.2-0.4-0.4-0.8-0.8-1.1c-0.4-0.3-0.9-0.4-1.4-0.4c-1,0-1.8,0.3-2.5,1c-0.7,0.7-1,1.8-1,3.4v8.7h-2.4v-9.7c0-1.1-0.2-2-0.6-2.5
	c-0.4-0.6-1-0.8-1.9-0.8c-0.7,0-1.3,0.2-1.9,0.6c-0.6,0.4-1,0.9-1.2,1.6c-0.3,0.7-0.4,1.8-0.4,3.1v7.8H53.4L53.4,68.4z"/>
<path fill="#E41E26" d="M50,8.8c22.9,0,41.5,18.6,41.5,41.5S72.9,91.8,50,91.8S8.5,73.1,8.5,50.3C8.5,27.4,27.1,8.8,50,8.8L50,8.8z
	 M50,1C22.8,1,0.7,23.1,0.7,50.3S22.9,99.6,50,99.6s49.3-22.1,49.3-49.3S77.1,1,50,1z"/>
</svg>
