<?xml version="1.0" encoding="utf-8"?>
<!-- Generator: Adobe Illustrator 18.1.1, SVG Export Plug-In . SVG Version: 6.00 Build 0)  -->
<svg version="1.1" id="图层_1" xmlns="http://www.w3.org/2000/svg" xmlns:xlink="http://www.w3.org/1999/xlink" x="0px" y="0px"
	 width="100" height="100" enable-background="new 0 0 100 100" xml:space="preserve">
<circle fill="none" stroke="#CDCCCC" stroke-width="3.700000e-003" stroke-miterlimit="22.9256" cx="50.4" cy="51.9" r="48.6"/>
<circle id="白底" fill="#FFFFFF" stroke="#231815" stroke-width="3.700000e-003" stroke-miterlimit="22.9256" cx="50.1" cy="50.3" r="45.2"/>
<path fill="#E41E26" d="M50.1,7.9c23.2,0,42.1,18.9,42.1,42.1S73.3,92.1,50.1,92.1S8,73.2,8,50C8,26.8,26.9,7.9,50.1,7.9L50.1,7.9z
	 M50.1,0c-27.6,0-50,22.5-50,50s22.5,50,50,50s50-22.5,50-50S77.7,0,50.1,0z"/>
<path fill="#231815" stroke="#231815" stroke-width="0.216" stroke-miterlimit="2.4142" d="M72.7,13.6c-6.6-3.9-14.4-6.2-22.6-6.2
	s-16,2.3-22.6,6.2h0.2l21.8,12.8L72.7,13.6L72.7,13.6L72.7,13.6z"/>
<polyline fill="#231815" stroke="#231815" stroke-width="0.216" stroke-miterlimit="2.4142" points="27.6,86.1 49.4,73.3 72.6,86.1 
	"/>
<path fill="#231815" stroke="#231815" stroke-width="0.216" stroke-miterlimit="2.4142" d="M72.6,86.1C66,90,58.3,92.2,50,92.2
	S34,90,27.4,86.1"/>
<path fill="#231815" stroke="#231815" stroke-width="0.216" stroke-miterlimit="2.4142" d="M18.9,30.3h20.7l-8.3,13.1
	c9.7,5.9,9.2,23.6,0,25.3c-10.5,3.1-13.5-5.1-13.8-11.2l5.7,0c-0.6,5,2.7,7.2,6.3,5.7c6.4-3.7,2.3-11.9-5.8-19.4l5.4-7.9H18.9
	L18.9,30.3L18.9,30.3z"/>
<path fill="#231815" d="M63.8,68.7V53.8h2.2v2.1c0.5-0.7,1.1-1.3,1.9-1.8c0.8-0.4,1.7-0.7,2.6-0.7c1.1,0,2,0.2,2.7,0.7
	c0.7,0.5,1.2,1.1,1.5,1.9c1.2-1.7,2.7-2.6,4.6-2.6c1.5,0,2.6,0.4,3.4,1.2c0.8,0.8,1.2,2.1,1.2,3.8v10.2h-2.5v-9.4
	c0-1-0.1-1.7-0.2-2.2c-0.2-0.4-0.5-0.8-0.9-1.1c-0.4-0.3-0.9-0.4-1.5-0.4c-1,0-1.9,0.4-2.6,1.1c-0.7,0.7-1,1.8-1,3.3v8.7h-2.5V59
	c0-1.1-0.2-2-0.6-2.5c-0.4-0.6-1.1-0.8-2-0.8c-0.7,0-1.4,0.2-2,0.6c-0.6,0.4-1,0.9-1.3,1.6c-0.3,0.7-0.4,1.8-0.4,3.1v7.7L63.8,68.7
	L63.8,68.7z"/>
<ellipse fill="#231815" stroke="#231815" stroke-width="0.216" stroke-miterlimit="2.4142" cx="39.9" cy="67.1" rx="1.2" ry="1.2"/>
<path fill="#231815" stroke="#231815" stroke-width="3.685039e-003" stroke-miterlimit="2.4142" d="M45,42.6h11.2v4.5h-7.3l0,4.2
	c6-1,12.6,8.1,6.1,15.7c-4.3,3.1-9.8,1.8-10.9-5.3l3.4-0.4c0.9,4.1,5.5,4.8,6.5,0.2c0.8-6.5-4-8.1-8.9-6L45,42.6L45,42.6z"/>
</svg>
