<?xml version="1.0" encoding="utf-8"?>
<!-- Generator: Adobe Illustrator 18.1.1, SVG Export Plug-In . SVG Version: 6.00 Build 0)  -->
<svg version="1.1" id="图层_1" xmlns="http://www.w3.org/2000/svg" xmlns:xlink="http://www.w3.org/1999/xlink" x="0px" y="0px"
	 width="100" height="100" enable-background="new 0 0 100 100" xml:space="preserve">
<circle fill="none" stroke="#CDCCCC" stroke-width="3.700000e-003" stroke-miterlimit="22.9256" cx="50.3" cy="51.7" r="47.8"/>
<circle id="白底" fill="#FFFFFF" stroke="#231815" stroke-width="3.700000e-003" stroke-miterlimit="22.9256" cx="50" cy="50" r="44.5"/>
<path fill="#E41E26" d="M50,8.3c22.8,0,41.4,18.6,41.4,41.4S72.8,91.2,50,91.2S8.6,72.6,8.6,49.8C8.6,27,27.2,8.3,50,8.3L50,8.3z
	 M50,0.5C22.9,0.5,0.8,22.7,0.8,49.8S22.9,99,50,99s49.2-22.1,49.2-49.2S77.1,0.5,50,0.5z"/>
<g>
	<polygon fill="#231815" stroke="#231815" stroke-width="3.685039e-003" stroke-miterlimit="2.4142" points="22.3,33.4 22.3,38.8 
		27.3,38.6 27.3,71.5 34.3,71.5 34.3,28.4 28.2,28.4 	"/>
	<path fill="#231815" stroke="#231815" stroke-width="3.685039e-003" stroke-miterlimit="2.4142" d="M49.8,27.8
		c-6.8,0-12.3,9.9-12.3,22s5.5,22,12.3,22s12.3-9.9,12.3-22S56.6,27.8,49.8,27.8z M49.8,64.9c-3,0-5.5-6.8-5.5-15.1
		s2.5-15.1,5.5-15.1c3,0,5.5,6.8,5.5,15.1S52.8,64.9,49.8,64.9z"/>
	<path fill="#231815" stroke="#231815" stroke-width="3.685039e-003" stroke-miterlimit="2.4142" d="M79.4,58.5v-3.2H74v-5.4L69,53
		v2.2h-2.2v3.2H69v9.4c0.1,2.7,2.4,3.5,5.6,3.4l4.8-0.1l-0.1-3.1h-3.8c-0.5-0.2-1.2,0.2-1.5-0.5v-9.2L79.4,58.5L79.4,58.5z"/>
</g>
</svg>
