<?xml version="1.0" encoding="utf-8"?>
<!-- Generator: Adobe Illustrator 18.1.1, SVG Export Plug-In . SVG Version: 6.00 Build 0)  -->
<svg version="1.1" id="图层_1" xmlns="http://www.w3.org/2000/svg" xmlns:xlink="http://www.w3.org/1999/xlink" x="0px" y="0px"
	 width="100" height="100" enable-background="new 0 0 100 100" xml:space="preserve">
<circle fill="none" stroke="#CDCCCC" stroke-width="3.700000e-003" stroke-miterlimit="22.9256" cx="50" cy="51.6" r="48.2"/>
<circle id="白底" fill="#FFFFFF" stroke="#231815" stroke-width="3.700000e-003" stroke-miterlimit="22.9256" cx="49.7" cy="49.9" r="44.9"/>
<path fill="#E41E26" d="M49.7,7.9c23.1,0,41.8,18.8,41.8,41.8S72.8,91.6,49.7,91.6S7.9,72.8,7.9,49.7C7.9,26.7,26.7,7.9,49.7,7.9
	L49.7,7.9z M49.7,0C22.3,0,0,22.3,0,49.7s22.3,49.7,49.7,49.7s49.7-22.3,49.7-49.7S77.1,0,49.7,0z"/>
<rect x="56.6" y="43.5" fill="#231815" stroke="#231815" stroke-width="0.216" stroke-miterlimit="2.4142" width="6.4" height="2"/>
<path fill="#231815" stroke="#231815" stroke-width="3.685039e-003" stroke-miterlimit="2.4142" d="M60.3,51.2V40.1l-2.5,2v9.2
	c0,1.7,1.2,2.2,2.9,2.1l2.4,0L63,51.6H61C60.8,51.5,60.4,51.7,60.3,51.2L60.3,51.2z"/>
<rect x="26.2" y="53.9" fill="#231815" stroke="#231815" stroke-width="0.216" stroke-miterlimit="2.4142" width="6.9" height="19"/>
<rect x="65.9" y="53.9" fill="#231815" stroke="#231815" stroke-width="0.216" stroke-miterlimit="2.4142" width="6.9" height="19"/>
<rect x="31.5" y="61.1" fill="#231815" stroke="#231815" stroke-width="0.216" stroke-miterlimit="2.4142" width="36.1" height="3.7"/>
<ellipse fill="#231815" stroke="#231815" stroke-width="0.216" stroke-miterlimit="2.4142" cx="49.6" cy="62.6" rx="4.8" ry="4.7"/>
<ellipse fill="#231815" stroke="#231815" stroke-width="0.216" stroke-miterlimit="2.4142" cx="69.9" cy="62.6" rx="4.8" ry="4.7"/>
<ellipse fill="#231815" stroke="#231815" stroke-width="0.216" stroke-miterlimit="2.4142" cx="29.5" cy="62.6" rx="4.8" ry="4.7"/>
<polygon fill="#231815" stroke="#231815" stroke-width="0.216" stroke-miterlimit="2.4142" points="36,22.2 55.2,22.2 55.2,27.6 
	42,53.7 36,53.7 48.9,27.7 36,27.7 "/>
</svg>
