<?xml version="1.0" encoding="utf-8"?>
<!-- Generator: Adobe Illustrator 18.1.1, SVG Export Plug-In . SVG Version: 6.00 Build 0)  -->
<svg version="1.1" id="图层_1" xmlns="http://www.w3.org/2000/svg" xmlns:xlink="http://www.w3.org/1999/xlink" x="0px" y="0px"
	width="100" height="100" enable-background="new 0 0 100 100" xml:space="preserve">
<line fill="none" stroke="#231815" stroke-width="0.216" stroke-miterlimit="22.9256" x1="102.2" y1="104.4" x2="-1.2" y2="104.4"/>
<path fill="#E41E26" d="M50.5,0.9c27.1,0,49.2,22.1,49.2,49.2S77.6,99.4,50.5,99.4S1.3,77.2,1.3,50.1C1.2,23,23.4,0.9,50.5,0.9
	L50.5,0.9z M22,18.1l62.3,58.5c5.7-7.3,9.2-16.5,9.2-26.5c0-23.7-19.3-42.9-42.9-42.9C39.6,7.2,29.6,11.3,22,18.1L22,18.1z
	 M79.3,81.9L17,23.3C11.1,30.7,7.6,40,7.6,50.1c0,23.7,19.3,42.9,42.9,42.9C61.6,93.1,71.7,88.8,79.3,81.9z"/>
<circle id="白色底图" fill="#FFFFFF" stroke="#010101" stroke-miterlimit="22.9256" cx="50.7" cy="50.3" r="43.1"/>
<g>
	<path fill="#231815" d="M82.1,40.6H19.4c-3.1,0-5.7,2.5-5.7,5.6v1.7c0,3.1,2.5,5.6,5.7,5.6h62.7c3.1,0,5.7-2.5,5.7-5.6v-1.7
		C87.8,43.1,85.2,40.6,82.1,40.6z"/>
	<path fill="#231815" d="M30.2,62.2c0.3,0,0.8,0,1.6,0.1v-1.1c-0.7,0-1.2,0.1-1.4,0.1c-0.3,0-0.5,0-0.7,0v-1.5c0-0.4,0-0.9,0.1-1.3
		h-1.4c0,0.5,0.1,0.9,0.1,1.3v1.5c-0.2,0-0.5,0-0.8,0s-0.8,0-1.5-0.1v1.1c0.7,0,1.2-0.1,1.4-0.1s0.5,0,0.7,0
		c-0.1,0.3-0.2,0.7-0.4,1.1c-0.2,0.4-0.4,0.8-0.6,1.3c-0.3,0.4-0.5,0.9-0.8,1.3c-0.3,0.4-0.6,0.8-1,1.2l1.2,0.7
		c0.3-0.4,0.6-0.9,0.9-1.4c0.4-0.6,0.6-1.1,0.8-1.5v3.9l1.2,0.7v-4.5v-2.7C29.7,62.2,29.9,62.2,30.2,62.2z"/>
	<path fill="#231815" d="M31.2,65.1c-0.3-0.3-0.4-0.6-0.5-0.8c-0.3,0.2-0.7,0.4-1,0.5c0.2,0.3,0.4,0.6,0.6,1
		c0.2,0.3,0.4,0.6,0.5,0.8c0.4-0.2,0.7-0.4,1.1-0.5C31.7,65.8,31.4,65.5,31.2,65.1z"/>
	<path fill="#231815" d="M26.6,68l1.9,1.5v-0.7l-1.7-1C26.6,67.9,26.6,67.9,26.6,68z"/>
	<path fill="#231815" d="M36.6,58.9c0-0.1,0.2-0.3,0.3-0.5c-0.5-0.1-1.1-0.2-1.6-0.3c-0.1,0.4-0.3,0.9-0.5,1.3
		c-0.3,0.5-0.5,0.9-0.9,1.4c-0.3,0.4-0.8,0.9-1.3,1.4c-0.5,0.5-1.1,0.9-1.8,1.3c0.5,0.2,1,0.5,1.2,0.9c0.3-0.2,0.6-0.5,0.9-0.8
		c0.3-0.3,0.6-0.6,1-0.9c0.4-0.4,0.7-0.8,1-1.2c0.3-0.4,0.7-1,1-1.6c0.5,0.8,1,1.4,1.4,1.8c0.4,0.4,0.9,0.7,1.4,1.1h0
		c0.4,0.3,0.8,0.5,1.2,0.7c0.4,0.2,0.8,0.4,1.3,0.6c0.1-0.5,0.4-0.9,0.8-1.2c-0.8-0.2-1.6-0.6-2.6-1.1
		C38.4,61.1,37.5,60.2,36.6,58.9z"/>
	<path fill="#231815" d="M33.9,63.6c0.4,0,0.9-0.1,1.4-0.1h2.2c0.3,0,0.7,0,1,0.1v-1H34L33.9,63.6L33.9,63.6z"/>
	<path fill="#231815" d="M38.6,62.6L38.6,62.6C38.7,62.6,38.6,62.6,38.6,62.6L38.6,62.6z"/>
	<path fill="#231815" d="M34.5,68.3c-0.1-0.5-0.3-1-0.4-1.7c-0.1-0.6-0.2-1.2-0.3-1.8c-0.4,0.1-0.8,0.2-1.3,0.3
		c0.2,0.6,0.3,1.2,0.4,1.7c0.1,0.5,0.2,1.1,0.3,1.7C33.8,68.5,34.2,68.4,34.5,68.3z"/>
	<path fill="#231815" d="M37.2,67.7c-0.1-0.3-0.2-0.8-0.4-1.5c-0.2-0.6-0.3-1.2-0.3-1.7c-0.4,0.1-0.8,0.2-1.3,0.3
		c0.1,0.5,0.3,0.9,0.4,1.5c0.1,0.5,0.2,1.1,0.4,1.7C36.3,67.8,36.7,67.7,37.2,67.7z"/>
	<path fill="#231815" d="M38.5,69.5c0.3-0.8,0.6-1.6,1-2.3c0.3-0.7,0.7-1.4,1.1-2.1c-0.5-0.2-1-0.3-1.6-0.6
		c-0.2,0.6-0.3,1.1-0.4,1.5s-0.3,1-0.6,1.7c-0.3,0.7-0.5,1.3-0.8,1.9h-3.4c-1.3,0-2.1,0-2.6-0.1v1c0.4,0,1.3-0.1,2.5-0.1h5.8
		c0.8,0,1.5,0,2.1,0.1v-1c-0.7,0-1.4,0.1-2.1,0.1L38.5,69.5L38.5,69.5z"/>
	<path fill="#231815" d="M70.9,60.9h2.5c0.6,0,1.4,0,2.3,0.1v-1.1c-1,0-1.7,0.1-2.3,0.1h-4.3c0-0.7,0-1.2,0.1-1.6h-1.4
		c0,0.4,0.1,1,0.1,1.6H64c-0.8,0-1.6,0-2.6-0.1v1.1c1,0,1.8-0.1,2.6-0.1h2.1c-0.7,0.9-1.6,1.6-2.6,2.1c-1.1,0.5-2,0.8-2.7,1
		c0.4,0.3,0.7,0.7,1,1.1c0.7-0.3,1.3-0.6,1.9-0.9c0,0.7,0.1,1.5,0.1,2.3s0,1.7-0.1,2.4h9.9c0-0.8-0.1-1.6-0.1-2.4s0-1.6,0.1-2.3
		h-4.4v-3.2h0.5c0.7,1,1.5,1.7,2.4,2.3s2.1,1.1,3.6,1.6c0.2-0.5,0.5-0.9,0.9-1.2c-1.2-0.2-2.3-0.6-3.3-1
		C72.2,62.1,71.4,61.5,70.9,60.9z M65.9,62.6c0.6-0.5,1.1-1.1,1.5-1.7h0.4v3.2h-4.2C64.6,63.6,65.3,63.1,65.9,62.6z M72.2,67.9h-7.3
		v-1h7.3V67.9z M72.2,65v1h-7.3v-1H72.2z"/>
	<path fill="#231815" d="M64,69.9c-0.7,0-1.6,0-2.5-0.1v1c0.9,0,1.7-0.1,2.5-0.1h9.4c0.6,0,1.4,0,2.2,0.1v-1c-0.8,0-1.5,0.1-2.3,0.1
		H64z"/>
</g>
</svg>
