<?xml version="1.0" encoding="utf-8"?>
<!-- Generator: Adobe Illustrator 18.1.1, SVG Export Plug-In . SVG Version: 6.00 Build 0)  -->
<svg version="1.1" id="图层_1" xmlns="http://www.w3.org/2000/svg" xmlns:xlink="http://www.w3.org/1999/xlink" x="0px" y="0px"
	 width="100" height="100" enable-background="new 0 0 100 100" xml:space="preserve">
<polygon fill="#FFFFFF" stroke="#E51E25" stroke-width="2.8346" stroke-miterlimit="2.4142" points="29.8,3.4 69.5,3.4 98.1,29.8 
	98.1,69.7 70.3,95.9 30.4,95.9 1.8,69.5 1.8,30 "/>
<polygon fill="#E51E25" stroke="#E51E25" stroke-width="2.8346" stroke-miterlimit="2.4142" points="32.2,8.8 67.2,8.8 92.4,32.1 
	92.4,67.4 67.9,90.4 32.7,90.4 7.4,67.1 7.4,32.3 "/>
<path fill="#FFFFFF" d="M55,61.3c0,3.7,0,5.7-0.2,6c-0.2,0.4-0.8,0.6-1.8,0.6c-0.2,0-1.1-0.1-2.7-0.4c0.7,1.7,1.3,3.7,1.7,6.1
	c3.5-0.1,5.9-0.5,7.1-1.1c1.1-0.6,1.7-1.8,1.7-3.6v-7.4l6.7,0.1v-5.2c-6.6,0.2-13.4,0.2-20.3,0v5.2L55,61.3L55,61.3z M41,60.3h5.7
	c-0.1-2.4-0.2-4.2-0.2-5.6h22.1l-0.1,5.8h5.9c-0.1-4.9-0.1-8.5,0-10.9H40.9L41,60.3L41,60.3z M46.4,32.9l-4.6-0.2v5.4
	c2.6-0.1,11.7-0.2,27.2-0.2c1.3,0,2.7,0.1,4.1,0.2v-5.4l-13.8,0.2c0.8-0.7,1.6-1.4,2.5-2c-1.7-1.7-3.6-3.4-5.6-5.2
	c-2,1.7-3.6,2.8-4.8,3.5c1.3,1,2.7,2.2,4.2,3.7H46.4L46.4,32.9z M45.5,39.1v9.3c8.2-0.2,15.8-0.2,22.8,0c-0.1-3.8-0.1-6.9,0-9.3
	H45.5L45.5,39.1z M50.8,44.8v-1.7h12.1v1.7H50.8L50.8,44.8z M33.5,66.5l-0.2,6.4h6.1c-0.4-11.9-0.4-22.8-0.1-32.7h-1.2
	c1.4-2.9,2.9-6.2,4.4-10.1c0.1-0.4,0.3-0.9,0.5-1.3c-1.8-0.5-4-1.3-6.5-2.4c-0.8,5.4-2.7,10.5-5.8,15.3c-1.3,2-2.6,3.4-3.7,4.2
	c1.6,2.4,2.7,4.7,3.3,6.8c1.2-1.4,2.2-2.8,3.1-4.2L33.5,66.5L33.5,66.5z"/>
</svg>
