<?xml version="1.0" encoding="utf-8"?>
<!-- Generator: Adobe Illustrator 18.1.1, SVG Export Plug-In . SVG Version: 6.00 Build 0)  -->
<svg version="1.1" id="图层_1" xmlns="http://www.w3.org/2000/svg" xmlns:xlink="http://www.w3.org/1999/xlink" x="0px" y="0px"
	 width="100" height="100" enable-background="new 0 0 100 100" xml:space="preserve">
<g>
	<path fill="#F4AB1C" d="M3.1,82.4L45.7,8c0.9-1.4,2.6-2.5,4.3-2.5c-1.7,0-3.4,1.1-4.3,2.5L3.1,82.4c-2.7,4.7-2.8,8.5,1,9.2l0,0
		C0.3,90.9,0.4,87.1,3.1,82.4z"/>
	<path fill="#F4AB1C" d="M9.5,84.5h80.4L49.7,14.8L9.5,84.5z M70.1,59.7c1,3-0.2,4.6-3.6,4.7l-20.1,0l8.1,11.1l-6.2,4.7L31.2,60.5
		c-0.9-3.5,0.5-5.3,4-5.2l20.3-0.1l-8.9-10.9l6.3-4.7L70.1,59.7z"/>
	<path fill="#010101" d="M95.5,80.8L53.7,8c-1-1.8-2.4-2.5-3.7-2.5c-1.7,0-3.4,1.1-4.3,2.5L3.1,82.4c-2.7,4.7-2.8,8.5,1,9.2h90.3
		l0,0C101,91.7,98.4,85.3,95.5,80.8z M9.5,84.5l40.2-69.7l40.2,69.7H9.5z"/>
	<path fill="#010101" d="M55.4,55.3l-20.3,0.1c-3.5-0.1-4.8,1.6-4,5.2l17.2,19.8l6.2-4.7l-8.1-11.1l20.1,0c3.4-0.1,4.6-1.7,3.6-4.7
		L52.9,39.6l-6.3,4.7L55.4,55.3z"/>
</g>
</svg>
