<?xml version="1.0" encoding="utf-8"?>
<!-- Generator: Adobe Illustrator 18.1.1, SVG Export Plug-In . SVG Version: 6.00 Build 0)  -->
<svg version="1.1" id="图层_1" xmlns="http://www.w3.org/2000/svg" xmlns:xlink="http://www.w3.org/1999/xlink" x="0px" y="0px"
	 width="100" height="100" enable-background="new 0 0 100 100" xml:space="preserve">
<polygon fill="#E51E25" stroke="#E51E25" stroke-width="2.8346" stroke-miterlimit="2.4142" points="3,2.9 96.7,2.8 50.3,96 "/>
<polygon fill="#FFFFFF" stroke="#E51E25" stroke-width="2.8346" stroke-miterlimit="2.4142" points="16.4,9.2 83.6,9.2 50.3,75.9 
	"/>
<g>
	<path fill="#010101" d="M46.4,41.2c-0.9,0.9-1.6,1.7-2.2,2.4c-0.4-0.6-0.9-1-1.4-1.3c0.5-0.6,0.7-1.2,0.7-1.8v-8.3
		c-1.2,0-2.1,0-2.8,0.1v-1.5c0.7,0.1,1.4,0.1,2.1,0.1h2.6c-0.1,1-0.1,1.9-0.1,2.9v6.4c0.5-0.4,1.3-1.2,2.4-2.4
		c0.2,0.5,0.5,1,0.9,1.5C48,39.7,47.2,40.4,46.4,41.2z M46,27.9c-0.4,0.3-0.8,0.6-1.3,0.9c-0.9-1.1-1.8-2.2-2.8-3.2
		c0.3-0.3,0.7-0.6,1.1-1C44,25.4,45,26.5,46,27.9z M53.8,27.8v3.2h2.9c0.9,0,1.7,0,2.5-0.1v1.5c-0.7-0.1-1.5-0.1-2.4-0.1h-3v9.5h2.8
		c1.3,0,2.4-0.1,3.3-0.2v1.6c-1-0.1-2.1-0.1-3.3-0.1h-6.4c-1.2,0-2.2,0-3.2,0.1v-1.6c1,0.1,2,0.2,3.1,0.2h1.9V27.7
		c0-0.9,0-1.9-0.1-2.8H54C53.9,25.9,53.8,26.9,53.8,27.8z"/>
</g>
</svg>
