<?xml version="1.0" encoding="utf-8"?>
<!-- Generator: Adobe Illustrator 18.1.1, SVG Export Plug-In . SVG Version: 6.00 Build 0)  -->
<svg version="1.1" id="图层_1" xmlns="http://www.w3.org/2000/svg" xmlns:xlink="http://www.w3.org/1999/xlink" x="0px" y="0px"
	 width="100" height="100" enable-background="new 0 0 100 100" xml:space="preserve">
<line fill="none" stroke="#231815" stroke-width="0.216" stroke-miterlimit="22.9256" x1="101.5" y1="104.3" x2="-2.2" y2="104.3"/>
<path fill="#E41E26" d="M49.6,0.3c27.2,0,49.4,22.2,49.4,49.4S76.9,99.2,49.6,99.2S0.2,77,0.2,49.8C0.2,22.6,22.4,0.3,49.6,0.3
	L49.6,0.3z M21,17.6l62.5,58.8c5.8-7.3,9.2-16.6,9.2-26.6C92.7,26,73.4,6.7,49.6,6.7C38.7,6.7,28.6,10.8,21,17.6L21,17.6z
	 M78.6,81.7L16,22.9c-5.9,7.4-9.5,16.8-9.5,26.9c0,23.7,19.4,43.1,43.1,43.1C60.8,92.9,70.9,88.6,78.6,81.7z"/>
<circle id="白色底图" fill="#FFFFFF" stroke="#010101" stroke-miterlimit="22.9256" cx="49.8" cy="49.9" r="43.3"/>
<polygon fill="#231815" stroke="#231815" stroke-width="0.216" stroke-miterlimit="2.4142" points="29.8,56.4 29.8,25.2 40.5,25.2 
	40.7,56.4 50.9,44.8 50.9,59.1 35.9,77.7 20.1,59.6 20.1,45.5 "/>
<polygon fill="#E51E25" stroke="#E51E25" stroke-width="0.216" stroke-miterlimit="2.4142" points="74.2,37.7 74.2,77.6 68.2,77.4 
	68.4,37.7 62.9,43.9 62.9,36.2 71,26.2 79.4,35.9 79.4,43.5 "/>
</svg>
