<?xml version="1.0" encoding="utf-8"?>
<!-- Generator: Adobe Illustrator 18.1.1, SVG Export Plug-In . SVG Version: 6.00 Build 0)  -->
<svg version="1.1" id="图层_1" xmlns="http://www.w3.org/2000/svg" xmlns:xlink="http://www.w3.org/1999/xlink" x="0px" y="0px"
	 width="100" height="100" enable-background="new 0 0 100 100" xml:space="preserve">
<path fill="#FFFFFF" stroke="#2B2A76" stroke-width="2.8346" stroke-miterlimit="10" d="M50,98.2c26.9,0,48.8-21.7,48.8-48.3
	C98.8,23.5,76.9,1.8,50,1.8S1.2,23.5,1.2,49.9C1.2,76.5,23.1,98.2,50,98.2z"/>
<path fill="#2B2A76" d="M50,94.2c24.7,0,44.8-19.9,44.8-44.3C94.8,25.7,74.7,5.8,50,5.8S5.2,25.7,5.2,49.9
	C5.2,74.3,25.3,94.2,50,94.2z"/>
<polygon fill="#FFFFFF" stroke="#FFFFFF" stroke-width="3.700000e-003" stroke-miterlimit="10" points="44.1,77.2 44.2,41.8 
	35.1,50.9 35.2,37.2 50.6,22.7 64.9,37.3 64.9,50.6 54.6,41.9 54.6,77.3 "/>
</svg>
