<?xml version="1.0" encoding="utf-8"?>
<!-- Generator: Adobe Illustrator 18.1.1, SVG Export Plug-In . SVG Version: 6.00 Build 0)  -->
<svg version="1.1" id="图层_1" xmlns="http://www.w3.org/2000/svg" xmlns:xlink="http://www.w3.org/1999/xlink" x="0px" y="0px"
	 width="100" height="100" enable-background="new 0 0 100 100" xml:space="preserve">
<path fill="#FFFFFF" stroke="#2B2A76" stroke-width="2.8346" stroke-miterlimit="10" d="M50,97.8c26.6,0,48.4-21.6,48.4-47.9
	C98.4,23.7,76.6,2.1,50,2.1S1.6,23.7,1.6,49.9C1.6,76.3,23.4,97.8,50,97.8z"/>
<path fill="#2B2A76" d="M50,93.9c24.5,0,44.5-19.8,44.5-44c0-24.1-20-43.9-44.5-43.9S5.5,25.8,5.5,49.9C5.5,74.1,25.5,93.9,50,93.9z
	"/>
<path fill="#FFFFFF" stroke="#FFFFFF" stroke-width="3.700000e-003" stroke-miterlimit="10" d="M71.9,72.9h-9.8V49.5
	c-0.5-3.5-2.8-5.1-6.9-4.7l-9.3,0.1l8.3,8.2L41.5,53L28.1,39.2l15.2-12.1h12.2l-9.7,8.5h17.4c5,0.7,7.9,3.5,8.6,8.5L71.9,72.9
	L71.9,72.9z"/>
</svg>
