<?xml version="1.0" encoding="utf-8"?>
<!-- Generator: Adobe Illustrator 18.1.1, SVG Export Plug-In . SVG Version: 6.00 Build 0)  -->
<svg version="1.1" id="图层_1" xmlns="http://www.w3.org/2000/svg" xmlns:xlink="http://www.w3.org/1999/xlink" x="0px" y="0px"
	 width="100" height="100" enable-background="new 0 0 100 100" xml:space="preserve">
<path fill="#FFFFFF" stroke="#2B2A76" stroke-width="2.8346" stroke-miterlimit="10" d="M50,97.8C23.4,97.8,1.7,76.3,1.7,50
	C1.7,23.9,23.4,2.4,50,2.4S98.3,23.9,98.3,50C98.3,76.3,76.6,97.8,50,97.8z"/>
<path fill="#2B2A76" d="M50,93.8C25.5,93.8,5.7,74.2,5.7,50C5.7,26,25.6,6.3,50,6.3S94.3,26,94.3,50C94.4,74.2,74.5,93.8,50,93.8z"
	/>
<path fill="#FFFFFF" stroke="#FFFFFF" stroke-width="3.700000e-003" stroke-miterlimit="10" d="M28.2,72.9h9.7V49.6
	c0.5-3.5,2.7-5.1,6.9-4.7l9.3,0.1l-8.3,8.2l12.6-0.1l13.3-13.8L56.7,27.3H44.5l9.6,8.5H36.8c-5,0.7-7.8,3.5-8.6,8.5L28.2,72.9
	L28.2,72.9z"/>
</svg>
