<?xml version="1.0" encoding="utf-8"?>
<!-- Generator: Adobe Illustrator 18.1.1, SVG Export Plug-In . SVG Version: 6.00 Build 0)  -->
<svg version="1.1" id="图层_1" xmlns="http://www.w3.org/2000/svg" xmlns:xlink="http://www.w3.org/1999/xlink" x="0px" y="0px"
	 width="100" height="100" enable-background="new 0 0 100 100" xml:space="preserve">
<path fill="#FFFFFF" stroke="#2B2A76" stroke-width="2.8346" stroke-miterlimit="10" d="M49.9,98.2c26.9,0,48.8-21.7,48.8-48.3
	c0-26.5-22-48.2-48.8-48.2S1.2,23.5,1.2,50C1.2,76.5,23.1,98.2,49.9,98.2z"/>
<path fill="#2B2A76" d="M49.9,94.3c24.7,0,44.9-19.9,44.9-44.3c0-24.3-20.1-44.2-44.9-44.2S5.1,25.6,5.1,50
	C5.1,74.4,25.2,94.3,49.9,94.3z"/>
<polygon fill="#FFFFFF" stroke="#FFFFFF" stroke-width="3.700000e-003" stroke-miterlimit="10" points="50.4,75.6 50.4,36.5 
	45.9,42.2 45.9,33.5 55.6,24.2 64.7,33.6 64.7,42 59.2,36.5 59.2,75.8 "/>
<path fill="#FFFFFF" stroke="#FFFFFF" stroke-width="0.216" stroke-miterlimit="10" d="M31.4,47.1h8.8l-4.9,4.7h9
	c3.6,0.1,6.4,1.7,8.4,4.5l-0.2,12.3c-1.4-3.1-3.9-8.4-8.5-7.4h-8.5l4.9,4.9h-9.2l-9.9-9.9L31.4,47.1z"/>
</svg>
