<?xml version="1.0" encoding="utf-8"?>
<!-- Generator: Adobe Illustrator 18.1.1, SVG Export Plug-In . SVG Version: 6.00 Build 0)  -->
<svg version="1.1" id="图层_1" xmlns="http://www.w3.org/2000/svg" xmlns:xlink="http://www.w3.org/1999/xlink" x="0px" y="0px"
	 width="100" height="100" enable-background="new 0 0 100 100" xml:space="preserve">
<path fill="#FFFFFF" stroke="#2B2A76" stroke-width="2.8346" stroke-miterlimit="10" d="M50.1,98.2C23.2,98.2,1.3,76.5,1.3,50
	c0-26.4,21.9-48.1,48.7-48.1S98.7,23.6,98.7,50C98.7,76.5,76.9,98.2,50.1,98.2z"/>
<path fill="#2B2A76" d="M50.1,94.2C25.4,94.2,5.3,74.3,5.3,50c0-24.3,20.1-44.1,44.8-44.1S94.8,25.7,94.8,50
	C94.8,74.3,74.7,94.2,50.1,94.2z"/>
<polygon fill="#FFFFFF" stroke="#FFFFFF" stroke-width="3.700000e-003" stroke-miterlimit="10" points="49.6,75.6 49.6,36.5 
	54.1,42.3 54.1,33.5 44.4,24.3 35.3,33.6 35.3,42.1 40.9,36.5 40.9,75.7 "/>
<path fill="#FFFFFF" stroke="#FFFFFF" stroke-width="0.216" stroke-miterlimit="10" d="M68.5,47.1h-8.8l4.9,4.7h-9
	c-3.6,0.1-6.4,1.7-8.3,4.5l0.2,12.3c1.4-3.1,3.8-8.3,8.4-7.4h8.5l-4.9,4.9h9.2l9.8-9.8L68.5,47.1z"/>
</svg>
