<?xml version="1.0" encoding="utf-8"?>
<!-- Generator: Adobe Illustrator 18.1.1, SVG Export Plug-In . SVG Version: 6.00 Build 0)  -->
<svg version="1.1" id="图层_1" xmlns="http://www.w3.org/2000/svg" xmlns:xlink="http://www.w3.org/1999/xlink" x="0px" y="0px"
	 width="100" height="100" enable-background="new 0 0 100 100" xml:space="preserve">
<ellipse fill="#FFFFFF" stroke="#2A3685" stroke-width="2.8346" stroke-miterlimit="2.4142" cx="50" cy="50" rx="48.7" ry="48.1"/>
<ellipse fill="#2A3685" cx="50" cy="50" rx="44.8" ry="44.2"/>
<path fill="#FFFFFF" stroke="#FFFFFF" stroke-width="3.685039e-003" stroke-miterlimit="2.4142" d="M47.3,71.8h7.1l0-27.2
	c0.4-2.6,2-3.7,5-3.5l6.8,0.1l-6.1,6l9.2,0L79,37l-11-8.8h-8.9l7,6.2l-12.7,0c-3.6,0.5-5.7,2.6-6.2,6.2L47.3,71.8L47.3,71.8z"/>
<path fill="#FFFFFF" stroke="#FFFFFF" stroke-width="3.685039e-003" stroke-miterlimit="2.4142" d="M52.8,71.8h-7.1l0-27.2
	c-0.4-2.6-2-3.7-5-3.5l-6.8,0.1l6.1,6l-9.2,0L21,37l11-8.8h8.9l-7,6.2l12.7,0c3.6,0.5,5.7,2.6,6.2,6.2V71.8L52.8,71.8z"/>
</svg>
